<?xml version="1.0" encoding="utf-8"?>
<!-- Generator: Adobe Illustrator 26.2.1, SVG Export Plug-In . SVG Version: 6.00 Build 0)  -->
<svg version="1.1" id="Layer_1" xmlns="http://www.w3.org/2000/svg" xmlns:xlink="http://www.w3.org/1999/xlink" x="0px" y="0px"
	 viewBox="0 0 809.5 616.7" style="enable-background:new 0 0 809.5 616.7;" xml:space="preserve">
<style type="text/css">
	.st0{fill:#A7A9AC;}
	.st1{fill:#989898;}
	.st2{fill:#FFFFFF;}
	.st3{fill:#818181;}
	.st4{fill:#E6E6E5;}
	.st5{fill:#4E4E4E;}
	.st6{fill:#CCCCCC;}
</style>
<g>
	<path class="st0" d="M745.6,335.5H63.8c-12.3,0-22.3-10-22.3-22.3V71.8c0-12.3,10-22.3,22.3-22.3h681.8c12.3,0,22.3,10,22.3,22.3
		v241.4C768,325.5,757.9,335.5,745.6,335.5z M63.8,53c-10.3,0-18.7,8.4-18.7,18.7v241.4c0,10.3,8.4,18.7,18.7,18.7h681.8
		c10.3,0,18.7-8.4,18.7-18.7V71.8c0-10.3-8.4-18.7-18.7-18.7H63.8z"/>
	<g>
		<circle class="st1" cx="719.1" cy="102.2" r="24"/>
		<polygon class="st2" points="728.1,106.7 718.4,97 708.9,106.5 706.3,103.9 718.4,91.8 730.7,104.1 		"/>
	</g>
	<g>
		<path class="st2" d="M723.6,304.4H454.3c-5.3,0-9.5-4.3-9.5-9.5V160.6c0-5.3,4.3-9.5,9.5-9.5h269.3c5.3,0,9.5,4.3,9.5,9.5v134.2
			C733.1,300.1,728.9,304.4,723.6,304.4z"/>
		<path class="st3" d="M723.6,305.5H454.3c-5.9,0-10.6-4.8-10.6-10.6V160.6c0-5.9,4.8-10.6,10.6-10.6h269.3
			c5.9,0,10.6,4.8,10.6,10.6v134.2C734.2,300.7,729.5,305.5,723.6,305.5z M454.3,152.2c-4.7,0-8.5,3.8-8.5,8.5v134.2
			c0,4.7,3.8,8.5,8.5,8.5h269.3c4.7,0,8.5-3.8,8.5-8.5V160.6c0-4.7-3.8-8.5-8.5-8.5H454.3z"/>
	</g>
	<g>
		<g>
			<circle class="st2" cx="613.7" cy="238" r="40.3"/>
			<path class="st3" d="M613.7,279.3c-22.8,0-41.4-18.6-41.4-41.4s18.6-41.4,41.4-41.4c22.8,0,41.4,18.6,41.4,41.4
				S636.5,279.3,613.7,279.3z M613.7,198.8c-21.6,0-39.2,17.6-39.2,39.2s17.6,39.2,39.2,39.2c21.6,0,39.2-17.6,39.2-39.2
				S635.3,198.8,613.7,198.8z"/>
		</g>
		<g>
			<polygon class="st2" points="571.7,175.5 595.9,217.5 620.1,259.5 571.7,259.5 523.2,259.5 547.4,217.5 			"/>
			<path class="st3" d="M622,260.6H521.3l50.4-87.2L622,260.6z M525.1,258.4h93.2l-46.6-80.7L525.1,258.4z"/>
		</g>
	</g>
	<rect x="78.9" y="158.3" class="st4" width="333.1" height="14.1"/>
	<rect x="78.9" y="180.7" class="st4" width="333.1" height="14.1"/>
	<rect x="78.9" y="208.7" class="st4" width="333.1" height="14.1"/>
	<rect x="78.9" y="231.9" class="st4" width="333.1" height="14.1"/>
	<rect x="78.9" y="253.2" class="st4" width="234.2" height="14.1"/>
	<g>
		<path class="st5" d="M92.9,92.8H88v12.4h-2.7V92.8h-4.8v-2.4h12.4V92.8z"/>
		<path class="st5" d="M93.4,91.4l4.1-3.6l1.5,2.1l-4.4,3.2L93.4,91.4z M94.8,94.1h2.6v11.1h-2.6V94.1z"/>
		<path class="st5" d="M108.1,102.8v2.2c-1,0.4-1.9,0.5-3.1,0.5c-2.8,0-3.9-1.4-3.9-4.3v-4.8h-1.7v-2.3h1.8l0.7-2.8h1.8v2.8h4.2v2.3
			h-4.2v4.5c0,1.7,0.6,2.3,2.1,2.3C106.6,103.3,107.4,103.1,108.1,102.8z"/>
		<path class="st5" d="M119.9,94.1v11.1h-2.2l-0.1-1.1c-1,0.9-2.2,1.4-3.6,1.4c-2.9,0-3.9-1.4-3.9-4.6v-6.8h2.6v6.6
			c0,1.8,0.6,2.5,2,2.5c0.9,0,1.9-0.4,2.8-1.3v-7.8H119.9z"/>
		<path class="st5" d="M123,89.4h2.6v15.9H123V89.4z"/>
		<path class="st5" d="M128.1,99.8c0-3.6,2.2-5.9,5.7-5.9c3.5,0,5.7,2.2,5.7,5.8c0,3.6-2.2,5.9-5.7,5.9
			C130.2,105.6,128.1,103.4,128.1,99.8z M136.8,99.7c0-2.3-1.2-3.6-3-3.6c-1.9,0-3,1.3-3,3.6c0,2.3,1.2,3.6,3,3.6
			C135.6,103.3,136.8,102,136.8,99.7z"/>
		<path class="st5" d="M146.2,104.9v-2.3c1.2,0.6,2.6,0.9,4,0.9c1.7,0,2.4-0.4,2.4-1.3c0-0.8-0.5-1.1-2.6-1.5
			c-2.6-0.4-3.8-1.4-3.8-3.4c0-2.2,1.7-3.5,4.7-3.5c1.5,0,2.7,0.2,3.7,0.6v2.2c-1.3-0.5-2.4-0.6-3.6-0.6c-1.5,0-2.2,0.4-2.2,1.1
			c0,0.7,0.5,1,2.8,1.4c2.6,0.4,3.7,1.4,3.7,3.5c0,2.3-1.7,3.6-4.9,3.6C148.8,105.6,147.2,105.3,146.2,104.9z"/>
		<path class="st5" d="M167.4,94.1v11.1h-2.2l-0.1-1.1c-1,0.9-2.2,1.4-3.6,1.4c-2.9,0-3.9-1.4-3.9-4.6v-6.8h2.6v6.6
			c0,1.8,0.6,2.5,2,2.5c0.9,0,1.9-0.4,2.8-1.3v-7.8H167.4z"/>
		<path class="st5" d="M181.1,99.5c0,3.6-1.9,6.1-5.7,6.1c-1.7,0-3.3-0.1-4.9-0.7V89.4h2.6v5.7c0.8-0.8,2-1.3,3.4-1.3
			C179.4,93.8,181.1,95.9,181.1,99.5z M178.5,99.6c0-2.3-1-3.5-2.6-3.5c-1.2,0-2.2,0.6-2.8,1.3v5.7c0.7,0.2,1.5,0.2,2.2,0.2
			C177.5,103.3,178.5,101.9,178.5,99.6z"/>
		<path class="st5" d="M191.1,102.8v2.2c-1,0.4-1.9,0.5-3.1,0.5c-2.8,0-3.9-1.4-3.9-4.3v-4.8h-1.7v-2.3h1.8l0.7-2.8h1.8v2.8h4.2v2.3
			h-4.2v4.5c0,1.7,0.6,2.3,2.1,2.3C189.5,103.3,190.3,103.1,191.1,102.8z"/>
		<path class="st5" d="M202.6,99.2c0,0.5,0,0.9,0,1.3h-7.7c0.3,1.9,1.4,2.9,3.6,2.9c1.4,0,2.3-0.2,3.6-0.7v2.2
			c-1.2,0.4-2.3,0.7-4,0.7c-3.7,0-5.8-2.2-5.8-5.8c0-3.6,2-6,5.4-6C200.8,93.8,202.6,95.6,202.6,99.2z M195,98.7h5.1
			c-0.1-1.9-1-2.6-2.4-2.6C196.3,96,195.2,96.9,195,98.7z"/>
		<path class="st5" d="M221,97.9v7.3h-2.6v-7c0-1.5-0.6-2.2-1.8-2.2c-0.9,0-1.7,0.4-2.3,1.3v7.9h-2.6v-7.1c0-1.4-0.6-2.1-1.8-2.1
			c-0.7,0-1.6,0.4-2.3,1.3v7.9H205V94.1h2.2l0.2,1c0.9-0.9,2-1.4,3.4-1.4c1.5,0,2.5,0.7,3,1.6c1-1.1,2.1-1.6,3.6-1.6
			C220,93.8,221,95.6,221,97.9z"/>
		<path class="st5" d="M232.9,98.5v6.8h-2.2l-0.1-0.9c-0.9,0.8-2.1,1.3-3.7,1.3c-2.3,0-3.7-1.3-3.7-3.4c0-2.2,1.6-3.5,4.2-3.5
			c1.2,0,2,0.1,2.9,0.4v-0.9c0-1.5-0.8-2.2-2.6-2.2c-1.4,0-2.5,0.3-3.5,0.7v-2.3c1-0.4,2.4-0.7,3.9-0.7
			C231.5,93.8,232.9,95.3,232.9,98.5z M230.3,102.5V101c-0.8-0.2-1.6-0.4-2.3-0.4c-1.4,0-2.1,0.5-2.1,1.5c0,1.1,0.8,1.5,1.8,1.5
			C228.7,103.6,229.6,103.2,230.3,102.5z"/>
		<path class="st5" d="M240.1,98.7c0-4,1.8-7.8,5.4-9.6l1.1,1.7c-2.8,1.8-4,4.7-4,8c0,3.3,1.2,6.1,4,7.9l-1.1,1.7
			C241.9,106.4,240.1,102.7,240.1,98.7z"/>
		<path class="st5" d="M256.1,102.8v2.4h-7.9v-2.4h2.7v-9.5l-2.9,0.9v-2.5l3.6-1.3h2v12.4H256.1z"/>
		<path class="st5" d="M263.4,98.7c0,4-1.8,7.8-5.4,9.6l-1.1-1.7c2.8-1.8,4-4.7,4-8c0-3.3-1.2-6.1-4-7.9L258,89
			C261.6,90.9,263.4,94.7,263.4,98.7z"/>
	</g>
	<path class="st6" d="M754.1,451.9H55.4c-7.6,0-13.9-6.2-13.9-13.9v-73.4c0-7.6,6.2-13.9,13.9-13.9h698.7c7.6,0,13.9,6.2,13.9,13.9
		V438C768,445.6,761.7,451.9,754.1,451.9z M55.4,354.4c-5.6,0-10.2,4.6-10.2,10.2V438c0,5.6,4.6,10.2,10.2,10.2h698.7
		c5.6,0,10.2-4.6,10.2-10.2v-73.4c0-5.6-4.6-10.2-10.2-10.2H55.4z"/>
	<g>
		<circle class="st1" cx="719.1" cy="403.5" r="24"/>
		<polygon class="st2" points="719.8,413.9 707.5,401.6 710.1,399 719.8,408.8 729.3,399.2 731.8,401.8 		"/>
	</g>
	<g>
		<path class="st5" d="M92.9,394.2H88v12.4h-2.7v-12.4h-4.8v-2.4h12.4V394.2z"/>
		<path class="st5" d="M93.4,392.7l4.1-3.6l1.5,2.1l-4.4,3.2L93.4,392.7z M94.8,395.5h2.6v11.1h-2.6V395.5z"/>
		<path class="st5" d="M108.1,404.2v2.2c-1,0.4-1.9,0.5-3.1,0.5c-2.8,0-3.9-1.4-3.9-4.3v-4.8h-1.7v-2.3h1.8l0.7-2.8h1.8v2.8h4.2v2.3
			h-4.2v4.5c0,1.7,0.6,2.3,2.1,2.3C106.6,404.6,107.4,404.5,108.1,404.2z"/>
		<path class="st5" d="M119.9,395.5v11.1h-2.2l-0.1-1.1c-1,0.9-2.2,1.4-3.6,1.4c-2.9,0-3.9-1.4-3.9-4.6v-6.8h2.6v6.6
			c0,1.8,0.6,2.5,2,2.5c0.9,0,1.9-0.4,2.8-1.3v-7.8H119.9z"/>
		<path class="st5" d="M123,390.7h2.6v15.9H123V390.7z"/>
		<path class="st5" d="M128.1,401.1c0-3.6,2.2-5.9,5.7-5.9c3.5,0,5.7,2.2,5.7,5.8c0,3.6-2.2,5.9-5.7,5.9
			C130.2,406.9,128.1,404.7,128.1,401.1z M136.8,401c0-2.3-1.2-3.6-3-3.6c-1.9,0-3,1.3-3,3.6c0,2.3,1.2,3.6,3,3.6
			C135.6,404.7,136.8,403.3,136.8,401z"/>
		<path class="st5" d="M146.2,406.2v-2.3c1.2,0.6,2.6,0.9,4,0.9c1.7,0,2.4-0.4,2.4-1.3c0-0.8-0.5-1.1-2.6-1.5
			c-2.6-0.4-3.8-1.4-3.8-3.4c0-2.2,1.7-3.5,4.7-3.5c1.5,0,2.7,0.2,3.7,0.6v2.2c-1.3-0.5-2.4-0.6-3.6-0.6c-1.5,0-2.2,0.4-2.2,1.1
			c0,0.7,0.5,1,2.8,1.4c2.6,0.4,3.7,1.4,3.7,3.5c0,2.3-1.7,3.6-4.9,3.6C148.8,406.9,147.2,406.7,146.2,406.2z"/>
		<path class="st5" d="M167.4,395.5v11.1h-2.2l-0.1-1.1c-1,0.9-2.2,1.4-3.6,1.4c-2.9,0-3.9-1.4-3.9-4.6v-6.8h2.6v6.6
			c0,1.8,0.6,2.5,2,2.5c0.9,0,1.9-0.4,2.8-1.3v-7.8H167.4z"/>
		<path class="st5" d="M181.1,400.8c0,3.6-1.9,6.1-5.7,6.1c-1.7,0-3.3-0.1-4.9-0.7v-15.5h2.6v5.7c0.8-0.8,2-1.3,3.4-1.3
			C179.4,395.2,181.1,397.2,181.1,400.8z M178.5,400.9c0-2.3-1-3.5-2.6-3.5c-1.2,0-2.2,0.6-2.8,1.3v5.7c0.7,0.2,1.5,0.2,2.2,0.2
			C177.5,404.7,178.5,403.2,178.5,400.9z"/>
		<path class="st5" d="M191.1,404.2v2.2c-1,0.4-1.9,0.5-3.1,0.5c-2.8,0-3.9-1.4-3.9-4.3v-4.8h-1.7v-2.3h1.8l0.7-2.8h1.8v2.8h4.2v2.3
			h-4.2v4.5c0,1.7,0.6,2.3,2.1,2.3C189.5,404.6,190.3,404.5,191.1,404.2z"/>
		<path class="st5" d="M202.6,400.5c0,0.5,0,0.9,0,1.3h-7.7c0.3,1.9,1.4,2.9,3.6,2.9c1.4,0,2.3-0.2,3.6-0.7v2.2
			c-1.2,0.4-2.3,0.7-4,0.7c-3.7,0-5.8-2.2-5.8-5.8c0-3.6,2-6,5.4-6C200.8,395.2,202.6,396.9,202.6,400.5z M195,400h5.1
			c-0.1-1.9-1-2.6-2.4-2.6C196.3,397.4,195.2,398.2,195,400z"/>
		<path class="st5" d="M221,399.3v7.3h-2.6v-7c0-1.5-0.6-2.2-1.8-2.2c-0.9,0-1.7,0.4-2.3,1.3v7.9h-2.6v-7.1c0-1.4-0.6-2.1-1.8-2.1
			c-0.7,0-1.6,0.4-2.3,1.3v7.9H205v-11.1h2.2l0.2,1c0.9-0.9,2-1.4,3.4-1.4c1.5,0,2.5,0.7,3,1.6c1-1.1,2.1-1.6,3.6-1.6
			C220,395.2,221,396.9,221,399.3z"/>
		<path class="st5" d="M232.9,399.9v6.8h-2.2l-0.1-0.9c-0.9,0.8-2.1,1.3-3.7,1.3c-2.3,0-3.7-1.3-3.7-3.4c0-2.2,1.6-3.5,4.2-3.5
			c1.2,0,2,0.1,2.9,0.4v-0.9c0-1.5-0.8-2.2-2.6-2.2c-1.4,0-2.5,0.3-3.5,0.7v-2.3c1-0.4,2.4-0.7,3.9-0.7
			C231.5,395.2,232.9,396.6,232.9,399.9z M230.3,403.9v-1.5c-0.8-0.2-1.6-0.4-2.3-0.4c-1.4,0-2.1,0.5-2.1,1.5c0,1.1,0.8,1.5,1.8,1.5
			C228.7,404.9,229.6,404.6,230.3,403.9z"/>
		<path class="st5" d="M240.1,400c0-4,1.8-7.8,5.4-9.6l1.1,1.7c-2.8,1.8-4,4.7-4,8c0,3.3,1.2,6.1,4,7.9l-1.1,1.7
			C241.9,407.8,240.1,404,240.1,400z"/>
		<path class="st5" d="M258.6,404.2v2.4H248v-2.2l4.4-3.8c1.8-1.5,2.8-2.6,2.8-4.4c0-1.7-1.2-2.5-3.1-2.5c-1.4,0-2.8,0.3-4.1,0.9
			v-2.4c1.3-0.6,3-0.9,4.7-0.9c3.3,0,5.3,1.6,5.3,4.6c0,2.9-1.7,4.6-4.1,6.6l-2.1,1.7H258.6z"/>
		<path class="st5" d="M266.4,400c0,4-1.8,7.8-5.4,9.6l-1.1-1.7c2.8-1.8,4-4.7,4-8c0-3.3-1.2-6.1-4-7.9l1.1-1.7
			C264.6,392.2,266.4,396,266.4,400z"/>
	</g>
	<path class="st6" d="M754.1,567.2H55.4c-7.6,0-13.9-6.2-13.9-13.9V480c0-7.6,6.2-13.9,13.9-13.9h698.7c7.6,0,13.9,6.2,13.9,13.9
		v73.4C768,561,761.7,567.2,754.1,567.2z M55.4,469.8c-5.6,0-10.2,4.6-10.2,10.2v73.4c0,5.6,4.6,10.2,10.2,10.2h698.7
		c5.6,0,10.2-4.6,10.2-10.2V480c0-5.6-4.6-10.2-10.2-10.2H55.4z"/>
	<g>
		<circle class="st1" cx="719.1" cy="518.9" r="24"/>
		<polygon class="st2" points="719.8,529.3 707.5,517 710.1,514.4 719.8,524.1 729.3,514.6 731.8,517.2 		"/>
	</g>
	<g>
		<path class="st5" d="M92.9,509.6H88V522h-2.7v-12.4h-4.8v-2.4h12.4V509.6z"/>
		<path class="st5" d="M93.4,508.1l4.1-3.6l1.5,2.1l-4.4,3.2L93.4,508.1z M94.8,510.9h2.6V522h-2.6V510.9z"/>
		<path class="st5" d="M108.1,519.6v2.2c-1,0.4-1.9,0.5-3.1,0.5c-2.8,0-3.9-1.4-3.9-4.3v-4.8h-1.7v-2.3h1.8l0.7-2.8h1.8v2.8h4.2v2.3
			h-4.2v4.5c0,1.7,0.6,2.3,2.1,2.3C106.6,520,107.4,519.9,108.1,519.6z"/>
		<path class="st5" d="M119.9,510.9V522h-2.2l-0.1-1.1c-1,0.9-2.2,1.4-3.6,1.4c-2.9,0-3.9-1.4-3.9-4.6v-6.8h2.6v6.6
			c0,1.8,0.6,2.5,2,2.5c0.9,0,1.9-0.4,2.8-1.3v-7.8H119.9z"/>
		<path class="st5" d="M123,506.1h2.6V522H123V506.1z"/>
		<path class="st5" d="M128.1,516.5c0-3.6,2.2-5.9,5.7-5.9c3.5,0,5.7,2.2,5.7,5.8c0,3.6-2.2,5.9-5.7,5.9
			C130.2,522.3,128.1,520.1,128.1,516.5z M136.8,516.4c0-2.3-1.2-3.6-3-3.6c-1.9,0-3,1.3-3,3.6c0,2.3,1.2,3.6,3,3.6
			C135.6,520.1,136.8,518.7,136.8,516.4z"/>
		<path class="st5" d="M146.2,521.6v-2.3c1.2,0.6,2.6,0.9,4,0.9c1.7,0,2.4-0.4,2.4-1.3c0-0.8-0.5-1.1-2.6-1.5
			c-2.6-0.4-3.8-1.4-3.8-3.4c0-2.2,1.7-3.5,4.7-3.5c1.5,0,2.7,0.2,3.7,0.6v2.2c-1.3-0.5-2.4-0.6-3.6-0.6c-1.5,0-2.2,0.4-2.2,1.1
			c0,0.7,0.5,1,2.8,1.4c2.6,0.4,3.7,1.4,3.7,3.5c0,2.3-1.7,3.6-4.9,3.6C148.8,522.3,147.2,522.1,146.2,521.6z"/>
		<path class="st5" d="M167.4,510.9V522h-2.2l-0.1-1.1c-1,0.9-2.2,1.4-3.6,1.4c-2.9,0-3.9-1.4-3.9-4.6v-6.8h2.6v6.6
			c0,1.8,0.6,2.5,2,2.5c0.9,0,1.9-0.4,2.8-1.3v-7.8H167.4z"/>
		<path class="st5" d="M181.1,516.2c0,3.6-1.9,6.1-5.7,6.1c-1.7,0-3.3-0.1-4.9-0.7v-15.5h2.6v5.7c0.8-0.8,2-1.3,3.4-1.3
			C179.4,510.5,181.1,512.6,181.1,516.2z M178.5,516.3c0-2.3-1-3.5-2.6-3.5c-1.2,0-2.2,0.6-2.8,1.3v5.7c0.7,0.2,1.5,0.2,2.2,0.2
			C177.5,520.1,178.5,518.6,178.5,516.3z"/>
		<path class="st5" d="M191.1,519.6v2.2c-1,0.4-1.9,0.5-3.1,0.5c-2.8,0-3.9-1.4-3.9-4.3v-4.8h-1.7v-2.3h1.8l0.7-2.8h1.8v2.8h4.2v2.3
			h-4.2v4.5c0,1.7,0.6,2.3,2.1,2.3C189.5,520,190.3,519.9,191.1,519.6z"/>
		<path class="st5" d="M202.6,515.9c0,0.5,0,0.9,0,1.3h-7.7c0.3,1.9,1.4,2.9,3.6,2.9c1.4,0,2.3-0.2,3.6-0.7v2.2
			c-1.2,0.4-2.3,0.7-4,0.7c-3.7,0-5.8-2.2-5.8-5.8c0-3.6,2-6,5.4-6C200.8,510.5,202.6,512.3,202.6,515.9z M195,515.4h5.1
			c-0.1-1.9-1-2.6-2.4-2.6C196.3,512.7,195.2,513.6,195,515.4z"/>
		<path class="st5" d="M221,514.6v7.3h-2.6v-7c0-1.5-0.6-2.2-1.8-2.2c-0.9,0-1.7,0.4-2.3,1.3v7.9h-2.6v-7.1c0-1.4-0.6-2.1-1.8-2.1
			c-0.7,0-1.6,0.4-2.3,1.3v7.9H205v-11.1h2.2l0.2,1c0.9-0.9,2-1.4,3.4-1.4c1.5,0,2.5,0.7,3,1.6c1-1.1,2.1-1.6,3.6-1.6
			C220,510.5,221,512.3,221,514.6z"/>
		<path class="st5" d="M232.9,515.2v6.8h-2.2l-0.1-0.9c-0.9,0.8-2.1,1.3-3.7,1.3c-2.3,0-3.7-1.3-3.7-3.4c0-2.2,1.6-3.5,4.2-3.5
			c1.2,0,2,0.1,2.9,0.4V515c0-1.5-0.8-2.2-2.6-2.2c-1.4,0-2.5,0.3-3.5,0.7v-2.3c1-0.4,2.4-0.7,3.9-0.7
			C231.5,510.5,232.9,512,232.9,515.2z M230.3,519.2v-1.5c-0.8-0.2-1.6-0.4-2.3-0.4c-1.4,0-2.1,0.5-2.1,1.5c0,1.1,0.8,1.5,1.8,1.5
			C228.7,520.3,229.6,520,230.3,519.2z"/>
		<path class="st5" d="M240.1,515.4c0-4,1.8-7.8,5.4-9.6l1.1,1.7c-2.8,1.8-4,4.7-4,8c0,3.3,1.2,6.1,4,7.9l-1.1,1.7
			C241.9,523.2,240.1,519.4,240.1,515.4z"/>
		<path class="st5" d="M258.7,517.7c0,2.9-2,4.7-6.2,4.7c-2.1,0-3.4-0.3-4.6-0.9V519c1.2,0.6,2.7,1,4.5,1c2.1,0,3.3-0.8,3.3-2.4
			c0-1.6-1-2.2-2.7-2.2c-0.9,0-1.4,0.1-2,0.2l-0.9-1.7l4.2-4.2h-6.2v-2.4h10v1.9l-4.4,4.3c0.2,0,0.3,0,0.5,0
			C257,513.3,258.7,514.8,258.7,517.7z"/>
		<path class="st5" d="M266.6,515.4c0,4-1.8,7.8-5.4,9.6l-1.1-1.7c2.8-1.8,4-4.7,4-8c0-3.3-1.2-6.1-4-7.9l1.1-1.7
			C264.8,507.6,266.6,511.4,266.6,515.4z"/>
	</g>
</g>
</svg>
