<?xml version="1.0" encoding="utf-8"?>
<!-- Generator: Adobe Illustrator 26.2.1, SVG Export Plug-In . SVG Version: 6.00 Build 0)  -->
<svg version="1.1" id="Layer_1" xmlns="http://www.w3.org/2000/svg" xmlns:xlink="http://www.w3.org/1999/xlink" x="0px" y="0px"
	 viewBox="0 0 1000.9 616.7" style="enable-background:new 0 0 1000.9 616.7;" xml:space="preserve">
<style type="text/css">
	.st0{fill:#A7A9AC;}
	.st1{fill:#FFFFFF;stroke:#818181;stroke-width:3;stroke-miterlimit:10;}
	.st2{fill:#E6E6E5;}
	.st3{fill:#4E4E4E;}
	.st4{fill:#B4B4B4;}
	.st5{fill:#B4B4B4;stroke:#B4B4B4;stroke-width:4;stroke-miterlimit:10;}
</style>
<g>
	<path class="st0" d="M915.4,556.4H76.2c-15.3,0-27.8-12.5-27.8-27.8V89c0-15.3,12.5-27.8,27.8-27.8h283.3v175.4h555.9
		c15.3,0,27.8,12.5,27.8,27.8v264.3C943.2,544,930.8,556.4,915.4,556.4z M76.2,66.2c-12.5,0-22.8,10.2-22.8,22.8v439.7
		c0,12.5,10.2,22.8,22.8,22.8h839.2c12.5,0,22.8-10.2,22.8-22.8V264.4c0-12.5-10.2-22.8-22.8-22.8H354.5V66.2H76.2z"/>
	<path class="st1" d="M888.3,492.9H556.9c-6.5,0-11.8-5.3-11.8-11.8V316c0-6.5,5.3-11.8,11.8-11.8h331.5c6.5,0,11.8,5.3,11.8,11.8
		v165.2C900.1,487.7,894.8,492.9,888.3,492.9z"/>
	<g>
		<circle class="st1" cx="753.1" cy="411.2" r="49.6"/>
		<polygon class="st1" points="701.3,334.3 731.1,386 761,437.7 701.3,437.7 641.6,437.7 671.5,386 		"/>
	</g>
	<rect x="94.7" y="313.1" class="st2" width="410" height="17.4"/>
	<rect x="94.7" y="340.7" class="st2" width="410" height="17.4"/>
	<rect x="94.7" y="375.2" class="st2" width="410" height="17.4"/>
	<rect x="94.7" y="403.7" class="st2" width="410" height="17.4"/>
	<rect x="94.7" y="430" class="st2" width="288.3" height="17.4"/>
	<g>
		<path class="st3" d="M138.5,172.2h-6v15.3h-3.3v-15.3h-6v-2.9h15.3V172.2z"/>
		<path class="st3" d="M139.1,170.4l5-4.5l1.9,2.5l-5.4,3.9L139.1,170.4z M140.9,173.8h3.2v13.7h-3.2V173.8z"/>
		<path class="st3" d="M157.3,184.6v2.7c-1.2,0.4-2.3,0.6-3.8,0.6c-3.4,0-4.8-1.8-4.8-5.3v-5.9h-2.1v-2.8h2.2l0.9-3.4h2.3v3.4h5.2
			v2.8h-5.2v5.5c0,2.1,0.7,2.9,2.6,2.9C155.4,185.1,156.4,184.9,157.3,184.6z"/>
		<path class="st3" d="M171.8,173.8v13.7h-2.7l-0.2-1.3c-1.2,1.1-2.7,1.7-4.5,1.7c-3.5,0-4.8-1.7-4.8-5.7v-8.4h3.2v8.1
			c0,2.2,0.8,3.1,2.4,3.1c1.1,0,2.4-0.4,3.4-1.6v-9.6H171.8z"/>
		<path class="st3" d="M175.6,168h3.2v19.5h-3.2V168z"/>
		<path class="st3" d="M181.8,180.8c0-4.5,2.7-7.3,7-7.3c4.3,0,7,2.8,7,7.2c0,4.5-2.7,7.3-7.1,7.3
			C184.4,187.9,181.8,185.2,181.8,180.8z M192.6,180.7c0-2.9-1.4-4.5-3.8-4.5c-2.3,0-3.8,1.6-3.8,4.5c0,2.9,1.5,4.5,3.8,4.5
			C191.1,185.2,192.6,183.5,192.6,180.7z"/>
		<path class="st3" d="M204.2,187.1v-2.9c1.5,0.7,3.2,1.1,4.9,1.1c2.1,0,3-0.5,3-1.6c0-1-0.7-1.4-3.2-1.8c-3.2-0.5-4.7-1.7-4.7-4.1
			c0-2.7,2-4.3,5.7-4.3c1.9,0,3.3,0.2,4.6,0.7v2.7c-1.6-0.6-2.9-0.8-4.5-0.8c-1.9,0-2.7,0.4-2.7,1.4c0,0.9,0.6,1.3,3.4,1.7
			c3.2,0.5,4.5,1.7,4.5,4.3c0,2.8-2.1,4.4-6,4.4C207.3,187.9,205.5,187.6,204.2,187.1z"/>
		<path class="st3" d="M230.3,173.8v13.7h-2.7l-0.2-1.3c-1.2,1.1-2.7,1.7-4.5,1.7c-3.5,0-4.8-1.7-4.8-5.7v-8.4h3.2v8.1
			c0,2.2,0.8,3.1,2.4,3.1c1.1,0,2.4-0.4,3.4-1.6v-9.6H230.3z"/>
		<path class="st3" d="M247.1,180.4c0,4.4-2.3,7.5-7.1,7.5c-2.1,0-4.1-0.2-6-0.9V168h3.2v7c1-1,2.5-1.6,4.2-1.6
			C245.1,173.4,247.1,176,247.1,180.4z M243.9,180.5c0-2.8-1.2-4.4-3.2-4.4c-1.5,0-2.7,0.7-3.4,1.6v7c0.9,0.2,1.9,0.3,2.8,0.3
			C242.7,185.2,243.9,183.4,243.9,180.5z"/>
		<path class="st3" d="M259.4,184.6v2.7c-1.2,0.4-2.3,0.6-3.8,0.6c-3.4,0-4.8-1.8-4.8-5.3v-5.9h-2.1v-2.8h2.2l0.9-3.4h2.3v3.4h5.2
			v2.8H254v5.5c0,2.1,0.7,2.9,2.6,2.9C257.5,185.1,258.5,184.9,259.4,184.6z"/>
		<path class="st3" d="M273.6,180.1c0,0.6,0,1.1,0,1.6h-9.4c0.3,2.3,1.7,3.5,4.4,3.5c1.7,0,2.9-0.2,4.4-0.8v2.7
			c-1.5,0.5-2.9,0.8-4.9,0.8c-4.6,0-7.1-2.7-7.1-7.1c0-4.4,2.5-7.3,6.7-7.3C271.3,173.4,273.6,175.6,273.6,180.1z M264.2,179.4h6.3
			c-0.1-2.3-1.2-3.3-3-3.3C265.8,176.1,264.5,177.2,264.2,179.4z"/>
		<path class="st3" d="M296.3,178.5v9H293v-8.6c0-1.8-0.7-2.7-2.2-2.7c-1.1,0-2,0.5-2.8,1.6v9.7h-3.2v-8.8c0-1.7-0.7-2.5-2.2-2.5
			c-0.9,0-2,0.5-2.8,1.6v9.7h-3.2v-13.7h2.7l0.2,1.3c1.1-1.1,2.5-1.7,4.2-1.7c1.9,0,3,0.8,3.7,2c1.2-1.4,2.6-2,4.5-2
			C295,173.4,296.3,175.6,296.3,178.5z"/>
		<path class="st3" d="M310.9,179.2v8.3h-2.7l-0.2-1.1c-1.1,1-2.6,1.6-4.5,1.6c-2.9,0-4.5-1.6-4.5-4.1c0-2.7,2-4.3,5.2-4.3
			c1.4,0,2.5,0.2,3.6,0.5V179c0-1.9-1-2.7-3.3-2.7c-1.7,0-3.1,0.3-4.3,0.8v-2.8c1.3-0.5,3-0.8,4.7-0.8
			C309.2,173.4,310.9,175.2,310.9,179.2z M307.6,184.1v-1.9c-0.9-0.3-2-0.5-2.9-0.5c-1.7,0-2.6,0.6-2.6,1.9c0,1.4,0.9,1.8,2.2,1.8
			C305.7,185.5,306.8,185,307.6,184.1z"/>
	</g>
	<g>
		<g>
			<path class="st4" d="M235,107.7l2.6-2.6l2.4,2.4l2.4-2.4l-7.1-7.1l-2.4,2.4l2.4,2.4l-2.9,2.9c-2.9-2.1-6.2-3.5-9.7-4.2v-4h3.4V94
				h-16.8v3.4h3.4v4c-3.5,0.7-6.8,2.1-9.7,4.2l-2.9-2.9l2.4-2.4l-2.4-2.4l-7.1,7.1l2.4,2.4l2.4-2.4l2.6,2.6
				c-5,4.7-7.9,11.2-7.9,18.3c0,13.9,11.3,25.3,25.2,25.3c13.9,0,25.2-11.3,25.2-25.3C242.9,119.2,240.2,112.6,235,107.7z
				 M216.1,97.3h3.4v3.5c-0.6,0-1.1-0.1-1.7-0.1c-0.6,0-1.1,0-1.7,0.1V97.3z M217.7,147.9c-12,0-21.8-9.8-21.8-21.9
				c0-12,9.8-21.8,21.8-21.8s21.8,9.8,21.8,21.8C239.6,138.1,229.8,147.9,217.7,147.9z"/>
			<path class="st4" d="M219.4,121.2v-13.7h-3.4v13.7c-2,0.7-3.4,2.6-3.4,4.7c0,2.8,2.3,5,5,5c2.8,0,5-2.3,5-5
				C222.8,123.8,221.4,121.9,219.4,121.2z M217.7,127.7c-0.9,0-1.7-0.8-1.7-1.7c0-0.9,0.8-1.7,1.7-1.7s1.7,0.8,1.7,1.7
				C219.4,126.9,218.7,127.7,217.7,127.7z"/>
			<path class="st4" d="M216.1,141.1h3.4v3.4h-3.4V141.1z"/>
			<path class="st4" d="M199.3,124.3h3.4v3.4h-3.4V124.3z"/>
			<path class="st4" d="M232.8,124.3h3.4v3.4h-3.4V124.3z"/>
			<path class="st4" d="M205.9,140.2l-2.4-2.4l2.4-2.4l2.4,2.4L205.9,140.2z"/>
			<path class="st4" d="M229.6,116.5l-2.4-2.4l2.4-2.4l2.4,2.4L229.6,116.5z"/>
			<path class="st4" d="M229.6,140.2l-2.4-2.4l2.4-2.4l2.4,2.4L229.6,140.2z"/>
			<path class="st4" d="M205.9,116.5l-2.4-2.4l2.4-2.4l2.4,2.4L205.9,116.5z"/>
		</g>
	</g>
	<g>
		<path class="st3" d="M443.9,172.2h-6v15.3h-3.3v-15.3h-6v-2.9h15.3V172.2z"/>
		<path class="st3" d="M444.5,170.4l5-4.5l1.9,2.5l-5.4,3.9L444.5,170.4z M446.3,173.8h3.2v13.7h-3.2V173.8z"/>
		<path class="st3" d="M462.7,184.6v2.7c-1.2,0.4-2.3,0.6-3.8,0.6c-3.4,0-4.8-1.8-4.8-5.3v-5.9H452v-2.8h2.2l0.9-3.4h2.3v3.4h5.2
			v2.8h-5.2v5.5c0,2.1,0.7,2.9,2.6,2.9C460.8,185.1,461.8,184.9,462.7,184.6z"/>
		<path class="st3" d="M477.2,173.8v13.7h-2.7l-0.2-1.3c-1.2,1.1-2.7,1.7-4.5,1.7c-3.5,0-4.8-1.7-4.8-5.7v-8.4h3.2v8.1
			c0,2.2,0.8,3.1,2.4,3.1c1.1,0,2.4-0.4,3.4-1.6v-9.6H477.2z"/>
		<path class="st3" d="M481,168h3.2v19.5H481V168z"/>
		<path class="st3" d="M487.2,180.8c0-4.5,2.7-7.3,7-7.3c4.3,0,7,2.8,7,7.2c0,4.5-2.7,7.3-7.1,7.3
			C489.8,187.9,487.2,185.2,487.2,180.8z M498,180.7c0-2.9-1.4-4.5-3.8-4.5c-2.3,0-3.8,1.6-3.8,4.5c0,2.9,1.5,4.5,3.8,4.5
			C496.5,185.2,498,183.5,498,180.7z"/>
		<path class="st3" d="M509.6,187.1v-2.9c1.5,0.7,3.2,1.1,4.9,1.1c2.1,0,3-0.5,3-1.6c0-1-0.7-1.4-3.2-1.8c-3.2-0.5-4.7-1.7-4.7-4.1
			c0-2.7,2-4.3,5.7-4.3c1.9,0,3.3,0.2,4.6,0.7v2.7c-1.6-0.6-2.9-0.8-4.5-0.8c-1.9,0-2.7,0.4-2.7,1.4c0,0.9,0.6,1.3,3.4,1.7
			c3.2,0.5,4.5,1.7,4.5,4.3c0,2.8-2.1,4.4-6,4.4C512.7,187.9,510.8,187.6,509.6,187.1z"/>
		<path class="st3" d="M535.6,173.8v13.7h-2.7l-0.2-1.3c-1.2,1.1-2.7,1.7-4.5,1.7c-3.5,0-4.8-1.7-4.8-5.7v-8.4h3.2v8.1
			c0,2.2,0.8,3.1,2.4,3.1c1.1,0,2.4-0.4,3.4-1.6v-9.6H535.6z"/>
		<path class="st3" d="M552.5,180.4c0,4.4-2.3,7.5-7.1,7.5c-2.1,0-4.1-0.2-6-0.9V168h3.2v7c1-1,2.5-1.6,4.2-1.6
			C550.5,173.4,552.5,176,552.5,180.4z M549.3,180.5c0-2.8-1.2-4.4-3.2-4.4c-1.5,0-2.7,0.7-3.4,1.6v7c0.9,0.2,1.9,0.3,2.8,0.3
			C548.1,185.2,549.3,183.4,549.3,180.5z"/>
		<path class="st3" d="M564.8,184.6v2.7c-1.2,0.4-2.3,0.6-3.8,0.6c-3.4,0-4.8-1.8-4.8-5.3v-5.9h-2.1v-2.8h2.2l0.9-3.4h2.3v3.4h5.2
			v2.8h-5.2v5.5c0,2.1,0.7,2.9,2.6,2.9C562.9,185.1,563.9,184.9,564.8,184.6z"/>
		<path class="st3" d="M579,180.1c0,0.6,0,1.1,0,1.6h-9.4c0.3,2.3,1.7,3.5,4.4,3.5c1.7,0,2.9-0.2,4.4-0.8v2.7
			c-1.5,0.5-2.9,0.8-4.9,0.8c-4.6,0-7.1-2.7-7.1-7.1c0-4.4,2.5-7.3,6.7-7.3C576.7,173.4,579,175.6,579,180.1z M569.6,179.4h6.3
			c-0.1-2.3-1.2-3.3-3-3.3C571.2,176.1,569.9,177.2,569.6,179.4z"/>
		<path class="st3" d="M601.6,178.5v9h-3.2v-8.6c0-1.8-0.7-2.7-2.2-2.7c-1.1,0-2,0.5-2.8,1.6v9.7h-3.2v-8.8c0-1.7-0.7-2.5-2.2-2.5
			c-0.9,0-2,0.5-2.8,1.6v9.7H582v-13.7h2.7l0.2,1.3c1.1-1.1,2.5-1.7,4.2-1.7c1.9,0,3,0.8,3.7,2c1.2-1.4,2.6-2,4.5-2
			C600.4,173.4,601.6,175.6,601.6,178.5z"/>
		<path class="st3" d="M616.3,179.2v8.3h-2.7l-0.2-1.1c-1.1,1-2.6,1.6-4.5,1.6c-2.9,0-4.5-1.6-4.5-4.1c0-2.7,2-4.3,5.2-4.3
			c1.4,0,2.5,0.2,3.6,0.5V179c0-1.9-1-2.7-3.3-2.7c-1.7,0-3.1,0.3-4.3,0.8v-2.8c1.3-0.5,3-0.8,4.7-0.8
			C614.6,173.4,616.3,175.2,616.3,179.2z M613,184.1v-1.9c-0.9-0.3-2-0.5-2.9-0.5c-1.7,0-2.6,0.6-2.6,1.9c0,1.4,0.9,1.8,2.2,1.8
			C611.1,185.5,612.2,185,613,184.1z"/>
	</g>
	<g>
		<path class="st3" d="M749.3,172.2h-6v15.3H740v-15.3h-6v-2.9h15.3V172.2z"/>
		<path class="st3" d="M749.9,170.4l5-4.5l1.9,2.5l-5.4,3.9L749.9,170.4z M751.7,173.8h3.2v13.7h-3.2V173.8z"/>
		<path class="st3" d="M768.1,184.6v2.7c-1.2,0.4-2.3,0.6-3.8,0.6c-3.4,0-4.8-1.8-4.8-5.3v-5.9h-2.1v-2.8h2.2l0.9-3.4h2.3v3.4h5.2
			v2.8h-5.2v5.5c0,2.1,0.7,2.9,2.6,2.9C766.2,185.1,767.2,184.9,768.1,184.6z"/>
		<path class="st3" d="M782.6,173.8v13.7h-2.7l-0.2-1.3c-1.2,1.1-2.7,1.7-4.5,1.7c-3.5,0-4.8-1.7-4.8-5.7v-8.4h3.2v8.1
			c0,2.2,0.8,3.1,2.4,3.1c1.1,0,2.4-0.4,3.4-1.6v-9.6H782.6z"/>
		<path class="st3" d="M786.4,168h3.2v19.5h-3.2V168z"/>
		<path class="st3" d="M792.6,180.8c0-4.5,2.7-7.3,7-7.3c4.3,0,7,2.8,7,7.2c0,4.5-2.7,7.3-7.1,7.3
			C795.2,187.9,792.6,185.2,792.6,180.8z M803.4,180.7c0-2.9-1.4-4.5-3.8-4.5c-2.3,0-3.8,1.6-3.8,4.5c0,2.9,1.5,4.5,3.8,4.5
			C801.9,185.2,803.4,183.5,803.4,180.7z"/>
		<path class="st3" d="M815,187.1v-2.9c1.5,0.7,3.2,1.1,4.9,1.1c2.1,0,3-0.5,3-1.6c0-1-0.7-1.4-3.2-1.8c-3.2-0.5-4.7-1.7-4.7-4.1
			c0-2.7,2-4.3,5.7-4.3c1.9,0,3.3,0.2,4.6,0.7v2.7c-1.6-0.6-2.9-0.8-4.5-0.8c-1.9,0-2.7,0.4-2.7,1.4c0,0.9,0.6,1.3,3.4,1.7
			c3.2,0.5,4.5,1.7,4.5,4.3c0,2.8-2.1,4.4-6,4.4C818.1,187.9,816.2,187.6,815,187.1z"/>
		<path class="st3" d="M841,173.8v13.7h-2.7l-0.2-1.3c-1.2,1.1-2.7,1.7-4.5,1.7c-3.5,0-4.8-1.7-4.8-5.7v-8.4h3.2v8.1
			c0,2.2,0.8,3.1,2.4,3.1c1.1,0,2.4-0.4,3.4-1.6v-9.6H841z"/>
		<path class="st3" d="M857.9,180.4c0,4.4-2.3,7.5-7.1,7.5c-2.1,0-4.1-0.2-6-0.9V168h3.2v7c1-1,2.5-1.6,4.2-1.6
			C855.9,173.4,857.9,176,857.9,180.4z M854.7,180.5c0-2.8-1.2-4.4-3.2-4.4c-1.5,0-2.7,0.7-3.4,1.6v7c0.9,0.2,1.9,0.3,2.8,0.3
			C853.5,185.2,854.7,183.4,854.7,180.5z"/>
		<path class="st3" d="M870.2,184.6v2.7c-1.2,0.4-2.3,0.6-3.8,0.6c-3.4,0-4.8-1.8-4.8-5.3v-5.9h-2.1v-2.8h2.2l0.9-3.4h2.3v3.4h5.2
			v2.8h-5.2v5.5c0,2.1,0.7,2.9,2.6,2.9C868.3,185.1,869.3,184.9,870.2,184.6z"/>
		<path class="st3" d="M884.4,180.1c0,0.6,0,1.1,0,1.6h-9.4c0.3,2.3,1.7,3.5,4.4,3.5c1.7,0,2.9-0.2,4.4-0.8v2.7
			c-1.5,0.5-2.9,0.8-4.9,0.8c-4.6,0-7.1-2.7-7.1-7.1c0-4.4,2.5-7.3,6.7-7.3C882.1,173.4,884.4,175.6,884.4,180.1z M875,179.4h6.3
			c-0.1-2.3-1.2-3.3-3-3.3C876.6,176.1,875.3,177.2,875,179.4z"/>
		<path class="st3" d="M907,178.5v9h-3.2v-8.6c0-1.8-0.7-2.7-2.2-2.7c-1.1,0-2,0.5-2.8,1.6v9.7h-3.2v-8.8c0-1.7-0.7-2.5-2.2-2.5
			c-0.9,0-2,0.5-2.8,1.6v9.7h-3.2v-13.7h2.7l0.2,1.3c1.1-1.1,2.5-1.7,4.2-1.7c1.9,0,3,0.8,3.7,2c1.2-1.4,2.6-2,4.5-2
			C905.8,173.4,907,175.6,907,178.5z"/>
		<path class="st3" d="M921.7,179.2v8.3h-2.7l-0.2-1.1c-1.1,1-2.6,1.6-4.5,1.6c-2.9,0-4.5-1.6-4.5-4.1c0-2.7,2-4.3,5.2-4.3
			c1.4,0,2.5,0.2,3.6,0.5V179c0-1.9-1-2.7-3.3-2.7c-1.7,0-3.1,0.3-4.3,0.8v-2.8c1.3-0.5,3-0.8,4.7-0.8
			C920,173.4,921.7,175.2,921.7,179.2z M918.4,184.1v-1.9c-0.9-0.3-2-0.5-2.9-0.5c-1.7,0-2.6,0.6-2.6,1.9c0,1.4,0.9,1.8,2.2,1.8
			C916.5,185.5,917.6,185,918.4,184.1z"/>
	</g>
	<g>
		<g>
			<path class="st4" d="M543.7,98l-6.1,3.1l-1.4-2.7l6.1-3.1L543.7,98z"/>
			<path class="st4" d="M542.3,122.4l-6.1-3.1l1.4-2.7l6.1,3.1L542.3,122.4z"/>
			<path class="st4" d="M538.4,107.3h6.2v3.1h-6.2V107.3z"/>
			<path class="st4" d="M494.8,95.2l6.1,3.1l-1.4,2.7l-6.1-3.1L494.8,95.2z"/>
			<path class="st4" d="M494.8,122.4l-1.4-2.7l6.1-3.1l1.4,2.7L494.8,122.4z"/>
			<path class="st4" d="M492.5,107.3h6.2v3.1h-6.2V107.3z"/>
			<path class="st4" d="M514,141.1h9.2v3.1H514V141.1z"/>
			<path class="st4" d="M535.3,108.8c0-9.3-7.5-16.8-16.8-16.8c-9.3,0-16.8,7.5-16.8,16.8c0,6.3,3.6,12.1,9.2,14.9v4.9h-3.1v3.1h3.1
				v6.3h15.3v-6.3h3.1v-3.1h-3.1v-4.9C531.8,120.9,535.3,115.1,535.3,108.8z M523.1,135H514v-3.3h9.2V135z M517,111.9
				c0-0.8,0.7-1.5,1.5-1.5c0.8,0,1.5,0.7,1.5,1.5c0,0.8-0.7,1.5-1.5,1.5C517.7,113.4,517,112.7,517,111.9z M520.1,128.7v-12.5
				c1.8-0.6,3.1-2.3,3.1-4.3c0-2.5-2.1-4.6-4.6-4.6s-4.6,2.1-4.6,4.6c0,2,1.3,3.7,3.1,4.3v12.5H514v-6.9l-0.9-0.4
				c-5-2.2-8.3-7.1-8.3-12.6c0-7.6,6.2-13.7,13.7-13.7c7.6,0,13.7,6.2,13.7,13.7c0,5.4-3.2,10.4-8.2,12.6l-0.9,0.4v6.9H520.1z"/>
		</g>
	</g>
	<path class="st4" d="M801.4,98.8l-3.9,3.9l1.9,3.8c-0.7,1-1.3,2.1-1.9,3.2l-4.3,0.3l-1.4,5.3l3.6,2.4l0,0c-0.1,0.6-0.1,1.3-0.1,1.9
		c0,0.6,0,1.3,0.1,1.9l0,0l-3.6,2.4l1.4,5.3l4.3,0.3c0.5,1.1,1.1,2.2,1.9,3.2l-1.9,3.8l3.9,3.9l3.8-1.9c1,0.7,2.1,1.3,3.2,1.9
		l0.3,4.3l5.3,1.4l2.4-3.6c0.6,0,1.2,0.1,1.9,0.1c0.6,0,1.3,0,1.9-0.1l0,0l2.4,3.6l5.3-1.4l0.3-4.3c1.1-0.5,2.2-1.1,3.2-1.9l3.8,1.9
		l3.9-3.9l-1.9-3.8c0.7-1,1.3-2.1,1.9-3.2l4.3-0.3l1.4-5.3l-3.6-2.4c0-0.6,0.1-1.2,0.1-1.9c0-0.6,0-1.3-0.1-1.9l3.6-2.4l-1.4-5.3
		l-4.3-0.3c-0.5-1.1-1.2-2.2-1.9-3.2l1.9-3.8l-3.9-3.9l-3.8,1.9c-1-0.7-2.1-1.3-3.2-1.9l-0.3-4.3l-5.3-1.4l-2.4,3.6l0,0
		c-0.6,0-1.3-0.1-1.9-0.1c-0.6,0-1.2,0-1.9,0.1l-2.4-3.6l-5.3,1.4l-0.3,4.3c-1.1,0.5-2.2,1.1-3.2,1.9L801.4,98.8z M830.4,107.5
		c6.7,6.7,6.7,17.5,0,24.2c-6.7,6.7-17.5,6.7-24.2,0c-6.7-6.7-6.7-17.5,0-24.2C812.9,100.9,823.7,100.9,830.4,107.5z"/>
	<line class="st5" x1="668.2" y1="83.3" x2="668.2" y2="198.1"/>
</g>
</svg>
