<svg xmlns="http://www.w3.org/2000/svg" width="85" height="67" viewBox="0 0 85 67">
  <g id="Grupo_153251" data-name="Grupo 153251" transform="translate(-180 -6312)">
    <rect id="Rectángulo_45220" data-name="Rectángulo 45220" width="52.754" height="51.474" transform="translate(231.474 6312) rotate(90)" fill="#e4e4e4"/>
    <g id="Grupo_152586" data-name="Grupo 152586" transform="translate(213.526 6326.944)">
      <rect id="Rectángulo_45221" data-name="Rectángulo 45221" width="3.279" height="3.279" transform="translate(48.194 3.279) rotate(-90)" fill="#1894f6"/>
      <rect id="Rectángulo_45222" data-name="Rectángulo 45222" width="3.279" height="3.279" transform="translate(48.194 10.248) rotate(-90)" fill="#1894f6"/>
      <rect id="Rectángulo_45223" data-name="Rectángulo 45223" width="3.279" height="3.279" transform="translate(48.194 17.215) rotate(-90)" fill="#1894f6"/>
      <rect id="Rectángulo_45224" data-name="Rectángulo 45224" width="3.279" height="3.279" transform="translate(48.194 24.184) rotate(-90)" fill="#1894f6"/>
      <rect id="Rectángulo_45225" data-name="Rectángulo 45225" width="3.279" height="3.279" transform="translate(48.194 31.152) rotate(-90)" fill="#1894f6"/>
      <rect id="Rectángulo_45226" data-name="Rectángulo 45226" width="3.279" height="3.279" transform="translate(48.194 38.12) rotate(-90)" fill="#1894f6"/>
      <rect id="Rectángulo_45227" data-name="Rectángulo 45227" width="3.279" height="3.279" transform="translate(48.194 45.088) rotate(-90)" fill="#1894f6"/>
      <rect id="Rectángulo_45228" data-name="Rectángulo 45228" width="3.279" height="3.279" transform="translate(48.194 52.056) rotate(-90)" fill="#1894f6"/>
      <rect id="Rectángulo_45232" data-name="Rectángulo 45232" width="3.279" height="3.279" transform="translate(41.227 3.279) rotate(-90)" fill="#1894f6"/>
      <rect id="Rectángulo_45233" data-name="Rectángulo 45233" width="3.279" height="3.279" transform="translate(41.227 10.248) rotate(-90)" fill="#1894f6"/>
      <rect id="Rectángulo_45234" data-name="Rectángulo 45234" width="3.279" height="3.279" transform="translate(41.227 17.215) rotate(-90)" fill="#1894f6"/>
      <rect id="Rectángulo_45235" data-name="Rectángulo 45235" width="3.279" height="3.279" transform="translate(41.227 24.184) rotate(-90)" fill="#1894f6"/>
      <rect id="Rectángulo_45236" data-name="Rectángulo 45236" width="3.279" height="3.279" transform="translate(41.227 31.152) rotate(-90)" fill="#1894f6"/>
      <rect id="Rectángulo_45237" data-name="Rectángulo 45237" width="3.279" height="3.279" transform="translate(41.227 38.12) rotate(-90)" fill="#1894f6"/>
      <rect id="Rectángulo_45238" data-name="Rectángulo 45238" width="3.279" height="3.279" transform="translate(41.227 45.088) rotate(-90)" fill="#1894f6"/>
      <rect id="Rectángulo_45239" data-name="Rectángulo 45239" width="3.279" height="3.279" transform="translate(41.227 52.056) rotate(-90)" fill="#1894f6"/>
      <rect id="Rectángulo_45243" data-name="Rectángulo 45243" width="3.279" height="3.279" transform="translate(34.258 3.279) rotate(-90)" fill="#1894f6"/>
      <rect id="Rectángulo_45244" data-name="Rectángulo 45244" width="3.279" height="3.279" transform="translate(34.258 10.248) rotate(-90)" fill="#1894f6"/>
      <rect id="Rectángulo_45245" data-name="Rectángulo 45245" width="3.279" height="3.279" transform="translate(34.258 17.215) rotate(-90)" fill="#1894f6"/>
      <rect id="Rectángulo_45246" data-name="Rectángulo 45246" width="3.279" height="3.279" transform="translate(34.258 24.184) rotate(-90)" fill="#1894f6"/>
      <rect id="Rectángulo_45247" data-name="Rectángulo 45247" width="3.279" height="3.279" transform="translate(34.258 31.152) rotate(-90)" fill="#1894f6"/>
      <rect id="Rectángulo_45248" data-name="Rectángulo 45248" width="3.279" height="3.279" transform="translate(34.258 38.12) rotate(-90)" fill="#1894f6"/>
      <rect id="Rectángulo_45249" data-name="Rectángulo 45249" width="3.279" height="3.279" transform="translate(34.258 45.088) rotate(-90)" fill="#1894f6"/>
      <rect id="Rectángulo_45250" data-name="Rectángulo 45250" width="3.279" height="3.279" transform="translate(34.258 52.056) rotate(-90)" fill="#1894f6"/>
      <rect id="Rectángulo_45221-2" data-name="Rectángulo 45221" width="3.279" height="3.279" transform="translate(27.873 3.279) rotate(-90)" fill="#1894f6"/>
      <rect id="Rectángulo_45222-2" data-name="Rectángulo 45222" width="3.279" height="3.279" transform="translate(27.873 10.248) rotate(-90)" fill="#1894f6"/>
      <rect id="Rectángulo_45223-2" data-name="Rectángulo 45223" width="3.279" height="3.279" transform="translate(27.873 17.216) rotate(-90)" fill="#1894f6"/>
      <rect id="Rectángulo_45224-2" data-name="Rectángulo 45224" width="3.279" height="3.279" transform="translate(27.873 24.184) rotate(-90)" fill="#1894f6"/>
      <rect id="Rectángulo_45225-2" data-name="Rectángulo 45225" width="3.279" height="3.279" transform="translate(27.873 31.152) rotate(-90)" fill="#1894f6"/>
      <rect id="Rectángulo_45226-2" data-name="Rectángulo 45226" width="3.279" height="3.279" transform="translate(27.873 38.12) rotate(-90)" fill="#1894f6"/>
      <rect id="Rectángulo_45227-2" data-name="Rectángulo 45227" width="3.279" height="3.279" transform="translate(27.873 45.088) rotate(-90)" fill="#1894f6"/>
      <rect id="Rectángulo_45228-2" data-name="Rectángulo 45228" width="3.279" height="3.279" transform="translate(27.873 52.056) rotate(-90)" fill="#1894f6"/>
      <rect id="Rectángulo_45232-2" data-name="Rectángulo 45232" width="3.279" height="3.279" transform="translate(20.905 3.279) rotate(-90)" fill="#1894f6"/>
      <rect id="Rectángulo_45279" data-name="Rectángulo 45279" width="3.279" height="3.279" transform="translate(6.968 3.279) rotate(-90)" fill="#1894f6"/>
      <rect id="Rectángulo_45233-2" data-name="Rectángulo 45233" width="3.279" height="3.279" transform="translate(20.905 10.248) rotate(-90)" fill="#1894f6"/>
      <rect id="Rectángulo_45280" data-name="Rectángulo 45280" width="3.279" height="3.279" transform="translate(6.968 10.248) rotate(-90)" fill="#1894f6"/>
      <rect id="Rectángulo_45234-2" data-name="Rectángulo 45234" width="3.279" height="3.279" transform="translate(20.905 17.216) rotate(-90)" fill="#1894f6"/>
      <rect id="Rectángulo_45281" data-name="Rectángulo 45281" width="3.279" height="3.279" transform="translate(6.968 17.216) rotate(-90)" fill="#1894f6"/>
      <rect id="Rectángulo_45235-2" data-name="Rectángulo 45235" width="3.279" height="3.279" transform="translate(20.905 24.184) rotate(-90)" fill="#1894f6"/>
      <rect id="Rectángulo_45282" data-name="Rectángulo 45282" width="3.279" height="3.279" transform="translate(6.968 24.184) rotate(-90)" fill="#1894f6"/>
      <rect id="Rectángulo_45236-2" data-name="Rectángulo 45236" width="3.279" height="3.279" transform="translate(20.905 31.152) rotate(-90)" fill="#1894f6"/>
      <rect id="Rectángulo_45283" data-name="Rectángulo 45283" width="3.279" height="3.279" transform="translate(6.968 31.152) rotate(-90)" fill="#1894f6"/>
      <rect id="Rectángulo_45237-2" data-name="Rectángulo 45237" width="3.279" height="3.279" transform="translate(20.905 38.12) rotate(-90)" fill="#1894f6"/>
      <rect id="Rectángulo_45284" data-name="Rectángulo 45284" width="3.279" height="3.279" transform="translate(6.968 38.12) rotate(-90)" fill="#1894f6"/>
      <rect id="Rectángulo_45238-2" data-name="Rectángulo 45238" width="3.279" height="3.279" transform="translate(20.905 45.088) rotate(-90)" fill="#1894f6"/>
      <rect id="Rectángulo_45285" data-name="Rectángulo 45285" width="3.279" height="3.279" transform="translate(6.968 45.088) rotate(-90)" fill="#1894f6"/>
      <rect id="Rectángulo_45239-2" data-name="Rectángulo 45239" width="3.279" height="3.279" transform="translate(20.905 52.056) rotate(-90)" fill="#1894f6"/>
      <rect id="Rectángulo_45286" data-name="Rectángulo 45286" width="3.279" height="3.279" transform="translate(6.968 52.056) rotate(-90)" fill="#1894f6"/>
      <rect id="Rectángulo_45243-2" data-name="Rectángulo 45243" width="3.279" height="3.279" transform="translate(13.937 3.279) rotate(-90)" fill="#1894f6"/>
      <rect id="Rectángulo_45268" data-name="Rectángulo 45268" width="3.279" height="3.279" transform="translate(0 3.279) rotate(-90)" fill="#1894f6"/>
      <rect id="Rectángulo_45244-2" data-name="Rectángulo 45244" width="3.279" height="3.279" transform="translate(13.937 10.248) rotate(-90)" fill="#1894f6"/>
      <rect id="Rectángulo_45269" data-name="Rectángulo 45269" width="3.279" height="3.279" transform="translate(0 10.248) rotate(-90)" fill="#1894f6"/>
      <rect id="Rectángulo_45245-2" data-name="Rectángulo 45245" width="3.279" height="3.279" transform="translate(13.937 17.216) rotate(-90)" fill="#1894f6"/>
      <rect id="Rectángulo_45270" data-name="Rectángulo 45270" width="3.279" height="3.279" transform="translate(0 17.216) rotate(-90)" fill="#1894f6"/>
      <rect id="Rectángulo_45246-2" data-name="Rectángulo 45246" width="3.279" height="3.279" transform="translate(13.937 24.184) rotate(-90)" fill="#1894f6"/>
      <rect id="Rectángulo_45271" data-name="Rectángulo 45271" width="3.279" height="3.279" transform="translate(0 24.184) rotate(-90)" fill="#1894f6"/>
      <rect id="Rectángulo_45247-2" data-name="Rectángulo 45247" width="3.279" height="3.279" transform="translate(13.937 31.152) rotate(-90)" fill="#1894f6"/>
      <rect id="Rectángulo_45272" data-name="Rectángulo 45272" width="3.279" height="3.279" transform="translate(0 31.152) rotate(-90)" fill="#1894f6"/>
      <rect id="Rectángulo_45248-2" data-name="Rectángulo 45248" width="3.279" height="3.279" transform="translate(13.937 38.12) rotate(-90)" fill="#1894f6"/>
      <rect id="Rectángulo_45273" data-name="Rectángulo 45273" width="3.279" height="3.279" transform="translate(0 38.12) rotate(-90)" fill="#1894f6"/>
      <rect id="Rectángulo_45249-2" data-name="Rectángulo 45249" width="3.279" height="3.279" transform="translate(13.937 45.088) rotate(-90)" fill="#1894f6"/>
      <rect id="Rectángulo_45274" data-name="Rectángulo 45274" width="3.279" height="3.279" transform="translate(0 45.088) rotate(-90)" fill="#1894f6"/>
      <rect id="Rectángulo_45250-2" data-name="Rectángulo 45250" width="3.279" height="3.279" transform="translate(13.937 52.056) rotate(-90)" fill="#1894f6"/>
      <rect id="Rectángulo_45275" data-name="Rectángulo 45275" width="3.279" height="3.279" transform="translate(0 52.056) rotate(-90)" fill="#1894f6"/>
    </g>
  </g>
</svg>
