<?xml version="1.0" encoding="utf-8"?>
<!-- Generator: Adobe Illustrator 25.4.1, SVG Export Plug-In . SVG Version: 6.00 Build 0)  -->
<svg version="1.0" id="Layer_1" xmlns="http://www.w3.org/2000/svg" xmlns:xlink="http://www.w3.org/1999/xlink" x="0px" y="0px"
	 viewBox="0 0 500 500" style="enable-background:new 0 0 500 500;" xml:space="preserve">
<style type="text/css">
	.st0{fill:#A9534F;}
	.st1{fill:#853F38;}
	.st2{fill:#438584;}
	.st3{clip-path:url(#SVGID_00000079455961814860086770000017109669331613743753_);}
	.st4{fill:none;stroke:#FFFFFF;stroke-width:2.0671;stroke-miterlimit:10;}
	.st5{fill:#FFFFFF;}
	.st6{fill:#352836;}
	.st7{fill:#FFA755;}
</style>
<g>
	<g>
		<g>
			<path class="st0" d="M406.6,429.7c-13.9-37.3-98.8-55.1-113.6-65.9c-19.1-13.9-13-59.9-13-59.9l-31.2,0.8l-31.2-0.8
				c0,0,6.1,46-13,59.9c-14.9,10.8-99.8,28.6-113.6,65.9C76.9,467,71.7,500,71.7,500H247h3.5h175.2C425.7,500,420.5,467,406.6,429.7
				z"/>
			<path class="st1" d="M211.7,355.2c14.6-1.5,29.3-4.5,42-11.6c9.3-5.2,17.6-11.3,25.4-18.2c-0.5-11.8,0.8-21.5,0.8-21.5l-31.2,0.8
				l-31.2-0.8C217.5,303.9,221.8,336.7,211.7,355.2z"/>
		</g>
		<g>
			<path class="st2" d="M409.1,429.2c-5.1-13.7-19.6-24.7-36.8-33.8c-30.6,20.9-74.1,34-122.3,34c-48.2,0-91.6-13.1-122.3-34
				c-17.2,9.1-31.7,20.1-36.8,33.8C77,466.8,71.7,500,71.7,500h176.5h3.5h176.5C428.3,500,423,466.8,409.1,429.2z"/>
			<g>
				<defs>
					<path id="SVGID_1_" d="M409.1,429.2c-5.1-13.7-19.6-24.7-36.8-33.8c-30.6,20.9-74.1,34-122.3,34c-48.2,0-91.6-13.1-122.3-34
						c-17.2,9.1-31.7,20.1-36.8,33.8C77,466.8,71.7,500,71.7,500h176.5h3.5h176.5C428.3,500,423,466.8,409.1,429.2z"/>
				</defs>
				<clipPath id="SVGID_00000013905741547745797700000001150719543320891789_">
					<use xlink:href="#SVGID_1_"  style="overflow:visible;"/>
				</clipPath>
				<g style="clip-path:url(#SVGID_00000013905741547745797700000001150719543320891789_);">
					<line class="st4" x1="76.4" y1="416.2" x2="420.3" y2="416.2"/>
					<line class="st4" x1="76.4" y1="487.8" x2="429.7" y2="487.8"/>
					<line class="st4" x1="60.8" y1="453.1" x2="442.1" y2="453.1"/>
				</g>
			</g>
		</g>
	</g>
	<g>
		<g>
			<path class="st1" d="M196.3,232.3c-5-15.6-17-12-18.1-11.6c-1.2,0.1-13.5,2-11.4,18.3c2.1,16.4,11.7,25.3,20.6,22.7
				C196.5,260.1,201.3,248,196.3,232.3z"/>
			<path class="st1" d="M299.6,232.3c5-15.6,17-12,18.1-11.6c1.2,0.1,13.5,2,11.4,18.3c-2.1,16.4-11.7,25.3-20.6,22.7
				C299.3,260.1,294.5,248,299.6,232.3z"/>
			<path class="st0" d="M310,207.6c-6.3-68.6-58.4-64.8-63.3-64.2c-4.9-0.5-57.1-4.4-63.3,64.2c-6.3,69,24.5,114.1,63.3,111.6
				C285.5,321.7,316.3,276.7,310,207.6z"/>
		</g>
		<g>
			<g>
				<path class="st1" d="M254.1,231.1c0.7,2.2,1.3,4.4,1.8,6.7c0.5,2.2,1,4.5,1.3,6.7c0.4,2.3,0.8,4.5,1,6.8
					c0.3,2.3,0.5,4.5,0.7,6.8l0.1,0.6l-0.4,0.3c-1.4,1.2-2.8,2.3-4.2,3.5l-2.2,1.7c-0.7,0.5-1.5,1.1-2.2,1.6
					c0.6-0.7,1.1-1.4,1.7-2.1l1.8-2.1c1.2-1.4,2.4-2.7,3.7-4l-0.3,0.9c-0.5-2.2-0.9-4.5-1.2-6.8c-0.4-2.3-0.6-4.5-0.9-6.8
					c-0.2-2.3-0.5-4.6-0.6-6.8C254.1,235.7,254,233.4,254.1,231.1z"/>
			</g>
			<path class="st5" d="M216.5,275.8l61.9-0.6C278.4,275.2,253.6,299.5,216.5,275.8z"/>
			<g>
				<path class="st1" d="M232.3,288.2c3.5,1,6.9,1.9,10.3,2.4c3.4,0.5,6.9,0.6,10.3,0.3c3.4-0.3,6.8-1.1,10-2.3
					c3.2-1.2,6.3-2.9,9.4-4.8c-2.3,2.8-5.3,5-8.5,6.7c-1.6,0.9-3.4,1.5-5.1,2c-0.9,0.3-1.8,0.4-2.7,0.6c-0.9,0.2-1.8,0.3-2.7,0.4
					c-3.7,0.3-7.4,0.1-11-0.9C238.7,291.7,235.3,290.2,232.3,288.2z"/>
			</g>
			<g>
				<path class="st6" d="M214.2,232.1c0,5.2,1.9,9.4,4.3,9.4c2.4,0,4.3-4.2,4.3-9.4c0-5.2-1.9-9.4-4.3-9.4
					C216.1,222.7,214.2,226.9,214.2,232.1z"/>
				<path class="st6" d="M273.1,232.1c0,5.2,1.9,9.4,4.3,9.4c2.4,0,4.3-4.2,4.3-9.4c0-5.2-1.9-9.4-4.3-9.4
					C275,222.7,273.1,226.9,273.1,232.1z"/>
			</g>
			<g>
				<path class="st6" d="M203.7,216.8c1.1-2.9,3.2-5.3,5.6-7.2c2.5-1.9,5.5-3.4,8.9-3.6c1.7-0.1,3.4,0,5,0.4c1.6,0.4,3.1,1.2,4.5,2
					c2.7,1.8,4.7,4.3,5.8,7.2c-2.7-1.5-5.1-2.9-7.6-3.7c-2.5-0.9-4.9-1.2-7.3-1c-2.4,0.2-4.9,1-7.3,2
					C208.8,213.9,206.4,215.3,203.7,216.8z"/>
			</g>
			<g>
				<path class="st6" d="M263,216.8c1.1-2.9,3.2-5.3,5.6-7.2c2.5-1.9,5.5-3.4,8.9-3.6c1.7-0.1,3.4,0,5,0.4c1.6,0.4,3.1,1.2,4.5,2
					c2.7,1.8,4.7,4.3,5.8,7.2c-2.7-1.5-5.1-2.9-7.6-3.7c-2.5-0.9-4.9-1.2-7.3-1c-2.4,0.2-4.9,1-7.3,2
					C268.1,213.9,265.6,215.3,263,216.8z"/>
			</g>
		</g>
		<g>
			<g>
				<path class="st6" d="M216.5,130.9c0,0-38.1-13.1-31.6-30.5c6.5-17.4,35.9,6.5,35.9,6.5s-49-42.5-25-54.4
					c24-12,51.2,46.8,51.2,46.8s-47.9-58.8-4.4-66.4c43.6-7.6,12,78.4,12,78.4s15.2-61,40.3-52.3c33.2,11.5-27.2,59.9-27.2,59.9
					s37-31.6,44.6-25c7.6,6.5-10.6,23-30.5,37C252.4,151.6,252.4,150.5,216.5,130.9z"/>
				<ellipse class="st7" cx="246.8" cy="136.8" rx="30.3" ry="19.8"/>
			</g>
			<g>
				<path class="st6" d="M245.3,164.6c0,0,0.3,28.3-56.9,44.6c0,0,3.5,43.2-4.7,40.9c-8.2-2.3-45-124.4,62.5-120.6L245.3,164.6z"/>
				<path class="st6" d="M245.3,164.6c0,0,0.9,28.3,58.1,44.6c0,0-3.5,43.2,4.7,40.9c8.2-2.3,43.9-122.4-61.9-120.6L245.3,164.6z"/>
				<path class="st6" d="M262.9,190.2c-17.7-21.1-20.2-35.4-12.9-58.8c-0.7-0.1-1.5-0.3-2.1-0.5c-7.9,19.5-14.2,52.2,19.2,72.4
					C267.2,203.3,284.5,215.8,262.9,190.2z"/>
				<path class="st6" d="M248,188.2c-8.5-20.9-6.8-32.7,4.8-49c-0.6-0.3-1.1-0.6-1.5-0.9c-11.1,13.2-24.2,37-3.3,61.2
					C248,199.5,258.3,213.6,248,188.2z"/>
			</g>
		</g>
	</g>
</g>
</svg>
