<svg xmlns="http://www.w3.org/2000/svg" xmlns:xlink="http://www.w3.org/1999/xlink" width="107" height="107" viewBox="0 0 107 107">
  <defs>
    <clipPath id="clip-path">
      <rect id="Rectángulo_47326" data-name="Rectángulo 47326" width="69.95" height="70.211" fill="#fff"/>
    </clipPath>
  </defs>
  <g id="Grupo_156313" data-name="Grupo 156313" transform="translate(-288.668 -4616)">
    <circle id="Elipse_5845" data-name="Elipse 5845" cx="53.5" cy="53.5" r="53.5" transform="translate(288.668 4616)" fill="#7f4fc7"/>
    <g id="Grupo_156263" data-name="Grupo 156263" transform="translate(307.546 4634.892)">
      <g id="Grupo_156262" data-name="Grupo 156262" clip-path="url(#clip-path)">
        <path id="Trazado_198303" data-name="Trazado 198303" d="M44.7,92.737l2.231-4.958c.2-.444.392-.891.6-1.331a5.016,5.016,0,0,1,7.267-2.24c.122.071.246.138.36.2,3.05-3.162,5.289-3.277,8.058-.405a4.675,4.675,0,0,1,3.44-.425,4.475,4.475,0,0,1,2.089,7.373c-.722.792-1.506,1.527-2.264,2.285q-5.2,5.2-10.393,10.394a28.8,28.8,0,0,1-17.777,8.643A28.862,28.862,0,0,1,15.7,105.187c-.128-.11-.26-.217-.536-.448,0,.935,0,1.74,0,2.545,0,1.337-.343,1.676-1.689,1.678H10.483c0,.78.015,1.5,0,2.226a1.164,1.164,0,0,1-1.274,1.278c-3.046.013-6.092.005-9.2.005v-2.324H8.105V86.761H0V84.389H3.362q2.743,0,5.485,0c1.288,0,1.629.347,1.638,1.653,0,.194,0,.387,0,.687h2.849c1.546,0,1.809.263,1.832,1.826,0,.12.011.241.021.442.235-.1.428-.173.615-.261a9.433,9.433,0,0,1,10.306,1.471A25,25,0,0,1,27.93,92a1.69,1.69,0,0,0,1.392.593q5.594-.042,11.189-.007c1.354.007,2.708.094,4.189.149m-16.634,8.035h.881q6.764,0,13.527,0a2.927,2.927,0,1,0,.06-5.845q-7.056-.017-14.112.005a1.9,1.9,0,0,1-1.489-.615c-.758-.792-1.528-1.576-2.337-2.315a7.114,7.114,0,0,0-8.845-.545,1.216,1.216,0,0,0-.6,1.13c.031,2.73.024,5.46,0,8.189a1.468,1.468,0,0,0,.464,1.15,26.623,26.623,0,0,0,14.958,7.809c8.158,1.3,15.616-.52,21.8-5.978,5.127-4.523,9.8-9.561,14.631-14.414a2.584,2.584,0,0,0,.552-1.657,1.841,1.841,0,0,0-1.378-1.79,2.135,2.135,0,0,0-2.334.61q-4.905,4.918-9.819,9.828a22.8,22.8,0,0,1-7.105,4.92,2.148,2.148,0,0,0-.612.383,5.536,5.536,0,0,1-4,1.484c-4.509-.018-9.018-.006-13.527-.008-.235,0-.47-.021-.722-.033Zm-17.53,5.816h2.249V89.1H10.536ZM61.4,85.718a2.228,2.228,0,0,0-3.989-.3q-4.485,5.992-8.947,12a3.59,3.59,0,0,0-.22.385l.159.131c4.88-3.478,8.565-8.233,13-12.219m-14.139,9.4,6.5-8.72a2.6,2.6,0,0,0-4.091,1.031c-.934,2-1.8,4.04-2.749,6.038a1.146,1.146,0,0,0,.34,1.65" transform="translate(0 -42.263)" fill="#fff"/>
        <path id="Trazado_198304" data-name="Trazado 198304" d="M54.6,18.082,65.671,7.023c-.872,0-1.736.006-2.6,0-1-.01-1.412-.424-1.418-1.43q-.012-2.084,0-4.167c.006-1,.421-1.418,1.428-1.419Q69.842,0,76.6,0c1,0,1.425.419,1.426,1.422q.008,6.762,0,13.524c0,1.006-.42,1.426-1.418,1.431-1.413.008-2.826.011-4.24,0a1.194,1.194,0,0,1-1.358-1.342c-.013-.876,0-1.752,0-2.808-.277.26-.461.424-.634.6q-7.264,7.261-14.527,14.524c-1.014,1.014-1.5,1-2.461-.065q-4.4-4.89-8.8-9.779c-.161-.179-.331-.351-.53-.562-.211.2-.4.373-.588.557Q39.1,21.87,34.733,26.238c-.922.922-1.406.92-2.328,0-1-1-2-1.993-3-3a1.213,1.213,0,0,1,.006-2.014Q36.232,14.4,43.061,7.578c.789-.788,1.385-.754,2.158.1q4.476,4.969,8.95,9.941c.16.179.33.349.435.459m9.418-13.4c1.483,0,2.894.012,4.3-.005.633-.008,1.172.115,1.429.767.247.626-.077,1.065-.5,1.484Q62.481,13.7,55.709,20.471c-.832.832-1.407.806-2.207-.084q-3.473-3.858-6.943-7.718c-.826-.918-1.657-1.83-2.406-2.656L31.944,22.223l1.772,1.794c.178-.2.376-.448.6-.671Q38.654,19,43,14.658c.844-.842,1.427-.832,2.21.036q2.057,2.28,4.107,4.566c1.775,1.972,3.55,3.942,5.421,6.019.207-.257.357-.481.544-.668q7.879-7.89,15.764-15.775c.43-.43.865-.82,1.531-.564.691.266.789.84.781,1.494-.018,1.405-.005,2.811-.005,4.225h2.281V2.384H64.021Z" transform="translate(-14.893 0)" fill="#fff"/>
        <path id="Trazado_198305" data-name="Trazado 198305" d="M57.848,73.018H55.482v-.747q0-8.739,0-17.476c0-1.286.353-1.631,1.657-1.633,1.34,0,2.681-.009,4.022,0A1.173,1.173,0,0,1,62.5,54.454q.01,10.347,0,20.694a1.276,1.276,0,0,1-.039.194H60.172v-19.8H57.848Z" transform="translate(-28.616 -27.418)" fill="#fff"/>
        <path id="Trazado_198306" data-name="Trazado 198306" d="M120.432,57.35h-2.255V41.057h-2.35V57.349h-2.317c-.011-.23-.031-.463-.031-.7q0-8.19,0-16.379c0-1.247.362-1.608,1.606-1.61,1.365,0,2.73-.01,4.095,0a1.157,1.157,0,0,1,1.312,1.237q.014,8.628,0,17.256a.9.9,0,0,1-.057.19" transform="translate(-58.528 -19.939)" fill="#fff"/>
        <path id="Trazado_198307" data-name="Trazado 198307" d="M81.766,80.343H79.51V65.22H77.16V80.345H74.847c-.011-.235-.032-.468-.032-.7q0-7.6,0-15.209c0-1.244.363-1.6,1.61-1.606,1.365,0,2.73-.011,4.095,0a1.157,1.157,0,0,1,1.308,1.241q.013,8.043,0,16.086a.832.832,0,0,1-.058.185" transform="translate(-38.587 -32.403)" fill="#fff"/>
        <path id="Trazado_198308" data-name="Trazado 198308" d="M43.105,74.418H40.851V62.806H38.5V74.416h-2.35v-.7q0-5.849,0-11.7c0-1.247.362-1.609,1.605-1.611,1.365,0,2.73-.01,4.095,0a1.157,1.157,0,0,1,1.312,1.236c.011,4.192,0,8.383,0,12.575a.921.921,0,0,1-.056.192" transform="translate(-18.645 -31.156)" fill="#fff"/>
        <path id="Trazado_198309" data-name="Trazado 198309" d="M98.821,65.987V55.556H96.5V67.167H94.179c-.011-.23-.031-.463-.032-.7q0-5.85,0-11.7c0-1.247.362-1.609,1.605-1.61,1.365,0,2.73-.011,4.095,0a1.173,1.173,0,0,1,1.315,1.309c.01,3.753,0,7.507,0,11.26a1.722,1.722,0,0,1-.044.252Z" transform="translate(-48.558 -27.417)" fill="#fff"/>
      </g>
    </g>
  </g>
</svg>
