<svg xmlns="http://www.w3.org/2000/svg" xmlns:xlink="http://www.w3.org/1999/xlink" width="107" height="107" viewBox="0 0 107 107">
  <defs>
    <clipPath id="clip-path">
      <rect id="Rectángulo_47327" data-name="Rectángulo 47327" width="55.558" height="60.258" fill="#fff"/>
    </clipPath>
  </defs>
  <g id="Grupo_156314" data-name="Grupo 156314" transform="translate(-288.668 -4785)">
    <g id="Grupo_156299" data-name="Grupo 156299" transform="translate(0 26)">
      <circle id="Elipse_5845" data-name="Elipse 5845" cx="53.5" cy="53.5" r="53.5" transform="translate(288.668 4759)" fill="#7f4fc7"/>
      <g id="Grupo_156264" data-name="Grupo 156264" transform="translate(314.346 4782.566)" clip-path="url(#clip-path)">
        <path id="Trazado_198310" data-name="Trazado 198310" d="M75.305,24.861a3.143,3.143,0,0,0-3.018-3.155c-.5-.023-.5-.214-.5-.582q.011-8.088,0-16.177A4.64,4.64,0,0,0,66.875,0q-6,0-12,0A4.639,4.639,0,0,0,49.957,4.89c-.013,2.392,0,4.784,0,7.176,0,.805.135.983.888,1.233.763-.261.872-.408.875-1.231,0-1.364,0-2.729.006-4.093,0-.184-.087-.39.079-.552h0c.171-.147.375-.071.561-.071,5.686,0,11.371,0,17.056-.012.472,0,.624.09.621.6-.022,4.686-.015,9.371-.007,14.057a1.112,1.112,0,0,1-.3.84,3.175,3.175,0,0,0-.765,1.927c-.167,1.637-.393,3.269-.517,4.908a.8.8,0,0,1-.85.857c-.213.021-.426.038-.639.057-.587,0-1.174,0-1.76.011a.659.659,0,0,1-.5-.232,2.722,2.722,0,0,0-3.939-.014.79.79,0,0,1-.619.236c-.685-.01-1.371-.016-2.056,0a2.244,2.244,0,0,1-1.885-.512,2.369,2.369,0,0,0-1.2-.42c-.378-.091-.5-.263-.267-.616.14-.212.249-.443.379-.66a1.954,1.954,0,0,0,.259-.894,3.24,3.24,0,0,0-3.16-2.894c-.419.069-.51-.011-.507-.432.021-2.427.013-4.856.008-7.284,0-.924-.3-1.182-1.223-1.108a1.151,1.151,0,0,0-.545,1.147c.011,2.059.005,4.117,0,6.176,0,.182-.021.363-.039.655a2.079,2.079,0,0,0-1.451-.989,10.415,10.415,0,0,0-1.35-.028,2.026,2.026,0,0,0-2.141,1.631c-.3,1.054-.3,1.054-1.271.526a2.023,2.023,0,0,0-2.667.365c-.169.165-.332.333-.5.5a2.058,2.058,0,0,0-.407,2.894c.487.865.487.865-.5,1.135A2.042,2.042,0,0,0,37.9,32.01c0,.2,0,.392,0,.588a2.085,2.085,0,0,0,1.829,2.395c.886.248.886.248.434,1.044-.02.034-.035.07-.055.1a2.033,2.033,0,0,0,.371,2.805c.248.252.493.507.758.737a1.96,1.96,0,0,0,2.241.3c.385-.17.752-.652,1.13-.493s.3.76.447,1.157a2.05,2.05,0,0,0,2.1,1.373c1.192.031,2.359.039,2.875-1.347a7.284,7.284,0,0,0,.242-.845c.088-.369.256-.516.613-.271.112.077.234.141.354.208a2.077,2.077,0,0,0,2.947-.383c.2-.193.394-.383.581-.584a1.994,1.994,0,0,0,.329-2.48c-.119-.224-.236-.451-.376-.663-.206-.311-.079-.464.231-.549l.509-.138a2.01,2.01,0,0,0,1.734-2.225c.006-.353.124-.418.438-.406.607.022,1.216.029,1.823,0,.393-.02.515.085.429.485a11.745,11.745,0,0,0-.3,1.795,4.661,4.661,0,0,1-1.677,3.252c-.49.451-.987.9-1.48,1.344A9.034,9.034,0,0,0,54.034,49.4a7.689,7.689,0,0,1,.5,2.922c0,.3-.037.448-.4.457-.809.021-1.057.314-1.058,1.137,0,1.725.016,3.451-.011,5.176a1.214,1.214,0,0,0,.6,1.168h4c.148-.211.4-.332.493-.593.04-.868-.242-1.167-1.111-1.172-.625,0-1.251-.01-1.876,0-.242.005-.347-.048-.34-.319.026-1.189.033-2.38.046-3.569.143-.162.33-.077.494-.077,4.7,0,9.39,0,14.085-.012.455,0,.6.1.582.575-.039.977-.033,1.957,0,2.934.013.4-.12.5-.491.471-.467-.034-.937-.02-1.406-.026-2.171.007-4.343.023-6.514.013a1.008,1.008,0,0,0-1.154.834,1.167,1.167,0,0,0,.607.938H71.2a1.11,1.11,0,0,0,.594-.935c-.01-1.882,0-3.765-.007-5.647,0-.5-.287-.9-.765-.871-.714.038-.749-.317-.691-.842.024-.213,0-.431,0-.647.064-3.637-.526-3.448,2.365-7.275a12.377,12.377,0,0,0,2.586-7.358c.07-3.94.039-7.882.016-11.823m-19.875,8.1a.3.3,0,0,1-.218.244,2.636,2.636,0,0,1-.337.1,2.133,2.133,0,0,0-1.482,3.58c.425.547-.022.783-.311,1.1s-.555.593-1.022.232a2.637,2.637,0,0,0-1.163-.538,2.047,2.047,0,0,0-2.162,1.178c-.085.2-.126.411-.2.614-.09.252-.041.661-.3.721a4.121,4.121,0,0,1-1.34.026c-.244-.026-.231-.336-.281-.534a2.455,2.455,0,0,0-.974-1.676,2.128,2.128,0,0,0-2.014-.155c-.463.176-.878,1-1.491.242-.22-.272-.705-.417-.595-.853a5.917,5.917,0,0,1,.511-.984,2.012,2.012,0,0,0-.8-2.6,2.77,2.77,0,0,0-.995-.339c-.487-.072-.629-.309-.606-.793.054-1.147-.141-.847.926-1.192.056-.019.117-.02.173-.037A2.015,2.015,0,0,0,41.99,28.34c-.027-.052-.06-.1-.089-.152-.474-.853-.369-1.23.463-1.784.216-.144.36-.036.533.054,2.147,1.118,3.019.759,3.747-1.557.1-.312.241-.467.58-.42a1.76,1.76,0,0,0,.528,0c.475-.077.676.152.738.591a2.158,2.158,0,0,0,3.575,1.47c.182-.136.416-.38.672-.116a4.069,4.069,0,0,1,.89.991c-.147.261-.282.5-.415.736a2.019,2.019,0,0,0,1.322,3.184c.873.249,1.134.725.9,1.62m14.6-27.629c-.043.212-.147.248-.319.244l-1.347-.03c-.175.012-.351.034-.526.034-5.171,0-10.342,0-15.513.012-.478,0-.637-.111-.628-.612a2.941,2.941,0,0,1,3.214-3.208q6.081.006,12.162.02a2.963,2.963,0,0,1,2.955,3.54m-4.2,27.018a9.381,9.381,0,0,0,2.049-.079c.227-.046.275.049.244.25-.177,1.141-.186,2.3-.453,3.43a3.994,3.994,0,0,1-2.206,2.739c0-2,.005-3.99-.006-5.977,0-.29.1-.367.372-.362m7.682,4.425a10.824,10.824,0,0,1-2.282,6.3,28.81,28.81,0,0,0-1.671,2.411,6.581,6.581,0,0,0-.994,3.567c.023,1.077-.013,2.155.014,3.232.01.4-.127.515-.5.485-.448-.035-.9-.027-1.348-.038-1.626.011-3.252.026-4.879.032-1.686.005-3.373-.008-5.059.008-.365,0-.533-.065-.5-.481a8.721,8.721,0,0,0-.648-3.657,7.1,7.1,0,0,1,1.647-7.809,19.916,19.916,0,0,1,1.45-1.377,7.187,7.187,0,0,0,2.7-5.216,16.967,16.967,0,0,1,.338-2.146.871.871,0,0,1,.991-.787.917.917,0,0,1,.92.949q.019,3.176-.009,6.353a2.064,2.064,0,0,1-.714,1.437c-.624.623-1.253,1.243-1.869,1.874a.889.889,0,1,0,1.236,1.251q.383-.365.747-.751A7.21,7.21,0,0,1,65.807,40.5a5.78,5.78,0,0,0,3.749-5.061c.411-3.482.787-6.97,1.185-10.453a1.4,1.4,0,0,1,.579-1.1,1.293,1.293,0,0,1,1.514-.238,1.251,1.251,0,0,1,.71,1.253c0,3.956.048,7.914-.028,11.869" transform="translate(-19.774 -0.001)" fill="#fff"/>
        <path id="Trazado_198311" data-name="Trazado 198311" d="M22.246,77.726c0-.9-.215-1.137-1.115-1.207-.185-.014-.342,0-.351-.262a5.651,5.651,0,0,1,.326-2.65,9.039,9.039,0,0,0,.6-5.961c-.185-.8-.4-.951-1.222-.943a1.072,1.072,0,0,0-.505,1.34,7.084,7.084,0,0,1-.445,4.744,6.632,6.632,0,0,0-.5,3.2c.019.4-.078.572-.506.533-.445-.041-.895-.029-1.342-.04-1.821.011-3.642.026-5.462.033-1.45.005-2.9-.027-4.349.016-.543.016-.654-.163-.632-.661.04-.879-.03-1.765.02-2.644a7.209,7.209,0,0,0-1.433-4.674q-.626-.887-1.266-1.765A11.57,11.57,0,0,1,1.771,59.77q0-5.437,0-10.873a1.38,1.38,0,0,1,.574-1.378,1.453,1.453,0,0,1,2.226,1.17c.225,1.784.4,3.574.607,5.361.215,1.884.407,3.771.665,5.649a6.185,6.185,0,0,0,1.976,3.576,6.727,6.727,0,0,0,2.756,1.365.943.943,0,0,1,.476.322c.633.641,1.263,1.285,1.9,1.919.492.487,1,.522,1.388.116.367-.384.328-.875-.126-1.347q-1-1.037-2.01-2.06a1.768,1.768,0,0,1-.566-1.251c-.008-2.075,0-4.149.008-6.224.014-.649.29-1,.838-1.062.591-.068.956.217,1.074.892q.3,1.705.553,3.418a4.4,4.4,0,0,0,1.252,2.53c.843.846,1.7,1.683,2.529,2.54a.976.976,0,0,0,1.407.176c.384-.645.356-.91-.175-1.445q-1.2-1.211-2.413-2.413a2.839,2.839,0,0,1-.849-1.636c-.168-1.123-.358-2.243-.544-3.363a2.715,2.715,0,0,0-3.005-2.486,2.749,2.749,0,0,0-2.46,2.923c-.009,1.942,0,3.883-.006,5.824,0,.139.093.3-.081.448a4.347,4.347,0,0,1-2.239-3.387c-.411-3.581-.8-7.165-1.2-10.749A2.864,2.864,0,0,0,4.514,45.8,3.171,3.171,0,0,0,.008,48.784q-.016,5.56,0,11.119A13.171,13.171,0,0,0,2.682,67.89c.479.644.965,1.286,1.4,1.957a4.72,4.72,0,0,1,.888,2.573c.007,1.235,0,2.47.016,3.706,0,.312-.1.387-.4.4-.81.034-1.062.32-1.064,1.136,0,1.726.016,3.452-.011,5.177a1.217,1.217,0,0,0,.6,1.17H21.654a1.233,1.233,0,0,0,.6-1.227c-.028-1.685-.009-3.371-.011-5.056m-1.754,4.055c.013.4-.126.5-.493.469-.467-.033-.938-.02-1.407-.027q-6.48.01-12.962.024c-.237,0-.35-.04-.344-.315.026-1.19.032-2.382.045-3.572h0c.142-.163.33-.077.493-.077,4.7,0,9.392,0,14.087-.012.458,0,.6.109.581.577-.038.977-.033,1.957,0,2.934" transform="translate(0 -23.751)" fill="#fff"/>
        <path id="Trazado_198312" data-name="Trazado 198312" d="M17.978,18.22q6.088.014,12.176,0a2.821,2.821,0,0,0,3.021-2.958q.032-6.146,0-12.294a2.8,2.8,0,0,0-3-2.964Q24.084,0,18,0A2.81,2.81,0,0,0,14.981,3.01c-.006,2.02,0,4.04,0,6.059,0,2.039,0,4.078,0,6.117a2.826,2.826,0,0,0,3,3.033M31.4,15.427a1.035,1.035,0,0,1-1.066,1.023c-.441.026-.884,0-1.464,0l2.537-2.691c0,.666.03,1.167-.007,1.664M16.746,3.031c0-.8.364-1.255,1.07-1.256,3.687-.006,7.374.007,11.06.013.391-.007.781-.019,1.172-.019,1.01,0,1.365.356,1.368,1.383.006,1.467,0,2.934,0,4.4,0,1.056-.013,2.113.008,3.169a1.041,1.041,0,0,1-.336.826c-.664.66-1.308,1.34-1.961,2.012-.842.9-1.689,1.8-2.522,2.708a.689.689,0,0,1-.584.191c-2.667,0-5.335,0-8,0-.9,0-1.274-.387-1.275-1.3q0-6.061,0-12.121" transform="translate(-7.815 0)" fill="#fff"/>
        <path id="Trazado_198313" data-name="Trazado 198313" d="M74.835,34.939q-1.647-.019-3.294,0a.867.867,0,0,0-.986.969q-.021,1.647,0,3.294c.008.639.3.969.919.984q1.7.04,3.411,0a.844.844,0,0,0,.9-.944c.015-.568,0-1.138,0-1.706,0-.549.011-1.1,0-1.647a.858.858,0,0,0-.947-.948m-1.742,3.5c-.9,0-.758.1-.772-.906,0-.829,0-.829.9-.829.8,0,.8,0,.8.985-.006.879.108.748-.924.75" transform="translate(-36.809 -18.226)" fill="#fff"/>
        <path id="Trazado_198314" data-name="Trazado 198314" d="M70.556,23.923c.015.645.29.97.914.985q1.7.042,3.411,0a.835.835,0,0,0,.9-.934q.022-1.676,0-3.353a.85.85,0,0,0-.942-.95q-1.676-.018-3.352,0c-.615.007-.917.324-.934.958-.014.549,0,1.1,0,1.647s-.011,1.1,0,1.647m1.768-1.732c-.008-.759,0-.766.966-.756.849.008.716-.13.73.875-.016.978.135.854-.878.854-.969,0-.808.12-.819-.973" transform="translate(-36.811 -10.259)" fill="#fff"/>
        <path id="Trazado_198315" data-name="Trazado 198315" d="M86.057,36.7c.9.006,1.8,0,2.706,0,.922,0,1.843,0,2.765,0,.692,0,1.083-.325,1.087-.877s-.381-.885-1.071-.886q-2.736-.006-5.471,0c-.687,0-1.095.33-1.1.87s.409.888,1.085.892" transform="translate(-44.336 -18.23)" fill="#fff"/>
        <path id="Trazado_198316" data-name="Trazado 198316" d="M85.99,25.079q2.823.016,5.646,0a.872.872,0,0,0,.979-.867c.01-.558-.34-.883-1-.891-.941-.011-1.882,0-2.823,0-.922,0-1.843-.007-2.764,0-.648.006-1.04.335-1.053.855a.914.914,0,0,0,1.015.9" transform="translate(-44.338 -12.165)" fill="#fff"/>
        <path id="Trazado_198317" data-name="Trazado 198317" d="M89.111,42.253c-.528-.018-1.058,0-1.587,0s-1.058-.011-1.587,0A.878.878,0,1,0,85.9,44c1.077.024,2.155.026,3.232,0a.842.842,0,0,0,.888-.891.832.832,0,0,0-.913-.856" transform="translate(-44.337 -22.042)" fill="#fff"/>
        <path id="Trazado_198318" data-name="Trazado 198318" d="M53.528,58.987A4.163,4.163,0,1,0,57.7,63.173a4.149,4.149,0,0,0-4.168-4.186M53.3,65.5a2.361,2.361,0,0,1,0-4.7,2.366,2.366,0,1,1,0,4.7" transform="translate(-25.759 -30.778)" fill="#fff"/>
        <path id="Trazado_198319" data-name="Trazado 198319" d="M25.308,11.67c1.193.006,2.386,0,3.579,0,1.213,0,2.426.006,3.638,0,.645,0,1.036-.332,1.049-.851.014-.544-.392-.907-1.063-.91q-3.608-.011-7.217,0c-.672,0-1.085.358-1.08.895s.4.864,1.093.867" transform="translate(-12.635 -5.167)" fill="#fff"/>
        <path id="Trazado_198320" data-name="Trazado 198320" d="M25.184,20.456q2.405.019,4.811,0a.883.883,0,1,0-.011-1.757c-.782-.01-1.564,0-2.347,0-.8,0-1.6-.005-2.405,0-.631.005-1.027.352-1.023.879a.9.9,0,0,0,.975.879" transform="translate(-12.632 -9.754)" fill="#fff"/>
      </g>
    </g>
  </g>
</svg>
