<svg xmlns="http://www.w3.org/2000/svg" xmlns:xlink="http://www.w3.org/1999/xlink" width="108" height="108" viewBox="0 0 108 108">
  <defs>
    <clipPath id="clip-path">
      <rect id="Rectángulo_46028" data-name="Rectángulo 46028" width="58.026" height="66.387" fill="#fff"/>
    </clipPath>
  </defs>
  <g id="Grupo_154427" data-name="Grupo 154427" transform="translate(-793.958 -2920)">
    <circle id="Elipse_5729" data-name="Elipse 5729" cx="54" cy="54" r="54" transform="translate(793.958 2920)" fill="#7f4fc7"/>
    <g id="Grupo_154359" data-name="Grupo 154359" transform="translate(818.958 2941)">
      <g id="Grupo_154358" data-name="Grupo 154358" clip-path="url(#clip-path)">
        <path id="Trazado_196398" data-name="Trazado 196398" d="M2.176,66.387A3.07,3.07,0,0,1,0,63.06Q.042,43.421.017,23.782A6.661,6.661,0,0,1,4.556,17.1c.384-.132.783-.217,1.251-.345v-.676c0-2.312-.006-4.623,0-6.935A3.118,3.118,0,0,1,9.1,5.848c.818,0,1.636,0,2.538,0,0-.852,0-1.665,0-2.477A3.124,3.124,0,0,1,15,.01Q28.868.006,42.738,0a1.714,1.714,0,0,1,1.317.547c2.541,2.561,5.109,5.1,7.631,7.676a2,2,0,0,1,.51,1.242c.05,2.2.023,4.407.023,6.611v.719a6.965,6.965,0,0,1,3.361,1.525,6.75,6.75,0,0,1,2.428,5.364q.008,8.783,0,17.565a2.577,2.577,0,0,1-.01.324.971.971,0,0,1-1.027.945.924.924,0,0,1-.9-1c-.011-1.426-.007-2.852-.007-4.278q0-5.541,0-11.083v-.809H1.96v.7q0,18.57,0,37.139c0,1.067.181,1.247,1.235,1.247H54.853c1.019,0,1.211-.189,1.212-1.206q0-8.264,0-16.528A6.4,6.4,0,0,1,56.085,46a.948.948,0,0,1,1.872-.106,3.644,3.644,0,0,1,.051.772c0,5.466-.024,10.932.018,16.4a3.064,3.064,0,0,1-2.177,3.327ZM44.4,23.332V15.938c-1.66,0-3.277.012-4.894,0a3.129,3.129,0,0,1-3.211-3.191c-.014-.713,0-1.426,0-2.139V7.792H9.323c-1.2,0-1.57.374-1.571,1.6q0,6.643,0,13.287c0,.21.018.419.029.654Zm5.834.029V10.1c-1.616,0-3.19.009-4.764,0a3.155,3.155,0,0,1-3.344-3.324c0-.367,0-.734,0-1.1V1.953H15.105a3.059,3.059,0,0,0-.453.01A1.1,1.1,0,0,0,13.606,3.02c-.049.92-.013,1.844-.013,2.827h.817q11.242,0,22.484-.008a1.711,1.711,0,0,1,1.318.541q3.811,3.841,7.652,7.651a1.7,1.7,0,0,1,.528,1.325c-.019,2.419-.008,4.838-.008,7.257v.721c.217.012.364.026.511.026,1.1,0,2.2,0,3.335,0M5.789,18.825c-2.14.253-4.039,2.576-3.724,4.485H5.789ZM56,23.325a4.557,4.557,0,0,0-3.745-4.472v4.472ZM44.082,3.562c0,1.141-.033,2.338.014,3.531a1.018,1.018,0,0,0,.991,1.025c1.211.053,2.426.016,3.568.016L44.082,3.562m-1.32,10.424L38.234,9.449c0,.1,0,.285,0,.474,0,.969-.021,1.938.013,2.906a1.112,1.112,0,0,0,1.094,1.146c1.176.038,2.354.011,3.421.011" transform="translate(0 0)" fill="#fff"/>
        <path id="Trazado_196399" data-name="Trazado 196399" d="M84.757,121.648v.763c0,4.989.011,9.979-.014,14.968,0,.626.174.79.794.787,6.458-.022,12.916-.014,19.375-.014h.7c.017-.28.042-.51.042-.739,0-5.011-.01-10.022.017-15.033,0-.623-.2-.752-.774-.745-2.311.028-4.622.013-6.933.009-.258,0-.588.056-.756-.078a1.788,1.788,0,0,1-.678-.9.806.806,0,0,1,.721-.92,3.027,3.027,0,0,1,.644-.044q3.629,0,7.258,0a2.148,2.148,0,0,1,2.447,2.473q0,7.711,0,15.422a2.172,2.172,0,0,1-2.5,2.5H85.28a2.147,2.147,0,0,1-2.467-2.453q-.007-7.744,0-15.487A2.142,2.142,0,0,1,85.27,119.7q3.6-.006,7.193,0a3.628,3.628,0,0,1,.645.035.947.947,0,0,1,.015,1.862,3.554,3.554,0,0,1-.709.044q-3.4,0-6.8,0h-.853" transform="translate(-54.771 -79.172)" fill="#fff"/>
        <path id="Trazado_196400" data-name="Trazado 196400" d="M104.141,132.986H97.732a4.266,4.266,0,0,1-.582-.017.955.955,0,0,1-.134-1.868,2.634,2.634,0,0,1,.7-.057q6.41,0,12.819,0a4.116,4.116,0,0,1,.517.011.973.973,0,0,1,.91,1,.926.926,0,0,1-.963.927c-.776.025-1.554.01-2.33.011h-4.532" transform="translate(-63.703 -86.671)" fill="#fff"/>
        <path id="Trazado_196401" data-name="Trazado 196401" d="M104.229,143.582c-2.18,0-4.36.008-6.539-.01a1.387,1.387,0,0,1-.9-.233,1.207,1.207,0,0,1-.33-.947c.065-.284.434-.521.71-.723.115-.084.335-.031.508-.031h13.079c.086,0,.173,0,.259,0a.97.97,0,1,1,.01,1.935c-1.273.021-2.547.007-3.82.008h-2.978" transform="translate(-63.792 -93.67)" fill="#fff"/>
        <path id="Trazado_196402" data-name="Trazado 196402" d="M104.077,154.147H97.8c-.194,0-.389.006-.582-.012a.9.9,0,0,1-.905-.911.917.917,0,0,1,.886-1,4.258,4.258,0,0,1,.581-.024q6.343,0,12.687,0c1.038,0,1.514.321,1.5,1-.015.655-.464.942-1.479.943h-6.408" transform="translate(-63.7 -100.668)" fill="#fff"/>
        <path id="Trazado_196403" data-name="Trazado 196403" d="M104.114,164.725c-2.223,0-4.446,0-6.669,0-.725,0-1.131-.352-1.14-.948s.4-.985,1.106-.99c1.489-.012,2.978,0,4.467,0,2.935,0,5.87-.012,8.806.016a1.522,1.522,0,0,1,1.026.377,1.06,1.06,0,0,1,.12.987,1.276,1.276,0,0,1-.918.539c-1.314.06-2.632.026-3.948.026h-2.849" transform="translate(-63.697 -107.664)" fill="#fff"/>
        <path id="Trazado_196404" data-name="Trazado 196404" d="M47.473,57.329H60.108c.194,0,.389,0,.583,0,.7.026,1.135.415,1.119.986-.015.549-.436.917-1.1.954-.151.008-.3,0-.454,0q-12.8,0-25.594,0a3.477,3.477,0,0,1-.835-.066.948.948,0,0,1,.1-1.846,4.558,4.558,0,0,1,.711-.029q6.415,0,12.83,0" transform="translate(-21.921 -37.917)" fill="#fff"/>
        <path id="Trazado_196405" data-name="Trazado 196405" d="M45.422,46.729h10.7a3.034,3.034,0,0,1,.646.023.963.963,0,0,1,.042,1.887,2.5,2.5,0,0,1-.644.033q-10.825,0-21.65,0a2.634,2.634,0,0,1-.581-.024.965.965,0,0,1,.021-1.9,2.917,2.917,0,0,1,.582-.018h10.89" transform="translate(-21.919 -30.904)" fill="#fff"/>
      </g>
    </g>
  </g>
</svg>
