<svg xmlns="http://www.w3.org/2000/svg" xmlns:xlink="http://www.w3.org/1999/xlink" width="752" height="517" viewBox="0 0 752 517">
  <defs>
    <filter id="Trazado_198420" x="300.747" y="385.789" width="377.224" height="87.966" filterUnits="userSpaceOnUse">
      <feOffset dy="3" input="SourceAlpha"/>
      <feGaussianBlur stdDeviation="3" result="blur"/>
      <feFlood flood-opacity="0.161"/>
      <feComposite operator="in" in2="blur"/>
      <feComposite in="SourceGraphic"/>
    </filter>
  </defs>
  <g id="Grupo_156326" data-name="Grupo 156326" transform="translate(-2582 814)">
    <g id="Grupo_156319" data-name="Grupo 156319" transform="translate(539.332 834.433)">
      <g id="Grupo_152551" data-name="Grupo 152551" transform="translate(2683.237 -1478.432) rotate(-90)">
        <rect id="Rectángulo_45220" data-name="Rectángulo 45220" width="83.053" height="24.731" transform="translate(115 24.731) rotate(180)" fill="#e8e8e8"/>
        <g id="Grupo_152556" data-name="Grupo 152556" transform="translate(0 13.7)">
          <rect id="Rectángulo_45221" data-name="Rectángulo 45221" width="4.203" height="4.203" transform="translate(89.304 17.861)" fill="#1894f6"/>
          <rect id="Rectángulo_45222" data-name="Rectángulo 45222" width="4.203" height="4.203" transform="translate(80.374 17.861)" fill="#1894f6"/>
          <rect id="Rectángulo_45223" data-name="Rectángulo 45223" width="4.203" height="4.203" transform="translate(71.443 17.861)" fill="#1894f6"/>
          <rect id="Rectángulo_45224" data-name="Rectángulo 45224" width="4.202" height="4.203" transform="translate(62.513 17.861)" fill="#1894f6"/>
          <rect id="Rectángulo_45225" data-name="Rectángulo 45225" width="4.203" height="4.203" transform="translate(53.582 17.861)" fill="#1894f6"/>
          <rect id="Rectángulo_45226" data-name="Rectángulo 45226" width="4.202" height="4.203" transform="translate(44.652 17.861)" fill="#1894f6"/>
          <rect id="Rectángulo_45227" data-name="Rectángulo 45227" width="4.203" height="4.203" transform="translate(35.722 17.861)" fill="#1894f6"/>
          <rect id="Rectángulo_45228" data-name="Rectángulo 45228" width="4.202" height="4.203" transform="translate(26.791 17.861)" fill="#1894f6"/>
          <rect id="Rectángulo_45229" data-name="Rectángulo 45229" width="4.203" height="4.203" transform="translate(17.861 17.861)" fill="#1894f6"/>
          <rect id="Rectángulo_45230" data-name="Rectángulo 45230" width="4.203" height="4.203" transform="translate(8.93 17.861)" fill="#1894f6"/>
          <rect id="Rectángulo_45231" data-name="Rectángulo 45231" width="4.203" height="4.203" transform="translate(0 17.861)" fill="#1894f6"/>
          <rect id="Rectángulo_45232" data-name="Rectángulo 45232" width="4.203" height="4.203" transform="translate(89.304 8.93)" fill="#1894f6"/>
          <rect id="Rectángulo_45233" data-name="Rectángulo 45233" width="4.203" height="4.203" transform="translate(80.374 8.93)" fill="#1894f6"/>
          <rect id="Rectángulo_45234" data-name="Rectángulo 45234" width="4.203" height="4.203" transform="translate(71.443 8.93)" fill="#1894f6"/>
          <rect id="Rectángulo_45235" data-name="Rectángulo 45235" width="4.202" height="4.203" transform="translate(62.513 8.93)" fill="#1894f6"/>
          <rect id="Rectángulo_45236" data-name="Rectángulo 45236" width="4.203" height="4.203" transform="translate(53.582 8.93)" fill="#1894f6"/>
          <rect id="Rectángulo_45237" data-name="Rectángulo 45237" width="4.202" height="4.203" transform="translate(44.652 8.93)" fill="#1894f6"/>
          <rect id="Rectángulo_45238" data-name="Rectángulo 45238" width="4.203" height="4.203" transform="translate(35.722 8.93)" fill="#1894f6"/>
          <rect id="Rectángulo_45239" data-name="Rectángulo 45239" width="4.202" height="4.203" transform="translate(26.791 8.93)" fill="#1894f6"/>
          <rect id="Rectángulo_45240" data-name="Rectángulo 45240" width="4.203" height="4.203" transform="translate(17.861 8.93)" fill="#1894f6"/>
          <rect id="Rectángulo_45241" data-name="Rectángulo 45241" width="4.203" height="4.203" transform="translate(8.93 8.93)" fill="#1894f6"/>
          <rect id="Rectángulo_45242" data-name="Rectángulo 45242" width="4.203" height="4.203" transform="translate(0 8.93)" fill="#1894f6"/>
          <rect id="Rectángulo_45243" data-name="Rectángulo 45243" width="4.203" height="4.203" transform="translate(89.304)" fill="#1894f6"/>
          <rect id="Rectángulo_45244" data-name="Rectángulo 45244" width="4.203" height="4.203" transform="translate(80.374)" fill="#1894f6"/>
          <rect id="Rectángulo_45245" data-name="Rectángulo 45245" width="4.203" height="4.203" transform="translate(71.443)" fill="#1894f6"/>
          <rect id="Rectángulo_45246" data-name="Rectángulo 45246" width="4.202" height="4.203" transform="translate(62.513)" fill="#1894f6"/>
          <rect id="Rectángulo_45247" data-name="Rectángulo 45247" width="4.203" height="4.203" transform="translate(53.582)" fill="#1894f6"/>
          <rect id="Rectángulo_45248" data-name="Rectángulo 45248" width="4.202" height="4.203" transform="translate(44.652)" fill="#1894f6"/>
          <rect id="Rectángulo_45249" data-name="Rectángulo 45249" width="4.203" height="4.203" transform="translate(35.722)" fill="#1894f6"/>
          <rect id="Rectángulo_45250" data-name="Rectángulo 45250" width="4.202" height="4.203" transform="translate(26.791)" fill="#1894f6"/>
          <rect id="Rectángulo_45251" data-name="Rectángulo 45251" width="4.203" height="4.203" transform="translate(17.861)" fill="#1894f6"/>
          <rect id="Rectángulo_45252" data-name="Rectángulo 45252" width="4.203" height="4.203" transform="translate(8.93)" fill="#1894f6"/>
          <rect id="Rectángulo_45253" data-name="Rectángulo 45253" width="4.203" height="4.203" fill="#1894f6"/>
        </g>
      </g>
      <g transform="matrix(1, 0, 0, 1, 2042.67, -1648.43)" filter="url(#Trazado_198420)">
        <path id="Trazado_198420-2" data-name="Trazado 198420" d="M13,0H56.966a13,13,0,0,1,13,13V346.224a13,13,0,0,1-13,13H13a13,13,0,0,1-13-13V13A13,13,0,0,1,13,0Z" transform="translate(668.97 391.79) rotate(90)" fill="#008cff"/>
      </g>
      <path id="female-speaker-giving-presentation-in-hall-at-university-workshop-audience-or-conference-hall" d="M11,0H516.323a11,11,0,0,1,11,11V350.745a11,11,0,0,1-11,11H11a11,11,0,0,1-11-11V11A11,11,0,0,1,11,0Z" transform="translate(2117.668 -1572.045)" fill="#fff"/>
      <g id="Trazado_198421" data-name="Trazado 198421" transform="translate(2130.71 -1593.433)" fill="none">
        <path d="M12,0H531.528a12,12,0,0,1,12,12V356.772a12,12,0,0,1-12,12H12a12,12,0,0,1-12-12V12A12,12,0,0,1,12,0Z" stroke="none"/>
        <path d="M 12 3.000030517578125 C 7.037353515625 3.000030517578125 3 7.037384033203125 3 12.00003051757812 L 3 356.7723083496094 C 3 361.7349548339844 7.037353515625 365.7723083496094 12 365.7723083496094 L 531.5275268554688 365.7723083496094 C 536.4901733398438 365.7723083496094 540.5275268554688 361.7349548339844 540.5275268554688 356.7723083496094 L 540.5275268554688 12.00003051757812 C 540.5275268554688 7.037384033203125 536.4901733398438 3.000030517578125 531.5275268554688 3.000030517578125 L 12 3.000030517578125 M 12 3.0517578125e-05 L 531.5275268554688 3.0517578125e-05 C 538.1549682617188 3.0517578125e-05 543.5275268554688 5.372589111328125 543.5275268554688 12.00003051757812 L 543.5275268554688 356.7723083496094 C 543.5275268554688 363.3997497558594 538.1549682617188 368.7723083496094 531.5275268554688 368.7723083496094 L 12 368.7723083496094 C 5.37255859375 368.7723083496094 0 363.3997497558594 0 356.7723083496094 L 0 12.00003051757812 C 0 5.372589111328125 5.37255859375 3.0517578125e-05 12 3.0517578125e-05 Z" stroke="none" fill="#12263f"/>
      </g>
      <g id="Trazado_198422" data-name="Trazado 198422" transform="translate(2202.062 -1517)" fill="none">
        <path d="M0,0H383.6V270.405H0Z" stroke="none"/>
        <path d="M 1 1 L 1 269.4054260253906 L 382.598388671875 269.4054260253906 L 382.598388671875 1 L 1 1 M 0 0 L 383.598388671875 0 L 383.598388671875 270.4054260253906 L 0 270.4054260253906 L 0 0 Z" stroke="none" fill="#707070"/>
      </g>
      <path id="Trazado_198181" data-name="Trazado 198181" d="M7.472,11.328H5.878l-3.2-5.361-.033.005v5.355H1.047V3.38H2.641l3.2,5.355.033-.005V3.38H7.472Zm1.1-3.008a3.17,3.17,0,0,1,.737-2.164,2.569,2.569,0,0,1,2.042-.843,2.6,2.6,0,0,1,2.052.841,3.153,3.153,0,0,1,.742,2.167v.115a3.158,3.158,0,0,1-.74,2.17,2.585,2.585,0,0,1-2.044.838,2.592,2.592,0,0,1-2.05-.838,3.158,3.158,0,0,1-.74-2.17Zm1.589.115a2.57,2.57,0,0,0,.284,1.3.98.98,0,0,0,.917.489.97.97,0,0,0,.9-.491,2.552,2.552,0,0,0,.287-1.294V8.32a2.526,2.526,0,0,0-.289-1.283.979.979,0,0,0-.912-.5.967.967,0,0,0-.9.5,2.549,2.549,0,0,0-.287,1.28Zm6.736,2.893H15.3v-1.4h1.594Zm4.023-2.9a3.838,3.838,0,0,1,.6-2.254,1.959,1.959,0,0,1,1.7-.857,1.654,1.654,0,0,1,.8.191,1.917,1.917,0,0,1,.622.546V2.813h1.6v8.516H24.88l-.136-.726a1.975,1.975,0,0,1-.661.625,1.746,1.746,0,0,1-.873.216,2,2,0,0,1-1.689-.8,3.4,3.4,0,0,1-.6-2.107Zm1.589.115a2.406,2.406,0,0,0,.262,1.22.912.912,0,0,0,.852.445,1.24,1.24,0,0,0,.6-.139,1.111,1.111,0,0,0,.42-.407V7.141a1.227,1.227,0,0,0-.418-.434,1.111,1.111,0,0,0-.592-.156.9.9,0,0,0-.854.519,2.931,2.931,0,0,0-.27,1.354Zm7.528,2.9a2.658,2.658,0,0,1-2.063-.811,2.971,2.971,0,0,1-.742-2.088V8.326a3.234,3.234,0,0,1,.721-2.173,2.45,2.45,0,0,1,1.982-.841,2.293,2.293,0,0,1,1.826.729A2.88,2.88,0,0,1,32.391,8v.824H28.87l-.016.033a1.6,1.6,0,0,0,.368.983,1.234,1.234,0,0,0,.98.377,3.279,3.279,0,0,0,.909-.109,3.708,3.708,0,0,0,.772-.333l.431.983a2.959,2.959,0,0,1-.961.486A4.261,4.261,0,0,1,30.033,11.443Zm-.1-4.9a.885.885,0,0,0-.74.33,1.657,1.657,0,0,0-.314.876l.011.027H30.83v-.12a1.38,1.38,0,0,0-.213-.816A.787.787,0,0,0,29.929,6.541Zm9.657,4.787a3.353,3.353,0,0,1-.15-.426,2.962,2.962,0,0,1-.09-.459,2.185,2.185,0,0,1-.65.715,1.628,1.628,0,0,1-.961.284,2,2,0,0,1-1.43-.478,1.711,1.711,0,0,1-.5-1.3,1.557,1.557,0,0,1,.669-1.346,3.34,3.34,0,0,1,1.952-.478h.9V7.371a.919.919,0,0,0-.224-.661.878.878,0,0,0-.666-.235.866.866,0,0,0-.6.188.657.657,0,0,0-.21.516H36.087l-.011-.033a1.5,1.5,0,0,1,.652-1.291,2.833,2.833,0,0,1,1.8-.543,2.644,2.644,0,0,1,1.722.535,1.863,1.863,0,0,1,.658,1.534v2.44a4.615,4.615,0,0,0,.063.781,3.917,3.917,0,0,0,.2.726Zm-1.457-1.064a1.358,1.358,0,0,0,.742-.207,1.117,1.117,0,0,0,.448-.48V8.741h-.9a1.061,1.061,0,0,0-.767.251.825.825,0,0,0-.259.617.616.616,0,0,0,.194.478A.767.767,0,0,0,38.128,10.264ZM38.789,2.9h1.774l.011.033L39.062,4.352H37.7Zm6.425,3.892-.584-.016a1.062,1.062,0,0,0-.584.147.934.934,0,0,0-.349.415v3.99H42.108V5.422h1.479l.071.873a1.863,1.863,0,0,1,.538-.723,1.256,1.256,0,0,1,.983-.24q.1.019.2.046Zm6.157,1.747a3.455,3.455,0,0,1-.59,2.113,1.994,1.994,0,0,1-1.7.792,1.8,1.8,0,0,1-.9-.218,1.867,1.867,0,0,1-.652-.639l-.131.742H46.043V2.813h1.589V6.05a1.8,1.8,0,0,1,.614-.546,1.716,1.716,0,0,1,.822-.191,1.956,1.956,0,0,1,1.714.849,3.9,3.9,0,0,1,.59,2.263Zm-1.589-.115a3.075,3.075,0,0,0-.254-1.367.891.891,0,0,0-.865-.5,1.19,1.19,0,0,0-.628.156,1.078,1.078,0,0,0-.4.445v2.5a1.013,1.013,0,0,0,.407.409,1.309,1.309,0,0,0,.636.142.906.906,0,0,0,.862-.434,2.528,2.528,0,0,0,.246-1.231Zm2.325-.1a3.17,3.17,0,0,1,.737-2.164,2.569,2.569,0,0,1,2.042-.843,2.6,2.6,0,0,1,2.052.841,3.153,3.153,0,0,1,.742,2.167v.115a3.158,3.158,0,0,1-.74,2.17,2.919,2.919,0,0,1-4.094,0,3.158,3.158,0,0,1-.74-2.17Zm1.588.115a2.569,2.569,0,0,0,.284,1.3,1.091,1.091,0,0,0,1.82,0,2.552,2.552,0,0,0,.287-1.294V8.32A2.526,2.526,0,0,0,55.8,7.038a.979.979,0,0,0-.912-.5.967.967,0,0,0-.9.5A2.549,2.549,0,0,0,53.7,8.32Zm6.643,2.893H58.746V2.813H60.34Zm3.87.115a2.658,2.658,0,0,1-2.063-.811A2.971,2.971,0,0,1,61.4,8.544V8.326a3.234,3.234,0,0,1,.721-2.173,2.45,2.45,0,0,1,1.982-.841,2.293,2.293,0,0,1,1.826.729A2.88,2.88,0,0,1,66.568,8v.824H63.048l-.016.033a1.6,1.6,0,0,0,.368.983,1.234,1.234,0,0,0,.98.377,3.279,3.279,0,0,0,.909-.109,3.709,3.709,0,0,0,.772-.333l.431.983a2.959,2.959,0,0,1-.961.486A4.261,4.261,0,0,1,64.21,11.443Zm-.1-4.9a.885.885,0,0,0-.74.33,1.657,1.657,0,0,0-.314.876l.011.027h1.943v-.12a1.38,1.38,0,0,0-.213-.816A.787.787,0,0,0,64.107,6.541Zm6.583,3.15a.55.55,0,0,0-.254-.45,2.578,2.578,0,0,0-.942-.33,3.756,3.756,0,0,1-1.575-.628,1.371,1.371,0,0,1-.538-1.141,1.627,1.627,0,0,1,.644-1.294,2.6,2.6,0,0,1,1.714-.535,2.8,2.8,0,0,1,1.793.535A1.563,1.563,0,0,1,72.18,7.18l-.011.033H70.63a.773.773,0,0,0-.229-.579A1.072,1.072,0,0,0,69.134,6.6a.594.594,0,0,0-.224.469.53.53,0,0,0,.232.445,2.582,2.582,0,0,0,.942.308,3.832,3.832,0,0,1,1.619.641,1.407,1.407,0,0,1,.532,1.165,1.559,1.559,0,0,1-.682,1.3,2.945,2.945,0,0,1-1.8.508,2.738,2.738,0,0,1-1.864-.6,1.671,1.671,0,0,1-.652-1.362l.011-.033H68.7a.828.828,0,0,0,.311.688,1.285,1.285,0,0,0,.77.213,1.1,1.1,0,0,0,.674-.177A.576.576,0,0,0,70.69,9.691ZM81.373,8.539a3.392,3.392,0,0,1-.606,2.107,2,2,0,0,1-1.692.8,1.891,1.891,0,0,1-.824-.172,1.693,1.693,0,0,1-.617-.5V13.6H76.045V5.422h1.436l.093.7a1.893,1.893,0,0,1,.63-.6,1.705,1.705,0,0,1,.86-.21,1.966,1.966,0,0,1,1.7.857,3.825,3.825,0,0,1,.606,2.254Zm-1.594-.115A2.857,2.857,0,0,0,79.5,7.07a.908.908,0,0,0-.852-.519,1.2,1.2,0,0,0-.614.147,1.052,1.052,0,0,0-.4.42V9.707a.977.977,0,0,0,.4.382,1.352,1.352,0,0,0,.625.131.917.917,0,0,0,.849-.453,2.392,2.392,0,0,0,.27-1.228Zm2.331-.1a3.17,3.17,0,0,1,.737-2.164,2.569,2.569,0,0,1,2.042-.843,2.6,2.6,0,0,1,2.052.841,3.153,3.153,0,0,1,.742,2.167v.115a3.158,3.158,0,0,1-.74,2.17,2.919,2.919,0,0,1-4.094,0,3.158,3.158,0,0,1-.74-2.17Zm1.589.115a2.569,2.569,0,0,0,.284,1.3,1.091,1.091,0,0,0,1.82,0,2.552,2.552,0,0,0,.287-1.294V8.32A2.526,2.526,0,0,0,85.8,7.038a.979.979,0,0,0-.912-.5.967.967,0,0,0-.9.5A2.549,2.549,0,0,0,83.7,8.32Zm8.074-1.643-.584-.016a1.062,1.062,0,0,0-.584.147.934.934,0,0,0-.349.415v3.99H88.666V5.422h1.479l.071.873a1.863,1.863,0,0,1,.538-.723,1.256,1.256,0,0,1,.983-.24q.1.019.2.046Zm6.174,4.651a2.658,2.658,0,0,1-2.063-.811,2.971,2.971,0,0,1-.742-2.088V8.326a3.234,3.234,0,0,1,.721-2.173,2.45,2.45,0,0,1,1.982-.841,2.293,2.293,0,0,1,1.826.729A2.88,2.88,0,0,1,100.3,8v.824H96.783l-.016.033a1.6,1.6,0,0,0,.368.983,1.234,1.234,0,0,0,.98.377,3.279,3.279,0,0,0,.909-.109,3.708,3.708,0,0,0,.772-.333l.431.983a2.959,2.959,0,0,1-.961.486A4.261,4.261,0,0,1,97.945,11.443Zm-.1-4.9a.885.885,0,0,0-.74.33,1.657,1.657,0,0,0-.314.876l.011.027h1.943v-.12a1.38,1.38,0,0,0-.213-.816A.787.787,0,0,0,97.842,6.541Zm5.612.759h.033l.906-1.878h1.8l-1.78,2.92,1.84,2.986h-1.8l-.966-1.96-.966,1.96h-1.8l1.84-2.986-1.785-2.92h1.79Zm8.816,1.239a3.392,3.392,0,0,1-.606,2.107,2,2,0,0,1-1.692.8,1.891,1.891,0,0,1-.824-.172,1.693,1.693,0,0,1-.617-.5V13.6h-1.589V5.422h1.436l.093.7a1.893,1.893,0,0,1,.63-.6,1.705,1.705,0,0,1,.86-.21,1.966,1.966,0,0,1,1.7.857,3.825,3.825,0,0,1,.606,2.254Zm-1.594-.115A2.857,2.857,0,0,0,110.4,7.07a.908.908,0,0,0-.852-.519,1.2,1.2,0,0,0-.614.147,1.052,1.052,0,0,0-.4.42V9.707a.977.977,0,0,0,.4.382,1.352,1.352,0,0,0,.625.131.917.917,0,0,0,.849-.453,2.392,2.392,0,0,0,.27-1.228Zm4.252,2.9h-1.594V2.813h1.594Zm1.064-3.008a3.17,3.17,0,0,1,.737-2.164,2.569,2.569,0,0,1,2.042-.843,2.6,2.6,0,0,1,2.052.841,3.153,3.153,0,0,1,.742,2.167v.115a3.158,3.158,0,0,1-.74,2.17,2.919,2.919,0,0,1-4.094,0,3.158,3.158,0,0,1-.74-2.17Zm1.589.115a2.57,2.57,0,0,0,.284,1.3,1.091,1.091,0,0,0,1.821,0,2.552,2.552,0,0,0,.287-1.294V8.32a2.526,2.526,0,0,0-.289-1.283.979.979,0,0,0-.912-.5.967.967,0,0,0-.9.5,2.549,2.549,0,0,0-.287,1.28Zm6.878-4.46V5.422h1V6.541h-1V9.549a.686.686,0,0,0,.145.491.508.508,0,0,0,.379.147,1.522,1.522,0,0,0,.218-.014,1.839,1.839,0,0,0,.213-.046l.131,1.152a3.227,3.227,0,0,1-.467.123,2.782,2.782,0,0,1-.494.041,1.7,1.7,0,0,1-1.269-.453,1.987,1.987,0,0,1-.445-1.436V6.541h-.862V5.422h.862V3.975Zm5.464,7.353a3.355,3.355,0,0,1-.15-.426,2.962,2.962,0,0,1-.09-.459,2.185,2.185,0,0,1-.65.715,1.628,1.628,0,0,1-.961.284,2,2,0,0,1-1.43-.478,1.711,1.711,0,0,1-.5-1.3,1.557,1.557,0,0,1,.669-1.346,3.34,3.34,0,0,1,1.952-.478h.9V7.371a.919.919,0,0,0-.224-.661.878.878,0,0,0-.666-.235.866.866,0,0,0-.6.188.657.657,0,0,0-.21.516h-1.534l-.011-.033a1.5,1.5,0,0,1,.652-1.291,2.833,2.833,0,0,1,1.8-.543,2.644,2.644,0,0,1,1.722.535,1.863,1.863,0,0,1,.658,1.534v2.44a4.615,4.615,0,0,0,.063.781,3.917,3.917,0,0,0,.2.726Zm-1.457-1.064a1.358,1.358,0,0,0,.742-.207,1.117,1.117,0,0,0,.448-.48V8.741h-.9a1.061,1.061,0,0,0-.767.251.825.825,0,0,0-.259.617.616.616,0,0,0,.194.478A.767.767,0,0,0,128.465,10.264Zm6.447-.044a.887.887,0,0,0,.661-.248.9.9,0,0,0,.246-.663h1.452l.011.033a1.849,1.849,0,0,1-.666,1.5,2.49,2.49,0,0,1-1.7.6,2.517,2.517,0,0,1-2.025-.838,3.185,3.185,0,0,1-.715-2.143V8.3a3.206,3.206,0,0,1,.712-2.143,2.5,2.5,0,0,1,2.017-.843,2.436,2.436,0,0,1,1.741.622,2.08,2.08,0,0,1,.639,1.638l-.011.033h-1.452a1.179,1.179,0,0,0-.243-.761.816.816,0,0,0-.674-.3.91.91,0,0,0-.876.494,2.709,2.709,0,0,0-.259,1.264v.164a2.7,2.7,0,0,0,.259,1.272A.922.922,0,0,0,134.912,10.22Zm4.973,1.108h-1.594V5.422h1.594Zm0-7.32h-1.594v-1.2h1.594ZM140.95,8.32a3.17,3.17,0,0,1,.737-2.164,2.569,2.569,0,0,1,2.042-.843,2.6,2.6,0,0,1,2.053.841,3.153,3.153,0,0,1,.742,2.167v.115a3.158,3.158,0,0,1-.74,2.17,2.919,2.919,0,0,1-4.094,0,3.158,3.158,0,0,1-.74-2.17Zm1.589.115a2.57,2.57,0,0,0,.284,1.3,1.091,1.091,0,0,0,1.821,0,2.552,2.552,0,0,0,.287-1.294V8.32a2.526,2.526,0,0,0-.289-1.283.979.979,0,0,0-.912-.5.967.967,0,0,0-.9.5,2.549,2.549,0,0,0-.287,1.28ZM144.05,2.9h1.774l.011.033-1.512,1.419h-1.359Zm4.913,2.522.071.846a2.16,2.16,0,0,1,.726-.7,1.885,1.885,0,0,1,.966-.251,1.756,1.756,0,0,1,1.4.576,2.73,2.73,0,0,1,.5,1.82v3.619h-1.6V7.714a1.414,1.414,0,0,0-.221-.9.815.815,0,0,0-.663-.265,1.392,1.392,0,0,0-.625.134,1.22,1.22,0,0,0-.445.368v4.274h-1.594V5.422Zm11.12,5.906a3.353,3.353,0,0,1-.15-.426,2.964,2.964,0,0,1-.09-.459,2.185,2.185,0,0,1-.65.715,1.628,1.628,0,0,1-.961.284,2,2,0,0,1-1.43-.478,1.711,1.711,0,0,1-.5-1.3,1.558,1.558,0,0,1,.669-1.346,3.34,3.34,0,0,1,1.952-.478h.9V7.371a.919.919,0,0,0-.224-.661.878.878,0,0,0-.666-.235.866.866,0,0,0-.6.188.657.657,0,0,0-.21.516h-1.534l-.011-.033a1.5,1.5,0,0,1,.652-1.291,2.833,2.833,0,0,1,1.8-.543,2.644,2.644,0,0,1,1.722.535,1.863,1.863,0,0,1,.658,1.534v2.44a4.616,4.616,0,0,0,.063.781,3.918,3.918,0,0,0,.2.726Zm-1.457-1.064a1.358,1.358,0,0,0,.742-.207,1.117,1.117,0,0,0,.448-.48V8.741h-.9a1.061,1.061,0,0,0-.767.251.825.825,0,0,0-.259.617.616.616,0,0,0,.194.478A.767.767,0,0,0,158.625,10.264Zm3.745-1.84a3.825,3.825,0,0,1,.606-2.254,1.966,1.966,0,0,1,1.7-.857,1.677,1.677,0,0,1,.873.224,1.96,1.96,0,0,1,.644.639l.126-.753h1.37V11.3a2.2,2.2,0,0,1-.753,1.782,3.181,3.181,0,0,1-2.1.63,4,4,0,0,1-.95-.123,4.411,4.411,0,0,1-.928-.336l.267-1.19a3.658,3.658,0,0,0,.756.265,3.747,3.747,0,0,0,.843.09,1.427,1.427,0,0,0,.963-.273,1.08,1.08,0,0,0,.308-.852V10.76a1.783,1.783,0,0,1-.617.508,1.818,1.818,0,0,1-.813.175,2,2,0,0,1-1.692-.8,3.392,3.392,0,0,1-.606-2.107Zm1.594.115a2.427,2.427,0,0,0,.259,1.22.906.906,0,0,0,.849.445,1.316,1.316,0,0,0,.62-.134,1.022,1.022,0,0,0,.407-.39V7.119a1.089,1.089,0,0,0-.407-.42,1.192,1.192,0,0,0-.609-.147.894.894,0,0,0-.852.519,2.956,2.956,0,0,0-.267,1.354Zm8.057-1.747-.584-.016a1.062,1.062,0,0,0-.584.147.934.934,0,0,0-.349.415v3.99h-1.589V5.422h1.479l.071.873A1.863,1.863,0,0,1,171,5.572a1.256,1.256,0,0,1,.983-.24q.1.019.2.046Zm2.538,4.536h-1.594V5.422h1.594Zm-.475-8.314h1.774l.011.033-1.512,1.419H173Zm4.3,7.206a.887.887,0,0,0,.661-.248.9.9,0,0,0,.246-.663h1.452l.011.033a1.848,1.848,0,0,1-.666,1.5,2.49,2.49,0,0,1-1.7.6,2.517,2.517,0,0,1-2.025-.838,3.185,3.185,0,0,1-.715-2.143V8.3a3.206,3.206,0,0,1,.712-2.143,2.5,2.5,0,0,1,2.017-.843,2.436,2.436,0,0,1,1.741.622,2.08,2.08,0,0,1,.639,1.638l-.011.033h-1.452a1.179,1.179,0,0,0-.243-.761.816.816,0,0,0-.674-.3.91.91,0,0,0-.876.494,2.709,2.709,0,0,0-.259,1.264v.164a2.7,2.7,0,0,0,.259,1.272A.922.922,0,0,0,178.386,10.22Zm3.051-1.9a3.17,3.17,0,0,1,.737-2.164,2.569,2.569,0,0,1,2.042-.843,2.6,2.6,0,0,1,2.052.841,3.153,3.153,0,0,1,.742,2.167v.115a3.158,3.158,0,0,1-.74,2.17,2.919,2.919,0,0,1-4.094,0,3.158,3.158,0,0,1-.74-2.17Zm1.589.115a2.569,2.569,0,0,0,.284,1.3,1.091,1.091,0,0,0,1.82,0,2.552,2.552,0,0,0,.287-1.294V8.32a2.526,2.526,0,0,0-.289-1.283.979.979,0,0,0-.912-.5.967.967,0,0,0-.9.5,2.549,2.549,0,0,0-.287,1.28Zm6.643,2.893h-1.594V2.813h1.594Zm4.793,0a3.355,3.355,0,0,1-.15-.426,2.96,2.96,0,0,1-.09-.459,2.185,2.185,0,0,1-.65.715,1.628,1.628,0,0,1-.961.284,2,2,0,0,1-1.43-.478,1.711,1.711,0,0,1-.5-1.3,1.557,1.557,0,0,1,.669-1.346A3.34,3.34,0,0,1,193.3,7.84h.9V7.371a.919.919,0,0,0-.224-.661.878.878,0,0,0-.666-.235.866.866,0,0,0-.6.188.657.657,0,0,0-.21.516h-1.534l-.011-.033a1.5,1.5,0,0,1,.652-1.291,2.833,2.833,0,0,1,1.8-.543,2.644,2.644,0,0,1,1.722.535,1.863,1.863,0,0,1,.658,1.534v2.44a4.613,4.613,0,0,0,.063.781,3.917,3.917,0,0,0,.2.726ZM193,10.264a1.358,1.358,0,0,0,.742-.207,1.117,1.117,0,0,0,.448-.48V8.741h-.9a1.061,1.061,0,0,0-.767.251.825.825,0,0,0-.259.617.616.616,0,0,0,.194.478A.767.767,0,0,0,193,10.264Z" transform="translate(2205.939 -1539.857)" fill="#12263f"/>
      <path id="Trazado_198182" data-name="Trazado 198182" d="M6.056,11.524H4.467V4.962H2.824V3.745l3.232-.284Zm8.041,0H8.763V10.481L11.225,7.7a6.222,6.222,0,0,0,.783-1.1,1.828,1.828,0,0,0,.232-.827,1.188,1.188,0,0,0-.246-.786.9.9,0,0,0-.737-.295.946.946,0,0,0-.8.377,1.543,1.543,0,0,0-.284.955H8.621l-.011-.033a2.361,2.361,0,0,1,.7-1.793,2.617,2.617,0,0,1,1.949-.734,2.7,2.7,0,0,1,1.9.625,2.174,2.174,0,0,1,.677,1.679,2.361,2.361,0,0,1-.379,1.3A14.688,14.688,0,0,1,12.148,8.7l-1.31,1.572.011.027H14.1Zm4.787,0H17.3V4.962H15.652V3.745l3.232-.284Z" transform="translate(2237.688 -1512.564)" fill="#12263f"/>
      <path id="Trazado_198183" data-name="Trazado 198183" d="M6.2,3.461a4.112,4.112,0,0,1,.86.085,4.342,4.342,0,0,1,.783.248L7.555,4.962a6.025,6.025,0,0,0-.666-.188,3.3,3.3,0,0,0-.682-.063,1.374,1.374,0,0,0-1.127.535,2.325,2.325,0,0,0-.429,1.49v.257a2.217,2.217,0,0,1,.756-.483,2.669,2.669,0,0,1,.98-.172,1.92,1.92,0,0,1,1.594.723,2.946,2.946,0,0,1,.573,1.886,2.639,2.639,0,0,1-.742,1.943,2.611,2.611,0,0,1-1.938.748,2.629,2.629,0,0,1-2.028-.852,3.311,3.311,0,0,1-.783-2.331V6.791A3.317,3.317,0,0,1,3.95,4.37,3.006,3.006,0,0,1,6.2,3.461ZM5.857,7.544a1.75,1.75,0,0,0-.734.139,1.131,1.131,0,0,0-.472.385v.426a2.542,2.542,0,0,0,.336,1.419,1.024,1.024,0,0,0,.887.5A.922.922,0,0,0,6.665,10,1.778,1.778,0,0,0,6.96,8.947a1.611,1.611,0,0,0-.3-1.029A.975.975,0,0,0,5.857,7.544Zm8.314,1.021h.9V9.8h-.9v1.725H12.577V9.8H9.34l-.076-.955,3.3-5.268h1.61Zm-3.461,0h1.867V5.677l-.033-.005-.164.355Z" transform="translate(2286.669 -1399.26)" fill="#12263f"/>
      <path id="Trazado_198184" data-name="Trazado 198184" d="M7.665,8.565h.9V9.8h-.9v1.725H6.071V9.8H2.834l-.076-.955,3.3-5.268h1.61Zm-3.461,0H6.071V5.677l-.033-.005-.164.355ZM14.631,5.639a1.833,1.833,0,0,1-.306,1.045,2.059,2.059,0,0,1-.841.712,2.431,2.431,0,0,1,1.032.767A1.832,1.832,0,0,1,14.9,9.307a2.075,2.075,0,0,1-.767,1.717,3.042,3.042,0,0,1-1.962.614,3.281,3.281,0,0,1-2.052-.614,2.038,2.038,0,0,1-.8-1.717,1.791,1.791,0,0,1,.4-1.144A2.509,2.509,0,0,1,10.782,7.4,2.125,2.125,0,0,1,9.9,6.684a1.777,1.777,0,0,1-.319-1.045A1.936,1.936,0,0,1,10.3,4.026a2.914,2.914,0,0,1,1.861-.565,2.721,2.721,0,0,1,1.785.565A1.969,1.969,0,0,1,14.631,5.639ZM13.3,9.231a1.2,1.2,0,0,0-.33-.871,1.091,1.091,0,0,0-.816-.341,1.233,1.233,0,0,0-.89.341,1.155,1.155,0,0,0-.355.871,1.112,1.112,0,0,0,.352.862,1.286,1.286,0,0,0,.9.322,1.1,1.1,0,0,0,.813-.322A1.166,1.166,0,0,0,13.3,9.231ZM13.042,5.71a1.079,1.079,0,0,0-.246-.745.815.815,0,0,0-.639-.276.961.961,0,0,0-.715.27,1.02,1.02,0,0,0-.267.751,1.113,1.113,0,0,0,.273.783.931.931,0,0,0,.721.3A.777.777,0,0,0,12.8,6.5,1.207,1.207,0,0,0,13.042,5.71Z" transform="translate(2348.947 -1365.721)" fill="#12263f"/>
      <path id="Trazado_198186" data-name="Trazado 198186" d="M8.278,5.639a1.833,1.833,0,0,1-.306,1.045,2.059,2.059,0,0,1-.841.712,2.431,2.431,0,0,1,1.032.767,1.832,1.832,0,0,1,.382,1.144,2.075,2.075,0,0,1-.767,1.717,3.042,3.042,0,0,1-1.962.614,3.281,3.281,0,0,1-2.052-.614,2.038,2.038,0,0,1-.8-1.717,1.791,1.791,0,0,1,.4-1.144A2.509,2.509,0,0,1,4.429,7.4a2.125,2.125,0,0,1-.882-.712,1.777,1.777,0,0,1-.319-1.045,1.936,1.936,0,0,1,.715-1.613A2.914,2.914,0,0,1,5.8,3.461a2.721,2.721,0,0,1,1.785.565A1.969,1.969,0,0,1,8.278,5.639ZM6.951,9.231a1.2,1.2,0,0,0-.33-.871A1.091,1.091,0,0,0,5.8,8.019a1.233,1.233,0,0,0-.89.341,1.155,1.155,0,0,0-.355.871,1.112,1.112,0,0,0,.352.862,1.287,1.287,0,0,0,.9.322,1.1,1.1,0,0,0,.813-.322A1.166,1.166,0,0,0,6.951,9.231ZM6.689,5.71a1.079,1.079,0,0,0-.246-.745A.815.815,0,0,0,5.8,4.689a.961.961,0,0,0-.715.27,1.02,1.02,0,0,0-.267.751,1.113,1.113,0,0,0,.273.783.931.931,0,0,0,.721.3A.777.777,0,0,0,6.449,6.5,1.207,1.207,0,0,0,6.689,5.71Zm3,2.309.459-4.443h4.433V4.853H11.449l-.218,1.856a1.926,1.926,0,0,1,.562-.27,2.693,2.693,0,0,1,.737-.117,2.107,2.107,0,0,1,1.717.685,2.908,2.908,0,0,1,.609,1.968A2.787,2.787,0,0,1,14.2,10.89a2.556,2.556,0,0,1-2.02.748,3.055,3.055,0,0,1-1.878-.581,1.816,1.816,0,0,1-.753-1.6l.011-.027,1.534-.071a1,1,0,0,0,.3.775,1.11,1.11,0,0,0,.786.278A.938.938,0,0,0,13,10.044a1.836,1.836,0,0,0,.259-1.059,1.88,1.88,0,0,0-.284-1.094.959.959,0,0,0-.841-.407,1.221,1.221,0,0,0-.7.169.923.923,0,0,0-.347.459Z" transform="translate(2405.896 -1437.695)" fill="#12263f"/>
      <path id="Trazado_198189" data-name="Trazado 198189" d="M7.056,11.524H5.467V4.962H3.824V3.745l3.232-.284ZM15.02,8.647a3.115,3.115,0,0,1-.734,2.194,2.52,2.52,0,0,1-1.946.8,2.541,2.541,0,0,1-1.96-.8,3.108,3.108,0,0,1-.737-2.194V6.458a3.127,3.127,0,0,1,.734-2.194,2.518,2.518,0,0,1,1.952-.8,2.528,2.528,0,0,1,1.952.8,3.113,3.113,0,0,1,.74,2.194ZM13.432,6.294a2.057,2.057,0,0,0-.292-1.185.992.992,0,0,0-1.621,0,2.087,2.087,0,0,0-.287,1.185V8.8a2.093,2.093,0,0,0,.289,1.2.938.938,0,0,0,.819.418A.921.921,0,0,0,13.145,10a2.108,2.108,0,0,0,.287-1.2Zm8.079,5.229H16.177V10.481L18.639,7.7a6.222,6.222,0,0,0,.783-1.1,1.828,1.828,0,0,0,.232-.827,1.188,1.188,0,0,0-.246-.786.9.9,0,0,0-.737-.295.946.946,0,0,0-.8.377,1.543,1.543,0,0,0-.284.955h-1.55l-.011-.033a2.361,2.361,0,0,1,.7-1.793,2.617,2.617,0,0,1,1.949-.734,2.7,2.7,0,0,1,1.9.625,2.174,2.174,0,0,1,.677,1.679,2.361,2.361,0,0,1-.379,1.3A14.688,14.688,0,0,1,19.562,8.7l-1.31,1.572.011.027h3.248Z" transform="translate(2455.673 -1476.818)" fill="#12263f"/>
      <path id="Trazado_198188" data-name="Trazado 198188" d="M8.465,4.8A10.265,10.265,0,0,0,6.631,7.645a8.031,8.031,0,0,0-.486,2.9v.983H4.551v-.983a7.361,7.361,0,0,1,.609-3.027A11.022,11.022,0,0,1,6.931,4.8H2.875V3.576h5.59Zm4.782,6.72H11.658V4.962H10.015V3.745l3.232-.284Z" transform="translate(2527.863 -1416.38)" fill="#12263f"/>
      <path id="Trazado_198423" data-name="Trazado 198423" d="M0,0H398.462" transform="translate(2193.138 -1272.458)" fill="none" stroke="#707070" stroke-width="1"/>
      <path id="Trazado_198424" data-name="Trazado 198424" d="M0,0H398.462" transform="translate(2193.138 -1293.42)" fill="none" stroke="#707070" stroke-width="1"/>
      <path id="Trazado_198425" data-name="Trazado 198425" d="M0,0H398.462" transform="translate(2193.138 -1313.498)" fill="none" stroke="#707070" stroke-width="1"/>
      <path id="Trazado_198426" data-name="Trazado 198426" d="M0,0H398.462" transform="translate(2193.138 -1334.459)" fill="none" stroke="#707070" stroke-width="1"/>
      <path id="Trazado_198427" data-name="Trazado 198427" d="M0,0H398.462" transform="translate(2193.138 -1353.767)" fill="none" stroke="#707070" stroke-width="1"/>
      <path id="Trazado_198428" data-name="Trazado 198428" d="M0,0H398.462" transform="translate(2193.138 -1374.892)" fill="none" stroke="#707070" stroke-width="1"/>
      <path id="Trazado_198429" data-name="Trazado 198429" d="M0,0H398.462" transform="translate(2193.138 -1393.594)" fill="none" stroke="#707070" stroke-width="1"/>
      <path id="Trazado_198187" data-name="Trazado 198187" d="M0,0H398.462" transform="translate(2193.138 -1414.462)" fill="none" stroke="#707070" stroke-width="1"/>
      <path id="Trazado_198185" data-name="Trazado 198185" d="M0,0H398.462" transform="translate(2193.138 -1435.075)" fill="none" stroke="#707070" stroke-width="1"/>
      <path id="Trazado_198430" data-name="Trazado 198430" d="M0,0H398.462" transform="translate(2193.138 -1454.813)" fill="none" stroke="#707070" stroke-width="1"/>
      <path id="Trazado_198431" data-name="Trazado 198431" d="M0,0H398.462" transform="translate(2193.138 -1475.775)" fill="none" stroke="#707070" stroke-width="1"/>
      <path id="Trazado_198432" data-name="Trazado 198432" d="M0,0H398.462" transform="translate(2193.138 -1492.719)" fill="none" stroke="#707070" stroke-width="1"/>
      <path id="Trazado_198433" data-name="Trazado 198433" d="M0,0H398.462" transform="translate(2193.138 -1517.082)" fill="none" stroke="#707070" stroke-width="1"/>
      <path id="Trazado_198434" data-name="Trazado 198434" d="M0,0H398.462" transform="translate(2193.138 -1253.593)" fill="none" stroke="#707070" stroke-width="1"/>
      <path id="Trazado_198180" data-name="Trazado 198180" d="M7.311,11.524H6.23V4.569L4.5,4.585v-.83l2.811-.295ZM12.89,7a1.26,1.26,0,0,0,1.018-.358,1.523,1.523,0,0,0,.3-1,1.412,1.412,0,0,0-.325-.969,1.217,1.217,0,0,0-.963-.368,1.437,1.437,0,0,0-1.029.385,1.271,1.271,0,0,0-.407.963H10.456l-.016-.033a1.9,1.9,0,0,1,.677-1.528,2.592,2.592,0,0,1,1.8-.633,2.517,2.517,0,0,1,1.736.56,2.09,2.09,0,0,1,.628,1.646,1.851,1.851,0,0,1-.292,1.015,1.969,1.969,0,0,1-.816.715,1.878,1.878,0,0,1,.914.729A2.14,2.14,0,0,1,15.4,9.307a2.182,2.182,0,0,1-.691,1.711,2.583,2.583,0,0,1-1.793.62,2.839,2.839,0,0,1-1.788-.6,1.831,1.831,0,0,1-.745-1.58l.011-.033h1.026a1.29,1.29,0,0,0,.418.974,1.5,1.5,0,0,0,1.078.4,1.337,1.337,0,0,0,1.032-.407,1.5,1.5,0,0,0,.377-1.062,1.588,1.588,0,0,0-.347-1.119,1.426,1.426,0,0,0-1.089-.371h-.884V7ZM21.7,8.718a3.137,3.137,0,0,1-.685,2.134,2.32,2.32,0,0,1-1.842.786,2.33,2.33,0,0,1-1.842-.786,3.12,3.12,0,0,1-.691-2.134V6.381a3.141,3.141,0,0,1,.685-2.129,2.307,2.307,0,0,1,1.837-.792,2.329,2.329,0,0,1,1.848.792A3.125,3.125,0,0,1,21.7,6.381Zm-1.075-2.56A2.168,2.168,0,0,0,20.243,4.8a1.284,1.284,0,0,0-1.081-.5,1.263,1.263,0,0,0-1.07.5,2.191,2.191,0,0,0-.377,1.354V8.936A2.181,2.181,0,0,0,18.1,10.3a1.4,1.4,0,0,0,2.148,0,2.213,2.213,0,0,0,.377-1.362ZM7.311,31.786H6.23V24.832l-1.73.016v-.83l2.811-.295Zm8.172,0H10.548V31.05l2.495-2.975a7.5,7.5,0,0,0,.9-1.286,2.145,2.145,0,0,0,.237-.963,1.287,1.287,0,0,0-.322-.9,1.145,1.145,0,0,0-.89-.352A1.333,1.333,0,0,0,11.9,25a1.6,1.6,0,0,0-.368,1.075H10.494l-.011-.033a2.144,2.144,0,0,1,.65-1.646,2.491,2.491,0,0,1,1.84-.674,2.313,2.313,0,0,1,1.676.59,2.022,2.022,0,0,1,.611,1.523,2.429,2.429,0,0,1-.347,1.228,13.7,13.7,0,0,1-1.056,1.507l-2,2.347.011.027h3.619ZM21.7,28.981a3.137,3.137,0,0,1-.685,2.134,2.32,2.32,0,0,1-1.842.786,2.33,2.33,0,0,1-1.842-.786,3.12,3.12,0,0,1-.691-2.134V26.644a3.141,3.141,0,0,1,.685-2.129,2.307,2.307,0,0,1,1.837-.792,2.329,2.329,0,0,1,1.848.792,3.125,3.125,0,0,1,.691,2.129Zm-1.075-2.56a2.168,2.168,0,0,0-.382-1.354,1.284,1.284,0,0,0-1.081-.5,1.263,1.263,0,0,0-1.07.5,2.191,2.191,0,0,0-.377,1.354V29.2a2.181,2.181,0,0,0,.385,1.359,1.4,1.4,0,0,0,2.148,0,2.213,2.213,0,0,0,.377-1.362ZM7.311,52.049H6.23V45.095l-1.73.016v-.83l2.811-.295Zm6.294,0H12.524V45.095l-1.73.016v-.83l2.811-.295Zm8.1-2.806a3.137,3.137,0,0,1-.685,2.134,2.32,2.32,0,0,1-1.842.786,2.33,2.33,0,0,1-1.842-.786,3.12,3.12,0,0,1-.691-2.134V46.907a3.141,3.141,0,0,1,.685-2.129,2.307,2.307,0,0,1,1.837-.792,2.329,2.329,0,0,1,1.848.792,3.125,3.125,0,0,1,.691,2.129Zm-1.075-2.56a2.168,2.168,0,0,0-.382-1.354,1.284,1.284,0,0,0-1.081-.5,1.263,1.263,0,0,0-1.07.5,2.191,2.191,0,0,0-.377,1.354v2.779a2.181,2.181,0,0,0,.385,1.359,1.4,1.4,0,0,0,2.148,0,2.213,2.213,0,0,0,.377-1.362ZM7.311,72.312H6.23V65.358l-1.73.016v-.83l2.811-.295Zm8.1-2.806a3.137,3.137,0,0,1-.685,2.134,2.32,2.32,0,0,1-1.842.786,2.33,2.33,0,0,1-1.842-.786,3.12,3.12,0,0,1-.691-2.134V67.17a3.141,3.141,0,0,1,.685-2.129,2.307,2.307,0,0,1,1.837-.792,2.329,2.329,0,0,1,1.848.792,3.125,3.125,0,0,1,.691,2.129Zm-1.075-2.56a2.168,2.168,0,0,0-.382-1.354,1.284,1.284,0,0,0-1.081-.5,1.263,1.263,0,0,0-1.07.5,2.191,2.191,0,0,0-.377,1.354v2.779a2.181,2.181,0,0,0,.385,1.359,1.4,1.4,0,0,0,2.148,0,2.213,2.213,0,0,0,.377-1.362Zm7.369,2.56a3.137,3.137,0,0,1-.685,2.134,2.32,2.32,0,0,1-1.842.786,2.33,2.33,0,0,1-1.842-.786,3.12,3.12,0,0,1-.691-2.134V67.17a3.141,3.141,0,0,1,.685-2.129,2.307,2.307,0,0,1,1.837-.792,2.329,2.329,0,0,1,1.848.792A3.125,3.125,0,0,1,21.7,67.17Zm-1.075-2.56a2.168,2.168,0,0,0-.382-1.354,1.284,1.284,0,0,0-1.081-.5,1.263,1.263,0,0,0-1.07.5,2.191,2.191,0,0,0-.377,1.354v2.779a2.181,2.181,0,0,0,.385,1.359,1.4,1.4,0,0,0,2.148,0,2.213,2.213,0,0,0,.377-1.362Zm-8.161,24.9a1.6,1.6,0,0,0,1.253-.535,2.2,2.2,0,0,0,.478-1.518V89.12a1.732,1.732,0,0,1-.652.587,1.851,1.851,0,0,1-.854.2,2.326,2.326,0,0,1-1.8-.707,3.2,3.2,0,0,1,.041-3.925,2.226,2.226,0,0,1,1.714-.761,2.531,2.531,0,0,1,1.911.748,2.921,2.921,0,0,1,.721,2.113v2.413a2.848,2.848,0,0,1-.786,2.137,2.778,2.778,0,0,1-2.025.767,4.4,4.4,0,0,1-.86-.087,3.9,3.9,0,0,1-.822-.257l.164-.819a3.1,3.1,0,0,0,.707.248A3.935,3.935,0,0,0,12.464,91.849Zm.224-2.784a1.67,1.67,0,0,0,.947-.257,1.5,1.5,0,0,0,.56-.655v-.939a2.1,2.1,0,0,0-.4-1.373,1.37,1.37,0,0,0-1.119-.483,1.176,1.176,0,0,0-.974.521,2.2,2.2,0,0,0-.39,1.356,2.23,2.23,0,0,0,.36,1.324A1.175,1.175,0,0,0,12.688,89.065Zm9.012.7a3.137,3.137,0,0,1-.685,2.134,2.32,2.32,0,0,1-1.842.786,2.33,2.33,0,0,1-1.842-.786,3.12,3.12,0,0,1-.691-2.134V87.433a3.141,3.141,0,0,1,.685-2.129,2.307,2.307,0,0,1,1.837-.792,2.329,2.329,0,0,1,1.848.792,3.125,3.125,0,0,1,.691,2.129Zm-1.075-2.56a2.168,2.168,0,0,0-.382-1.354,1.284,1.284,0,0,0-1.081-.5,1.263,1.263,0,0,0-1.07.5,2.191,2.191,0,0,0-.377,1.354v2.779a2.181,2.181,0,0,0,.385,1.359,1.4,1.4,0,0,0,2.148,0,2.213,2.213,0,0,0,.377-1.362Zm-5.382,19.712a1.791,1.791,0,0,1-.349,1.094,2.116,2.116,0,0,1-.928.707,2.329,2.329,0,0,1,1.086.748,1.845,1.845,0,0,1,.409,1.185,2.1,2.1,0,0,1-.712,1.7,2.719,2.719,0,0,1-1.815.6,2.931,2.931,0,0,1-1.908-.6,2.062,2.062,0,0,1-.74-1.7,1.822,1.822,0,0,1,.418-1.185,2.408,2.408,0,0,1,1.127-.753,2.094,2.094,0,0,1-.966-.7,1.772,1.772,0,0,1-.355-1.094,1.948,1.948,0,0,1,.669-1.594,2.653,2.653,0,0,1,1.744-.551,2.486,2.486,0,0,1,1.668.554A1.972,1.972,0,0,1,15.243,106.921Zm-.852,3.712a1.444,1.444,0,0,0-.423-1.07,1.425,1.425,0,0,0-1.045-.42,1.559,1.559,0,0,0-1.119.42,1.412,1.412,0,0,0-.442,1.07,1.39,1.39,0,0,0,.439,1.075,1.608,1.608,0,0,0,1.133.4,1.411,1.411,0,0,0,1.457-1.479Zm-.224-3.7a1.306,1.306,0,0,0-.358-.944,1.182,1.182,0,0,0-.887-.371,1.339,1.339,0,0,0-.961.358,1.259,1.259,0,0,0-.377.958,1.3,1.3,0,0,0,1.348,1.359,1.156,1.156,0,0,0,.882-.377A1.381,1.381,0,0,0,14.167,106.937Zm7.533,3.1a3.137,3.137,0,0,1-.685,2.134,2.32,2.32,0,0,1-1.842.786,2.33,2.33,0,0,1-1.842-.786,3.12,3.12,0,0,1-.691-2.134V107.7a3.141,3.141,0,0,1,.685-2.129,2.307,2.307,0,0,1,1.837-.792,2.329,2.329,0,0,1,1.848.792A3.125,3.125,0,0,1,21.7,107.7Zm-1.075-2.56a2.168,2.168,0,0,0-.382-1.354,1.284,1.284,0,0,0-1.081-.5,1.263,1.263,0,0,0-1.07.5,2.191,2.191,0,0,0-.377,1.354v2.779a2.181,2.181,0,0,0,.385,1.359,1.4,1.4,0,0,0,2.148,0,2.213,2.213,0,0,0,.377-1.362ZM15.532,126A11.815,11.815,0,0,0,13.5,129.16a8.468,8.468,0,0,0-.53,3.073v.868H11.891v-.868a7.686,7.686,0,0,1,.663-3.245A14.219,14.219,0,0,1,14.473,126H10.259v-.846h5.273Zm6.168,4.3a3.137,3.137,0,0,1-.685,2.134,2.32,2.32,0,0,1-1.842.786,2.33,2.33,0,0,1-1.842-.786,3.12,3.12,0,0,1-.691-2.134v-2.336a3.141,3.141,0,0,1,.685-2.129,2.307,2.307,0,0,1,1.837-.792,2.329,2.329,0,0,1,1.848.792,3.125,3.125,0,0,1,.691,2.129Zm-1.075-2.56a2.168,2.168,0,0,0-.382-1.354,1.284,1.284,0,0,0-1.081-.5,1.263,1.263,0,0,0-1.07.5,2.191,2.191,0,0,0-.377,1.354v2.779a2.181,2.181,0,0,0,.385,1.359,1.4,1.4,0,0,0,2.148,0,2.213,2.213,0,0,0,.377-1.362Zm-7.4,17.566a4.667,4.667,0,0,1,.928.093,3.353,3.353,0,0,1,.759.235l-.229.824a4.017,4.017,0,0,0-.655-.221,3.383,3.383,0,0,0-.8-.085,1.439,1.439,0,0,0-1.215.639,2.667,2.667,0,0,0-.467,1.616v.617a2.431,2.431,0,0,1,.789-.524,2.509,2.509,0,0,1,.98-.191,2.041,2.041,0,0,1,1.624.688,2.656,2.656,0,0,1,.6,1.807,2.774,2.774,0,0,1-.669,1.952,2.329,2.329,0,0,1-1.8.729,2.365,2.365,0,0,1-1.845-.838,3.331,3.331,0,0,1-.742-2.29v-1.829a3.388,3.388,0,0,1,.794-2.309A2.5,2.5,0,0,1,13.229,145.3Zm-.257,3.8a1.675,1.675,0,0,0-.871.216,1.443,1.443,0,0,0-.554.581v.551a2.607,2.607,0,0,0,.439,1.6,1.308,1.308,0,0,0,1.078.587,1.193,1.193,0,0,0,1.034-.51,2.243,2.243,0,0,0,.363-1.329,1.84,1.84,0,0,0-.39-1.234A1.366,1.366,0,0,0,12.972,149.106Zm8.729,1.452a3.137,3.137,0,0,1-.685,2.134,2.32,2.32,0,0,1-1.842.786,2.33,2.33,0,0,1-1.842-.786,3.12,3.12,0,0,1-.691-2.134v-2.336a3.141,3.141,0,0,1,.685-2.129,2.307,2.307,0,0,1,1.837-.792,2.329,2.329,0,0,1,1.848.792,3.125,3.125,0,0,1,.691,2.129ZM20.625,148a2.168,2.168,0,0,0-.382-1.354,1.284,1.284,0,0,0-1.081-.5,1.263,1.263,0,0,0-1.07.5A2.191,2.191,0,0,0,17.716,148v2.779a2.181,2.181,0,0,0,.385,1.359,1.4,1.4,0,0,0,2.148,0,2.213,2.213,0,0,0,.377-1.362Zm-9.94,22.1.459-4.416h3.979v.955H12.049l-.257,2.287a2.454,2.454,0,0,1,.568-.314,2,2,0,0,1,.71-.128,2.164,2.164,0,0,1,1.728.691,3.236,3.236,0,0,1-.016,3.846,2.363,2.363,0,0,1-1.87.726,2.562,2.562,0,0,1-1.681-.551,1.908,1.908,0,0,1-.644-1.621l.011-.033h.972a1.327,1.327,0,0,0,.374,1.007,1.344,1.344,0,0,0,.969.358,1.269,1.269,0,0,0,1.059-.48,2.079,2.079,0,0,0,.377-1.316,1.894,1.894,0,0,0-.379-1.228,1.282,1.282,0,0,0-1.056-.469,1.688,1.688,0,0,0-.917.191,1.117,1.117,0,0,0-.42.59Zm11.016.726a3.137,3.137,0,0,1-.685,2.134,2.32,2.32,0,0,1-1.842.786,2.33,2.33,0,0,1-1.842-.786,3.12,3.12,0,0,1-.691-2.134v-2.336a3.141,3.141,0,0,1,.685-2.129,2.307,2.307,0,0,1,1.837-.792,2.329,2.329,0,0,1,1.848.792,3.125,3.125,0,0,1,.691,2.129Zm-1.075-2.56a2.168,2.168,0,0,0-.382-1.354,1.284,1.284,0,0,0-1.081-.5,1.263,1.263,0,0,0-1.07.5,2.191,2.191,0,0,0-.377,1.354v2.779A2.181,2.181,0,0,0,18.1,172.4a1.4,1.4,0,0,0,2.148,0,2.213,2.213,0,0,0,.377-1.362ZM14.6,191.215h1.1v.841H14.6v1.834h-1.07v-1.834H10.123v-.606l3.346-5.508H14.6Zm-3.33,0h2.26v-3.728l-.033-.005-.1.273Zm10.426-.131a3.137,3.137,0,0,1-.685,2.134,2.32,2.32,0,0,1-1.842.786,2.33,2.33,0,0,1-1.842-.786,3.12,3.12,0,0,1-.691-2.134v-2.336a3.141,3.141,0,0,1,.685-2.129,2.307,2.307,0,0,1,1.837-.792,2.329,2.329,0,0,1,1.848.792,3.125,3.125,0,0,1,.691,2.129Zm-1.075-2.56a2.168,2.168,0,0,0-.382-1.354,1.284,1.284,0,0,0-1.081-.5,1.263,1.263,0,0,0-1.07.5,2.191,2.191,0,0,0-.377,1.354V191.3a2.181,2.181,0,0,0,.385,1.359,1.4,1.4,0,0,0,2.148,0,2.213,2.213,0,0,0,.377-1.362ZM12.89,209.633a1.26,1.26,0,0,0,1.018-.358,1.523,1.523,0,0,0,.3-1,1.412,1.412,0,0,0-.325-.969,1.217,1.217,0,0,0-.963-.368,1.437,1.437,0,0,0-1.029.385,1.271,1.271,0,0,0-.407.963H10.456l-.016-.033a1.9,1.9,0,0,1,.677-1.528,2.592,2.592,0,0,1,1.8-.633,2.517,2.517,0,0,1,1.736.56,2.09,2.09,0,0,1,.628,1.646,1.851,1.851,0,0,1-.292,1.015,1.969,1.969,0,0,1-.816.715,1.878,1.878,0,0,1,.914.729,2.14,2.14,0,0,1,.314,1.182,2.182,2.182,0,0,1-.691,1.711,2.583,2.583,0,0,1-1.793.62,2.839,2.839,0,0,1-1.788-.6,1.831,1.831,0,0,1-.745-1.58l.011-.033h1.026a1.29,1.29,0,0,0,.418.974,1.5,1.5,0,0,0,1.078.4,1.337,1.337,0,0,0,1.032-.407,1.5,1.5,0,0,0,.377-1.062,1.589,1.589,0,0,0-.347-1.119,1.426,1.426,0,0,0-1.089-.371h-.884v-.835Zm8.81,1.714a3.137,3.137,0,0,1-.685,2.134,2.32,2.32,0,0,1-1.842.786,2.33,2.33,0,0,1-1.842-.786,3.12,3.12,0,0,1-.691-2.134v-2.336a3.141,3.141,0,0,1,.685-2.129,2.307,2.307,0,0,1,1.837-.792,2.329,2.329,0,0,1,1.848.792,3.125,3.125,0,0,1,.691,2.129Zm-1.075-2.56a2.168,2.168,0,0,0-.382-1.354,1.284,1.284,0,0,0-1.081-.5,1.263,1.263,0,0,0-1.07.5,2.191,2.191,0,0,0-.377,1.354v2.779a2.181,2.181,0,0,0,.385,1.359,1.4,1.4,0,0,0,2.148,0,2.213,2.213,0,0,0,.377-1.362Zm-5.142,25.629H10.548v-.737l2.495-2.975a7.5,7.5,0,0,0,.9-1.286,2.145,2.145,0,0,0,.237-.963,1.287,1.287,0,0,0-.322-.9,1.145,1.145,0,0,0-.89-.352,1.333,1.333,0,0,0-1.073.431,1.6,1.6,0,0,0-.368,1.075H10.494l-.011-.033a2.144,2.144,0,0,1,.65-1.646,2.491,2.491,0,0,1,1.84-.674,2.313,2.313,0,0,1,1.676.59,2.022,2.022,0,0,1,.611,1.523,2.429,2.429,0,0,1-.347,1.228,13.705,13.705,0,0,1-1.056,1.507l-2,2.347.011.027h3.619ZM21.7,231.61a3.137,3.137,0,0,1-.685,2.134,2.32,2.32,0,0,1-1.842.786,2.33,2.33,0,0,1-1.842-.786,3.12,3.12,0,0,1-.691-2.134v-2.336a3.141,3.141,0,0,1,.685-2.129,2.307,2.307,0,0,1,1.837-.792,2.329,2.329,0,0,1,1.848.792,3.125,3.125,0,0,1,.691,2.129Zm-1.075-2.56a2.168,2.168,0,0,0-.382-1.354,1.284,1.284,0,0,0-1.081-.5,1.263,1.263,0,0,0-1.07.5,2.191,2.191,0,0,0-.377,1.354v2.779a2.181,2.181,0,0,0,.385,1.359,1.4,1.4,0,0,0,2.148,0,2.213,2.213,0,0,0,.377-1.362Zm-7.02,25.629H12.524v-6.954l-1.73.016v-.83l2.811-.295Zm8.1-2.806a3.137,3.137,0,0,1-.685,2.134,2.32,2.32,0,0,1-1.842.786,2.33,2.33,0,0,1-1.842-.786,3.12,3.12,0,0,1-.691-2.134v-2.336a3.141,3.141,0,0,1,.685-2.129,2.307,2.307,0,0,1,1.837-.792,2.329,2.329,0,0,1,1.848.792,3.125,3.125,0,0,1,.691,2.129Zm-1.075-2.56a2.168,2.168,0,0,0-.382-1.354,1.284,1.284,0,0,0-1.081-.5,1.263,1.263,0,0,0-1.07.5,2.191,2.191,0,0,0-.377,1.354v2.779a2.181,2.181,0,0,0,.385,1.359,1.4,1.4,0,0,0,2.148,0,2.213,2.213,0,0,0,.377-1.362ZM21.7,272.136a3.137,3.137,0,0,1-.685,2.134,2.32,2.32,0,0,1-1.842.786,2.33,2.33,0,0,1-1.842-.786,3.12,3.12,0,0,1-.691-2.134V269.8a3.141,3.141,0,0,1,.685-2.129,2.306,2.306,0,0,1,1.837-.792,2.329,2.329,0,0,1,1.848.792A3.125,3.125,0,0,1,21.7,269.8Zm-1.075-2.56a2.168,2.168,0,0,0-.382-1.354,1.284,1.284,0,0,0-1.081-.5,1.263,1.263,0,0,0-1.07.5,2.191,2.191,0,0,0-.377,1.354v2.779a2.181,2.181,0,0,0,.385,1.359,1.4,1.4,0,0,0,2.148,0,2.213,2.213,0,0,0,.377-1.362Z" transform="translate(2167.168 -1524.331)" fill="#12263f"/>
      <g id="Grupo_156251" data-name="Grupo 156251" transform="translate(2213.941 -1498.246)">
        <rect id="Rectángulo_47304" data-name="Rectángulo 47304" width="13.276" height="212.966" transform="translate(28.648 38.173)" fill="#6e1d1d"/>
        <path id="Trazado_198179" data-name="Trazado 198179" d="M33.515,0s7.119,1.468,15.751,10.95c.717.788-.94,7.559,0,8.54,5.479,5.72,18.486,10.822,18.486,18.24,0,5.518.368,15.028-4.274,17.607-3.4,1.887-11.6-3.081-14.212,0-2.376,2.8,4.491,10.16,2.98,13.8-2.156,5.194-16.484,0-22.515,0-6.664,0-12.118,2.631-16.062-3.7-1.635-2.625,1.987-7.814,0-10.093C11.5,52.847,1.8,52.874-.723,51.108c-3.77-2.638,0-7.034,0-13.377,0-7.043,9.082-8.936,14.392-14.72,2.183-2.378-2.193-9.562,0-12.061C20.951,2.653,33.515,0,33.515,0Z" transform="translate(2.398 0)" fill="#1e893b"/>
      </g>
      <path id="Trazado_198435" data-name="Trazado 198435" d="M0,0H13.276V99.661H0Z" transform="translate(2287.1 -1346.768)" fill="#6e1d1d"/>
      <path id="Trazado_198179-2" data-name="Trazado 198179" d="M33.515,0s7.119,1.468,15.751,10.95c.717.788-.94,7.559,0,8.54,5.479,5.72,18.486,10.822,18.486,18.24,0,5.518.368,15.028-4.274,17.607-3.4,1.887-11.6-3.081-14.212,0-2.376,2.8,4.491,10.16,2.98,13.8-2.156,5.194-16.484,0-22.515,0-6.664,0-12.118,2.631-16.062-3.7-1.635-2.625,1.987-7.814,0-10.093C11.5,52.847,1.8,52.874-.723,51.108c-3.77-2.638,0-7.034,0-13.377,0-7.043,9.082-8.936,14.392-14.72,2.183-2.378-2.193-9.562,0-12.061C20.951,2.653,33.515,0,33.515,0Z" transform="translate(2260.85 -1384.941)" fill="#1e893b"/>
      <path id="Trazado_198436" data-name="Trazado 198436" d="M0,0H11.712V62.885H0Z" transform="translate(2351.382 -1309.479)" fill="#6e1d1d"/>
      <path id="Trazado_198179-3" data-name="Trazado 198179" d="M33.515,0s7.119,1.468,15.751,10.95c.717.788-.94,7.559,0,8.54,5.479,5.72,18.486,10.822,18.486,18.24,0,5.518.368,15.028-4.274,17.607-3.4,1.887-11.6-3.081-14.212,0-2.376,2.8,4.491,10.16,2.98,13.8-2.156,5.194-16.484,0-22.515,0-6.664,0-12.118,2.631-16.062-3.7-1.635-2.625,1.987-7.814,0-10.093C11.5,52.847,1.8,52.874-.723,51.108c-3.77-2.638,0-7.034,0-13.377,0-7.043,9.082-8.936,14.392-14.72,2.183-2.378-2.193-9.562,0-12.061C20.951,2.653,33.515,0,33.515,0Z" transform="translate(2325.133 -1347.652)" fill="#1e893b"/>
      <path id="Trazado_198437" data-name="Trazado 198437" d="M0,0H13.276V140.443H0Z" transform="translate(2409.661 -1387.038)" fill="#6e1d1d"/>
      <path id="Trazado_198179-4" data-name="Trazado 198179" d="M33.515,0s7.119,1.468,15.751,10.95c.717.788-.94,7.559,0,8.54,5.479,5.72,18.486,10.822,18.486,18.24,0,5.518.368,15.028-4.274,17.607-3.4,1.887-11.6-3.081-14.212,0-2.376,2.8,4.491,10.16,2.98,13.8-2.156,5.194-16.484,0-22.515,0-6.664,0-12.118,2.631-16.062-3.7-1.635-2.625,1.987-7.814,0-10.093C11.5,52.847,1.8,52.874-.723,51.108c-3.77-2.638,0-7.034,0-13.377,0-7.043,9.082-8.936,14.392-14.72,2.183-2.378-2.193-9.562,0-12.061C20.951,2.653,33.515,0,33.515,0Z" transform="translate(2383.412 -1425.21)" fill="#1e893b"/>
      <path id="Trazado_198438" data-name="Trazado 198438" d="M0,0H13.276V118.084H0Z" transform="translate(2531.524 -1364.678)" fill="#6e1d1d"/>
      <path id="Trazado_198179-5" data-name="Trazado 198179" d="M33.515,0s7.119,1.468,15.751,10.95c.717.788-.94,7.559,0,8.54,5.479,5.72,18.486,10.822,18.486,18.24,0,5.518.368,15.028-4.274,17.607-3.4,1.887-11.6-3.081-14.212,0-2.376,2.8,4.491,10.16,2.98,13.8-2.156,5.194-16.484,0-22.515,0-6.664,0-12.118,2.631-16.062-3.7-1.635-2.625,1.987-7.814,0-10.093C11.5,52.847,1.8,52.874-.723,51.108c-3.77-2.638,0-7.034,0-13.377,0-7.043,9.082-8.936,14.392-14.72,2.183-2.378-2.193-9.562,0-12.061C20.951,2.653,33.515,0,33.515,0Z" transform="translate(2505.274 -1402.852)" fill="#1e893b"/>
      <path id="Trazado_198439" data-name="Trazado 198439" d="M0,0H13.276V183.065H0Z" transform="translate(2461.366 -1429.659)" fill="#6e1d1d"/>
      <path id="Trazado_198179-6" data-name="Trazado 198179" d="M33.515,0s7.119,1.308,15.751,9.751c.717.7-.94,6.731,0,7.605C54.746,22.45,67.752,26.994,67.752,33.6c0,4.914.368,13.383-4.274,15.679-3.4,1.681-11.6-2.744-14.212,0-2.376,2.494,4.491,9.047,2.98,12.286-2.156,4.625-16.484,0-22.515,0-6.664,0-12.118,2.343-16.062-3.3-1.635-2.337,1.987-6.959,0-8.988C11.5,47.061,1.8,47.085-.723,45.512c-3.77-2.349,0-6.264,0-11.912,0-6.272,9.082-7.957,14.392-13.108,2.183-2.118-2.193-8.515,0-10.741C20.951,2.362,33.515,0,33.515,0Z" transform="translate(2435.117 -1460.01)" fill="#1e893b"/>
    </g>
    <rect id="Rectángulo_47356" data-name="Rectángulo 47356" width="752" height="517" transform="translate(2582 -814)" fill="none"/>
  </g>
</svg>
