<?xml version="1.0" encoding="UTF-8" standalone="no"?><!DOCTYPE svg PUBLIC "-//W3C//DTD SVG 1.1//EN" "http://www.w3.org/Graphics/SVG/1.1/DTD/svg11.dtd"><svg width="100%" height="100%" viewBox="0 0 125 125" version="1.1" xmlns="http://www.w3.org/2000/svg" xmlns:xlink="http://www.w3.org/1999/xlink" xml:space="preserve" xmlns:serif="http://www.serif.com/" style="fill-rule:evenodd;clip-rule:evenodd;stroke-linejoin:round;stroke-miterlimit:2;"><circle cx="62.5" cy="62.5" r="62.5" style="fill:#ff5f65;fill-opacity:0;"/><path d="M58.75,87.5c0,1.25 -0.833,2.5 -2.083,2.917c-0.417,0.416 -0.834,0.416 -1.25,0.416c-0.834,0 -1.667,-0.416 -2.084,-0.833l-17.916,-15.417l-9.584,0c-1.666,0 -3.333,-1.666 -3.333,-3.333l0,-13.75c0,-1.667 1.25,-3.333 3.333,-3.333l9.584,-0l17.916,-15.417c0.834,-0.833 2.5,-0.833 3.334,-0.417c1.25,0.417 2.083,1.667 2.083,2.917l0,46.25Zm12.5,-5.417c-1.25,0 -2.083,-0.416 -2.5,-0.833l-0.417,-0.417c-1.25,-1.25 -1.25,-2.916 -0.416,-4.583c5,-7.5 5,-17.083 -0.417,-24.167c-1.25,-1.25 -0.833,-3.333 0.417,-4.583l0.416,-0.417c0.834,-0.833 1.667,-1.25 2.5,-0.833c0.834,-0 1.667,0.417 2.5,1.25c7.5,10 7.917,23.333 0.834,33.75c-1.25,0.417 -2.084,0.833 -2.917,0.833Zm13.333,10.417c-0.416,0.833 -1.25,1.25 -2.5,1.25c-0.833,0 -1.666,-0.417 -2.5,-0.833l-0.416,-0.417c-1.25,-1.25 -1.25,-3.333 -0,-4.583c11.25,-13.75 10.833,-33.75 -0.417,-47.5c-1.25,-1.25 -1.25,-3.334 -0,-4.584l0.417,-0.833c0.416,-0.833 1.666,-0.833 2.5,-0.833c0.833,-0 1.666,0.416 2.5,1.25c13.75,16.25 13.75,40.416 0.416,57.083Z" style="fill:#fff;fill-rule:nonzero;"/></svg>