<?xml version="1.0" encoding="utf-8"?>
<!-- Generator: Adobe Illustrator 25.2.3, SVG Export Plug-In . SVG Version: 6.00 Build 0)  -->
<svg version="1.0" id="Layer_1" xmlns="http://www.w3.org/2000/svg" xmlns:xlink="http://www.w3.org/1999/xlink" x="0px" y="0px"
	 viewBox="0 0 100 100" style="enable-background:new 0 0 100 100;" xml:space="preserve">
<style type="text/css">
	.st0{fill:#FFFFFF;}
</style>
<g>
	<polygon class="st0" points="27.7,55.8 39.1,55.8 33.4,38.8 	"/>
	<path class="st0" d="M80,0H20C9,0,0,9,0,20v60c0,11,9,20,20,20h60c11,0,20-9,20-20V20C100,9,91,0,80,0z M44.8,72.8l-3.2-9.4H25.2
		l-3.1,9.4h-10L29,27.2h8.7l17,45.5H44.8z M87.9,55.4H76.6v12.8H68V55.4H56.7v-8.2H68V35.1h8.6v12.2h11.3V55.4z"/>
</g>
</svg>
