<?xml version="1.0" encoding="utf-8"?>
<!-- Generator: Adobe Illustrator 25.2.3, SVG Export Plug-In . SVG Version: 6.00 Build 0)  -->
<svg version="1.1" id="Layer_1" xmlns="http://www.w3.org/2000/svg" xmlns:xlink="http://www.w3.org/1999/xlink" x="0px" y="0px"
	 viewBox="0 0 260 220" style="enable-background:new 0 0 260 220;" xml:space="preserve">
<style type="text/css">
	.st0{fill:#477B9E;}
	.st1{fill-rule:evenodd;clip-rule:evenodd;fill:#EBD2FF;}
	.st2{fill-rule:evenodd;clip-rule:evenodd;fill:#A5CDFF;}
	.st3{fill-rule:evenodd;clip-rule:evenodd;fill:#CCF49F;}
	.st4{fill-rule:evenodd;clip-rule:evenodd;fill:#477B9E;}
	.st5{fill-rule:evenodd;clip-rule:evenodd;fill:#365E7D;}
	.st6{fill-rule:evenodd;clip-rule:evenodd;fill:#ECF4FF;}
	.st7{fill-rule:evenodd;clip-rule:evenodd;fill:#294B64;}
	.st8{fill:#FF6978;}
	.st9{fill-rule:evenodd;clip-rule:evenodd;fill:#FFCBBE;}
	.st10{fill-rule:evenodd;clip-rule:evenodd;fill:#D09080;}
	.st11{fill-rule:evenodd;clip-rule:evenodd;fill:#FFE5A0;}
	.st12{fill-rule:evenodd;clip-rule:evenodd;fill:#D7BEF0;}
	.st13{fill-rule:evenodd;clip-rule:evenodd;fill:#B3E59F;}
	.st14{fill-rule:evenodd;clip-rule:evenodd;fill:#8ABFFF;}
	.st15{fill-rule:evenodd;clip-rule:evenodd;fill:#F7BEAF;}
	.st16{fill-rule:evenodd;clip-rule:evenodd;fill:#F2CE7E;}
	.st17{fill-rule:evenodd;clip-rule:evenodd;fill:#BE694F;}
	.st18{fill-rule:evenodd;clip-rule:evenodd;fill:#DDEAFB;}
</style>
<g transform="translate(-15411 -5349)">
	<path class="st0" d="M15541,5404.1c33.6,0,60.8,27.2,60.8,60.8c0,33.6-27.2,60.8-60.8,60.8c-33.6,0-60.8-27.2-60.8-60.8
		c0-16.1,6.4-31.6,17.8-43C15509.4,5410.5,15524.9,5404.1,15541,5404.1z M15580.9,5425c-22-22-57.7-22-79.7,0c-22,22-22,57.7,0,79.7
		s57.7,22,79.7,0c10.6-10.6,16.5-24.9,16.5-39.9C15597.4,5450,15591.5,5435.6,15580.9,5425z"/>
	<path class="st1" d="M15466,5479.9c0-6.1,9-11.1,20.1-11.1s20.1,5,20.1,11.1v7.3c-0.2,1.9-1.7,3.3-3.5,3.6h-33.1
		c-1.9-0.2-3.3-1.7-3.5-3.6L15466,5479.9z"/>
	<path class="st2" d="M15575.8,5479.9c0-6.1,9-11.1,20.1-11.1s20.1,5,20.1,11.1v7.3c-0.2,1.9-1.7,3.3-3.5,3.6h-33.1
		c-1.9-0.2-3.3-1.7-3.5-3.6V5479.9L15575.8,5479.9z"/>
	<path class="st3" d="M15520.9,5521.6c0-6.1,9-11.1,20.1-11.1s20.1,5,20.1,11.1v7.3c-0.2,1.9-1.7,3.3-3.5,3.6h-33.1
		c-1.9-0.2-3.3-1.7-3.5-3.6V5521.6z"/>
	<path class="st4" d="M15555.1,5454.8v10.2c0,4.7-3.9,8.6-8.6,8.6h-11.1c-4.7,0-8.6-3.9-8.6-8.6v-10.2l13.7-4L15555.1,5454.8z"/>
	<path class="st5" d="M15555.2,5454.8v10.2c0,4.7-3.9,8.6-8.6,8.6h-7.3c4.7,0,8.6-3.9,8.6-8.6v-10.2l-10.8-3l3.5-1L15555.2,5454.8z"
		/>
	<path class="st6" d="M15541,5454.2h-14.1c0-15.2-14.8-21.1-14.8-39.2c0-16,13-29,29-29s29,13,29,29c0,18.1-14.8,24.1-14.8,39.2
		H15541z"/>
	<path class="st7" d="M15555.1,5461.7v3.3c0,0.3,0,0.7-0.1,1h-28.2c0-0.3-0.1-0.7-0.1-1v-3.3H15555.1z"/>
	<path class="st8" d="M15538.8,5440.5c0-1.2,1-2.2,2.2-2.2s2.2,1,2.2,2.2v2.3c0,1.2-1,2.2-2.2,2.2s-2.2-1-2.2-2.2V5440.5z"/>
	<path class="st8" d="M15538.9,5432.1c-0.4-1.4-1-3.2-1.7-5.3c-2-5.8-4.7-13.4-4.7-19.6c0-5.6,2.1-9.6,8.5-9.6s8.6,4,8.6,9.6
		c0,5.9-2.7,13.7-4.7,19.6c-0.7,2.1-1.4,4-1.7,5.3c-0.3,1.2-1.5,1.8-2.7,1.5C15539.7,5433.4,15539.1,5432.8,15538.9,5432.1
		L15538.9,5432.1z"/>
	<g transform="translate(8.085 0)">
		<path class="st9" d="M15599.8,5462.9c0.2,6.6-5.1,12.1-11.7,12.3c-6.6,0.2-12.1-5.1-12.3-11.7c0-0.2,0-0.4,0-0.6v-12.9
			c0-3.7,3-6.7,6.7-6.7h10.6c3.7,0,6.7,3,6.7,6.7L15599.8,5462.9z"/>
		<path class="st9" d="M15490,5462.9c0.2,6.6-5.1,12.1-11.7,12.3c-6.6,0.2-12.1-5.1-12.3-11.7c0-0.2,0-0.4,0-0.6v-12.9
			c0-3.7,3-6.7,6.7-6.7h15.5c0.9-0.1,1.7,0.5,1.8,1.4c0,0.1,0,0.3,0,0.4C15490,5451.1,15490,5457,15490,5462.9z"/>
		<path class="st10" d="M15575.8,5450v7.9l8.2-4c1-0.5,2.2-0.6,3.3-0.2l12.5,4.2v-7.9c0-3.7-3-6.7-6.7-6.7h-10.6
			C15578.8,5443.3,15575.8,5446.3,15575.8,5450L15575.8,5450z"/>
		<path class="st11" d="M15466,5450v3.9h24v-8.8c0.1-0.9-0.5-1.7-1.4-1.8c-0.1,0-0.3,0-0.4,0h-15.5
			C15469,5443.3,15466,5446.3,15466,5450z"/>
		<path class="st9" d="M15544.9,5504.9c0.1,6.6-5.1,12.1-11.7,12.3s-12.1-5.1-12.3-11.7c0-0.2,0-0.4,0-0.5V5492c0-3.7,3-6.7,6.7-6.7
			h10.6c3.7,0,6.7,3,6.7,6.7L15544.9,5504.9z"/>
		<path class="st10" d="M15520.9,5491.7v4.7c2.6,1,5.5,0.7,7.8-0.7c1.3-0.7,1.5-0.9,2.7,0.2c5.8,5,13.4,2.2,13.4,2.2v-6.4
			c0-3.7-3-6.7-6.7-6.7h-10.6C15523.9,5485,15520.9,5488,15520.9,5491.7z"/>
		<path class="st12" d="M15485.6,5472.4c3.2,2,5.2,4.6,5.2,7.5v7.3c-0.2,1.9-1.7,3.3-3.5,3.6h7.3c1.9-0.2,3.3-1.7,3.5-3.6v-7.3
			c0-4.2-4.2-7.8-10.4-9.7C15487.1,5471,15486.4,5471.8,15485.6,5472.4z"/>
		<path class="st13" d="M15540.6,5514.2c3.2,2,5.2,4.6,5.2,7.5v7.3c-0.2,1.9-1.7,3.3-3.5,3.6h7.3c1.9-0.2,3.3-1.7,3.5-3.6v-7.3
			c0-4.2-4.2-7.8-10.4-9.7C15542.1,5512.7,15541.4,5513.5,15540.6,5514.2L15540.6,5514.2z"/>
		<path class="st14" d="M15595.4,5472.4c3.2,2,5.2,4.6,5.2,7.5v7.3c-0.2,1.9-1.7,3.3-3.5,3.6h7.3c1.9-0.2,3.3-1.7,3.5-3.6v-7.3
			c0-4.2-4.2-7.8-10.4-9.7C15596.9,5471,15596.2,5471.8,15595.4,5472.4z"/>
		<path class="st15" d="M15482.7,5454v9c0,2-0.5,4-1.5,5.8c-1,1.8-2.4,3.3-4.2,4.4c-0.8,0.5-1.8,0.9-2.7,1.3c1,0.3,2,0.5,3,0.6
			c0.2,0,0.4,0,0.6,0c6.6,0,12-5.4,12-12v-9L15482.7,5454L15482.7,5454z"/>
		<path class="st16" d="M15482.7,5445.1v8.8h7.3v-8.8c0.1-0.9-0.5-1.7-1.4-1.8c-0.1,0-0.3,0-0.4,0h-7.3c0.9-0.1,1.7,0.5,1.8,1.4
			C15482.7,5444.8,15482.7,5444.9,15482.7,5445.1z"/>
		<path class="st15" d="M15537.7,5504.9c0,2-0.5,4-1.5,5.8c-1.5,2.7-4,4.7-6.9,5.7c1.2,0.4,2.4,0.6,3.6,0.6c2.8,0,5.5-1,7.6-2.7
			c0.8-0.7,1.5-1.4,2.1-2.3c1.5-2,2.3-4.5,2.3-7v-6.4c-2.3,0.7-4.8,1-7.3,0.6V5504.9z"/>
		<path class="st17" d="M15537.7,5491.7v7c2.4,0.4,4.9,0.1,7.3-0.6v-6.4c0-3.7-3-6.7-6.7-6.7h-7.3
			C15534.7,5485,15537.6,5488,15537.7,5491.7z"/>
		<path class="st15" d="M15592.6,5455.6v7.4c0,5.2-3.4,9.8-8.4,11.4c1.2,0.4,2.4,0.6,3.6,0.6c0.2,0,0.4,0,0.6,0
			c6.4-0.4,11.3-5.6,11.4-12v-5l-6.8-2.3L15592.6,5455.6z"/>
		<path class="st17" d="M15590.4,5445.1c1.4,1.3,2.2,3.1,2.2,4.9v5.4l0.5,0.2l6.8,2.3v-7.9c0-3.7-3-6.7-6.7-6.7h-7.3
			C15587.5,5443.3,15589.2,5443.9,15590.4,5445.1L15590.4,5445.1z"/>
		<path class="st18" d="M15553.8,5407.8c0.6,2.3,0.9,4.7,0.9,7.1c0,17.3-13.5,23.5-14.7,37.2c-0.1,0.6-0.1,1.3-0.1,2h7.3
			c0-14.8,14.8-21.8,14.8-39.2c0-16-13-29-29-29c0,0,0,0,0,0c-1.2,0-2.4,0.1-3.6,0.2C15541.2,5387.7,15550.9,5396.3,15553.8,5407.8
			L15553.8,5407.8z"/>
	</g>
</g>
</svg>
