<?xml version="1.0" encoding="utf-8"?>
<!-- Generator: Adobe Illustrator 25.2.3, SVG Export Plug-In . SVG Version: 6.00 Build 0)  -->
<svg version="1.1" id="Layer_1" xmlns="http://www.w3.org/2000/svg" xmlns:xlink="http://www.w3.org/1999/xlink" x="0px" y="0px"
	 viewBox="0 0 260 220" style="enable-background:new 0 0 260 220;" xml:space="preserve">
<style type="text/css">
	.st0{fill:#FFCBBE;}
	.st1{fill:#365E7D;}
	.st2{fill:#F0B6A6;}
	.st3{fill:#D09080;}
	.st4{fill:#A5CDFF;}
	.st5{fill:#ECF4FF;}
	.st6{opacity:5.000000e-02;enable-background:new    ;}
	.st7{fill:#ADE194;}
	.st8{fill:#F9F7F8;}
</style>
<g transform="translate(-15411 -5693)">
	<path class="st0" d="M15580,5839.4V5804h-10.1l-6.6-9.9c-8.5-12.8-22.9-20.5-38.3-20.5h-28.6l-23.2,23.2c-2.8,2.8-2.7,7.4,0.1,10.1
		c2.8,2.7,7.3,2.7,10,0l5.5-5.5l1.9,6.5c4.3,14.2,17.3,23.9,32.1,23.9h36.8L15580,5839.4z"/>
	<g transform="translate(0 104.257)">
		<path class="st1" d="M15521.7,5753.1h-53.2c-1.4,0-2.5-1.1-2.5-2.5s1.1-2.5,2.5-2.5h53.2c1.4,0,2.5,1.1,2.5,2.5
			S15523.1,5753.1,15521.7,5753.1L15521.7,5753.1L15521.7,5753.1z"/>
		<path class="st1" d="M15534.4,5753.1h-2.5c-1.4,0-2.5-1.1-2.5-2.5s1.1-2.5,2.5-2.5h2.5c1.4,0,2.5,1.1,2.5,2.5
			S15535.8,5753.1,15534.4,5753.1z"/>
	</g>
	<path class="st2" d="M15541.7,5797.3c-4.5-5.4-11.2-8.6-18.3-8.6h-21.8l-12.7,12.7l1.9,6.5c4.3,14.2,17.3,23.9,32.1,23.9h24.2
		v-19.2C15547.2,5807,15545.2,5801.6,15541.7,5797.3z"/>
	<path class="st3" d="M15555.1,5750.1l-79,79.3l-5.1,15.3l15.2-5.1l79-79.3c2.8-2.8,2.8-7.3,0-10.2
		C15562.4,5747.3,15557.9,5747.3,15555.1,5750.1L15555.1,5750.1L15555.1,5750.1z"/>
	<path class="st4" d="M15481.2,5824c5.6,0,10.1,4.5,10.1,10.1l0,0l60.8-60.8l-10.1-10.1L15481.2,5824z"/>
	<path class="st5" d="M15542.3,5763.2l7.6-7.6l10.1,10.1l-7.6,7.6L15542.3,5763.2z"/>
	<path class="st6" d="M15566,5751c-0.2,1.6-0.9,3-2,4.2l-79,79.3l-11.9,4l-2.1,6.2l15.2-5.1l79-79.3
		C15567.7,5757.8,15568,5753.9,15566,5751L15566,5751z"/>
	<path class="st0" d="M15582.8,5839.5V5804h-27.9l-10.1-2.5h-24.7c-4.2,0-7.6,3.4-7.6,7.6s3.4,7.6,7.6,7.6c0,0,0,0,0,0h17.1l4.3,7.6
		l2.6,4.6c3.7,6.5,10.7,10.6,18.3,10.6H15582.8z"/>
	<path class="st7" d="M15580.5,5794h35.5v50.7h-35.5V5794z"/>
	<path class="st8" d="M15598.3,5837c-2.8,0-5.1-2.3-5.1-5.1c0-2.8,2.3-5.1,5.1-5.1c2.8,0,5.1,2.3,5.1,5.1
		C15603.3,5834.7,15601.1,5837,15598.3,5837C15598.3,5837,15598.3,5837,15598.3,5837z"/>
</g>
</svg>
