<?xml version="1.0" encoding="utf-8"?>
<!-- Generator: Adobe Illustrator 25.2.3, SVG Export Plug-In . SVG Version: 6.00 Build 0)  -->
<svg version="1.0" id="Layer_1" xmlns="http://www.w3.org/2000/svg" xmlns:xlink="http://www.w3.org/1999/xlink" x="0px" y="0px"
	 viewBox="0 0 100 100" style="enable-background:new 0 0 100 100;" xml:space="preserve">
<style type="text/css">
	.st0{fill:#ECF2F8;}
	.st1{fill:#162668;}
</style>
<g>
	<circle class="st0" cx="50" cy="50" r="50"/>
	<g>
		<path class="st1" d="M76.7,26.2H23.3c-2.1,0-3.9,1.7-3.9,3.9v39.8c0,2.1,1.7,3.9,3.9,3.9h53.4c2.1,0,3.9-1.7,3.9-3.9V30.1
			C80.6,27.9,78.9,26.2,76.7,26.2z M76.7,30.1v28.3l-7.7-7c-1.2-1-2.9-1-4,0.1l-7.7,7.7L42,41c-1.2-1.4-3.3-1.4-4.4,0L23.3,57.5
			V30.1H76.7z M60.2,40.3c0-3,2.4-5.3,5.3-5.3c3,0,5.3,2.4,5.3,5.3c0,3-2.4,5.3-5.3,5.3C62.6,45.6,60.2,43.2,60.2,40.3z"/>
	</g>
</g>
</svg>
