<?xml version="1.0" encoding="utf-8"?>
<!-- Generator: Adobe Illustrator 25.2.3, SVG Export Plug-In . SVG Version: 6.00 Build 0)  -->
<svg version="1.0" id="Layer_1" xmlns="http://www.w3.org/2000/svg" xmlns:xlink="http://www.w3.org/1999/xlink" x="0px" y="0px"
	 viewBox="0 0 100 100" style="enable-background:new 0 0 100 100;" xml:space="preserve">
<style type="text/css">
	.st0{fill:#ECF2F8;}
	.st1{fill:#162668;}
</style>
<g>
	<circle class="st0" cx="50" cy="50" r="50"/>
	<g>
		<path class="st1" d="M49.9,17.2c9.2,0,17,3.2,23.4,9.6c3.1,3.1,5.4,6.6,7,10.6c1.6,4,2.4,8.2,2.4,12.6c0,4.5-0.8,8.7-2.4,12.6
			c-1.6,3.9-3.9,7.4-7,10.4c-3.2,3.2-6.8,5.6-10.9,7.3c-4.1,1.7-8.3,2.5-12.6,2.5c-4.3,0-8.5-0.8-12.5-2.5c-4-1.7-7.5-4.1-10.7-7.2
			c-3.1-3.1-5.5-6.7-7.2-10.6c-1.6-3.9-2.5-8.1-2.5-12.5c0-4.3,0.8-8.5,2.5-12.5c1.7-4,4.1-7.6,7.2-10.8
			C33.2,20.4,40.8,17.2,49.9,17.2L49.9,17.2z M50.1,23.1c-7.5,0-13.8,2.6-18.9,7.9c-2.6,2.6-4.6,5.6-5.9,8.8
			c-1.4,3.3-2.1,6.7-2.1,10.2c0,3.5,0.7,6.9,2.1,10.2c1.4,3.3,3.4,6.2,5.9,8.7c2.6,2.6,5.5,4.5,8.7,5.9c3.2,1.3,6.6,2,10.2,2
			c3.5,0,6.9-0.7,10.2-2.1c3.3-1.4,6.3-3.3,8.9-5.9c5.1-5,7.7-11.3,7.7-18.8c0-3.6-0.7-7.1-2-10.3c-1.3-3.2-3.3-6.1-5.8-8.7
			C63.8,25.7,57.5,23.1,50.1,23.1L50.1,23.1z M49.6,44.5l-4.4,2.3c-0.5-1-1-1.7-1.7-2.1c-0.7-0.4-1.3-0.6-1.9-0.6
			c-2.9,0-4.4,1.9-4.4,5.8c0,1.8,0.4,3.2,1.1,4.2c0.7,1.1,1.8,1.6,3.3,1.6c1.9,0,3.3-0.9,4-2.8l4,2.1c-0.9,1.6-2.1,2.9-3.6,3.8
			c-1.5,0.9-3.2,1.4-5,1.4c-2.9,0-5.3-0.9-7.1-2.7c-1.8-1.8-2.7-4.3-2.7-7.5c0-3.1,0.9-5.6,2.7-7.4c1.8-1.8,4.1-2.8,6.9-2.8
			C45,39.8,47.9,41.4,49.6,44.5L49.6,44.5z M68.6,44.5l-4.3,2.3c-0.5-1-1-1.7-1.7-2.1c-0.7-0.4-1.3-0.6-2-0.6
			c-2.9,0-4.4,1.9-4.4,5.8c0,1.8,0.4,3.2,1.1,4.2c0.7,1.1,1.8,1.6,3.3,1.6c1.9,0,3.3-0.9,4-2.8l4.1,2.1c-0.9,1.6-2.1,2.9-3.6,3.8
			c-1.5,0.9-3.2,1.4-5,1.4c-3,0-5.3-0.9-7.1-2.7c-1.8-1.8-2.7-4.3-2.7-7.5c0-3.1,0.9-5.6,2.7-7.4c1.8-1.8,4.1-2.8,6.9-2.8
			C64,39.8,66.9,41.4,68.6,44.5L68.6,44.5z"/>
	</g>
</g>
</svg>
