<?xml version="1.0" encoding="utf-8"?>
<!-- Generator: Adobe Illustrator 26.2.1, SVG Export Plug-In . SVG Version: 6.00 Build 0)  -->
<svg version="1.1" id="Layer_1" xmlns="http://www.w3.org/2000/svg" xmlns:xlink="http://www.w3.org/1999/xlink" x="0px" y="0px"
	 viewBox="0 0 635 635" style="enable-background:new 0 0 635 635;" xml:space="preserve">
<style type="text/css">
	.st0{fill:#FEFEFE;}
	.st1{fill:#EFBB5E;}
	.st2{fill:#010101;}
	.st3{fill:#010000;}
	.st4{fill:#010100;}
	.st5{fill:#EFBB5D;}
	.st6{fill:#030302;}
	.st7{fill:#020101;}
	.st8{fill:#030303;}
	.st9{fill:#020202;}
</style>
<g>
	<path d="M597.5,168.1c0,111.8,0,223.6,0,335.5c-0.3,12.8-6.1,22.8-15.8,30.8c-8.2,6.7-17.5,10.2-28.1,10.2c-32.5,0-65.1,0-97.6,0
		c-9.8,0-9.8,0-9.8,10c0,5.6,0.1,11.3,0,16.9c-0.1,4.2,1.6,5.9,5.8,5.8c7.3-0.1,14.5-0.2,21.8,0c6.7,0.2,8.4,1.8,8.4,8.6
		c0,3.9,1.1,8-1.6,11.6c-108.5,0-217.1,0-325.6,0c-2.9-5.1-1.9-10.6-1-16c0.5-3.5,3.8-4.1,6.8-4.2c7.1-0.2,14.2,0,21.3-0.1
		c7-0.1,7.3-0.4,7.3-7.5c0-6,0.1-12,0-18c-0.1-6.7-0.5-7.2-7.1-7.2c-31.3,0-62.6,0-94,0c-4.7,0-9.5,0.4-14.2-0.6
		c-16.4-3.5-27.6-13.4-34.2-28.5c-2.3-5.1-2.2-10.7-2.2-16.1c-0.1-109.1-0.1-218.2,0-327.2c0-25.8,19.6-45,45.5-45
		c18,0,36.1,0,54.1,0c6.9,0,7.1-0.1,7.5-6.9c0.3-4.5,2.2-8,5.2-11.1c22.6-22.7,45.3-45.3,68-68c3-3,6.4-3.7,10.4-3.7
		c85.2,0.1,170.4,0,255.7,0.1c6.7,0,7.1,0.3,7.1,7.1c0.1,19.5,0,39,0,58.5c0,6,0.2,12,0,18c-0.2,4.5,1.8,6.1,6.2,6
		c18.4-0.1,36.8,0,55.2,0c20,0,33.6,9.9,42.5,27.2C597.1,158.7,596.4,163.5,597.5,168.1z"/>
	<path class="st0" d="M471.1,263.8c0,67.2-0.1,134.4,0.1,201.6c0,4.9-1.3,5.9-6,5.8c-98.3-0.1-196.7-0.2-295,0
		c-4.9,0-5.9-1.2-5.9-5.9c0.1-110.3,0.1-220.7,0-331c0-4.7,0.9-6.1,5.9-6c20.4,0.3,40.8,0,61.2,0.2c4.4,0.1,5.4-1.3,5.4-5.5
		c-0.2-20.6,0-41.2-0.2-61.7c0-3.8,0.6-5.2,4.9-5.2c74.8,0.2,149.7,0.2,224.5,0c4.7,0,5.1,1.8,5.1,5.6
		C471,129,471.1,196.4,471.1,263.8z"/>
	<path class="st1" d="M146.1,164.6c0.1,1.8,0.2,3.6,0.2,5.4c0,98.3,0,196.6,0.1,295c0,5-1.2,6.3-6.2,6.2c-22-0.4-44-0.3-66.1-0.4
		c-2.4-3-1.8-6.6-1.8-10c0-79.1,0-158.2,0-237.3c0-12.7-0.1-25.5,0-38.2c0.1-14.7,7.7-22.2,22.2-22.3c14.5,0,29.1,0,43.6,0
		C140.9,163.1,143.7,162.7,146.1,164.6z"/>
	<path class="st1" d="M561.4,470.8c-22.9,0.1-45.9,0.1-68.8,0.3c-2.6,0-3.7-0.8-3.4-3.4c0.1-0.7,0-1.5,0-2.2c0-98.7,0-197.4,0-296
		c0-1.6,0.1-3.3,0.2-4.9c2-1.7,4.4-1.5,6.8-1.5c15.5-0.1,30.9-0.1,46.4,0c12.2,0.1,20,7.9,20.5,20.1c0.1,1.8,0.1,3.6,0.1,5.5
		c0,90.6,0,181.1,0,271.7C563.2,463.8,564,467.6,561.4,470.8z"/>
	<path class="st0" d="M318,489.3c85.2,0,170.4,0,255.6-0.1c4.8,0,6,1.2,5.9,5.9c-0.4,19.5-11,30.3-30.7,30.3c-154,0-308.1,0-462.1,0
		c-20.5,0-31.9-12.4-30.7-33c0.1-2.2,0.5-3.4,3-3.1c1.3,0.1,2.5,0,3.8,0C148,489.3,233,489.3,318,489.3z"/>
	<path class="st0" d="M317.8,579.4c-34.4,0-68.8-0.1-103.2,0.1c-4,0-5.3-0.7-5.1-5c0.4-9.1,0.2-18.2,0-27.3c-0.1-3.1,0.8-4,4-4
		c69.6,0.1,139.1,0.1,208.7,0c3.1,0,4.1,0.8,4,3.9c-0.2,9.3-0.3,18.6,0,27.9c0.1,3.6-1,4.5-4.5,4.5
		C387,579.4,352.4,579.4,317.8,579.4z"/>
	<path class="st0" d="M146.1,164.6c-17.3,0-34.6,0-51.8,0c-13.2,0-20.1,7-20.1,20.3c0,95.3,0,190.6,0,285.9
		c-5.8,0.4-13,2.4-16.9-0.6c-3.5-2.7-1-10.2-1-15.6c-0.1-92.2,0-184.5-0.1-276.7c0-7,0.6-13.8,4.8-19.7c5.5-7.6,13-11.7,22.3-11.7
		c19.8-0.2,39.7,0,59.5-0.1c2.9,0,3.8,0.7,3.6,3.6C146.1,154.8,146.1,159.7,146.1,164.6z"/>
	<path class="st0" d="M561.4,470.8c0-94.8,0-189.5,0-284.3c0-1.6,0-3.3-0.1-4.9c-0.6-9.5-7.8-16.8-17.3-16.9
		c-18.2-0.2-36.4-0.1-54.6-0.1c-0.1-5.1,0-10.2-0.3-15.3c-0.1-2.4,0.7-3.1,3.1-3.1c20.4,0.1,40.8-0.3,61.1,0.3
		c14.4,0.4,24.6,11,25.7,25.4c0.2,2,0.2,4,0.2,6c0,95.7,0,191.4,0.1,287.1c0,4.8-0.9,6.9-6.1,6.2
		C569.5,470.7,565.4,470.9,561.4,470.8z"/>
	<path class="st0" d="M178.4,110.2c13.4-13.5,26.5-26.7,40.1-40.3c0,12.8,0,25.4,0,38c0,1.1,0,2.3-1.6,2.3
		C204,110.2,191.1,110.2,178.4,110.2z"/>
	<path d="M453.2,318.4c0,43.1-0.1,86.3,0.1,129.4c0,4.7-1.3,5.5-5.7,5.5c-86.6-0.1-173.3-0.1-259.9,0c-4.2,0-5.4-0.9-5.4-5.3
		c0.1-86.8,0.1-173.6,0-260.5c0-4.5,1.3-5.3,5.4-5.2c86.6,0.1,173.3,0.1,259.9,0c4.5,0,5.7,1,5.7,5.6
		C453.1,231.3,453.2,274.9,453.2,318.4z"/>
	<path class="st1" d="M317.9,146.3c0-6,0-11.9,0-17.9c2.4-1.8,5.2-1.4,7.9-1.4c15.4-0.1,30.8,0,46.3-0.1c2.4,0,5.6,0.8,6.6-2.3
		c1.2-3.6,1.4-7.7-0.2-11.2c-1-2.2-3.9-1.6-6-1.6c-15.6-0.1-31.2,0-46.8-0.1c-2.7,0-5.5,0.4-7.8-1.6c0-6,0-11.9,0-17.9
		c2.2-1.7,4.8-1.4,7.3-1.4c40.7,0,81.3,0,122,0c2,0,4-0.2,5.8,0.9c0,6.1,0,12.3-0.1,18.4c-2.3,2-5.1,1.6-7.8,1.6
		c-12.7,0.1-25.5,0-38.2,0.1c-6.1,0-6.6,0.7-6.7,7.1c0,7,0.6,7.9,6.5,8c12.7,0.2,25.5,0,38.2,0.1c2.7,0,5.5-0.4,7.9,1.3
		c0,6,0,12,0.1,18c-2.1,1.9-4.8,1.6-7.3,1.6c-40.2,0-80.4,0-120.6,0C322.7,148,320,148.3,317.9,146.3z"/>
	<path class="st2" d="M317.9,146.3c45,0,90.1,0,135.1,0c-0.1,5.8,2,13.2-0.8,17c-2.7,3.6-10.5,1.1-16.1,1.1
		c-37.7,0.1-75.3,0-113,0.2c-4.7,0-6-1.3-5.5-5.8C318.1,154.7,317.9,150.5,317.9,146.3z"/>
	<path class="st3" d="M453.1,91.9c-2.2,0.1-4.3,0.4-6.5,0.4c-42.9,0-85.8,0-128.7,0.1c-0.1-4.5,0.1-9.1-0.3-13.6
		c-0.4-4,1.1-4.7,4.8-4.7c31.1,0.2,62.2,0.1,93.3,0.1c11.1,0,22.2,0.1,33.3-0.1c3.3-0.1,4.5,0.7,4.2,4.2
		C452.9,82.8,453.2,87.3,453.1,91.9z"/>
	<path class="st4" d="M317.9,110.2c19.4,0,38.9,0.1,58.3-0.1c3.7,0,4.9,0.8,4.9,4.7c-0.1,13.5,0.1,13.5-13.6,13.5
		c-16.5,0-33.1,0-49.6,0C318,122.4,317.9,116.3,317.9,110.2z"/>
	<path class="st4" d="M453,128.4c-16.5,0-33.1-0.1-49.6,0.1c-3.6,0-4.6-1-4.6-4.6c-0.1-13.6-0.2-13.7,13.4-13.6
		c13.6,0,27.3,0,40.9,0.1C453,116.3,453,122.4,453,128.4z"/>
	<path class="st0" d="M272.8,344.5c0-28.4,0.1-56.8-0.1-85.2c0-3.7,0.8-4.9,4.7-4.9c51,0.1,101.9,0.1,152.9,0c3.9,0,4.8,1.1,4.8,4.9
		c-0.1,57-0.1,114,0,170.9c0,3.8-0.8,4.8-4.7,4.8c-51-0.1-101.9-0.1-152.9,0c-3.9,0-4.8-1-4.7-4.8
		C272.8,401.7,272.8,373.1,272.8,344.5z"/>
	<path class="st0" d="M200.6,345.2c0-28.6,0.1-57.1-0.1-85.7c0-4.2,1.2-5.1,5.2-5c14.9,0.2,29.8,0.2,44.8,0c3.4,0,4.2,1,4.2,4.3
		c-0.1,57.3-0.1,114.6,0,171.9c0,3.7-1.1,4.4-4.6,4.4c-14.9-0.2-29.8-0.2-44.8,0c-3.8,0.1-4.8-0.9-4.8-4.8
		C200.7,401.9,200.6,373.6,200.6,345.2z"/>
	<path class="st0" d="M353.9,200.6c25.3,0,50.6,0.1,75.9-0.1c3.8,0,5.4,0.5,5.2,4.9c-0.4,9.1-0.2,18.2-0.1,27.3c0.1,3.1-0.8,4-4,4
		c-51.5-0.1-103.1-0.1-154.6,0c-2.8,0-3.8-0.7-3.8-3.6c0.2-9.5,0.3-18.9-0.1-28.4c-0.2-4.2,1.8-4.2,4.8-4.2
		C303,200.6,328.5,200.6,353.9,200.6z"/>
	<path class="st0" d="M227.1,236.7c-7.6,0-15.3-0.1-22.9,0.1c-2.9,0.1-3.7-0.9-3.7-3.7c0.1-9.6,0.2-19.3,0-28.9
		c-0.1-3,1-3.6,3.8-3.5c15.6,0.1,31.3,0.1,46.9,0c2.6,0,3.4,0.7,3.4,3.3c-0.1,9.8-0.1,19.6,0,29.5c0,2.6-0.8,3.4-3.4,3.4
		C243.1,236.6,235.1,236.7,227.1,236.7z"/>
	<path class="st5" d="M308.9,273c5.9,0,11.9,0,17.8,0c2.1,2.7,1.4,5.9,1.5,8.9c0.2,6.2,0.6,6.8,7,6.8c24.3,0.1,48.6,0,72.9,0.1
		c3,0,6.2-0.6,8.8,1.7c0,6.2,0,12.4,0,18.6c-2.1,2-4.7,1.8-7.2,1.8c-37.3,0-74.6,0-111.9,0c-2.5,0-5.2,0.3-7.2-1.7
		c0-6.2,0-12.4,0-18.6c3.2-2.5,7-1.4,10.5-1.6c5.7-0.3,6-0.5,6.2-6.4C307.5,279.3,306.7,275.9,308.9,273z"/>
	<path class="st1" d="M308.7,362.9c6,0,12.1,0,18.1,0c1.7,2.2,1.4,4.8,1.4,7.3c0.2,9.2,0.2,9.2,9.5,9.2c19.6,0,39.2,0,58.8,0
		c4.7,0,9.4-0.1,14.2,0c2.2,0,4.4-0.1,6.2,1.5c0,6,0,12,0,18c-2.2,1.7-4.8,1.4-7.3,1.5c-37.2,0-74.4,0-111.6,0
		c-2.5,0-5.1,0.3-7.3-1.4c0-6,0-12,0-18c3.6-2.4,7.7-1.3,11.5-1.3c3.6-0.1,5.1-1.4,5.2-5.1C307.5,370.6,306.5,366.6,308.7,362.9z"/>
	<path class="st4" d="M290.7,399c42.1,0,84.1,0,126.2,0c0.1,4.9-0.1,9.8,0.2,14.7c0.2,3.1-1.2,3.5-3.8,3.5
		c-39.6-0.1-79.3-0.1-118.9,0c-3.2,0-4.1-1-3.9-4C290.8,408.4,290.7,403.7,290.7,399z"/>
	<path d="M290.7,309.1c30.1-0.1,60.3-0.2,90.4-0.2c12,0,24,0.1,35.9,0.2c0,4.7-0.1,9.5,0.2,14.2c0.2,3.1-1.1,3.5-3.8,3.5
		c-39.7-0.1-79.3-0.1-119,0c-3.2,0-4-1.1-3.8-4.1C290.8,318.2,290.7,313.6,290.7,309.1z"/>
	<path class="st4" d="M417,381c-28.6,0-57.2,0-85.8,0.2c-3.6,0-4.8-0.9-4.6-4.6c0.3-4.5,0.2-9.1,0.2-13.6
		c28.9-0.1,57.7-0.1,86.6-0.2c2.7,0,3.9,0.6,3.8,3.6C416.9,371.2,417,376.1,417,381z"/>
	<path d="M417,290.5c-28.8,0.1-57.7,0.1-86.5,0.2c-3.2,0-4-1.1-3.9-4.1c0.2-4.5,0.1-9.1,0.1-13.6c23.7-0.1,47.3-0.2,71-0.3
		c5.3,0,10.6,0.1,15.8-0.1c2.8-0.1,3.9,0.7,3.7,3.6C416.9,281,417.1,285.7,417,290.5z"/>
	<path class="st6" d="M308.7,362.9c0,5.8,2.5,13.4-0.8,16.9c-3.6,3.8-11.3,1-17.2,1.1c-0.1-5,0-10.1-0.2-15.1
		c-0.1-2.3,0.7-3.2,3.1-3.1C298.6,362.9,303.7,362.8,308.7,362.9z"/>
	<path class="st7" d="M308.9,273c0,4.7-0.1,9.4,0.1,14c0.1,2.9-0.9,3.8-3.7,3.7c-4.8-0.2-9.7-0.2-14.5-0.2c0-4.7,0.1-9.4-0.2-14.1
		c-0.2-2.9,0.9-3.8,3.7-3.6C299.1,272.9,304,272.9,308.9,273z"/>
	<path class="st8" d="M227.5,381c-9.1,0-9.1,0-9.1-9c0-9.3,0-9.3,9.4-9.3c8.9,0,8.9,0,8.9,8.7c0,0.2,0,0.4,0,0.5
		C236.7,381,236.7,381,227.5,381z"/>
	<path class="st9" d="M227.8,272.8c8.9,0,8.9,0,8.9,8.7c0,9.2,0,9.2-8.9,9.2c-9.3,0-9.3,0-9.3-9.2
		C218.4,272.8,218.4,272.8,227.8,272.8z"/>
</g>
</svg>
