<?xml version="1.0" encoding="utf-8"?>
<!-- Generator: Adobe Illustrator 25.2.3, SVG Export Plug-In . SVG Version: 6.00 Build 0)  -->
<svg version="1.1" id="Layer_1" xmlns="http://www.w3.org/2000/svg" xmlns:xlink="http://www.w3.org/1999/xlink" x="0px" y="0px"
	 viewBox="0 0 260 220" style="enable-background:new 0 0 260 220;" xml:space="preserve">
<style type="text/css">
	.st0{fill-rule:evenodd;clip-rule:evenodd;fill:#FFCBBE;}
	.st1{fill-rule:evenodd;clip-rule:evenodd;fill:#CCF49F;}
	.st2{fill-rule:evenodd;clip-rule:evenodd;fill:#FF6978;}
	.st3{fill-rule:evenodd;clip-rule:evenodd;fill:#A5CDFF;}
	.st4{fill:#F0B6A6;}
	.st5{fill-rule:evenodd;clip-rule:evenodd;fill:#F0B6A6;}
	.st6{fill-rule:evenodd;clip-rule:evenodd;fill:#B3E59F;}
	.st7{fill-rule:evenodd;clip-rule:evenodd;fill:#E85A68;}
	.st8{fill-rule:evenodd;clip-rule:evenodd;fill:#8ABFFF;}
</style>
<g transform="translate(-15411 -6075)">
	<g transform="translate(0 0)">
		<path class="st0" d="M15501.3,6158.9c4.5,0,8.1,3.6,8.1,8.1c0,14.3,3.9,23.8,3.9,34.7c0,10.6-3.5,19.5-8.5,22.8v8.2l-13.5,5.9
			l-13.4-5.9c-3.3-15.2-12-21.4-12-45.7c0-25.4,10-46.1,22.3-46.1c1.7,0,3.4,0.4,4.9,1.1v24.9
			C15493.2,6162.5,15496.9,6158.9,15501.3,6158.9z"/>
		<path class="st1" d="M15484.3,6126.5h6.8c0.8-0.2,1.5-0.8,1.6-1.6v-6.8c0-4.5,3.6-8.1,8.1-8.1c4.5,0,8.1,3.6,8.1,8.1c0,0,0,0,0,0
			v6.8c0.1,0.8,0.8,1.5,1.6,1.6h6.8c4.5,0,8.1,3.6,8.1,8.1v8.4h8.4c4.5,0,8.1,3.5,8.2,8s-3.5,8.1-8,8.2c-0.1,0-0.1,0-0.2,0h-8.4v8.4
			c0,4.5-3.6,8.1-8.1,8.1h-33.1c-4.5,0-8.1-3.6-8.1-8.1v-33.1C15476.3,6130.2,15479.9,6126.5,15484.3,6126.5L15484.3,6126.5z"/>
		<path class="st0" d="M15501.6,6158.4c4.5,0,8.1,3.6,8.1,8.1c0,14.3,3.9,23.8,3.9,34.7c0,10.6-3.5,19.5-8.5,22.8v8.2h-11.6v-65.8
			C15493.5,6162.1,15497.1,6158.4,15501.6,6158.4L15501.6,6158.4z"/>
		<path class="st0" d="M15580.7,6158.9c-4.5,0-8.1,3.6-8.1,8.1c0,14.3-3.9,23.8-3.9,34.7c0,10.6,3.5,19.5,8.5,22.8v8.2l14,6.1
			l12.8-6.1c3.3-15.2,12-21.4,12-45.7c0-25.4-10-46.1-22.3-46.1c-1.7,0-3.4,0.4-4.9,1.1v24.9
			C15588.8,6162.5,15585.2,6158.9,15580.7,6158.9z"/>
		<path class="st2" d="M15595.3,6126.5h-6.8c-0.8-0.1-1.5-0.8-1.6-1.6v-6.8c0-4.5-3.6-8.1-8.1-8.1c-4.5,0-8.1,3.6-8.1,8.1
			c0,0,0,0,0,0v6.8c-0.1,0.8-0.8,1.5-1.6,1.6h-6.8c-4.5,0-8.1,3.6-8.1,8.1v6.8c0.2,0.8,0.8,1.5,1.6,1.6h6.8c4.5,0,8,3.7,8,8.2
			c0,4.4-3.6,8-8,8h-6.8c-0.8,0.2-1.5,0.8-1.6,1.6v6.8c0,4.5,3.6,8.1,8.1,8.1h33.1c4.5,0,8.1-3.6,8.1-8.1v-33.1
			C15603.3,6130.2,15599.7,6126.5,15595.3,6126.5L15595.3,6126.5z"/>
		<path class="st0" d="M15580.4,6158.4c-4.5,0-8.1,3.6-8.1,8.1c0,14.3-3.9,23.8-3.9,34.7c0,9,2.6,16.9,6.4,21.1
			c1.4,1.3,2.2,3.3,2,5.2v4.7h11.7v-65.8C15588.5,6162.1,15584.9,6158.4,15580.4,6158.4L15580.4,6158.4z"/>
		<path class="st3" d="M15512.7,6256.8v-16.1c0-4.3-3.5-7.8-7.9-7.9h-26.8c-4.3,0-7.8,3.5-7.8,7.9v16.1c0.2,1.2,1.2,2.2,2.4,2.4
			h37.7C15511.6,6259,15512.5,6258,15512.7,6256.8z"/>
		<path class="st3" d="M15569.3,6256.8v-16.1c0-4.3,3.5-7.8,7.9-7.9h26.8c4.3,0,7.8,3.5,7.9,7.9v16.1c-0.2,1.2-1.2,2.2-2.4,2.4
			h-37.7C15570.4,6259,15569.5,6258,15569.3,6256.8z"/>
	</g>
	<path class="st4" d="M15493.2,6190.7c0,1.2-0.9,2.2-2.1,2.2c-1.2,0-2.2-0.9-2.2-2.1c0,0,0-0.1,0-0.1v-14.3h4.4L15493.2,6190.7
		L15493.2,6190.7z"/>
	<path class="st4" d="M15593.2,6190.7c0,1.2-1,2.2-2.2,2.2s-2.2-1-2.2-2.2c0,0,0,0,0,0v-14.3h4.4V6190.7z"/>
	<path class="st5" d="M15506.7,6196.6c0,9.1-2.6,17-6.5,21.1c-2.2,2.4-2,5.5-2,6.8v7.8h7v-4.6c0-3.6,1-3.3,3.9-7.9
		c2.8-4.4,4.5-11.1,4.5-18.6c0-11-3.9-20.4-3.9-34.7c0-4.3-3.4-7.9-7.7-8.1c0.5,1.1,0.8,2.3,0.8,3.5
		C15502.8,6176.2,15506.7,6185.7,15506.7,6196.6L15506.7,6196.6z"/>
	<path class="st6" d="M15518.6,6141.9v25.8c0,4.5-3.6,8.1-8.1,8.1h7.3c4.5,0,8.1-3.6,8.1-8.1v-8.4h8.4c4.5,0,8.1-3.5,8.2-8
		c0-4.5-3.5-8.1-8-8.2c-0.1,0-0.1,0-0.2,0h-8.4v-8.4c0-4.5-3.6-8.1-8.1-8.1h-6.8c-0.8-0.1-1.5-0.8-1.6-1.6v-6.8
		c0-4.5-3.6-8.1-8.1-8.1c-4.2,0-7.6,3.2-8.1,7.3c0.3,0,0.5,0,0.8,0c4.5,0,8.1,3.6,8.1,8.1v6.8c0.1,0.8,0.8,1.5,1.6,1.6h6.8
		C15514.9,6133.8,15518.6,6137.4,15518.6,6141.9L15518.6,6141.9z"/>
	<path class="st7" d="M15596.1,6141.9v25.8c0,4.2-3.2,7.6-7.3,8.1v0h6.5c4.5,0,8.1-3.6,8.1-8.1v-33.1c0-4.5-3.6-8.1-8.1-8.1h-6.8
		c-0.8-0.1-1.5-0.8-1.6-1.6v-6.8c0-4.5-3.6-8.1-8.1-8.1c-4.2,0-7.6,3.2-8.1,7.3c0.3,0,0.5,0,0.8,0c4.5,0,8.1,3.6,8.1,8.1v6.8
		c0.1,0.8,0.8,1.5,1.6,1.6h6.8c3.7,0,6.9,2.5,7.8,6.1c0.1,0.5,0.2,1.1,0.2,1.6C15596.1,6141.6,15596.1,6141.8,15596.1,6141.9
		L15596.1,6141.9z"/>
	<path class="st5" d="M15608.7,6186.5c0,24.3-8.7,30.5-12,45.7h7.3c3.3-15.2,12-21.4,12-45.7c0-18.3-5.2-34.1-12.6-41.5v11.5
		C15606.7,6164.5,15608.7,6175,15608.7,6186.5L15608.7,6186.5z"/>
	<path class="st8" d="M15604.5,6240.6v16.1c-0.2,1.2-1.2,2.2-2.4,2.4h7.3c1.2-0.2,2.2-1.2,2.4-2.4v-16.1c0-4.3-3.5-7.8-7.9-7.9h-7.3
		C15601,6232.8,15604.5,6236.3,15604.5,6240.6L15604.5,6240.6z"/>
	<path class="st8" d="M15505.8,6240.6v16.1c-0.2,1.2-1.2,2.2-2.4,2.4h7.3c1.2-0.2,2.2-1.2,2.4-2.4v-16.1c0-4.3-3.5-7.8-7.9-7.9h-7.3
		C15502.2,6232.8,15505.8,6236.3,15505.8,6240.6L15505.8,6240.6z"/>
</g>
</svg>
