<svg xmlns="http://www.w3.org/2000/svg" width="42.764" height="50" viewBox="0 0 42.764 50"><g transform="translate(-698.519 -2047)"><path d="M3.953-.048l21.136,0c1.374,1.391,9.625,9.726,12.51,12.647V45.931a3.978,3.978,0,0,1-3.953,4H3.953a3.978,3.978,0,0,1-3.953-4V3.954A3.978,3.978,0,0,1,3.953-.048Z" transform="translate(703.684 2047.066)" fill="#fff"/><g transform="translate(698.52 2047)"><path d="M1494.793,662.327h-21.068a4.121,4.121,0,0,0-4.091,4.142v41.7a4.121,4.121,0,0,0,4.091,4.142h29.418a4.121,4.121,0,0,0,4.091-4.142V674.922Zm10.142,45.839a1.806,1.806,0,0,1-1.792,1.815h-29.418a1.806,1.806,0,0,1-1.792-1.815v-41.7a1.806,1.806,0,0,1,1.792-1.815h20.116l.011.011v11.214h11.076l.007.007Z" transform="translate(-1464.505 -662.327)" fill="#2bb492"/><path d="M1456.429,948.847a1.6,1.6,0,0,1-1.537,1.638h-33.821a1.6,1.6,0,0,1-1.537-1.638V932.465a1.6,1.6,0,0,1,1.537-1.638h33.821a1.6,1.6,0,0,1,1.537,1.638Z" transform="translate(-1419.535 -907.828)" fill="#0e896b"/><path d="M-8.684,0l-1.885-2.821L-12.428,0h-2.938l3.315-4.6-3.172-4.5h2.9l1.82,2.626L-8.71-9.1h2.782L-9.1-4.706-5.72,0Zm12.3,0L3.588-4.823,1.248-.9H.1l-2.327-3.8V0H-4.6V-9.1h2.119l3.2,5.252L3.835-9.1H5.954L5.98,0ZM8.32-9.1h2.574v7.059h4.342V0H8.32Z" transform="translate(17.999 38)" fill="#f8f8f8"/></g></g></svg>