<svg xmlns="http://www.w3.org/2000/svg" width="42.764" height="50" viewBox="0 0 42.764 50"><g transform="translate(-698.519 -1961)"><path d="M3.953-.048l21.136,0c1.374,1.391,9.625,9.726,12.51,12.647V45.931a3.978,3.978,0,0,1-3.953,4H3.953a3.978,3.978,0,0,1-3.953-4V3.954A3.978,3.978,0,0,1,3.953-.048Z" transform="translate(703.684 1961.066)" fill="#fff"/><g transform="translate(698.52 1961)"><path d="M1494.793,662.327h-21.068a4.121,4.121,0,0,0-4.091,4.142v41.7a4.121,4.121,0,0,0,4.091,4.142h29.418a4.121,4.121,0,0,0,4.091-4.142V674.922Zm10.142,45.839a1.806,1.806,0,0,1-1.792,1.815h-29.418a1.806,1.806,0,0,1-1.792-1.815v-41.7a1.806,1.806,0,0,1,1.792-1.815h20.116l.011.011v11.214h11.076l.007.007Z" transform="translate(-1464.505 -662.327)" fill="#e67e69"/><path d="M1456.429,948.847a1.6,1.6,0,0,1-1.537,1.638h-33.821a1.6,1.6,0,0,1-1.537-1.638V932.465a1.6,1.6,0,0,1,1.537-1.638h33.821a1.6,1.6,0,0,1,1.537,1.638Z" transform="translate(-1419.535 -907.828)" fill="#ce4124"/><path d="M-8.918-9.1a5.19,5.19,0,0,1,2.145.41,3.181,3.181,0,0,1,1.4,1.17,3.208,3.208,0,0,1,.494,1.787,3.176,3.176,0,0,1-.494,1.781,3.2,3.2,0,0,1-1.4,1.164,5.19,5.19,0,0,1-2.145.409H-10.5V0h-2.574V-9.1Zm-.156,4.693a1.8,1.8,0,0,0,1.2-.345,1.22,1.22,0,0,0,.4-.982,1.24,1.24,0,0,0-.4-.988,1.775,1.775,0,0,0-1.2-.351H-10.5v2.665ZM1.053-9.1a5.19,5.19,0,0,1,2.145.41,3.181,3.181,0,0,1,1.4,1.17A3.208,3.208,0,0,1,5.1-5.733,3.176,3.176,0,0,1,4.6-3.952,3.2,3.2,0,0,1,3.2-2.789a5.19,5.19,0,0,1-2.145.409H-.533V0H-3.107V-9.1ZM.9-4.407a1.8,1.8,0,0,0,1.2-.345,1.22,1.22,0,0,0,.4-.982,1.24,1.24,0,0,0-.4-.988A1.775,1.775,0,0,0,.9-7.072H-.533v2.665ZM8.58-7.059h-2.8V-9.1h8.151v2.041H11.154V0H8.58Z" transform="translate(17.999 38)" fill="#f8f8f8"/></g></g></svg>