<?xml version="1.0" encoding="utf-8"?>
<!-- Generator: Adobe Illustrator 25.2.1, SVG Export Plug-In . SVG Version: 6.00 Build 0)  -->
<svg version="1.1" id="Layer_1" xmlns="http://www.w3.org/2000/svg" xmlns:xlink="http://www.w3.org/1999/xlink" x="0px" y="0px"
	 viewBox="0 0 70 70" style="enable-background:new 0 0 70 70;" xml:space="preserve">
<style type="text/css">
	.st0{fill:#F5F5F5;}
	.st1{fill:#FFFFFF;}
</style>
<g>
	<rect class="st0" width="70" height="70"/>
	<g>
		<path class="st1" d="M53.8,18.3H16.2c-1.5,0-2.7,1.2-2.7,2.7v28c0,1.5,1.2,2.7,2.7,2.7h37.6c1.5,0,2.7-1.2,2.7-2.7V21
			C56.5,19.5,55.3,18.3,53.8,18.3z M53.8,21v19.9L48.4,36c-0.8-0.7-2.1-0.7-2.8,0.1l-5.5,5.4L29.4,28.7c-0.8-1-2.3-1-3.1,0l-10,11.7
			V21H53.8z M42.2,28.2c0-2.1,1.7-3.8,3.8-3.8c2.1,0,3.8,1.7,3.8,3.8S48.1,32,46,32C43.9,31.9,42.2,30.2,42.2,28.2z"/>
	</g>
</g>
</svg>
