<?xml version="1.0" encoding="utf-8"?>
<!-- Generator: Adobe Illustrator 25.2.3, SVG Export Plug-In . SVG Version: 6.00 Build 0)  -->
<svg version="1.1" id="Layer_1" xmlns="http://www.w3.org/2000/svg" xmlns:xlink="http://www.w3.org/1999/xlink" x="0px" y="0px"
	 viewBox="0 0 260 220" style="enable-background:new 0 0 260 220;" xml:space="preserve">
<style type="text/css">
	.st0{fill:#ECDAEC;}
	.st1{fill:#E2CBE2;}
	.st2{fill:#F9F7F8;}
	.st3{fill:#365E7D;}
	.st4{fill:#ADE194;}
	.st5{fill:#FF8086;}
	.st6{fill:#E5646E;}
	.st7{fill:#DDEAFB;}
	.st8{fill:#ECF4FF;}
	.st9{fill:#97DA7B;}
	.st10{fill:#DAB9D8;}
</style>
<g transform="translate(-15411 -4989)">
	<g transform="translate(0 0)">
		<path class="st0" d="M15577.1,5132.5l8.5-8.5l12.1,12.1l-8.5,8.5L15577.1,5132.5z"/>
		<path class="st0" d="M15597.7,5136.1l-12.1-12.1l-4.5,4.5l4,9.2l8.1,2.8h4.5V5136.1z"/>
		<path class="st1" d="M15580.9,5128.5l-4,4l12.1,12.1h4v-4L15580.9,5128.5z"/>
		<path class="st2" d="M15470.5,5171.2h99.1c2.5,0,4.5-1.7,4.5-7.2v-106.5l-27.9-33.6h-75.7c-2.5,0-4.5,2-4.5,4.5c0,0,0,0,0,0V5164
			C15466,5169.5,15468,5171.2,15470.5,5171.2z"/>
		<path class="st1" d="M15546.9,5047.4c0,2.5,2,4.5,4.5,4.5"/>
		<g transform="translate(40.177 42.125)">
			<path class="st3" d="M15518.5,5028.5h-50.2c-1.2,0-2.2-1-2.2-2.2s1-2.2,2.2-2.2h50.2c1.2,0,2.2,1,2.2,2.2
				S15519.7,5028.5,15518.5,5028.5z"/>
			<path class="st3" d="M15497.1,5039.5h-28.8c-1.2,0-2.2-1-2.2-2.2s1-2.2,2.2-2.2h28.8c1.2,0,2.2,1,2.2,2.2
				S15498.3,5039.5,15497.1,5039.5z"/>
			<path class="st3" d="M15486.4,5060h-18.1c-1.2,0-2.2-1-2.2-2.2s1-2.2,2.2-2.2h18.1c1.2,0,2.2,1,2.2,2.2
				S15487.6,5060,15486.4,5060z"/>
			<path class="st3" d="M15486.5,5071h-18.3c-1.2,0-2.2-1-2.2-2.2s1-2.2,2.2-2.2h18.3c1.2,0,2.2,1,2.2,2.2
				S15487.8,5071,15486.5,5071L15486.5,5071L15486.5,5071z"/>
			<path class="st3" d="M15496.5,5092.2h-28.2c-1.2,0-2.2-1-2.2-2.2c0-1.2,1-2.2,2.2-2.2h28.2c1.2,0,2.2,1,2.2,2.2
				C15498.7,5091.2,15497.7,5092.2,15496.5,5092.2z"/>
			<path class="st3" d="M15518.1,5103.2h-49.8c-1.2,0-2.2-1-2.2-2.2c0-1.2,1-2.2,2.2-2.2h49.8c1.2,0,2.2,1,2.2,2.2
				C15520.3,5102.1,15519.3,5103.2,15518.1,5103.2L15518.1,5103.2z"/>
		</g>
		<path class="st1" d="M15532.6,5129.8c14.6,14.6,38.2,14.6,52.8,0c7-7.2,10.9-16.8,10.8-26.8c-1.5-20.6-19.4-36-39.9-34.5
			c-18.5,1.3-33.2,16-34.5,34.5C15521.8,5113,15525.7,5122.6,15532.6,5129.8L15532.6,5129.8z"/>
		<path class="st2" d="M15531.7,5103c-0.1,7.3,2.7,14.3,7.8,19.5c10.6,10.6,27.7,10.6,38.2,0c0,0,0,0,0,0c4.9-5.3,7.7-12.2,7.8-19.5
			c-1.5-14.9-14.7-25.7-29.6-24.2C15543.1,5080,15533,5090.2,15531.7,5103z"/>
		<path class="st4" d="M15546.1,5103.3c0.3,1.1,0.4,2.2,0.6,3.3l6.2,6c1.9,1.8,4.9,1.8,6.7-0.1l11.8-12.1c0.1-1.1,0.3-2.2,0.5-3.2
			c-1.5-2.1-4.4-2.7-6.6-1.2c-0.2,0.2-0.5,0.4-0.7,0.6l-8.5,8.7l-2.8-2.7c-1.8-1.8-4.8-1.8-6.6,0
			C15546.4,5102.9,15546.2,5103.1,15546.1,5103.3L15546.1,5103.3z"/>
		<path class="st5" d="M15615.2,5158.4c1.5-3.2,0.8-7-1.7-9.5l-13.1-13.1c-0.6-0.6-1.5-0.6-2.1,0l-6.7,6.7l-1,3.9l12.3,12.7
			C15605.4,5161.7,15611.5,5162.3,15615.2,5158.4L15615.2,5158.4z"/>
		<path class="st6" d="M15605.7,5156.7l-14.2-14.2l-3,3c-0.6,0.6-0.6,1.5,0,2.1l13.1,13.1c3.3,3.3,8.6,3.3,11.9,0
			c0.7-0.7,1.3-1.5,1.7-2.4C15612,5159.9,15608.2,5159.2,15605.7,5156.7L15605.7,5156.7z"/>
		<path class="st4" d="M15484.2,5078.4h9.8c1.5,0,2.8-2.2,2.8-5.4v-4.4c0-1.5-1.2-2.8-2.8-2.8l0,0h-9.8c-1.5,0-2.8,1.2-2.8,2.8l0,0
			v4.4C15481.4,5076.3,15482.6,5078.4,15484.2,5078.4z"/>
		<path class="st7" d="M15547,5047.6v5.4c0,2.5,2,4.5,4.5,4.5h23.4v-5.4L15547,5047.6z"/>
		<path class="st8" d="M15551.5,5051.9h23.4l-27.9-27.9v23.4C15547,5049.9,15549.1,5051.9,15551.5,5051.9
			C15551.5,5051.9,15551.5,5051.9,15551.5,5051.9z"/>
		<path class="st9" d="M15571.3,5097.9l-11.8,12.1c-1.8,1.9-4.8,1.9-6.7,0.1l-6.2-6c-0.2-0.2-0.4-0.4-0.6-0.7
			c-1.3,1.9-1.1,4.5,0.6,6.1l6.2,6c1.9,1.8,4.9,1.8,6.7-0.1l11.8-12.1c1.6-1.6,1.8-4.1,0.5-6
			C15571.6,5097.5,15571.5,5097.7,15571.3,5097.9L15571.3,5097.9z"/>
		<path class="st9" d="M15494,5075.8h-9.8c-1.5,0-2.8-1.2-2.8-2.8l0,0v5.4c0,1.5,1.2,2.8,2.8,2.8l0,0h9.8c1.5,0,2.8-1.2,2.8-2.8l0,0
			v-5.4C15496.8,5074.6,15495.5,5075.8,15494,5075.8L15494,5075.8z"/>
		<path class="st4" d="M15484.2,5110.2h9.8c1.5,0,2.8-2.2,2.8-5.4v-4.4c0-1.5-1.2-2.8-2.8-2.8l0,0h-9.8c-1.5,0-2.8,1.2-2.8,2.8l0,0
			v4.4C15481.4,5108.2,15482.6,5110.2,15484.2,5110.2z"/>
		<path class="st9" d="M15494,5107.7h-9.8c-1.5,0-2.8-1.2-2.8-2.8l0,0v5.4c0,1.5,1.2,2.8,2.8,2.8c0,0,0,0,0,0h9.8
			c1.5,0,2.8-1.2,2.8-2.8c0,0,0,0,0,0v-5.4C15496.8,5106.4,15495.5,5107.7,15494,5107.7L15494,5107.7z"/>
		<path class="st4" d="M15484.2,5142.7h9.8c1.5,0,2.8-2.2,2.8-5.4v-4.4c0-1.5-1.2-2.8-2.8-2.8l0,0h-9.8c-1.5,0-2.8,1.2-2.8,2.8v4.4
			C15481.4,5140.6,15482.6,5142.7,15484.2,5142.7z"/>
		<path class="st9" d="M15494,5140.1h-9.8c-1.5,0-2.8-1.2-2.8-2.8l0,0v5.4c0,1.5,1.2,2.8,2.8,2.8l0,0h9.8c1.5,0,2.8-1.2,2.8-2.8l0,0
			v-5.4C15496.8,5138.9,15495.5,5140.1,15494,5140.1z"/>
		<path class="st7" d="M15569.6,5168.6h-99.1c-2.5,0-4.5-2-4.5-4.5v5.4c0,2.5,2,4.5,4.5,4.5l0,0h99.1c2.5,0,4.5-2,4.5-4.5l0,0v-5.4
			C15574.1,5166.6,15572,5168.6,15569.6,5168.6z"/>
		<path class="st10" d="M15585.4,5126.9c-14.6,14.6-38.2,14.6-52.8,0c-6.3-6.3-10.2-14.8-10.8-23.7c-1.5,20.6,14,38.4,34.5,39.9
			s38.4-14,39.9-34.5c0.1-1.8,0.1-3.6,0-5.4C15595.6,5112.1,15591.8,5120.5,15585.4,5126.9z"/>
		<path class="st8" d="M15577.7,5119.5c-10.6,10.6-27.7,10.6-38.2,0c-4.4-4.4-7.2-10.2-7.8-16.4c-1.5,14.8,9.3,28.1,24.2,29.6
			c14.8,1.5,28.1-9.3,29.6-24.2c0.2-1.8,0.2-3.6,0-5.4C15584.9,5109.3,15582.1,5115.1,15577.7,5119.5L15577.7,5119.5z"/>
	</g>
</g>
</svg>
