<?xml version="1.0" encoding="UTF-8" standalone="no"?><!DOCTYPE svg PUBLIC "-//W3C//DTD SVG 1.1//EN" "http://www.w3.org/Graphics/SVG/1.1/DTD/svg11.dtd"><svg width="100%" height="100%" viewBox="0 0 125 125" version="1.1" xmlns="http://www.w3.org/2000/svg" xmlns:xlink="http://www.w3.org/1999/xlink" xml:space="preserve" xmlns:serif="http://www.serif.com/" style="fill-rule:evenodd;clip-rule:evenodd;stroke-linejoin:round;stroke-miterlimit:2;"><circle cx="62.5" cy="62.5" r="62.5" style="fill:#ff5f65;fill-opacity:0;"/><path d="M43.75,31.25c3.333,0 6.25,2.917 6.25,6.25l0,50c0,3.333 -2.917,6.25 -6.25,6.25c-3.333,0 -6.25,-2.917 -6.25,-6.25l0,-50c0,-3.333 2.917,-6.25 6.25,-6.25Z" style="fill:#fff;fill-rule:nonzero;"/><path d="M81.25,31.25c3.333,0 6.25,2.917 6.25,6.25l0,50c0,3.333 -2.917,6.25 -6.25,6.25c-3.333,0 -6.25,-2.917 -6.25,-6.25l0,-50c0,-3.333 2.917,-6.25 6.25,-6.25Z" style="fill:#fff;fill-rule:nonzero;"/></svg>