<?xml version="1.0" encoding="utf-8"?>
<!-- Generator: Adobe Illustrator 25.2.3, SVG Export Plug-In . SVG Version: 6.00 Build 0)  -->
<svg version="1.1" id="Layer_1" xmlns="http://www.w3.org/2000/svg" xmlns:xlink="http://www.w3.org/1999/xlink" x="0px" y="0px"
	 viewBox="0 0 260 220" style="enable-background:new 0 0 260 220;" xml:space="preserve">
<style type="text/css">
	.st0{fill:#A5CDFF;}
	.st1{fill:#8BB3EA;}
	.st2{fill:#B3E59F;}
	.st3{fill:#95D6A4;}
	.st4{fill:#FF8086;}
	.st5{fill:#FFFFFF;}
	.st6{fill:#E5646E;}
</style>
<g transform="translate(-15411 -4627)">
	<path class="st0" d="M15608.6,4737.7h-59.5c-0.8,0-1.7,0.1-2.5,0.4l-2.6,7v56.9c0,4.1,3.3,7.4,7.4,7.4h57.1l7-2.3
		c0.3-0.8,0.4-1.6,0.4-2.5v-59.5C15616,4741,15612.7,4737.7,15608.6,4737.7C15608.6,4737.7,15608.6,4737.7,15608.6,4737.7
		L15608.6,4737.7z"/>
	<path class="st1" d="M15561.5,4807c-8.2,0-14.9-6.7-14.9-14.9c0,0,0,0,0,0v-54.1c-3,1.1-5,3.9-5,7v59.5c0,4.1,3.3,7.4,7.4,7.4h59.5
		c3.1,0,6-2,7-5L15561.5,4807z"/>
	<path class="st2" d="M15532.9,4737.7h-59.5c-0.8,0-1.7,0.1-2.5,0.4l-2.6,7v56.9c0,4.1,3.3,7.4,7.4,7.4c0,0,0,0,0,0h57.1l7-2.3
		c0.3-0.8,0.4-1.6,0.4-2.5v-59.5C15540.3,4741,15537,4737.7,15532.9,4737.7C15532.9,4737.7,15532.9,4737.7,15532.9,4737.7
		L15532.9,4737.7z"/>
	<path class="st3" d="M15485.8,4807c-8.2,0-14.9-6.7-14.9-14.9l0,0v-54.1c-3,1.1-5,3.9-5,7v59.5c0,4.1,3.3,7.4,7.4,7.4c0,0,0,0,0,0
		h59.5c3.1,0,6-2,7-5L15485.8,4807z"/>
	<path class="st4" d="M15570.8,4662h-59.5c-0.8,0-1.7,0.1-2.5,0.4l-2.6,7v56.9c0,4.1,3.3,7.4,7.4,7.4h57.1l7-2.3
		c0.3-0.8,0.4-1.6,0.4-2.5v-59.5C15578.2,4665.3,15574.9,4662,15570.8,4662L15570.8,4662z"/>
	<g transform="translate(27.701 16.696)">
		<path class="st5" d="M15529.4,4699l-13.2-35c-0.5-1.2-1.7-2-3-2l0,0c-1.4,0-2.6,0.8-3.1,2.1l-13.3,34.9c-0.5,1.3,0.1,2.7,1.4,3.2
			c1.3,0.5,2.7-0.1,3.2-1.4c0,0,0,0,0,0l2.7-7.1h17.9l2.7,7.1c0.5,1.3,1.9,1.9,3.2,1.4C15529.2,4701.7,15529.9,4700.3,15529.4,4699
			L15529.4,4699L15529.4,4699z M15506,4688.7l7.1-18.7l7,18.7H15506z"/>
		<path class="st5" d="M15485.5,4756.8c3.8-4.1,3.5-10.4-0.6-14.2c-1.9-1.7-4.3-2.7-6.8-2.6h-9.6c-1.4,0-2.5,1.1-2.5,2.5
			c0,0,0,0,0,0v33c0,1.4,1.1,2.5,2.5,2.5h0c0,0,8.8,0,11.3,0c6.3,0,11.3-5,11.4-11.3C15491.1,4762.6,15489,4758.8,15485.5,4756.8
			L15485.5,4756.8z M15478.1,4744.9c2.8,0,5.1,2.3,5.1,5.1s-2.3,5.1-5.1,5.1c-0.7,0-7.1,0-7.1,0v-10.3L15478.1,4744.9z
			 M15479.7,4772.9c-1.6,0-6,0-8.8,0v-12.8c1,0,8.8,0,8.8,0c3.5,0,6.4,2.9,6.4,6.4C15486.2,4770,15483.3,4772.9,15479.7,4772.9
			C15479.8,4772.9,15479.8,4772.9,15479.7,4772.9L15479.7,4772.9z"/>
		<path class="st5" d="M15563.7,4768.9c-1-0.9-2.6-0.7-3.5,0.3c0,0,0,0,0,0c-0.3,0.4-0.7,0.8-1.1,1.1c-2,1.8-4.7,2.7-7.4,2.7
			c-7.8,0-14-6.3-14-14s6.3-14,14-14c2.8,0,5.5,0.8,7.8,2.4c1.1,0.8,2.7,0.5,3.5-0.6c0.8-1.1,0.5-2.7-0.6-3.5c0,0,0,0-0.1-0.1
			c-8.7-5.9-20.5-3.6-26.4,5.1c-5.9,8.7-3.6,20.5,5.1,26.4c3.1,2.1,6.9,3.3,10.7,3.3c3.9,0.1,7.7-1.3,10.7-3.9
			c0.6-0.5,1.1-1.1,1.6-1.6C15564.8,4771.3,15564.7,4769.8,15563.7,4768.9C15563.7,4768.9,15563.7,4768.9,15563.7,4768.9
			L15563.7,4768.9z"/>
	</g>
	<path class="st6" d="M15523.3,4731.4c-8.3,0.1-15.1-6.6-15.1-14.9c0,0,0,0,0,0v-54.1c-3,1-5,3.8-5,7v59.5c0,4.1,3.4,7.5,7.6,7.4
		c0,0,0,0,0,0h60.5c3.2,0,6-2,7.1-5L15523.3,4731.4z"/>
</g>
</svg>
