<?xml version="1.0" encoding="UTF-8"?><svg id="Capa_2" xmlns="http://www.w3.org/2000/svg" viewBox="0 0 311.13 314.7"><defs><style>.cls-1{fill:#fff;}.cls-2{fill:#fc7365;}.cls-3{fill:#ea9f6c;}.cls-4{fill:#7b9368;}.cls-5{fill:#024b68;}.cls-6{fill:#012e43;}.cls-7{fill:#663412;}.cls-8{fill:#ef4141;}.cls-9{fill:#6b8dff;}.cls-10{fill:#843e09;}.cls-11{fill:#ffb18a;}.cls-12{fill:#fcc397;}.cls-13{fill:#ba672f;}.cls-14{fill:#d6dced;}</style></defs><g id="_лой_1"><g><circle class="cls-9" cx="155.57" cy="155.57" r="155.57" transform="translate(-22.91 284.2) rotate(-80.78)"/><path class="cls-12" d="M206.19,143.07l-23.08-3.43c-6.99-2.4-13.47-9.71-13.47-14.14,0-.14-.05-12.32-.05-12.32-8.87,4.23-16.45,6.32-16.45,6.32,0,0-6.44-1.91-14.65-6.23,0,0-.05,11.98-.05,12.11,0,4.5-7.63,11.98-15.06,14.25l-23.03,3.43c-9.68,0-17.52,9.5-17.52,21.22s7.85,21.22,17.52,21.22h105.84c9.68,0,17.52-9.5,17.52-21.22s-7.85-21.22-17.52-21.22Z"/><path class="cls-7" d="M200.35,63.18c0,25.97-20.48,47.16-45.75,47.03-32.25-.17-45.74-21.05-45.74-47.03s20.48-47.02,45.74-47.02,45.75,21.05,45.75,47.02Z"/><path class="cls-3" d="M138.45,108.79v7.87c5.64,3.84,10.45,6.2,12.92,7.31,1.13,.51,2.35,.54,3.39,.12,2.7-1.09,8.45-3.6,14.87-7.56v-7.75h-31.18Z"/><path class="cls-12" d="M190.48,69.74c-1-.34-2.1-.22-3.18,.27,1.12-10.52,1.75-21.13,.12-23.64-7.7-11.89-20.84-18.92-34.15-19.41h0c-13.32,.49-26.45,7.52-34.16,19.41-1.61,2.48-1.01,12.9,.09,23.32-.78-.2-1.55-.2-2.27,.04-3.14,1.04-4.25,6.11-2.46,11.32,1.47,4.28,4.43,7.32,7.18,7.69,.43,2.95,.73,4.8,.73,4.8,6.47,16.9,23.56,25.21,29.12,27.52,1.12,.46,2.37,.49,3.39,.07,5.38-2.21,22.74-10.52,29.28-27.59,0,0,.29-1.84,.73-4.78,2.96,.2,6.39-2.99,8.02-7.69,1.8-5.21,.71-10.28-2.43-11.33Z"/><path class="cls-7" d="M162.18,65.67c.92-.63,8.42-6.43,16.6-.74,4.97,3.45-2.56-1.71-6.28-1.28-4.62,.53-8.06,2.73-9.47,3.7-1.25,.86-2.09-.81-.85-1.67Z"/><path class="cls-7" d="M144.66,65.68c-.88-.62-8.11-6.34-16.09-.57-4.85,3.5,2.5-1.74,6.11-1.35,4.47,.48,7.8,2.64,9.15,3.6,1.2,.84,2.04-.84,.84-1.68Z"/><path class="cls-1" d="M145.18,75.01c-3.97,1.3-5.5,2.11-7.64,2.2-3.13,.13-5.7-1.62-5.7-3.55s2.54-3.49,5.68-3.49,7.22,3.4,7.66,4.85Z"/><path class="cls-4" d="M140.59,73.75c0,1.9-1.48,3.44-3.31,3.44s-3.31-1.54-3.31-3.44,1.48-3.44,3.31-3.44,3.31,1.54,3.31,3.44Z"/><path d="M139.63,73.41c0,1.28-1,2.33-2.24,2.33s-2.24-1.04-2.24-2.33,1-2.33,2.24-2.33,2.24,1.04,2.24,2.33Z"/><path class="cls-1" d="M140,73.1c0,.45-.48,.81-1.07,.81s-1.07-.36-1.07-.81,.48-.81,1.07-.81,1.07,.36,1.07,.81Z"/><path d="M144.76,74.18c-2.57-4.52-8.36-4.7-12.12-3.32-3.31,1.21-3.95,.57-4.09,.41,.05,1.26,1.74,3.83,5.3,5.12-.93-.51-1.61-1.22-1.88-1.99,.35-2.05,4.8-3.28,7.8-2.39,4.32,1.29,5.42,3.04,5.42,3.04-.07-.29-.27-.59-.43-.86Z"/><path class="cls-1" d="M161.67,75.01c4.03,1.3,5.58,2.11,7.75,2.2,3.18,.13,5.78-1.62,5.78-3.55s-2.58-3.49-5.76-3.49-7.32,3.4-7.77,4.85Z"/><path class="cls-4" d="M166.33,73.75c0,1.9,1.5,3.44,3.35,3.44s3.36-1.54,3.36-3.44-1.5-3.44-3.36-3.44-3.35,1.54-3.35,3.44Z"/><path d="M167.3,73.41c0,1.28,1.02,2.33,2.27,2.33s2.27-1.04,2.27-2.33-1.02-2.33-2.27-2.33-2.27,1.04-2.27,2.33Z"/><path class="cls-1" d="M170.44,73.28c0,.45,.48,.81,1.08,.81s1.08-.37,1.08-.81-.48-.82-1.08-.82-1.08,.36-1.08,.82Z"/><path d="M178.54,71.27c-.14,.16-.79,.8-4.14-.41-3.82-1.38-9.68-1.2-12.29,3.32-.16,.27-.36,.56-.43,.86,0,0,1.11-1.75,5.49-3.04,3.04-.89,7.55,.34,7.91,2.39-.27,.78-.96,1.48-1.9,2,2.18-.78,5.28-2.86,5.37-5.12Z"/><path class="cls-10" d="M200.35,56.66c0-22.37-20.48-40.51-45.75-40.51s-45.74,18.14-45.74,40.51c0,7.53,1.54,14.55,4.79,20.57-.3-3.68,.91-6.73,3.27-7.51,.53-.18,1.09-.22,1.66-.15,1.22,4.7,2.51,7.95,2.51,5.32,0-3.1,.63-8.79,1.16-12.98,10.5-2.67,31.03-8.92,43.99-19.57,3.26,8.56,9.17,18.12,19.61,20.77,.46,3.99,.94,8.84,.94,11.6,0,2.6,1.2-.55,2.35-5.17,.46-.02,.9,.03,1.34,.17,2.47,.83,3.66,4.14,3.19,8.05,4.24-6.16,6.69-13.39,6.69-21.12Z"/><path class="cls-13" d="M158.47,24.71c.46,.9,.45,2.15-.25,3.85-5.46,13.24-24.54,25.48-34.36,31.08,11.1-4.02,33.2-13.4,41.86-27.02,3.54-5.56-1.46-7.4-7.25-7.91Z"/><path class="cls-3" d="M155.41,91.17h-4.28c-1.42,0-2.63-.97-3.11-2.34-.15,.41-.23,.85-.23,1.32,0,2.02,2.5,2.67,4.35,2.67h2.27c1.85,0,4.35-.65,4.35-2.67,0-.46-.09-.91-.23-1.32-.48,1.37-1.69,2.34-3.11,2.34Z"/><path class="cls-3" d="M114.77,73.54c-.03-.42,.8-2.31,1.84-1.98,1.59,.49,2.6,3.55,3.27,6.6,.67,3.05,.36,5.28,0,4.46-.5-1.16-.96-4.85-2.85-8.33-1.26-2.31-2.01,2.56-2.26-.74Z"/><path class="cls-3" d="M192.66,73.54c.03-.42-.8-2.31-1.84-1.98-1.59,.49-2.6,3.55-3.27,6.6-.67,3.05-.36,5.28,0,4.46,.5-1.16,.96-4.85,2.85-8.33,1.26-2.31,2.01,2.56,2.26-.74Z"/><path class="cls-11" d="M140.72,88.27c-.83,2.61-4.96,3.65-9.21,2.33-4.25-1.32-7.02-4.5-6.19-7.11,.84-2.61,4.96-3.65,9.21-2.33,4.25,1.32,7.02,4.5,6.19,7.11Z"/><path class="cls-11" d="M165.53,88.27c.83,2.61,4.96,3.65,9.21,2.33,4.25-1.32,7.02-4.5,6.19-7.11-.83-2.61-4.96-3.65-9.21-2.33-4.25,1.32-7.02,4.5-6.19,7.11Z"/><g><path class="cls-6" d="M100.03,279.25h0c.14,.25,.15,.27,0,0Z"/><path class="cls-6" d="M88.41,287.46h-.01c.16,.19,.15,.17,.01,0Z"/><path class="cls-1" d="M228.01,233.13c.12,7.1-16.44,36.7-21.13,45.54l11.72,8.39c12.06-13.7,29.21-40.3,31.11-57.63,2-17.98-19.49-61.39-28.87-76.79-3.01-5.52-8.31-9.58-14.64-9.58l-16.2-2.41c2.27,18.72-20.24,75.28-34.89,88.4-3.48-2.64-41.03-67.93-38.52-88.4l-16.23,2.42c-6.35,0-11.62,4.07-14.61,9.52-6.15,10.06-28.54,53.66-29.05,73.02-.46,19.88,19.46,46.51,31.72,61.84l11.61-8.2c-4.05-7.24-19.86-36.39-21.29-44.55h0c-1.77-9.42,16.21-39.96,21.14-48.16,.56,.78,1.11,1.57,1.65,2.38-.95,2.55-1.48,5.3-1.48,8.17,0,9.91,6.19,18.38,14.97,21.89,1.44,5.12,2.58,10.48,3.39,16.02,1.58,10.94,2.39,21.53,1.92,31.33-6.63,4.94-12.18,11.28-16.28,18.58-3.14,5.6-5.49,12-6.7,18.41,17.15,7.3,36.06,11.35,55.93,11.35s39.86-4.29,57.4-11.98c-1.31-6.52-3.64-12.65-6.82-18.2-4.03-7.05-9.62-13.46-16.44-18.44h0c-.44-9.72,.38-20.21,1.94-31.04,.78-5.42,1.89-10.65,3.28-15.67,8.6-3.59,14.63-11.98,14.63-21.76,0-2.83-.51-5.54-1.43-8.06,.45-.69,.91-1.38,1.38-2.05,5.44,9.07,20.63,35.15,20.8,45.63Z"/></g><path class="cls-2" d="M143.17,102.48c2.88,2.94,5.33,5.17,10.1,5.17s7.97-2.47,10.09-5.13c-2.9,.53-6.31,.84-9.98,.84s-7.26-.32-10.22-.88Z"/><path class="cls-8" d="M153.27,101.13c-3.17-2.14-4.78,.55-10.96,.76,0,.18,.03,.37,.08,.56,3.17,.55,6.96,.91,11,.91s7.57-.34,10.69-.87c.06-.21,.1-.41,.1-.6-6.18-.54-8.05-2.65-10.9-.76Z"/><path class="cls-1" d="M155.1,229.06c13.87-12.41,32.79-60.29,34.91-81.19-1.94,16.8-17.64,29.9-36.73,29.9-15.85,0-29.36-9.03-34.6-21.71,7.81,25.19,32.76,70.23,36.42,73Z"/><path class="cls-10" d="M196.89,60.18c3.76,16.05-3.26,33.57-13.04,49.37-8.44,13.63-4.01,22.46-.5,23.21,3.51,.74-14.54,2.22-3.26-23.7,11.28-25.92,14.79-30.12,12.28-47.4-1.09-7.53-4.26-15.06-6.52-19.5,7.77,4.94,11.03,18.02,11.03,18.02Z"/><path class="cls-14" d="M124.79,221.15c-3.48,0-6.77-.75-9.76-2.07,.65,2.31,1.24,4.67,1.77,7.06,2.5,1,5.18,1.57,7.99,1.57,11.31,0,20.76-8.82,23.26-20.67h-1.4c-3.7,8.3-12.08,14.11-21.86,14.11Z"/><path class="cls-14" d="M184.63,220.77c-9.78,0-18.16-5.81-21.86-14.11h-1.36c2.57,11.68,11.98,20.35,23.22,20.35,2.18,0,4.29-.35,6.3-.97,.49-2.24,1.02-4.46,1.62-6.62-2.48,.86-5.14,1.35-7.92,1.35Z"/><path class="cls-12" d="M108.5,286.63c-2.9-2.2-6.93-2.32-9.99,0l-2.7,2.05c-3.51,2.67-4.5,7.61-2.5,11.5,0,0,.01,0,.02,0,7.86-1.8,13.87-7,15.31-13.45-.05-.04-.1-.07-.14-.1Z"/><path class="cls-12" d="M210.88,287.89l-2.7-2.05c-3.62-2.75-8.6-2.08-11.46,1.42,2.08,6.22,8.49,11.06,16.54,12.39,2.18-3.93,1.21-9.03-2.37-11.75Z"/><path class="cls-14" d="M114.51,285c-1.41-1.14-4.57-2.22-4.51-2.17-1.75,7.96-9.09,14.38-18.67,16.61,.03,.42,.09,.84,.15,1.25,1.85,.89,3.72,1.74,5.62,2.54,9-3.37,15.65-10.12,17.42-18.23Z"/><path class="cls-14" d="M196.24,282.89c.06-.05-3.11,1.03-4.51,2.17,1.77,8.14,8.46,14.91,17.51,18.27,1.86-.79,3.69-1.61,5.5-2.48,.08-.45,.14-.9,.17-1.36-9.59-2.23-16.92-8.65-18.67-16.61Z"/><polygon class="cls-1" points="128.03 136.57 114.32 139.86 111.32 172.77 122.01 175.41 117.33 184.29 155.77 232.02 128.03 136.57"/><polygon class="cls-1" points="178.5 136.57 192.2 139.86 195.21 172.77 184.52 175.41 189.2 184.29 150.09 245.19 178.5 136.57"/><path class="cls-1" d="M153.76,157.96c11.24,0,20.54-9.97,21.89-22.79-.66-.58-1.29-1.19-1.87-1.81-.61,12.6-9.35,22.62-20.02,22.62s-19.44-10.06-20.02-22.69c-.59,.57-1.23,1.12-1.89,1.65,1.26,12.93,10.61,23.01,21.91,23.01Z"/><ellipse class="cls-5" cx="158.53" cy="260.08" rx="3.26" ry="3.21"/><path class="cls-5" d="M161.79,275.88c0,1.77-1.46,3.21-3.26,3.21s-3.26-1.44-3.26-3.21,1.46-3.21,3.26-3.21,3.26,1.44,3.26,3.21Z"/><path class="cls-1" d="M121.34,87.61c0,.86-.71,1.56-1.59,1.56s-1.59-.7-1.59-1.56,.71-1.57,1.59-1.57,1.59,.7,1.59,1.57Z"/><path class="cls-1" d="M188.53,87.61c0,.86-.71,1.56-1.59,1.56s-1.59-.7-1.59-1.56,.71-1.57,1.59-1.57,1.59,.7,1.59,1.57Z"/><path class="cls-1" d="M102.81,284.67c-.65-1.36-1.61-3.21-2.78-5.42l-11.64,8.22c1.45,1.63,4.29,4.68,4.39,4.78l10.03-7.57h0Z"/><path class="cls-1" d="M218.59,287.06l-11.72-8.39c-1.1,2.07-2.04,3.86-2.73,5.26l9.94,7.93c1.21-1.15,3.01-3.1,4.5-4.8Z"/></g></g></svg>