<?xml version="1.0" encoding="UTF-8"?><svg id="Capa_2" xmlns="http://www.w3.org/2000/svg" viewBox="0 0 311.73 311.73"><defs><style>.cls-1{fill:#fff;}.cls-2{fill:#d87350;}.cls-3{fill:#ea9f6c;}.cls-4{fill:#7b9368;}.cls-5{fill:#5fa6b2;}.cls-6{fill:#663412;}.cls-7{fill:#333;}.cls-8{fill:#6b8dff;}.cls-9{fill:#e5e5e5;}.cls-10{fill:#fcc397;}.cls-11{fill:#ea8c63;}.cls-12{fill:#515151;}</style></defs><g id="_лой_1"><g><circle class="cls-8" cx="155.87" cy="155.86" r="155.87" transform="translate(-2.09 2.12) rotate(-.77)"/><path class="cls-10" d="M236.07,157.71c-2.53-7.69-9.76-13.26-18.3-13.26l-29.06-3.39c-5.32-2.11-10.15-7.29-11.2-11.15l-.32-14.71c-3.24,2.31-6.31,3.87-9.98,6.23-1.73,.42-8.46,.62-10.64-.07-5.44-3.19-11.52-6.77-17.35-12.14l-.64,21.1c-1.37,3.71-6.41,8.45-11.65,10.6l-28.8,3.54c-9.53,0-17.43,6.93-18.98,16.02-.07,.34-.12,.69-.16,1.05-.02,.2-.04,.41-.06,.62,0,.13-.03,.26-.03,.39l28.15,23.15,10.37,33.5h81.09l11.2-36.17h2.99l23.38-25.31Z"/><rect class="cls-9" x="132.33" y="149.65" width="48.82" height="89.99"/><path class="cls-7" d="M235.8,156.98c-2.74-7.31-9.77-12.53-18.03-12.53l-29.06-3.39c-1.13-.45-5.11-1.04-6.16-1.73l-24.13,93.84-24.6-96.64c-2.01,1.78-4.43,3.37-6.9,4.38l-28.8,3.54c-5.88,0-11.13,2.64-14.66,6.79l-.08-.06c-.29,.35-.64,.85-1.04,1.5-.75,1.07-1.39,2.23-1.91,3.45-7.15,13.97-20.69,53.02-21.1,70.02-.48,19.91,24.77,56.46,34.82,65.65l25.09-1.89-14.29,8.64-.14,2.49c16.18,6.87,33.97,10.68,52.66,10.68s37.17-3.96,53.6-11.09l-.51-9c3.25,2.26,7.67,2.47,12.31-2.96,10.05-9.19,34.94-44.42,34.46-64.33-.4-16.75-14.29-52.96-21.54-67.37Zm-129.18,112.45c-7.7-12.88-16.79-33.51-18.56-37.85-3.38-8.27,5.84-27.93,15.27-42.28l3.31,79.93v.21Zm102.77,1.79l-.22-3.9,3.1-76.06c8.11,14,16.68,31.48,16.81,40,.09,6.21-12.27,25.57-19.69,39.96Z"/><path class="cls-12" d="M201.33,175.1l-2.01-32.8-9.73-1.13c-1.41-.58-2.81-1.3-4.12-2.18l-5.08,6.9-22.1,86.82-22.18-87.14-5.08-6.9c-1.32,.89-2.7,1.67-4.12,2.25l-9.07,1.11-1.72,32.75,12.45,2.23-2.55,12.77,30.54,58.69-.55,7.68,35.42-66.05-2.55-12.76,12.45-2.23Z"/><polygon class="cls-5" points="149.02 196.25 158.29 232.71 166.05 202.23 161.35 164.99 167.04 156.77 163.71 147.74 152.13 147.42 149.12 157.25 154.38 164.83 149.02 196.25"/><polygon class="cls-1" points="137.83 129.79 158.25 147.34 143.26 162.34 128.58 139.68 137.83 129.79"/><path class="cls-10" d="M123.62,294.07s0-.07,0-.1c-3.98-6.01-2.87-4.32-4.88-7.36-2.48-3.75-7.54-4.77-11.28-2.29-9.1,6.03-7.52,4.95-8.31,5.56-1.09,2.29-1.7,4.94-1.69,7.76,4.53,2.26,9.21,4.28,14.02,6.02,5.06-1.73,9.33-5.15,12.15-9.59Z"/><polygon class="cls-1" points="178.68 129.79 158.25 147.34 173.25 162.34 187.93 139.68 178.68 129.79"/><rect class="cls-1" x="93.88" y="284.29" width="20.98" height="5.26" transform="translate(-148.65 116.05) rotate(-35.98)"/><path class="cls-12" d="M131.58,276.66l-4.86,.06c.32,1.49,.5,3.04,.52,4.62,.06,4.68-1.28,9.05-3.62,12.73-2.81,4.44-7.09,7.86-12.15,9.59,1.34,.49,4.04,1.42,6.63,2.21,8.44-4.93,14.06-14.13,13.93-24.59-.02-1.58-.18-3.12-.45-4.62Z"/><path class="cls-10" d="M216.55,288.67l-7.84-5.06c-3.78-2.43-8.82-1.35-11.25,2.43-1.97,3.06-.83,1.3-4.78,7.42,0,.03,0,.07,0,.1,2.9,4.44,7.27,7.84,12.42,9.49,4.73-1.79,9.34-3.83,13.8-6.12-.01-2.56-.85-7.31-2.34-8.28Z"/><path class="cls-12" d="M192.68,293.57c-2.38-3.65-3.78-8.01-3.78-12.69,0-1.59,.16-3.13,.46-4.63h-4.86c-.25,1.51-.38,3.05-.38,4.63,0,10.52,5.79,19.68,14.35,24.49,2.75-.87,4.68-1.57,6.63-2.31-5.15-1.65-9.52-5.05-12.42-9.49Z"/><rect class="cls-1" x="210.63" y="275.09" width="5.26" height="20.98" transform="translate(-143.13 290.39) rotate(-54.02)"/><g><path class="cls-3" d="M156.79,117.6s-7.73-2.25-17.9-7.69v9.45c2.92,1.85,7.25,4.69,10.27,6.57,1.52,.95,4.36,1.22,4.36,1.22h11.11s2.92-.23,4.38-1.19c2.44-1.61,5.23-3.87,8.27-5.88v-10.42c-10.99,5.32-20.49,7.93-20.49,7.93Z"/><path class="cls-10" d="M194.91,68.93c-.98-.33-2.03-.24-3.09,.21,.41-11.95,.3-22.66-1.22-25.04-8.41-13.19-18.29-18.93-32.83-19.47h0c-14.54,.55-23.33,6.28-31.73,19.47-1.55,2.44-1.82,13.63-1.59,25.93-1.52-1.14-3.15-1.6-4.6-1.11-3.21,1.08-4.33,6.33-2.51,11.73,1.57,4.66,4.82,7.89,7.74,8,.48,10.49,1.02,18.66,1.02,18.66,9.82,6.73,16.34,11.28,22.01,14.64,1.41,.84,3.5,.99,3.5,.99h11.78s2.76-.36,4.01-1.09c5.69-3.34,12.22-7.96,22.07-14.53,0,0,.71-8.28,1.38-18.87,2.56-.8,5.17-3.75,6.54-7.77,1.84-5.39,.73-10.65-2.47-11.74Z"/><path class="cls-6" d="M166.01,64.82c1-.55,13.22-5.37,16.93,1.02,3.11,5.37-2.63,0-6.45,.04-4.74,.05-6.02,.18-9.8,.75-1.53,.23-2.04-1.06-.68-1.81Z"/><path class="cls-6" d="M148.15,64.97c-.96-.55-12.88-4.79-16.41,.95-3.21,5.23,2.57,.01,6.27,.07,4.59,.07,7.39,.59,9.45,.8,1.49,.15,1.99-1.06,.69-1.82Z"/><path class="cls-1" d="M148.68,74.4c-4.05,1.35-5.79,1.46-7.83,1.46-3.15,0-6.03-1.06-6.03-3.06s2.84-3.43,6.04-3.43,7.37,3.52,7.82,5.03Z"/><path class="cls-4" d="M144.05,72.64c0,1.77-1.36,3.21-3.04,3.21s-3.04-1.44-3.04-3.21,1.36-3.21,3.04-3.21,3.04,1.44,3.04,3.21Z"/><path d="M143.05,72.67c0,1.14-.87,2.06-1.95,2.06s-1.95-.92-1.95-2.06,.87-2.06,1.95-2.06,1.95,.92,1.95,2.06Z"/><path class="cls-1" d="M144.12,72.71c0,.42-.44,.76-.98,.76s-.98-.34-.98-.76,.44-.76,.98-.76,.98,.34,.98,.76Z"/><path class="cls-3" d="M148.68,74.42s-1.12-1.81-5.53-3.14c-3.16-.96-7.91,.43-7.99,2.68-1.32-.96-1.36-2.74,2.01-3.99,3.84-1.43,8.34-.43,11.07,3.57,.18,.27,.37,.58,.43,.89Z"/><path class="cls-1" d="M165.86,74.4c4.05,1.35,5.4,1.5,7.72,1.44,3.16-.08,6.03-.88,6.03-2.88s-2.74-3.59-5.93-3.59-7.37,3.52-7.82,5.03Z"/><path class="cls-4" d="M170.45,72.56c0,1.77,1.36,3.21,3.04,3.21s3.04-1.44,3.04-3.21-1.36-3.21-3.04-3.21-3.04,1.44-3.04,3.21Z"/><path d="M171.53,72.58c0,1.14,.87,2.06,1.95,2.06s1.95-.92,1.95-2.06-.87-2.06-1.95-2.06-1.95,.92-1.95,2.06Z"/><path class="cls-1" d="M174.57,72.37c0,.42,.44,.76,.98,.76s.98-.34,.98-.76-.44-.76-.98-.76-.98,.34-.98,.76Z"/><path class="cls-3" d="M165.86,74.42s1.12-1.81,5.53-3.14c3.16-.96,7.9,.43,7.99,2.68,1.32-.96,1.19-2.82-2.18-4.08-3.84-1.43-8.17-.34-10.9,3.66-.18,.27-.36,.58-.43,.89Z"/><path class="cls-3" d="M159.59,91.98h-5.07c-1.68,0-3.11-1.17-3.68-2.82-.17,.49-.28,1.02-.28,1.58,0,2.43,2.96,3.21,5.15,3.21h2.69c2.18,0,5.15-.78,5.15-3.21,0-.56-.1-1.09-.27-1.58-.58,1.64-2,2.82-3.68,2.82Z"/><path class="cls-3" d="M117.65,72.86c-.04-.43,.82-2.39,1.88-2.05,1.62,.51,2.65,3.68,3.34,6.84,.68,3.16,.36,5.46,0,4.62-.51-1.2-.98-5.03-2.91-8.64-1.28-2.39-2.05,2.65-2.31-.77Z"/><path class="cls-3" d="M197.13,72.86c.03-.43-.82-2.39-1.88-2.05-1.63,.51-2.65,3.68-3.33,6.84-.68,3.16-.36,5.46,0,4.62,.51-1.2,.97-5.03,2.91-8.64,1.28-2.39,2.05,2.65,2.31-.77Z"/><path class="cls-6" d="M183.78,26.4c-5.46-9.56-36.59-5.47-46.51-2.74-9.92,2.74-16.42,8.21-16.07,16.76,.3,7.39,.34,23.97,.34,28.34,.83,.1,1.68,.46,2.51,1.01l1.94,8.96,2.05-14.02s-4.1-27.36,22.57-22.57c-3.76,2.05-10.6,9.23-10.6,9.23,0,0,15.73-3.76,21.89-6.16,6.15-2.39,0,5.13,0,5.13,0,0,11.97-4.45,15.73-5.81,3.76-1.37,7.52-.34,8.21,6.16,.69,6.5,2.39,31.12,2.39,31.12l4.3-12.89c.33-.09,.67-.15,1-.16,.14-2.6,.31-5.84,.52-9.86,2.05-38.99-6.15-25.31-10.26-32.49Z"/><g><path class="cls-11" d="M148.11,103.06c.22,1.2,2.15,4.08,3.27,4.08h11.24c1.13,0,3.05-2.88,3.27-4.08h-17.78Z"/><path class="cls-2" d="M162.26,103.59c-2.38-.29-10.24-.17-11.46-.11-3.13,.14-4.96-1.6-4.85-1.94,.18-.54,.59-.42,.94,.11,.32,.48,2.38,.31,3.4,.1,5.18-1.11,3.85,.13,6.38,.17,2.38,.04,1.56-1.16,6.05-.14,1.52,.34,3.6,.87,4.37,.48,.52-.26,.93-.55,1.07,0,.14,.52-2.09,1.8-5.9,1.33Z"/></g></g></g></g></svg>