<svg xmlns="http://www.w3.org/2000/svg" xmlns:xlink="http://www.w3.org/1999/xlink" width="1228" height="475" viewBox="0 0 1228 475">
  <defs>
    <clipPath id="clip-path">
      <rect id="Rectángulo_35867" data-name="Rectángulo 35867" width="1228" height="475" rx="10" fill="none"/>
    </clipPath>
    <clipPath id="clip-path-2">
      <rect id="Rectángulo_35868" data-name="Rectángulo 35868" width="1227.694" height="475" rx="13" transform="translate(0.285)" fill="none"/>
    </clipPath>
  </defs>
  <g id="pasos7" transform="translate(-185.999 -6514.488)">
    <g id="Grupo_132115" data-name="Grupo 132115" transform="translate(185.999 6514.488)">
      <g id="Grupo_131933" data-name="Grupo 131933">
        <g id="Grupo_131932" data-name="Grupo 131932" clip-path="url(#clip-path)">
          <g id="Enmascarar_grupo_70" data-name="Enmascarar grupo 70">
            <g id="Grupo_131152" data-name="Grupo 131152">
              <rect id="Rectángulo_35714" data-name="Rectángulo 35714" width="1228" height="475" fill="#f2e6dd"/>
              <path id="Trazado_123569" data-name="Trazado 123569" d="M1228,202.125s-55.28,11.708-136.984-51.752c-41.708-35.172-85.719-70.1-137.148-89.333C892.731,38.169,826.381,40.615,763.72,55.729c-58.168,14.031-114.1,37.894-169.471,60.092C488.412,158.251,382.378,205.6,270.613,229.838,189.765,247.369,87.7,254.478,30.862,180.951,16.807,162.769,6.919,141.6,0,119.689V474.648H1227.965C1227.965,387.6,1228,202.125,1228,202.125Z" fill="#fff" opacity="0.36" style="isolation: isolate"/>
              <path id="Trazado_123570" data-name="Trazado 123570" d="M0,417.838c208.4,98.208,506.15-52.248,710.014-61.255s283.087,100,517.965,25.764v92.3H0Z" fill="#fff" opacity="0.39" style="isolation: isolate"/>
            </g>
          </g>
        </g>
      </g>
      <g id="Grupo_132065" data-name="Grupo 132065" transform="translate(-0.131)">
        <g id="Grupo_132064" data-name="Grupo 132064" clip-path="url(#clip-path-2)">
          <g id="Grupo_132155" data-name="Grupo 132155" transform="translate(0.707 -8.856)">
            <g id="Grupo_132125" data-name="Grupo 132125" transform="translate(398.138 112.019)">
              <g id="Grupo_132124" data-name="Grupo 132124">
                <g id="Grupo_132117" data-name="Grupo 132117" transform="translate(135.817)">
                  <path id="Trazado_125192" data-name="Trazado 125192" d="M573.614,241.087s53.909-53.514,45.415-97c-9.13-46.743-47.48-28.413-51.637,27.453A218.484,218.484,0,0,0,573.614,241.087Z" transform="translate(-566.838 -117.462)" fill="#e0ccc2"/>
                </g>
                <g id="Grupo_132119" data-name="Grupo 132119" transform="translate(4.154 56.122)">
                  <g id="Grupo_132118" data-name="Grupo 132118">
                    <path id="Trazado_125193" data-name="Trazado 125193" d="M426.761,459.1c24.264-24.3,47.037-50.08,67.085-78A489.815,489.815,0,0,0,557.06,259.758a702.25,702.25,0,0,0,22.831-80.023c.921-4.042,7.317-3.018,6.388,1.059-10.741,47.115-25.169,93.543-46.7,136.92-21.311,42.944-49.3,82.088-81.351,117.65Q446.4,448.5,433.918,461.023Z" transform="translate(-426.761 -177.171)" fill="#cdbaaf"/>
                  </g>
                </g>
                <g id="Grupo_132120" data-name="Grupo 132120" transform="translate(111.682 126.34)">
                  <path id="Trazado_125194" data-name="Trazado 125194" d="M541.161,325.382s75.948,1.3,101.181-35.115c27.125-39.146-12.759-53.84-55.689-17.851A218.447,218.447,0,0,0,541.161,325.382Z" transform="translate(-541.161 -251.876)" fill="#e0ccc2"/>
                </g>
                <g id="Grupo_132121" data-name="Grupo 132121" transform="translate(48.829 115.817)">
                  <path id="Trazado_125195" data-name="Trazado 125195" d="M512.451,366.174s-48.638-58.345-36.093-100.836c13.485-45.677,49.94-23.823,48.826,32.186A218.427,218.427,0,0,1,512.451,366.174Z" transform="translate(-474.29 -240.68)" fill="#e0ccc2"/>
                </g>
                <g id="Grupo_132122" data-name="Grupo 132122" transform="translate(0 178.198)">
                  <path id="Trazado_125196" data-name="Trazado 125196" d="M460.5,432.542S411.865,374.2,424.409,331.706c13.485-45.677,49.94-23.823,48.827,32.187A218.442,218.442,0,0,1,460.5,432.542Z" transform="translate(-422.341 -307.048)" fill="#e0ccc2"/>
                </g>
                <g id="Grupo_132123" data-name="Grupo 132123" transform="translate(60.125 232.391)">
                  <path id="Trazado_125197" data-name="Trazado 125197" d="M486.309,413.687s73.053,20.808,106.811-7.885c36.289-30.844,1.531-55.31-49.218-31.585A218.469,218.469,0,0,0,486.309,413.687Z" transform="translate(-486.309 -364.704)" fill="#e0ccc2"/>
                </g>
              </g>
            </g>
            <g id="Grupo_132134" data-name="Grupo 132134" transform="translate(90.212 117.322)">
              <g id="Grupo_132133" data-name="Grupo 132133">
                <g id="Grupo_132126" data-name="Grupo 132126" transform="translate(32.81)">
                  <path id="Trazado_125198" data-name="Trazado 125198" d="M175.965,246.729s-53.908-53.514-45.414-97c9.13-46.742,47.479-28.412,51.636,27.454A218.453,218.453,0,0,1,175.965,246.729Z" transform="translate(-129.643 -123.104)" fill="#e0ccc2"/>
                </g>
                <g id="Grupo_132128" data-name="Grupo 132128" transform="translate(57.961 56.122)">
                  <g id="Grupo_132127" data-name="Grupo 132127">
                    <path id="Trazado_125199" data-name="Trazado 125199" d="M316.011,464.74c-24.264-24.3-47.037-50.08-67.084-78A489.76,489.76,0,0,1,185.712,265.4a702.234,702.234,0,0,1-22.831-80.023c-.921-4.043-7.317-3.018-6.388,1.059,10.742,47.114,25.169,93.543,46.7,136.92,21.312,42.944,49.3,82.088,81.352,117.65q11.836,13.133,24.314,25.658Z" transform="translate(-156.401 -182.812)" fill="#cdbaaf"/>
                  </g>
                </g>
                <g id="Grupo_132129" data-name="Grupo 132129" transform="translate(0 126.34)">
                  <path id="Trazado_125200" data-name="Trazado 125200" d="M204.778,331.024s-75.948,1.3-101.181-35.116c-27.125-39.145,12.759-53.84,55.689-17.85A218.446,218.446,0,0,1,204.778,331.024Z" transform="translate(-94.736 -257.518)" fill="#e0ccc2"/>
                </g>
                <g id="Grupo_132130" data-name="Grupo 132130" transform="translate(121.978 115.816)">
                  <path id="Trazado_125201" data-name="Trazado 125201" d="M237.267,371.816s48.639-58.346,36.093-100.837c-13.485-45.677-49.94-23.823-48.826,32.187A218.467,218.467,0,0,0,237.267,371.816Z" transform="translate(-224.509 -246.321)" fill="#e0ccc2"/>
                </g>
                <g id="Grupo_132131" data-name="Grupo 132131" transform="translate(170.806 178.198)">
                  <path id="Trazado_125202" data-name="Trazado 125202" d="M289.216,438.184s48.638-58.345,36.093-100.837c-13.484-45.677-49.94-23.822-48.826,32.187A218.459,218.459,0,0,0,289.216,438.184Z" transform="translate(-276.458 -312.69)" fill="#e0ccc2"/>
                </g>
                <g id="Grupo_132132" data-name="Grupo 132132" transform="translate(39.798 232.391)">
                  <path id="Trazado_125203" data-name="Trazado 125203" d="M258.879,419.328s-73.053,20.809-106.811-7.884c-36.289-30.844-1.531-55.31,49.218-31.585A218.455,218.455,0,0,1,258.879,419.328Z" transform="translate(-137.078 -370.346)" fill="#e0ccc2"/>
                </g>
              </g>
            </g>
            <g id="Grupo_132135" data-name="Grupo 132135" transform="translate(19.424 27.072)">
              <circle id="Elipse_4837" data-name="Elipse 4837" cx="31.947" cy="31.947" r="31.947" transform="matrix(0.226, -0.974, 0.974, 0.226, 269.446, 234.364)" fill="#d6cbc3"/>
              <circle id="Elipse_4838" data-name="Elipse 4838" cx="42.487" cy="42.487" r="42.487" transform="translate(0 252.644) rotate(-45)" fill="#d6cbc3"/>
              <circle id="Elipse_4839" data-name="Elipse 4839" cx="42.487" cy="42.487" r="42.487" transform="translate(438.853)" fill="#d6cbc3"/>
              <circle id="Elipse_4840" data-name="Elipse 4840" cx="35.236" cy="35.236" r="35.236" transform="translate(145.595 6.79)" fill="#d6cbc3"/>
              <circle id="Elipse_4841" data-name="Elipse 4841" cx="10.688" cy="10.688" r="10.688" transform="translate(619.137 130.218)" fill="#d6cbc3"/>
              <circle id="Elipse_4842" data-name="Elipse 4842" cx="8.604" cy="8.604" r="8.604" transform="matrix(0.169, -0.986, 0.986, 0.169, 358.675, 100.823)" fill="#d6cbc3"/>
            </g>
            <g id="Grupo_132154" data-name="Grupo 132154" transform="translate(76.299 26.856)">
              <path id="Trazado_125204" data-name="Trazado 125204" d="M429.025,123.111s-7.369,51.62,3.557,80.007,4.795,44.859-2.994,48.1c0,0,2.23-14.08-1.319-22.43,0,0,2.5,24.214-12.524,24.421,0,0-24.525,6.263-48.321,0,0,0-42.269,10.646-75.458-.626,0,0-12.108-6.053-8.559-25.048,0,0-8.135,16.074,3.134,25.674,0,0-25.261-1.46-8.98-41.956S287.587,116.8,287.587,116.8Z" transform="translate(-91.477 -32.259)" fill="#792c24"/>
              <g id="Grupo_132137" data-name="Grupo 132137" transform="translate(317.886 217.903)">
                <path id="Trazado_125205" data-name="Trazado 125205" d="M422.942,290.474a21.447,21.447,0,0,1,40.837-13.126c.571,1.774,29.165,131.713,29.165,131.713a18.138,18.138,0,0,1-34.529,11.1Z" transform="translate(-418.362 -258.912)" fill="#f19781"/>
                <g id="Grupo_132136" data-name="Grupo 132136">
                  <path id="Trazado_125206" data-name="Trazado 125206" d="M444.678,383.993l-25.365-92.734a25,25,0,0,1,47.621-15.225c.424,1.323,12.458,55.8,21.447,96.6A144.356,144.356,0,0,1,444.678,383.993Z" transform="translate(-418.135 -258.685)" fill="#1f405d"/>
                  <path id="Trazado_125207" data-name="Trazado 125207" d="M487.862,370.151a222.15,222.15,0,0,1-44.123,11.609s-1.4,4.754.215,7.293.6,11.365,4.27,12.046c0,0,28.151-2.939,44.17-12.205,0,0,2.006-3.3-.606-8.4S490.4,370.431,487.862,370.151Z" transform="translate(-419.64 -265.381)" fill="#4a6f8a"/>
                </g>
              </g>
              <g id="Grupo_132142" data-name="Grupo 132142" transform="translate(179.786 155.255)">
                <g id="Grupo_132141" data-name="Grupo 132141" transform="translate(0)">
                  <g id="Grupo_132139" data-name="Grupo 132139" transform="translate(70.98)">
                    <g id="Grupo_132138" data-name="Grupo 132138" transform="translate(3.518)">
                      <path id="Trazado_125208" data-name="Trazado 125208" d="M388.563,234.418l.12,31-37.925.149-.159-40.324A57.641,57.641,0,0,0,388.563,234.418Z" transform="translate(-350.477 -194.028)" fill="#f7a186"/>
                      <path id="Trazado_125209" data-name="Trazado 125209" d="M350.591,223.246l-.122-31.064,37.926-.149.16,40.391A57.641,57.641,0,0,1,350.591,223.246Z" transform="translate(-350.469 -192.033)" fill="#ec8c75"/>
                    </g>
                    <path id="Trazado_125210" data-name="Trazado 125210" d="M380.779,284.751c-13.653.318-30.608-31.009-34.053-35.119,7.353-1.316,18.394-3.889,24.8-3.961,6.072-.066,15.08,1.973,21.331,3.073C392.6,251.745,395.343,284.414,380.779,284.751Z" transform="translate(-346.726 -195.255)" fill="#f7a186"/>
                  </g>
                  <path id="Trazado_125211" data-name="Trazado 125211" d="M271.21,276.118c0-14.716,20.756-17.69,20.756-17.69,10.8-2.035,28.316-4.638,39.779-7.4,0,0,5.41-1.211,12.425-2.468,3.444,4.109,35.1,29.439,35.1,29.439s7.421-27.107,7.68-30.106c6.639,1.167,11.72,2.392,11.72,2.392,20.38,4.285,36.61,8.145,36.61,8.145s21.31,2.974,21.31,17.69c0,6.649-13.911,16.351-20.173,19.806v1.626c20.038,15.67,22.675,27.411,22.675,40.785,0,27.956-23.578,34.806-23.578,34.806l-6.981,76.436c-43.731,22.883-110.3-.634-110.3-.634-7.242-49.335-18.578-81.042-23.815-112.581a289.143,289.143,0,0,1-3.284-40.886C284.387,291.69,271.21,282.5,271.21,276.118Z" transform="translate(-271.21 -195.388)" fill="#24476c"/>
                  <path id="Trazado_125212" data-name="Trazado 125212" d="M390.748,231.667s5.636.747,15.317,15.248c0,0,1.8,13.326,2.287,28.967a97.76,97.76,0,0,0-10.59-7.315l-10.589,5.01s3.134-15.942,3.134-26.494C390.306,247.084,390.748,235,390.748,231.667Z" transform="translate(-278.176 -194.414)" fill="#3a5d7b"/>
                  <path id="Trazado_125213" data-name="Trazado 125213" d="M349.712,230.177l-.034,12.055c1.954,5.088,21.472,22,29.035,31.146,0,0-15.005-5.233-18.958-5.422,0,0-6.609,6.046-9.5,8.349,0,0-8.688-10.13-14.717-28.7C335.542,247.6,344.826,231.154,349.712,230.177Z" transform="translate(-275.074 -194.324)" fill="#3a5d7b"/>
                  <path id="Trazado_125214" data-name="Trazado 125214" d="M429.672,461.8s20.672,22.234,30.32,58.554c0,0-8.2,31.172-45.925,36.407l-18.131-40.793-19.685,40.79s-53.217,4.612-86.054-36.4c0,0,12.857-37.263,29.148-58.554Z" transform="translate(-272.351 -208.238)" fill="#24476c"/>
                  <g id="Grupo_132140" data-name="Grupo 132140" transform="translate(108.423 83.645)">
                    <path id="Trazado_125215" data-name="Trazado 125215" d="M400.53,502.289h0c.692,0,1.272-.385,1.254-1.078-.016-.572-2.678-101.2,7.654-122.04,17.675-35.653-.625-62.283-8.441-73.678l-.67-.95a100.945,100.945,0,0,1-11.321-22.66,1.254,1.254,0,0,0-2.384.782,101.427,101.427,0,0,0,11.636,23.314l.672.982c8.207,11.966,25.284,36.866,8.262,71.2-10.607,21.394-7.978,120.756-7.914,123.119C399.3,501.96,399.855,502.289,400.53,502.289Z" transform="translate(-386.562 -281.024)" fill="#1a3953"/>
                  </g>
                  <path id="Trazado_125216" data-name="Trazado 125216" d="M406.995,347.051c0-2.2,1.346-3.981,3.007-3.981s3.008,1.783,3.008,3.981-1.345,3.98-3.008,3.98S406.995,349.25,406.995,347.051Z" transform="translate(-279.367 -201.106)" fill="#4a6f8a"/>
                  <path id="Trazado_125217" data-name="Trazado 125217" d="M395.166,316.079c-.731-2.072-.055-4.2,1.511-4.755s3.43.681,4.161,2.754.055,4.2-1.511,4.753S395.9,318.153,395.166,316.079Z" transform="translate(-278.638 -199.191)" fill="#4a6f8a"/>
                  <path id="Trazado_125218" data-name="Trazado 125218" d="M377.915,285.623c-.869-2.017-.338-4.187,1.188-4.844s3.467.446,4.337,2.465.337,4.187-1.187,4.846S378.786,287.644,377.915,285.623Z" transform="translate(-277.595 -197.352)" fill="#4a6f8a"/>
                  <path id="Trazado_125219" data-name="Trazado 125219" d="M398.793,387.606c.527-2.134,2.322-3.528,4.008-3.112s2.629,2.484,2.1,4.619-2.32,3.527-4.008,3.111S398.267,389.741,398.793,387.606Z" transform="translate(-278.865 -203.59)" fill="#4a6f8a"/>
                  <path id="Trazado_125220" data-name="Trazado 125220" d="M392.338,428.331c0-2.2,1.346-3.982,3.008-3.982s3.007,1.783,3.007,3.982-1.345,3.98-3.007,3.98S392.338,430.529,392.338,428.331Z" transform="translate(-278.486 -205.988)" fill="#4a6f8a"/>
                  <path id="Trazado_125221" data-name="Trazado 125221" d="M391.005,468.3c0-2.2,1.347-3.982,3.008-3.982s3.008,1.784,3.008,3.982-1.345,3.98-3.008,3.98S391.005,470.5,391.005,468.3Z" transform="translate(-278.406 -208.389)" fill="#4a6f8a"/>
                  <path id="Trazado_125222" data-name="Trazado 125222" d="M391.005,514.94c0-2.2,1.347-3.982,3.008-3.982s3.008,1.783,3.008,3.982-1.345,3.98-3.008,3.98S391.005,517.138,391.005,514.94Z" transform="translate(-278.406 -211.191)" fill="#4a6f8a"/>
                  <path id="Trazado_125223" data-name="Trazado 125223" d="M455.209,356.122s-4.958,4.2-15.74,5.126c-21.761,1.879-57.454,5.793-88.921.737-13.2-2.121-22.9-8.789-32.845-16.582,0,0,5.926,33.835,47.292,33.152S452.615,382.955,455.209,356.122Z" transform="translate(-274.003 -201.246)" opacity="0.2"/>
                  <g id="Q4mahs" transform="matrix(0.985, -0.174, 0.174, 0.985, -2911.058, -2193.938)">
                    <g id="Grupo_133787" data-name="Grupo 133787" transform="translate(2530.703 2779.084)">
                      <path id="Trazado_126891" data-name="Trazado 126891" d="M2784.136,2812.429h-.26a.4.4,0,0,1-.145-.344q-.02-2.052,0-4.1a.562.562,0,0,1,.053-.25,2.276,2.276,0,0,1,1.073-.564,10.565,10.565,0,0,1,3.55-.692,14.923,14.923,0,0,0,3.353-.3,4.806,4.806,0,0,0,3.62-4.439,12.185,12.185,0,0,0-.852-4.853c-.453-1.286-1.047-2.521-1.438-3.831a12.731,12.731,0,0,1-.6-3.311,7.734,7.734,0,0,1,.686-3.561c.055-.118.1-.24.145-.362a.814.814,0,0,0-.918-1.124c-.5.06-1,.149-1.512.195a13.877,13.877,0,0,1-4.131-.261,15.3,15.3,0,0,1-2.652-.863.7.7,0,0,1-.332-.248,1.059,1.059,0,0,1-.053-.446q-.007-1.714,0-3.428a.933.933,0,0,1,.06-.443c.094-.16.25-.111.38-.1a1.793,1.793,0,0,1,.723.273,9.121,9.121,0,0,0,5.494,1.345,8.921,8.921,0,0,0,4.166-1.334,1.943,1.943,0,0,1,1.527-.227,1.014,1.014,0,0,1,.485.31c.889.888,1.781,1.774,2.665,2.668.32.324.688.594,1,.929a1.361,1.361,0,0,1-.181,1.99,19.83,19.83,0,0,0-2,1.6,4.028,4.028,0,0,0-1.175,3.918,18.965,18.965,0,0,0,1.149,3.412,33.728,33.728,0,0,1,1.431,3.935,9.671,9.671,0,0,1-1.164,8.128,11.849,11.849,0,0,1-3.064,3.276,7.536,7.536,0,0,1-3.352,1.23c-.625.087-1.257.025-1.88.076a24.8,24.8,0,0,0-2.556.166,4.938,4.938,0,0,0-2.5,1.226A1.681,1.681,0,0,1,2784.136,2812.429Z" transform="translate(-2767.225 -2779.084)" fill="#edbc00"/>
                      <path id="Trazado_126892" data-name="Trazado 126892" d="M2547.357,2779.153q0,2.208,0,4.415c0,.018-.007.036-.01.053a.311.311,0,0,1-.17.141,14.229,14.229,0,0,1-6.428,1.179,15.543,15.543,0,0,1-1.836-.221.86.86,0,0,0-.885.27.838.838,0,0,0-.083.946,7.788,7.788,0,0,1,.719,2.317,10.066,10.066,0,0,1-.184,3.542,25.875,25.875,0,0,1-1.372,4.022,17.661,17.661,0,0,0-1.147,3.786,7.543,7.543,0,0,0,.032,3.059,4.6,4.6,0,0,0,3.464,3.511,8.167,8.167,0,0,0,2.054.272,15.252,15.252,0,0,1,3.768.375,13.761,13.761,0,0,1,1.728.622.93.93,0,0,1,.324.2l.022.046q0,2.375,0,4.75h-.26a2.1,2.1,0,0,1-.913-.52,4.865,4.865,0,0,0-2.641-1.152,31.187,31.187,0,0,0-3.176-.137,8.37,8.37,0,0,1-2.981-.569,7.77,7.77,0,0,1-2.91-2.073,14.268,14.268,0,0,1-1.932-2.56,9.122,9.122,0,0,1-1.133-3.4,11,11,0,0,1,.672-4.939c.577-1.7,1.377-3.321,1.945-5.028a8.9,8.9,0,0,0,.479-2.083,3.875,3.875,0,0,0-.954-2.945,12.926,12.926,0,0,0-2.179-1.834,1.382,1.382,0,0,1-.669-.862v-.521a1.419,1.419,0,0,1,.494-.875c1.088-1.071,2.159-2.158,3.244-3.233a1.546,1.546,0,0,1,1.295-.608,1.916,1.916,0,0,1,.829.239,9.185,9.185,0,0,0,5.672,1.389,9.08,9.08,0,0,0,4.212-1.393A1.15,1.15,0,0,1,2547.357,2779.153Z" transform="translate(-2530.703 -2779.098)" fill="#fed842"/>
                      <path id="Trazado_126893" data-name="Trazado 126893" d="M2783.836,2847.639c.749.183,1.436.545,2.182.741a13.711,13.711,0,0,0,4.757.443c.519-.047,1.03-.13,1.543-.2a1,1,0,0,1,.99.354.926.926,0,0,1,.1,1.039,7.936,7.936,0,0,0-.739,2.378,9.839,9.839,0,0,0,.183,3.413,25.941,25.941,0,0,0,1.384,4.054,17.684,17.684,0,0,1,1.138,3.755,6.829,6.829,0,0,1-.379,4.165,4.979,4.979,0,0,1-3.788,2.755,14.411,14.411,0,0,1-2.587.168,11.065,11.065,0,0,0-4.318.927,1.258,1.258,0,0,1-.466.133h0c-.162-.121-.152-.3-.151-.47,0-.688-.033-1.377.023-2.064a.582.582,0,0,0-.032-.221c.016-1.63,0-3.26.008-4.89,0-.738.106-.8.755-.485.32.157.638.316.941.5.4.217.806.415,1.211.62a.82.82,0,0,0,.922-.067.842.842,0,0,0,.292-.874c-.162-.838-.292-1.682-.442-2.522a.871.871,0,0,1,.343-.906,23.648,23.648,0,0,0,1.9-1.865.792.792,0,0,0-.4-1.313,12.181,12.181,0,0,0-1.6-.266c-.115-.008-.229-.028-.343-.04a1.681,1.681,0,0,0-.491-.089c-.114-.009-.227-.02-.341-.028a.7.7,0,0,1-.654-.523c-.341-.817-.785-1.586-1.159-2.388a.888.888,0,0,0-.416-.393c-.167-.09-.372-.13-.476-.317a1.489,1.489,0,0,1-.039-.418c0-1.51,0-3.02,0-4.53a.824.824,0,0,1,.156-.578Z" transform="translate(-2767.181 -2843.169)" fill="#db9b00"/>
                      <path id="Trazado_126894" data-name="Trazado 126894" d="M2618.653,2847.638v5.585c0,.017,0,.033-.005.05a.24.24,0,0,1-.16.152,1.162,1.162,0,0,0-.708.714c-.361.716-.724,1.432-1.074,2.153a.786.786,0,0,1-.669.48c-.761.1-1.521.216-2.283.312-.119.015-.234.046-.35.071a.815.815,0,0,0-.692.607.855.855,0,0,0,.306.876c.629.566,1.2,1.195,1.811,1.774a.832.832,0,0,1,.277.839q-.235,1.244-.44,2.494a.862.862,0,0,0,.288.907.831.831,0,0,0,.977.039c.762-.435,1.565-.794,2.328-1.228a.44.44,0,0,0,.241-.423c0-.477,0-.954,0-1.431a.63.63,0,0,1,.083-.437c.148-.111.267-.031.37.069q1,.969,1.965,1.966a.334.334,0,0,1,.008.516c-.218.214-.372.515-.721.561-.425-.213-.854-.418-1.274-.642-.238-.128-.291-.059-.29.188.005,1.713,0,3.426,0,5.138a1.709,1.709,0,0,1-.447.624c-.389.374-.77.758-1.145,1.146a.994.994,0,0,1-.483.3,16.992,16.992,0,0,0-3.933-.378,6.875,6.875,0,0,1-2.69-.535,4.752,4.752,0,0,1-2.941-4.187,12.251,12.251,0,0,1,1.031-5.534c.427-1.124.912-2.225,1.27-3.376a11.183,11.183,0,0,0,.556-4.286,7.065,7.065,0,0,0-.553-2.2c-.072-.169-.142-.341-.225-.5a.958.958,0,0,1,.114-1.1,1,1,0,0,1,1.034-.314,14.922,14.922,0,0,0,2.582.241,13.415,13.415,0,0,0,4.917-.926A5.435,5.435,0,0,1,2618.653,2847.638Z" transform="translate(-2601.999 -2843.169)" fill="#edbc00"/>
                      <path id="Trazado_126895" data-name="Trazado 126895" d="M2754.226,3176.919c.67-.712,1.357-1.407,2.075-2.072q0,1.4,0,2.794a8.544,8.544,0,0,1-1.309-.471C2754.738,3177.1,2754.483,3177,2754.226,3176.919Z" transform="translate(-2739.654 -3149.046)" fill="#edbc00"/>
                      <path id="Trazado_126896" data-name="Trazado 126896" d="M2785.441,2944.377c.2-.212.4-.429.6-.633.122-.119.158-.208.017-.345-.729-.711-1.45-1.429-2.174-2.145-.2-.117-.154-.321-.156-.5-.012-.941-.005-1.881-.005-2.822q0-1.995,0-3.99a.909.909,0,0,1,.145-.617l.013-.016a1.135,1.135,0,0,1,.974.691c.394.838.808,1.666,1.2,2.507.1.217.262.183.428.19.1.077.227-.014.324.064a1.467,1.467,0,0,1,.521.066c.1.077.228-.015.324.064a9.428,9.428,0,0,1,1.661.259.94.94,0,0,1,.477,1.531c-.617.665-1.274,1.295-1.944,1.906a.736.736,0,0,0-.284.783c.167.825.28,1.66.438,2.487a1.008,1.008,0,0,1-.321,1.026.96.96,0,0,1-1.07.118C2786.206,2944.825,2785.829,2944.589,2785.441,2944.377Z" transform="translate(-2767.23 -2923.259)" fill="#edbc00"/>
                      <path id="Trazado_126897" data-name="Trazado 126897" d="M2826.348,2985.332a.483.483,0,0,1-.324-.063A.462.462,0,0,1,2826.348,2985.332Z" transform="translate(-2806.771 -2971.826)" fill="#ebb80d"/>
                      <path id="Trazado_126898" data-name="Trazado 126898" d="M2839.314,2987.327a.482.482,0,0,1-.324-.064A.463.463,0,0,1,2839.314,2987.327Z" transform="translate(-2818.891 -2973.69)" fill="#ebb70d"/>
                      <path id="Trazado_126899" data-name="Trazado 126899" d="M2698.287,2933.558q0,3.426.009,6.853c0,.357,0,.714.008,1.072,0,.661-.01,1.322-.005,1.983a.4.4,0,0,1-.233.415c-.8.409-1.6.825-2.388,1.253a1,1,0,0,1-1.511-1.13c.162-.873.306-1.748.465-2.621a.413.413,0,0,0-.127-.409c-.637-.618-1.267-1.245-1.907-1.86a1.071,1.071,0,0,1-.4-1.07.953.953,0,0,1,.861-.731c.888-.132,1.776-.263,2.666-.378a.512.512,0,0,0,.449-.309c.37-.76.762-1.509,1.128-2.271A1.217,1.217,0,0,1,2698.287,2933.558Z" transform="translate(-2681.644 -2923.488)" fill="#fed842"/>
                    </g>
                  </g>
                </g>
              </g>
              <g id="Grupo_132148" data-name="Grupo 132148" transform="translate(195.286)">
                <g id="Grupo_132147" data-name="Grupo 132147" transform="translate(6.607 12.486)">
                  <g id="Grupo_132145" data-name="Grupo 132145" transform="translate(15.54)">
                    <path id="Trazado_125224" data-name="Trazado 125224" d="M312.27,125.247S298.911,40.084,369.464,40.14c72.221.058,65.47,74.043,65.306,81.7-1.847,9.3-4.149,24.175-3.43,37.006,1.8,32.02-25.215,52.855-49.2,52.826-46.075-.059-63.058-45.417-63.058-45.417A202.27,202.27,0,0,1,312.27,125.247Z" transform="translate(-311.262 -40.14)" fill="#f7a186"/>
                    <g id="Grupo_132144" data-name="Grupo 132144" transform="translate(54.748 133.846)">
                      <g id="Grupo_132143" data-name="Grupo 132143" transform="translate(0 0)">
                        <path id="Trazado_125225" data-name="Trazado 125225" d="M369.509,182.54s17.892,3.944,34.634.54c0,0-3.192,15.3-17.556,15.048C373.052,197.888,369.622,185.509,369.509,182.54Z" transform="translate(-369.509 -182.54)" fill="#af2a2d"/>
                        <path id="Trazado_125226" data-name="Trazado 125226" d="M387.15,190.158c11.04.171,14.352-4.357,15.78-6.827-12.995,2.354-23.411.663-32.49-.6C371.383,185.513,376.743,189.995,387.15,190.158Z" transform="translate(-369.565 -182.551)" fill="#fff"/>
                      </g>
                    </g>
                    <g id="Grupo_131118" data-name="Grupo 131118" transform="translate(33.012 73.019)">
                      <ellipse id="Elipse_4807" data-name="Elipse 4807" cx="5.649" cy="4.342" rx="5.649" ry="4.342" transform="translate(0 33.934)" fill="#e28c79"/>
                      <ellipse id="Elipse_4808" data-name="Elipse 4808" cx="5.649" cy="4.342" rx="5.649" ry="4.342" transform="translate(72.146 33.934)" fill="#e28c79"/>
                      <path id="Trazado_123511" data-name="Trazado 123511" d="M394.451,172.138l-.246-.645c.045-.018,4.542-1.769,5.439-5.053s-5.689-12.006-5.756-12.094l.55-.418c.281.368,6.862,9.073,5.873,12.693S394.649,172.064,394.451,172.138Z" transform="translate(-349.238 -119.994)" fill="#13273e"/>
                      <g id="Grupo_131114" data-name="Grupo 131114" transform="translate(3.097)">
                        <path id="Trazado_123512" data-name="Trazado 123512" d="M349.808,122.71a30.517,30.517,0,0,1,5.982-3.162,25.144,25.144,0,0,1,6.661-1.611,25.523,25.523,0,0,1,6.92.3,31.413,31.413,0,0,1,6.651,2,1.382,1.382,0,1,1-1.066,2.551c-.034-.015-.072-.032-.105-.049a25.763,25.763,0,0,0-12.3-3.1,26.246,26.246,0,0,0-12.415,3.614.311.311,0,0,1-.328-.527Z" transform="translate(-349.679 -117.826)" fill="#873629"/>
                        <path id="Trazado_123513" data-name="Trazado 123513" d="M433.376,123.237a25.349,25.349,0,0,0-12.162-3.6,24.84,24.84,0,0,0-12.033,3.115,1.383,1.383,0,0,1-1.3-2.441c.034-.018.072-.037.107-.052a30.579,30.579,0,0,1,6.526-2,24.562,24.562,0,0,1,6.8-.306,24.236,24.236,0,0,1,6.542,1.606,29.6,29.6,0,0,1,5.851,3.155.311.311,0,1,1-.332.526h0Z" transform="translate(-353.131 -117.827)" fill="#873629"/>
                      </g>
                      <g id="Grupo_131115" data-name="Grupo 131115" transform="translate(4.861 23.089)">
                        <path id="Trazado_123516" data-name="Trazado 123516" d="M351.986,142.4a26.642,26.642,0,0,0,4.205,1.938,12.756,12.756,0,0,0,4.339.693,14.279,14.279,0,0,0,4.347-.79,35.808,35.808,0,0,0,4.273-1.851l.41.555a14.149,14.149,0,0,1-4.032,2.893,11.989,11.989,0,0,1-4.971,1.2,11.261,11.261,0,0,1-5.012-1.114,12.829,12.829,0,0,1-3.988-2.986Z" transform="translate(-351.556 -142.39)" fill="#13273e"/>
                        <path id="Trazado_123517" data-name="Trazado 123517" d="M406.712,142.4a26.593,26.593,0,0,0,4.2,1.938,12.751,12.751,0,0,0,4.338.693,14.285,14.285,0,0,0,4.348-.79,35.875,35.875,0,0,0,4.273-1.851l.41.555a14.122,14.122,0,0,1-4.032,2.893,11.989,11.989,0,0,1-4.971,1.2,11.268,11.268,0,0,1-5.013-1.114,12.836,12.836,0,0,1-3.987-2.986Z" transform="translate(-354.843 -142.39)" fill="#13273e"/>
                      </g>
                    </g>
                  </g>
                  <g id="Grupo_132146" data-name="Grupo 132146" transform="translate(0 84.759)">
                    <path id="Trazado_125227" data-name="Trazado 125227" d="M312.922,130.887s6.6,1.447,8.9,20.024-2.345,20.123-3.73,20.759c0,0-16.832,4.706-22.671-23.148C290.566,125.386,312.922,130.887,312.922,130.887Z" transform="translate(-294.729 -130.316)" fill="#f7a186"/>
                    <path id="Trazado_125228" data-name="Trazado 125228" d="M317.883,159.189s-12.261-6.14-2.687-12.3c0,0-3.216-14.039-11.422-10.867s-1.63,16.334,0,19.052C307.189,160.768,317.883,167.744,317.883,159.189Z" transform="translate(-295.03 -130.631)" fill="#d87c68"/>
                  </g>
                </g>
                <path id="Trazado_125229" data-name="Trazado 125229" d="M361.369,66.213s72.221-13.777,71.986,54.828c0,0,14.71-49.32-18.026-78.546-37.261-33.267-72.974-3.114-72.974-3.114S281.621,32.4,288.2,108.5c4.585,53.055,4.914,59.174,3.3,79.1-2.05,25.268-7.776,45.806,1.825,53.32s27.031,4.141,27.031,4.141,1.048-23.554.421-33.886c0,0,4.589,26.4,2.71,33.606,0,0,26.4,1.565,16.074-37.363-8.409-31.682-10.528-45.806-9.022-68.137C332.677,107.542,358.81,76.126,361.369,66.213Z" transform="translate(-287.7 -26.856)" fill="#873629"/>
                <path id="Trazado_125230" data-name="Trazado 125230" d="M303.773,53.5c22.93,14.905,40.364,21.45,53.619,22.673-2.26,3.96-5.222,8.789-8.363,14.249a427.939,427.939,0,0,1-61.192,3.325C288.827,73.772,295.457,61.284,303.773,53.5Z" transform="translate(-287.708 -28.457)" fill="#984238"/>
                <path id="Trazado_125231" data-name="Trazado 125231" d="M405.187,31.865a65.7,65.7,0,0,1,16.4,10.93,60.058,60.058,0,0,1,14.4,19.3,121.626,121.626,0,0,1-20.074,11.157,62.773,62.773,0,0,0-24.027-7.332C401.4,56.392,404.325,41.551,405.187,31.865Z" transform="translate(-293.958 -27.157)" fill="#984238"/>
                <path id="Trazado_125232" data-name="Trazado 125232" d="M345.848,40.181s14,13.474,19.014,26.832C364.862,67.013,364.823,50.3,345.848,40.181Z" transform="translate(-291.193 -27.657)" fill="#792c24"/>
              </g>
              <path id="Trazado_125233" data-name="Trazado 125233" d="M475.386,404.962a18.145,18.145,0,0,1,11.571,22.651A18.7,18.7,0,0,1,464.1,439.778h0s-31.809-4.267-125.689-39.721l6.956-22.1s86.372,9.238,128.552,26.573C474.2,404.645,475.386,404.962,475.386,404.962Z" transform="translate(-95.46 -47.947)" fill="#f19781"/>
              <g id="Grupo_132150" data-name="Grupo 132150" transform="translate(176.571 219.544)">
                <path id="Trazado_125234" data-name="Trazado 125234" d="M272.414,288.845a21.447,21.447,0,0,1,42.448-6.164c.268,1.842,6.9,134.727,6.9,134.727a18.139,18.139,0,0,1-35.9,5.216Z" transform="translate(-268.053 -260.665)" fill="#f7a186"/>
                <path id="Trazado_125235" data-name="Trazado 125235" d="M310.04,443.98A18.144,18.144,0,0,1,287.7,431.818a18.7,18.7,0,0,1,11.994-22.944h0s28.663-14.442,126.161-38.2l6.74,22.165s-76.5,41.153-121.1,50.664C311.2,443.572,310.04,443.98,310.04,443.98Z" transform="translate(-268.938 -267.054)" fill="#f7a186"/>
                <g id="Grupo_132149" data-name="Grupo 132149" transform="translate(0)">
                  <path id="Trazado_125236" data-name="Trazado 125236" d="M277.169,384.526l-9.147-95.7a25,25,0,0,1,49.522-6.861c.2,1.374,2.741,57.109,4.63,98.843A144.36,144.36,0,0,1,277.169,384.526Z" transform="translate(-267.789 -260.432)" fill="#284d6c"/>
                  <path id="Trazado_125237" data-name="Trazado 125237" d="M322.2,378.508a222.3,222.3,0,0,1-45.459,3.9s-2.187,4.444-1.034,7.218-1.352,11.3,2.15,12.6c0,0,28.238,1.917,45.605-4.478,0,0,2.542-2.91.837-8.379S324.659,379.218,322.2,378.508Z" transform="translate(-268.245 -267.524)" fill="#4a6f8a"/>
                </g>
              </g>
              <g id="Grupo_132151" data-name="Grupo 132151" transform="translate(191.781 312.265)">
                <path id="Trazado_125238" data-name="Trazado 125238" d="M359.057,381.27s-34.866-11.922-41.166-13.25c-4.835-1.021-14.619-3.655-21.236-5.87-1.981-.662-8.475-4.153-9.176-2.738-.467.947-1.854,2.818,1.94,6.548s17.974,7.031,17.974,7.031-6.2,1.827-11.461,3.387-11.117,2.239-11.752,3.574c0,0-1.887,4.568,5.645,4.959,0,0-5.013.7-4.829,2.784.434,4.926,4.441,4.535,8.962,4.3s12.776-1.9,16.663-1.165l-13.013,6.847s-4.97,2.779-5.477,3.96.146,3.992,5.041,2.693c5.519-1.465,14.149-8.928,25.9-5.219l36.041-11.448Z" transform="translate(-283.971 -359.077)" fill="#f19781"/>
                <path id="Trazado_125239" data-name="Trazado 125239" d="M290.2,386.228s22.051-2.7,22.034-4.732S297.7,384.754,290.2,386.228Z" transform="translate(-284.345 -360.396)" fill="#df8372"/>
                <path id="Trazado_125240" data-name="Trazado 125240" d="M308.893,373.757s7.6-1.111,7.072-1.732S311.293,372.588,308.893,373.757Z" transform="translate(-285.468 -359.845)" fill="#df8372"/>
                <path id="Trazado_125241" data-name="Trazado 125241" d="M312.326,392.718s4.844-1.15,4.524-1.839C316.1,389.269,312.326,392.718,312.326,392.718Z" transform="translate(-285.674 -360.962)" fill="#df8372"/>
              </g>
              <g id="Grupo_132152" data-name="Grupo 132152" transform="translate(313.693 316.763)">
                <path id="Trazado_125242" data-name="Trazado 125242" d="M425.3,398.707a43.2,43.2,0,0,0,29.011-1.12l15.043,2.62s4.714-1.51,2.169-6.127c0,0,2.072-.039,2.035-2.857a16.725,16.725,0,0,0-1.33-4.266c1.8-.743,2.27-4.383-.235-6.3,0,0,2.074-2.349-.345-5.362-2.219-2.762-9.615-9.55-13.041-11.115s-18.941,2.961-34.449,8.005C407.944,377.457,412.293,395.711,425.3,398.707Z" transform="translate(-413.675 -363.863)" fill="#f7a186"/>
                <path id="Trazado_125243" data-name="Trazado 125243" d="M474.511,395.753s-10.362-5.114-10.986-3.809S474.511,395.753,474.511,395.753Z" transform="translate(-416.668 -365.537)" fill="#ec8c75"/>
                <path id="Trazado_125244" data-name="Trazado 125244" d="M475.217,388s-11.274-8.062-11.691-6.6S475.217,388,475.217,388Z" transform="translate(-416.668 -364.906)" fill="#ec8c75"/>
                <path id="Trazado_125245" data-name="Trazado 125245" d="M475.075,381.183s-9.577-9.337-10-8.472S475.075,381.183,475.075,381.183Z" transform="translate(-416.762 -364.391)" fill="#ec8c75"/>
              </g>
              <g id="Grupo_132153" data-name="Grupo 132153" transform="translate(0 91.199)">
                <circle id="Elipse_4843" data-name="Elipse 4843" cx="10.688" cy="10.688" r="10.688" transform="translate(83.473 104.764) rotate(-45)" fill="#9c948e"/>
                <circle id="Elipse_4844" data-name="Elipse 4844" cx="10.688" cy="10.688" r="10.688" transform="translate(442.121 169.254)" fill="#9c948e"/>
                <path id="Trazado_125246" data-name="Trazado 125246" d="M171.549,325.015a5.389,5.389,0,1,1-5.39-5.389A5.389,5.389,0,0,1,171.549,325.015Z" transform="translate(-84.79 -135.642)" fill="#9c948e"/>
                <path id="Trazado_125247" data-name="Trazado 125247" d="M722.232,277.115a4.035,4.035,0,1,1-4.035-4.035A4.036,4.036,0,0,1,722.232,277.115Z" transform="translate(-118.032 -132.846)" fill="#9c948e"/>
                <path id="Trazado_125248" data-name="Trazado 125248" d="M91.343,129.588a5.7,5.7,0,1,1-5.7-5.7A5.7,5.7,0,0,1,91.343,129.588Z" transform="translate(-79.934 -123.884)" fill="#9c948e"/>
              </g>
            </g>
          </g>
        </g>
      </g>
    </g>
    <g id="Grupo_132156" data-name="Grupo 132156" transform="translate(561.64 4012.128)">
      <rect id="Rectángulo_35706" data-name="Rectángulo 35706" width="362" height="110" rx="12" transform="translate(354.359 2715.36)" fill="#ffb840"/>
      <path id="Trazado_126994" data-name="Trazado 126994" d="M2.828,15.773H8.219V17H1.32V5.625H2.828ZM14.922,17a3.036,3.036,0,0,1-.2-.891,3.225,3.225,0,0,1-2.406,1.047,2.984,2.984,0,0,1-2.051-.707,2.287,2.287,0,0,1-.8-1.793,2.39,2.39,0,0,1,1-2.051,4.733,4.733,0,0,1,2.824-.73H14.7v-.664A1.623,1.623,0,0,0,14.242,10a1.821,1.821,0,0,0-1.336-.449,2.107,2.107,0,0,0-1.3.391,1.151,1.151,0,0,0-.523.945H9.633a2,2,0,0,1,.449-1.223A3.066,3.066,0,0,1,11.3,8.734a4.1,4.1,0,0,1,1.691-.344,3.342,3.342,0,0,1,2.289.73,2.635,2.635,0,0,1,.859,2.012v3.891a4.757,4.757,0,0,0,.3,1.852V17Zm-2.4-1.1a2.54,2.54,0,0,0,1.289-.352,2.127,2.127,0,0,0,.883-.914V12.9H13.563q-2.656,0-2.656,1.555a1.316,1.316,0,0,0,.453,1.063A1.742,1.742,0,0,0,12.523,15.9Zm16.984-3.031a5.062,5.062,0,0,1-.883,3.109,2.829,2.829,0,0,1-2.391,1.18,3.1,3.1,0,0,1-2.422-.977v4.07H22.367V8.547h1.32l.07.938a2.977,2.977,0,0,1,2.453-1.094,2.882,2.882,0,0,1,2.41,1.148,5.117,5.117,0,0,1,.887,3.2ZM28.063,12.7a3.735,3.735,0,0,0-.609-2.258,1.963,1.963,0,0,0-1.672-.828,2.125,2.125,0,0,0-1.969,1.164V14.82A2.129,2.129,0,0,0,25.8,15.977a1.954,1.954,0,0,0,1.652-.824A4.077,4.077,0,0,0,28.063,12.7Zm2.9-.008a4.993,4.993,0,0,1,.488-2.234A3.643,3.643,0,0,1,32.809,8.93,3.7,3.7,0,0,1,34.8,8.391a3.565,3.565,0,0,1,2.793,1.2,4.6,4.6,0,0,1,1.066,3.18v.1a5.036,5.036,0,0,1-.473,2.215,3.589,3.589,0,0,1-1.352,1.527,3.743,3.743,0,0,1-2.02.547,3.556,3.556,0,0,1-2.785-1.2A4.575,4.575,0,0,1,30.961,12.8Zm1.453.172a3.616,3.616,0,0,0,.652,2.258,2.211,2.211,0,0,0,3.5-.012,3.955,3.955,0,0,0,.648-2.418,3.61,3.61,0,0,0-.66-2.254A2.1,2.1,0,0,0,34.8,9.578a2.075,2.075,0,0,0-1.727.852A3.925,3.925,0,0,0,32.414,12.867ZM42.039,17H40.594V5h1.445Zm3.883,0H44.477V8.547h1.445ZM44.359,6.3a.863.863,0,0,1,.215-.594.807.807,0,0,1,.637-.242.819.819,0,0,1,.641.242.854.854,0,0,1,.219.594.826.826,0,0,1-.219.586.834.834,0,0,1-.641.234.821.821,0,0,1-.637-.234A.834.834,0,0,1,44.359,6.3Zm7.266,9.672a2.082,2.082,0,0,0,1.352-.469,1.649,1.649,0,0,0,.641-1.172h1.367a2.621,2.621,0,0,1-.5,1.383,3.293,3.293,0,0,1-1.23,1.047,3.55,3.55,0,0,1-1.629.391A3.482,3.482,0,0,1,48.879,16a4.59,4.59,0,0,1-1.02-3.152v-.242a5.089,5.089,0,0,1,.453-2.2,3.451,3.451,0,0,1,1.3-1.492,3.7,3.7,0,0,1,2-.531,3.39,3.39,0,0,1,2.363.852,3.043,3.043,0,0,1,1,2.211H53.617A1.992,1.992,0,0,0,53,10.105a1.932,1.932,0,0,0-1.379-.527,2.023,2.023,0,0,0-1.707.793,3.724,3.724,0,0,0-.605,2.293v.273a3.65,3.65,0,0,0,.6,2.25A2.033,2.033,0,0,0,51.625,15.977ZM58.18,17H56.727V8.547H58.18ZM58.2,5.008h1.75L57.852,7.3l-1.164,0ZM65.781,17a3.036,3.036,0,0,1-.2-.891,3.225,3.225,0,0,1-2.406,1.047,2.984,2.984,0,0,1-2.051-.707,2.287,2.287,0,0,1-.8-1.793,2.39,2.39,0,0,1,1-2.051,4.733,4.733,0,0,1,2.824-.73h1.406v-.664A1.623,1.623,0,0,0,65.1,10a1.821,1.821,0,0,0-1.336-.449,2.107,2.107,0,0,0-1.3.391,1.151,1.151,0,0,0-.523.945H60.492a2,2,0,0,1,.449-1.223,3.066,3.066,0,0,1,1.219-.934,4.1,4.1,0,0,1,1.691-.344,3.342,3.342,0,0,1,2.289.73A2.635,2.635,0,0,1,67,11.133v3.891a4.757,4.757,0,0,0,.3,1.852V17Zm-2.4-1.1a2.54,2.54,0,0,0,1.289-.352,2.127,2.127,0,0,0,.883-.914V12.9H64.422q-2.656,0-2.656,1.555a1.316,1.316,0,0,0,.453,1.063A1.742,1.742,0,0,0,63.383,15.9Zm11.2-7.352.039.938a3.122,3.122,0,0,1,2.508-1.094A2.417,2.417,0,0,1,79.547,9.75a3.2,3.2,0,0,1,1.1-.984,3.242,3.242,0,0,1,1.6-.375q2.781,0,2.828,2.945V17H83.625V11.422a1.941,1.941,0,0,0-.414-1.355,1.823,1.823,0,0,0-1.391-.449,1.916,1.916,0,0,0-1.336.48,1.949,1.949,0,0,0-.617,1.293V17H78.414V11.461a1.613,1.613,0,0,0-1.8-1.844,1.934,1.934,0,0,0-1.945,1.211V17H73.219V8.547Zm17.883,7.617a3.07,3.07,0,0,1-2.477.992,2.628,2.628,0,0,1-2.059-.785,3.4,3.4,0,0,1-.715-2.324v-5.5h1.445v5.461q0,1.922,1.563,1.922a2.163,2.163,0,0,0,2.2-1.234V8.547h1.445V17H92.5Zm5.094-7.617v9.43q0,2.438-2.211,2.438a2.7,2.7,0,0,1-.883-.14V19.125a2.794,2.794,0,0,0,.656.063.982.982,0,0,0,.738-.262,1.3,1.3,0,0,0,.254-.911V8.547ZM95.969,6.3a.867.867,0,0,1,.215-.59.79.79,0,0,1,.629-.246.819.819,0,0,1,.641.242.854.854,0,0,1,.219.594.826.826,0,0,1-.219.586.834.834,0,0,1-.641.234.808.808,0,0,1-.633-.234A.843.843,0,0,1,95.969,6.3Zm7.43,10.852a3.693,3.693,0,0,1-2.8-1.129,4.19,4.19,0,0,1-1.078-3.02v-.266A5.073,5.073,0,0,1,100,10.5a3.748,3.748,0,0,1,1.344-1.547,3.378,3.378,0,0,1,1.871-.559,3.166,3.166,0,0,1,2.563,1.086,4.7,4.7,0,0,1,.914,3.109v.6h-5.727a3,3,0,0,0,.73,2.02,2.3,2.3,0,0,0,1.777.77,2.517,2.517,0,0,0,1.3-.312,3.259,3.259,0,0,0,.93-.828l.883.688A3.55,3.55,0,0,1,103.4,17.156Zm-.18-7.578a1.928,1.928,0,0,0-1.469.637A3.1,3.1,0,0,0,101.016,12h4.234v-.109a2.753,2.753,0,0,0-.594-1.707A1.815,1.815,0,0,0,103.219,9.578Zm9.234.266a4.331,4.331,0,0,0-.711-.055A1.9,1.9,0,0,0,109.813,11v6h-1.445V8.547h1.406l.023.977a2.251,2.251,0,0,1,2.016-1.133,1.477,1.477,0,0,1,.641.109ZM117.4,12.7a4.968,4.968,0,0,1,.914-3.145,3.151,3.151,0,0,1,4.836-.074l.07-.937h1.32V16.8a3.439,3.439,0,0,1-.973,2.586,3.589,3.589,0,0,1-2.613.945,4.348,4.348,0,0,1-1.789-.391,3.08,3.08,0,0,1-1.336-1.07l.75-.867a2.826,2.826,0,0,0,2.273,1.148,2.214,2.214,0,0,0,1.645-.594,2.269,2.269,0,0,0,.59-1.672v-.727a2.971,2.971,0,0,1-2.367,1,2.887,2.887,0,0,1-2.4-1.2A5.224,5.224,0,0,1,117.4,12.7Zm1.453.164a3.79,3.79,0,0,0,.586,2.246,1.9,1.9,0,0,0,1.641.816,2.117,2.117,0,0,0,2.008-1.242V10.828a2.142,2.142,0,0,0-1.992-1.211,1.921,1.921,0,0,0-1.648.82A4.128,4.128,0,0,0,118.852,12.867Zm11.375,4.289a3.693,3.693,0,0,1-2.8-1.129,4.19,4.19,0,0,1-1.078-3.02v-.266a5.073,5.073,0,0,1,.48-2.246,3.748,3.748,0,0,1,1.344-1.547,3.378,3.378,0,0,1,1.871-.559,3.166,3.166,0,0,1,2.563,1.086,4.7,4.7,0,0,1,.914,3.109v.6H127.8a3,3,0,0,0,.73,2.02,2.3,2.3,0,0,0,1.777.77,2.517,2.517,0,0,0,1.3-.312,3.258,3.258,0,0,0,.93-.828l.883.688A3.55,3.55,0,0,1,130.227,17.156Zm-.18-7.578a1.928,1.928,0,0,0-1.469.637A3.1,3.1,0,0,0,127.844,12h4.234v-.109a2.753,2.753,0,0,0-.594-1.707A1.815,1.815,0,0,0,130.047,9.578Zm6.516-1.031.047,1.063a3.08,3.08,0,0,1,2.531-1.219q2.68,0,2.7,3.023V17H140.4V11.406a1.946,1.946,0,0,0-.418-1.352,1.675,1.675,0,0,0-1.277-.437,2.086,2.086,0,0,0-1.234.375,2.546,2.546,0,0,0-.828.984V17H135.2V8.547Zm10.969,8.609a3.693,3.693,0,0,1-2.8-1.129,4.19,4.19,0,0,1-1.078-3.02v-.266a5.073,5.073,0,0,1,.48-2.246,3.748,3.748,0,0,1,1.344-1.547,3.378,3.378,0,0,1,1.871-.559,3.166,3.166,0,0,1,2.563,1.086,4.7,4.7,0,0,1,.914,3.109v.6H145.1a3,3,0,0,0,.73,2.02,2.3,2.3,0,0,0,1.777.77,2.517,2.517,0,0,0,1.3-.312,3.258,3.258,0,0,0,.93-.828l.883.688A3.55,3.55,0,0,1,147.531,17.156Zm-.18-7.578a1.928,1.928,0,0,0-1.469.637A3.1,3.1,0,0,0,145.148,12h4.234v-.109a2.753,2.753,0,0,0-.594-1.707A1.815,1.815,0,0,0,147.352,9.578Zm9.234.266a4.331,4.331,0,0,0-.711-.055A1.9,1.9,0,0,0,153.945,11v6H152.5V8.547h1.406l.023.977a2.251,2.251,0,0,1,2.016-1.133,1.477,1.477,0,0,1,.641.109ZM162.82,17a3.036,3.036,0,0,1-.2-.891,3.225,3.225,0,0,1-2.406,1.047,2.984,2.984,0,0,1-2.051-.707,2.287,2.287,0,0,1-.8-1.793,2.39,2.39,0,0,1,1-2.051,4.733,4.733,0,0,1,2.824-.73h1.406v-.664A1.623,1.623,0,0,0,162.141,10a1.821,1.821,0,0,0-1.336-.449,2.107,2.107,0,0,0-1.3.391,1.151,1.151,0,0,0-.523.945h-1.453a2,2,0,0,1,.449-1.223,3.066,3.066,0,0,1,1.219-.934,4.1,4.1,0,0,1,1.691-.344,3.342,3.342,0,0,1,2.289.73,2.635,2.635,0,0,1,.859,2.012v3.891a4.757,4.757,0,0,0,.3,1.852V17Zm-2.4-1.1a2.54,2.54,0,0,0,1.289-.352,2.127,2.127,0,0,0,.883-.914V12.9h-1.133q-2.656,0-2.656,1.555a1.316,1.316,0,0,0,.453,1.063A1.742,1.742,0,0,0,160.422,15.9Zm11.2-7.352.039.938a3.122,3.122,0,0,1,2.508-1.094,2.417,2.417,0,0,1,2.414,1.359,3.2,3.2,0,0,1,1.1-.984,3.242,3.242,0,0,1,1.6-.375q2.781,0,2.828,2.945V17h-1.445V11.422a1.941,1.941,0,0,0-.414-1.355,1.823,1.823,0,0,0-1.391-.449,1.917,1.917,0,0,0-1.336.48,1.949,1.949,0,0,0-.617,1.293V17h-1.453V11.461a1.613,1.613,0,0,0-1.8-1.844,1.934,1.934,0,0,0-1.945,1.211V17h-1.445V8.547ZM189.508,17a3.036,3.036,0,0,1-.2-.891,3.225,3.225,0,0,1-2.406,1.047,2.984,2.984,0,0,1-2.051-.707,2.287,2.287,0,0,1-.8-1.793,2.39,2.39,0,0,1,1-2.051,4.733,4.733,0,0,1,2.824-.73h1.406v-.664A1.623,1.623,0,0,0,188.828,10a1.821,1.821,0,0,0-1.336-.449,2.107,2.107,0,0,0-1.3.391,1.151,1.151,0,0,0-.523.945h-1.453a2,2,0,0,1,.449-1.223,3.066,3.066,0,0,1,1.219-.934,4.1,4.1,0,0,1,1.691-.344,3.342,3.342,0,0,1,2.289.73,2.635,2.635,0,0,1,.859,2.012v3.891a4.757,4.757,0,0,0,.3,1.852V17Zm-2.4-1.1a2.54,2.54,0,0,0,1.289-.352,2.127,2.127,0,0,0,.883-.914V12.9h-1.133q-2.656,0-2.656,1.555a1.316,1.316,0,0,0,.453,1.063A1.742,1.742,0,0,0,187.109,15.9ZM188.445,5h1.75L188.1,7.3l-1.164,0Zm9.469,9.758a1.064,1.064,0,0,0-.441-.91,4.249,4.249,0,0,0-1.539-.559,7.277,7.277,0,0,1-1.742-.562,2.479,2.479,0,0,1-.953-.781,1.869,1.869,0,0,1-.309-1.078,2.193,2.193,0,0,1,.879-1.758,3.432,3.432,0,0,1,2.246-.719,3.532,3.532,0,0,1,2.332.742,2.357,2.357,0,0,1,.895,1.9h-1.453a1.3,1.3,0,0,0-.5-1.023,1.888,1.888,0,0,0-1.27-.43,1.976,1.976,0,0,0-1.234.344,1.082,1.082,0,0,0-.445.9.877.877,0,0,0,.414.789,5.1,5.1,0,0,0,1.5.508,7.8,7.8,0,0,1,1.754.578,2.558,2.558,0,0,1,1,.809,1.988,1.988,0,0,1,.324,1.152,2.163,2.163,0,0,1-.906,1.816,3.8,3.8,0,0,1-2.352.684,4.257,4.257,0,0,1-1.8-.359,2.922,2.922,0,0,1-1.223-1,2.42,2.42,0,0,1-.441-1.395h1.445a1.5,1.5,0,0,0,.582,1.152,2.258,2.258,0,0,0,1.434.426,2.331,2.331,0,0,0,1.316-.332A1.02,1.02,0,0,0,197.914,14.758Zm9.766-8.289V8.547h1.445V10.2H207.68v4.219a1.007,1.007,0,0,0,.18.672.9.9,0,0,0,.688.2,3.6,3.6,0,0,0,.664-.055v1.711a4.648,4.648,0,0,1-1.367.2,2.156,2.156,0,0,1-2.422-2.4V10.2h-1.234V8.547h1.234V6.469Zm7.453,4.2a6.134,6.134,0,0,0-.812-.062,1.654,1.654,0,0,0-1.68.867V17h-2.258V8.547h2.133l.063,1.008a2.092,2.092,0,0,1,1.883-1.164,2.366,2.366,0,0,1,.7.1ZM220.883,17a2.507,2.507,0,0,1-.227-.758,2.732,2.732,0,0,1-2.133.914,3,3,0,0,1-2.059-.719,2.312,2.312,0,0,1-.816-1.812,2.389,2.389,0,0,1,1-2.062,4.915,4.915,0,0,1,2.879-.727h1.039v-.484a1.393,1.393,0,0,0-.3-.937,1.183,1.183,0,0,0-.949-.352,1.345,1.345,0,0,0-.895.273.929.929,0,0,0-.324.75h-2.258a2.268,2.268,0,0,1,.453-1.359,3,3,0,0,1,1.281-.98,4.669,4.669,0,0,1,1.859-.355,3.689,3.689,0,0,1,2.48.785,2.747,2.747,0,0,1,.918,2.207v3.664a4.041,4.041,0,0,0,.336,1.82V17Zm-1.867-1.57a1.945,1.945,0,0,0,.922-.223,1.462,1.462,0,0,0,.625-.6V13.156h-.844q-1.7,0-1.8,1.172l-.008.133a.9.9,0,0,0,.3.7A1.153,1.153,0,0,0,219.016,15.43Zm7.625-6.883.07.977a2.951,2.951,0,0,1,2.43-1.133,2.453,2.453,0,0,1,2,.789,3.682,3.682,0,0,1,.672,2.359V17h-2.258V11.594a1.465,1.465,0,0,0-.312-1.043,1.4,1.4,0,0,0-1.039-.324,1.553,1.553,0,0,0-1.43.813V17h-2.258V8.547Zm6.531,4.148a5.053,5.053,0,0,1,.887-3.148,2.9,2.9,0,0,1,2.434-1.156,2.6,2.6,0,0,1,2.164,1.039l.148-.883h1.984v11.7h-2.266V16.273a2.6,2.6,0,0,1-2.047.883,2.878,2.878,0,0,1-2.406-1.172A5.3,5.3,0,0,1,233.172,12.7Zm2.258.16a3.314,3.314,0,0,0,.426,1.847,1.363,1.363,0,0,0,1.2.634,1.518,1.518,0,0,0,1.469-.829v-3.5a1.506,1.506,0,0,0-1.453-.8,1.38,1.38,0,0,0-1.211.634A3.661,3.661,0,0,0,235.43,12.856Zm12.2,3.285a2.831,2.831,0,0,1-2.312,1.016,2.67,2.67,0,0,1-2.074-.781,3.335,3.335,0,0,1-.73-2.289V8.547h2.258v5.467q0,1.322,1.2,1.322a1.63,1.63,0,0,0,1.578-.8V8.547h2.266V17h-2.125ZM253.9,17h-2.266V8.547H253.9ZM251.5,6.359a1.112,1.112,0,0,1,.34-.836,1.465,1.465,0,0,1,1.848,0,1.105,1.105,0,0,1,.344.836,1.109,1.109,0,0,1-.348.844,1.448,1.448,0,0,1-1.836,0A1.109,1.109,0,0,1,251.5,6.359ZM258.141,17h-2.266V5h2.266Zm4.242,0h-2.266V8.547h2.266Zm-2.4-10.641a1.112,1.112,0,0,1,.34-.836,1.465,1.465,0,0,1,1.848,0,1.105,1.105,0,0,1,.344.836,1.108,1.108,0,0,1-.348.844,1.448,1.448,0,0,1-1.836,0A1.108,1.108,0,0,1,259.984,6.359Zm3.906,6.352a5.094,5.094,0,0,1,.887-3.148A2.877,2.877,0,0,1,267.2,8.391a2.589,2.589,0,0,1,2.039.922V5h2.266V17h-2.039l-.109-.9a2.657,2.657,0,0,1-2.172,1.055,2.869,2.869,0,0,1-2.395-1.176A5.258,5.258,0,0,1,263.891,12.711Zm2.258.168a3.337,3.337,0,0,0,.414,1.823,1.349,1.349,0,0,0,1.2.634,1.511,1.511,0,0,0,1.477-.884V11.111a1.489,1.489,0,0,0-1.461-.884Q266.148,10.227,266.148,12.879ZM278.156,17a2.508,2.508,0,0,1-.227-.758,2.732,2.732,0,0,1-2.133.914,3,3,0,0,1-2.059-.719,2.312,2.312,0,0,1-.816-1.812,2.389,2.389,0,0,1,1-2.062,4.915,4.915,0,0,1,2.879-.727h1.039v-.484a1.393,1.393,0,0,0-.3-.937,1.183,1.183,0,0,0-.949-.352,1.345,1.345,0,0,0-.895.273.929.929,0,0,0-.324.75h-2.258a2.268,2.268,0,0,1,.453-1.359,3,3,0,0,1,1.281-.98,4.669,4.669,0,0,1,1.859-.355,3.689,3.689,0,0,1,2.48.785,2.747,2.747,0,0,1,.918,2.207v3.664a4.041,4.041,0,0,0,.336,1.82V17Zm-1.867-1.57a1.945,1.945,0,0,0,.922-.223,1.462,1.462,0,0,0,.625-.6V13.156h-.844q-1.7,0-1.8,1.172l-.008.133a.9.9,0,0,0,.3.7A1.153,1.153,0,0,0,276.289,15.43Zm5.2-2.719a5.094,5.094,0,0,1,.887-3.148A2.877,2.877,0,0,1,284.8,8.391a2.589,2.589,0,0,1,2.039.922V5H289.1V17h-2.039l-.109-.9a2.657,2.657,0,0,1-2.172,1.055,2.869,2.869,0,0,1-2.395-1.176A5.258,5.258,0,0,1,281.484,12.711Zm2.258.168a3.337,3.337,0,0,0,.414,1.823,1.349,1.349,0,0,0,1.2.634,1.511,1.511,0,0,0,1.477-.884V11.111a1.489,1.489,0,0,0-1.461-.884Q283.742,10.227,283.742,12.879ZM300.281,17a3.036,3.036,0,0,1-.2-.891,3.225,3.225,0,0,1-2.406,1.047,2.984,2.984,0,0,1-2.051-.707,2.288,2.288,0,0,1-.8-1.793,2.39,2.39,0,0,1,1-2.051,4.733,4.733,0,0,1,2.824-.73h1.406v-.664A1.623,1.623,0,0,0,299.6,10a1.821,1.821,0,0,0-1.336-.449,2.108,2.108,0,0,0-1.3.391,1.151,1.151,0,0,0-.523.945h-1.453a2,2,0,0,1,.449-1.223,3.066,3.066,0,0,1,1.219-.934,4.1,4.1,0,0,1,1.691-.344,3.342,3.342,0,0,1,2.289.73,2.635,2.635,0,0,1,.859,2.012v3.891a4.757,4.757,0,0,0,.3,1.852V17Zm-2.4-1.1a2.54,2.54,0,0,0,1.289-.352,2.126,2.126,0,0,0,.883-.914V12.9h-1.133q-2.656,0-2.656,1.555a1.316,1.316,0,0,0,.453,1.063A1.742,1.742,0,0,0,297.883,15.9ZM2.664,41H1.219V29H2.664ZM10.2,41a3.036,3.036,0,0,1-.2-.891,3.225,3.225,0,0,1-2.406,1.047,2.984,2.984,0,0,1-2.051-.707,2.287,2.287,0,0,1-.8-1.793,2.39,2.39,0,0,1,1-2.051,4.733,4.733,0,0,1,2.824-.73H9.969v-.664A1.623,1.623,0,0,0,9.516,34a1.821,1.821,0,0,0-1.336-.449,2.107,2.107,0,0,0-1.3.391,1.151,1.151,0,0,0-.523.945H4.906a2,2,0,0,1,.449-1.223,3.066,3.066,0,0,1,1.219-.934,4.1,4.1,0,0,1,1.691-.344,3.342,3.342,0,0,1,2.289.73,2.635,2.635,0,0,1,.859,2.012v3.891a4.757,4.757,0,0,0,.3,1.852V41ZM7.8,39.9a2.54,2.54,0,0,0,1.289-.352,2.127,2.127,0,0,0,.883-.914V36.9H8.836q-2.656,0-2.656,1.555a1.316,1.316,0,0,0,.453,1.063A1.742,1.742,0,0,0,7.8,39.9Zm12.633-.859,2.094-6.492H24L20.969,41h-1.1L16.8,32.547h1.477ZM26.961,41H25.508V32.547h1.453Zm.016-11.992h1.75l-2.094,2.3-1.164,0Zm5.758,10.969a2.082,2.082,0,0,0,1.352-.469,1.649,1.649,0,0,0,.641-1.172h1.367a2.621,2.621,0,0,1-.5,1.383,3.293,3.293,0,0,1-1.23,1.047,3.55,3.55,0,0,1-1.629.391A3.482,3.482,0,0,1,29.988,40a4.59,4.59,0,0,1-1.02-3.152v-.242a5.089,5.089,0,0,1,.453-2.2,3.451,3.451,0,0,1,1.3-1.492,3.7,3.7,0,0,1,2-.531,3.39,3.39,0,0,1,2.363.852,3.043,3.043,0,0,1,1,2.211H34.727a1.992,1.992,0,0,0-.621-1.348,1.932,1.932,0,0,0-1.379-.527,2.023,2.023,0,0,0-1.707.793,3.724,3.724,0,0,0-.605,2.293v.273a3.65,3.65,0,0,0,.6,2.25A2.033,2.033,0,0,0,32.734,39.977ZM39.68,30.5v2.047h1.578v1.117H39.68v5.249a1.173,1.173,0,0,0,.211.763.888.888,0,0,0,.719.254,3.5,3.5,0,0,0,.688-.094V41a4.215,4.215,0,0,1-1.109.155,1.8,1.8,0,0,1-1.461-.586,2.517,2.517,0,0,1-.492-1.664V33.664H36.7V32.547h1.539V30.5ZM44.516,41H43.07V32.547h1.445ZM42.953,30.3a.863.863,0,0,1,.215-.594.807.807,0,0,1,.637-.242.819.819,0,0,1,.641.242.854.854,0,0,1,.219.594.826.826,0,0,1-.219.586.834.834,0,0,1-.641.234.821.821,0,0,1-.637-.234A.834.834,0,0,1,42.953,30.3Zm5.234,2.242.039.938a3.122,3.122,0,0,1,2.508-1.094,2.417,2.417,0,0,1,2.414,1.359,3.2,3.2,0,0,1,1.1-.984,3.242,3.242,0,0,1,1.6-.375q2.781,0,2.828,2.945V41H57.227V35.422a1.941,1.941,0,0,0-.414-1.355,1.823,1.823,0,0,0-1.391-.449,1.916,1.916,0,0,0-1.336.48,1.949,1.949,0,0,0-.617,1.293V41H52.016V35.461a1.613,1.613,0,0,0-1.8-1.844,1.934,1.934,0,0,0-1.945,1.211V41H46.82V32.547ZM66.07,41a3.036,3.036,0,0,1-.2-.891,3.225,3.225,0,0,1-2.406,1.047,2.984,2.984,0,0,1-2.051-.707,2.287,2.287,0,0,1-.8-1.793,2.39,2.39,0,0,1,1-2.051,4.733,4.733,0,0,1,2.824-.73h1.406v-.664A1.623,1.623,0,0,0,65.391,34a1.821,1.821,0,0,0-1.336-.449,2.107,2.107,0,0,0-1.3.391,1.151,1.151,0,0,0-.523.945H60.781a2,2,0,0,1,.449-1.223,3.066,3.066,0,0,1,1.219-.934,4.1,4.1,0,0,1,1.691-.344,3.342,3.342,0,0,1,2.289.73,2.635,2.635,0,0,1,.859,2.012v3.891a4.757,4.757,0,0,0,.3,1.852V41Zm-2.4-1.1a2.54,2.54,0,0,0,1.289-.352,2.127,2.127,0,0,0,.883-.914V36.9H64.711q-2.656,0-2.656,1.555a1.316,1.316,0,0,0,.453,1.063A1.742,1.742,0,0,0,63.672,39.9Zm5.836,3.367-.82-.562a3.77,3.77,0,0,0,.766-2.109v-1.3h1.414v1.133A3.559,3.559,0,0,1,70.48,42,3.7,3.7,0,0,1,69.508,43.266Zm9.914-4.383,1.969-6.336h1.547l-3.4,9.758q-.789,2.109-2.508,2.109l-.273-.023-.539-.1V43.117l.391.031a1.923,1.923,0,0,0,1.145-.3,2.149,2.149,0,0,0,.676-1.086l.32-.859-3.016-8.359h1.578ZM89.445,41a3.036,3.036,0,0,1-.2-.891,3.225,3.225,0,0,1-2.406,1.047,2.984,2.984,0,0,1-2.051-.707,2.288,2.288,0,0,1-.8-1.793,2.39,2.39,0,0,1,1-2.051,4.733,4.733,0,0,1,2.824-.73h1.406v-.664A1.623,1.623,0,0,0,88.766,34a1.821,1.821,0,0,0-1.336-.449,2.107,2.107,0,0,0-1.3.391,1.151,1.151,0,0,0-.523.945H84.156a2,2,0,0,1,.449-1.223,3.066,3.066,0,0,1,1.219-.934,4.1,4.1,0,0,1,1.691-.344,3.342,3.342,0,0,1,2.289.73,2.635,2.635,0,0,1,.859,2.012v3.891a4.757,4.757,0,0,0,.3,1.852V41Zm-2.4-1.1a2.54,2.54,0,0,0,1.289-.352,2.127,2.127,0,0,0,.883-.914V36.9H88.086q-2.656,0-2.656,1.555a1.316,1.316,0,0,0,.453,1.063A1.742,1.742,0,0,0,87.047,39.9Zm9.492-3.2a4.961,4.961,0,0,1,.914-3.152,3.226,3.226,0,0,1,4.82-.152l.063-.852h1.328v11.7h-1.445V40.219a3.033,3.033,0,0,1-2.328.938,2.915,2.915,0,0,1-2.441-1.191,5.072,5.072,0,0,1-.91-3.16Zm1.445.164a3.761,3.761,0,0,0,.613,2.281,1.951,1.951,0,0,0,1.652.828,2.164,2.164,0,0,0,1.969-1.141V34.7a2.171,2.171,0,0,0-1.953-1.117,1.965,1.965,0,0,0-1.664.832A4.094,4.094,0,0,0,97.984,36.867Zm13.219,3.3a3.07,3.07,0,0,1-2.477.992,2.628,2.628,0,0,1-2.059-.785,3.4,3.4,0,0,1-.715-2.324v-5.5H107.4v5.461q0,1.922,1.563,1.922a2.163,2.163,0,0,0,2.2-1.234V32.547h1.445V41h-1.375Zm7.109.992a3.693,3.693,0,0,1-2.8-1.129,4.19,4.19,0,0,1-1.078-3.02v-.266a5.073,5.073,0,0,1,.48-2.246,3.748,3.748,0,0,1,1.344-1.547,3.378,3.378,0,0,1,1.871-.559,3.166,3.166,0,0,1,2.563,1.086,4.7,4.7,0,0,1,.914,3.109v.6h-5.727a3,3,0,0,0,.73,2.02,2.3,2.3,0,0,0,1.777.77,2.517,2.517,0,0,0,1.3-.312,3.259,3.259,0,0,0,.93-.828l.883.688A3.55,3.55,0,0,1,118.313,41.156Zm-.18-7.578a1.928,1.928,0,0,0-1.469.637A3.1,3.1,0,0,0,115.93,36h4.234v-.109a2.753,2.753,0,0,0-.594-1.707A1.815,1.815,0,0,0,118.133,33.578ZM127.953,41V33.664h-1.336V32.547h1.336V31.68a2.878,2.878,0,0,1,.727-2.1,2.745,2.745,0,0,1,2.055-.742,3.816,3.816,0,0,1,.992.132l-.078,1.165a4.151,4.151,0,0,0-.781-.07,1.41,1.41,0,0,0-1.086.411,1.669,1.669,0,0,0-.383,1.18v.893h1.8v1.117h-1.8V41Zm10.063-.836a3.07,3.07,0,0,1-2.477.992,2.628,2.628,0,0,1-2.059-.785,3.4,3.4,0,0,1-.715-2.324v-5.5h1.445v5.461q0,1.922,1.563,1.922a2.163,2.163,0,0,0,2.2-1.234V32.547h1.445V41h-1.375Zm7.109.992a3.693,3.693,0,0,1-2.8-1.129,4.19,4.19,0,0,1-1.078-3.02v-.266a5.073,5.073,0,0,1,.48-2.246,3.748,3.748,0,0,1,1.344-1.547,3.378,3.378,0,0,1,1.871-.559,3.166,3.166,0,0,1,2.563,1.086,4.7,4.7,0,0,1,.914,3.109v.6H142.7a3,3,0,0,0,.73,2.02,2.3,2.3,0,0,0,1.777.77,2.517,2.517,0,0,0,1.3-.312,3.258,3.258,0,0,0,.93-.828l.883.688A3.55,3.55,0,0,1,145.125,41.156Zm-.18-7.578a1.928,1.928,0,0,0-1.469.637A3.1,3.1,0,0,0,142.742,36h4.234v-.109a2.753,2.753,0,0,0-.594-1.707A1.815,1.815,0,0,0,144.945,33.578ZM159.273,41a3.036,3.036,0,0,1-.2-.891,3.225,3.225,0,0,1-2.406,1.047,2.984,2.984,0,0,1-2.051-.707,2.287,2.287,0,0,1-.8-1.793,2.39,2.39,0,0,1,1-2.051,4.733,4.733,0,0,1,2.824-.73h1.406v-.664A1.623,1.623,0,0,0,158.594,34a1.821,1.821,0,0,0-1.336-.449,2.107,2.107,0,0,0-1.3.391,1.151,1.151,0,0,0-.523.945h-1.453a2,2,0,0,1,.449-1.223,3.066,3.066,0,0,1,1.219-.934,4.1,4.1,0,0,1,1.691-.344,3.342,3.342,0,0,1,2.289.73,2.635,2.635,0,0,1,.859,2.012v3.891a4.757,4.757,0,0,0,.3,1.852V41Zm-2.4-1.1a2.54,2.54,0,0,0,1.289-.352,2.127,2.127,0,0,0,.883-.914V36.9h-1.133q-2.656,0-2.656,1.555a1.316,1.316,0,0,0,.453,1.063A1.742,1.742,0,0,0,156.875,39.9Zm5.539-3.2a4.968,4.968,0,0,1,.914-3.145,3.151,3.151,0,0,1,4.836-.074l.07-.937h1.32V40.8a3.439,3.439,0,0,1-.973,2.586,3.589,3.589,0,0,1-2.613.945,4.348,4.348,0,0,1-1.789-.391,3.08,3.08,0,0,1-1.336-1.07l.75-.867a2.826,2.826,0,0,0,2.273,1.148,2.214,2.214,0,0,0,1.645-.594,2.269,2.269,0,0,0,.59-1.672v-.727a2.971,2.971,0,0,1-2.367,1,2.887,2.887,0,0,1-2.4-1.2A5.224,5.224,0,0,1,162.414,36.7Zm1.453.164a3.79,3.79,0,0,0,.586,2.246,1.9,1.9,0,0,0,1.641.816,2.117,2.117,0,0,0,2.008-1.242V34.828a2.142,2.142,0,0,0-1.992-1.211,1.921,1.921,0,0,0-1.648.82A4.128,4.128,0,0,0,163.867,36.867Zm11.953-3.023a4.331,4.331,0,0,0-.711-.055A1.9,1.9,0,0,0,173.18,35v6h-1.445V32.547h1.406l.023.977a2.251,2.251,0,0,1,2.016-1.133,1.477,1.477,0,0,1,.641.109Zm4.836,7.313a3.693,3.693,0,0,1-2.8-1.129,4.19,4.19,0,0,1-1.078-3.02v-.266a5.073,5.073,0,0,1,.48-2.246,3.748,3.748,0,0,1,1.344-1.547,3.378,3.378,0,0,1,1.871-.559,3.166,3.166,0,0,1,2.563,1.086,4.7,4.7,0,0,1,.914,3.109v.6h-5.727a3,3,0,0,0,.73,2.02,2.3,2.3,0,0,0,1.777.77,2.517,2.517,0,0,0,1.3-.312,3.258,3.258,0,0,0,.93-.828l.883.688A3.55,3.55,0,0,1,180.656,41.156Zm-.18-7.578a1.928,1.928,0,0,0-1.469.637A3.1,3.1,0,0,0,178.273,36h4.234v-.109a2.753,2.753,0,0,0-.594-1.707A1.815,1.815,0,0,0,180.477,33.578Zm4.8,3.125a4.952,4.952,0,0,1,.922-3.129,3.137,3.137,0,0,1,4.766-.168V29h1.445V41h-1.328l-.07-.906a2.943,2.943,0,0,1-2.414,1.063,2.887,2.887,0,0,1-2.395-1.2,5.008,5.008,0,0,1-.926-3.141Zm1.445.164a3.749,3.749,0,0,0,.594,2.25,1.919,1.919,0,0,0,1.641.813,2.108,2.108,0,0,0,2.008-1.234V34.813a2.125,2.125,0,0,0-1.992-1.2,1.929,1.929,0,0,0-1.656.82A4.128,4.128,0,0,0,186.719,36.867Zm9.5,4.133h-1.445V32.547h1.445Zm-1.562-10.7a.863.863,0,0,1,.215-.594.807.807,0,0,1,.637-.242.819.819,0,0,1,.641.242.854.854,0,0,1,.219.594.826.826,0,0,1-.219.586.834.834,0,0,1-.641.234.821.821,0,0,1-.637-.234A.834.834,0,0,1,194.656,30.3Zm3.523,6.4a4.952,4.952,0,0,1,.922-3.129,3.137,3.137,0,0,1,4.766-.168V29h1.445V41h-1.328l-.07-.906a2.943,2.943,0,0,1-2.414,1.063,2.887,2.887,0,0,1-2.395-1.2,5.008,5.008,0,0,1-.926-3.141Zm1.445.164a3.749,3.749,0,0,0,.594,2.25,1.919,1.919,0,0,0,1.641.813,2.108,2.108,0,0,0,2.008-1.234V34.813a2.125,2.125,0,0,0-1.992-1.2,1.929,1.929,0,0,0-1.656.82A4.128,4.128,0,0,0,199.625,36.867ZM212.773,41a3.036,3.036,0,0,1-.2-.891,3.225,3.225,0,0,1-2.406,1.047,2.984,2.984,0,0,1-2.051-.707,2.287,2.287,0,0,1-.8-1.793,2.39,2.39,0,0,1,1-2.051,4.733,4.733,0,0,1,2.824-.73h1.406v-.664A1.623,1.623,0,0,0,212.094,34a1.821,1.821,0,0,0-1.336-.449,2.107,2.107,0,0,0-1.3.391,1.151,1.151,0,0,0-.523.945h-1.453a2,2,0,0,1,.449-1.223,3.066,3.066,0,0,1,1.219-.934,4.1,4.1,0,0,1,1.691-.344,3.342,3.342,0,0,1,2.289.73,2.635,2.635,0,0,1,.859,2.012v3.891a4.757,4.757,0,0,0,.3,1.852V41Zm-2.4-1.1a2.54,2.54,0,0,0,1.289-.352,2.127,2.127,0,0,0,.883-.914V36.9h-1.133q-2.656,0-2.656,1.555a1.316,1.316,0,0,0,.453,1.063A1.742,1.742,0,0,0,210.375,39.9Zm16.984-3.031a5.062,5.062,0,0,1-.883,3.109,2.829,2.829,0,0,1-2.391,1.18,3.1,3.1,0,0,1-2.422-.977v4.07h-1.445v-11.7h1.32l.07.938a2.977,2.977,0,0,1,2.453-1.094,2.882,2.882,0,0,1,2.41,1.148,5.117,5.117,0,0,1,.887,3.2Zm-1.445-.164a3.735,3.735,0,0,0-.609-2.258,1.963,1.963,0,0,0-1.672-.828,2.125,2.125,0,0,0-1.969,1.164V38.82a2.129,2.129,0,0,0,1.984,1.156,1.954,1.954,0,0,0,1.652-.824A4.077,4.077,0,0,0,225.914,36.7Zm2.9-.008a4.993,4.993,0,0,1,.488-2.234,3.642,3.642,0,0,1,1.359-1.531,3.7,3.7,0,0,1,1.988-.539,3.565,3.565,0,0,1,2.793,1.2,4.6,4.6,0,0,1,1.066,3.18v.1a5.036,5.036,0,0,1-.473,2.215,3.589,3.589,0,0,1-1.352,1.527,3.743,3.743,0,0,1-2.02.547,3.556,3.556,0,0,1-2.785-1.2,4.575,4.575,0,0,1-1.066-3.164Zm1.453.172a3.616,3.616,0,0,0,.652,2.258,2.211,2.211,0,0,0,3.5-.012,3.954,3.954,0,0,0,.648-2.418,3.61,3.61,0,0,0-.66-2.254,2.1,2.1,0,0,0-1.754-.863,2.075,2.075,0,0,0-1.727.852A3.925,3.925,0,0,0,230.266,36.867Zm12.141-3.023a4.331,4.331,0,0,0-.711-.055A1.9,1.9,0,0,0,239.766,35v6H238.32V32.547h1.406l.023.977a2.251,2.251,0,0,1,2.016-1.133,1.477,1.477,0,0,1,.641.109Zm6.734-.273a3.073,3.073,0,0,1,2.5-1.18q2.68,0,2.7,3.023V41H252.9V35.406a1.946,1.946,0,0,0-.418-1.352,1.675,1.675,0,0,0-1.277-.437,2.086,2.086,0,0,0-1.234.375,2.546,2.546,0,0,0-.828.984V41H247.7V29h1.445Zm6.984,3.125a4.993,4.993,0,0,1,.488-2.234,3.643,3.643,0,0,1,1.359-1.531,3.7,3.7,0,0,1,1.988-.539,3.565,3.565,0,0,1,2.793,1.2,4.6,4.6,0,0,1,1.066,3.18v.1a5.036,5.036,0,0,1-.473,2.215A3.589,3.589,0,0,1,262,40.609a3.743,3.743,0,0,1-2.02.547,3.556,3.556,0,0,1-2.785-1.2,4.575,4.575,0,0,1-1.066-3.164Zm1.453.172a3.616,3.616,0,0,0,.652,2.258,2.211,2.211,0,0,0,3.5-.012,3.955,3.955,0,0,0,.648-2.418,3.61,3.61,0,0,0-.66-2.254,2.1,2.1,0,0,0-1.754-.863,2.075,2.075,0,0,0-1.727.852A3.925,3.925,0,0,0,257.578,36.867Zm9.414-4.32.039.938a3.122,3.122,0,0,1,2.508-1.094,2.417,2.417,0,0,1,2.414,1.359,3.2,3.2,0,0,1,1.1-.984,3.242,3.242,0,0,1,1.6-.375q2.781,0,2.828,2.945V41h-1.445V35.422a1.941,1.941,0,0,0-.414-1.355,1.823,1.823,0,0,0-1.391-.449,1.916,1.916,0,0,0-1.336.48,1.949,1.949,0,0,0-.617,1.293V41H270.82V35.461a1.613,1.613,0,0,0-1.8-1.844,1.934,1.934,0,0,0-1.945,1.211V41h-1.445V32.547Zm19.82,4.32a5.026,5.026,0,0,1-.891,3.113,2.846,2.846,0,0,1-2.391,1.176,2.947,2.947,0,0,1-2.477-1.133l-.07.977h-1.328V29H281.1v4.477a2.93,2.93,0,0,1,2.414-1.086,2.863,2.863,0,0,1,2.418,1.164,5.177,5.177,0,0,1,.879,3.188Zm-1.445-.164a3.906,3.906,0,0,0-.57-2.281,1.888,1.888,0,0,0-1.641-.8,2.122,2.122,0,0,0-2.055,1.328V38.6a2.181,2.181,0,0,0,2.07,1.328,1.878,1.878,0,0,0,1.617-.8A4.153,4.153,0,0,0,285.367,36.7Zm7.352-2.859a4.331,4.331,0,0,0-.711-.055A1.9,1.9,0,0,0,290.078,35v6h-1.445V32.547h1.406l.023.977a2.251,2.251,0,0,1,2.016-1.133,1.477,1.477,0,0,1,.641.109Zm4.836,7.313a3.693,3.693,0,0,1-2.8-1.129,4.19,4.19,0,0,1-1.078-3.02v-.266a5.073,5.073,0,0,1,.48-2.246,3.748,3.748,0,0,1,1.344-1.547,3.379,3.379,0,0,1,1.871-.559,3.166,3.166,0,0,1,2.563,1.086,4.7,4.7,0,0,1,.914,3.109v.6h-5.727a3,3,0,0,0,.73,2.02,2.3,2.3,0,0,0,1.777.77,2.517,2.517,0,0,0,1.3-.312,3.259,3.259,0,0,0,.93-.828l.883.688A3.55,3.55,0,0,1,297.555,41.156Zm-.18-7.578a1.928,1.928,0,0,0-1.469.637A3.1,3.1,0,0,0,295.172,36h4.234v-.109a2.753,2.753,0,0,0-.594-1.707A1.815,1.815,0,0,0,297.375,33.578Zm10.07,5.18a1.064,1.064,0,0,0-.441-.91,4.249,4.249,0,0,0-1.539-.559,7.276,7.276,0,0,1-1.742-.562,2.478,2.478,0,0,1-.953-.781,1.869,1.869,0,0,1-.309-1.078,2.193,2.193,0,0,1,.879-1.758,3.432,3.432,0,0,1,2.246-.719,3.532,3.532,0,0,1,2.332.742,2.357,2.357,0,0,1,.895,1.9h-1.453a1.3,1.3,0,0,0-.5-1.023,1.888,1.888,0,0,0-1.27-.43,1.976,1.976,0,0,0-1.234.344,1.082,1.082,0,0,0-.445.9.877.877,0,0,0,.414.789,5.1,5.1,0,0,0,1.5.508,7.8,7.8,0,0,1,1.754.578,2.559,2.559,0,0,1,1,.809,1.988,1.988,0,0,1,.324,1.152,2.163,2.163,0,0,1-.906,1.816,3.8,3.8,0,0,1-2.352.684,4.257,4.257,0,0,1-1.8-.359,2.922,2.922,0,0,1-1.223-1,2.42,2.42,0,0,1-.441-1.395h1.445a1.5,1.5,0,0,0,.582,1.152,2.258,2.258,0,0,0,1.434.426,2.331,2.331,0,0,0,1.316-.332A1.02,1.02,0,0,0,307.445,38.758Zm3.359,1.484a.905.905,0,0,1,.223-.625.848.848,0,0,1,.668-.25.874.874,0,0,1,.676.25.887.887,0,0,1,.23.625.839.839,0,0,1-.23.6.89.89,0,0,1-.676.242.8.8,0,0,1-.891-.844Z" transform="translate(377.359 2738.36)" fill="#12263f"/>
    </g>
  </g>
</svg>
