<?xml version="1.0" encoding="utf-8"?>
<!-- Generator: Adobe Illustrator 26.2.1, SVG Export Plug-In . SVG Version: 6.00 Build 0)  -->
<svg version="1.1" id="Layer_1" xmlns="http://www.w3.org/2000/svg" xmlns:xlink="http://www.w3.org/1999/xlink" x="0px" y="0px"
	 viewBox="0 0 1000.9 616.7" style="enable-background:new 0 0 1000.9 616.7;" xml:space="preserve">
<style type="text/css">
	.st0{fill:#989898;}
	.st1{fill:#FFFFFF;stroke:#818181;stroke-width:3;stroke-miterlimit:10;}
	.st2{fill:#CCCCCC;}
	.st3{fill:#FFFFFF;}
	.st4{fill:#E6E6E5;}
</style>
<g>
	<g>
		<circle class="st0" cx="396.6" cy="501.9" r="8.6"/>
		<circle class="st0" cx="448.5" cy="501.9" r="8.6"/>
		<circle class="st0" cx="500.5" cy="501.9" r="8.6"/>
		<circle class="st0" cx="552.4" cy="501.9" r="8.6"/>
		<circle class="st0" cx="604.3" cy="501.9" r="8.6"/>
	</g>
	<path class="st1" d="M873.7,441.7H447.6c-9.7,0-17.6-7.9-17.6-17.6v-292c0-9.7,7.9-17.6,17.6-17.6h426.2c9.7,0,17.6,7.9,17.6,17.6
		v292C891.4,433.8,883.5,441.7,873.7,441.7z"/>
	<g>
		<circle class="st1" cx="720.7" cy="307.2" r="84.1"/>
		<polygon class="st1" points="632.8,176.9 683.4,264.5 734,352.2 632.8,352.2 531.6,352.2 582.2,264.5 		"/>
	</g>
	<path class="st2" d="M98.9,74.3H902c17,0,30.8,13.8,30.8,30.8v406.4c0,17-13.8,30.8-30.8,30.8H98.9c-17,0-30.8-13.8-30.8-30.8
		V105.1C68.1,88.1,81.9,74.3,98.9,74.3z M902,538.1c14.6,0,26.5-11.9,26.5-26.5V105.1c0-14.6-11.9-26.5-26.5-26.5H98.9
		c-14.6,0-26.5,11.9-26.5,26.5v406.4c0,14.6,11.9,26.5,26.5,26.5H902z"/>
	<g>
		<circle class="st0" cx="121.8" cy="495.3" r="28.6"/>
		<polygon class="st3" points="124.1,481.4 127.2,484.5 115.6,496.1 126.9,507.4 123.9,510.4 109.5,496.1 		"/>
	</g>
	<g>
		<circle class="st0" cx="874.7" cy="495.3" r="28.6"/>
		<polygon class="st3" points="872.6,480.1 887,494.4 872.4,509.1 869.3,506 880.9,494.4 869.6,483.1 		"/>
	</g>
	<rect x="112.6" y="125.1" class="st2" width="189.8" height="25.6"/>
	<rect x="112.6" y="176.9" class="st4" width="269.9" height="16.8"/>
	<rect x="112.6" y="203.6" class="st4" width="269.9" height="16.8"/>
	<rect x="112.6" y="236.9" class="st4" width="269.9" height="16.8"/>
	<rect x="112.6" y="264.5" class="st4" width="269.9" height="16.8"/>
	<rect x="112.6" y="289.9" class="st4" width="189.8" height="16.8"/>
	<rect x="112.6" y="357.5" class="st4" width="269.9" height="16.8"/>
	<rect x="112.6" y="386.5" class="st4" width="269.9" height="16.8"/>
	<rect x="112.6" y="415.5" class="st4" width="269.9" height="16.8"/>
</g>
</svg>
