<svg xmlns="http://www.w3.org/2000/svg" xmlns:xlink="http://www.w3.org/1999/xlink" width="400" height="300" viewBox="0 0 400 300">
  <defs>
    <clipPath id="clip-path">
      <rect id="Rectángulo_64332" data-name="Rectángulo 64332" width="357.223" height="284.647" fill="none"/>
    </clipPath>
    <clipPath id="clip-path-2">
      <path id="Trazado_236015" data-name="Trazado 236015" d="M45.454,94.883c-7.474,23.251.185,61.164,38.191,72.222,16.4,4.773,29.011,4.649,38.907,4.525,8.565-.106,15.1-.214,20.285,2.853,23.693,14,31.256,39.614,50.876,43.692,46.822,9.729,53.586-66.525,19.381-104.3C181.637,79.146,126.907,64.848,112.6,64.2q-3.661-.164-7.141-.164c-33.142,0-53.663,11.109-60.005,30.842" transform="translate(-42.88 -64.041)" fill="none"/>
    </clipPath>
    <linearGradient id="linear-gradient" x1="-0.293" y1="0.938" x2="-0.286" y2="0.938" gradientUnits="objectBoundingBox">
      <stop offset="0" stop-color="#e4f1f9"/>
      <stop offset="1" stop-color="#daecf9"/>
    </linearGradient>
    <clipPath id="clip-path-4">
      <rect id="Rectángulo_64336" data-name="Rectángulo 64336" width="105.224" height="116.795" fill="none"/>
    </clipPath>
    <clipPath id="clip-path-5">
      <path id="Trazado_236022" data-name="Trazado 236022" d="M107.527,113.024c-4.437,9.072-9.994,20.427-15.142,30.968l0,13.418a6.188,6.188,0,0,0,6.183,6.189h42.305c7.118-14.566,17.732-36.325,24.729-50.576Z" transform="translate(-92.381 -113.024)" fill="none"/>
    </clipPath>
    <linearGradient id="linear-gradient-2" x1="-1.543" y1="1.704" x2="-1.525" y2="1.704" gradientUnits="objectBoundingBox">
      <stop offset="0" stop-color="#e4f1f9"/>
      <stop offset="1" stop-color="#adcff1"/>
    </linearGradient>
    <clipPath id="clip-path-7">
      <path id="Trazado_236042" data-name="Trazado 236042" d="M54.314,252.288V26.3c0-5.042,3.271-9.131,7.3-9.131h74.7c4.043,0,7.314,4.088,7.314,9.131V252.288c0,5.042-3.271,9.131-7.314,9.131h-74.7c-4.029,0-7.3-4.088-7.3-9.131M57.268,12.174c-5.527,0-10.009,5.6-10.009,12.508V253.274c0,6.9,4.482,12.506,10.009,12.506h79.875c5.544,0,10.011-5.6,10.011-12.506V24.682a14.34,14.34,0,0,0-2.029-7.511,9.416,9.416,0,0,0-7.982-5Z" transform="translate(-47.259 -12.174)" fill="#636363"/>
    </clipPath>
    <clipPath id="clip-path-9">
      <rect id="Rectángulo_64363" data-name="Rectángulo 64363" width="52.187" height="7.571" fill="none"/>
    </clipPath>
    <linearGradient id="linear-gradient-3" x1="-2.86" y1="2.961" x2="-2.831" y2="2.961" gradientUnits="objectBoundingBox">
      <stop offset="0" stop-color="#ffd875"/>
      <stop offset="1" stop-color="#e9b500"/>
    </linearGradient>
    <linearGradient id="linear-gradient-4" x1="-2.652" y1="1.955" x2="-2.623" y2="1.955" xlink:href="#linear-gradient-3"/>
    <linearGradient id="linear-gradient-5" x1="-2.446" y1="3.92" x2="-2.417" y2="3.92" xlink:href="#linear-gradient-3"/>
    <clipPath id="clip-path-15">
      <path id="Trazado_236104" data-name="Trazado 236104" d="M71.1,173.585A23.066,23.066,0,1,0,93.054,157.57,23.056,23.056,0,0,0,71.1,173.585" transform="translate(-70.011 -157.57)" fill="none"/>
    </clipPath>
    <linearGradient id="linear-gradient-6" x1="-1.349" y1="0.814" x2="-1.327" y2="0.814" xlink:href="#linear-gradient-3"/>
    <clipPath id="clip-path-17">
      <path id="Trazado_236132" data-name="Trazado 236132" d="M59.843,15.447c-4.2-.156-7.1,2.969-7.75,6.74h88.782c-.506-3.375-2.907-6.752-7.6-6.752Z" transform="translate(-52.093 -15.435)" fill="none"/>
    </clipPath>
    <linearGradient id="linear-gradient-7" x1="-0.888" y1="37.909" x2="-0.871" y2="37.909" xlink:href="#linear-gradient-2"/>
    <clipPath id="clip-path-19">
      <rect id="Rectángulo_64448" data-name="Rectángulo 64448" width="95.939" height="90.819" fill="none"/>
    </clipPath>
  </defs>
  <g id="Grupo_184264" data-name="Grupo 184264" transform="translate(-8395 4770)">
    <g id="Grupo_183859" data-name="Grupo 183859" transform="translate(0 211)">
      <rect id="Rectángulo_64171" data-name="Rectángulo 64171" width="400" height="300" transform="translate(8395 -4981)" fill="none"/>
      <g id="Grupo_183831" data-name="Grupo 183831" transform="translate(8416.389 -4965.647)">
        <g id="Grupo_183792" data-name="Grupo 183792">
          <g id="Grupo_183791" data-name="Grupo 183791" clip-path="url(#clip-path)">
            <path id="Trazado_236013" data-name="Trazado 236013" d="M232.888,257.377c70.92-34.373,9.446-126.685,37.92-164.29,31.389-41.457-11.066-81-81.482-67.993C120.34,37.835,76.642,68.519,51.264,92.456c-59.022,55.67-2.374,124.612,46.721,123.629,44.31-.887,82.128,66.871,134.9,41.292" transform="translate(13.393 11.609)" fill="#e9f5fe"/>
            <path id="Trazado_236014" data-name="Trazado 236014" d="M213.947,267.046c-21.581,0-40.913-12.789-59.781-25.271-18.4-12.172-35.8-23.662-54.469-23.3-28.167.557-58.2-20.62-69.92-49.277-6.566-16.059-12.544-47.75,21.189-79.566C88.851,53.9,136.9,30.457,193.771,19.954c41.284-7.623,76.8,1.787,90.481,23.971,8.737,14.167,6.719,30.989-5.685,47.37-11.536,15.235-8.489,39.635-5.262,65.47,4.838,38.76,10.324,82.69-34.128,104.236l-.33-.681.33.681a57.1,57.1,0,0,1-25.23,6.045M100.59,216.956c18.8,0,36.107,11.446,54.412,23.556,25.565,16.911,52,34.4,83.514,19.125,43.477-21.071,38.3-62.561,33.286-102.684-3.265-26.148-6.349-50.845,5.559-66.572,12-15.848,13.989-32.064,5.6-45.661-13.353-21.648-48.252-30.782-88.917-23.277C137.465,31.891,89.675,55.206,52.005,90.736c-33.076,31.2-27.247,62.195-20.827,77.894,11.492,28.106,40.92,48.915,68.488,48.335.307-.006.618-.009.924-.009" transform="translate(12.693 8.92)" fill="#d5e9f6"/>
          </g>
        </g>
        <g id="Grupo_183794" data-name="Grupo 183794" transform="translate(64.931 96.974)">
          <g id="Grupo_183793" data-name="Grupo 183793" clip-path="url(#clip-path-2)">
            <rect id="Rectángulo_64333" data-name="Rectángulo 64333" width="207.575" height="241.37" transform="matrix(0.23, -0.973, 0.973, 0.23, -41.544, 155.212)" fill="url(#linear-gradient)"/>
          </g>
        </g>
        <g id="Grupo_183799" data-name="Grupo 183799">
          <g id="Grupo_183798" data-name="Grupo 183798" clip-path="url(#clip-path)">
            <path id="Trazado_236016" data-name="Trazado 236016" d="M192.084,79.117,186.416,93.3l-29.632.98s-9.064-6.34-9.714-5.362,2.851,4.138,2.851,4.138-9.672-.441-10.179,1.022,8.472,1.614,8.472,1.614-10.837,1-10.689,2.23,10.791.118,10.791.118-9.158,1.928-8.783,2.919,8.566-.784,8.566-.784-5.58,2.98-4.671,3.71,7.423-1.8,7.423-1.8,35.181,3.343,40.491,1.673,11.635-17.841,11.635-17.841Z" transform="translate(70.722 40.686)" fill="#dd8d8c"/>
            <rect id="Rectángulo_64334" data-name="Rectángulo 64334" width="56.765" height="136.439" transform="matrix(0.771, -0.637, 0.637, 0.771, 2.462, 93.165)" fill="#e8f2f9"/>
            <rect id="Rectángulo_64335" data-name="Rectángulo 64335" width="52.153" height="129.449" transform="translate(6.465 94.392) rotate(-39.561)" fill="#daecf9"/>
            <g id="Grupo_183797" data-name="Grupo 183797" transform="translate(14.675 69.107)" style="isolation: isolate">
              <g id="Grupo_183796" data-name="Grupo 183796">
                <g id="Grupo_183795" data-name="Grupo 183795" clip-path="url(#clip-path-4)">
                  <path id="Trazado_236017" data-name="Trazado 236017" d="M81.663,159.113,11.028,73a5.835,5.835,0,0,1,.781-8.213L33.178,47.133a6.526,6.526,0,0,1,9.187.874l70.6,86.074a8.507,8.507,0,0,1-1.142,11.976L94.537,160.339a9.144,9.144,0,0,1-12.874-1.227" transform="translate(-9.691 -45.638)" fill="#fff"/>
                </g>
              </g>
            </g>
            <path id="Trazado_236019" data-name="Trazado 236019" d="M57.578,99.326a7.006,7.006,0,1,1-.939,9.864,7.006,7.006,0,0,1,.939-9.864" transform="translate(28.301 50.253)" fill="#6b8ec6"/>
            <path id="Trazado_236021" data-name="Trazado 236021" d="M166.06,163.6l-67.5,0a6.185,6.185,0,0,1-6.18-6.189l0-38.2a6.183,6.183,0,0,1,6.183-6.183h67.5a6.183,6.183,0,0,1,6.183,6.183v38.2a6.183,6.183,0,0,1-6.183,6.183" transform="translate(47.507 58.124)" fill="#abd0ef"/>
          </g>
        </g>
        <g id="Grupo_183801" data-name="Grupo 183801" transform="translate(139.888 171.146)">
          <g id="Grupo_183800" data-name="Grupo 183800" clip-path="url(#clip-path-5)">
            <rect id="Rectángulo_64338" data-name="Rectángulo 64338" width="86.399" height="73.266" transform="translate(-16.779 6.369) rotate(-20.785)" fill="url(#linear-gradient-2)"/>
          </g>
        </g>
        <g id="Grupo_183806" data-name="Grupo 183806">
          <g id="Grupo_183805" data-name="Grupo 183805" clip-path="url(#clip-path)">
            <rect id="Rectángulo_64339" data-name="Rectángulo 64339" width="0.215" height="10.392" transform="translate(151.778 188.744)" fill="#010101"/>
            <path id="Trazado_236023" data-name="Trazado 236023" d="M106.4,135.036h-5.317a3.028,3.028,0,0,1-3.028-3.028v-4.335a3.029,3.029,0,0,1,3.028-3.028H106.4a3.029,3.029,0,0,1,3.029,3.028v4.335a3.028,3.028,0,0,1-3.029,3.028" transform="translate(50.425 64.098)" fill="#ffecc9"/>
            <path id="Trazado_236024" data-name="Trazado 236024" d="M103.487,134.2h-.215v-7.923h3.474v.215h-3.259Z" transform="translate(53.108 64.937)" fill="#010101"/>
            <rect id="Rectángulo_64340" data-name="Rectángulo 64340" width="3.406" height="0.217" transform="translate(148.48 191.212)" fill="#010101"/>
            <rect id="Rectángulo_64341" data-name="Rectángulo 64341" width="3.406" height="0.217" transform="translate(148.48 193.666)" fill="#010101"/>
            <rect id="Rectángulo_64342" data-name="Rectángulo 64342" width="3.406" height="0.217" transform="translate(148.48 196.03)" fill="#010101"/>
            <rect id="Rectángulo_64343" data-name="Rectángulo 64343" width="3.366" height="0.217" transform="translate(156.487 193.666)" fill="#010101"/>
            <rect id="Rectángulo_64344" data-name="Rectángulo 64344" width="3.366" height="0.217" transform="translate(156.487 196.03)" fill="#010101"/>
            <path id="Trazado_236025" data-name="Trazado 236025" d="M140.694,126.519a.353.353,0,0,1-.223-.08.348.348,0,0,1-.045-.491,1.434,1.434,0,0,0,0-1.52.347.347,0,0,1,.548-.427,1.987,1.987,0,0,1,.363,1.175,1.965,1.965,0,0,1-.379,1.217.347.347,0,0,1-.268.126" transform="translate(72.173 63.698)" fill="#fff"/>
            <path id="Trazado_236026" data-name="Trazado 236026" d="M141.468,127.153a.342.342,0,0,1-.183-.053.347.347,0,0,1-.112-.479,2.745,2.745,0,0,0,.359-1.255,3.645,3.645,0,0,0-.374-1.339.347.347,0,1,1,.621-.312,4.359,4.359,0,0,1,.448,1.654,3.424,3.424,0,0,1-.463,1.62.35.35,0,0,1-.3.164" transform="translate(72.571 63.522)" fill="#fff"/>
            <path id="Trazado_236027" data-name="Trazado 236027" d="M142.228,127.952a.347.347,0,0,1-.3-.519,4.447,4.447,0,0,0,.527-1.855,5.845,5.845,0,0,0-.539-1.959.347.347,0,0,1,.627-.3,6.387,6.387,0,0,1,.609,2.259,5.044,5.044,0,0,1-.619,2.2.35.35,0,0,1-.3.176" transform="translate(72.962 63.314)" fill="#fff"/>
            <path id="Trazado_236028" data-name="Trazado 236028" d="M143.03,128.765a.342.342,0,0,1-.176-.048.349.349,0,0,1-.126-.475,5.183,5.183,0,0,0,.638-2.415,8.9,8.9,0,0,0-.724-2.673.348.348,0,1,1,.634-.286,9.522,9.522,0,0,1,.784,2.932,5.773,5.773,0,0,1-.731,2.794.346.346,0,0,1-.3.173" transform="translate(73.338 63.079)" fill="#fff"/>
            <path id="Trazado_236029" data-name="Trazado 236029" d="M135.584,143.035a5.462,5.462,0,1,1,5.462,5.462,5.462,5.462,0,0,1-5.462-5.462" transform="translate(69.724 70.747)" fill="#ffe6b4"/>
            <rect id="Rectángulo_64345" data-name="Rectángulo 64345" width="34.354" height="4.909" transform="translate(148.48 178.351)" fill="#fff"/>
            <rect id="Rectángulo_64346" data-name="Rectángulo 64346" width="41.976" height="3.846" transform="translate(148.48 212.39)" fill="#fff"/>
            <path id="Trazado_236032" data-name="Trazado 236032" d="M62.709,113.131a7.006,7.006,0,1,1,1.375,9.812,7.006,7.006,0,0,1-1.375-9.812" transform="translate(31.521 56.744)" fill="#6b8ec6"/>
            <path id="Trazado_236034" data-name="Trazado 236034" d="M170.776,156.152s2.523,31.081,0,36.471A20.083,20.083,0,0,1,163.8,200.7s7.544-2.337,10.1-3.722a64.516,64.516,0,0,0,5.251-4.029s2.676-22.462,4.322-36.38c.055-.457-12.692-.415-12.692-.415" transform="translate(84.233 80.301)" fill="#feb3a2"/>
            <path id="Trazado_236035" data-name="Trazado 236035" d="M180.4,179.929s-10.887,7.361-13.419,7.5l-4.788,1.231a10.68,10.68,0,0,0,6.484,1.97,9.363,9.363,0,0,0,5.8-3.253l2.3-.6-.815,3.378,4.82-1.08Z" transform="translate(83.408 92.528)" fill="#09030f"/>
            <path id="Trazado_236036" data-name="Trazado 236036" d="M187.158,157.449s11.626,28.936,10.818,34.829a20.1,20.1,0,0,1-4.272,9.782s6.511-4.469,8.539-6.548a64.277,64.277,0,0,0,3.82-5.406s-4.107-22.246-6.661-36.025c-.083-.453-12.244,3.368-12.244,3.368" transform="translate(96.246 79.217)" fill="#feb3a2"/>
            <path id="Trazado_236037" data-name="Trazado 236037" d="M204.784,177.277s-8.213,10.258-10.589,11.145l-4.207,2.6a10.67,10.67,0,0,0,6.775-.039,9.37,9.37,0,0,0,4.578-4.827l2.017-1.251.224,3.469,4.284-2.462Z" transform="translate(97.701 91.165)" fill="#09030f"/>
            <path id="Trazado_236038" data-name="Trazado 236038" d="M60.893,259.718h71.353a8.976,8.976,0,0,0,8.976-8.975V24.452a8.975,8.975,0,0,0-8.976-8.975H60.893a8.975,8.975,0,0,0-8.976,8.975V250.743a8.976,8.976,0,0,0,8.976,8.975" transform="translate(26.698 7.959)" fill="#fff"/>
            <path id="Trazado_236039" data-name="Trazado 236039" d="M58.755,188.366h75.628a6.839,6.839,0,0,0,6.838-6.838v-27.3h-89.3v27.3a6.839,6.839,0,0,0,6.838,6.838" transform="translate(26.698 79.311)" fill="#e8f2f9"/>
            <path id="Trazado_236040" data-name="Trazado 236040" d="M120.6,147.3H67.92a8.9,8.9,0,0,1-8.9-8.9V60.09a8.9,8.9,0,0,1,8.9-8.9H120.6a8.9,8.9,0,0,1,8.9,8.9V138.4a8.9,8.9,0,0,1-8.9,8.9" transform="translate(30.353 26.326)" fill="#e8f2f9"/>
            <rect id="Rectángulo_64350" data-name="Rectángulo 64350" width="50.066" height="67.437" transform="translate(100.116 89.194)" fill="#fff"/>
            <path id="Trazado_236041" data-name="Trazado 236041" d="M58.755,180.953h75.628a6.839,6.839,0,0,0,6.838-6.838v-5.472h-89.3v5.472a6.839,6.839,0,0,0,6.838,6.838" transform="translate(26.698 86.724)" fill="#dae9ef"/>
          </g>
        </g>
        <g id="Grupo_183808" data-name="Grupo 183808" transform="translate(71.562 18.434)">
          <g id="Grupo_183807" data-name="Grupo 183807" clip-path="url(#clip-path-7)">
            <rect id="Rectángulo_64352" data-name="Rectángulo 64352" width="99.895" height="253.606" transform="translate(0 0)" fill="#636363"/>
          </g>
        </g>
        <g id="Grupo_183810" data-name="Grupo 183810">
          <g id="Grupo_183809" data-name="Grupo 183809" clip-path="url(#clip-path)">
            <rect id="Rectángulo_64353" data-name="Rectángulo 64353" width="81.454" height="71.368" transform="translate(148.107 92.775)" fill="#68a1e7"/>
            <rect id="Rectángulo_64354" data-name="Rectángulo 64354" width="87.542" height="13.4" transform="translate(145.062 90.906)" fill="#94c4e8"/>
            <rect id="Rectángulo_64355" data-name="Rectángulo 64355" width="13.731" height="74.768" transform="translate(180.497 91.076)" fill="#2356f1"/>
            <path id="Trazado_236043" data-name="Trazado 236043" d="M122.786,68.876c-4.782,0-10.009-.865-13.024-4.057-2.5-2.653-3.088-6.375-1.738-11.069,1.246-4.328,3.377-6.725,6.336-7.122,8.027-1.033,18.254,14.926,20.212,18.145l1.416,2.324-2.656.6a51.654,51.654,0,0,1-10.545,1.178m-7.565-18.391a2.515,2.515,0,0,0-.342.023c-1.59.214-2.561,2.47-3.094,4.328-.954,3.31-.684,5.7.824,7.3,3.29,3.486,11.849,3.045,17.076,2.262-4.337-6.5-10.754-13.91-14.464-13.91" transform="translate(55.188 23.954)" fill="#2356f1"/>
            <path id="Trazado_236044" data-name="Trazado 236044" d="M134.415,68.874A51.7,51.7,0,0,1,123.869,67.7l-2.654-.6,1.414-2.323c1.961-3.219,12.24-19.175,20.212-18.147,2.959.4,5.089,2.8,6.336,7.122,1.351,4.694.765,8.418-1.738,11.071-3.012,3.192-8.242,4.055-13.024,4.055m-6.9-4.484c5.235.784,13.8,1.219,17.076-2.262,1.508-1.6,1.776-3.984.825-7.294-.535-1.858-1.505-4.113-3.1-4.326-3.661-.506-10.336,7.185-14.806,13.883" transform="translate(62.335 23.954)" fill="#2356f1"/>
            <path id="Trazado_236045" data-name="Trazado 236045" d="M90.491,85.83l.3,25.888,20.536.45s9.475-.966,14.525.164,33.7,10.4,35.238,6.731-24.408-12.02-24.408-12.02,34.879,4.647,34.66-.471-30.4-7.185-30.4-7.185,37.308-.444,36.563-5.628-34.8-3.066-34.8-3.066,29.937-9.77,28.462-13.639-30.208,5.921-30.208,5.921l-14.7-.447S137.9,72.066,138.664,69.3a16.508,16.508,0,0,0-.071-6.573l-14.07,10.27s-8.939,3.495-11.766,6.272a45.438,45.438,0,0,1-8.428,5.948Z" transform="translate(46.535 32.255)" fill="#feb3a2"/>
            <path id="Trazado_236046" data-name="Trazado 236046" d="M99.717,77.534,98.41,105.117,75.784,105.1l1.693-29.354Z" transform="translate(38.972 38.952)" fill="#1e23c8"/>
            <path id="Trazado_236047" data-name="Trazado 236047" d="M93.433,77.9a1.925,1.925,0,0,0-.339.185,10.011,10.011,0,0,0-1.046.631l-1,21.227c-.015.032-.2,3.972-.2,3.972-.061,0-.356-25.889-.356-25.889l.865-.033c.015-.015,2.078-.092,2.078-.092" transform="translate(46.535 40.06)" fill="#feb3a2"/>
            <path id="Trazado_236048" data-name="Trazado 236048" d="M99.717,77.534l-.045,1.089c-.015.062-1.061,22.429-1.061,22.429-.017.03-.2,4.066-.2,4.066L75.784,105.1l1.693-29.354Z" transform="translate(38.972 38.952)" fill="#5d97f1"/>
            <path id="Trazado_236049" data-name="Trazado 236049" d="M127.477,25.382H61.559A4.792,4.792,0,0,0,57.036,30.4a4.792,4.792,0,0,0,4.523,5.023h65.918A4.793,4.793,0,0,0,132,30.4a4.793,4.793,0,0,0-4.523-5.021" transform="translate(29.331 13.053)" fill="#fff"/>
            <path id="Trazado_236050" data-name="Trazado 236050" d="M127.606,35.933H61.688a5.175,5.175,0,0,1-4.9-5.4,5.175,5.175,0,0,1,4.9-5.4h65.918a5.176,5.176,0,0,1,4.9,5.4,5.177,5.177,0,0,1-4.9,5.4M61.688,25.889a4.421,4.421,0,0,0-4.144,4.643,4.421,4.421,0,0,0,4.144,4.644h65.918a4.422,4.422,0,0,0,4.146-4.644,4.422,4.422,0,0,0-4.146-4.643Z" transform="translate(29.202 12.924)" fill="#0041ef"/>
            <path id="Trazado_236051" data-name="Trazado 236051" d="M32.058,25.213a9.332,9.332,0,1,0,9.329-9.335,9.33,9.33,0,0,0-9.329,9.335" transform="translate(16.486 8.165)" fill="#daecf9"/>
            <path id="Trazado_236052" data-name="Trazado 236052" d="M203.212,62.7a9.332,9.332,0,1,0,9.329-9.335,9.331,9.331,0,0,0-9.329,9.335" transform="translate(104.502 27.444)" fill="#daecf9"/>
            <path id="Trazado_236053" data-name="Trazado 236053" d="M180.909,19.884A6.419,6.419,0,1,1,185.446,18a6.377,6.377,0,0,1-4.537,1.882m0-11.319a4.9,4.9,0,1,0,4.9,4.9,4.909,4.909,0,0,0-4.9-4.9" transform="translate(89.732 3.626)" fill="#9fc6f1"/>
            <path id="Trazado_236054" data-name="Trazado 236054" d="M141.807,46.709a9.332,9.332,0,1,0,9.329-9.335,9.33,9.33,0,0,0-9.329,9.335" transform="translate(72.924 19.22)" fill="#fff"/>
            <path id="Trazado_236055" data-name="Trazado 236055" d="M174.657,47.032a6.716,6.716,0,1,1,4.752-1.97,6.727,6.727,0,0,1-4.752,1.97m0-12.361a5.64,5.64,0,1,0,3.99,1.651,5.607,5.607,0,0,0-3.99-1.651" transform="translate(86.362 17.278)" fill="#fff"/>
            <path id="Trazado_236056" data-name="Trazado 236056" d="M149.314,162.286a9.332,9.332,0,1,0,9.329-9.335,9.331,9.331,0,0,0-9.329,9.335" transform="translate(76.785 78.655)" fill="#fff"/>
            <path id="Trazado_236057" data-name="Trazado 236057" d="M156.626,126.964a3.194,3.194,0,1,0,3.194-3.2,3.194,3.194,0,0,0-3.194,3.2" transform="translate(80.545 63.648)" fill="#fff"/>
            <path id="Trazado_236058" data-name="Trazado 236058" d="M219.347,94.351a4.666,4.666,0,1,0,4.664-4.668,4.666,4.666,0,0,0-4.664,4.668" transform="translate(112.799 46.119)" fill="#daecf9"/>
            <path id="Trazado_236059" data-name="Trazado 236059" d="M4.595,111.906a6.426,6.426,0,1,0,6.423-6.428,6.426,6.426,0,0,0-6.423,6.428" transform="translate(2.363 54.242)" fill="#daecf9"/>
            <path id="Trazado_236060" data-name="Trazado 236060" d="M193.4,103.934a4.666,4.666,0,1,0,4.664-4.668,4.666,4.666,0,0,0-4.664,4.668" transform="translate(99.456 51.047)" fill="#daecf9"/>
            <path id="Trazado_236061" data-name="Trazado 236061" d="M20.311,129.592a4.666,4.666,0,1,0,4.664-4.668,4.666,4.666,0,0,0-4.664,4.668" transform="translate(10.445 64.242)" fill="#daecf9"/>
            <path id="Trazado_236062" data-name="Trazado 236062" d="M176.787,67.264l-1.325,10.451L186.5,72.194a12.278,12.278,0,0,1-1.619-4.269c-.442-2.5-1.031-4.93-1.031-4.93Z" transform="translate(90.231 32.395)" fill="#feb3a2"/>
            <path id="Trazado_236063" data-name="Trazado 236063" d="M175.206,54.782s-4.759,13.272-.442,17.515c3.119,3.063,14.646-5.741,13.983-9.2s-4.269.662-4.269.662.663-3.384-1.47-4.635-4.858-2.135-5.815-3.018a7.842,7.842,0,0,0-1.987-1.325" transform="translate(88.941 28.172)" fill="#feb3a2"/>
            <path id="Trazado_236064" data-name="Trazado 236064" d="M173.984,53.893s-.16,4.358,2.951,5.741,5.155,1.458,5.933,3.015a10.712,10.712,0,0,1,.906,3.533s2.567-2.882,3.487-2.283c1.3.845-1.089,5.586-2.385,6.623s2.182,8.97,2.182,8.97a7.117,7.117,0,0,1,6.137,3.457c2.075,3.63-.086,21.26-.086,21.26s-.951,5.532,2.765,4.755,4.806-5.889,8.263-7.1,7.361-2.421,9.282-5.347c3.346-5.1-3.68-4.241-4.149-10.026-.254-3.131,3.71-2.785,4.406-5.79,1.614-6.952-15.209-14.52-17.37-17.546s-5.445-12.1-11.149-12.53-11.174,3.268-11.174,3.268" transform="translate(89.471 26.016)"/>
            <path id="Trazado_236065" data-name="Trazado 236065" d="M196.814,109.347a2.082,2.082,0,0,1-1.505-.569c-1.292-1.248-.895-4.114-.831-4.525l-6.112-24.97c-.586-1.331-3.505-8.2-2.134-9.3,1-.8,2.789-4.1,2.711-5.7a.785.785,0,0,0-.28-.659c-.928-.6-13.678-10.309-13.678-10.309l.23-.17c.048-.036,4.927-3.589,10.716-3.153,4.485.338,7.114,5.329,9.034,8.975a28.125,28.125,0,0,0,1.7,2.962c.656.918,2.953,2.4,5.61,4.12,6.166,3.99,14.609,9.452,13.45,14.447a4.754,4.754,0,0,1-2.48,2.883c-1.128.728-2.1,1.355-1.975,2.912.209,2.57,1.729,3.789,3.072,4.865,1.634,1.308,3.045,2.441,1.092,5.416-1.87,2.844-5.591,4.135-8.874,5.276l-.628.22c-1.6.559-2.667,1.959-3.8,3.442-1.246,1.632-2.535,3.318-4.591,3.749a3.615,3.615,0,0,1-.727.08M175.709,53.333c1.726,1.313,12.344,9.388,13.188,9.935a1.183,1.183,0,0,1,.475,1c.088,1.79-1.778,5.177-2.872,6.051-.86.69.937,5.778,2.273,8.825l6.143,25.093c-.012.074-.509,3.074.694,4.232a1.944,1.944,0,0,0,1.844.377c1.9-.4,3.085-1.949,4.338-3.59,1.121-1.469,2.279-2.985,4-3.586l.628-.22c3.375-1.172,6.866-2.385,8.655-5.109,1.738-2.647.591-3.568-1-4.844-1.34-1.074-3.009-2.412-3.231-5.164-.148-1.813,1.03-2.573,2.168-3.309a4.357,4.357,0,0,0,2.3-2.62c1.093-4.7-7.2-10.07-13.265-13.987-2.806-1.817-5.023-3.251-5.725-4.235a27.951,27.951,0,0,1-1.729-3.012c-1.873-3.554-4.438-8.424-8.687-8.745a17.391,17.391,0,0,0-10.189,2.906" transform="translate(89.986 25.693)"/>
            <path id="Trazado_236066" data-name="Trazado 236066" d="M204.8,65.629a22.565,22.565,0,0,0-3.733-1.6,9.678,9.678,0,0,1-5.026-3.18,22.745,22.745,0,0,1-1.89-2.869c-1.532-2.592-3.269-5.532-7.311-7.214-3.655-1.523-10.682,2.111-10.753,2.149l-.2-.382c.3-.154,7.279-3.76,11.116-2.164,4.173,1.737,5.949,4.743,7.515,7.393a22.542,22.542,0,0,0,1.852,2.815,9.233,9.233,0,0,0,4.835,3.048,22.841,22.841,0,0,1,3.8,1.631Z" transform="translate(90.451 25.692)"/>
            <path id="Trazado_236067" data-name="Trazado 236067" d="M178.756,75.356s-8.263,11.308-9.039,15.844,2.032,14.523,2.032,14.523.85,2.07-.3,7.794-8.728,93.737-8.728,93.737l55.811-1.575s-8.752-44.616-14.529-71.435c-2.335-10.839-6.086-18.089-5.633-19.367,1.575-4.435,4.546-20.557,4.976-24.708s1.554-16.87-4.487-19.69c-4.06-1.893-6.514-2.9-6.514-2.9Z" transform="translate(83.681 34.752)" fill="#8c5be1"/>
            <path id="Trazado_236068" data-name="Trazado 236068" d="M195.731,84.321,190.063,98.5l-29.541,1.284a37.546,37.546,0,0,0-3.876-2.759c-2.536-1.552-5.486-2.279-5.84-1.744-.648.978,3.336,3.509,3.336,3.509s-10.244-.974-10.751.489,8.472,1.614,8.472,1.614-10.217.256-10.068,1.488,10.167.706,10.167.706-8.554,1.092-8.178,2.084,7.965.2,7.965.2-5.827,1.984-4.918,2.715,5.644-1.443,5.644-1.443,5.31.033,8.692.32c10.142.863,29.837,3.248,33.821,1.994,5.309-1.67,11.64-17.841,11.64-17.841Z" transform="translate(72.916 43.362)" fill="#feb3a2"/>
            <path id="Trazado_236069" data-name="Trazado 236069" d="M190.1,98.9a.368.368,0,0,1-.191-.051l-14.752-8.592a.379.379,0,0,1-.145-.5c.026-.05,2.627-5.058,4.341-8.817,1.725-3.786,2.709-5.286,5.5-7.3l.6-.438c2.347-1.726,4.564-3.356,8.434-.895,4.706,3,1.932,13.846,1.9,13.954-.448,1.507-5.138,11.975-5.336,12.42a.387.387,0,0,1-.23.206.371.371,0,0,1-.115.017M175.85,89.78l14.076,8.2c.869-1.944,4.743-10.639,5.13-11.941.5-1.672,2.221-10.675-1.582-13.1-3.433-2.185-5.264-.837-7.577.866l-.6.441c-2.648,1.914-3.589,3.356-5.251,7-1.472,3.227-3.59,7.364-4.193,8.533" transform="translate(89.978 36.535)" fill="#09030f"/>
            <path id="Trazado_236070" data-name="Trazado 236070" d="M105.569,139.545l-.709,10.094,1.063.8,14.344-2.48Z" transform="translate(53.924 71.761)" fill="#9195f0"/>
            <path id="Trazado_236071" data-name="Trazado 236071" d="M92.658,101.694a1,1,0,1,1,1.4.215,1,1,0,0,1-1.4-.215" transform="translate(47.549 51.474)" fill="#1e23c8"/>
            <path id="Trazado_236072" data-name="Trazado 236072" d="M82.89,99.921a1,1,0,1,1,.123,1.414,1.005,1.005,0,0,1-.123-1.414" transform="translate(42.505 51.201)" fill="#e69104"/>
            <path id="Trazado_236073" data-name="Trazado 236073" d="M120.268,169.038V98.552l-13.636,2.3-1.772,61.453Z" transform="translate(53.924 50.68)" fill="#1e23c8"/>
            <path id="Trazado_236074" data-name="Trazado 236074" d="M97.293,104.212a.216.216,0,0,1-.218-.209c0-.036-.112-3.76-.522-8.7a.215.215,0,0,1,.2-.232.222.222,0,0,1,.23.2c.412,4.952.524,8.687.525,8.724a.216.216,0,0,1-.212.221" transform="translate(49.651 48.89)" fill="#040076"/>
            <path id="Trazado_236075" data-name="Trazado 236075" d="M82.961,113.311a.221.221,0,0,1-.214-.242c.006-.038.5-3.82,1.417-8.83a122.472,122.472,0,0,1,4.659-18.631,35.115,35.115,0,0,1,1.549-3.625c1.687-3.357,3.459-4.886,5.248-4.564a2.225,2.225,0,0,1,.531.157.335.335,0,0,1,.12.05,3.214,3.214,0,0,1,.713.385,1.011,1.011,0,0,1,.162.124l.064.053a.214.214,0,0,1-.27.333l-.074-.062a.821.821,0,0,0-.117-.089,2.844,2.844,0,0,0-.659-.354,2.225,2.225,0,0,0-.547-.174c-1.587-.3-3.2,1.167-4.79,4.334a34.942,34.942,0,0,0-1.529,3.583,121.814,121.814,0,0,0-4.638,18.559c-.913,5-1.411,8.771-1.414,8.808a.217.217,0,0,1-.214.186" transform="translate(42.552 39.791)" fill="#040076"/>
            <path id="Trazado_236076" data-name="Trazado 236076" d="M78.125,99.566l47.993-1.949s-.047,1.166-.13,3.206c-.569,13.822-2.839,67.781-3.766,71.176.177-.177-49.056-5.314-49.056-5.314Z" transform="translate(37.626 50.199)" fill="#594cf0"/>
            <path id="Trazado_236077" data-name="Trazado 236077" d="M98,101.523a1.17,1.17,0,1,1,1.169,1.171A1.169,1.169,0,0,1,98,101.523" transform="translate(50.397 51.607)" fill="#1e23c8"/>
            <path id="Trazado_236078" data-name="Trazado 236078" d="M80.244,101.523a1.17,1.17,0,1,1,1.171,1.171,1.169,1.169,0,0,1-1.171-1.171" transform="translate(41.265 51.607)" fill="#1e23c8"/>
            <path id="Trazado_236079" data-name="Trazado 236079" d="M99.25,104.2a.22.22,0,0,1-.221-.2c0-.036-.206-3.714-.8-8.652a.214.214,0,0,1,.188-.238.2.2,0,0,1,.238.188c.6,4.953.8,8.642.8,8.68a.218.218,0,0,1-.209.226" transform="translate(50.514 48.905)" fill="#040076"/>
            <path id="Trazado_236080" data-name="Trazado 236080" d="M81.09,113.515a.22.22,0,0,1-.212-.245c0-.038.568-3.822,1.619-8.849A126.065,126.065,0,0,1,86.3,90.034c.562-1.638,1.143-3.156,1.719-4.5,2.656-6.09,5.5-8.94,8.46-8.513a4.79,4.79,0,0,1,.662.147,7.434,7.434,0,0,1,.83.336,6.394,6.394,0,0,1,.872.563c.035.021.085.056.15.1a.215.215,0,0,1,.045.3.212.212,0,0,1-.3.047c-.059-.045-.1-.073-.147-.1a6.238,6.238,0,0,0-.816-.528,6.886,6.886,0,0,0-.765-.307,3.737,3.737,0,0,0-.594-.13c-2.753-.424-5.439,2.373-8.007,8.263-.572,1.333-1.145,2.835-1.7,4.462a125.312,125.312,0,0,0-3.8,14.337c-1.048,5.014-1.608,8.784-1.614,8.822a.215.215,0,0,1-.212.183" transform="translate(41.59 39.586)" fill="#040076"/>
            <path id="Trazado_236081" data-name="Trazado 236081" d="M77.84,133.636l-4.709,7.6.5,1.06,12.238,3.966Z" transform="translate(37.608 68.722)" fill="#fde180"/>
            <path id="Trazado_236082" data-name="Trazado 236082" d="M84.7,161.99l21.321-57.646-3.919-1.287-26.68,47.328Z" transform="translate(38.784 52.997)" fill="#e69104"/>
            <path id="Trazado_236083" data-name="Trazado 236083" d="M88.532,105.154a.207.207,0,0,1-.089-.02.215.215,0,0,1-.106-.285c.02-.042,1.962-4.276,4.122-9.762a.211.211,0,0,1,.277-.123.215.215,0,0,1,.121.279c-2.162,5.5-4.11,9.744-4.129,9.787a.214.214,0,0,1-.2.124" transform="translate(45.417 48.827)" fill="#040076"/>
            <path id="Trazado_236084" data-name="Trazado 236084" d="M77.472,105.337a.217.217,0,0,1-.112-.032.214.214,0,0,1-.071-.3s.2-.327.591-.9c1.993-3.012,5.987-8.887,10.323-14.375,1.1-1.4,2.271-2.818,3.484-4.225a50.037,50.037,0,0,1,5.491-5.551,17.2,17.2,0,0,1,1.56-1.184,9.936,9.936,0,0,1,1.068-.644,1.654,1.654,0,0,1,.312-.173,2.282,2.282,0,0,1,.4-.164,3.378,3.378,0,0,1,1.979-.313,2.126,2.126,0,0,1,.831.339.217.217,0,0,1,.061.3.219.219,0,0,1-.3.059,1.7,1.7,0,0,0-.669-.274,3.064,3.064,0,0,0-1.76.294c-.111.033-.2.071-.291.108a3.23,3.23,0,0,0-.347.192,10.658,10.658,0,0,0-1.051.634,16.99,16.99,0,0,0-1.522,1.158,49.271,49.271,0,0,0-5.439,5.5c-1.208,1.4-2.377,2.817-3.472,4.21-4.326,5.474-8.313,11.339-10.3,14.348-.382.565-.58.887-.58.887a.214.214,0,0,1-.183.1" transform="translate(39.729 39.822)" fill="#040076"/>
            <path id="Trazado_236085" data-name="Trazado 236085" d="M81.08,89.963l38.333,18.232s-.516.893-1.422,2.453c-6.134,10.576-30.121,51.837-32.243,54.11.212-.065-36.175-24.348-36.175-24.348Z" transform="translate(25.493 46.263)" fill="#fc0"/>
            <path id="Trazado_236086" data-name="Trazado 236086" d="M86.367,100.764a1.034,1.034,0,1,1,.433,1.4,1.033,1.033,0,0,1-.433-1.4" transform="translate(44.352 51.533)" fill="#e69104"/>
            <path id="Trazado_236087" data-name="Trazado 236087" d="M75.368,94.887a1.034,1.034,0,1,1,.433,1.4,1.033,1.033,0,0,1-.433-1.4" transform="translate(38.696 48.511)" fill="#e69104"/>
            <path id="Trazado_236088" data-name="Trazado 236088" d="M87.068,103.956a.2.2,0,0,1-.1-.024.213.213,0,0,1-.094-.288c.018-.036,1.87-3.652,4.058-8.518a.215.215,0,0,1,.392.177c-2.194,4.874-4.051,8.5-4.069,8.536a.214.214,0,0,1-.191.117" transform="translate(44.664 48.853)" fill="#040076"/>
            <path id="Trazado_236089" data-name="Trazado 236089" d="M76.008,104.319a.213.213,0,0,1-.123-.038.216.216,0,0,1-.053-.3A209.681,209.681,0,0,1,90.638,85.45c1.334-1.443,2.38-2.5,3.328-3.381a.218.218,0,0,1,.083-.079,31.576,31.576,0,0,1,3.88-3.231c.28-.206.58-.389.845-.55.3-.168.545-.309.777-.432a.574.574,0,0,1,.126-.05,6.789,6.789,0,0,1,.747-.316,2.979,2.979,0,0,1,2.735.117,1.761,1.761,0,0,1,.2.164,2.09,2.09,0,0,1,.329.347.214.214,0,0,1-.342.257,1.876,1.876,0,0,0-.276-.288,1.493,1.493,0,0,0-.157-.13,2.548,2.548,0,0,0-2.326-.062,5.324,5.324,0,0,0-.742.309.209.209,0,0,1-.1.026c-.221.129-.465.267-.709.4-.3.18-.586.357-.857.557a31.82,31.82,0,0,0-3.873,3.23c-.957.887-2,1.937-3.283,3.313a210.66,210.66,0,0,0-14.838,18.574.211.211,0,0,1-.176.092" transform="translate(38.977 39.671)" fill="#040076"/>
            <rect id="Rectángulo_64356" data-name="Rectángulo 64356" width="50.791" height="10.026" transform="translate(100.118 54.44)" fill="#e8f2f9"/>
            <path id="Trazado_236090" data-name="Trazado 236090" d="M92.308,36.787v0Z" transform="translate(47.469 18.918)" fill="#fff"/>
            <path id="Trazado_236091" data-name="Trazado 236091" d="M92.437,44.793a.379.379,0,0,1-.379-.379v-7.5a.379.379,0,1,1,.757,0v7.5a.379.379,0,0,1-.379.379" transform="translate(47.341 18.789)" fill="#0041ef"/>
            <path id="Trazado_236092" data-name="Trazado 236092" d="M94.7,38.217,99.23,38.2l-2.1,3.209Z" transform="translate(48.701 19.646)" fill="#fff"/>
            <path id="Trazado_236093" data-name="Trazado 236093" d="M97.269,41.92a.384.384,0,0,1-.309-.148l-2.43-3.2a.379.379,0,0,1,.3-.607l4.529-.015a.379.379,0,0,1,.318.586l-2.1,3.21a.385.385,0,0,1-.31.171m-1.676-3.2,1.646,2.164,1.419-2.173Z" transform="translate(48.572 19.517)" fill="#0041ef"/>
            <rect id="Rectángulo_64357" data-name="Rectángulo 64357" width="1.515" height="90.405" transform="matrix(0.976, -0.216, 0.216, 0.976, 276.982, 152.467)" fill="#fff"/>
            <rect id="Rectángulo_64358" data-name="Rectángulo 64358" width="1.514" height="89.357" transform="translate(272.138 152.399) rotate(-7.294)" fill="#fff"/>
            <rect id="Rectángulo_64359" data-name="Rectángulo 64359" width="1.512" height="89.055" transform="translate(267.9 152.327) rotate(-2.375)" fill="#fff"/>
            <path id="Trazado_236094" data-name="Trazado 236094" d="M168.692,189.961l-1.511-.1,5.987-88.989,1.511.1Z" transform="translate(85.973 51.873)" fill="#fff"/>
            <rect id="Rectángulo_64360" data-name="Rectángulo 64360" width="88.859" height="1.514" transform="translate(262.166 241.527) rotate(-89.198)" fill="#fff"/>
            <path id="Trazado_236095" data-name="Trazado 236095" d="M123.23,204.669a1.109,1.109,0,0,1-.1.089.916.916,0,0,1-1.286-.156c-37.158-47.438-95.741-53.815-96.33-53.874a.915.915,0,1,1,.183-1.82c.6.058,59.955,6.517,97.589,54.564a.915.915,0,0,1-.058,1.2" transform="translate(12.698 76.574)" fill="#6399e2"/>
            <path id="Trazado_236096" data-name="Trazado 236096" d="M73.193,164.006s-12.291,2.815-19.31,10.847a36.368,36.368,0,0,0-8.662,19.793s13.893-3.907,20.368-11.3,7.6-19.337,7.6-19.337" transform="translate(23.255 84.34)" fill="#6399e2"/>
            <path id="Trazado_236097" data-name="Trazado 236097" d="M58.757,136.868s-4.8,11.66-2.294,22.028a36.371,36.371,0,0,0,11.158,18.5s4.833-13.6,2.533-23.156-11.4-17.373-11.4-17.373" transform="translate(28.664 70.384)" fill="#6399e2"/>
            <path id="Trazado_236098" data-name="Trazado 236098" d="M56.121,155.913s-10.026,2.321-15.809,8.684a28.64,28.64,0,0,0-7.229,15.6s11.337-3.192,16.672-9.054,6.366-15.235,6.366-15.235" transform="translate(17.013 80.178)" fill="#6399e2"/>
            <path id="Trazado_236099" data-name="Trazado 236099" d="M43.293,134.807s-3.327,9.146-1.166,16.949a26.705,26.705,0,0,0,8.919,13.592s3.3-10.632,1.316-17.821-9.069-12.72-9.069-12.72" transform="translate(21.288 69.324)" fill="#6399e2"/>
            <path id="Trazado_236100" data-name="Trazado 236100" d="M44.428,152.248S36.622,151.573,31,154.9a21.7,21.7,0,0,0-8.731,9.832s8.954.344,14.139-2.724,8.022-9.764,8.022-9.764" transform="translate(11.451 78.265)" fill="#6399e2"/>
            <path id="Trazado_236101" data-name="Trazado 236101" d="M30.447,135.584s-1.513,7.686,1.195,13.637a21.7,21.7,0,0,0,8.836,9.74s1.305-8.866-1.186-14.351-8.845-9.026-8.845-9.026" transform="translate(15.441 69.724)" fill="#6399e2"/>
            <path id="Trazado_236102" data-name="Trazado 236102" d="M33.709,151.23s-4.393-3.748-9.649-4.223a20.829,20.829,0,0,0-10.709,1.979s5.277,4.049,10.118,4.49,10.239-2.246,10.239-2.246" transform="translate(6.866 75.559)" fill="#6399e2"/>
            <path id="Trazado_236103" data-name="Trazado 236103" d="M211.183,98.489s15.683,16.131,18.519,34.629a61.74,61.74,0,0,1-5.921,37.11s-17.038-19.284-19.664-36.328,7.065-35.411,7.065-35.411" transform="translate(104.735 50.648)" fill="#43a99b"/>
          </g>
        </g>
        <g id="Grupo_183812" data-name="Grupo 183812" transform="translate(149.282 262.204)">
          <g id="Grupo_183811" data-name="Grupo 183811" clip-path="url(#clip-path-9)">
            <rect id="Rectángulo_64362" data-name="Rectángulo 64362" width="52.189" height="7.582" transform="translate(-0.001 -0.005)" fill="url(#linear-gradient-3)"/>
          </g>
        </g>
        <g id="Grupo_183814" data-name="Grupo 183814">
          <g id="Grupo_183813" data-name="Grupo 183813" clip-path="url(#clip-path)">
            <rect id="Rectángulo_64364" data-name="Rectángulo 64364" width="1.54" height="6.887" transform="translate(150.133 262.639)" fill="#e69104"/>
            <rect id="Rectángulo_64365" data-name="Rectángulo 64365" width="1.54" height="6.887" transform="translate(152.956 262.639)" fill="#e69104"/>
            <rect id="Rectángulo_64366" data-name="Rectángulo 64366" width="1.538" height="6.887" transform="translate(156.292 262.639)" fill="#e69104"/>
            <rect id="Rectángulo_64367" data-name="Rectángulo 64367" width="1.538" height="6.887" transform="translate(159.114 262.639)" fill="#e69104"/>
            <rect id="Rectángulo_64368" data-name="Rectángulo 64368" width="1.538" height="6.887" transform="translate(162.299 262.639)" fill="#e69104"/>
            <rect id="Rectángulo_64369" data-name="Rectángulo 64369" width="1.538" height="6.887" transform="translate(165.12 262.639)" fill="#e69104"/>
            <rect id="Rectángulo_64370" data-name="Rectángulo 64370" width="1.54" height="6.887" transform="translate(168.216 262.639)" fill="#e69104"/>
            <rect id="Rectángulo_64371" data-name="Rectángulo 64371" width="1.54" height="6.887" transform="translate(171.039 262.639)" fill="#e69104"/>
            <rect id="Rectángulo_64372" data-name="Rectángulo 64372" width="1.538" height="6.887" transform="translate(174.223 262.639)" fill="#e69104"/>
            <rect id="Rectángulo_64373" data-name="Rectángulo 64373" width="1.54" height="6.887" transform="translate(177.044 262.639)" fill="#e69104"/>
            <rect id="Rectángulo_64374" data-name="Rectángulo 64374" width="1.538" height="6.887" transform="translate(180.485 262.639)" fill="#e69104"/>
            <rect id="Rectángulo_64375" data-name="Rectángulo 64375" width="1.538" height="6.887" transform="translate(183.306 262.639)" fill="#e69104"/>
            <rect id="Rectángulo_64376" data-name="Rectángulo 64376" width="1.54" height="6.887" transform="translate(186.489 262.639)" fill="#e69104"/>
            <rect id="Rectángulo_64377" data-name="Rectángulo 64377" width="1.538" height="6.887" transform="translate(189.313 262.639)" fill="#e69104"/>
            <rect id="Rectángulo_64378" data-name="Rectángulo 64378" width="1.54" height="6.887" transform="translate(192.216 262.639)" fill="#e69104"/>
            <rect id="Rectángulo_64379" data-name="Rectángulo 64379" width="1.54" height="6.887" transform="translate(195.4 262.639)" fill="#e69104"/>
            <rect id="Rectángulo_64380" data-name="Rectángulo 64380" width="1.54" height="6.887" transform="translate(198.221 262.639)" fill="#e69104"/>
          </g>
        </g>
        <g id="Grupo_183816" data-name="Grupo 183816" transform="translate(138.408 269.833)">
          <g id="Grupo_183815" data-name="Grupo 183815" clip-path="url(#clip-path-9)">
            <rect id="Rectángulo_64382" data-name="Rectángulo 64382" width="52.189" height="7.582" transform="translate(-0.001 -0.005)" fill="url(#linear-gradient-4)"/>
          </g>
        </g>
        <g id="Grupo_183818" data-name="Grupo 183818">
          <g id="Grupo_183817" data-name="Grupo 183817" clip-path="url(#clip-path)">
            <rect id="Rectángulo_64384" data-name="Rectángulo 64384" width="1.54" height="6.887" transform="translate(139.258 270.269)" fill="#e69104"/>
            <rect id="Rectángulo_64385" data-name="Rectángulo 64385" width="1.538" height="6.887" transform="translate(142.082 270.269)" fill="#e69104"/>
            <rect id="Rectángulo_64386" data-name="Rectángulo 64386" width="1.54" height="6.887" transform="translate(145.416 270.269)" fill="#e69104"/>
            <rect id="Rectángulo_64387" data-name="Rectángulo 64387" width="1.54" height="6.887" transform="translate(148.239 270.269)" fill="#e69104"/>
            <rect id="Rectángulo_64388" data-name="Rectángulo 64388" width="1.54" height="6.887" transform="translate(151.422 270.269)" fill="#e69104"/>
            <rect id="Rectángulo_64389" data-name="Rectángulo 64389" width="1.54" height="6.887" transform="translate(154.244 270.269)" fill="#e69104"/>
            <rect id="Rectángulo_64390" data-name="Rectángulo 64390" width="1.54" height="6.887" transform="translate(157.343 270.269)" fill="#e69104"/>
            <rect id="Rectángulo_64391" data-name="Rectángulo 64391" width="1.54" height="6.887" transform="translate(160.164 270.269)" fill="#e69104"/>
            <rect id="Rectángulo_64392" data-name="Rectángulo 64392" width="1.54" height="6.887" transform="translate(163.348 270.269)" fill="#e69104"/>
            <rect id="Rectángulo_64393" data-name="Rectángulo 64393" width="1.54" height="6.887" transform="translate(166.171 270.269)" fill="#e69104"/>
            <rect id="Rectángulo_64394" data-name="Rectángulo 64394" width="1.54" height="6.887" transform="translate(169.608 270.269)" fill="#e69104"/>
            <rect id="Rectángulo_64395" data-name="Rectángulo 64395" width="1.54" height="6.887" transform="translate(172.431 270.269)" fill="#e69104"/>
            <rect id="Rectángulo_64396" data-name="Rectángulo 64396" width="1.54" height="6.887" transform="translate(175.615 270.269)" fill="#e69104"/>
            <rect id="Rectángulo_64397" data-name="Rectángulo 64397" width="1.54" height="6.887" transform="translate(178.436 270.269)" fill="#e69104"/>
            <rect id="Rectángulo_64398" data-name="Rectángulo 64398" width="1.54" height="6.887" transform="translate(181.342 270.269)" fill="#e69104"/>
            <rect id="Rectángulo_64399" data-name="Rectángulo 64399" width="1.538" height="6.887" transform="translate(184.526 270.269)" fill="#e69104"/>
            <rect id="Rectángulo_64400" data-name="Rectángulo 64400" width="1.538" height="6.887" transform="translate(187.349 270.269)" fill="#e69104"/>
          </g>
        </g>
        <g id="Grupo_183820" data-name="Grupo 183820" transform="translate(127.633 254.93)">
          <g id="Grupo_183819" data-name="Grupo 183819" clip-path="url(#clip-path-9)">
            <rect id="Rectángulo_64402" data-name="Rectángulo 64402" width="52.189" height="7.582" transform="translate(-0.001 -0.005)" fill="url(#linear-gradient-5)"/>
          </g>
        </g>
        <g id="Grupo_183822" data-name="Grupo 183822">
          <g id="Grupo_183821" data-name="Grupo 183821" clip-path="url(#clip-path)">
            <rect id="Rectángulo_64404" data-name="Rectángulo 64404" width="1.54" height="6.887" transform="translate(128.482 255.364)" fill="#e69104"/>
            <rect id="Rectángulo_64405" data-name="Rectángulo 64405" width="1.538" height="6.887" transform="translate(131.307 255.364)" fill="#e69104"/>
            <rect id="Rectángulo_64406" data-name="Rectángulo 64406" width="1.54" height="6.887" transform="translate(134.641 255.364)" fill="#e69104"/>
            <rect id="Rectángulo_64407" data-name="Rectángulo 64407" width="1.54" height="6.887" transform="translate(137.462 255.364)" fill="#e69104"/>
            <rect id="Rectángulo_64408" data-name="Rectángulo 64408" width="1.54" height="6.887" transform="translate(140.646 255.364)" fill="#e69104"/>
            <rect id="Rectángulo_64409" data-name="Rectángulo 64409" width="1.54" height="6.887" transform="translate(143.469 255.364)" fill="#e69104"/>
            <rect id="Rectángulo_64410" data-name="Rectángulo 64410" width="1.54" height="6.887" transform="translate(146.566 255.364)" fill="#e69104"/>
            <rect id="Rectángulo_64411" data-name="Rectángulo 64411" width="1.538" height="6.887" transform="translate(149.39 255.364)" fill="#e69104"/>
            <rect id="Rectángulo_64412" data-name="Rectángulo 64412" width="1.54" height="6.887" transform="translate(152.573 255.364)" fill="#e69104"/>
            <rect id="Rectángulo_64413" data-name="Rectángulo 64413" width="1.54" height="6.887" transform="translate(155.394 255.364)" fill="#e69104"/>
            <rect id="Rectángulo_64414" data-name="Rectángulo 64414" width="1.54" height="6.887" transform="translate(158.833 255.364)" fill="#e69104"/>
            <rect id="Rectángulo_64415" data-name="Rectángulo 64415" width="1.54" height="6.887" transform="translate(161.655 255.364)" fill="#e69104"/>
            <rect id="Rectángulo_64416" data-name="Rectángulo 64416" width="1.54" height="6.887" transform="translate(164.84 255.364)" fill="#e69104"/>
            <rect id="Rectángulo_64417" data-name="Rectángulo 64417" width="1.54" height="6.887" transform="translate(167.661 255.364)" fill="#e69104"/>
            <rect id="Rectángulo_64418" data-name="Rectángulo 64418" width="1.54" height="6.887" transform="translate(170.565 255.364)" fill="#e69104"/>
            <rect id="Rectángulo_64419" data-name="Rectángulo 64419" width="1.538" height="6.887" transform="translate(173.751 255.364)" fill="#e69104"/>
            <rect id="Rectángulo_64420" data-name="Rectángulo 64420" width="1.538" height="6.887" transform="translate(176.574 255.364)" fill="#e69104"/>
          </g>
        </g>
        <g id="Grupo_183824" data-name="Grupo 183824" transform="translate(106.013 238.6)">
          <g id="Grupo_183823" data-name="Grupo 183823" clip-path="url(#clip-path-15)">
            <rect id="Rectángulo_64422" data-name="Rectángulo 64422" width="69.828" height="68.922" transform="matrix(0.845, -0.535, 0.535, 0.845, -24.83, 13.963)" fill="url(#linear-gradient-6)"/>
          </g>
        </g>
        <g id="Grupo_183826" data-name="Grupo 183826">
          <g id="Grupo_183825" data-name="Grupo 183825" clip-path="url(#clip-path)">
            <path id="Trazado_236105" data-name="Trazado 236105" d="M86.015,197.814a19.422,19.422,0,1,1,24.472-12.589,19.482,19.482,0,0,1-24.472,12.589m11.319-35.545a17.882,17.882,0,1,0,11.685,22.488,17.941,17.941,0,0,0-11.685-22.488" transform="translate(37.239 82.216)" fill="#e69104"/>
            <path id="Trazado_236106" data-name="Trazado 236106" d="M84.691,187.161a23.094,23.094,0,0,1-4.347-1.919,1.539,1.539,0,0,1,1.554-2.658c1.528.89,6.048,2.979,8.563,1.949a2.845,2.845,0,0,0,1.684-2.15c.485-1.773-.457-2.576-3.73-4.244-2.767-1.411-6.947-3.545-5.1-8.525a4.886,4.886,0,0,1,2.869-2.933c3.92-1.525,9.89,1.42,10.559,1.764a1.54,1.54,0,0,1-1.4,2.742c-2.052-1.046-6.052-2.414-8.044-1.637a1.791,1.791,0,0,0-1.1,1.137c-.778,2.094.118,2.929,3.608,4.709,2.753,1.4,6.523,3.327,5.3,7.8a5.933,5.933,0,0,1-3.493,4.19c-2.152.878-4.758.466-6.929-.224" transform="translate(40.925 85.492)" fill="#e69104"/>
            <path id="Trazado_236107" data-name="Trazado 236107" d="M82.818,184.909a1.542,1.542,0,0,1-.993-1.95l1.239-3.742a1.491,1.491,0,0,1,1.946-.977,1.539,1.539,0,0,1,.977,1.946l-1.24,3.74a1.538,1.538,0,0,1-1.928.983" transform="translate(42.038 91.611)" fill="#e69104"/>
            <path id="Trazado_236108" data-name="Trazado 236108" d="M87.526,170.932a1.546,1.546,0,0,1-.995-1.955l1.419-4.249a1.578,1.578,0,0,1,1.947-.972,1.541,1.541,0,0,1,.974,1.947l-1.419,4.249a1.539,1.539,0,0,1-1.926.98" transform="translate(44.458 84.173)" fill="#e69104"/>
            <rect id="Rectángulo_64423" data-name="Rectángulo 64423" width="2.763" height="1.539" transform="translate(134.409 242.54) rotate(-72.697)" fill="#e69104"/>
            <rect id="Rectángulo_64424" data-name="Rectángulo 64424" width="2.763" height="1.54" transform="matrix(0.577, -0.816, 0.816, 0.577, 139.8, 244.755)" fill="#e69104"/>
            <rect id="Rectángulo_64425" data-name="Rectángulo 64425" width="2.763" height="1.539" transform="matrix(0.801, -0.599, 0.599, 0.801, 144.242, 248.528)" fill="#e69104"/>
            <rect id="Rectángulo_64426" data-name="Rectángulo 64426" width="2.763" height="1.539" transform="translate(147.302 253.488) rotate(-18.774)" fill="#e69104"/>
            <rect id="Rectángulo_64427" data-name="Rectángulo 64427" width="2.763" height="1.539" transform="matrix(1, -0.013, 0.013, 1, 148.678, 259.149)" fill="#e69104"/>
            <path id="Trazado_236109" data-name="Trazado 236109" d="M97.912,176.78l.454-1.47,2.641.819-.459,1.47Z" transform="translate(50.351 90.153)" fill="#e69104"/>
            <rect id="Rectángulo_64428" data-name="Rectángulo 64428" width="1.539" height="2.763" transform="translate(145.633 271.959) rotate(-54.707)" fill="#e69104"/>
            <path id="Trazado_236110" data-name="Trazado 236110" d="M95.521,185.288,93.609,183.3l1.108-1.068,1.916,1.994Z" transform="translate(48.138 93.711)" fill="#e69104"/>
            <rect id="Rectángulo_64429" data-name="Rectángulo 64429" width="1.54" height="2.763" transform="translate(135.957 280.283) rotate(-24.865)" fill="#e69104"/>
            <rect id="Rectángulo_64430" data-name="Rectángulo 64430" width="1.539" height="2.763" transform="matrix(1, -0.013, 0.013, 1, 129.857, 281.246)" fill="#e69104"/>
            <rect id="Rectángulo_64431" data-name="Rectángulo 64431" width="2.763" height="1.539" transform="matrix(0.298, -0.955, 0.955, 0.298, 122.799, 283.242)" fill="#e69104"/>
            <rect id="Rectángulo_64432" data-name="Rectángulo 64432" width="2.763" height="1.54" transform="matrix(0.579, -0.815, 0.815, 0.579, 116.012, 280.009)" fill="#e69104"/>
            <rect id="Rectángulo_64433" data-name="Rectángulo 64433" width="2.764" height="1.54" transform="translate(111.013 274.85) rotate(-36.645)" fill="#e69104"/>
            <rect id="Rectángulo_64434" data-name="Rectángulo 64434" width="2.764" height="1.539" transform="translate(107.537 268.025) rotate(-18.702)" fill="#e69104"/>
            <rect id="Rectángulo_64435" data-name="Rectángulo 64435" width="2.763" height="1.539" transform="translate(106.527 260.826) rotate(-0.676)" fill="#e69104"/>
            <rect id="Rectángulo_64436" data-name="Rectángulo 64436" width="1.539" height="2.763" transform="translate(110.735 248.402) rotate(-54.7)" fill="#e69104"/>
            <rect id="Rectángulo_64437" data-name="Rectángulo 64437" width="1.54" height="2.764" transform="translate(115.627 243.389) rotate(-36.694)" fill="#e69104"/>
            <rect id="Rectángulo_64438" data-name="Rectángulo 64438" width="1.54" height="2.764" transform="translate(121.642 240.211) rotate(-18.693)" fill="#e69104"/>
            <rect id="Rectángulo_64439" data-name="Rectángulo 64439" width="1.539" height="2.764" transform="translate(128.582 238.922) rotate(-0.69)" fill="#e69104"/>
            <rect id="Rectángulo_64440" data-name="Rectángulo 64440" width="1.539" height="2.763" transform="matrix(0.301, -0.954, 0.954, 0.301, 107.213, 255.46)" fill="#e69104"/>
            <path id="Trazado_236111" data-name="Trazado 236111" d="M119.5,41.06l-2.315-2.237a11.017,11.017,0,0,0,.03-15.3l2.315-2.237a14.236,14.236,0,0,1-.03,19.77" transform="translate(60.263 10.948)" fill="#649cf1"/>
            <path id="Trazado_236112" data-name="Trazado 236112" d="M124.952,50.829l-2.353-2.2a21.869,21.869,0,0,0-.232-30.081l2.324-2.23a25.092,25.092,0,0,1,.26,34.508" transform="translate(62.927 8.393)" fill="#649cf1"/>
            <path id="Trazado_236113" data-name="Trazado 236113" d="M130.482,60.758l-2.368-2.179a32.883,32.883,0,0,0-.5-45.067l2.32-2.234a36.1,36.1,0,0,1,.548,49.48" transform="translate(65.625 5.8)" fill="#649cf1"/>
            <path id="Trazado_236114" data-name="Trazado 236114" d="M220.974,170.147,208.166,98.815l1.065-.112c0,.017,12.8,71.255,12.8,71.255Z" transform="translate(107.049 50.758)" fill="#e8efef"/>
            <path id="Trazado_236115" data-name="Trazado 236115" d="M176.343,68.288a.378.378,0,0,1-.094-.745A13.6,13.6,0,0,0,181.6,64.67a.379.379,0,0,1,.519.551,14.133,14.133,0,0,1-5.681,3.054.386.386,0,0,1-.092.012" transform="translate(90.49 33.203)" fill="#09030f"/>
            <path id="Trazado_236116" data-name="Trazado 236116" d="M239.166,148.952l-4.095,43.394-23.86.215-4.11-43.609Z" transform="translate(106.502 76.598)" fill="#ffd976"/>
            <path id="Trazado_236117" data-name="Trazado 236117" d="M223.79,161.735a.412.412,0,0,1-.129-.017c-.286-.1-28.541-9.781-25.117-42.935a.426.426,0,0,1,.247-.345.435.435,0,0,1,.422.035c.547.374,13.422,9.258,17.529,17.986,4.079,8.668,7.44,24.6,7.473,24.762a.429.429,0,0,1-.133.407.435.435,0,0,1-.292.106m-24.463-42.129c-2.6,28.921,19.56,39.286,23.881,41.024-.722-3.286-3.717-16.314-7.241-23.8-3.513-7.467-14.016-15.333-16.64-17.22" transform="translate(101.953 60.887)"/>
            <path id="Trazado_236118" data-name="Trazado 236118" d="M223.563,161.65a.418.418,0,0,1-.3-.132.463.463,0,0,1-.121-.2l-7.9-13.607a.469.469,0,0,1-.035-.074l-16.452-28.419a.43.43,0,0,1,.745-.43l16.484,28.478a.382.382,0,0,1,.033.071l7.91,13.627a.436.436,0,0,1,.058.2.436.436,0,0,1-.419.492" transform="translate(102.179 60.973)"/>
            <path id="Trazado_236119" data-name="Trazado 236119" d="M212.569,136.725a.387.387,0,0,1-.083-.008l-11.392-2.233a.429.429,0,0,1-.338-.5.423.423,0,0,1,.5-.339l11.39,2.232a.429.429,0,0,1-.082.851" transform="translate(103.235 68.72)"/>
            <path id="Trazado_236120" data-name="Trazado 236120" d="M210.782,134.571a.361.361,0,0,1-.08-.008l-10.406-1.97a.428.428,0,0,1-.342-.5.42.42,0,0,1,.5-.341l10.406,1.969a.429.429,0,0,1-.079.851" transform="translate(102.822 67.748)"/>
            <path id="Trazado_236121" data-name="Trazado 236121" d="M210.012,141.649a.427.427,0,0,1-.429-.421l.925-10.091a.43.43,0,0,1,.856.079l-.924,10.036a.436.436,0,0,1-.429.4" transform="translate(107.778 67.236)"/>
            <path id="Trazado_236122" data-name="Trazado 236122" d="M204.193,130.247a.46.46,0,0,1-.424-.469.543.543,0,0,1,.011-.109L205.1,123.8a.429.429,0,0,1,.837.189l-1.323,5.866a.392.392,0,0,1-.424.389" transform="translate(104.788 63.493)"/>
            <path id="Trazado_236123" data-name="Trazado 236123" d="M219.194,171.957a.441.441,0,0,1-.124-.018.425.425,0,0,1-.294-.313c-.3-1.289-7.362-31.725-2.009-42.767,1.428-2.95,2.756-4.284,4.09-4.054,1.8.3,2.873,3.628,3.445,6.263.594-5.307,2.055-15.8,4.738-20.592.522-.931,1.328-2.132,2.264-1.879,1.048.289,1.487,2.626,1.661,4.983,1.1-5.218,3.53-13.283,8.181-14.815,1.255-.41,2.191-.277,2.782.4,2.162,2.494-1.884,12.264-4.1,17.117,1.626-1.582,3.923-3.324,5.651-2.662a1.936,1.936,0,0,1,1.193,1.328c1.2,4.169-7.67,17.02-11.113,21.792,1.741-.969,4.222-2.047,5.562-1.277a2.278,2.278,0,0,1,.909,2.371c-1.089,13.428-21.661,33.168-22.537,34a.427.427,0,0,1-.3.118m1.393-46.315c-.541,0-1.57.538-3.05,3.592-4.765,9.834.84,36.631,1.906,41.451,3.33-3.286,20.762-21.01,21.725-32.917.067-.813-.1-1.337-.48-1.56-1.217-.7-4.656,1.107-6.54,2.411a.429.429,0,0,1-.588-.61c3.792-5.042,13.391-18.971,12.282-22.821a1.067,1.067,0,0,0-.677-.765c-1.881-.719-5.426,3.038-6.629,4.549a.43.43,0,0,1-.721-.459c2.2-4.44,7.471-16.467,5.463-18.783-.341-.4-.969-.447-1.866-.15-6.322,2.082-8.347,18.433-8.366,18.6a.41.41,0,0,1-.459.377.426.426,0,0,1-.4-.439c.111-4.017-.312-8.468-1.118-8.69,0,0-.407-.1-1.286,1.472-3.505,6.26-4.935,23.257-4.949,23.428a.431.431,0,0,1-.421.394.411.411,0,0,1-.435-.379c-.377-3.21-1.6-8.407-3.271-8.687a.676.676,0,0,0-.127-.011" transform="translate(110.444 50.67)"/>
            <path id="Trazado_236124" data-name="Trazado 236124" d="M217.769,171.624a.212.212,0,0,1-.191-.306c.1-.6.878-4.581,2.612-11.4,0,0,.981-3.748,1.319-4.985,1.239-4.555,2.608-9.275,4.072-14.067.566-1.837,2.306-7.306,2.386-7.561a328.378,328.378,0,0,1,13.371-34.445.214.214,0,0,1,.285-.1.216.216,0,0,1,.106.285,327.956,327.956,0,0,0-13.353,34.4c-.08.253-1.819,5.721-2.385,7.556-1.461,4.779-2.826,9.487-4.057,13.995-.347,1.28-1.323,5-1.323,5-1.944,7.667-2.614,11.423-2.618,11.449a.206.206,0,0,1-.056.118.242.242,0,0,1-.168.071" transform="translate(111.877 50.774)"/>
            <path id="Trazado_236125" data-name="Trazado 236125" d="M221.368,146.069l-.215-.017-2.909-29.781a.214.214,0,0,1,.194-.233.2.2,0,0,1,.235.192l2.909,29.8Z" transform="translate(112.231 59.67)"/>
            <path id="Trazado_236126" data-name="Trazado 236126" d="M224.635,130.153a.217.217,0,0,1-.211-.224l1.016-24.32a.241.241,0,0,1,.224-.206.216.216,0,0,1,.206.224l-1.016,24.32a.219.219,0,0,1-.22.206" transform="translate(115.41 54.203)"/>
            <path id="Trazado_236127" data-name="Trazado 236127" d="M223.063,135.771a.224.224,0,0,1-.126-.039.217.217,0,0,1-.048-.3l18.964-26.168a.215.215,0,1,1,.348.251l-18.964,26.168a.213.213,0,0,1-.174.089" transform="translate(114.599 56.143)"/>
            <path id="Trazado_236128" data-name="Trazado 236128" d="M220.514,150.929a.22.22,0,0,1-.214-.2l-2.971-33.786a.217.217,0,0,1,.2-.235.233.233,0,0,1,.232.2l2.971,33.789a.215.215,0,0,1-.2.233Z" transform="translate(111.761 60.016)"/>
            <path id="Trazado_236129" data-name="Trazado 236129" d="M219.5,147.415a.2.2,0,0,1-.214-.2.213.213,0,0,1,.05-.154l19.672-23.444a.217.217,0,0,1,.3-.026.214.214,0,0,1,.026.3l-19.656,23.425a.21.21,0,0,1-.18.1" transform="translate(112.77 63.53)"/>
            <path id="Trazado_236130" data-name="Trazado 236130" d="M191.721,86.653a1.718,1.718,0,0,1-.182-.014l-.245-.026-.28-.406.061-.238c.011-.042.145-.58.344-1.526l.111-.525,1.051.223-.111.524c-.368,1.746-.419,1.988-.748,1.988m1.443-5.709-1.06-.167.471-3.177,1.063.147Zm.848-6.42-1.068-.1.27-3.2,1.071.08Zm.436-6.46-1.072-.029.05-3.207,1.074,0Zm-1.09-6.428-.027-.535q-.052-1.058-.135-2.129l-.041-.535,1.071-.083.041.536c.056.722.164,2.692.164,2.692Zm-.535-6.37-.07-.532q-.139-1.065-.3-2.109l-.083-.531,1.06-.167.083.53q.168,1.061.309,2.138l.068.531Zm-1.042-6.305-.114-.524q-.227-1.047-.48-2.075l-.129-.519,1.042-.257.129.519q.257,1.04.488,2.1l.114.525ZM190.2,42.773l-.162-.512q-.32-1.02-.671-2.02l-.177-.507,1.013-.353.177.506q.354,1.015.681,2.052l.161.512Zm-2.161-6-.212-.492q-.42-.981-.871-1.941l-.227-.485.971-.457.229.486c.3.651.6,1.307.886,1.975l.21.494Zm-2.765-5.745-.262-.468q-.522-.931-1.074-1.834l-.28-.459.916-.559.279.459q.563.92,1.095,1.869l.262.468ZM181.9,25.615l-.313-.435q-.62-.863-1.27-1.7l-.329-.422.846-.66.329.422q.663.852,1.295,1.731l.313.436Zm-3.957-4.986-.36-.4q-.715-.788-1.46-1.545l-.376-.383.766-.751.376.383q.759.772,1.487,1.573l.36.4Zm-4.5-4.5-.4-.354q-.8-.7-1.626-1.37L171,14.06l.677-.833.416.338q.843.686,1.657,1.4l.4.353Zm-4.985-3.978-.439-.307q-.87-.606-1.766-1.189l-.451-.291.585-.9.451.294q.909.588,1.794,1.205l.441.309Zm-75.967-.8L92,10.392l.477-.245s.7-.359,1.967-.942l.489-.223.447.975-.489.224c-1.237.565-1.922.918-1.922.918Zm70.585-2.624-.469-.259q-.927-.516-1.878-1l-.479-.244.489-.955.479.244q.963.5,1.908,1.016l.469.26ZM98.319,8.7l-.4-.993,3.012-1.181.38,1Zm6-2.255-.344-1.016L107.05,4.42l.324,1.024Zm53.049-.585-.492-.215q-.97-.425-1.964-.819l-.5-.2.4-1,.5.2q1.008.4,2,.833l.491.215ZM110.444,4.535,110.159,3.5l3.127-.822.262,1.039Zm40.98-.963-.515-.157q-1.018-.309-2.044-.574l-.518-.135.268-1.037.519.135q1.047.27,2.088.585l.512.156ZM116.666,3l-.22-1.051,3.172-.622.194,1.055-.528.1c-.706.129-2.618.521-2.618.521m28.575-.96-.528-.094q-1.049-.184-2.1-.326l-.531-.071.145-1.065.532.071Q143.827.7,144.9.89l.528.092Zm-22.273-.168L122.824.809S124.78.55,125.5.471l.533-.058.117,1.066-.533.059q-1.065.116-2.117.262Zm15.948-.642-.535-.035c-.712-.045-1.419-.079-2.128-.1l-.536-.018L135.754,0l.536.018c.718.023,1.437.059,2.158.1l.536.035Zm-9.584-.021L129.269.138,129.8.106q1.077-.061,2.162-.092L132.5,0l.029,1.072L132,1.087q-1.07.03-2.128.089Z" transform="translate(47.309)" fill="#0041ef"/>
            <path id="Trazado_236131" data-name="Trazado 236131" d="M33.2,158.536l-.525-.1a21.783,21.783,0,0,1-2.141-.578l-.512-.164.326-1.024.51.164a20.662,20.662,0,0,0,2.025.55l.527.1Zm-6.248-2.064-.485-.232c-.625-.3-1.277-.636-1.937-1.013l-.466-.267.532-.931.466.267c.637.362,1.264.687,1.869.978l.485.23ZM21.329,153.1l-.416-.338c-.572-.463-1.125-.955-1.64-1.458l-.383-.376.748-.766.385.374c.492.48,1.019.949,1.566,1.392l.418.339Zm-4.575-4.721-.3-.445a19.947,19.947,0,0,1-1.127-1.891l-.25-.475.951-.5.25.477a19.152,19.152,0,0,0,1.066,1.79l.3.445Zm-2.883-5.915-.141-.516c-.186-.7-.342-1.419-.462-2.147l-.088-.53,1.058-.174.088.528a20.394,20.394,0,0,0,.441,2.041l.139.519Zm.147-6.486-1.072-.006,0-.536q.007-1.113.092-2.182l.041-.535,1.071.085-.042.533q-.079,1.031-.088,2.1Zm.618-6.271-1.045-.244.121-.524q.254-1.081.577-2.106l.161-.513,1.024.321-.161.512c-.206.66-.392,1.336-.554,2.032Zm1.993-5.987-.969-.463.232-.483c.321-.674.659-1.317,1.008-1.938l.262-.466.936.525-.263.468q-.507.9-.974,1.872Zm3.192-5.466-.862-.641.321-.432c.456-.612.91-1.183,1.355-1.708l.347-.409.819.692-.347.409c-.432.51-.872,1.065-1.314,1.658Zm4.16-4.782-.727-.789.394-.365c.839-.772,1.455-1.255,1.681-1.426l.426-.324.651.854-.429.324c-.212.164-.8.621-1.6,1.363Z" transform="translate(6.657 56.858)" fill="#0041ef"/>
          </g>
        </g>
        <g id="Grupo_183828" data-name="Grupo 183828" transform="translate(78.882 23.372)">
          <g id="Grupo_183827" data-name="Grupo 183827" clip-path="url(#clip-path-17)">
            <rect id="Rectángulo_64442" data-name="Rectángulo 64442" width="88.782" height="6.896" transform="translate(0 -0.144)" fill="url(#linear-gradient-7)"/>
          </g>
        </g>
        <g id="Grupo_183830" data-name="Grupo 183830">
          <g id="Grupo_183829" data-name="Grupo 183829" clip-path="url(#clip-path)">
            <path id="Trazado_236133" data-name="Trazado 236133" d="M107.721,20.211h-5.966a.832.832,0,0,1-.831-.83V17.24a.833.833,0,0,1,.831-.831h5.966a.833.833,0,0,1,.831.831v2.141a.832.832,0,0,1-.831.83m-5.966-3.383a.412.412,0,0,0-.412.412v2.141a.411.411,0,0,0,.412.41h5.966a.411.411,0,0,0,.412-.41V17.24a.412.412,0,0,0-.412-.412Z" transform="translate(51.9 8.438)" fill="#fff"/>
            <path id="Trazado_236134" data-name="Trazado 236134" d="M106.091,19.267h-4.255a.491.491,0,0,1-.485-.5V17.374a.491.491,0,0,1,.485-.5h2.741Z" transform="translate(52.12 8.677)" fill="#fff"/>
            <path id="Trazado_236135" data-name="Trazado 236135" d="M106.475,17.52V18a.148.148,0,0,1-.148.153h-.5v-.784h.5a.151.151,0,0,1,.148.153" transform="translate(54.42 8.931)" fill="#fff"/>
            <path id="Trazado_236136" data-name="Trazado 236136" d="M65.392,17.622l-.581.615a2.985,2.985,0,0,0-4.143.03l-.592-.607a3.83,3.83,0,0,1,5.317-.038" transform="translate(30.894 8.52)" fill="#fff"/>
            <path id="Trazado_236137" data-name="Trazado 236137" d="M64.222,18.109l-.588.622a1.71,1.71,0,0,0-2.377.017l-.6-.613a2.57,2.57,0,0,1,3.565-.026" transform="translate(31.193 8.949)" fill="#fff"/>
            <path id="Trazado_236138" data-name="Trazado 236138" d="M63.026,18.608l-.88.928-.893-.916a1.279,1.279,0,0,1,1.773-.012" transform="translate(31.499 9.389)" fill="#fff"/>
            <rect id="Rectángulo_64443" data-name="Rectángulo 64443" width="1.167" height="4.131" transform="translate(103.255 24.794)" fill="#fff"/>
            <rect id="Rectángulo_64444" data-name="Rectángulo 64444" width="1.167" height="3.216" transform="translate(101.52 25.709)" fill="#fff"/>
            <rect id="Rectángulo_64445" data-name="Rectángulo 64445" width="1.167" height="2.442" transform="translate(99.912 26.483)" fill="#fff"/>
            <rect id="Rectángulo_64446" data-name="Rectángulo 64446" width="1.167" height="1.222" transform="translate(98.326 27.703)" fill="#fff"/>
          </g>
        </g>
      </g>
      <g id="Grupo_183832" data-name="Grupo 183832" transform="translate(8416.389 -4908.818)">
        <g id="Grupo_183832-2" data-name="Grupo 183832" clip-path="url(#clip-path-19)">
          <path id="Trazado_236139" data-name="Trazado 236139" d="M54.945,1.5A44.672,44.672,0,1,0,99.617,46.173,44.723,44.723,0,0,0,54.945,1.5" transform="translate(-5.226 -0.763)" fill="#e8f2fc"/>
          <path id="Trazado_236140" data-name="Trazado 236140" d="M54.945,1.5A44.672,44.672,0,1,0,99.617,46.173,44.723,44.723,0,0,0,54.945,1.5Z" transform="translate(-5.226 -0.763)" fill="none" stroke="#fff" stroke-miterlimit="10" stroke-width="1"/>
          <path id="Trazado_236141" data-name="Trazado 236141" d="M54.945,1.5A44.672,44.672,0,1,0,99.617,46.173,44.723,44.723,0,0,0,54.945,1.5Z" transform="translate(-5.226 -0.763)" fill="none" stroke="#fff" stroke-miterlimit="10" stroke-width="3"/>
          <path id="Trazado_236142" data-name="Trazado 236142" d="M78.071,90.845S55.736,77.958,55.736,45.953,78.071,1.5,78.071,1.5" transform="translate(-28.353 -0.763)" fill="none" stroke="#fff" stroke-miterlimit="10" stroke-width="3"/>
          <path id="Trazado_236143" data-name="Trazado 236143" d="M101.2,90.845s22.337-12.886,22.337-44.891S101.2,1.5,101.2,1.5" transform="translate(-51.478 -0.763)" fill="none" stroke="#fff" stroke-miterlimit="10" stroke-width="3"/>
          <line id="Línea_1728" data-name="Línea 1728" x2="81.959" transform="translate(8.734 27.626)" fill="none" stroke="#fff" stroke-miterlimit="10" stroke-width="3"/>
          <line id="Línea_1729" data-name="Línea 1729" x2="81.959" transform="translate(8.734 63.195)" fill="none" stroke="#fff" stroke-miterlimit="10" stroke-width="3"/>
          <path id="Trazado_236144" data-name="Trazado 236144" d="M154.047,23.335a10.128,10.128,0,0,1,20.255,0c0,5.594-10.129,19.692-10.129,19.692s-10.126-14.1-10.126-19.692" transform="translate(-78.363 -6.719)" fill="#f06868"/>
          <path id="Trazado_236145" data-name="Trazado 236145" d="M174.521,28.943a3.892,3.892,0,1,1-3.892-3.892,3.891,3.891,0,0,1,3.892,3.892" transform="translate(-84.818 -12.743)" fill="#fff"/>
          <path id="Trazado_236146" data-name="Trazado 236146" d="M174.521,28.943a3.892,3.892,0,1,1-3.892-3.892A3.891,3.891,0,0,1,174.521,28.943Z" transform="translate(-84.818 -12.743)" fill="none" stroke="#070707" stroke-width="3"/>
          <path id="Trazado_236147" data-name="Trazado 236147" d="M0,65.022a10.128,10.128,0,0,1,20.255,0c0,5.594-10.128,19.692-10.128,19.692S0,70.615,0,65.022" transform="translate(0 -27.925)" fill="#3b94ec"/>
          <path id="Trazado_236148" data-name="Trazado 236148" d="M20.473,70.63a3.891,3.891,0,1,1-3.891-3.892,3.89,3.89,0,0,1,3.891,3.892" transform="translate(-6.455 -33.949)" fill="#fff"/>
          <path id="Trazado_236149" data-name="Trazado 236149" d="M20.473,70.63a3.891,3.891,0,1,1-3.891-3.892A3.89,3.89,0,0,1,20.473,70.63Z" transform="translate(-6.455 -33.949)" fill="none" stroke="#070707" stroke-width="3"/>
          <path id="Trazado_236150" data-name="Trazado 236150" d="M96.3,46.81c1.444,3.562-.587,15.751-7.875,15.36C69.6,61.159,79.707,16.242,58.673,21c-12.166,2.751-9.18,22.829-4.021,30.077S76.268,88.957,60.874,89.06c-7.276.049-11.837-29.433-21.29-26.891-8.181,2.2-9.7,26.519-18.971,5.121" transform="translate(-10.486 -10.502)" fill="none" stroke="#000" stroke-linecap="round" stroke-width="3" stroke-dasharray="15 11"/>
        </g>
      </g>
    </g>
  </g>
</svg>
