<svg xmlns="http://www.w3.org/2000/svg" width="79" height="79" viewBox="0 0 79 79">
  <g id="Icon" transform="translate(-0.222 -0.238)">
    <circle id="Base" cx="39.5" cy="39.5" r="39.5" transform="translate(0.222 0.238)" fill="#fff"/>
    <g id="Icon-2" data-name="Icon" transform="translate(20.835 20.835)">
      <g id="Icon-3" data-name="Icon" transform="translate(0.001 0.002)">
        <g id="Group_62" data-name="Group 62" transform="translate(0 0)">
          <path id="Path_364" data-name="Path 364" d="M53.545,20.358a7.2,7.2,0,0,0-12.289,5.614,3.894,3.894,0,0,1-.88,3.054L29.026,40.375a3.517,3.517,0,0,1-2.587.9q-.234,0-.467-.017a7.218,7.218,0,1,0,6.676,6.676,3.9,3.9,0,0,1,.88-3.056l11.35-11.349a3.524,3.524,0,0,1,2.59-.9c.156,0,.312.006.466.018a7.207,7.207,0,0,0,5.612-12.289Zm-.391,9.817a6.616,6.616,0,0,1-5.181,1.92q-.252-.019-.506-.019a4.1,4.1,0,0,0-2.981,1.059L33.136,44.483a4.425,4.425,0,0,0-1.04,3.487,6.666,6.666,0,1,1-6.659-6.183c.165,0,.33.005.495.018s.338.018.507.018a4.1,4.1,0,0,0,2.978-1.059L40.767,29.417a4.419,4.419,0,0,0,1.04-3.485,6.658,6.658,0,1,1,11.347,4.243Z" transform="translate(-18.247 -18.244)" fill="#2c2b31" stroke="#1a1818" stroke-width="0.898"/>
          <path id="Path_365" data-name="Path 365" d="M52.668,22.144a.28.28,0,0,0-.267-.071l-3.775,1.012a.275.275,0,0,0-.2.2l-1.012,3.775a.279.279,0,0,0,.072.268l2.763,2.763a.276.276,0,0,0,.2.081.293.293,0,0,0,.072-.009L54.3,29.146a.276.276,0,0,0,.2-.2L55.5,25.175a.277.277,0,0,0-.071-.267ZM54,28.653l-3.467.929-2.539-2.538.93-3.466,3.467-.929,2.538,2.538Z" transform="translate(-21.496 -18.67)" fill="#2c2b31" stroke="#1a1818" stroke-width="0.898"/>
          <path id="Path_366" data-name="Path 366" d="M27.067,47.743a.276.276,0,0,0-.268-.072l-3.776,1.012a.276.276,0,0,0-.2.2l-1.012,3.775a.275.275,0,0,0,.071.266l2.764,2.765a.278.278,0,0,0,.267.072l3.776-1.012a.275.275,0,0,0,.2-.2L29.9,50.774a.275.275,0,0,0-.071-.266ZM28.4,54.252l-3.468.93-2.538-2.539.929-3.466,3.468-.93,2.538,2.539Z" transform="translate(-18.644 -21.521)" fill="#2c2b31" stroke="#1a1818" stroke-width="0.898"/>
          <path id="Path_367" data-name="Path 367" d="M45.4,32.987,33.157,45.229a.277.277,0,0,0,.391.392L45.791,33.378a.277.277,0,0,0-.392-.391Z" transform="translate(-19.899 -19.878)" fill="#2c2b31" stroke="#1a1818" stroke-width="0.898"/>
          <path id="Path_368" data-name="Path 368" d="M44.065,31.262a.277.277,0,0,0-.391,0L31.431,43.5a.277.277,0,1,0,.391.392L44.065,31.652A.276.276,0,0,0,44.065,31.262Z" transform="translate(-19.707 -19.685)" fill="#2c2b31" stroke="#1a1818" stroke-width="0.898"/>
        </g>
      </g>
      <path id="Color_Overlay" data-name="Color Overlay" d="M2.113,35.3A7.2,7.2,0,0,1,7.726,23.012c.155.011.312.019.467.019a3.524,3.524,0,0,0,2.588-.9L22.129,10.783a3.888,3.888,0,0,0,.88-3.055A7.211,7.211,0,1,1,35.3,12.322,7.158,7.158,0,0,1,29.686,14.4c-.152-.011-.309-.019-.465-.019a3.527,3.527,0,0,0-2.591.9L15.277,26.632a3.9,3.9,0,0,0-.876,3.055A7.209,7.209,0,0,1,2.113,35.3ZM2.5,25.484a6.666,6.666,0,1,0,11.349,4.245,4.417,4.417,0,0,1,1.038-3.487L26.239,14.894a4.094,4.094,0,0,1,2.981-1.059c.167,0,.339,0,.5.019a6.658,6.658,0,1,0,.469-13.3A6.642,6.642,0,0,0,23.56,7.69a4.394,4.394,0,0,1-1.042,3.483L11.171,22.521a4.092,4.092,0,0,1-2.979,1.059c-.17,0-.342,0-.508-.019s-.332-.019-.5-.019A6.593,6.593,0,0,0,2.5,25.484Zm3.506,8.683L3.246,31.4a.274.274,0,0,1-.07-.268l1.012-3.773a.261.261,0,0,1,.192-.2l3.776-1.011a.274.274,0,0,1,.268.071l2.761,2.766a.272.272,0,0,1,.075.264l-1.014,3.776a.268.268,0,0,1-.194.2L6.275,34.237a.234.234,0,0,1-.069.011A.279.279,0,0,1,6.008,34.167ZM4.677,27.658l-.929,3.464,2.539,2.539,3.468-.929.929-3.468L8.146,26.725Zm8.579-1.914a.275.275,0,0,1,0-.39L25.5,13.11a.277.277,0,0,1,.394.39L13.646,25.744a.258.258,0,0,1-.192.082A.273.273,0,0,1,13.256,25.744Zm-1.531-1.531a.281.281,0,0,1,0-.394l12.244-12.24a.276.276,0,0,1,.391.39L12.115,24.213a.287.287,0,0,1-.2.082A.276.276,0,0,1,11.725,24.213ZM28.756,11.419,25.994,8.653a.283.283,0,0,1-.074-.268l1.015-3.773a.269.269,0,0,1,.193-.193L30.9,3.4a.28.28,0,0,1,.268.071l2.766,2.766a.283.283,0,0,1,.069.268L33,10.281a.284.284,0,0,1-.2.2l-3.777,1.011a.219.219,0,0,1-.069.011A.284.284,0,0,1,28.756,11.419ZM27.426,4.91,26.5,8.378l2.542,2.535L32.5,9.984l.928-3.464L30.894,3.981Z" fill="#219df3"/>
    </g>
  </g>
</svg>
