<svg xmlns="http://www.w3.org/2000/svg" xmlns:xlink="http://www.w3.org/1999/xlink" width="48.931" height="48.931" viewBox="0 0 48.931 48.931"><defs><clipPath id="a"><rect width="48.931" height="48.931" fill="#ff4a69"/></clipPath></defs><rect width="1.529" height="1.529" transform="translate(13.762 38.227)" fill="#ff4a69"/><rect width="1.529" height="1.529" transform="translate(39.756 2.294)" fill="#ff4a69"/><g clip-path="url(#a)"><rect width="1.529" height="1.529" transform="translate(3.058 13.762)" fill="#ff4a69"/><path d="M773.351,506.675a2.676,2.676,0,1,0-2.676,2.676,2.676,2.676,0,0,0,2.676-2.676Zm-2.676,1.147a1.147,1.147,0,1,1,1.147-1.147,1.147,1.147,0,0,1-1.147,1.147Zm0,0" transform="translate(-767.999 -484.121)" fill="#ff4a69"/></g><path d="M1052.675,618a2.676,2.676,0,1,0,2.676,2.676,2.676,2.676,0,0,0-2.676-2.676Zm0,3.823a1.147,1.147,0,1,1,1.147-1.147,1.147,1.147,0,0,1-1.147,1.147Zm0,0" transform="translate(-1014.066 -583.596)" fill="#ff4a69"/><path d="M1088.78,497.318l-2.275-1.244-1.244-2.275a.764.764,0,0,0-1.341,0l-1.244,2.275-2.275,1.244a.765.765,0,0,0,0,1.341l2.275,1.244,1.244,2.275a.765.765,0,0,0,1.341,0l1.244-2.275,2.275-1.244a.764.764,0,0,0,0-1.341Zm-3.2,1.351a.764.764,0,0,0-.3.3l-.68,1.245-.681-1.244a.767.767,0,0,0-.3-.3l-1.245-.681,1.245-.68a.766.766,0,0,0,.3-.3l.681-1.245.681,1.244a.766.766,0,0,0,.3.3l1.245.681Zm0,0" transform="translate(-1040.247 -474.874)" fill="#ff4a69"/><path d="M806.78,579.916l-2.275-1.244-1.244-2.275a.765.765,0,0,0-1.342,0l-1.244,2.275-2.275,1.244a.765.765,0,0,0,0,1.342l2.275,1.244,1.244,2.275a.765.765,0,0,0,1.342,0l1.244-2.275,2.275-1.244a.765.765,0,0,0,0-1.342Zm-3.2,1.352a.766.766,0,0,0-.3.3l-.68,1.245-.681-1.245a.766.766,0,0,0-.3-.3l-1.245-.68,1.245-.681a.767.767,0,0,0,.3-.3l.68-1.245.681,1.245a.767.767,0,0,0,.3.3l1.245.68Zm0,0" transform="translate(-794.181 -546.947)" fill="#ff4a69"/><path d="M820.028,378.207a4.606,4.606,0,0,0-1.343-6.1l-.042-.029,9.276-13.713a.765.765,0,0,0-.245-1.088l-13-7.645a.765.765,0,0,0-1.02.229l-.9,1.319v-2.418a.765.765,0,0,0-.765-.765H798.233a.765.765,0,0,0-.765.765v.247l-10.987,4.4a.765.765,0,0,0-.409,1.033l10.7,22.936a.765.765,0,0,0,.987.382l1.744-.727,1.841,2.462.015.019a3.173,3.173,0,0,1,.692,1.974v15.443h1.529v-10.8a7.25,7.25,0,0,1,1.752-4.421c1.429-1.565,3.669-2.358,6.658-2.358a.764.764,0,0,0,.6-.287l3.058-3.823a.764.764,0,0,0-.255-1.161,7.73,7.73,0,0,1-1.976-1.554,5.349,5.349,0,0,1-1.495-3.234l5.891,4.079a3.071,3.071,0,0,1,.909,4.041l-5.828,8.383a.766.766,0,0,0-.137.437v10.7h1.529V386.467L820,378.256c.011-.016.021-.032.031-.049ZM799,349.529H811.23v3.9l-3.1,4.558-2.12-2.12a.765.765,0,0,0-1.082,0l-2.7,2.7a.765.765,0,0,0,0,1.082l2.7,2.7a.767.767,0,0,0,.153.117l-4.422,6.5a.764.764,0,0,0,.216,1.071l3.722,2.417H799Zm6.471,11.206-1.622-1.622,1.622-1.622,1.622,1.622ZM787.8,354.526l9.669-3.868V373.23a.765.765,0,0,0,.765.765h4.587l-4.969,2.071Zm23.825,23.3c-3.255.067-5.749,1.026-7.416,2.853a7.657,7.657,0,0,0-.624.781,4.708,4.708,0,0,0-1.018-2.887l-1.6-2.143,5.929-2.47,5.15,3.345Zm.667-4.266a9.571,9.571,0,0,0,1.623,1.4L813,376.1l-10.638-6.908,12.155-17.876,11.678,6.869-8.81,13.025-5.721-3.961a.764.764,0,0,0-1.189.5,6.724,6.724,0,0,0,1.815,5.8Zm0,0" transform="translate(-783.706 -348)" fill="#ff4a69"/><path d="M990.98,455.137H994.8a.764.764,0,0,0,.765-.765V450.55a.765.765,0,0,0-.765-.765H990.98a.764.764,0,0,0-.765.765v3.823a.764.764,0,0,0,.765.765Zm.765-3.823h2.294v2.294h-2.294Zm0,0" transform="translate(-961.9 -436.815)" fill="#ff4a69"/><path d="M825.058,402h-2.294a.765.765,0,0,0-.765.765v2.294a.765.765,0,0,0,.765.765h2.294a.765.765,0,0,0,.765-.765v-2.294a.765.765,0,0,0-.765-.765Zm-.765,2.294h-.765v-.765h.765Zm0,0" transform="translate(-815.119 -395.119)" fill="#ff4a69"/><path d="M896.386,369.316a.763.763,0,0,0,.541-.224l1.622-1.622a.764.764,0,0,0,0-1.081l-1.622-1.622a.765.765,0,0,0-1.082,0l-1.622,1.622a.765.765,0,0,0,0,1.082l1.622,1.622a.763.763,0,0,0,.541.224Zm0-2.927.541.541-.541.541-.541-.541Zm0,0" transform="translate(-877.945 -362.435)" fill="#ff4a69"/><path d="M1002.765,399.823h2.294a.765.765,0,0,0,.765-.765v-2.294a.765.765,0,0,0-.765-.765h-2.294a.765.765,0,0,0-.765.765v2.294a.765.765,0,0,0,.765.765Zm.765-2.294h.765v.765h-.765Zm0,0" transform="translate(-972.183 -389.884)" fill="#ff4a69"/></svg>