<svg xmlns="http://www.w3.org/2000/svg" width="36" height="31.5" viewBox="0 0 36 31.5"><path d="M32.625,2.25h-9A3.376,3.376,0,0,0,20.25,5.625v9A3.376,3.376,0,0,0,23.625,18H29.25v4.5a4.5,4.5,0,0,1-4.5,4.5h-.562A1.683,1.683,0,0,0,22.5,28.688v3.375a1.683,1.683,0,0,0,1.688,1.688h.563A11.247,11.247,0,0,0,36,22.5V5.625A3.376,3.376,0,0,0,32.625,2.25Zm-20.25,0h-9A3.376,3.376,0,0,0,0,5.625v9A3.376,3.376,0,0,0,3.375,18H9v4.5A4.5,4.5,0,0,1,4.5,27H3.938A1.683,1.683,0,0,0,2.25,28.688v3.375A1.683,1.683,0,0,0,3.938,33.75H4.5A11.247,11.247,0,0,0,15.75,22.5V5.625A3.376,3.376,0,0,0,12.375,2.25Z" transform="translate(0 -2.25)" fill="#ff4a69"/></svg>