<svg id="Grupo_184142" data-name="Grupo 184142" xmlns="http://www.w3.org/2000/svg" xmlns:xlink="http://www.w3.org/1999/xlink" width="292.909" height="370.666" viewBox="0 0 292.909 370.666">
  <defs>
    <clipPath id="clip-path">
      <rect id="Rectángulo_64653" data-name="Rectángulo 64653" width="292.909" height="370.666" fill="none"/>
    </clipPath>
    <clipPath id="clip-path-3">
      <rect id="Rectángulo_64649" data-name="Rectángulo 64649" width="9.249" height="8.377" transform="translate(220.462 122.627)" fill="none"/>
    </clipPath>
    <clipPath id="clip-path-4">
      <rect id="Rectángulo_64650" data-name="Rectángulo 64650" width="5.663" height="9.165" transform="translate(213.269 120.882)" fill="none"/>
    </clipPath>
    <clipPath id="clip-path-5">
      <rect id="Rectángulo_64651" data-name="Rectángulo 64651" width="26.62" height="8.24" transform="translate(199.579 177.812)" fill="none"/>
    </clipPath>
  </defs>
  <g id="Grupo_184141" data-name="Grupo 184141" clip-path="url(#clip-path)">
    <g id="Grupo_184140" data-name="Grupo 184140">
      <g id="Grupo_184139" data-name="Grupo 184139" clip-path="url(#clip-path)">
        <path id="Trazado_237037" data-name="Trazado 237037" d="M289.543,370.666H3.366a3.366,3.366,0,0,1,0-6.733H289.543a3.366,3.366,0,0,1,0,6.733" fill="#afafaf"/>
        <rect id="Rectángulo_64637" data-name="Rectángulo 64637" width="174.939" height="246.04" transform="translate(9.427 0.401)" fill="#fafafa"/>
        <path id="Trazado_237038" data-name="Trazado 237038" d="M184.366,246.441s-.011-.4-.016-1.17-.01-1.919-.017-3.419c-.008-3.019-.019-7.476-.034-13.279-.017-11.616-.043-28.614-.076-50.2-.035-43.138-.085-104.6-.145-177.971l.288.354L9.445.8H9.427L9.752.4c-.018,90.71-.036,175.3-.05,246.04l-.275-.339,126.886.174,35.476.088,9.351.039c2.118.013,3.226.038,3.226.038s-1.067.025-3.166.038l-9.3.039-35.415.088-127.06.174H9.151v-.34C9.137,175.7,9.12,91.111,9.1.4V0h.344L184.366.046h.288V.4c-.06,73.461-.11,135.005-.145,178.2-.033,21.553-.059,38.523-.076,50.121-.015,5.773-.026,10.206-.034,13.21q-.011,2.225-.017,3.38c-.005.756-.016,1.13-.016,1.13" fill="#263238"/>
        <path id="Trazado_237039" data-name="Trazado 237039" d="M169.328,139.207c-.057.119-1.937-.971-5.625-2.138a36.177,36.177,0,0,0-16.133-1.2,35.273,35.273,0,0,0-10.64,3.419,50.147,50.147,0,0,0-10.462,7.525c-3.431,3.027-6.836,6.465-10.764,9.642-3.929,3.127-8.437,6.085-13.739,7.436a20.752,20.752,0,0,1-8.022.483,25.992,25.992,0,0,1-7.433-2.294c-4.607-2.172-8.548-5.025-12.451-7.4a38.863,38.863,0,0,0-11.71-5.251,34.8,34.8,0,0,0-11.14-.854,35.877,35.877,0,0,0-15.377,5.007c-3.3,2.016-4.856,3.533-4.944,3.427a7.786,7.786,0,0,1,1.117-1.1,26.861,26.861,0,0,1,3.58-2.723,35.086,35.086,0,0,1,27-4.721,39.437,39.437,0,0,1,12.054,5.273c3.955,2.38,7.9,5.195,12.368,7.28a21.182,21.182,0,0,0,14.671,1.717c5.037-1.279,9.434-4.132,13.3-7.19,3.865-3.107,7.287-6.522,10.767-9.556a50.382,50.382,0,0,1,10.744-7.582,35.631,35.631,0,0,1,27.365-1.779,28.524,28.524,0,0,1,4.132,1.778,7.769,7.769,0,0,1,1.348.8" fill="#8c5be1"/>
        <rect id="Rectángulo_64638" data-name="Rectángulo 64638" width="14.872" height="40.224" transform="translate(57.578 166.021)" fill="#8c5be1"/>
        <rect id="Rectángulo_64639" data-name="Rectángulo 64639" width="14.872" height="40.224" transform="translate(120.688 166.021)" fill="#43a99b"/>
        <rect id="Rectángulo_64640" data-name="Rectángulo 64640" width="14.872" height="63.845" transform="translate(141.725 142.4)" fill="#8c5be1"/>
        <rect id="Rectángulo_64641" data-name="Rectángulo 64641" width="14.872" height="13.537" transform="translate(38.332 193.583)" fill="#43a99b"/>
        <rect id="Rectángulo_64642" data-name="Rectángulo 64642" width="14.873" height="22.06" transform="translate(78.615 184.185)" fill="#43a99b"/>
        <rect id="Rectángulo_64643" data-name="Rectángulo 64643" width="14.872" height="27.124" transform="translate(99.652 179.121)" fill="#8c5be1"/>
        <path id="Trazado_237040" data-name="Trazado 237040" d="M73.05,210.986c0,.33-3.6.6-8.035.6s-8.035-.267-8.035-.6,3.6-.6,8.035-.6,8.035.267,8.035.6" fill="#263238"/>
        <path id="Trazado_237041" data-name="Trazado 237041" d="M54.543,210.986c0,.33-3.6.6-8.035.6s-8.036-.267-8.036-.6,3.6-.6,8.036-.6,8.035.267,8.035.6" fill="#263238"/>
        <path id="Trazado_237042" data-name="Trazado 237042" d="M159.528,210.986c0,.33-4.067.6-9.083.6s-9.083-.267-9.083-.6,4.065-.6,9.083-.6,9.083.267,9.083.6" fill="#263238"/>
        <path id="Trazado_237043" data-name="Trazado 237043" d="M137.434,210.986c0,.33-4.067.6-9.083.6s-9.084-.267-9.084-.6,4.066-.6,9.084-.6,9.083.267,9.083.6" fill="#263238"/>
        <path id="Trazado_237044" data-name="Trazado 237044" d="M114.524,210.986c0,.33-3.6.6-8.035.6s-8.035-.269-8.035-.6,3.6-.6,8.035-.6,8.035.268,8.035.6" fill="#263238"/>
        <path id="Trazado_237045" data-name="Trazado 237045" d="M92.789,210.986c0,.33-3.6.6-8.035.6s-8.036-.269-8.036-.6,3.6-.6,8.036-.6,8.035.268,8.035.6" fill="#263238"/>
        <rect id="Rectángulo_64644" data-name="Rectángulo 64644" width="121.547" height="50.477" transform="translate(37.981 65.109)" fill="#e0e0e0"/>
        <path id="Trazado_237046" data-name="Trazado 237046" d="M63.234,81.062A5.667,5.667,0,1,1,57.568,75.4a5.666,5.666,0,0,1,5.666,5.666" fill="#263238"/>
        <rect id="Rectángulo_64645" data-name="Rectángulo 64645" width="39.482" height="2.192" transform="translate(68.899 77.148)" fill="#263238"/>
        <rect id="Rectángulo_64646" data-name="Rectángulo 64646" width="76.804" height="2.192" transform="translate(68.899 82.13)" fill="#fff"/>
        <path id="Trazado_237047" data-name="Trazado 237047" d="M63.234,98.482a5.667,5.667,0,1,1-5.666-5.666,5.666,5.666,0,0,1,5.666,5.666" fill="#eeac3a"/>
        <rect id="Rectángulo_64647" data-name="Rectángulo 64647" width="20.161" height="2.192" transform="translate(68.9 94.569)" fill="#eeac3a"/>
        <rect id="Rectángulo_64648" data-name="Rectángulo 64648" width="76.804" height="2.192" transform="translate(68.899 99.55)" fill="#fff"/>
        <path id="Trazado_237048" data-name="Trazado 237048" d="M192.316,342.338l-1.291,16.336s-16.141,5.187-16.235,8.211l31.575.415L207.3,342.3Z" fill="#8c5be1"/>
        <path id="Trazado_237049" data-name="Trazado 237049" d="M200.754,357.011a1.292,1.292,0,0,1,.937,1.446,1.242,1.242,0,0,1-1.425.941,1.362,1.362,0,0,1-.984-1.536,1.288,1.288,0,0,1,1.591-.815" fill="#ebebeb"/>
        <path id="Trazado_237050" data-name="Trazado 237050" d="M206.365,367.3l-.064-2.533-29.9.183s-1.714,1.021-1.668,2.007Z" fill="#ebebeb"/>
        <path id="Trazado_237051" data-name="Trazado 237051" d="M190.507,358.529c.01.154.783.2,1.557.674.787.453,1.2,1.11,1.339,1.044.141-.034-.117-.949-1.064-1.506s-1.87-.352-1.832-.212" fill="#263238"/>
        <path id="Trazado_237052" data-name="Trazado 237052" d="M187.234,360c-.031.151.645.393,1.189,1.03.562.621.716,1.322.869,1.311.146.02.226-.887-.465-1.666s-1.594-.822-1.593-.675" fill="#263238"/>
        <path id="Trazado_237053" data-name="Trazado 237053" d="M185.471,364.023c.141.029.333-.749-.089-1.582s-1.153-1.147-1.215-1.017c-.083.129.4.569.735,1.258.351.681.415,1.33.569,1.341" fill="#263238"/>
        <path id="Trazado_237054" data-name="Trazado 237054" d="M190.674,354.8c.069.139.77-.1,1.644-.063.875.016,1.562.288,1.639.153.086-.114-.594-.665-1.624-.69s-1.739.481-1.659.6" fill="#263238"/>
        <path id="Trazado_237055" data-name="Trazado 237055" d="M190.517,351.512a2.961,2.961,0,0,0,1.582-.056,7.093,7.093,0,0,0,1.641-.558,7.636,7.636,0,0,0,.894-.51A1.937,1.937,0,0,0,195.1,350a.673.673,0,0,0,.046-.823.847.847,0,0,0-.687-.333,2.078,2.078,0,0,0-.591.1,5.749,5.749,0,0,0-.974.367,5.592,5.592,0,0,0-1.43,1c-.713.7-.946,1.285-.892,1.313.071.049.414-.445,1.143-1.028a6.3,6.3,0,0,1,1.387-.837,5.986,5.986,0,0,1,.9-.308c.333-.1.617-.109.708.037.032.056.037.079-.03.179a1.587,1.587,0,0,1-.343.282,8.218,8.218,0,0,1-.822.5,8.7,8.7,0,0,1-1.512.632,10.977,10.977,0,0,0-1.487.424" fill="#263238"/>
        <path id="Trazado_237056" data-name="Trazado 237056" d="M190.725,351.727a2.523,2.523,0,0,0,.371-1.541,5.125,5.125,0,0,0-.7-2.675,1.308,1.308,0,0,0-1.033-.769.74.74,0,0,0-.648.462,2.152,2.152,0,0,0-.145.585,3.527,3.527,0,0,0,.031,1.066,3.65,3.65,0,0,0,.725,1.614c.642.8,1.292.965,1.3.913.049-.079-.5-.361-.994-1.134a3.648,3.648,0,0,1-.545-1.472,3.225,3.225,0,0,1,0-.915c.039-.337.157-.612.284-.581.156-.008.431.237.569.5a5.341,5.341,0,0,1,.417.846,5.658,5.658,0,0,1,.354,1.57c.072.926-.076,1.509.009,1.53" fill="#263238"/>
        <path id="Trazado_237057" data-name="Trazado 237057" d="M262.142,342.338l1.291,16.336s16.141,5.187,16.235,8.211l-31.575.415L247.16,342.3Z" fill="#8c5be1"/>
        <path id="Trazado_237058" data-name="Trazado 237058" d="M253.7,357.011a1.292,1.292,0,0,0-.937,1.446,1.242,1.242,0,0,0,1.425.941,1.362,1.362,0,0,0,.984-1.536,1.288,1.288,0,0,0-1.591-.815" fill="#ebebeb"/>
        <path id="Trazado_237059" data-name="Trazado 237059" d="M248.094,367.3l.063-2.533,29.9.183s1.714,1.021,1.668,2.007Z" fill="#ebebeb"/>
        <path id="Trazado_237060" data-name="Trazado 237060" d="M263.951,358.529c-.01.154-.783.2-1.557.674-.787.453-1.2,1.11-1.339,1.044-.141-.034.117-.949,1.064-1.506s1.87-.352,1.832-.212" fill="#263238"/>
        <path id="Trazado_237061" data-name="Trazado 237061" d="M267.224,360c.031.151-.646.393-1.189,1.03-.562.621-.716,1.322-.869,1.311-.146.02-.226-.887.465-1.666s1.594-.822,1.593-.675" fill="#263238"/>
        <path id="Trazado_237062" data-name="Trazado 237062" d="M268.987,364.023c-.141.029-.333-.749.089-1.582s1.153-1.147,1.215-1.017c.083.129-.4.569-.735,1.258-.351.681-.415,1.33-.569,1.341" fill="#263238"/>
        <path id="Trazado_237063" data-name="Trazado 237063" d="M263.784,354.8c-.069.139-.77-.1-1.644-.063-.875.016-1.562.288-1.639.153-.086-.114.594-.665,1.624-.69s1.739.481,1.659.6" fill="#263238"/>
        <path id="Trazado_237064" data-name="Trazado 237064" d="M263.941,351.512a2.961,2.961,0,0,1-1.582-.056,7.093,7.093,0,0,1-1.641-.558,7.637,7.637,0,0,1-.894-.51,1.937,1.937,0,0,1-.467-.386.673.673,0,0,1-.046-.823.847.847,0,0,1,.687-.333,2.078,2.078,0,0,1,.591.1,5.749,5.749,0,0,1,.974.367,5.592,5.592,0,0,1,1.43,1c.713.7.946,1.285.892,1.313-.071.049-.414-.445-1.143-1.028a6.3,6.3,0,0,0-1.387-.837,5.986,5.986,0,0,0-.9-.308c-.333-.1-.617-.109-.708.037-.032.056-.037.079.03.179a1.586,1.586,0,0,0,.343.282,8.22,8.22,0,0,0,.822.5,8.7,8.7,0,0,0,1.512.632,10.978,10.978,0,0,1,1.487.424" fill="#263238"/>
        <path id="Trazado_237065" data-name="Trazado 237065" d="M263.733,351.727a2.523,2.523,0,0,1-.371-1.541,5.125,5.125,0,0,1,.7-2.675,1.308,1.308,0,0,1,1.033-.769.74.74,0,0,1,.648.462,2.152,2.152,0,0,1,.145.585,3.528,3.528,0,0,1-.031,1.066,3.649,3.649,0,0,1-.725,1.614c-.642.8-1.292.965-1.3.913-.049-.079.5-.361.994-1.134a3.648,3.648,0,0,0,.545-1.472,3.226,3.226,0,0,0,0-.915c-.039-.337-.157-.612-.284-.581-.156-.008-.431.237-.569.5a5.338,5.338,0,0,0-.417.846,5.658,5.658,0,0,0-.354,1.57c-.072.926.076,1.509-.009,1.53" fill="#263238"/>
        <path id="Trazado_237066" data-name="Trazado 237066" d="M192.1,192.217c-.2-.007-2.621,160.058-2.621,160.058l19.341-.668,6.695-78.693,1.608-57.77,13.161,53.43L246.7,352.436l19.315-4.849L241.431,191.175,218.288,186.7Z" fill="#263238"/>
        <path id="Trazado_237067" data-name="Trazado 237067" d="M234.141,93.325c2.314-4.573,3.045-12.779.389-17.326s-8.025-7.825-13.074-9.321a4.362,4.362,0,0,0-2.592-.166,1.741,1.741,0,0,0-1.227,2.031,11.062,11.062,0,0,0-3.152-1.82,3.738,3.738,0,0,0-3.473.49,2.293,2.293,0,0,0-.333,3.233,3.946,3.946,0,0,0-5.368,4.862,12.5,12.5,0,0,0,2.575,4.047A3.542,3.542,0,0,1,208.7,82.9" fill="#263238"/>
        <path id="Trazado_237068" data-name="Trazado 237068" d="M215.072,130.967c.141-2.193.495-22.039.492-22.13,0,0-7.367-.912-7.686-8.239-.153-3.54.123-10.854.45-17.471a13.665,13.665,0,0,1,13.225-12.981l.707-.022c7.64.209,11.732,6.814,11.312,14.446l-1.045,42.467" fill="#ffbe9d"/>
        <path id="Trazado_237069" data-name="Trazado 237069" d="M215.564,108.838a17.72,17.72,0,0,0,9.457-3.119s-2.2,4.586-9.536,4.153Z" fill="#eb996e"/>
        <path id="Trazado_237070" data-name="Trazado 237070" d="M209.557,88.078A1.047,1.047,0,0,0,210.6,89.1a1,1,0,0,0,1.05-.978,1.048,1.048,0,0,0-1.041-1.025,1,1,0,0,0-1.051.978" fill="#263238"/>
        <path id="Trazado_237071" data-name="Trazado 237071" d="M210.015,86.668c.134.132.909-.479,2.036-.511,1.124-.048,1.969.506,2.087.364.058-.063-.082-.306-.45-.556a2.878,2.878,0,0,0-1.676-.461,2.761,2.761,0,0,0-1.615.578c-.338.276-.448.527-.382.586" fill="#263238"/>
        <path id="Trazado_237072" data-name="Trazado 237072" d="M220.848,88.241a1.048,1.048,0,0,0,1.042,1.025,1,1,0,0,0,1.05-.978,1.048,1.048,0,0,0-1.041-1.025,1,1,0,0,0-1.051.978" fill="#263238"/>
        <path id="Trazado_237073" data-name="Trazado 237073" d="M221.094,86.533c.134.134.91-.478,2.036-.511,1.124-.048,1.969.507,2.087.365.058-.064-.08-.306-.45-.556a2.868,2.868,0,0,0-1.676-.461,2.761,2.761,0,0,0-1.615.577c-.337.276-.447.527-.382.586" fill="#263238"/>
        <path id="Trazado_237074" data-name="Trazado 237074" d="M217.266,95.015a7.439,7.439,0,0,0-1.84-.273c-.288-.021-.562-.07-.617-.265a1.465,1.465,0,0,1,.165-.858l.783-2.217a37.571,37.571,0,0,0,1.732-5.789,37.832,37.832,0,0,0-2.194,5.636c-.26.778-.509,1.519-.746,2.229a1.664,1.664,0,0,0-.114,1.133.721.721,0,0,0,.486.406,1.925,1.925,0,0,0,.49.053,7.344,7.344,0,0,0,1.855-.055" fill="#263238"/>
        <path id="Trazado_237075" data-name="Trazado 237075" d="M220.6,95.691c-.184-.005-.148,1.218-1.167,2.118s-2.326.807-2.33.978c-.015.077.3.228.848.226a3.045,3.045,0,0,0,1.947-.747,2.658,2.658,0,0,0,.9-1.773c.03-.513-.116-.812-.2-.8" fill="#263238"/>
        <path id="Trazado_237076" data-name="Trazado 237076" d="M220.666,82.128c.121.3,1.241.123,2.567.241,1.329.091,2.407.445,2.574.165.074-.134-.121-.416-.561-.7a4.481,4.481,0,0,0-3.916-.31c-.48.211-.716.459-.664.6" fill="#263238"/>
        <path id="Trazado_237077" data-name="Trazado 237077" d="M210.328,83.395c.206.25.974-.04,1.906-.082.932-.074,1.729.119,1.9-.155.075-.132-.057-.384-.41-.616a2.763,2.763,0,0,0-3.069.191c-.321.273-.421.54-.33.662" fill="#263238"/>
        <path id="Trazado_237078" data-name="Trazado 237078" d="M233.142,90.016c.123-.058,4.99-1.647,4.986,3.37s-5.04,3.977-5.048,3.834.062-7.2.062-7.2" fill="#ffbe9d"/>
        <path id="Trazado_237079" data-name="Trazado 237079" d="M234.614,95.321c.022-.016.087.061.235.129a.872.872,0,0,0,.653.014,2.162,2.162,0,0,0,1-1.939,2.874,2.874,0,0,0-.243-1.251,1.01,1.01,0,0,0-.657-.672.446.446,0,0,0-.516.239c-.067.14-.035.241-.062.249s-.108-.084-.067-.291a.556.556,0,0,1,.2-.314.658.658,0,0,1,.483-.128,1.23,1.23,0,0,1,.912.779,2.962,2.962,0,0,1,.3,1.4,2.268,2.268,0,0,1-1.277,2.165.933.933,0,0,1-.8-.134c-.155-.124-.181-.236-.164-.245" fill="#eb996e"/>
        <path id="Trazado_237080" data-name="Trazado 237080" d="M205.129,73.651c-.587,6.5,7.424,9.22,10.939,5.583,1.626-1.682,3.045-3.783,5.258-4.54a5.959,5.959,0,0,1,4.572.48l.042.023a7.638,7.638,0,0,1,3.607,5.773c.447,3.216-.068,6.052.767,9a2,2,0,0,0,.619,1.138,1.592,1.592,0,0,0,1.984-.5,6.188,6.188,0,0,0,1.258-3.31,20.623,20.623,0,0,0-.3-8.126,14.036,14.036,0,0,0-4.077-6.965,13.3,13.3,0,0,0-9.436-3.234,16.339,16.339,0,0,0-9.365,3.681,9.573,9.573,0,0,0-2.967,3.641" fill="#263238"/>
        <path id="Trazado_237081" data-name="Trazado 237081" d="M210.44,70.074a1.494,1.494,0,0,0-.694.03,3.441,3.441,0,0,0-1.657.923,4.251,4.251,0,0,0-1.245,2.526,4.81,4.81,0,0,0,.959,3.306,6.3,6.3,0,0,0,2.714,2.116,8.571,8.571,0,0,0,2.737.608,10.825,10.825,0,0,0,1.878-.057,2.105,2.105,0,0,0,.675-.139c-.005-.071-.981.071-2.531-.076a8.882,8.882,0,0,1-2.619-.663,6.142,6.142,0,0,1-2.542-2.015,4.563,4.563,0,0,1-.918-3.043,4.108,4.108,0,0,1,1.086-2.373,3.594,3.594,0,0,1,1.5-.968,6.1,6.1,0,0,0,.655-.175" fill="#455a64"/>
        <path id="Trazado_237082" data-name="Trazado 237082" d="M213.8,67.777c0-.019-.184-.056-.478.085a1.581,1.581,0,0,0-.782,1.07,2.916,2.916,0,0,0,.382,1.921,8.393,8.393,0,0,0,1.373,1.919,8.691,8.691,0,0,0,3.588,2.274,4.143,4.143,0,0,0,1.734.3c.012-.069-.655-.155-1.642-.552a9.528,9.528,0,0,1-3.4-2.283,8.864,8.864,0,0,1-1.339-1.819,2.772,2.772,0,0,1-.429-1.7,1.527,1.527,0,0,1,.591-.994c.235-.161.407-.181.4-.213" fill="#455a64"/>
        <path id="Trazado_237083" data-name="Trazado 237083" d="M170.116,132.745l-34.5-3.273-5.462-1.312s-12.476-2.231-13.647-2.6c-1.354-.424-1.883.127-2.006.636-.19.794.6,1.644,1.746,2.044.4.138,6.757,2.065,6.757,2.065a15.655,15.655,0,0,0-2.095.694c-1.48.569-2.845,2.56-3.478,4.844s-.607,2.979.269,3.266a1.171,1.171,0,0,0,.991-.178,2.314,2.314,0,0,0,.979-1.33c1.063-3.644,3.3-4.015,3.3-4.015l.714.171s-2.258,1.712-2.141,3.672a2.216,2.216,0,0,0,.214.834,2.968,2.968,0,0,0,3.461,3.773c.491-.1,1.014-.418,1.066-.917a1.585,1.585,0,0,0-.19-.762,2.422,2.422,0,0,1-.138-.4l2.069.2s4.672.2,6.7.519l32.518,8.416a8.328,8.328,0,1,0,2.873-16.353" fill="#ffbe9d"/>
        <path id="Trazado_237084" data-name="Trazado 237084" d="M134.857,130.378a1.73,1.73,0,0,1-1.425,1.427c-.7.175-1.44.108-2.151.233-2.127.372-3.713,2.382-5.855,2.652-.3.038-.679-.01-.779-.293-.093-.263.127-.525.329-.717l5.168-4.943" fill="#ffbe9d"/>
        <path id="Trazado_237085" data-name="Trazado 237085" d="M130.144,128.737a2.918,2.918,0,0,0-.614.477c-.377.327-.913.809-1.569,1.411l-2.291,2.13-.658.62c-.193.212-.541.4-.586.9a.6.6,0,0,0,.389.553,1.237,1.237,0,0,0,.581.072,4.655,4.655,0,0,0,1.025-.245,27.3,27.3,0,0,0,3.365-1.876,5.416,5.416,0,0,1,1.509-.568c.494-.095.982-.1,1.433-.148a2.517,2.517,0,0,0,1.922-.922c.3-.447.22-.772.207-.76a2.09,2.09,0,0,1-.333.663,2.434,2.434,0,0,1-1.821.731c-.436.032-.928.016-1.468.1a5.557,5.557,0,0,0-1.622.568,31.907,31.907,0,0,1-3.328,1.825,4.383,4.383,0,0,1-.926.225c-.295.033-.554-.065-.534-.223,0-.176.233-.4.456-.614s.437-.424.649-.629l2.231-2.194c.63-.628,1.136-1.142,1.479-1.5a2.857,2.857,0,0,0,.5-.592" fill="#eb996e"/>
        <path id="Trazado_237086" data-name="Trazado 237086" d="M123.749,133.684a2.97,2.97,0,0,0-1.351.035,2.286,2.286,0,0,0-1.143.854,5.834,5.834,0,0,0-.782,1.636,9.288,9.288,0,0,1-.714,1.742,3,3,0,0,1-1.081,1.125,1.169,1.169,0,0,1-1.049.065c-.228-.11-.317-.22-.31-.228s.125.059.347.133a1.107,1.107,0,0,0,.921-.132,2.961,2.961,0,0,0,.961-1.083,10.187,10.187,0,0,0,.676-1.707,5.66,5.66,0,0,1,.838-1.7,2.382,2.382,0,0,1,1.285-.885,2.11,2.11,0,0,1,1.05-.009c.241.063.358.138.352.152" fill="#eb996e"/>
        <path id="Trazado_237087" data-name="Trazado 237087" d="M115.808,128.08a7.575,7.575,0,0,1,1.267.375l3.025.979,3.04.934a7.588,7.588,0,0,1,1.253.419,5.813,5.813,0,0,1-1.3-.239c-.8-.189-1.883-.489-3.071-.862s-2.25-.754-3.009-1.056a5.892,5.892,0,0,1-1.2-.55" fill="#eb996e"/>
        <path id="Trazado_237088" data-name="Trazado 237088" d="M124.732,135.561c.014.014-.088.123-.258.324a1.223,1.223,0,0,0-.35.96.656.656,0,0,0,.424.492,3.486,3.486,0,0,0,.839.2,1.487,1.487,0,0,1,.946.46,1.263,1.263,0,0,1,.2,1.123,1.43,1.43,0,0,1-.739.858,1.786,1.786,0,0,1-1.028.194,5.8,5.8,0,0,1-1.615-.531,3.425,3.425,0,0,1-.944-.648.773.773,0,0,1-.228-.354c.021-.012.1.112.3.279a4.012,4.012,0,0,0,.952.554,6.211,6.211,0,0,0,1.565.459,1.418,1.418,0,0,0,1.486-.884,1.015,1.015,0,0,0-.149-.889,1.262,1.262,0,0,0-.789-.382,3.519,3.519,0,0,1-.888-.238.851.851,0,0,1-.514-.661,1.28,1.28,0,0,1,.459-1.058c.2-.185.322-.266.333-.254" fill="#eb996e"/>
        <path id="Trazado_237089" data-name="Trazado 237089" d="M125.634,139.811c0-.013.147-.005.347.147a1.15,1.15,0,0,1,.422.939,1.533,1.533,0,0,1-.862,1.255,2.507,2.507,0,0,1-1.862.1,3.031,3.031,0,0,1-1.524-1.07,2.894,2.894,0,0,1-.555-1.414,2.742,2.742,0,0,1,.071-1.017c.065-.232.131-.348.145-.343a4.833,4.833,0,0,0-.032,1.334,2.86,2.86,0,0,0,.563,1.293,2.9,2.9,0,0,0,1.41.966,2.329,2.329,0,0,0,1.675-.065,1.362,1.362,0,0,0,.785-1.051,1.09,1.09,0,0,0-.3-.85c-.159-.16-.288-.2-.279-.223" fill="#eb996e"/>
        <path id="Trazado_237090" data-name="Trazado 237090" d="M131.235,136.765a1.085,1.085,0,0,1,.2-.6,2.49,2.49,0,0,1,1.211-1.071l0,.232a7.175,7.175,0,0,1-.8-.4,5.671,5.671,0,0,1-2.239-2.132,14.363,14.363,0,0,0,2.371,1.9c.263.153.525.287.771.4l.273.126-.277.107a2.6,2.6,0,0,0-1.17.922c-.22.309-.3.529-.331.518" fill="#eb996e"/>
        <path id="Trazado_237091" data-name="Trazado 237091" d="M120.4,133.519c.048-.05.427.336.491.968s-.217,1.089-.275,1.05.078-.473.014-1.022-.292-.952-.23-1" fill="#eb996e"/>
        <path id="Trazado_237092" data-name="Trazado 237092" d="M170.734,149.61l22.5-5.194s-1.164,41.25-1.16,41.641-1.857,1.038-1.7,4.032l1.618,3.56,49.338.662,1.331-40.062,4.5-31.064-10.35-6.4-3.643-4.943L218.94,126.849l-3.539-12.81.1-3.812-3.518,3.817-18.975,5.472-25.069,11.689-16.95-1.295-4.4,14.83Z" fill="#8c5be1"/>
        <path id="Trazado_237093" data-name="Trazado 237093" d="M216.976,122.236a2.293,2.293,0,0,0-1.018,1.136,4.57,4.57,0,0,0-.31,1.733,6.537,6.537,0,0,1-.336,2.36l-.17.412-.178-.411a22.7,22.7,0,0,1-1.112-3.65c-.6-2.578-.983-4.938-1.24-6.648a16.626,16.626,0,0,1-.3-2.786,21.382,21.382,0,0,1,.587,2.737c.33,1.694.758,4.042,1.355,6.6a25.11,25.11,0,0,0,1.055,3.589h-.347a6.571,6.571,0,0,0,.366-2.223,4.544,4.544,0,0,1,.419-1.813,2.057,2.057,0,0,1,.813-.908c.253-.137.411-.146.414-.131" fill="#263238"/>
        <path id="Trazado_237094" data-name="Trazado 237094" d="M235.241,115.943a3.285,3.285,0,0,1-.481.691c-.331.428-.82,1.038-1.431,1.786-1.221,1.5-2.93,3.544-4.837,5.79l-3.038,3.544-.235.274-.087-.348c-.432-1.728-.783-3.191-1.017-4.216-.1-.514-.383-.809-.661-.814a.6.6,0,0,0-.382.11c-.02.006.055-.211.386-.228a.712.712,0,0,1,.523.215,1.543,1.543,0,0,1,.348.657c.3,1.017.7,2.461,1.163,4.182l-.322-.073,3.006-3.572c1.907-2.245,3.651-4.263,4.93-5.711.639-.723,1.162-1.3,1.531-1.7a3.29,3.29,0,0,1,.6-.587" fill="#263238"/>
        <path id="Trazado_237095" data-name="Trazado 237095" d="M214.253,181.831a2.594,2.594,0,0,1-.04-.534c-.009-.392-.021-.9-.035-1.531-.024-1.329-.025-3.254,0-5.631.055-4.755.281-11.324.82-18.562s1.3-13.769,1.95-18.48c.325-2.355.613-4.258.834-5.569.108-.621.195-1.121.262-1.508a2.684,2.684,0,0,1,.119-.522,2.464,2.464,0,0,1-.036.534c-.047.39-.109.894-.185,1.52-.172,1.368-.411,3.263-.7,5.583-.578,4.716-1.285,11.243-1.828,18.473s-.81,13.787-.94,18.537c-.056,2.338-.1,4.248-.134,5.626-.018.63-.033,1.138-.044,1.53a2.6,2.6,0,0,1-.043.534" fill="#263238"/>
        <path id="Trazado_237096" data-name="Trazado 237096" d="M210.237,191.5a9.253,9.253,0,0,1-.368-3.54,12.745,12.745,0,0,1,.41-3.532,19.239,19.239,0,0,1,0,3.541c-.062,1.944.067,3.513-.046,3.531" fill="#263238"/>
        <path id="Trazado_237097" data-name="Trazado 237097" d="M230.451,179.919a8.571,8.571,0,0,1-1.27.479c-.825.286-2.031.665-3.53,1.1a116.329,116.329,0,0,1-23.995,4.264c-1.558.106-2.82.166-3.693.182a8.633,8.633,0,0,1-1.357-.012,8.3,8.3,0,0,1,1.348-.149l3.678-.313c3.1-.286,7.38-.789,12.062-1.618s8.867-1.835,11.878-2.636l3.561-.973a8.539,8.539,0,0,1,1.318-.325" fill="#263238"/>
        <path id="Trazado_237098" data-name="Trazado 237098" d="M192.989,153.116c-.115,0-.187-5.854-.161-13.073s.139-13.073.254-13.072.186,5.853.16,13.074-.139,13.071-.253,13.071" fill="#263238"/>
        <path id="Trazado_237099" data-name="Trazado 237099" d="M246.245,122.616s6.218,5.333,6.626,8.351c.315,2.335,6.429,24.257,9.184,34.072a14.315,14.315,0,0,1-.52,9.255l-7.944,19.656-12.854-7.6,6.427-18.435-5.322-15.642Z" fill="#8c5be1"/>
        <path id="Trazado_237100" data-name="Trazado 237100" d="M253.592,193.95a1.067,1.067,0,0,1-.242-.116l-.687-.378c-.623-.358-1.494-.857-2.6-1.488l-9.408-5.485-.112-.065.043-.125c1.8-5.2,3.985-11.513,6.384-18.449l0,.138c-.754-2.022-1.541-4.135-2.345-6.29-1.881-5.069-3.676-9.909-5.312-14.318l.006.015c-1.629-3.421-3.039-6.723-3.431-9.889a13.84,13.84,0,0,1,.132-4.442,13.048,13.048,0,0,1,1.291-3.574,14.866,14.866,0,0,1,3.319-4.19,12.112,12.112,0,0,1,1.116-.886,3.023,3.023,0,0,1,.412-.266,2.653,2.653,0,0,1-.373.317c-.252.2-.621.5-1.071.927a15.372,15.372,0,0,0-3.2,4.206,13.066,13.066,0,0,0-1.222,3.52,13.669,13.669,0,0,0-.087,4.346c.408,3.1,1.817,6.355,3.459,9.766l0,.007,0,.008c1.646,4.407,3.45,9.243,5.342,14.308.8,2.156,1.586,4.27,2.339,6.293l.025.069-.025.069c-2.431,6.925-4.647,13.232-6.468,18.421l-.071-.19c3.894,2.336,7.086,4.253,9.338,5.6l2.556,1.561.662.418a1.208,1.208,0,0,1,.218.157" fill="#263238"/>
        <g id="Grupo_184132" data-name="Grupo 184132" opacity="0.3">
          <g id="Grupo_184131" data-name="Grupo 184131">
            <g id="Grupo_184130" data-name="Grupo 184130" clip-path="url(#clip-path-3)">
              <path id="Trazado_237101" data-name="Trazado 237101" d="M220.463,125.5a1.91,1.91,0,0,1,1.911,1.4c.159.858.04,1.756.263,2.6s.991,1.664,1.845,1.487a2.279,2.279,0,0,0,1.22-.961,29.842,29.842,0,0,0,4.009-7.392c-.024.062-4.406,5.06-4.406,5.06a14.632,14.632,0,0,0-.99-3.681c-.147-.38-.316-1.029-.686-1.2-.6-.274-1.39.6-1.786,1.127a10.434,10.434,0,0,1-1.381,1.484"/>
            </g>
          </g>
        </g>
        <g id="Grupo_184135" data-name="Grupo 184135" opacity="0.3">
          <g id="Grupo_184134" data-name="Grupo 184134">
            <g id="Grupo_184133" data-name="Grupo 184133" clip-path="url(#clip-path-4)">
              <path id="Trazado_237102" data-name="Trazado 237102" d="M213.278,120.957a25.782,25.782,0,0,0,1.6,8.184,1.854,1.854,0,0,0,.43.713.661.661,0,0,0,.774.111,9.27,9.27,0,0,0,.789-1.693c.407-1.136,2.057-1.241,2.057-1.241a29.611,29.611,0,0,0-1.078-3.788,1.052,1.052,0,0,0-1.025-.661,1.71,1.71,0,0,0-1.131,1.3,18.281,18.281,0,0,1-.518,3.69c-.774-2.173-1.4-4.791-1.912-6.688"/>
            </g>
          </g>
        </g>
        <g id="Grupo_184138" data-name="Grupo 184138" opacity="0.3">
          <g id="Grupo_184137" data-name="Grupo 184137">
            <g id="Grupo_184136" data-name="Grupo 184136" clip-path="url(#clip-path-5)">
              <path id="Trazado_237103" data-name="Trazado 237103" d="M225.483,181.236a1.735,1.735,0,0,0,.38-2.455,2.652,2.652,0,0,0-2.484-.945,5.6,5.6,0,0,0-2.517,1.135c-.754.545-1.451,1.17-2.243,1.657a12.924,12.924,0,0,1-6.614,1.508,39.2,39.2,0,0,0-6.849.306,7.876,7.876,0,0,0-5.577,3.61s19.56-1.423,25.9-4.816"/>
            </g>
          </g>
        </g>
        <path id="Trazado_237104" data-name="Trazado 237104" d="M238.272,209.974a16.186,16.186,0,0,1-5.125-5.281.2.2,0,0,0,.007-.173.288.288,0,0,0-.2-.118,27.5,27.5,0,0,1-1.5-2.629c1.6-1.038,3.684-2.609,1.414-2.932-2.793-.4-4.79-1.756-5.074-2.5s.646-1.41,1.382-.935a10.28,10.28,0,0,0,2.688.928,6.737,6.737,0,0,0,2.277.144c.473-.052,2.138-1.194,3.919-2.03a1.375,1.375,0,0,1,.81-.107l.681-.047a2.11,2.11,0,0,0,1.727-1.133l2.581-4.967,7.8,4.614-6.172,8.566a102.976,102.976,0,0,1-7.219,8.6" fill="#ffbe9d"/>
        <path id="Trazado_237105" data-name="Trazado 237105" d="M239.882,210.871a6.391,6.391,0,0,1-1.8-.849,16.278,16.278,0,0,1-6.334-7.084,6.371,6.371,0,0,1-.643-1.881,20.788,20.788,0,0,0,8.775,9.814" fill="#455a64"/>
        <path id="Trazado_237106" data-name="Trazado 237106" d="M215.313,215.89c-.006.013-.08-.01-.218-.068a2.614,2.614,0,0,1-.553-.352,4.658,4.658,0,0,1-1.273-2.023,32.979,32.979,0,0,1-.866-3.409c-.285-1.287-.584-2.705-.876-4.2-.587-2.988-1.034-5.707-1.32-7.681-.141-.987-.245-1.787-.305-2.342a3.506,3.506,0,0,1-.051-.867,3.49,3.49,0,0,1,.21.843q.18.954.435,2.319c.36,1.959.852,4.666,1.437,7.648.3,1.483.582,2.9.844,4.2s.474,2.461.769,3.394a4.888,4.888,0,0,0,1.1,2c.391.378.68.5.662.539" fill="#455a64"/>
        <path id="Trazado_237107" data-name="Trazado 237107" d="M214.648,198.021c0-.023.132-.048.353.025a1.41,1.41,0,0,1,.652,2.1,1.606,1.606,0,0,1-1.672.636,1.662,1.662,0,0,1-1.168-1.353,1.53,1.53,0,0,1,.5-1.367c.66-.568,1.255-.4,1.224-.363a2.466,2.466,0,0,0-1.018.571,1.26,1.26,0,0,0-.33,1.1,1.312,1.312,0,0,0,.9,1.015,1.255,1.255,0,0,0,1.258-.46,1.073,1.073,0,0,0,.119-1.1c-.294-.665-.846-.738-.816-.8" fill="#455a64"/>
        <path id="Trazado_237108" data-name="Trazado 237108" d="M197.728,194.827a4.632,4.632,0,0,1,.208,1.833,9.866,9.866,0,0,1-4.112,7.645,4.626,4.626,0,0,1-1.645.836c-.033-.066.6-.377,1.469-1.07a10.807,10.807,0,0,0,4-7.429c.1-1.109.011-1.806.084-1.815" fill="#455a64"/>
        <path id="Trazado_237109" data-name="Trazado 237109" d="M166.85,138.995a26.759,26.759,0,0,1,.4-3.953,26.711,26.711,0,0,1,.579-3.931,15.1,15.1,0,0,1-.167,3.982,15.094,15.094,0,0,1-.812,3.9" fill="#263238"/>
        <path id="Trazado_237110" data-name="Trazado 237110" d="M150.991,129.91a1.084,1.084,0,0,1-.054.28c-.055.212-.124.475-.21.8l-.846,3.024c-.764,2.64-1.836,6.343-3.12,10.776l-.127-.224c4.5,1.117,9.92,2.026,15.7,3.091,2.881.536,5.661,1.121,8.223,1.758h-.093l16.141-3.651,4.7-1.024,1.261-.258a2.3,2.3,0,0,1,.441-.066,2.128,2.128,0,0,1-.425.134l-1.247.322-4.674,1.139L170.554,149.8l-.045.011-.048-.011c-2.553-.626-5.325-1.2-8.2-1.739-5.773-1.063-11.205-1.995-15.711-3.152l-.182-.046.054-.177,3.262-10.734c.4-1.261.711-2.266.941-3,.106-.319.192-.577.26-.785a1.084,1.084,0,0,1,.108-.264" fill="#263238"/>
        <path id="Trazado_237111" data-name="Trazado 237111" d="M20.8,24.953h5.369q4.911.014,4.912,5.381v3.844a4.273,4.273,0,0,1-2.906,4.443l4.143,11.9H28.276L24.954,39.273l-.47.065V50.517H20.8Zm3.687,3.635v7.323h.848a3.57,3.57,0,0,0,1.054-.1,1.584,1.584,0,0,0,1-1.629V30.334q0-1.746-1.6-1.746Z" fill="none" stroke="#8c5be1" stroke-miterlimit="10" stroke-width="1"/>
        <path id="Trazado_237112" data-name="Trazado 237112" d="M36.563,24.952h9.563v3.635H40.249V35.91H45.3v3.648H40.249v7.323h5.876v3.635H36.563Z" fill="none" stroke="#8c5be1" stroke-miterlimit="10" stroke-width="1"/>
        <path id="Trazado_237113" data-name="Trazado 237113" d="M50.764,29.917q0-5.369,5.29-5.368t5.3,5.368v3.44H57.669v-3.44q0-1.719-1.6-1.733H56.04q-1.589,0-1.588,1.733v2.319q0,1.708,3.452,4.183t3.453,5.9v3.232q0,5.382-5.29,5.381t-5.3-5.381v-3.44h3.688v3.44q0,1.732,1.615,1.733t1.6-1.733V42.634q0-1.849-3.453-4.326a7.206,7.206,0,0,1-3.452-5.994Z" fill="none" stroke="#8c5be1" stroke-miterlimit="10" stroke-width="1"/>
        <path id="Trazado_237114" data-name="Trazado 237114" d="M77.108,45.553q0,5.368-5.3,5.381t-5.29-5.381v-20.6H70.2v20.6q0,1.732,1.6,1.733t1.616-1.733v-20.6h3.688Z" fill="none" stroke="#8c5be1" stroke-miterlimit="10" stroke-width="1"/>
        <path id="Trazado_237115" data-name="Trazado 237115" d="M82.527,50.517V24.953h3.687V46.882H92.09v3.635Z" fill="none" stroke="#8c5be1" stroke-miterlimit="10" stroke-width="1"/>
        <path id="Trazado_237116" data-name="Trazado 237116" d="M104.6,24.952v3.635h-3.453V50.517H97.458V28.587H94V24.952Z" fill="none" stroke="#8c5be1" stroke-miterlimit="10" stroke-width="1"/>
        <path id="Trazado_237117" data-name="Trazado 237117" d="M118.682,41.448l1.2,9.069h-3.727l-.717-5.421h-3.764l-.731,5.421h-3.713l1.2-9.03,2.606-16.535h5.056Zm-3.727,0-1.407-10.632-1.407,10.632Z" fill="none" stroke="#8c5be1" stroke-miterlimit="10" stroke-width="1"/>
        <path id="Trazado_237118" data-name="Trazado 237118" d="M124.257,24.953h5.681q4.912.014,4.912,5.381V45.149q0,5.355-5.146,5.368h-5.447Zm3.687,3.635V46.882h1.616q1.6,0,1.6-1.733V30.334q0-1.746-1.6-1.746Z" fill="none" stroke="#8c5be1" stroke-miterlimit="10" stroke-width="1"/>
        <path id="Trazado_237119" data-name="Trazado 237119" d="M150.472,45.553q0,5.368-5.3,5.381t-5.29-5.381V29.917q0-5.369,5.29-5.368t5.3,5.368Zm-3.688-15.636q0-1.719-1.6-1.733h-.026q-1.589,0-1.589,1.733V45.553q0,1.732,1.6,1.733t1.615-1.733Z" fill="none" stroke="#8c5be1" stroke-miterlimit="10" stroke-width="1"/>
        <path id="Trazado_237120" data-name="Trazado 237120" d="M155.5,29.917q0-5.369,5.29-5.368t5.3,5.368v3.44H162.4v-3.44q0-1.719-1.6-1.733h-.027q-1.589,0-1.588,1.733v2.319q0,1.708,3.452,4.183t3.453,5.9v3.232q0,5.382-5.29,5.381t-5.3-5.381v-3.44h3.688v3.44q0,1.732,1.615,1.733t1.6-1.733V42.634q0-1.849-3.453-4.326a7.206,7.206,0,0,1-3.452-5.994Z" fill="none" stroke="#8c5be1" stroke-miterlimit="10" stroke-width="1"/>
        <path id="Trazado_237121" data-name="Trazado 237121" d="M111.149,264.235l22.648.312c-.173,12.07-10.343,21.906-22.648,21.906h-.133Z" fill="#455a64"/>
        <path id="Trazado_237122" data-name="Trazado 237122" d="M148.6,294.9a2.2,2.2,0,0,1-.485.039l-1.384.036-5.06.059H141.6l-.041-.052c-2.021-2.546-4.627-5.831-7.472-9.413-2.208-2.817-4.273-5.45-6.023-7.68l.118.056-6.665-.062-1.865-.041a3.692,3.692,0,0,1-.66-.045,3.615,3.615,0,0,1,.66-.046l1.865-.041,6.665-.062h.071l.045.058,6.063,7.649,7.408,9.462-.1-.051,5.06.059,1.384.036a2.287,2.287,0,0,1,.485.039" fill="#263238"/>
        <path id="Trazado_237123" data-name="Trazado 237123" d="M156.722,297.512c0,.1-3.281.173-7.327.173s-7.329-.077-7.329-.173,3.281-.173,7.329-.173,7.327.077,7.327.173" fill="#263238"/>
        <path id="Trazado_237124" data-name="Trazado 237124" d="M156.722,300.225c0,.1-3.281.174-7.327.174s-7.329-.078-7.329-.174,3.281-.173,7.329-.173,7.327.077,7.327.173" fill="#263238"/>
        <path id="Trazado_237125" data-name="Trazado 237125" d="M107.567,261.011l-.318,22.216c-12.3-.169-22.332-10.145-22.332-22.216,0-12.189,10.224-22.218,22.65-22.218s22.65,10.029,22.65,22.218Z" fill="#8c5be1"/>
        <path id="Trazado_237126" data-name="Trazado 237126" d="M98.723,253.745a1.44,1.44,0,0,1-.393.092l-1.127.18-4.068.571-.067.009-.051-.049-5.426-5.279c-2.607-2.557-4.953-4.886-6.64-6.584-.8-.82-1.471-1.5-1.984-2.023a5.906,5.906,0,0,1-.694-.776,6,6,0,0,1,.789.679l2.061,1.945c1.73,1.653,4.1,3.954,6.711,6.511l5.383,5.325-.118-.04,4.084-.45,1.136-.1a1.454,1.454,0,0,1,.4-.008" fill="#263238"/>
        <path id="Trazado_237127" data-name="Trazado 237127" d="M72.537,238.909c0,.1-3.281.173-7.327.173s-7.329-.077-7.329-.173,3.281-.174,7.329-.174,7.327.078,7.327.174" fill="#263238"/>
        <path id="Trazado_237128" data-name="Trazado 237128" d="M72.537,241.622c0,.1-3.281.174-7.327.174s-7.329-.078-7.329-.174,3.281-.173,7.329-.173,7.327.077,7.327.173" fill="#263238"/>
      </g>
    </g>
  </g>
</svg>
