<svg id="Grupo_154336" data-name="Grupo 154336" xmlns="http://www.w3.org/2000/svg" xmlns:xlink="http://www.w3.org/1999/xlink" width="125.314" height="125.311" viewBox="0 0 125.314 125.311">
  <defs>
    <clipPath id="clip-path">
      <rect id="Rectángulo_45997" data-name="Rectángulo 45997" width="125.314" height="125.311" fill="#25e0ac"/>
    </clipPath>
  </defs>
  <g id="Grupo_154336-2" data-name="Grupo 154336" clip-path="url(#clip-path)">
    <path id="Trazado_196593" data-name="Trazado 196593" d="M58.912,0h7.333c2.217.213,4.451.157,6.663.412A49.484,49.484,0,0,1,84.456,3.394a61.354,61.354,0,0,1,19.531,11.577,62.839,62.839,0,0,1,20.8,37.057,58.852,58.852,0,0,1,.465,7.29,97.87,97.87,0,0,1-.31,12.312,49.794,49.794,0,0,1-3.1,12.644,61.4,61.4,0,0,1-11.679,19.751A63.076,63.076,0,0,1,73.082,124.79a57.108,57.108,0,0,1-7.29.458,97.623,97.623,0,0,1-12.312-.315,50.3,50.3,0,0,1-12.642-3.116,61.664,61.664,0,0,1-19.745-11.689A63.439,63.439,0,0,1,1.952,80.176,45.1,45.1,0,0,1,.118,67.066c0-.274.092-.572-.118-.821V58.913c.213-2.215.156-4.448.413-6.659a49.488,49.488,0,0,1,2.98-11.546A61.808,61.808,0,0,1,14.96,21.177,63.015,63.015,0,0,1,37.535,4.662,59.984,59.984,0,0,1,50.565.644,53.335,53.335,0,0,1,56.992.118,5.359,5.359,0,0,0,58.912,0" transform="translate(0 0)" fill="#25e0ac"/>
    <path id="Trazado_196594" data-name="Trazado 196594" d="M61.307,59.453c-.94-.9-1.907-1.766-2.815-2.693a1.923,1.923,0,0,1,.005-3.083c1.383-1.405,2.806-2.772,4.212-4.155l-.155-.3q-2.97,0-5.94,0c-1.948,0-2.759-.529-2.764-1.785s.81-1.794,2.75-1.8c3.462-.011,6.924-.016,10.386-.036a2.541,2.541,0,0,1,1.933.853c1.906,1.952,3.864,3.854,5.765,5.811a1.121,1.121,0,0,0,1.583.284A17.407,17.407,0,0,1,80.2,50.919c.693-.194.853-.568.844-1.234-.032-2.729-.021-5.458-.009-8.187.007-1.643.646-2.321,2.281-2.334q5.009-.039,10.02,0c1.684.012,2.33.7,2.34,2.419.015,2.688.028,5.377-.01,8.064a1.113,1.113,0,0,0,.923,1.308,16.4,16.4,0,0,1,3.823,1.584A1.114,1.114,0,0,0,102,52.282c1.868-1.933,3.781-3.822,5.692-5.713,1.283-1.269,2.133-1.263,3.432.027q3.468,3.444,6.911,6.913c1.284,1.295,1.281,2.135-.007,3.436-1.862,1.882-3.725,3.763-5.625,5.607a1.191,1.191,0,0,0-.31,1.682,14.982,14.982,0,0,1,1.536,3.71c.217.839.687,1.023,1.5,1.008,2.646-.051,5.294-.029,7.942-.016,1.692.008,2.37.659,2.384,2.371q.042,4.949,0,9.9c-.014,1.77-.684,2.385-2.489,2.391-2.647.008-5.295.033-7.942-.017a1.177,1.177,0,0,0-1.383.991,16.975,16.975,0,0,1-1.586,3.823,1.06,1.06,0,0,0,.254,1.483c1.923,1.878,3.815,3.788,5.706,5.7,1.3,1.312,1.31,2.148.034,3.434q-3.483,3.514-7,7c-1.224,1.212-2.1,1.2-3.345-.033-1.911-1.891-3.821-3.782-5.692-5.711a1.114,1.114,0,0,0-1.581-.278,16.349,16.349,0,0,1-3.821,1.587,1.113,1.113,0,0,0-.942,1.3c.044,2.688.027,5.376.012,8.065-.009,1.78-.654,2.43-2.444,2.439q-4.887.024-9.775,0c-1.795-.009-2.408-.65-2.425-2.441-.02-2.179-.02-2.179-2.173-2.179-.855,0-1.712.026-2.566-.01-1.312-.055-2.134-.821-2.1-1.9.038-1.039.832-1.709,2.108-1.731s2.527-.049,3.788.01c.772.036.951-.248.957-.978.015-2.214.038-2.189-2.043-2.947a23.965,23.965,0,0,1-2.783-1.234,1.079,1.079,0,0,0-1.486.252c-1.846,1.9-3.732,3.756-5.61,5.621-1.452,1.442-2.223,1.433-3.7-.036-1.9-1.9-3.832-3.773-5.687-5.718a2.9,2.9,0,0,0-2.359-.954c-3.095.052-6.191.023-9.287.016a7.746,7.746,0,0,1-1.335-.09,1.638,1.638,0,0,1-1.486-1.9,1.619,1.619,0,0,1,1.679-1.6c.853-.048,1.71-.027,2.565-.028,2.77,0,5.539-.01,8.309.005a1.8,1.8,0,0,0,1.426-.518c1.71-1.745,3.449-3.463,5.173-5.2.222-.222.581-.428.435-.8-.178-.451-.632-.274-.969-.275-3.218-.013-6.436-.008-9.654-.008-.326,0-.652.011-.977-.005a1.866,1.866,0,0,1-1.992-1.737,1.844,1.844,0,0,1,1.872-1.866c1.381-.071,2.768-.026,4.153-.028,1.548,0,3.1.036,4.642-.029.358-.015,1.1.46,1.094-.393-.007-.7-.374-1.126-1.254-1.1-2.524.068-5.05.024-7.576.024-.285,0-.57.01-.855,0a1.926,1.926,0,0,1-2.1-2.035,14.314,14.314,0,0,1,0-2.32c.109-1.015-.329-1.23-1.252-1.205-2.076.058-4.154.032-6.231.01-1.411-.015-2.153-.644-2.164-1.762s.728-1.781,2.127-1.8c2.158-.024,4.318-.036,6.476,0,.788.015,1.111-.222,1.041-1.041a20,20,0,0,1-.009-2.2c.038-1.634.694-2.3,2.317-2.314,2.688-.017,5.378-.044,8.064.018A1.235,1.235,0,0,0,63.079,67.9a14.562,14.562,0,0,1,1.435-3.489c.533-.925.179-1.063-.7-1.044-1.914.041-3.829.027-5.743.007-1.485-.016-2.258-.672-2.229-1.829.027-1.112.764-1.713,2.194-1.744,1.045-.023,2.091,0,3.136,0l.136-.342" transform="translate(-14.548 -13.688)" fill="#126783"/>
    <path id="Trazado_196595" data-name="Trazado 196595" d="M40.8,74.476c-2.032,0-4.064.017-6.1-.007-1.389-.016-2.142-.674-2.137-1.786s.742-1.771,2.147-1.779q6.034-.031,12.069,0c1.424.007,2.273.752,2.228,1.852-.042,1.048-.869,1.7-2.238,1.718-1.991.018-3.982,0-5.973,0" transform="translate(-11.389 -24.788)" fill="#126783"/>
    <path id="Trazado_196596" data-name="Trazado 196596" d="M41.019,113.437c-1.015,0-2.031.033-3.044-.01a1.811,1.811,0,0,1-1.867-1.714,1.774,1.774,0,0,1,1.722-1.854c2.188-.077,4.383-.079,6.57.009a1.723,1.723,0,0,1,1.678,1.879,1.778,1.778,0,0,1-1.894,1.686c-1.055.025-2.11.005-3.166,0" transform="translate(-12.625 -38.394)" fill="#126783"/>
    <path id="Trazado_196597" data-name="Trazado 196597" d="M26.438,97.035c-.894,0-1.791.041-2.682-.012a1.7,1.7,0,0,1-1.744-1.795,1.646,1.646,0,0,1,1.7-1.718c1.828-.038,3.659-.054,5.486,0A1.664,1.664,0,0,1,30.935,95.3a1.7,1.7,0,0,1-1.815,1.725c-.892.049-1.788.01-2.682.008" transform="translate(-7.695 -32.686)" fill="#126783"/>
    <path id="Trazado_196598" data-name="Trazado 196598" d="M99.165,49.8c0,1.3,0,2.607,0,3.91a1.914,1.914,0,0,0,1.545,2.057,25.636,25.636,0,0,1,6.855,2.83,2.031,2.031,0,0,0,2.746-.44c1.826-1.86,3.7-3.672,5.519-5.541.506-.52.819-.6,1.358-.029,1.254,1.336,2.546,2.641,3.889,3.886.634.588.482.924-.053,1.443-1.84,1.788-3.62,3.639-5.46,5.427a2.142,2.142,0,0,0-.39,2.958,23.583,23.583,0,0,1,2.659,6.4c.37,1.441.939,1.824,2.466,1.831,2.566.011,5.133.027,7.7-.01.751-.01.99.242.972.984-.044,1.791-.049,3.585,0,5.376.023.812-.26,1.043-1.052,1.029-2.525-.043-5.051-.023-7.577-.012-1.582.007-2.16.4-2.537,1.907a24.281,24.281,0,0,1-2.6,6.293c-.757,1.306-.652,1.952.425,3.036,1.808,1.822,3.61,3.65,5.454,5.434.527.511.59.823.022,1.357-1.335,1.254-2.642,2.545-3.885,3.89-.6.645-.933.466-1.445-.06-1.762-1.809-3.559-3.584-5.354-5.361-1.112-1.1-1.724-1.215-3.029-.457a25.723,25.723,0,0,1-6.408,2.642c-1.44.378-1.811.923-1.816,2.465-.008,2.526-.038,5.052.017,7.576.019.874-.268,1.113-1.111,1.085-1.749-.059-3.5-.054-5.253,0-.808.024-1.048-.251-1.034-1.045.043-2.484.021-4.969.013-7.453-.007-1.734-.391-2.273-2.034-2.691A23.948,23.948,0,0,1,83.7,98.012c-1.455-.838-2.023-.75-3.227.445-1.791,1.78-3.592,3.551-5.351,5.363-.5.516-.814.608-1.355.031-1.253-1.337-2.546-2.64-3.889-3.886-.635-.589-.485-.929.051-1.449,1.811-1.76,3.587-3.556,5.365-5.35,1.137-1.147,1.222-1.727.41-3.135a25.358,25.358,0,0,1-2.562-6.179c-.427-1.608-.923-1.947-2.614-1.952-2.485-.008-4.97-.023-7.455.01-.737.01-1.108-.119-1.078-.986.063-1.831.046-3.667.007-5.5-.016-.7.228-.909.911-.9,2.566.031,5.132.018,7.7.008,1.6-.006,2.1-.355,2.516-1.913a25.992,25.992,0,0,1,2.614-6.29c.762-1.323.666-1.937-.419-3.033-1.806-1.824-3.61-3.65-5.452-5.435-.527-.511-.579-.831-.019-1.36,1.333-1.257,2.641-2.545,3.884-3.891.6-.646.933-.46,1.442.063,1.763,1.808,3.56,3.583,5.353,5.362,1.137,1.128,1.729,1.213,3.132.406A24.406,24.406,0,0,1,89.843,55.9c1.559-.4,1.948-.957,1.956-2.627.01-2.485.037-4.97-.015-7.454-.018-.873.276-1.114,1.117-1.087,1.791.057,3.585.044,5.376,0,.7-.016.92.235.9.916-.04,1.384-.012,2.77-.011,4.155" transform="translate(-21.676 -15.639)" fill="#20bdfc"/>
    <path id="Trazado_196599" data-name="Trazado 196599" d="M104.587,103.832a16.451,16.451,0,1,1,16.485-16.418,16.433,16.433,0,0,1-16.485,16.418" transform="translate(-30.821 -24.802)" fill="#126783"/>
    <path id="Trazado_196600" data-name="Trazado 196600" d="M119.385,89.293A12.851,12.851,0,1,1,106.57,76.435a12.938,12.938,0,0,1,12.815,12.858" transform="translate(-32.758 -26.727)" fill="#25e0ac"/>
  </g>
</svg>
