<svg xmlns="http://www.w3.org/2000/svg" xmlns:xlink="http://www.w3.org/1999/xlink" width="292.909" height="370.666" viewBox="0 0 292.909 370.666">
  <defs>
    <clipPath id="clip-path">
      <rect id="Rectángulo_64623" data-name="Rectángulo 64623" width="292.909" height="370.666" fill="none"/>
    </clipPath>
    <clipPath id="clip-path-3">
      <rect id="Rectángulo_64603" data-name="Rectángulo 64603" width="82.457" height="32.549" transform="translate(41.33 48.604)" fill="none"/>
    </clipPath>
    <clipPath id="clip-path-4">
      <rect id="Rectángulo_64604" data-name="Rectángulo 64604" width="83.009" height="13.335" transform="translate(40.891 67.932)" fill="none"/>
    </clipPath>
    <clipPath id="clip-path-5">
      <rect id="Rectángulo_64608" data-name="Rectángulo 64608" width="124.656" height="36.035" transform="translate(113.643 107.222)" fill="none"/>
    </clipPath>
    <clipPath id="clip-path-6">
      <rect id="Rectángulo_64609" data-name="Rectángulo 64609" width="29.5" height="3.298" transform="translate(241.488 360.469)" fill="none"/>
    </clipPath>
    <clipPath id="clip-path-7">
      <rect id="Rectángulo_64610" data-name="Rectángulo 64610" width="29.031" height="7.781" transform="translate(179.248 361.399)" fill="none"/>
    </clipPath>
    <clipPath id="clip-path-8">
      <rect id="Rectángulo_64611" data-name="Rectángulo 64611" width="22.507" height="10.673" transform="translate(215.803 188.286)" fill="none"/>
    </clipPath>
    <clipPath id="clip-path-9">
      <rect id="Rectángulo_64612" data-name="Rectángulo 64612" width="4.226" height="10.82" transform="translate(239.564 171.119)" fill="none"/>
    </clipPath>
    <clipPath id="clip-path-10">
      <rect id="Rectángulo_64613" data-name="Rectángulo 64613" width="5.475" height="11.113" transform="translate(174.661 151.494)" fill="none"/>
    </clipPath>
    <clipPath id="clip-path-11">
      <rect id="Rectángulo_64614" data-name="Rectángulo 64614" width="5.107" height="27.293" transform="translate(192.528 136.399)" fill="none"/>
    </clipPath>
    <clipPath id="clip-path-12">
      <rect id="Rectángulo_64615" data-name="Rectángulo 64615" width="9.756" height="19.798" transform="translate(218.065 130.84)" fill="none"/>
    </clipPath>
    <clipPath id="clip-path-13">
      <path id="Trazado_236905" data-name="Trazado 236905" d="M28.494,205.4a16.76,16.76,0,1,0,16.761-16.761A16.76,16.76,0,0,0,28.494,205.4" fill="none"/>
    </clipPath>
    <clipPath id="clip-path-15">
      <path id="Trazado_236908" data-name="Trazado 236908" d="M65.224,224.372A7.174,7.174,0,1,0,72.4,217.2a7.174,7.174,0,0,0-7.174,7.174" fill="none"/>
    </clipPath>
  </defs>
  <g id="Grupo_184110" data-name="Grupo 184110" transform="translate(-4070 8642.115)">
    <g id="Grupo_184109" data-name="Grupo 184109" transform="translate(4070 -8642.115)">
      <g id="Grupo_184108" data-name="Grupo 184108" clip-path="url(#clip-path)">
        <g id="Grupo_184101" data-name="Grupo 184101">
          <g id="Grupo_184100" data-name="Grupo 184100" clip-path="url(#clip-path)">
            <path id="Trazado_236730" data-name="Trazado 236730" d="M289.543,370.666H3.366a3.366,3.366,0,0,1,0-6.733H289.543a3.366,3.366,0,0,1,0,6.733" fill="#afafaf"/>
            <rect id="Rectángulo_64601" data-name="Rectángulo 64601" width="234.839" height="162.344" transform="translate(19.886 0.133)" fill="#fafafa"/>
            <path id="Trazado_236731" data-name="Trazado 236731" d="M254.725,162.477c0-.878-.042-63.581-.107-162.344l.107.107L19.905.266h-.019l.133-.133c0,57.99-.008,113.072-.011,162.344l-.122-.121,234.839.121L19.886,162.6h-.121v-.121c0-49.272-.007-104.354-.012-162.344V0h.152l234.82.026h.107V.133c-.065,98.763-.106,161.467-.107,162.344" fill="#263238"/>
            <rect id="Rectángulo_64602" data-name="Rectángulo 64602" width="234.839" height="9.42" transform="translate(19.886 0.133)" fill="#263238"/>
            <path id="Trazado_236732" data-name="Trazado 236732" d="M26.587,4.664a1.446,1.446,0,1,1-1.446-1.447,1.447,1.447,0,0,1,1.446,1.447" fill="#fff"/>
            <path id="Trazado_236733" data-name="Trazado 236733" d="M31.805,4.664a1.446,1.446,0,1,1-1.446-1.447,1.447,1.447,0,0,1,1.446,1.447" fill="#fff"/>
            <path id="Trazado_236734" data-name="Trazado 236734" d="M37.023,4.664a1.446,1.446,0,1,1-1.446-1.447,1.447,1.447,0,0,1,1.446,1.447" fill="#fff"/>
            <path id="Trazado_236735" data-name="Trazado 236735" d="M246.324,152.273c0-.588-.029-19.381-.079-52.732l.079.079-216.8.054h-.013l.133-.133c0,18.064,0,35.712,0,52.732l-.13-.13,216.81.13-216.81.13h-.13v-.13c0-17.02,0-34.668,0-52.732v-.133h.146l216.8.055h.079v.078c-.05,33.351-.078,52.145-.079,52.732" fill="#e0e0e0"/>
            <path id="Trazado_236736" data-name="Trazado 236736" d="M134.823,95.114s-.008-.46-.012-1.343-.006-2.194-.012-3.9c-.006-3.422-.015-8.445-.027-14.871-.014-12.842-.033-31.283-.056-53.7l.107.107L30,21.429H30l.132-.132c0,26.407-.008,51.473-.011,73.817L30,94.993l75.6.06,21.532.032,5.718.015,1.474.007c.332,0,.5.007.5.007s-.163.005-.49.007l-1.46.007-5.694.015-21.5.032L30,95.235h-.121v-.121c0-22.344-.008-47.41-.012-73.817v-.133H30l104.818.025h.108V21.3c-.023,22.445-.042,40.909-.056,53.767-.012,6.415-.021,11.431-.027,14.847-.006,1.7-.01,3-.012,3.883s-.012,1.32-.012,1.32" fill="#e0e0e0"/>
            <path id="Trazado_236737" data-name="Trazado 236737" d="M41.33,81.153l7.549-10.92a4.835,4.835,0,0,1,6.79-1.184l1.061.759a4.835,4.835,0,0,0,7.388-2.369l3.666-10.725a4.835,4.835,0,0,1,9.15,0l1.774,5.19a4.835,4.835,0,0,0,9,.4l1.538-3.472a4.836,4.836,0,0,1,8.413-.77,4.835,4.835,0,0,0,8.567-1.165l1.715-5.017a4.835,4.835,0,0,1,9.289.49l6.561,28.788s-82.227-.23-82.457,0" fill="#8c5be1"/>
            <g id="Grupo_184072" data-name="Grupo 184072" style="isolation: isolate">
              <g id="Grupo_184071" data-name="Grupo 184071">
                <g id="Grupo_184070" data-name="Grupo 184070" clip-path="url(#clip-path-3)">
                  <path id="Trazado_236738" data-name="Trazado 236738" d="M41.33,81.153l7.549-10.92a4.835,4.835,0,0,1,6.79-1.184l1.061.759a4.835,4.835,0,0,0,7.388-2.369l3.666-10.725a4.835,4.835,0,0,1,9.15,0l1.774,5.19a4.835,4.835,0,0,0,9,.4l1.538-3.472a4.836,4.836,0,0,1,8.413-.77,4.835,4.835,0,0,0,8.567-1.165l1.715-5.017a4.835,4.835,0,0,1,9.289.49l6.561,28.788s-82.227-.23-82.457,0" fill="#43a99b"/>
                </g>
              </g>
            </g>
            <path id="Trazado_236739" data-name="Trazado 236739" d="M41.118,81.437l6.134-17.946a4.724,4.724,0,0,1,8.9-.11l2.938,7.951a4.722,4.722,0,0,0,8.11,1.323L69.58,69.7a4.724,4.724,0,0,1,6.469-.853L81.592,72.9a4.725,4.725,0,0,0,2.789.911h7.054a4.726,4.726,0,0,1,2.788.91l5.249,3.84a4.725,4.725,0,0,0,6.688-1.147l4.926-7.207c.063-.091.128-.18.2-.266a4.427,4.427,0,0,1,7.376.874l5.271,10.454s-82.811-.169-82.811.17" fill="#8c5be1"/>
            <path id="Trazado_236740" data-name="Trazado 236740" d="M123.9,81.266l-6.409-5.218c-8.792-6.466-12.961,5.842-19.872-3.394l-2.38-2.959a4.723,4.723,0,0,0-6.469-.852l-2.755,2.015a15.3,15.3,0,0,1-9.031,2.95h-3.6a4.722,4.722,0,0,0-2.788.911l-5.249,3.839c-2.153,1.574-3.654,1.786-7.1-1.106,0,0-3.74-3.041-3.828-3.148a4.833,4.833,0,0,0-7.317,0,19.465,19.465,0,0,1-1.26,1.506l-4.951,5.457s83.009-.34,83.009,0" fill="#8c5be1"/>
            <g id="Grupo_184075" data-name="Grupo 184075" opacity="0.3">
              <g id="Grupo_184074" data-name="Grupo 184074">
                <g id="Grupo_184073" data-name="Grupo 184073" clip-path="url(#clip-path-4)">
                  <path id="Trazado_236741" data-name="Trazado 236741" d="M123.9,81.266l-6.409-5.218c-8.792-6.466-12.961,5.842-19.872-3.394l-2.38-2.959a4.723,4.723,0,0,0-6.469-.852l-2.755,2.015a15.3,15.3,0,0,1-9.031,2.95h-3.6a4.722,4.722,0,0,0-2.788.911l-5.249,3.839c-2.153,1.574-3.654,1.786-7.1-1.106,0,0-3.74-3.041-3.828-3.148a4.833,4.833,0,0,0-7.317,0,19.465,19.465,0,0,1-1.26,1.506l-4.951,5.457s83.009-.34,83.009,0" fill="#fff"/>
                </g>
              </g>
            </g>
            <path id="Trazado_236742" data-name="Trazado 236742" d="M63.886,39.827c0,.073-2.933.133-6.551.133s-6.551-.06-6.551-.133,2.933-.133,6.551-.133,6.551.06,6.551.133" fill="#263238"/>
            <rect id="Rectángulo_64605" data-name="Rectángulo 64605" width="2.242" height="2.242" transform="translate(47.111 38.706)" fill="#8c5be1"/>
            <path id="Trazado_236743" data-name="Trazado 236743" d="M88.6,39.827c0,.073-2.933.133-6.551.133S75.5,39.9,75.5,39.827s2.933-.133,6.551-.133,6.551.06,6.551.133" fill="#263238"/>
            <rect id="Rectángulo_64606" data-name="Rectángulo 64606" width="2.242" height="2.242" transform="translate(71.827 38.706)" fill="#8c5be1"/>
            <path id="Trazado_236744" data-name="Trazado 236744" d="M113.317,39.827c0,.073-2.933.133-6.551.133s-6.551-.06-6.551-.133,2.933-.133,6.551-.133,6.551.06,6.551.133" fill="#263238"/>
            <rect id="Rectángulo_64607" data-name="Rectángulo 64607" width="2.242" height="2.242" transform="translate(96.543 38.706)" fill="#8c5be1"/>
            <path id="Trazado_236745" data-name="Trazado 236745" d="M113.643,143.257l5.4-7.694a1.933,1.933,0,0,1,2.747-.433l2.838,2.143a1.933,1.933,0,0,0,2.839-.576l8.187-14.181a1.934,1.934,0,0,1,3.193-.231l5.112,6.482a1.933,1.933,0,0,0,3.149-.159l3.735-5.872a1.934,1.934,0,0,1,3.306.071l3.084,5.342a1.933,1.933,0,0,0,3.3.073l10.546-16.529a1.934,1.934,0,0,1,3.237-.035l17.424,26.064a1.933,1.933,0,0,0,3.038.226l10.586-11.653a1.933,1.933,0,0,1,2.8-.064l8.42,8.45a1.933,1.933,0,0,0,3.044-.4l15.064-26.091a1.933,1.933,0,0,1,3.607.967v34.1Z" fill="#8c5be1"/>
            <path id="Trazado_236746" data-name="Trazado 236746" d="M237.982,147.519a.932.932,0,0,1-.009-.15c0-.109-.005-.259-.009-.458,0-.422-.009-1.048-.017-1.9l.035.035c-7.2.056-32.243.1-61.985.1s-54.793-.042-61.991-.1l.035-.035c-.008.855-.013,1.481-.017,1.9,0,.2-.007.349-.009.458a.93.93,0,0,1-.009.15.932.932,0,0,1-.009-.15c0-.109-.005-.259-.009-.458,0-.422-.009-1.048-.017-1.9v-.035h.035c7.2-.057,32.239-.1,61.991-.1s54.787.041,61.985.1h.035v.035c-.008.855-.013,1.481-.017,1.9,0,.2-.007.349-.009.458a.928.928,0,0,1-.009.15" fill="#263238"/>
            <path id="Trazado_236747" data-name="Trazado 236747" d="M127.782,147.32c-.074,0-.134-.236-.134-.528s.06-.529.134-.529.132.237.132.529-.06.528-.132.528" fill="#263238"/>
            <path id="Trazado_236748" data-name="Trazado 236748" d="M141.557,147.32c-.074,0-.134-.236-.134-.528s.06-.529.134-.529.132.237.132.529-.059.528-.132.528" fill="#263238"/>
            <path id="Trazado_236749" data-name="Trazado 236749" d="M155.332,147.32c-.073,0-.133-.236-.133-.528s.06-.529.133-.529.133.237.133.529-.06.528-.133.528" fill="#263238"/>
            <path id="Trazado_236750" data-name="Trazado 236750" d="M169.107,147.32c-.073,0-.133-.236-.133-.528s.06-.529.133-.529.133.237.133.529-.06.528-.133.528" fill="#263238"/>
            <path id="Trazado_236751" data-name="Trazado 236751" d="M182.882,147.32c-.073,0-.133-.236-.133-.528s.06-.529.133-.529.133.237.133.529-.06.528-.133.528" fill="#263238"/>
            <path id="Trazado_236752" data-name="Trazado 236752" d="M196.657,147.32c-.073,0-.133-.236-.133-.528s.06-.529.133-.529.133.237.133.529-.06.528-.133.528" fill="#263238"/>
            <path id="Trazado_236753" data-name="Trazado 236753" d="M210.432,147.32c-.073,0-.133-.236-.133-.528s.06-.529.133-.529.133.237.133.529-.06.528-.133.528" fill="#263238"/>
            <path id="Trazado_236754" data-name="Trazado 236754" d="M224.207,147.32c-.073,0-.133-.236-.133-.528s.06-.529.133-.529.133.237.133.529-.06.528-.133.528" fill="#263238"/>
            <path id="Trazado_236755" data-name="Trazado 236755" d="M247.008,78.2S247,77.9,247,77.309s-.006-1.463-.011-2.6c-.005-2.288-.014-5.654-.024-9.987-.013-8.658-.031-21.175-.053-36.626l.1.1-104.819.035h-.007l.132-.132c0,17.643,0,34.6-.007,50.112l-.125-.126,75.29.06,21.724.035,5.8.016,1.5.007c.337,0,.513.008.513.008s-.166,0-.5.008l-1.484.007-5.774.016-21.695.035-75.375.06h-.126V78.2c0-15.516-.005-32.469-.007-50.112v-.133h.14l104.819.035h.1v.1c-.022,15.477-.04,28.013-.053,36.686-.01,4.323-.018,7.682-.024,9.965-.005,1.134-.008,2-.011,2.586s-.01.875-.01.875" fill="#e0e0e0"/>
            <path id="Trazado_236756" data-name="Trazado 236756" d="M223.282,49.942h-72.21a1.2,1.2,0,1,1,0-2.407h72.21a1.2,1.2,0,0,1,0,2.407" fill="#e0e0e0"/>
            <path id="Trazado_236757" data-name="Trazado 236757" d="M223.282,40.411h-72.21a1.2,1.2,0,1,1,0-2.407h72.21a1.2,1.2,0,0,1,0,2.407" fill="#e0e0e0"/>
            <path id="Trazado_236758" data-name="Trazado 236758" d="M183.7,49.942H151.072a1.2,1.2,0,1,1,0-2.407H183.7a1.2,1.2,0,0,1,0,2.407" fill="#455a64"/>
            <path id="Trazado_236759" data-name="Trazado 236759" d="M232.437,49.252H231.9v.69h-.39v-.69h-1.56v-.281l1.436-1.837h.433l-1.376,1.773h1.079V48.3h.378v.61h.533Z" fill="#263238"/>
            <path id="Trazado_236760" data-name="Trazado 236760" d="M234.635,49.1c0,.486-.345.875-1.063.875a1.613,1.613,0,0,1-1.031-.341l.185-.317a1.261,1.261,0,0,0,.842.3c.425,0,.666-.2.666-.5s-.2-.513-.85-.513h-.638l.148-1.469h1.584v.35h-1.247l-.076.77h.313c.838,0,1.167.349,1.167.846" fill="#263238"/>
            <path id="Trazado_236761" data-name="Trazado 236761" d="M234.884,47.876a.68.68,0,0,1,.654-.766c.389,0,.65.305.65.766s-.261.766-.65.766a.68.68,0,0,1-.654-.766m1.047,0c0-.337-.149-.537-.393-.537s-.393.2-.393.537.152.538.393.538.393-.2.393-.538m1.3-.742h.309l-1.917,2.808h-.309Zm-.565,2.066a.66.66,0,1,1,.65.766.677.677,0,0,1-.65-.766m1.043,0c0-.333-.153-.538-.393-.538s-.393.2-.393.538.148.537.393.537.393-.2.393-.537" fill="#263238"/>
            <path id="Trazado_236762" data-name="Trazado 236762" d="M223.282,58.768h-72.21a1.2,1.2,0,1,1,0-2.407h72.21a1.2,1.2,0,0,1,0,2.407" fill="#e0e0e0"/>
            <path id="Trazado_236763" data-name="Trazado 236763" d="M194.331,58.768H151.146a1.137,1.137,0,0,1-1.278-1.2c0-.665.381-1.2.85-1.2H193.9a1.254,1.254,0,0,1,1.383,1.2,1.211,1.211,0,0,1-.955,1.2" fill="#43a99b"/>
            <path id="Trazado_236764" data-name="Trazado 236764" d="M232.04,55.96v.273L230.9,58.768h-.425l1.111-2.459h-1.284v.5h-.385v-.85Z" fill="#263238"/>
            <path id="Trazado_236765" data-name="Trazado 236765" d="M232.313,57.364c0-.915.489-1.436,1.147-1.436s1.143.521,1.143,1.436-.489,1.436-1.143,1.436-1.147-.521-1.147-1.436m1.889,0c0-.718-.3-1.079-.742-1.079s-.746.361-.746,1.079.3,1.079.746,1.079.742-.361.742-1.079" fill="#263238"/>
            <path id="Trazado_236766" data-name="Trazado 236766" d="M234.944,56.7a.68.68,0,0,1,.653-.766c.39,0,.651.305.651.766s-.261.766-.651.766a.68.68,0,0,1-.653-.766m1.047,0c0-.337-.149-.537-.394-.537s-.392.2-.392.537.152.538.392.538.394-.2.394-.538m1.3-.742h.309l-1.917,2.808h-.309Zm-.565,2.066a.66.66,0,1,1,.65.766.677.677,0,0,1-.65-.766m1.043,0c0-.333-.153-.538-.393-.538s-.393.2-.393.538.148.537.393.537.393-.2.393-.537" fill="#263238"/>
            <path id="Trazado_236767" data-name="Trazado 236767" d="M223.282,67.384h-72.21a1.2,1.2,0,1,1,0-2.407h72.21a1.2,1.2,0,0,1,0,2.407" fill="#e0e0e0"/>
            <path id="Trazado_236768" data-name="Trazado 236768" d="M177.893,67.384H151.072a1.2,1.2,0,1,1,0-2.407h26.821a1.2,1.2,0,1,1,0,2.407" fill="#eeac3a"/>
            <path id="Trazado_236769" data-name="Trazado 236769" d="M231.963,66.541c0,.486-.345.875-1.063.875a1.618,1.618,0,0,1-1.031-.34l.185-.318a1.262,1.262,0,0,0,.842.3c.425,0,.666-.2.666-.5s-.2-.513-.85-.513h-.638l.148-1.468h1.584v.349h-1.247l-.076.77h.313c.838,0,1.167.349,1.167.846" fill="#263238"/>
            <path id="Trazado_236770" data-name="Trazado 236770" d="M232.3,65.98c0-.915.489-1.436,1.147-1.436s1.143.521,1.143,1.436-.489,1.436-1.143,1.436-1.147-.521-1.147-1.436m1.889,0c0-.718-.305-1.079-.742-1.079s-.746.361-.746,1.079.305,1.079.746,1.079.742-.361.742-1.079" fill="#263238"/>
            <path id="Trazado_236771" data-name="Trazado 236771" d="M234.928,65.318a.68.68,0,0,1,.654-.766c.389,0,.65.305.65.766s-.261.766-.65.766a.68.68,0,0,1-.654-.766m1.047,0c0-.337-.149-.537-.393-.537s-.393.2-.393.537.152.538.393.538.393-.2.393-.538m1.3-.742h.31l-1.918,2.808h-.309Zm-.565,2.066a.66.66,0,1,1,.65.766.677.677,0,0,1-.65-.766m1.044,0c0-.333-.154-.538-.394-.538s-.393.2-.393.538.149.537.393.537.394-.2.394-.537" fill="#263238"/>
            <path id="Trazado_236772" data-name="Trazado 236772" d="M198.878,40.411H151.072a1.2,1.2,0,0,1,0-2.407h47.806a1.2,1.2,0,0,1,0,2.407" fill="#8c5be1"/>
            <path id="Trazado_236773" data-name="Trazado 236773" d="M232.168,39.557a.908.908,0,0,1-.995.887c-.754,0-1.179-.506-1.179-1.4a1.3,1.3,0,0,1,1.328-1.473,1.356,1.356,0,0,1,.7.165l-.153.313a.975.975,0,0,0-.537-.133c-.57,0-.935.357-.935,1.059a.888.888,0,0,0,0,.1.934.934,0,0,1,.806-.369.868.868,0,0,1,.963.85m-.389.016c0-.329-.249-.541-.642-.541a.582.582,0,0,0-.646.545c0,.289.233.542.666.542a.556.556,0,0,0,.622-.546" fill="#263238"/>
            <path id="Trazado_236774" data-name="Trazado 236774" d="M232.469,39.007c0-.915.489-1.436,1.147-1.436s1.143.521,1.143,1.436-.489,1.436-1.143,1.436-1.147-.521-1.147-1.436m1.889,0c0-.718-.305-1.079-.742-1.079s-.746.361-.746,1.079.305,1.079.746,1.079.742-.361.742-1.079" fill="#263238"/>
            <path id="Trazado_236775" data-name="Trazado 236775" d="M235.1,38.345a.68.68,0,0,1,.653-.766c.39,0,.651.305.651.766s-.261.766-.651.766a.68.68,0,0,1-.653-.766m1.047,0c0-.337-.149-.537-.394-.537s-.392.2-.392.537.152.538.392.538.394-.2.394-.538m1.3-.742h.309l-1.917,2.808h-.309Zm-.565,2.066a.66.66,0,1,1,.65.766.677.677,0,0,1-.65-.766m1.043,0c0-.333-.153-.538-.393-.538s-.393.2-.393.538.148.537.393.537.393-.2.393-.537" fill="#263238"/>
            <path id="Trazado_236776" data-name="Trazado 236776" d="M221.6,83.337c0,.073-17.674.133-39.472.133s-39.476-.06-39.476-.133,17.671-.133,39.476-.133,39.472.06,39.472.133" fill="#e0e0e0"/>
            <path id="Trazado_236777" data-name="Trazado 236777" d="M221.6,88.018c0,.073-17.674.133-39.472.133s-39.476-.06-39.476-.133,17.671-.133,39.476-.133,39.472.06,39.472.133" fill="#e0e0e0"/>
            <path id="Trazado_236778" data-name="Trazado 236778" d="M221.6,92.252c0,.073-17.674.133-39.472.133s-39.476-.06-39.476-.133,17.671-.133,39.476-.133,39.472.06,39.472.133" fill="#e0e0e0"/>
            <path id="Trazado_236779" data-name="Trazado 236779" d="M43.944,140.2h0a1.419,1.419,0,0,1-1.419-1.419v-26.62a1.419,1.419,0,1,1,2.838,0v26.62a1.419,1.419,0,0,1-1.419,1.419" fill="#e0e0e0"/>
            <path id="Trazado_236780" data-name="Trazado 236780" d="M43.944,140.325h0a1.419,1.419,0,0,1-1.419-1.419V121.745a1.419,1.419,0,1,1,2.838,0v17.161a1.419,1.419,0,0,1-1.419,1.419" fill="#8c5be1"/>
            <path id="Trazado_236781" data-name="Trazado 236781" d="M43.052,141.436V143.8h-.243v-2.15h-.558v-.216Z" fill="#263238"/>
            <path id="Trazado_236782" data-name="Trazado 236782" d="M43.615,142.62c0-.754.4-1.2.944-1.2s.946.45.946,1.2-.4,1.2-.946,1.2-.944-.449-.944-1.2m1.64,0c0-.633-.284-.981-.7-.981s-.7.348-.7.981.284.98.7.98.7-.348.7-.98" fill="#263238"/>
            <path id="Trazado_236783" data-name="Trazado 236783" d="M49.617,140.2h0a1.419,1.419,0,0,1-1.42-1.419v-26.62a1.419,1.419,0,1,1,2.838,0v26.62a1.418,1.418,0,0,1-1.418,1.419" fill="#e0e0e0"/>
            <path id="Trazado_236784" data-name="Trazado 236784" d="M49.617,140.325h0a1.419,1.419,0,0,1-1.42-1.419V116.34a1.419,1.419,0,0,1,2.838,0v22.566a1.418,1.418,0,0,1-1.418,1.419" fill="#8c5be1"/>
            <path id="Trazado_236785" data-name="Trazado 236785" d="M49.278,143.586v.216h-1.66v-.172l.984-.964c.267-.263.318-.422.318-.584,0-.274-.193-.443-.555-.443a.8.8,0,0,0-.645.264l-.173-.149a1.067,1.067,0,0,1,.839-.339c.479,0,.784.244.784.64a.973.973,0,0,1-.389.74l-.8.791Z" fill="#263238"/>
            <path id="Trazado_236786" data-name="Trazado 236786" d="M49.567,142.62c0-.754.4-1.2.944-1.2s.946.45.946,1.2-.4,1.2-.946,1.2-.944-.449-.944-1.2m1.64,0c0-.633-.284-.981-.7-.981s-.7.348-.7.981.284.98.7.98.7-.348.7-.98" fill="#263238"/>
            <path id="Trazado_236787" data-name="Trazado 236787" d="M55.289,140.2h0a1.419,1.419,0,0,1-1.419-1.419v-26.62a1.419,1.419,0,1,1,2.838,0v26.62a1.419,1.419,0,0,1-1.419,1.419" fill="#e0e0e0"/>
            <path id="Trazado_236788" data-name="Trazado 236788" d="M55.289,140.325h0a1.419,1.419,0,0,1-1.419-1.419V125.8a1.419,1.419,0,1,1,2.838,0v13.107a1.419,1.419,0,0,1-1.419,1.419" fill="#8c5be1"/>
            <path id="Trazado_236789" data-name="Trazado 236789" d="M54.92,143.123c0,.4-.287.7-.859.7a1.233,1.233,0,0,1-.852-.3l.119-.192a1.036,1.036,0,0,0,.733.274c.392,0,.609-.183.609-.477s-.2-.47-.639-.47h-.169v-.179l.656-.822H53.307v-.216h1.522v.173l-.67.841c.507.027.761.294.761.673" fill="#263238"/>
            <path id="Trazado_236790" data-name="Trazado 236790" d="M55.26,142.62c0-.754.4-1.2.944-1.2s.946.45.946,1.2-.4,1.2-.946,1.2-.944-.449-.944-1.2m1.64,0c0-.633-.284-.981-.7-.981s-.7.348-.7.981.284.98.7.98.7-.348.7-.98" fill="#263238"/>
            <path id="Trazado_236791" data-name="Trazado 236791" d="M60.961,140.2h0a1.419,1.419,0,0,1-1.419-1.419v-26.62a1.419,1.419,0,1,1,2.838,0v26.62a1.419,1.419,0,0,1-1.419,1.419" fill="#e0e0e0"/>
            <path id="Trazado_236792" data-name="Trazado 236792" d="M60.961,140.325h0a1.419,1.419,0,0,1-1.419-1.419V116.34a1.419,1.419,0,0,1,2.838,0v22.566a1.419,1.419,0,0,1-1.419,1.419" fill="#8c5be1"/>
            <path id="Trazado_236793" data-name="Trazado 236793" d="M60.973,143.18H60.5v.622h-.244v-.622H58.921v-.175l1.254-1.569h.271l-1.211,1.528h1.028v-.548H60.5v.548h.473Z" fill="#263238"/>
            <path id="Trazado_236794" data-name="Trazado 236794" d="M61.193,142.62c0-.754.4-1.2.944-1.2s.946.45.946,1.2-.4,1.2-.946,1.2-.944-.449-.944-1.2m1.64,0c0-.633-.284-.981-.7-.981s-.7.348-.7.981.284.98.7.98.7-.348.7-.98" fill="#263238"/>
            <path id="Trazado_236795" data-name="Trazado 236795" d="M66.633,140.2h0a1.419,1.419,0,0,1-1.419-1.419v-26.62a1.419,1.419,0,1,1,2.838,0v26.62a1.419,1.419,0,0,1-1.419,1.419" fill="#e0e0e0"/>
            <path id="Trazado_236796" data-name="Trazado 236796" d="M66.633,140.325h0a1.419,1.419,0,0,1-1.419-1.419V120.664a1.419,1.419,0,0,1,2.838,0v18.242a1.419,1.419,0,0,1-1.419,1.419" fill="#8c5be1"/>
            <path id="Trazado_236797" data-name="Trazado 236797" d="M66.507,143.106c0,.4-.28.717-.858.717a1.223,1.223,0,0,1-.849-.3l.118-.192a1.026,1.026,0,0,0,.727.274c.4,0,.615-.2.615-.484,0-.3-.189-.494-.791-.494h-.5l.121-1.186h1.3v.216H65.3l-.081.754h.3c.714,0,.984.281.984.7" fill="#263238"/>
            <path id="Trazado_236798" data-name="Trazado 236798" d="M66.812,142.62c0-.754.4-1.2.944-1.2s.946.45.946,1.2-.4,1.2-.946,1.2-.944-.449-.944-1.2m1.64,0c0-.633-.284-.981-.7-.981s-.7.348-.7.981.284.98.7.98.7-.348.7-.98" fill="#263238"/>
            <path id="Trazado_236799" data-name="Trazado 236799" d="M72.305,140.2h0a1.419,1.419,0,0,1-1.419-1.419v-26.62a1.419,1.419,0,1,1,2.838,0v26.62a1.419,1.419,0,0,1-1.419,1.419" fill="#e0e0e0"/>
            <path id="Trazado_236800" data-name="Trazado 236800" d="M72.305,140.2h0a1.4,1.4,0,0,1-1.419-1.294V125.8a1.451,1.451,0,0,1,1.419-1.544,1.419,1.419,0,0,1,1.419,1.419v13.107a1.419,1.419,0,0,1-1.419,1.419" fill="#8c5be1"/>
            <path id="Trazado_236801" data-name="Trazado 236801" d="M72.119,143.1a.737.737,0,0,1-.808.726c-.629,0-.97-.436-.97-1.183,0-.8.439-1.224,1.082-1.224a1.079,1.079,0,0,1,.561.129l-.1.2a.832.832,0,0,0-.46-.112c-.51,0-.838.328-.838.97,0,.054,0,.122.01.193a.755.755,0,0,1,.723-.405.716.716,0,0,1,.8.71m-.24.006c0-.311-.23-.51-.6-.51a.547.547,0,0,0-.608.517c0,.26.216.507.625.507a.518.518,0,0,0,.578-.514" fill="#263238"/>
            <path id="Trazado_236802" data-name="Trazado 236802" d="M72.4,142.62c0-.754.4-1.2.944-1.2s.946.45.946,1.2-.4,1.2-.946,1.2-.944-.449-.944-1.2m1.64,0c0-.633-.284-.981-.7-.981s-.7.348-.7.981.284.98.7.98.7-.348.7-.98" fill="#263238"/>
            <path id="Trazado_236803" data-name="Trazado 236803" d="M77.977,140.2h0a1.419,1.419,0,0,1-1.419-1.419v-26.62a1.419,1.419,0,1,1,2.838,0v26.62a1.419,1.419,0,0,1-1.419,1.419" fill="#e0e0e0"/>
            <path id="Trazado_236804" data-name="Trazado 236804" d="M77.977,140.325h0a1.419,1.419,0,0,1-1.419-1.419V114.988a1.419,1.419,0,0,1,2.838,0v23.918a1.419,1.419,0,0,1-1.419,1.419" fill="#8c5be1"/>
            <path id="Trazado_236805" data-name="Trazado 236805" d="M77.675,141.436v.172l-.991,2.194h-.263l.973-2.15H76.177v.443h-.24v-.659Z" fill="#263238"/>
            <path id="Trazado_236806" data-name="Trazado 236806" d="M77.926,142.62c0-.754.4-1.2.944-1.2s.946.45.946,1.2-.4,1.2-.946,1.2-.944-.449-.944-1.2m1.64,0c0-.633-.284-.981-.7-.981s-.7.348-.7.981.284.98.7.98.7-.348.7-.98" fill="#263238"/>
            <path id="Trazado_236807" data-name="Trazado 236807" d="M83.649,140.2h0a1.419,1.419,0,0,1-1.419-1.419v-26.62a1.419,1.419,0,1,1,2.838,0v26.62a1.419,1.419,0,0,1-1.419,1.419" fill="#e0e0e0"/>
            <path id="Trazado_236808" data-name="Trazado 236808" d="M83.649,140.325h0a1.419,1.419,0,0,1-1.419-1.419V128.5a1.419,1.419,0,1,1,2.838,0v10.4a1.419,1.419,0,0,1-1.419,1.419" fill="#8c5be1"/>
            <path id="Trazado_236809" data-name="Trazado 236809" d="M83.367,143.143c0,.42-.355.68-.92.68s-.913-.26-.913-.68a.59.59,0,0,1,.457-.581.535.535,0,0,1-.372-.521c0-.385.328-.625.828-.625s.835.24.835.625a.536.536,0,0,1-.379.521.6.6,0,0,1,.464.581m-.251,0c0-.291-.25-.474-.669-.474s-.666.183-.666.474.247.477.666.477.669-.183.669-.477m-.669-.666c.368,0,.588-.165.588-.423s-.233-.429-.588-.429-.585.163-.585.426.217.426.585.426" fill="#263238"/>
            <path id="Trazado_236810" data-name="Trazado 236810" d="M83.7,142.62c0-.754.4-1.2.944-1.2s.946.45.946,1.2-.4,1.2-.946,1.2-.944-.449-.944-1.2m1.64,0c0-.633-.284-.981-.7-.981s-.7.348-.7.981.284.98.7.98.7-.348.7-.98" fill="#263238"/>
            <path id="Trazado_236811" data-name="Trazado 236811" d="M89.321,140.2h0a1.419,1.419,0,0,1-1.419-1.419v-26.62a1.419,1.419,0,1,1,2.838,0v26.62a1.419,1.419,0,0,1-1.419,1.419" fill="#e0e0e0"/>
            <path id="Trazado_236812" data-name="Trazado 236812" d="M89.321,140.2h0a1.4,1.4,0,0,1-1.419-1.294v-3.648a1.451,1.451,0,0,1,1.419-1.544,1.419,1.419,0,0,1,1.419,1.419v3.648a1.419,1.419,0,0,1-1.419,1.419" fill="#8c5be1"/>
            <path id="Trazado_236813" data-name="Trazado 236813" d="M88.895,142.6c0,.805-.44,1.224-1.082,1.224a1.076,1.076,0,0,1-.561-.129l.1-.2a.831.831,0,0,0,.459.112c.511,0,.839-.328.839-.971,0-.053,0-.121-.01-.192a.758.758,0,0,1-.724.4.716.716,0,0,1-.8-.71.738.738,0,0,1,.808-.726c.629,0,.971.436.971,1.183m-.335-.47c0-.26-.216-.507-.625-.507a.518.518,0,0,0-.579.514c0,.311.23.51.595.51a.548.548,0,0,0,.609-.517" fill="#263238"/>
            <path id="Trazado_236814" data-name="Trazado 236814" d="M89.244,142.62c0-.754.4-1.2.944-1.2s.946.45.946,1.2-.4,1.2-.946,1.2-.944-.449-.944-1.2m1.64,0c0-.633-.284-.981-.7-.981s-.7.348-.7.981.284.98.7.98.7-.348.7-.98" fill="#263238"/>
            <path id="Trazado_236815" data-name="Trazado 236815" d="M94.993,140.2h0a1.419,1.419,0,0,1-1.419-1.419v-26.62a1.419,1.419,0,1,1,2.838,0v26.62a1.419,1.419,0,0,1-1.419,1.419" fill="#e0e0e0"/>
            <path id="Trazado_236816" data-name="Trazado 236816" d="M94.993,140.2h0a1.4,1.4,0,0,1-1.419-1.294V125.8a1.451,1.451,0,0,1,1.419-1.544,1.419,1.419,0,0,1,1.419,1.419v13.107a1.419,1.419,0,0,1-1.419,1.419" fill="#8c5be1"/>
            <path id="Trazado_236817" data-name="Trazado 236817" d="M92.96,141.436V143.8h-.243v-2.15h-.558v-.216Z" fill="#263238"/>
            <path id="Trazado_236818" data-name="Trazado 236818" d="M93.524,142.62c0-.754.4-1.2.944-1.2s.946.45.946,1.2-.4,1.2-.946,1.2-.944-.449-.944-1.2m1.64,0c0-.633-.284-.981-.7-.981s-.7.348-.7.981.284.98.7.98.7-.348.7-.98" fill="#263238"/>
            <path id="Trazado_236819" data-name="Trazado 236819" d="M95.76,142.62c0-.754.4-1.2.944-1.2s.946.45.946,1.2-.4,1.2-.946,1.2-.944-.449-.944-1.2m1.64,0c0-.633-.284-.981-.7-.981s-.7.348-.7.981.284.98.7.98.7-.348.7-.98" fill="#263238"/>
            <path id="Trazado_236820" data-name="Trazado 236820" d="M106.746,145.764c-.073,0-.133-8.761-.133-19.566s.06-19.568.133-19.568.133,8.759.133,19.568-.06,19.566-.133,19.566" fill="#e0e0e0"/>
            <path id="Trazado_236821" data-name="Trazado 236821" d="M139.756,109.182c0,.074-5.4.134-12.064.134s-12.064-.06-12.064-.134,5.4-.133,12.064-.133,12.064.06,12.064.133" fill="#263238"/>
            <g id="Grupo_184078" data-name="Grupo 184078" opacity="0.5">
              <g id="Grupo_184077" data-name="Grupo 184077">
                <g id="Grupo_184076" data-name="Grupo 184076" clip-path="url(#clip-path-5)">
                  <path id="Trazado_236822" data-name="Trazado 236822" d="M113.643,143.257l5.4-7.694a1.933,1.933,0,0,1,2.747-.433l2.838,2.143a1.933,1.933,0,0,0,2.839-.576l8.187-14.181a1.934,1.934,0,0,1,3.193-.231l5.112,6.482a1.933,1.933,0,0,0,3.149-.159l3.735-5.872a1.934,1.934,0,0,1,3.306.071l3.084,5.342a1.933,1.933,0,0,0,3.3.073l10.546-16.529a1.934,1.934,0,0,1,3.237-.035l17.424,26.064a1.933,1.933,0,0,0,3.038.226l10.586-11.653a1.933,1.933,0,0,1,2.8-.064l8.42,8.45a1.933,1.933,0,0,0,3.044-.4l15.064-26.091a1.933,1.933,0,0,1,3.607.967v34.1Z" fill="#fff"/>
                </g>
              </g>
            </g>
            <path id="Trazado_236823" data-name="Trazado 236823" d="M254.626,339.226l.424,15.191s15.583,4.672,15.935,7.471l-29.426,1.88-1.631-23.643Z" fill="#8c5be1"/>
            <path id="Trazado_236824" data-name="Trazado 236824" d="M245.869,353.723a1.2,1.2,0,0,0-.743,1.424,1.158,1.158,0,0,0,1.4.75,1.27,1.27,0,0,0,.779-1.513,1.2,1.2,0,0,0-1.548-.617" fill="#e0e0e0"/>
            <g id="Grupo_184081" data-name="Grupo 184081" opacity="0.6">
              <g id="Grupo_184080" data-name="Grupo 184080">
                <g id="Grupo_184079" data-name="Grupo 184079" clip-path="url(#clip-path-6)">
                  <path id="Trazado_236825" data-name="Trazado 236825" d="M241.559,363.767l-.071-2.39,28.239-.908s1.347.487,1.257,1.419Z" fill="#fff"/>
                </g>
              </g>
            </g>
            <path id="Trazado_236826" data-name="Trazado 236826" d="M255.516,354.237c0,.144-.71.255-1.387.762-.691.49-1.016,1.135-1.152,1.087-.134-.02.026-.892.857-1.492s1.705-.491,1.682-.357" fill="#263238"/>
            <path id="Trazado_236827" data-name="Trazado 236827" d="M258.684,355.316c.042.137-.565.421-1.014,1.06-.468.626-.549,1.291-.693,1.294-.133.031-.287-.8.287-1.588s1.408-.9,1.42-.766" fill="#263238"/>
            <path id="Trazado_236828" data-name="Trazado 236828" d="M260.673,358.9c-.129.039-.374-.666-.056-1.477s.971-1.166,1.039-1.05c.089.113-.32.563-.572,1.232-.267.663-.269,1.272-.411,1.3" fill="#263238"/>
            <path id="Trazado_236829" data-name="Trazado 236829" d="M255.036,350.785c-.052.135-.724-.021-1.532.086-.811.09-1.426.4-1.508.285-.09-.1.493-.67,1.447-.783s1.656.294,1.593.412" fill="#263238"/>
            <path id="Trazado_236830" data-name="Trazado 236830" d="M254.894,347.722a2.779,2.779,0,0,1-1.474.087,6.666,6.666,0,0,1-1.572-.375,6.853,6.853,0,0,1-.875-.4,1.794,1.794,0,0,1-.467-.318.627.627,0,0,1-.115-.76.79.79,0,0,1,.609-.369,1.934,1.934,0,0,1,.557.041,5.342,5.342,0,0,1,.936.256,5.209,5.209,0,0,1,1.416.8c.723.589.991,1.111.943,1.142-.062.051-.423-.377-1.151-.855a5.932,5.932,0,0,0-1.361-.656,5.524,5.524,0,0,0-.863-.207c-.317-.062-.582-.048-.654.1-.025.055-.028.076.043.163a1.482,1.482,0,0,0,.344.232,7.687,7.687,0,0,0,.807.4,8.178,8.178,0,0,0,1.459.455,10.136,10.136,0,0,1,1.418.263" fill="#263238"/>
            <path id="Trazado_236831" data-name="Trazado 236831" d="M254.72,347.94a2.361,2.361,0,0,1-.48-1.4,4.823,4.823,0,0,1,.1-1.627,4.88,4.88,0,0,1,.319-.919,1.222,1.222,0,0,1,.892-.8.692.692,0,0,1,.642.372,2.015,2.015,0,0,1,.186.531,3.274,3.274,0,0,1,.064.992,3.409,3.409,0,0,1-.532,1.563c-.527.8-1.115,1.009-1.13.961-.053-.069.43-.378.824-1.139a3.405,3.405,0,0,0,.377-1.415,3.037,3.037,0,0,0-.081-.85c-.066-.309-.2-.554-.315-.515-.146.007-.38.259-.484.516a4.752,4.752,0,0,0-.314.822,5.282,5.282,0,0,0-.192,1.489c.015.866.2,1.394.126,1.421" fill="#263238"/>
            <path id="Trazado_236832" data-name="Trazado 236832" d="M189.555,343.179,192.9,358s-13.946,8.376-13.6,11.176l28.977-5.448-4.259-23.313Z" fill="#8c5be1"/>
            <path id="Trazado_236833" data-name="Trazado 236833" d="M201.622,355.064a1.2,1.2,0,0,1,1.072,1.2,1.157,1.157,0,0,1-1.177,1.073,1.27,1.27,0,0,1-1.128-1.273,1.2,1.2,0,0,1,1.347-.981" fill="#e0e0e0"/>
            <g id="Grupo_184084" data-name="Grupo 184084" opacity="0.6">
              <g id="Grupo_184083" data-name="Grupo 184083">
                <g id="Grupo_184082" data-name="Grupo 184082" clip-path="url(#clip-path-7)">
                  <path id="Trazado_236834" data-name="Trazado 236834" d="M208.279,363.732l-.521-2.333-27.589,6.1s-1.184.8-.868,1.685Z" fill="#fff"/>
                </g>
              </g>
            </g>
            <path id="Trazado_236835" data-name="Trazado 236835" d="M192.4,357.945c.031.141.751.072,1.533.4.79.3,1.264.849,1.384.769.125-.053-.245-.859-1.2-1.234s-1.773-.055-1.718.069" fill="#263238"/>
            <path id="Trazado_236836" data-name="Trazado 236836" d="M189.6,359.773c-.007.143.651.269,1.245.777.608.49.85,1.115.99,1.082.137,0,.08-.85-.67-1.467s-1.587-.527-1.565-.392" fill="#263238"/>
            <path id="Trazado_236837" data-name="Trazado 236837" d="M188.555,363.735c.134.006.2-.738-.311-1.445s-1.229-.89-1.266-.761c-.058.131.45.466.858,1.053s.576,1.166.719,1.153" fill="#263238"/>
            <path id="Trazado_236838" data-name="Trazado 236838" d="M192.013,354.482c.083.118.7-.2,1.506-.3.808-.112,1.481.039,1.532-.1.062-.118-.644-.527-1.6-.4s-1.532.694-1.442.792" fill="#263238"/>
            <path id="Trazado_236839" data-name="Trazado 236839" d="M191.394,351.478a2.769,2.769,0,0,0,1.45-.28,6.681,6.681,0,0,0,1.431-.752,7.022,7.022,0,0,0,.75-.6,1.823,1.823,0,0,0,.374-.424.627.627,0,0,0-.077-.765.794.794,0,0,0-.681-.207,1.926,1.926,0,0,0-.53.178,5.345,5.345,0,0,0-.844.479,5.217,5.217,0,0,0-1.173,1.13c-.555.749-.685,1.321-.632,1.339.073.035.317-.47.9-1.113a5.936,5.936,0,0,1,1.157-.972,5.536,5.536,0,0,1,.785-.414c.292-.138.552-.189.657-.067.038.046.046.066,0,.168a1.5,1.5,0,0,1-.275.31,7.78,7.78,0,0,1-.684.582,8.25,8.25,0,0,1-1.3.8,10.1,10.1,0,0,0-1.309.605" fill="#263238"/>
            <path id="Trazado_236840" data-name="Trazado 236840" d="M191.616,351.646a2.362,2.362,0,0,0,.119-1.474,4.791,4.791,0,0,0-1.032-2.363,1.221,1.221,0,0,0-1.063-.559.691.691,0,0,0-.53.519,1.979,1.979,0,0,0-.049.56,3.265,3.265,0,0,0,.183.978,3.4,3.4,0,0,0,.9,1.382c.708.645,1.33.7,1.333.653.034-.08-.511-.261-1.08-.9a3.4,3.4,0,0,1-.715-1.277,3.011,3.011,0,0,1-.131-.844c-.013-.316.056-.586.177-.577.144-.029.432.157.6.38a4.883,4.883,0,0,1,.507.719,5.317,5.317,0,0,1,.554,1.4c.2.843.148,1.4.229,1.408" fill="#263238"/>
            <path id="Trazado_236841" data-name="Trazado 236841" d="M187.91,199.1l-1.162,152.211,21.4,1.368,4.507-127.147,25.654,126.429,19.456-2.048L237.076,199.079Z" fill="#263238"/>
            <path id="Trazado_236842" data-name="Trazado 236842" d="M213.934,75.516a12.971,12.971,0,0,0-13.959,12.146c-.364,6.025-.693,12.541-.652,15.824.087,7.046,7.134,8.142,7.134,8.142s-.172,2.088-.367,4.678a9.28,9.28,0,1,0,18.525,1.116l1.274-28.387a12.976,12.976,0,0,0-11.955-13.519" fill="#b78876"/>
            <path id="Trazado_236843" data-name="Trazado 236843" d="M206.446,111.526a16.386,16.386,0,0,0,9.186-2.611s-2.171,5.071-9.2,4.437Z" fill="#aa6550"/>
            <path id="Trazado_236844" data-name="Trazado 236844" d="M225.241,91.455c.12-.051,4.841-1.432,4.688,3.385s-4.959,3.669-4.963,3.531.275-6.916.275-6.916" fill="#b78876"/>
            <path id="Trazado_236845" data-name="Trazado 236845" d="M226.5,96.593c.022-.015.082.061.222.131a.838.838,0,0,0,.627.033,2.08,2.08,0,0,0,1.02-1.832,2.784,2.784,0,0,0-.2-1.21.971.971,0,0,0-.611-.664.429.429,0,0,0-.5.214c-.069.133-.041.23-.067.237s-.1-.083-.056-.281a.534.534,0,0,1,.2-.3.635.635,0,0,1,.468-.108,1.18,1.18,0,0,1,.852.775,2.844,2.844,0,0,1,.248,1.352,2.178,2.178,0,0,1-1.29,2.041.9.9,0,0,1-.764-.152c-.145-.123-.167-.232-.15-.24" fill="#aa6550"/>
            <path id="Trazado_236846" data-name="Trazado 236846" d="M201.764,92.143a1.006,1.006,0,0,0,.97,1.015.961.961,0,0,0,1.037-.907,1.006,1.006,0,0,0-.969-1.016.964.964,0,0,0-1.038.908" fill="#263238"/>
            <path id="Trazado_236847" data-name="Trazado 236847" d="M201.791,90.172c.125.131.887-.433,1.97-.43,1.082-.013,1.876.544,1.994.412.057-.059-.07-.3-.416-.548a2.756,2.756,0,0,0-1.6-.492,2.656,2.656,0,0,0-1.568.506c-.333.256-.446.493-.384.552" fill="#263238"/>
            <path id="Trazado_236848" data-name="Trazado 236848" d="M212.408,92.143a1.006,1.006,0,0,0,.97,1.015.963.963,0,0,0,1.038-.907,1.008,1.008,0,0,0-.97-1.016.964.964,0,0,0-1.038.908" fill="#263238"/>
            <path id="Trazado_236849" data-name="Trazado 236849" d="M212.435,90.374c.125.131.888-.433,1.97-.43,1.082-.013,1.877.545,1.994.412.058-.059-.068-.3-.416-.548a2.756,2.756,0,0,0-1.6-.492,2.658,2.658,0,0,0-1.568.506c-.332.256-.445.493-.384.552" fill="#263238"/>
            <path id="Trazado_236850" data-name="Trazado 236850" d="M208.505,98.4a7.126,7.126,0,0,0-1.759-.317c-.276-.029-.538-.084-.585-.272a1.411,1.411,0,0,1,.185-.82l.818-2.105A36.223,36.223,0,0,0,209,89.382a36.222,36.222,0,0,0-2.275,5.347q-.41,1.109-.784,2.118a1.6,1.6,0,0,0-.143,1.085.689.689,0,0,0,.455.4,1.915,1.915,0,0,0,.469.066,7.008,7.008,0,0,0,1.783,0" fill="#263238"/>
            <path id="Trazado_236851" data-name="Trazado 236851" d="M211.692,99.153c-.176-.01-.178,1.165-1.184,2s-2.258.705-2.267.87c-.016.073.279.228.808.242a2.922,2.922,0,0,0,1.892-.659,2.548,2.548,0,0,0,.918-1.676c.045-.491-.087-.783-.167-.776" fill="#263238"/>
            <path id="Trazado_236852" data-name="Trazado 236852" d="M212.155,86.131c.107.294,1.188.155,2.458.308,1.274.127,2.3.5,2.467.235.075-.126-.1-.4-.518-.688a4.306,4.306,0,0,0-3.752-.414c-.466.188-.7.419-.655.559" fill="#263238"/>
            <path id="Trazado_236853" data-name="Trazado 236853" d="M202.189,87.038c.19.246.936-.009,1.833-.021.9-.044,1.657.165,1.832-.092.076-.125-.043-.372-.375-.605a2.658,2.658,0,0,0-2.953.092c-.317.253-.421.506-.337.626" fill="#263238"/>
            <path id="Trazado_236854" data-name="Trazado 236854" d="M225.791,91.233a8.146,8.146,0,0,1-.12,2.312,2.518,2.518,0,0,1-1.23,1.759c-1.21.6-2.729-.322-3.271-1.56a8.1,8.1,0,0,1-.267-4,19.5,19.5,0,0,0-.083-5.513,7.916,7.916,0,0,0-2.646-4.728,5.019,5.019,0,0,0-5.19-.748,28.292,28.292,0,0,0-2.743,2.022,4.225,4.225,0,0,1-2.911.733,2.735,2.735,0,0,1-2.232-1.859,2.98,2.98,0,0,1,1.137-2.957,6.809,6.809,0,0,1,3.078-1.232,16.511,16.511,0,0,1,9.142.712,11.926,11.926,0,0,1,6.635,6.172c1.4,3.3,1.218,5.31.813,8.889" fill="#263238"/>
            <path id="Trazado_236855" data-name="Trazado 236855" d="M127.651,128.133l10.275,2.07,14.133,9-4.819,9.174s-4.969-1.386-6.42-2.668a5.875,5.875,0,0,0-3.057-1.425s.1,2.27-1.623,1.878-4.591-.881-4.1-3.3a1.871,1.871,0,0,1-1.208-2.042s-1.418-.106-1.035-2.458,2.083-5.386,6.77-4.532c.243.049.565-.415.14-.575l-7.246-1.709s-4.537-1.792-1.807-3.412" fill="#b78876"/>
            <path id="Trazado_236856" data-name="Trazado 236856" d="M132.723,138.251a7.159,7.159,0,0,1,1.721.419,15.484,15.484,0,0,1,1.844.625,1.571,1.571,0,0,1,.832.953,1.274,1.274,0,0,1-.493,1.289,3.044,3.044,0,0,1-2.422.317,15.142,15.142,0,0,1-1.893-.389,4.853,4.853,0,0,1-1.65-.666,14.1,14.1,0,0,1,1.722.367c.528.108,1.163.209,1.874.291a6.653,6.653,0,0,0,1.088.077,1.811,1.811,0,0,0,1.007-.335.854.854,0,0,0,.353-.847,1.187,1.187,0,0,0-.61-.7c-.592-.3-1.256-.481-1.751-.686a7.215,7.215,0,0,1-1.622-.711" fill="#aa6550"/>
            <path id="Trazado_236857" data-name="Trazado 236857" d="M135.231,136.924c-.013.124-.627.139-1.227.53-.612.372-.891.92-1.008.878-.12-.013.023-.778.776-1.247s1.5-.274,1.459-.161" fill="#aa6550"/>
            <path id="Trazado_236858" data-name="Trazado 236858" d="M136.316,141.427c.019-.018.109.012.237.139.157.13.187.442.223.7a1.371,1.371,0,0,1-.3,1.1,1.414,1.414,0,0,1-1.334.391,14.991,14.991,0,0,1-2.25-.454c-.567-.184-.881-.386-.858-.438s.371.038.933.14,1.359.187,2.23.32a1.065,1.065,0,0,0,.981-.226,1.128,1.128,0,0,0,.287-.8c0-.317.026-.5-.053-.629s-.124-.215-.1-.237" fill="#aa6550"/>
            <path id="Trazado_236859" data-name="Trazado 236859" d="M136.237,143.317c-.008-.053.188-.143.5-.054a1.856,1.856,0,0,1,.921.734,1.343,1.343,0,0,1,.109,1.21c-.1.281-.225.421-.278.4s-.041-.2-.023-.465a1.4,1.4,0,0,0-.164-.894,2.612,2.612,0,0,0-.687-.7c-.207-.133-.376-.164-.379-.229" fill="#aa6550"/>
            <path id="Trazado_236860" data-name="Trazado 236860" d="M144.137,138l-4.962-.205-5.208,1.015s-.429.946,1.983,1.591a11.606,11.606,0,0,0,4.641.22s2.149,3.133,4.942,3.855" fill="#b78876"/>
            <path id="Trazado_236861" data-name="Trazado 236861" d="M145.533,144.477a1.386,1.386,0,0,1-.46-.082,5.867,5.867,0,0,1-1.209-.517,11.334,11.334,0,0,1-3.431-3.147l.194.08a10.874,10.874,0,0,1-5.708-.536,2.768,2.768,0,0,1-.822-.52.983.983,0,0,1-.326-1.032l.034-.1.121-.022,5.216-.977.022,0h.019c1.507.083,2.747.16,3.609.226a6.749,6.749,0,0,1,1.345.155,6.7,6.7,0,0,1-1.353.045c-.865-.006-2.107-.032-3.616-.074l.041,0-5.2,1.054.154-.122a.617.617,0,0,0,.236.543,2.4,2.4,0,0,0,.7.434,10.906,10.906,0,0,0,5.458.556l.125-.017.07.1a12.106,12.106,0,0,0,3.23,3.169,16.679,16.679,0,0,0,1.553.794" fill="#aa6550"/>
            <path id="Trazado_236862" data-name="Trazado 236862" d="M138.084,135.1c-.064.1-.541-.118-.9-.629s-.408-1.031-.295-1.059.334.368.65.807.618.781.546.881" fill="#aa6550"/>
            <path id="Trazado_236863" data-name="Trazado 236863" d="M192.528,200.28c8.532,3.684,18.513,4.78,29.78,3.586l8.251-84.036-5.85-4.492-13.482,10.02-4.619-9.656-10.823,15.549Z" fill="#f5f5f5"/>
            <path id="Trazado_236864" data-name="Trazado 236864" d="M206.692,204.328a.745.745,0,0,1-.047-.2c-.025-.159-.055-.354-.093-.593q-.117-.84-.319-2.292c-.084-1-.147-2.226-.237-3.649-.073-1.424-.069-3.047-.109-4.841-.05-7.177.43-17.08,1.229-27.991s1.789-20.775,2.584-27.9c.4-3.564.757-6.443,1.031-8.429.13-.994.257-1.763.343-2.284.041-.239.075-.433.1-.592a.752.752,0,0,1,.05-.2.674.674,0,0,1-.006.206c-.016.16-.036.356-.061.6q-.095.84-.261,2.293c-.214,2.031-.518,4.9-.893,8.441-.717,7.131-1.656,16.99-2.456,27.9s-1.327,20.795-1.355,27.959c.02,1.79-.006,3.411.044,4.832s.118,2.631.163,3.644c.1.967.179,1.733.237,2.292.02.242.037.439.05.6a.777.777,0,0,1,0,.207" fill="#263238"/>
            <path id="Trazado_236865" data-name="Trazado 236865" d="M218.039,216.707s-6.284-65.692-2.386-73.03c3.019-5.681,7.686-17.548,9.64-22.616a6.1,6.1,0,0,0-.121-4.684l-.464-1.04,5.85,4.492,12.012,6.456-7.25,55.654,8.21,28.235Z" fill="#8c5be1"/>
            <g id="Grupo_184087" data-name="Grupo 184087" opacity="0.3">
              <g id="Grupo_184086" data-name="Grupo 184086">
                <g id="Grupo_184085" data-name="Grupo 184085" clip-path="url(#clip-path-8)">
                  <path id="Trazado_236866" data-name="Trazado 236866" d="M216.421,197.688c5.108-1.067,2.9,1.9,8.066,1.148,2.79-.407,2.931-2.038,5.228-3.673a15.872,15.872,0,0,1,8.6-2.942l-1.144-3.935-21.363.795Z"/>
                </g>
              </g>
            </g>
            <path id="Trazado_236867" data-name="Trazado 236867" d="M186.991,129.46l2.081,52.479-4.211,29.373,10.522,3.889,4.6-81.166a21.88,21.88,0,0,1,1.985-8.735l4.123-8.994-13.96,4.754Z" fill="#8c5be1"/>
            <path id="Trazado_236868" data-name="Trazado 236868" d="M242.57,126.285s6.59,5.7,8.073,13.362c1.082,5.589,4.261,25.2,5.146,35.27a11.884,11.884,0,0,1-10.057,12.82l-.284.041c-9.555,1.3-25.6-.5-25.6-.5l2.8-12.2s14.187-2.049,16.735-3.762L236,148.676s2.778-21.739,6.567-22.391" fill="#8c5be1"/>
            <path id="Trazado_236869" data-name="Trazado 236869" d="M152.983,137.445l23.23,14.717s8.367-24.582,13.744-30.362l6.471-2.2-5.9,47.17a9.588,9.588,0,0,1-15.5,5.872L146.6,149.588Z" fill="#8c5be1"/>
            <path id="Trazado_236870" data-name="Trazado 236870" d="M243.628,178.966a9.7,9.7,0,0,1-.142-1.369,8.361,8.361,0,0,0-3.149-5.517c-.663-.514-1.138-.751-1.108-.817a2.915,2.915,0,0,1,1.286.567,7.367,7.367,0,0,1,3.278,5.741,2.962,2.962,0,0,1-.165,1.4" fill="#263238"/>
            <path id="Trazado_236871" data-name="Trazado 236871" d="M241.136,180.579a13.542,13.542,0,0,0-1.887-9.516,3.607,3.607,0,0,1,.942,1.151,10.2,10.2,0,0,1,1.377,6.942,3.592,3.592,0,0,1-.432,1.423" fill="#263238"/>
            <path id="Trazado_236872" data-name="Trazado 236872" d="M240.95,128.584a18.382,18.382,0,0,0-2.535,2.521,16.2,16.2,0,0,0-3.1,7.924,33.379,33.379,0,0,0,.307,8.631c.156,1.03.287,1.9.394,2.61a4.216,4.216,0,0,1,.1.967,4.132,4.132,0,0,1-.267-.935c-.143-.608-.334-1.492-.532-2.593a29.947,29.947,0,0,1-.435-8.733,15.629,15.629,0,0,1,3.292-8.063,10.439,10.439,0,0,1,1.938-1.829,3.406,3.406,0,0,1,.837-.5" fill="#263238"/>
            <g id="Grupo_184090" data-name="Grupo 184090" opacity="0.3">
              <g id="Grupo_184089" data-name="Grupo 184089">
                <g id="Grupo_184088" data-name="Grupo 184088" clip-path="url(#clip-path-9)">
                  <path id="Trazado_236873" data-name="Trazado 236873" d="M239.564,171.119a7.709,7.709,0,0,1,1.7,4.684,14.431,14.431,0,0,1-.809,4.983,1.085,1.085,0,0,0-.023.909.728.728,0,0,0,1.057.036,2.1,2.1,0,0,0,.524-1.063c-.2.226.091.61.392.591a.99.99,0,0,0,.693-.53,5.471,5.471,0,0,0,.2-4.972,14.142,14.142,0,0,0-3.009-4.172"/>
                </g>
              </g>
            </g>
            <path id="Trazado_236874" data-name="Trazado 236874" d="M180.954,161.362a25.453,25.453,0,0,1-4.73-9.263c.121-.043.966,2.129,2.274,4.678s2.562,4.513,2.456,4.585" fill="#263238"/>
            <path id="Trazado_236875" data-name="Trazado 236875" d="M177.7,163.132a5.882,5.882,0,0,1-.582-1.571,40.551,40.551,0,0,1-1.457-7.929,5.855,5.855,0,0,1-.015-1.675c.127-.01.4,2.518.974,5.6s1.2,5.541,1.08,5.577" fill="#263238"/>
            <path id="Trazado_236876" data-name="Trazado 236876" d="M189.072,136.062c.12,0,.218,10.271.218,22.937s-.1,22.94-.218,22.94-.218-10.269-.218-22.94.1-22.937.218-22.937" fill="#263238"/>
            <path id="Trazado_236877" data-name="Trazado 236877" d="M203.218,117.284a2.19,2.19,0,0,1-.278.406c-.216.3-.492.672-.832,1.135a51.04,51.04,0,0,0-2.809,4.365,26.638,26.638,0,0,0-2.978,7.084c-.259,1.4-.427,2.965-.661,4.55-.694,1.67.951,2.758,2.292,3.665l.336.227-.374.158a6.886,6.886,0,0,0-1.358.87c-.6.465-1.176.961-1.7,1.438l.069-.175c.262,3.321.833,6.457,1.209,9.3.4,2.828.756,5.369,1.059,7.514.279,2.091.507,3.793.672,5.03.066.556.12,1.007.162,1.363a2.1,2.1,0,0,1,.028.478,2.084,2.084,0,0,1-.111-.466c-.062-.352-.14-.8-.238-1.352-.2-1.232-.471-2.928-.8-5.01l-1.153-7.5c-.4-2.844-.984-5.953-1.255-9.322l-.009-.1.077-.07c.533-.489,1.11-.989,1.726-1.466a7.2,7.2,0,0,1,1.467-.93l-.038.386a9.252,9.252,0,0,1-2-1.634,2.377,2.377,0,0,1-.6-1.2,1.453,1.453,0,0,1,0-.361l.043-.3.086-.6c.242-1.587.411-3.1.694-4.577a20.02,20.02,0,0,1,1.4-3.949,33.929,33.929,0,0,1,1.7-3.2,42.233,42.233,0,0,1,2.936-4.312c.379-.484.681-.851.9-1.091a2.156,2.156,0,0,1,.343-.353" fill="#263238"/>
            <path id="Trazado_236878" data-name="Trazado 236878" d="M228.971,118.824a1.163,1.163,0,0,1,.115.35,8.547,8.547,0,0,1,.206,1.036,14.975,14.975,0,0,1-.012,3.879,36.582,36.582,0,0,1-1.254,5.608,45.74,45.74,0,0,1-2.385,6.614c-.911,2.054-1.882,3.968-2.772,5.724l-.045.089-.1.02-2.015.4.107-.313,1.3,1.543.084.1-.067.107-2.919,4.686-.832,1.285a2.08,2.08,0,0,1-.324.433,2.112,2.112,0,0,1,.233-.488l.749-1.334,2.789-4.765.017.207-1.324-1.524-.213-.246.32-.068,2.011-.427-.141.108c.874-1.765,1.833-3.678,2.738-5.718a48.478,48.478,0,0,0,2.4-6.551,39.548,39.548,0,0,0,1.334-5.536,16.729,16.729,0,0,0,.149-3.82c-.078-.9-.2-1.395-.153-1.4" fill="#263238"/>
            <g id="Grupo_184093" data-name="Grupo 184093" opacity="0.3">
              <g id="Grupo_184092" data-name="Grupo 184092">
                <g id="Grupo_184091" data-name="Grupo 184091" clip-path="url(#clip-path-10)">
                  <path id="Trazado_236879" data-name="Trazado 236879" d="M179.951,160.978c-1.038-2.962-2.467-5.947-3.738-8.817l-1.054-.667a12.687,12.687,0,0,0,.4,8.121.857.857,0,0,0,.436.576.6.6,0,0,0,.706-.5,1.739,1.739,0,0,0-.177-.953,25.062,25.062,0,0,0,2.344,3.466.99.99,0,0,0,.5.395.689.689,0,0,0,.746-.585,1.981,1.981,0,0,0-.163-1.031"/>
                </g>
              </g>
            </g>
            <g id="Grupo_184096" data-name="Grupo 184096" opacity="0.3">
              <g id="Grupo_184095" data-name="Grupo 184095">
                <g id="Grupo_184094" data-name="Grupo 184094" clip-path="url(#clip-path-11)">
                  <path id="Trazado_236880" data-name="Trazado 236880" d="M197.509,163.482c-2-5.671-4.02-11.393-4.814-17.355a10.2,10.2,0,0,1,.054-3.956,4.091,4.091,0,0,1,2.476-2.91,2.209,2.209,0,0,1-.034-2.862l2.445,2.6a3.041,3.041,0,0,0-2.7,2.294,8.906,8.906,0,0,0-.035,3.771q1.25,9.315,2.5,18.63"/>
                </g>
              </g>
            </g>
            <g id="Grupo_184099" data-name="Grupo 184099" opacity="0.3">
              <g id="Grupo_184098" data-name="Grupo 184098">
                <g id="Grupo_184097" data-name="Grupo 184097" clip-path="url(#clip-path-12)">
                  <path id="Trazado_236881" data-name="Trazado 236881" d="M224.179,143.585l3.642-12.746q-1.53,3.655-3.062,7.31a10.09,10.09,0,0,1-1.6,2.889,3.422,3.422,0,0,1-2.927,1.258l1.9,1.295c-1.364,2.195-2.7,4.6-4.067,6.8l2.932.247,3.215-5.108-.981-1.76.949-.184"/>
                </g>
              </g>
            </g>
            <path id="Trazado_236882" data-name="Trazado 236882" d="M206.091,116.306l.156-2.04,3.776,5.331,1.2,5.761,3.088-5.761,10.651-6.19v5.417l-2.035,5.263-3.969,3.064-4.546,1.992-5.4-1.01-3.266-1.848-.726-3.821Z" fill="#f5f5f5"/>
            <path id="Trazado_236883" data-name="Trazado 236883" d="M209.757,119.519a20,20,0,0,1-.552,1.942,15.669,15.669,0,0,0-.63,4.812l.039.823-.437-.691-.265-.421a37.7,37.7,0,0,1-2.1-4.856c-.509-1.239-.952-1.944-.9-1.982A6.072,6.072,0,0,1,206.09,121c.62,1.212,1.17,3.016,2.2,4.759l.254.4-.4.132a13.693,13.693,0,0,1,.778-4.923,6.5,6.5,0,0,1,.837-1.855" fill="#263238"/>
            <path id="Trazado_236884" data-name="Trazado 236884" d="M224.966,116.93c.015,0,.024.074.028.219a2.574,2.574,0,0,1-.065.629,4.886,4.886,0,0,1-1.13,2.018A13.376,13.376,0,0,1,221.192,122a35.611,35.611,0,0,0-3.319,2.439,32.261,32.261,0,0,1-3.006,2.215l-.389.24.081-.452a12.387,12.387,0,0,0,.091-2.733c-.044-.833-.115-1.567-.175-2.175a13.464,13.464,0,0,1-.16-1.938,9.211,9.211,0,0,1,.409,1.906c.1.607.2,1.342.269,2.183a11.783,11.783,0,0,1-.034,2.835l-.307-.213c.95-.6,1.924-1.393,2.95-2.208a31.624,31.624,0,0,1,3.368-2.433,14.408,14.408,0,0,0,2.6-2.077,5.227,5.227,0,0,0,1.2-1.858c.158-.5.156-.8.2-.8" fill="#263238"/>
            <path id="Trazado_236885" data-name="Trazado 236885" d="M237.844,188.247a1.338,1.338,0,0,1-.34.045l-.991.063c-.865.044-2.131.088-3.729.116s-3.527.039-5.722.016c-1.1-.013-2.26-.034-3.481-.074l-1.875-.08-.97-.067-.5-.052c-.086-.013-.167-.02-.257-.04a1.113,1.113,0,0,1-.141-.033l-.082-.028a.321.321,0,0,1-.165-.188l0-.047.006-.029c.731-3.3,1.531-6.916,2.37-10.708.159-.713.317-1.419.471-2.112l.033-.146.148-.022c6.534-.959,12.49-1.938,16.7-3.7l-.1.172-.977-7.021c-.1-.8-.182-1.433-.243-1.916a3.675,3.675,0,0,1-.053-.673,3.586,3.586,0,0,1,.146.659c.083.479.192,1.112.328,1.9.272,1.705.653,4.085,1.119,7l.019.123-.115.05c-4.256,1.842-10.227,2.86-16.768,3.828l.18-.167c-.154.694-.312,1.4-.47,2.112-.85,3.79-1.661,7.4-2.4,10.7l-.179-.047c5.226.237,9.793.334,12.971.337l3.727,0h.991a1.4,1.4,0,0,1,.343.022" fill="#263238"/>
            <path id="Trazado_236886" data-name="Trazado 236886" d="M240.524,155.647l-7.229,17.54-10.644,1.889-2.856,12.817,7.031.407-.052.469-27.591.786,11.674-33.908Z" fill="#455a64"/>
            <path id="Trazado_236887" data-name="Trazado 236887" d="M206.966,149.837l3.891,5.81-11.674,33.907-3.8-6.5Z" fill="#455a64"/>
            <path id="Trazado_236888" data-name="Trazado 236888" d="M240.524,155.647l-4.262-4.138-29.3-1.672,3.891,5.81Z" fill="#ebebeb"/>
            <path id="Trazado_236889" data-name="Trazado 236889" d="M210.857,155.647c.114.039-2.408,7.662-5.631,17.024s-5.929,16.923-6.043,16.884,2.407-7.661,5.632-17.026,5.928-16.921,6.042-16.882" fill="#263238"/>
            <path id="Trazado_236890" data-name="Trazado 236890" d="M222.254,176.043l-5.054-.436a26.18,26.18,0,0,0-3.244-4.381c-1.287-1.133-7.933-4.314-7.933-4.314a1.836,1.836,0,0,0,0,2.333,28.939,28.939,0,0,0,3.58,2.292,1.813,1.813,0,0,1-2.068,2.286c-1.947-.357-4.214-.761-4.513-.761-.333,0-2.277-1.839-3.7-3.234a1.212,1.212,0,0,0-2.042,1.11.6.6,0,0,0,.171.288s-2.051-.073-.221,2.684c0,0-.423,2.545,1.078,3.711,0,0,.648,3.075,1.613,4.135s10.39,3.075,10.39,3.075l9.82.953Z" fill="#b78876"/>
            <path id="Trazado_236891" data-name="Trazado 236891" d="M206.692,176.742a5.653,5.653,0,0,1-1.687.041,8.836,8.836,0,0,1-3.963-1.041,8.223,8.223,0,0,1-2.761-3.03,5.583,5.583,0,0,1-.719-1.526,7.747,7.747,0,0,1,.98,1.362,9.174,9.174,0,0,0,2.722,2.82,10.042,10.042,0,0,0,3.77,1.109,7.648,7.648,0,0,1,1.658.265" fill="#aa6550"/>
            <path id="Trazado_236892" data-name="Trazado 236892" d="M205.72,178.927a3.169,3.169,0,0,1-1.54.12,10.99,10.99,0,0,1-1.662-.241,5.222,5.222,0,0,1-1.943-.793,8.987,8.987,0,0,1-1.445-1.485l-1.036-1.291a5.383,5.383,0,0,1-.876-1.26,5.416,5.416,0,0,1,1.109,1.06c.321.343.7.762,1.109,1.232a10.261,10.261,0,0,0,1.4,1.4,5.3,5.3,0,0,0,1.778.751,15.3,15.3,0,0,0,1.6.325c.923.144,1.5.124,1.507.186" fill="#aa6550"/>
            <path id="Trazado_236893" data-name="Trazado 236893" d="M204.4,181.355c-.028.174-1.714-.181-3.705-.737a1.706,1.706,0,0,1-.729-.442,5.824,5.824,0,0,1-.513-.521,7.078,7.078,0,0,1-.729-.985c-.365-.6-.466-1.031-.414-1.049s.255.346.668.875a10.669,10.669,0,0,0,.77.887,6.831,6.831,0,0,0,.5.472,1.387,1.387,0,0,0,.555.341c1.018.273,1.909.559,2.56.769a4.651,4.651,0,0,1,1.039.39" fill="#aa6550"/>
            <path id="Trazado_236894" data-name="Trazado 236894" d="M84.771,207.969l-2.022,157H173.08V210.11Z" fill="#f5f5f5"/>
            <path id="Trazado_236895" data-name="Trazado 236895" d="M133.435,209.148l-.8,155.822H173.08V210.109Z" fill="#e0e0e0"/>
            <path id="Trazado_236896" data-name="Trazado 236896" d="M87.611,210.795v32.112H130.4V212.312Z" fill="#e0e0e0"/>
            <path id="Trazado_236897" data-name="Trazado 236897" d="M102.361,219.628v4.743h13.091V219.2Z" fill="#f5f5f5"/>
            <rect id="Rectángulo_64616" data-name="Rectángulo 64616" width="13.52" height="1.94" transform="translate(102.361 228.36)" fill="#f5f5f5"/>
            <path id="Trazado_236898" data-name="Trazado 236898" d="M87.611,323.323v32.112H130.4V324.841Z" fill="#e0e0e0"/>
            <path id="Trazado_236899" data-name="Trazado 236899" d="M102.361,332.158V336.9h13.091v-5.175Z" fill="#f5f5f5"/>
            <rect id="Rectángulo_64617" data-name="Rectángulo 64617" width="13.52" height="1.94" transform="translate(102.361 340.89)" fill="#f5f5f5"/>
            <path id="Trazado_236900" data-name="Trazado 236900" d="M87.611,246.994v32.112H130.4V248.512Z" fill="#e0e0e0"/>
            <path id="Trazado_236901" data-name="Trazado 236901" d="M102.361,255.829v4.744h13.091V255.4Z" fill="#f5f5f5"/>
            <rect id="Rectángulo_64618" data-name="Rectángulo 64618" width="13.52" height="1.94" transform="translate(102.361 264.561)" fill="#f5f5f5"/>
            <rect id="Rectángulo_64619" data-name="Rectángulo 64619" width="42.787" height="32.112" transform="translate(87.053 285.445)" fill="#e0e0e0"/>
            <path id="Trazado_236902" data-name="Trazado 236902" d="M102.092,299.917v4.459H114.4v-4.864Z" fill="#f5f5f5"/>
            <rect id="Rectángulo_64620" data-name="Rectángulo 64620" width="12.709" height="1.824" transform="translate(102.092 308.124)" fill="#f5f5f5"/>
            <path id="Trazado_236903" data-name="Trazado 236903" d="M62.015,205.394a16.76,16.76,0,1,0-16.761,16.761,16.761,16.761,0,0,0,16.761-16.761" fill="#fff"/>
          </g>
        </g>
        <g id="Grupo_184103" data-name="Grupo 184103">
          <g id="Grupo_184102" data-name="Grupo 184102" clip-path="url(#clip-path-13)">
            <path id="Trazado_236904" data-name="Trazado 236904" d="M59.279,223.215v-2.3a9.407,9.407,0,0,0-7.63-9.238c-.1-.02-.836-.03-1.89-.034.066-.1.138-.192.2-.29a1.594,1.594,0,0,1-1.292-1.566v-1.827a5.988,5.988,0,0,0,1.064-.775,5.655,5.655,0,0,0,1.865-4.159l-.011-2.877.712-.249a1.068,1.068,0,0,0,.712-1V195.4a1.82,1.82,0,0,0-1.82-1.82h-.06a.614.614,0,0,1-.614-.615,1.821,1.821,0,0,0-1.818-1.823H42.9a4.668,4.668,0,0,0-4.668,4.668V198.9a1.067,1.067,0,0,0,.712,1.006l.7.245.014,2.928a5.648,5.648,0,0,0,1.9,4.143,6.341,6.341,0,0,0,1.013.714v1.853a1.6,1.6,0,0,1-1.292,1.565l.233.312c-1.149.006-1.92.012-1.92.012a9.408,9.408,0,0,0-7.629,9.238v2.3a1.172,1.172,0,0,0,.738,2.085H53.779c-.012,0-.023,0-.035,0h4.8a1.171,1.171,0,0,0,.739-2.084" fill="#43a99b"/>
          </g>
        </g>
        <g id="Grupo_184105" data-name="Grupo 184105">
          <g id="Grupo_184104" data-name="Grupo 184104" clip-path="url(#clip-path)">
            <path id="Trazado_236906" data-name="Trazado 236906" d="M79.572,224.372a7.174,7.174,0,1,0-7.174,7.174,7.174,7.174,0,0,0,7.174-7.174" fill="#fff"/>
          </g>
        </g>
        <g id="Grupo_184107" data-name="Grupo 184107">
          <g id="Grupo_184106" data-name="Grupo 184106" clip-path="url(#clip-path-15)">
            <path id="Trazado_236907" data-name="Trazado 236907" d="M78.4,232v-.985a4.025,4.025,0,0,0-3.266-3.954c-.044-.009-.358-.013-.809-.015.028-.042.059-.082.087-.124a.682.682,0,0,1-.554-.67v-.782a2.529,2.529,0,0,0,.456-.332,2.418,2.418,0,0,0,.8-1.781l0-1.231.305-.106a.457.457,0,0,0,.305-.431v-1.495a.779.779,0,0,0-.779-.779h-.025a.264.264,0,0,1-.264-.263.779.779,0,0,0-.777-.781H71.39a2,2,0,0,0-2,2v1.322a.46.46,0,0,0,.305.431l.3.105,0,1.253a2.415,2.415,0,0,0,.814,1.773,2.665,2.665,0,0,0,.433.306v.793a.682.682,0,0,1-.553.67l.1.133-.822.006a4.025,4.025,0,0,0-3.266,3.954V232a.5.5,0,0,0,.316.893H78.084A.5.5,0,0,0,78.4,232" fill="#8c5be1"/>
          </g>
        </g>
      </g>
    </g>
  </g>
</svg>
