<svg id="Grupo_154335" data-name="Grupo 154335" xmlns="http://www.w3.org/2000/svg" xmlns:xlink="http://www.w3.org/1999/xlink" width="122.473" height="122.479" viewBox="0 0 122.473 122.479">
  <defs>
    <clipPath id="clip-path">
      <rect id="Rectángulo_45996" data-name="Rectángulo 45996" width="122.473" height="122.479" fill="none"/>
    </clipPath>
  </defs>
  <g id="Grupo_154334" data-name="Grupo 154334" clip-path="url(#clip-path)">
    <path id="Unión_38" data-name="Unión 38" d="M3632.49,3801.906q-4.768-4.747-9.516-9.515c-.328-.33-.733-.635-.728-1.161l-.072-.019c-1.886-2.331-4.151-4.294-6.249-6.415-4.955-5.009-9.96-9.97-14.945-14.951-2.958-2.955-5.9-5.925-8.878-8.861a5.409,5.409,0,0,1-1.79-4.013q.02-29.485.014-58.97a60.046,60.046,0,0,1,37.8,13.073h0a53.733,53.733,0,0,1,9.943,9.747,60.788,60.788,0,0,1,12.452,26.86,44.346,44.346,0,0,1,.8,5.9c.013.227-.046.49.24.614v.957a2.453,2.453,0,0,0,0,1.675v4.544a1.831,1.831,0,0,0,0,1.436v1.436c-.238,1.286-.129,2.6-.314,3.892a60.711,60.711,0,0,1-13.609,30.49c-.941,1.138-2.044,2.124-2.924,3.313a1.811,1.811,0,0,1-.939.708,1.066,1.066,0,0,1-.116.006C3633.128,3802.65,3632.823,3802.238,3632.49,3801.906Z" transform="translate(-3529.09 -3697.982)" fill="#20bdfc" stroke="rgba(0,0,0,0)" stroke-miterlimit="10" stroke-width="1"/>
    <path id="Unión_37" data-name="Unión 37" d="M3655.364,3820.479a1.3,1.3,0,0,0-1.2,0h-5.5a1.829,1.829,0,0,0-1.435,0h-.718a23.193,23.193,0,0,0-4.406-.693,60.652,60.652,0,0,1-28.572-12.533,54.987,54.987,0,0,1-10.117-10.218,61.216,61.216,0,0,1-7.447-63.54,61.65,61.65,0,0,1,41.758-33.945,53.525,53.525,0,0,1,13.816-1.533c.5.63.322,1.377.322,2.077q.015,27.809-.022,55.62a7.271,7.271,0,0,0,2.31,5.613q11.465,11.361,22.841,22.814c1.826,1.839,3.677,3.651,5.514,5.478.439.437.961.855.886,1.587a.388.388,0,0,1,.216.07l11.19,11.266c.185.434-.136.671-.385.908a61.887,61.887,0,0,1-32.657,16.564c-1.718.3-3.475.195-5.2.465Z" transform="translate(-3590.31 -3698)" fill="#25e0ac" stroke="rgba(0,0,0,0)" stroke-miterlimit="10" stroke-width="1"/>
    <path id="Trazado_196579" data-name="Trazado 196579" d="M207.436,98.59a1.378,1.378,0,0,1,0-1.675Z" transform="translate(-84.962 -39.749)" fill="#e273a3"/>
    <path id="Trazado_196580" data-name="Trazado 196580" d="M207.444,108.9a1.082,1.082,0,0,1,0-1.436Z" transform="translate(-84.97 -44.074)" fill="#e06c9e"/>
    <path id="Trazado_196581" data-name="Trazado 196581" d="M96.5,207.453a1.078,1.078,0,0,1,1.436,0Z" transform="translate(-39.578 -84.973)" fill="#a4f4bf"/>
    <path id="Trazado_196582" data-name="Trazado 196582" d="M108.26,207.458a.8.8,0,0,1,1.2,0Z" transform="translate(-44.402 -84.979)" fill="#a0f4bc"/>
    <path id="Trazado_196585" data-name="Trazado 196585" d="M62.616,56.474A15.914,15.914,0,1,1,46.861,40.541,15.824,15.824,0,0,1,62.616,56.474" transform="translate(-12.628 -16.628)" fill="#fff"/>
    <path id="Trazado_196586" data-name="Trazado 196586" d="M51.888,105.014c2.148,0,4.3-.009,6.444,0,1.235.008,2,.665,2.03,1.695a1.8,1.8,0,0,1-2,1.88q-6.5.032-13.007,0a1.814,1.814,0,0,1-1.988-1.775c-.011-1.066.8-1.789,2.073-1.8,2.148-.016,4.3,0,6.444,0" transform="translate(-17.788 -43.069)" fill="#126783"/>
    <path id="Trazado_196587" data-name="Trazado 196587" d="M53.539,122.025c-1.355,0-2.712.023-4.066-.007a1.762,1.762,0,0,1-1.9-1.725,1.857,1.857,0,0,1,1.848-1.834q4.185-.067,8.371,0a1.846,1.846,0,0,1,1.852,1.832,1.8,1.8,0,0,1-1.917,1.723c-1.4.03-2.791.007-4.186.007" transform="translate(-19.511 -48.572)" fill="#126783"/>
    <path id="Trazado_196588" data-name="Trazado 196588" d="M138.764,40.528a15.916,15.916,0,1,1-15.928,15.924,15.907,15.907,0,0,1,15.928-15.924" transform="translate(-50.381 -16.622)" fill="#fff"/>
    <path id="Trazado_196589" data-name="Trazado 196589" d="M143.926,105.019c2.108,0,4.215-.009,6.321,0,1.351.008,2.2.74,2.165,1.835-.031,1.055-.843,1.742-2.141,1.746q-6.381.017-12.764,0a1.837,1.837,0,0,1-2.079-1.923c.032-1.008.816-1.652,2.054-1.657,2.148-.009,4.295,0,6.442,0" transform="translate(-55.545 -43.072)" fill="#126783"/>
    <path id="Trazado_196590" data-name="Trazado 196590" d="M145.569,122.01c-1.355,0-2.71.019-4.065-.006a1.833,1.833,0,0,1-1.967-1.676,1.925,1.925,0,0,1,1.829-1.874q4.243-.088,8.487,0a1.922,1.922,0,0,1,1.775,1.925,1.784,1.784,0,0,1-1.994,1.627c-1.355.02-2.71,0-4.065,0" transform="translate(-57.23 -48.565)" fill="#126783"/>
    <path id="Trazado_196591" data-name="Trazado 196591" d="M52.142,68.926a1.845,1.845,0,0,1-1.381-.6c-.9-.9-1.819-1.781-2.693-2.7A1.756,1.756,0,0,1,48,62.982a1.813,1.813,0,0,1,2.569.08c.559.455.9,1.47,1.649,1.3.594-.132,1.045-.92,1.552-1.423.9-.9,1.784-1.815,2.706-2.692a1.788,1.788,0,1,1,2.5,2.532c-1.808,1.846-3.649,3.661-5.475,5.489a1.957,1.957,0,0,1-1.358.655" transform="translate(-19.454 -24.444)" fill="#126783"/>
    <path id="Trazado_196592" data-name="Trazado 196592" d="M141.709,57.705a2.707,2.707,0,0,1,1.807.967c.772.724,1.419,2.079,2.325,2.013.792-.058,1.5-1.3,2.239-2.024.114-.111.222-.229.342-.335a1.789,1.789,0,1,1,2.494,2.556c-.321.355-.671.682-1.009,1.02-1.586,1.586-1.586,1.586.038,3.211.31.31.629.612.927.934a1.793,1.793,0,0,1,.161,2.656c-.777.8-1.779.746-2.735-.173-.661-.635-1.324-1.273-1.938-1.952-.4-.445-.691-.514-1.122-.027-.58.656-1.225,1.255-1.854,1.866-1.048,1.02-2,1.122-2.818.32-.841-.821-.761-1.768.253-2.811a17.7,17.7,0,0,1,1.7-1.678c.763-.6.6-1-.04-1.56a23.6,23.6,0,0,1-2.023-2.034,1.58,1.58,0,0,1-.276-1.883,1.857,1.857,0,0,1,1.528-1.068" transform="translate(-57.415 -23.667)" fill="#126783"/>
  </g>
</svg>
