<svg id="Grupo_184069" data-name="Grupo 184069" xmlns="http://www.w3.org/2000/svg" xmlns:xlink="http://www.w3.org/1999/xlink" width="292.909" height="370.666" viewBox="0 0 292.909 370.666">
  <defs>
    <clipPath id="clip-path">
      <rect id="Rectángulo_64600" data-name="Rectángulo 64600" width="292.909" height="370.666" fill="none"/>
    </clipPath>
    <clipPath id="clip-path-3">
      <rect id="Rectángulo_64570" data-name="Rectángulo 64570" width="17.076" height="20.794" transform="translate(179.468 22.705)" fill="#eeac3a"/>
    </clipPath>
    <clipPath id="clip-path-4">
      <rect id="Rectángulo_64571" data-name="Rectángulo 64571" width="17.142" height="20.689" transform="translate(198.308 22.758)" fill="none"/>
    </clipPath>
    <clipPath id="clip-path-5">
      <rect id="Rectángulo_64584" data-name="Rectángulo 64584" width="3.957" height="29.184" transform="translate(191.121 94.212)" fill="#43a99b"/>
    </clipPath>
    <clipPath id="clip-path-6">
      <rect id="Rectángulo_64586" data-name="Rectángulo 64586" width="3.957" height="42.488" transform="translate(206.401 80.908)" fill="#43a99b"/>
    </clipPath>
    <clipPath id="clip-path-7">
      <rect id="Rectángulo_64588" data-name="Rectángulo 64588" width="3.957" height="22.739" transform="translate(221.68 100.657)" fill="#43a99b"/>
    </clipPath>
    <clipPath id="clip-path-8">
      <rect id="Rectángulo_64590" data-name="Rectángulo 64590" width="3.957" height="32.509" transform="translate(236.96 90.887)" fill="#43a99b"/>
    </clipPath>
    <clipPath id="clip-path-9">
      <rect id="Rectángulo_64592" data-name="Rectángulo 64592" width="3.957" height="26.04" transform="translate(252.239 97.356)" fill="#43a99b"/>
    </clipPath>
    <clipPath id="clip-path-10">
      <rect id="Rectángulo_64594" data-name="Rectángulo 64594" width="21.814" height="17.263" transform="translate(195.344 348.983)" fill="none"/>
    </clipPath>
    <clipPath id="clip-path-11">
      <rect id="Rectángulo_64595" data-name="Rectángulo 64595" width="14.174" height="10.804" transform="translate(199.609 344.294)" fill="none"/>
    </clipPath>
    <clipPath id="clip-path-12">
      <rect id="Rectángulo_64596" data-name="Rectángulo 64596" width="27.547" height="2.787" transform="translate(131.689 364.981)" fill="none"/>
    </clipPath>
    <clipPath id="clip-path-13">
      <rect id="Rectángulo_64597" data-name="Rectángulo 64597" width="16.473" height="2.075" transform="translate(142.763 359.605)" fill="none"/>
    </clipPath>
    <clipPath id="clip-path-14">
      <rect id="Rectángulo_64598" data-name="Rectángulo 64598" width="37.847" height="42.246" transform="translate(199.005 213.457)" fill="none"/>
    </clipPath>
  </defs>
  <g id="Grupo_184068" data-name="Grupo 184068" clip-path="url(#clip-path)">
    <g id="Grupo_184067" data-name="Grupo 184067">
      <g id="Grupo_184066" data-name="Grupo 184066" clip-path="url(#clip-path)">
        <path id="Trazado_236612" data-name="Trazado 236612" d="M289.543,370.666H3.366a3.366,3.366,0,0,1,0-6.733H289.543a3.366,3.366,0,0,1,0,6.733" fill="#afafaf"/>
        <rect id="Rectángulo_64569" data-name="Rectángulo 64569" width="230.262" height="151.032" transform="translate(50.518 0.225)" fill="#fafafa"/>
        <path id="Trazado_236613" data-name="Trazado 236613" d="M280.78,151.257c0-1.454-.07-58.916-.178-151.032L280.78.4,50.536.449h-.018l.224-.224c-.006,53.711-.012,104.825-.018,151.032l-.206-.206,230.262.206-230.262.206h-.206v-.206C50.306,105.05,50.3,53.936,50.294.225V0h.242L280.78.046h.179V.225c-.108,92.116-.176,149.579-.178,151.032" fill="#263238"/>
        <path id="Trazado_236614" data-name="Trazado 236614" d="M120.89,83.628l22.648.312c-.173,12.07-10.343,21.907-22.648,21.907h-.133Z" fill="#455a64"/>
        <path id="Trazado_236615" data-name="Trazado 236615" d="M158.338,114.294a2.19,2.19,0,0,1-.484.039l-1.385.036-5.06.059h-.064l-.041-.052-7.472-9.413c-2.208-2.817-4.273-5.45-6.023-7.68l.117.056-6.665-.062-1.865-.041a3.672,3.672,0,0,1-.659-.045,3.6,3.6,0,0,1,.659-.046l1.865-.041,6.665-.062H138l.046.058,6.062,7.649,7.409,9.462-.105-.051,5.06.059,1.385.036a2.271,2.271,0,0,1,.484.039" fill="#263238"/>
        <path id="Trazado_236616" data-name="Trazado 236616" d="M166.462,116.9c0,.1-3.281.173-7.327.173s-7.329-.077-7.329-.173,3.281-.173,7.329-.173,7.327.077,7.327.173" fill="#263238"/>
        <path id="Trazado_236617" data-name="Trazado 236617" d="M166.462,119.619c0,.1-3.281.174-7.327.174s-7.329-.078-7.329-.174,3.281-.173,7.329-.173,7.327.077,7.327.173" fill="#263238"/>
        <path id="Trazado_236618" data-name="Trazado 236618" d="M117.307,80.4l-.318,22.216c-12.3-.169-22.332-10.145-22.332-22.216,0-12.189,10.224-22.218,22.65-22.218s22.65,10.029,22.65,22.218Z" fill="#8c5be1"/>
        <path id="Trazado_236619" data-name="Trazado 236619" d="M108.464,73.139a1.44,1.44,0,0,1-.393.092l-1.127.18-4.068.571-.067.009-.051-.049-5.426-5.279c-2.607-2.557-4.953-4.886-6.64-6.584-.8-.82-1.471-1.5-1.984-2.023a5.907,5.907,0,0,1-.694-.776,6,6,0,0,1,.789.679L90.864,61.9c1.73,1.653,4.1,3.954,6.711,6.511l5.383,5.325-.118-.04,4.084-.45,1.136-.1a1.454,1.454,0,0,1,.4-.008" fill="#263238"/>
        <path id="Trazado_236620" data-name="Trazado 236620" d="M82.278,58.3c0,.1-3.281.173-7.327.173s-7.329-.077-7.329-.173,3.281-.174,7.329-.174,7.327.078,7.327.174" fill="#263238"/>
        <path id="Trazado_236621" data-name="Trazado 236621" d="M82.278,61.016c0,.1-3.281.174-7.327.174s-7.329-.078-7.329-.174,3.281-.173,7.329-.173,7.327.077,7.327.173" fill="#263238"/>
        <path id="Trazado_236622" data-name="Trazado 236622" d="M196.544,36.512l-.09-13.806a17.613,17.613,0,0,0-11.39,4.441,16.327,16.327,0,0,0-5.489,14.3,19.859,19.859,0,0,0,.322,2.005c0,.017.006.033.009.049h0l16.636-3.743Z" fill="#8c5be1"/>
        <g id="Grupo_184032" data-name="Grupo 184032" opacity="0.3">
          <g id="Grupo_184031" data-name="Grupo 184031">
            <g id="Grupo_184030" data-name="Grupo 184030" clip-path="url(#clip-path-3)">
              <path id="Trazado_236623" data-name="Trazado 236623" d="M196.544,36.512l-.09-13.806a17.613,17.613,0,0,0-11.39,4.441,16.327,16.327,0,0,0-5.489,14.3,19.859,19.859,0,0,0,.322,2.005c0,.017.006.033.009.049h0l16.636-3.743Z" fill="#eeac3a"/>
            </g>
          </g>
        </g>
        <path id="Trazado_236624" data-name="Trazado 236624" d="M213.689,32.261a16.379,16.379,0,0,0-13.427-9.4c-.174-.017-.35-.033-.527-.046-.112-.008-.222-.019-.335-.025q-.493-.027-1-.029l-.046,0h-.044v0l.09,13.807.021,3.244,16.641,3.631.02,0a16.442,16.442,0,0,0,.369-3.579,17.9,17.9,0,0,0-1.76-7.606" fill="#8c5be1"/>
        <g id="Grupo_184035" data-name="Grupo 184035" opacity="0.3">
          <g id="Grupo_184034" data-name="Grupo 184034">
            <g id="Grupo_184033" data-name="Grupo 184033" clip-path="url(#clip-path-4)">
              <path id="Trazado_236625" data-name="Trazado 236625" d="M213.689,32.261a16.379,16.379,0,0,0-13.427-9.4c-.174-.017-.35-.033-.527-.046-.112-.008-.222-.019-.335-.025q-.493-.027-1-.029l-.046,0h-.044v0l.09,13.807.021,3.244,16.641,3.631.02,0a16.442,16.442,0,0,0,.369-3.579,17.9,17.9,0,0,0-1.76-7.606"/>
            </g>
          </g>
        </g>
        <path id="Trazado_236626" data-name="Trazado 236626" d="M197.435,41.479,180.8,45.222a17.052,17.052,0,0,0,33.3-.112l-16.641-3.631" fill="#43a99b"/>
        <path id="Trazado_236627" data-name="Trazado 236627" d="M262.191,38.994c0,.124-8.6.224-19.209.224s-19.21-.1-19.21-.224,8.6-.224,19.21-.224,19.209.1,19.209.224" fill="#263238"/>
        <path id="Trazado_236628" data-name="Trazado 236628" d="M262.191,34.615c0,.124-8.6.224-19.209.224s-19.21-.1-19.21-.224,8.6-.224,19.21-.224,19.209.1,19.209.224" fill="#263238"/>
        <path id="Trazado_236629" data-name="Trazado 236629" d="M262.191,30.235c0,.124-8.6.224-19.209.224s-19.21-.1-19.21-.224,8.6-.224,19.21-.224,19.209.1,19.209.224" fill="#263238"/>
        <path id="Trazado_236630" data-name="Trazado 236630" d="M262.191,43.068c0,.124-8.6.224-19.209.224s-19.21-.1-19.21-.224,8.6-.224,19.21-.224,19.209.1,19.209.224" fill="#263238"/>
        <path id="Trazado_236631" data-name="Trazado 236631" d="M250.294,47.5c0,.124-5.908.224-13.193.224s-13.195-.1-13.195-.224,5.907-.224,13.195-.224,13.193.1,13.193.224" fill="#263238"/>
        <rect id="Rectángulo_64572" data-name="Rectángulo 64572" width="3.957" height="44.194" transform="translate(183.481 79.202)" fill="#8c5be1"/>
        <rect id="Rectángulo_64573" data-name="Rectángulo 64573" width="3.957" height="29.184" transform="translate(191.121 94.212)" fill="#8c5be1"/>
        <rect id="Rectángulo_64574" data-name="Rectángulo 64574" width="3.957" height="38.926" transform="translate(198.761 84.694)" fill="#8c5be1"/>
        <rect id="Rectángulo_64575" data-name="Rectángulo 64575" width="3.957" height="42.488" transform="translate(206.401 80.908)" fill="#8c5be1"/>
        <rect id="Rectángulo_64576" data-name="Rectángulo 64576" width="3.957" height="28.286" transform="translate(214.041 95.11)" fill="#8c5be1"/>
        <rect id="Rectángulo_64577" data-name="Rectángulo 64577" width="3.957" height="22.739" transform="translate(221.68 100.657)" fill="#8c5be1"/>
        <rect id="Rectángulo_64578" data-name="Rectángulo 64578" width="3.957" height="39.658" transform="translate(229.32 83.738)" fill="#8c5be1"/>
        <rect id="Rectángulo_64579" data-name="Rectángulo 64579" width="3.957" height="32.508" transform="translate(236.96 90.888)" fill="#8c5be1"/>
        <rect id="Rectángulo_64580" data-name="Rectángulo 64580" width="3.957" height="38.222" transform="translate(244.6 85.174)" fill="#8c5be1"/>
        <rect id="Rectángulo_64581" data-name="Rectángulo 64581" width="3.957" height="26.04" transform="translate(252.239 97.356)" fill="#8c5be1"/>
        <rect id="Rectángulo_64582" data-name="Rectángulo 64582" width="3.957" height="30.995" transform="translate(259.879 92.401)" fill="#8c5be1"/>
        <path id="Trazado_236632" data-name="Trazado 236632" d="M265.452,126.474c0,.09-18.772.163-41.92.163s-41.925-.073-41.925-.163,18.767-.163,41.925-.163,41.92.073,41.92.163" fill="#263238"/>
        <path id="Trazado_236633" data-name="Trazado 236633" d="M189.126,129.952a26.531,26.531,0,0,1-5.873,0,26.533,26.533,0,0,1,5.873,0" fill="#263238"/>
        <path id="Trazado_236634" data-name="Trazado 236634" d="M198.867,130.13a37.864,37.864,0,0,1-7.019,0,37.86,37.86,0,0,1,7.019,0" fill="#263238"/>
        <path id="Trazado_236635" data-name="Trazado 236635" d="M207.176,130.13a37.864,37.864,0,0,1-7.019,0,37.86,37.86,0,0,1,7.019,0" fill="#263238"/>
        <path id="Trazado_236636" data-name="Trazado 236636" d="M215.484,130.13a37.864,37.864,0,0,1-7.019,0,37.86,37.86,0,0,1,7.019,0" fill="#263238"/>
        <path id="Trazado_236637" data-name="Trazado 236637" d="M223.793,130.13a37.864,37.864,0,0,1-7.019,0,37.86,37.86,0,0,1,7.019,0" fill="#263238"/>
        <path id="Trazado_236638" data-name="Trazado 236638" d="M232.1,130.13a37.875,37.875,0,0,1-7.02,0,37.871,37.871,0,0,1,7.02,0" fill="#263238"/>
        <path id="Trazado_236639" data-name="Trazado 236639" d="M240.41,130.13a37.864,37.864,0,0,1-7.019,0,37.86,37.86,0,0,1,7.019,0" fill="#263238"/>
        <path id="Trazado_236640" data-name="Trazado 236640" d="M248.719,130.13a37.864,37.864,0,0,1-7.019,0,37.86,37.86,0,0,1,7.019,0" fill="#263238"/>
        <path id="Trazado_236641" data-name="Trazado 236641" d="M257.027,130.13a37.864,37.864,0,0,1-7.019,0,37.86,37.86,0,0,1,7.019,0" fill="#263238"/>
        <path id="Trazado_236642" data-name="Trazado 236642" d="M265.336,130.13a37.864,37.864,0,0,1-7.019,0,37.86,37.86,0,0,1,7.019,0" fill="#263238"/>
        <g id="Grupo_184038" data-name="Grupo 184038" style="isolation: isolate">
          <g id="Grupo_184037" data-name="Grupo 184037">
            <g id="Grupo_184036" data-name="Grupo 184036" clip-path="url(#clip-path-5)">
              <rect id="Rectángulo_64583" data-name="Rectángulo 64583" width="3.957" height="29.184" transform="translate(191.121 94.212)" fill="#43a99b"/>
            </g>
          </g>
        </g>
        <g id="Grupo_184041" data-name="Grupo 184041" style="isolation: isolate">
          <g id="Grupo_184040" data-name="Grupo 184040">
            <g id="Grupo_184039" data-name="Grupo 184039" clip-path="url(#clip-path-6)">
              <rect id="Rectángulo_64585" data-name="Rectángulo 64585" width="3.957" height="42.488" transform="translate(206.401 80.908)" fill="#43a99b"/>
            </g>
          </g>
        </g>
        <g id="Grupo_184044" data-name="Grupo 184044" style="isolation: isolate">
          <g id="Grupo_184043" data-name="Grupo 184043">
            <g id="Grupo_184042" data-name="Grupo 184042" clip-path="url(#clip-path-7)">
              <rect id="Rectángulo_64587" data-name="Rectángulo 64587" width="3.957" height="22.739" transform="translate(221.68 100.657)" fill="#43a99b"/>
            </g>
          </g>
        </g>
        <g id="Grupo_184047" data-name="Grupo 184047" style="isolation: isolate">
          <g id="Grupo_184046" data-name="Grupo 184046">
            <g id="Grupo_184045" data-name="Grupo 184045" clip-path="url(#clip-path-8)">
              <rect id="Rectángulo_64589" data-name="Rectángulo 64589" width="3.957" height="32.508" transform="translate(236.96 90.888)" fill="#43a99b"/>
            </g>
          </g>
        </g>
        <g id="Grupo_184050" data-name="Grupo 184050" style="isolation: isolate">
          <g id="Grupo_184049" data-name="Grupo 184049">
            <g id="Grupo_184048" data-name="Grupo 184048" clip-path="url(#clip-path-9)">
              <rect id="Rectángulo_64591" data-name="Rectángulo 64591" width="3.957" height="26.04" transform="translate(252.239 97.356)" fill="#43a99b"/>
            </g>
          </g>
        </g>
        <path id="Trazado_236643" data-name="Trazado 236643" d="M78.494,28.612A3.809,3.809,0,1,1,74.685,24.8a3.809,3.809,0,0,1,3.809,3.809" fill="#8c5be1"/>
        <path id="Trazado_236644" data-name="Trazado 236644" d="M143.981,25.607c0,.125-12.843.225-28.682.225s-28.686-.1-28.686-.225,12.841-.224,28.686-.224,28.682.1,28.682.224" fill="#8c5be1"/>
        <path id="Trazado_236645" data-name="Trazado 236645" d="M109.644,30.214a3.448,3.448,0,0,1-.889.087c-.572.027-1.4.051-2.423.072-2.046.04-4.872.065-7.993.065s-5.95-.025-8-.065c-1.023-.021-1.851-.045-2.423-.072a3.443,3.443,0,0,1-.888-.087,3.443,3.443,0,0,1,.888-.087c.572-.027,1.4-.051,2.423-.072,2.046-.04,4.873-.065,8-.065s5.947.025,7.993.065c1.023.021,1.851.045,2.423.072a3.448,3.448,0,0,1,.889.087" fill="#8c5be1"/>
        <rect id="Rectángulo_64593" data-name="Rectángulo 64593" width="65.353" height="3.179" transform="translate(103.3 235.524)" fill="#263238"/>
        <path id="Trazado_236646" data-name="Trazado 236646" d="M93.173,238.7,80.914,192.766h51.028l11.1,45.937Z" fill="#263238"/>
        <path id="Trazado_236647" data-name="Trazado 236647" d="M139.985,235.225H94.4L83.788,194.888h45.821Z" fill="#f5f5f5"/>
        <path id="Trazado_236648" data-name="Trazado 236648" d="M84.551,197.788H130.38l-.771-2.9H83.788Z" fill="#ebebeb"/>
        <path id="Trazado_236649" data-name="Trazado 236649" d="M89.5,196.338a.5.5,0,1,0,.5-.5.5.5,0,0,0-.5.5" fill="#fafafa"/>
        <path id="Trazado_236650" data-name="Trazado 236650" d="M87.775,196.338a.5.5,0,1,0,.5-.5.5.5,0,0,0-.5.5" fill="#fafafa"/>
        <path id="Trazado_236651" data-name="Trazado 236651" d="M86.051,196.338a.5.5,0,1,0,.5-.5.5.5,0,0,0-.5.5" fill="#fafafa"/>
        <path id="Trazado_236652" data-name="Trazado 236652" d="M118.991,215.463l5.018,5.741a7.09,7.09,0,0,0,3.082-5.773c-.016-4.015-3.685-7.3-8.129-7.287s-8.087,3.336-8.071,7.351Z" fill="#8c5be1"/>
        <path id="Trazado_236653" data-name="Trazado 236653" d="M118.354,216.382a11.545,11.545,0,0,1,1.432,1.436c.9.961,2.177,2.365,3.71,4.08l.173.194-.215.162a8.684,8.684,0,0,1-8.461.83,8.277,8.277,0,0,1-3.481-2.8,7.136,7.136,0,0,1-1.291-3.769l-.01-.255h.251c2.4-.013,4.39,0,5.767.019a12.36,12.36,0,0,1,2.125.1,14.964,14.964,0,0,1-2.209.17c-1.382.065-3.338.136-5.675.2l.241-.256a6.754,6.754,0,0,0,1.25,3.473,7.854,7.854,0,0,0,3.259,2.593,8.32,8.32,0,0,0,7.954-.7l-.042.355c-1.453-1.7-2.652-3.135-3.489-4.157a14.1,14.1,0,0,1-1.289-1.676" fill="#263238"/>
        <path id="Trazado_236654" data-name="Trazado 236654" d="M115.076,211.13a.454.454,0,1,0,.452-.456.455.455,0,0,0-.452.456" fill="#263238"/>
        <path id="Trazado_236655" data-name="Trazado 236655" d="M106.048,207.843a25.979,25.979,0,0,1,5.421-.307h.842l.082.082a21.367,21.367,0,0,1,3.137,3.511,21.367,21.367,0,0,1-3.536-3.109l.2.082-.723,0a25.966,25.966,0,0,1-5.424-.264" fill="#263238"/>
        <path id="Trazado_236656" data-name="Trazado 236656" d="M95.786,213.588a16.79,16.79,0,0,1-.519-2.117c-.307-1.393-.743-3.428-1.241-5.921l-.055-.273.282,0,11.342-.1c-.06-.05.535.441.283.234v.006l0,.009,0,.017.006.034.013.068.026.135.051.271.1.537q.1.537.2,1.064.2,1.055.387,2.072c.25,1.352.489,2.647.714,3.872l.057.308h-.31c-3.407-.009-6.274-.05-8.264-.09l-2.3-.061a3.335,3.335,0,0,1-.779-.063,5.151,5.151,0,0,1,.878-.069l2.351-.08c2-.056,4.808-.119,8.113-.155l-.254.307c-.238-1.222-.489-2.515-.752-3.864l-.4-2.07q-.1-.528-.2-1.063l-.1-.538-.051-.271-.026-.135-.013-.068-.006-.034,0-.017,0-.008v-.007c-.252-.208.342.282.28.232l-11.342-.009.228-.275c.43,2.41.761,4.415.987,5.837a21.9,21.9,0,0,1,.316,2.287" fill="#263238"/>
        <path id="Trazado_236657" data-name="Trazado 236657" d="M114.4,220.263a.455.455,0,1,0,.453-.456.455.455,0,0,0-.453.456" fill="#263238"/>
        <path id="Trazado_236658" data-name="Trazado 236658" d="M106.616,220.294a15.083,15.083,0,0,1,4.118-.3,15.086,15.086,0,0,1,4.122.27,15.172,15.172,0,0,1-4.119.3,15.106,15.106,0,0,1-4.121-.269" fill="#263238"/>
        <path id="Trazado_236659" data-name="Trazado 236659" d="M95.826,223.873a9.453,9.453,0,0,1-.5-1.516c-.3-1.011-.728-2.5-1.233-4.365l-.072-.263.279-.006c3.088-.056,7.2-.1,11.695-.116-.247-.192.339.261.279.215v0l0,.007,0,.012.006.024.013.05.025.1.05.194.1.39.2.772q.2.768.385,1.515l.724,2.871.085.336h-.344c-3.469-.006-6.425-.046-8.489-.088l-2.393-.065a3.227,3.227,0,0,1-.815-.069,5.282,5.282,0,0,1,.916-.075c.671-.024,1.481-.052,2.443-.084,2.075-.058,4.967-.122,8.336-.155l-.258.334c-.24-.918-.491-1.875-.749-2.864q-.193-.747-.392-1.513l-.2-.772-.1-.39-.05-.2-.025-.1-.013-.05-.006-.023,0-.013v-.01h0c-.061-.047.525.4.276.214-4.5.017-8.607.008-11.695-.024l.207-.269c.433,1.795.766,3.269.994,4.312a13.04,13.04,0,0,1,.321,1.676" fill="#263238"/>
        <path id="Trazado_236660" data-name="Trazado 236660" d="M96.685,207.984a13.42,13.42,0,0,1,3.878-.3,13.484,13.484,0,0,1,3.881.27,13.393,13.393,0,0,1-3.879.3,13.4,13.4,0,0,1-3.88-.27" fill="#263238"/>
        <path id="Trazado_236661" data-name="Trazado 236661" d="M96.78,209.254a13.543,13.543,0,0,1,3.9-.3,13.548,13.548,0,0,1,3.9.27,13.544,13.544,0,0,1-3.9.3,13.559,13.559,0,0,1-3.9-.27" fill="#263238"/>
        <path id="Trazado_236662" data-name="Trazado 236662" d="M97.012,210.479a12.672,12.672,0,0,1,3.765-.3,12.66,12.66,0,0,1,3.768.271,12.673,12.673,0,0,1-3.765.3,12.666,12.666,0,0,1-3.768-.271" fill="#263238"/>
        <path id="Trazado_236663" data-name="Trazado 236663" d="M96.914,220.191a12.212,12.212,0,0,1,3.7-.3,12.218,12.218,0,0,1,3.7.271,12.245,12.245,0,0,1-3.7.3,12.218,12.218,0,0,1-3.7-.271" fill="#263238"/>
        <path id="Trazado_236664" data-name="Trazado 236664" d="M97.373,221.6a8.952,8.952,0,0,1,3.153-.3,8.948,8.948,0,0,1,3.155.273,8.956,8.956,0,0,1-3.153.3,8.947,8.947,0,0,1-3.155-.273" fill="#263238"/>
        <path id="Trazado_236665" data-name="Trazado 236665" d="M25.906,238.552v6.025h3.945V366.551h8.095V244.577H80.909V366.551H89V244.577H275.381V366.521h8.1V244.577h3.5v-6.025Z" fill="#263238"/>
        <path id="Trazado_236666" data-name="Trazado 236666" d="M201.432,284a31.552,31.552,0,0,0,5.264.221A31.543,31.543,0,0,0,211.96,284a31.537,31.537,0,0,0-5.264-.221,31.546,31.546,0,0,0-5.264.221" fill="#263238"/>
        <path id="Trazado_236667" data-name="Trazado 236667" d="M124.76,285.246c-.158,0-.286-.063-.286-.14s.128-.14.286-.14.286.063.286.14-.128.14-.286.14" fill="#455a64"/>
        <path id="Trazado_236668" data-name="Trazado 236668" d="M176.342,176.678,146.1,145.96l-.653-3.326c-.126-.608-.252-1.287-.369-2.059a8.165,8.165,0,0,1,.047-2.706,12.285,12.285,0,0,1,.932-3.22c.509-.89-.306-1.962-1.148-1.6s-2.305,2.783-2.62,6.1-3.147-1.084-4.206-2.67-4.561-6.336-5.292-6.392c-1.071-.083-1.344,1.077-.25,2.635,1.107,1.579,4.056,6.467,3.217,6.992l-.032-.005a3.956,3.956,0,0,0-4.176,2.072c-.763,1.466-1.614,3.544-.917,4.5a54.478,54.478,0,0,0,4.821,5.106l1.012.87s26.159,37.9,31.861,39.136c3.545.765,58.363,5.313,58.363,5.313l4.135-15.1Z" fill="#b78876"/>
        <path id="Trazado_236669" data-name="Trazado 236669" d="M130.4,145.653l2.8,2.686a3.31,3.31,0,0,0,1.053.773,1,1,0,0,0,1.387-1.32,3.29,3.29,0,0,0-.644-1l-2.718-3.268" fill="#b78876"/>
        <path id="Trazado_236670" data-name="Trazado 236670" d="M132.28,143.529c.061-.05.586.469,1.386,1.35.447.507.906,1.027,1.382,1.565a5.141,5.141,0,0,1,.771,1.045,1.479,1.479,0,0,1-.076,1.553,1.369,1.369,0,0,1-1.53.351,3.081,3.081,0,0,1-1.1-.771l-1.464-1.491a6.548,6.548,0,0,1-1.248-1.479,6.6,6.6,0,0,1,1.527,1.187l1.548,1.4a2.706,2.706,0,0,0,.914.624.833.833,0,0,0,.9-.176.947.947,0,0,0,.019-.959,5.141,5.141,0,0,0-.67-.948l-1.289-1.644a6.585,6.585,0,0,1-1.075-1.608" fill="#aa6550"/>
        <path id="Trazado_236671" data-name="Trazado 236671" d="M132.39,143.7l2.8,2.686a3.31,3.31,0,0,0,1.053.773,1,1,0,0,0,1.387-1.32,3.29,3.29,0,0,0-.644-1l-2.718-3.267" fill="#b78876"/>
        <path id="Trazado_236672" data-name="Trazado 236672" d="M134.265,141.574c.061-.05.586.469,1.386,1.35l1.382,1.565a5.141,5.141,0,0,1,.771,1.045,1.479,1.479,0,0,1-.076,1.553,1.369,1.369,0,0,1-1.53.351,3.082,3.082,0,0,1-1.1-.771l-1.464-1.491a6.549,6.549,0,0,1-1.248-1.479,6.6,6.6,0,0,1,1.527,1.187l1.548,1.4a2.706,2.706,0,0,0,.914.624.833.833,0,0,0,.9-.176.947.947,0,0,0,.019-.959,5.142,5.142,0,0,0-.67-.948l-1.289-1.644a6.585,6.585,0,0,1-1.075-1.608" fill="#aa6550"/>
        <path id="Trazado_236673" data-name="Trazado 236673" d="M134.568,142.1l2.8,2.686a3.31,3.31,0,0,0,1.053.773,1,1,0,0,0,1.387-1.32,3.289,3.289,0,0,0-.644-.995l-2.718-3.267" fill="#b78876"/>
        <path id="Trazado_236674" data-name="Trazado 236674" d="M136.443,139.972c.061-.05.586.469,1.386,1.35.447.507.906,1.027,1.382,1.565a5.141,5.141,0,0,1,.771,1.045,1.479,1.479,0,0,1-.076,1.553,1.369,1.369,0,0,1-1.53.351,3.081,3.081,0,0,1-1.1-.771c-.5-.513-.99-1.009-1.465-1.491a6.559,6.559,0,0,1-1.247-1.479,6.6,6.6,0,0,1,1.527,1.187l1.548,1.4a2.706,2.706,0,0,0,.914.624.832.832,0,0,0,.9-.176.947.947,0,0,0,.019-.959,5.143,5.143,0,0,0-.67-.948l-1.289-1.644a6.586,6.586,0,0,1-1.075-1.608" fill="#aa6550"/>
        <path id="Trazado_236675" data-name="Trazado 236675" d="M138.989,146.743c-.007-.09.693-.231,1.7.08l-.322.276a4.792,4.792,0,0,1-.072-1.922,4.887,4.887,0,0,1,1.048-2.337c.431-.5.795-.7.84-.648a10.009,10.009,0,0,0-1.324,3.077,5.745,5.745,0,0,0-.017,1.733l.06.439-.382-.163c-.875-.373-1.539-.423-1.535-.535" fill="#aa6550"/>
        <path id="Trazado_236676" data-name="Trazado 236676" d="M215.947,130.626l.129,42.078-16.407.783-.664-10.086s-7.915,1.2-9.57-4.752c-1.056-3.8-.792-33.2-.792-33.2Z" fill="#b78876"/>
        <path id="Trazado_236677" data-name="Trazado 236677" d="M184.567,129.6c1.216,2.514,7.006,7.115,7.006,7.115l2.616,7.01c2.272-1.779,5.322-1.677,5.9,2.316.417,2.885-3.17,3.468-3.17,3.468,2.088,3.554,3.5,6.428,6.545,9.808,3.291,3.659,5.134,4.027,8.7,4.087H216.1s8.054-6.729,6.462-24.452-17.525-12.553-21.328-16.981c-6.194-7.212-20.728-.765-16.669,7.629" fill="#263238"/>
        <path id="Trazado_236678" data-name="Trazado 236678" d="M221.669,153.768a5.64,5.64,0,0,1-1.948-.089,10.122,10.122,0,0,1-4.7-2.419,25.536,25.536,0,0,1-4.752-6.284c-1.533-2.5-3.207-5.427-6.029-7.374-2.854-1.909-6.209-2.3-9.09-2.888a17.152,17.152,0,0,1-7.34-2.793,7.881,7.881,0,0,1-2.94-4.356,4.517,4.517,0,0,1-.08-1.946,6.637,6.637,0,0,0,.166,1.925,7.894,7.894,0,0,0,2.953,4.249,17.176,17.176,0,0,0,7.282,2.715c2.873.579,6.258.956,9.177,2.9,2.881,1.991,4.557,4.946,6.082,7.455a25.8,25.8,0,0,0,4.678,6.271,10.219,10.219,0,0,0,4.612,2.453,8.027,8.027,0,0,0,1.426.17c.33,0,.5.006.5.006" fill="#455a64"/>
        <path id="Trazado_236679" data-name="Trazado 236679" d="M222.6,139.352s-.294-.085-.848-.257a12.756,12.756,0,0,0-2.47-.549,5.543,5.543,0,0,0-3.8.85,3.126,3.126,0,0,0-1.322,2,2.779,2.779,0,0,0,.766,2.511,2.122,2.122,0,0,0,1.326.526,2.8,2.8,0,0,0,1.461-.4A4.487,4.487,0,0,0,219.7,141.5a6.28,6.28,0,0,0-5.294-8.236,11.008,11.008,0,0,0-4.078.536,28.727,28.727,0,0,1-4.221,1.014,17.191,17.191,0,0,1-4.476.012,14.8,14.8,0,0,1-4.317-1.2,5.213,5.213,0,0,1-2.953-3.114,4.072,4.072,0,0,1,1-3.975,3.5,3.5,0,0,1,3.854-.569,2.94,2.94,0,0,1,1.429,1.345,3.224,3.224,0,0,1,.3,1.887,4.29,4.29,0,0,1-1.92,3.007,6.173,6.173,0,0,1-3.242.9,9.593,9.593,0,0,1-3.074-.474,11.02,11.02,0,0,1-4.517-2.785,11.583,11.583,0,0,1-2.307-3.291,11.733,11.733,0,0,1-.816-2.409c-.1-.575-.138-.877-.138-.877s.071.3.182.866a12.322,12.322,0,0,0,.853,2.381,11.61,11.61,0,0,0,2.316,3.24,10.94,10.94,0,0,0,4.475,2.721,9.427,9.427,0,0,0,3.022.451,5.99,5.99,0,0,0,3.143-.885,4.1,4.1,0,0,0,1.824-2.873,2.822,2.822,0,0,0-1.621-3.016,3.293,3.293,0,0,0-3.615.536,3.854,3.854,0,0,0-.939,3.756,5,5,0,0,0,2.837,2.971,14.61,14.61,0,0,0,4.247,1.174,17,17,0,0,0,4.417-.01,28.628,28.628,0,0,0,4.191-1.005,11.212,11.212,0,0,1,4.16-.537,6.48,6.48,0,0,1,5.451,8.513,4.657,4.657,0,0,1-2.076,2.625,2.957,2.957,0,0,1-1.554.416,2.283,2.283,0,0,1-1.428-.575,2.925,2.925,0,0,1-.8-2.657,3.258,3.258,0,0,1,1.391-2.074,5.611,5.611,0,0,1,3.884-.834,12.111,12.111,0,0,1,2.474.593c.551.186.834.3.834.3" fill="#455a64"/>
        <path id="Trazado_236680" data-name="Trazado 236680" d="M201.744,356.278l-5.363-6.88,12.825-10.128,7.952,9.983-.755.679c-3.384,2.991-17.415,14.97-20.347,16.121-3.27,1.284,5.688-9.775,5.688-9.775" fill="#8c5be1"/>
        <g id="Grupo_184053" data-name="Grupo 184053" opacity="0.4">
          <g id="Grupo_184052" data-name="Grupo 184052">
            <g id="Grupo_184051" data-name="Grupo 184051" clip-path="url(#clip-path-10)">
              <path id="Trazado_236681" data-name="Trazado 236681" d="M197.517,361.871s-2.949,4.118-1.976,4.37,15.608-11.319,21.617-16.988l-.247-.27-16.956,13.643s-1.667-1.313-2.438-.755" fill="#fff"/>
            </g>
          </g>
        </g>
        <path id="Trazado_236682" data-name="Trazado 236682" d="M217.106,348.816a1.586,1.586,0,0,1-.2.2l-.6.539q-.918.792-2.251,1.942c-1.911,1.627-4.582,3.839-7.585,6.218s-5.769,4.471-7.791,5.959l-2.406,1.745-.662.464a1.451,1.451,0,0,1-.239.15,1.542,1.542,0,0,1,.215-.182l.64-.494q.966-.73,2.368-1.8c2-1.516,4.75-3.626,7.752-6s5.685-4.57,7.619-6.169l2.29-1.894.627-.51a1.606,1.606,0,0,1,.227-.168" fill="#263238"/>
        <path id="Trazado_236683" data-name="Trazado 236683" d="M200.117,362.823a4.32,4.32,0,0,0-2.815-1.032,2.642,2.642,0,0,1,2.815,1.032" fill="#263238"/>
        <path id="Trazado_236684" data-name="Trazado 236684" d="M202.381,357.913a1.727,1.727,0,0,1-.793-.172c-.42-.147-.746-.308-.728-.359a1.712,1.712,0,0,1,.793.172c.42.147.746.307.728.359" fill="#263238"/>
        <path id="Trazado_236685" data-name="Trazado 236685" d="M202.985,356.544c0,.055-.313.08-.69.056s-.681-.088-.678-.142.312-.08.69-.056.681.087.678.142" fill="#263238"/>
        <path id="Trazado_236686" data-name="Trazado 236686" d="M202.685,354.815c.035.043-.235.318-.6.614s-.692.5-.726.46.234-.317.6-.614.692-.5.726-.46" fill="#263238"/>
        <path id="Trazado_236687" data-name="Trazado 236687" d="M202.236,353.784a2.413,2.413,0,0,1-1.427,1.314c-.028-.05.33-.294.717-.653s.662-.693.71-.661" fill="#263238"/>
        <path id="Trazado_236688" data-name="Trazado 236688" d="M201.062,357.139a3.019,3.019,0,0,1-.828.646,6.162,6.162,0,0,1-1.03.5,3.011,3.011,0,0,1-.665.19.569.569,0,0,1-.406-.094.413.413,0,0,1-.136-.428,1.927,1.927,0,0,1,2.218-1.036,1.88,1.88,0,0,1,.7.338c.144.115.205.2.2.2a2.988,2.988,0,0,0-.931-.406,1.908,1.908,0,0,0-1.065.1,1.63,1.63,0,0,0-.929.844c-.054.2.119.313.333.285a3.174,3.174,0,0,0,.619-.168,7.31,7.31,0,0,0,1.023-.45c.562-.3.877-.55.9-.525" fill="#263238"/>
        <path id="Trazado_236689" data-name="Trazado 236689" d="M200.881,357.348c0,.018-.293-.1-.547-.5a1.712,1.712,0,0,1-.251-.779,1.053,1.053,0,0,1,.354-.962.417.417,0,0,1,.554.179,1.154,1.154,0,0,1,.151.479,3.157,3.157,0,0,1,.005.806,1.509,1.509,0,0,1-.208.706c-.03-.009.048-.278.069-.718a3.706,3.706,0,0,0-.046-.767c-.025-.263-.2-.637-.431-.511a.937.937,0,0,0-.266.778,1.735,1.735,0,0,0,.191.72,3.811,3.811,0,0,0,.425.566" fill="#263238"/>
        <path id="Trazado_236690" data-name="Trazado 236690" d="M214.071,345.516c.02.031-.4.255-.92.782a5.116,5.116,0,0,0-1.241,5.33c.238.705.511,1.089.48,1.108-.01.007-.088-.082-.205-.258a4.288,4.288,0,0,1-.407-.8,4.964,4.964,0,0,1,1.276-5.479,4.28,4.28,0,0,1,.719-.54.939.939,0,0,1,.3-.141" fill="#263238"/>
        <path id="Trazado_236691" data-name="Trazado 236691" d="M208.525,341.232a28.793,28.793,0,0,1,2.193,2.545,28.466,28.466,0,0,1,2.039,2.67,56.9,56.9,0,0,1-4.232-5.215" fill="#263238"/>
        <path id="Trazado_236692" data-name="Trazado 236692" d="M209.827,352.85a13.405,13.405,0,0,1-3.718,3c-.031-.048.846-.659,1.869-1.486s1.809-1.552,1.849-1.511" fill="#263238"/>
        <path id="Trazado_236693" data-name="Trazado 236693" d="M212.337,350.86c.056.007.072.232.138.491s.155.467.108.5-.226-.15-.3-.451,0-.548.054-.539" fill="#263238"/>
        <path id="Trazado_236694" data-name="Trazado 236694" d="M212.352,348.933c.054.006.077.2.051.444s-.092.428-.146.422-.077-.2-.051-.444.092-.428.146-.422" fill="#263238"/>
        <path id="Trazado_236695" data-name="Trazado 236695" d="M213.281,347.324c.026.051-.146.184-.282.4s-.192.423-.249.42-.089-.264.083-.528.43-.341.448-.291" fill="#263238"/>
        <path id="Trazado_236696" data-name="Trazado 236696" d="M214.044,346.307c.047.028.026.152-.048.277s-.172.2-.219.177-.026-.152.048-.277.172-.205.219-.177" fill="#263238"/>
        <g id="Grupo_184056" data-name="Grupo 184056" opacity="0.3">
          <g id="Grupo_184055" data-name="Grupo 184055">
            <g id="Grupo_184054" data-name="Grupo 184054" clip-path="url(#clip-path-11)">
              <path id="Trazado_236697" data-name="Trazado 236697" d="M213.783,345.186,200.808,355.1l-1.2-1.559,13.634-9.245Z"/>
            </g>
          </g>
        </g>
        <path id="Trazado_236698" data-name="Trazado 236698" d="M142.771,363.186l.024-8.723,16.341-.06.1,12.763-1.013.068c-4.508.267-22.941,1.039-25.959.137-3.365-1.008,10.507-4.185,10.507-4.185" fill="#8c5be1"/>
        <g id="Grupo_184059" data-name="Grupo 184059" opacity="0.4">
          <g id="Grupo_184058" data-name="Grupo 184058">
            <g id="Grupo_184057" data-name="Grupo 184057" clip-path="url(#clip-path-12)">
              <path id="Trazado_236699" data-name="Trazado 236699" d="M135.993,364.981s-4.861,1.422-4.251,2.221,19.267.719,27.493-.036l-.027-.365-21.761.278s-.5-2.062-1.454-2.1" fill="#fff"/>
            </g>
          </g>
        </g>
        <path id="Trazado_236700" data-name="Trazado 236700" d="M159.465,366.79a1.454,1.454,0,0,1-.281.032l-.806.052-2.97.14c-2.508.1-5.975.2-9.805.215s-7.3-.04-9.808-.116L132.824,367l-.807-.044a1.458,1.458,0,0,1-.281-.029,1.543,1.543,0,0,1,.282-.011l.808.007,2.972.048c2.509.04,5.975.076,9.8.058s7.293-.091,9.8-.157l2.97-.077.809-.015a1.53,1.53,0,0,1,.282.008" fill="#263238"/>
        <path id="Trazado_236701" data-name="Trazado 236701" d="M137.452,367.333a4.322,4.322,0,0,0-1.578-2.548,2.638,2.638,0,0,1,1.578,2.548" fill="#263238"/>
        <path id="Trazado_236702" data-name="Trazado 236702" d="M142.263,364.866c-.046.029-.278-.25-.518-.625s-.4-.7-.351-.731.278.25.518.624.4.7.351.732" fill="#263238"/>
        <path id="Trazado_236703" data-name="Trazado 236703" d="M143.584,364.161c-.037.041-.295-.13-.578-.382s-.482-.489-.446-.53.3.13.578.382.482.489.446.53" fill="#263238"/>
        <path id="Trazado_236704" data-name="Trazado 236704" d="M144.413,362.615a3.729,3.729,0,0,1-1.707.026,1.948,1.948,0,0,1,.852-.112,1.925,1.925,0,0,1,.855.086" fill="#263238"/>
        <path id="Trazado_236705" data-name="Trazado 236705" d="M144.7,361.526a2.4,2.4,0,0,1-1.933.154,5.307,5.307,0,0,1,.967-.071,5.169,5.169,0,0,1,.966-.083" fill="#263238"/>
        <path id="Trazado_236706" data-name="Trazado 236706" d="M141.7,363.443a3.04,3.04,0,0,1-1.05,0,6.112,6.112,0,0,1-1.119-.242,3.023,3.023,0,0,1-.641-.261.564.564,0,0,1-.261-.325.413.413,0,0,1,.157-.42,1.927,1.927,0,0,1,2.384.553,1.879,1.879,0,0,1,.345.7.572.572,0,0,1,.028.284,2.914,2.914,0,0,0-.482-.894,1.888,1.888,0,0,0-.9-.579,1.63,1.63,0,0,0-1.251.09c-.166.125-.1.32.085.43a3.1,3.1,0,0,0,.592.25,7.316,7.316,0,0,0,1.082.277c.629.109,1.03.108,1.03.14" fill="#263238"/>
        <path id="Trazado_236707" data-name="Trazado 236707" d="M141.431,363.5a1.033,1.033,0,0,1-.124-.729,1.716,1.716,0,0,1,.283-.768,1.055,1.055,0,0,1,.872-.539.418.418,0,0,1,.326.484,1.137,1.137,0,0,1-.177.469,3.179,3.179,0,0,1-.493.638,1.5,1.5,0,0,1-.6.427c-.018-.025.209-.189.5-.522a3.764,3.764,0,0,0,.437-.632c.143-.223.24-.622-.024-.669-.263-.024-.53.239-.69.449a1.736,1.736,0,0,0-.294.684,3.872,3.872,0,0,0-.014.708" fill="#263238"/>
        <path id="Trazado_236708" data-name="Trazado 236708" d="M159.112,362.32c0,.037-.468-.043-1.206.048a5.116,5.116,0,0,0-4.266,3.429c-.246.7-.268,1.173-.3,1.168a.925.925,0,0,1,0-.329,4.3,4.3,0,0,1,.174-.882,4.966,4.966,0,0,1,4.385-3.526,4.278,4.278,0,0,1,.9.02.943.943,0,0,1,.322.072" fill="#263238"/>
        <path id="Trazado_236709" data-name="Trazado 236709" d="M157.39,355.527a28.587,28.587,0,0,1,.156,3.355,28.876,28.876,0,0,1-.042,3.36,57,57,0,0,1-.114-6.715" fill="#263238"/>
        <path id="Trazado_236710" data-name="Trazado 236710" d="M151.247,365.475a13.427,13.427,0,0,1-4.775.066c.005-.058,1.072,0,2.388-.017s2.38-.106,2.387-.049" fill="#263238"/>
        <path id="Trazado_236711" data-name="Trazado 236711" d="M154.45,365.457c.04.04-.086.226-.194.472s-.167.462-.223.459-.085-.258.042-.54.34-.43.375-.391" fill="#263238"/>
        <path id="Trazado_236712" data-name="Trazado 236712" d="M155.651,363.949c.039.038-.066.209-.234.381s-.336.28-.376.242.066-.209.234-.381.337-.28.376-.242" fill="#263238"/>
        <path id="Trazado_236713" data-name="Trazado 236713" d="M157.375,363.256c-.011.056-.228.054-.468.14s-.412.214-.455.177.093-.263.391-.364.548,0,.532.047" fill="#263238"/>
        <path id="Trazado_236714" data-name="Trazado 236714" d="M158.6,362.927c.02.051-.073.135-.209.188s-.261.055-.281,0,.073-.135.209-.188.261-.055.281,0" fill="#263238"/>
        <g id="Grupo_184062" data-name="Grupo 184062" opacity="0.3">
          <g id="Grupo_184061" data-name="Grupo 184061">
            <g id="Grupo_184060" data-name="Grupo 184060" clip-path="url(#clip-path-13)">
              <path id="Trazado_236715" data-name="Trazado 236715" d="M159.236,361.664l-16.473.017.018-1.968,16.4-.108Z"/>
            </g>
          </g>
        </g>
        <path id="Trazado_236716" data-name="Trazado 236716" d="M183.107,212.616l-6.543,19.7c-1.767,5.321-6.417,6.232-12.024,6.232h-36.4v-8.166l33.253-4.748,7.925-20.244Z" fill="#b78876"/>
        <path id="Trazado_236717" data-name="Trazado 236717" d="M124.141,228.69l-2.887-1.367s-3.112-6.017-3.829-5.776-.923,2.012.327,4.776l-3.837-1.1s-8.318,3.843-7.95,4.361a1.92,1.92,0,0,0,2.861.817c1.811-.926,4.185-2.014,4.185-2.014l4.482,1.281-5.779.733-5.436,4.946a2.662,2.662,0,0,0,3.325-.082L123.72,238.3l4.422.25v-8.166Z" fill="#b78876"/>
        <path id="Trazado_236718" data-name="Trazado 236718" d="M109.6,235.269c.06.039.323-.378.831-.932a4.287,4.287,0,0,1,1.028-.795,4.21,4.21,0,0,1,1.524-.4,21.143,21.143,0,0,0,4.237-.723,21,21,0,0,0-4.291.284,4.164,4.164,0,0,0-1.674.485,3.935,3.935,0,0,0-1.061.943,2.516,2.516,0,0,0-.594,1.136" fill="#aa6550"/>
        <path id="Trazado_236719" data-name="Trazado 236719" d="M111.811,235.836c.053,0,.1-.292.494-.377s1.046-.149,1.715-.218a13.968,13.968,0,0,0,2.481-.253,4.972,4.972,0,0,0-2.525-.187,7.548,7.548,0,0,0-1.776.364.71.71,0,0,0-.429.444c-.037.152.014.232.04.227" fill="#aa6550"/>
        <path id="Trazado_236720" data-name="Trazado 236720" d="M186.191,208.321l-2.8,9.483-17.766-8.043c.639-1.985,3.577-10.829,9.2-24.862a24.126,24.126,0,0,1,18.415-14.844,105.34,105.34,0,0,1,17.011-1.668c9.962.11,24.627,6.337,26.6,16.1,1.5,7.455.053,20.615.053,36.606l-1.3,30.553-51.05,1.732Z" fill="#8c5be1"/>
        <g id="Grupo_184065" data-name="Grupo 184065" opacity="0.3">
          <g id="Grupo_184064" data-name="Grupo 184064">
            <g id="Grupo_184063" data-name="Grupo 184063" clip-path="url(#clip-path-14)">
              <path id="Trazado_236721" data-name="Trazado 236721" d="M236.852,214.024c-6.212,1.271-12.591-.01-18.92-.386-3.838-.228-8.1-.643-11.132,1.716-2.407,1.871-3.375,5.016-4.07,7.984-2.648,11.313-3.13,18.9-3.725,30.5l30.73,1.863Z"/>
            </g>
          </g>
        </g>
        <path id="Trazado_236722" data-name="Trazado 236722" d="M184.882,175.16c-.007.045.511.076,1.358.408a7.09,7.09,0,0,1,2.94,2.38,9.914,9.914,0,0,1,1.757,5.32,33.519,33.519,0,0,1-.537,7,117.248,117.248,0,0,1-2.853,12.514c-.42,1.532-.768,2.8-1.032,3.759a8.948,8.948,0,0,0-.327,1.4,8.957,8.957,0,0,0,.492-1.345c.288-.875.693-2.145,1.168-3.723a97.482,97.482,0,0,0,2.989-12.531,32.341,32.341,0,0,0,.506-7.1,10.04,10.04,0,0,0-1.913-5.477,6.951,6.951,0,0,0-3.13-2.354,5.093,5.093,0,0,0-1.045-.238,1.179,1.179,0,0,0-.373-.009" fill="#263238"/>
        <path id="Trazado_236723" data-name="Trazado 236723" d="M166.181,207.34a17.247,17.247,0,0,0,2.5,1.435c1.578.827,3.786,1.915,6.263,3.033s4.757,2.052,6.42,2.687a17.236,17.236,0,0,0,2.733.926,20.265,20.265,0,0,0-2.614-1.215c-1.632-.708-3.884-1.686-6.357-2.8s-4.7-2.156-6.307-2.91a20.343,20.343,0,0,0-2.641-1.155" fill="#263238"/>
        <path id="Trazado_236724" data-name="Trazado 236724" d="M158.042,255.7a18.194,18.194,0,0,0-7.43,24.366l44.434,76.289,20.5-12.382-34.5-68.878,25.008-16.324" fill="#263238"/>
        <path id="Trazado_236725" data-name="Trazado 236725" d="M212.143,251.919l-61,2.159A18.2,18.2,0,0,0,133.6,272.544l2.532,87.118,25.653-.057-.856-82.369,51.215-1.347Z" fill="#263238"/>
        <path id="Trazado_236726" data-name="Trazado 236726" d="M160.928,280.214a4.293,4.293,0,0,1,.073.805c.026.585.059,1.353.1,2.312.076,2.008.154,4.914.229,8.506.153,7.183.256,17.108.311,28.069.056,10.936.107,20.832.144,28.071.02,3.544.036,6.434.048,8.507,0,.96-.006,1.728-.008,2.313a4.414,4.414,0,0,1-.041.808,4.225,4.225,0,0,1-.074-.805c-.025-.585-.058-1.353-.1-2.312-.077-2.008-.154-4.914-.23-8.506-.153-7.183-.256-17.109-.311-28.073-.056-10.932-.106-20.827-.144-28.066-.019-3.545-.036-6.435-.047-8.508,0-.96.005-1.729.007-2.313a4.321,4.321,0,0,1,.042-.808" fill="#455a64"/>
        <path id="Trazado_236727" data-name="Trazado 236727" d="M238.566,196.634H220.113a13.451,13.451,0,0,0-13.451,13.451v64.382H169.793a9.314,9.314,0,0,0-9.314,9.314H244.66v-.053a7.683,7.683,0,0,0,7.358-7.672V210.085a13.451,13.451,0,0,0-13.451-13.451" fill="#455a64"/>
        <path id="Trazado_236728" data-name="Trazado 236728" d="M212.027,198.758c.158,0,.286,18.921.286,42.255s-.128,42.259-.286,42.259-.285-18.917-.285-42.259.127-42.255.285-42.255" fill="#263238"/>
        <path id="Trazado_236729" data-name="Trazado 236729" d="M209.7,351.357v-67.54h-6v67.54c-3.663,7.22-12.274,12.106-22.764,16.106h53.485c-10.862-4.413-20.665-7.8-24.722-16.106" fill="#455a64"/>
      </g>
    </g>
  </g>
</svg>
