<svg xmlns="http://www.w3.org/2000/svg" width="128.874" height="128.417" viewBox="0 0 128.874 128.417">
  <g id="Grupo_154331" data-name="Grupo 154331" transform="translate(0.5 0.5)">
    <g id="Grupo_154332" data-name="Grupo 154332">
      <path id="Trazado_196460" data-name="Trazado 196460" d="M76.693,0H79.94a7.645,7.645,0,0,0,1.5.253,9.765,9.765,0,0,1,5.889,4.106,2.834,2.834,0,0,0,2.718,1.311c2.409-.066,4.822-.03,7.233-.016a6.352,6.352,0,0,1,6.235,3.753,5.486,5.486,0,0,1,.55,2.66q0,8.045,0,16.09a7.8,7.8,0,0,1-.389,2.577,6.127,6.127,0,0,1-5.868,3.881q-17.664,0-35.328,0a6.4,6.4,0,0,1-1.366-.1c-3.347-1.137-4.766-3.087-4.769-6.575q-.008-7.665,0-15.33c0-4.119,1.672-6.107,5.709-6.819a31.685,31.685,0,0,1,4.829-.109A2.061,2.061,0,0,0,68.829,4.64,10.409,10.409,0,0,1,74.787.255c.615-.24,1.3.02,1.906-.255" transform="translate(-14.263)" fill="#f8de73"/>
      <path id="Unión_33" data-name="Unión 33" d="M4383.714,4435.832c-.015-8.3-.031-16.6.005-24.907a3.935,3.935,0,0,1,.077-.741q.171-.469.334-.941-.022-9.964-.04-19.931c0-5.789.026-11.579.042-17.368q-.16-.479-.321-.958c-.214-2.736-.076-5.475-.082-8.211a1.334,1.334,0,0,1,.408-1.131,60.107,60.107,0,0,1,8.193,14.876,65.572,65.572,0,0,1,4.007,17.147c.029.266-.09.6.259.764v1.5a.913.913,0,0,0,0,1v5a.913.913,0,0,0,0,1v1.748c-.617,1.082-.484,2.313-.637,3.474a63.318,63.318,0,0,1-8.852,24.775,37.774,37.774,0,0,1-2.97,4.29A1.638,1.638,0,0,1,4383.714,4435.832Z" transform="translate(-4268.722 -4335.481)" fill="#25e0ac" stroke="rgba(0,0,0,0)" stroke-miterlimit="10" stroke-width="1"/>
      <path id="Unión_36" data-name="Unión 36" d="M4389.548,4370.966c-.451,0-.9.006-1.351-.009-.12,0-.25,0-.384.011a1.39,1.39,0,0,1-.909-.132l-3.212-.018a56.229,56.229,0,0,1,13.928-6.191,13.169,13.169,0,0,1,3.706-1.041,62.949,62.949,0,0,1,9.43-1.7,1.674,1.674,0,0,1,.236.006c.242.017.49.033.647-.253h1.249c.1.224.625,0,.486.469a10.79,10.79,0,0,0-6.167,4.916,1.175,1.175,0,0,1-1.217.63c-1.782-.012-3.566.007-5.349.014-1.234.119-2.461.3-3.7.346a6.708,6.708,0,0,0-5,2.9.819.819,0,0,1-.383.095C4390.89,4370.956,4390.219,4370.961,4389.548,4370.966Zm-2.89-.444.062.011c0-.016-.007-.029-.009-.043Zm58.614.456a4.157,4.157,0,0,0-.495-.028,26.113,26.113,0,0,1-2.984-.023l-.194-.034c-1.454-2.495-3.7-3.349-6.483-3.258-1.418.046-2.837.037-4.257.028-1.067-.007-2.134-.013-3.2,0a1.786,1.786,0,0,1-1.795-.943,10.4,10.4,0,0,0-6.212-4.621c-.145-.264.107-.327.229-.457h1.749c1.519.55,3.147.387,4.7.728,1.871.409,3.775.658,5.615,1.214h0a10.162,10.162,0,0,1,2.947.793h0a50.964,50.964,0,0,1,8.578,3.175c1.231.568,2.722,1.331,4.194,2.135.649.355,1.275.75,1.913,1.128l-3.227.02a.922.922,0,0,1-.612.166C4445.588,4371,4445.429,4370.992,4445.272,4370.977Zm1.26-.456a.064.064,0,0,1,0,.017l.038-.006-.031-.02A.057.057,0,0,0,4446.532,4370.521Z" transform="translate(-4352.705 -4361.644)" fill="#25e0ac" stroke="rgba(0,0,0,0)" stroke-miterlimit="10" stroke-width="1"/>
      <path id="Trazado_196464" data-name="Trazado 196464" d="M81.067.468,80.582,0h2.249c-.512.441-1.22.146-1.763.468" transform="translate(-20.4)" fill="#25e0ac"/>
      <path id="Trazado_196465" data-name="Trazado 196465" d="M89.439,0l-.23.456C88.815.226,88.274.4,87.94,0Z" transform="translate(-22.263)" fill="#25e0ac"/>
      <path id="Trazado_196466" data-name="Trazado 196466" d="M171.128,81.939c-.341-.333-.389-.666,0-1Z" transform="translate(-43.253 -20.491)" fill="#f6a2bd"/>
      <path id="Trazado_196467" data-name="Trazado 196467" d="M171.128,89.966c-.389-.333-.341-.666,0-1Z" transform="translate(-43.253 -22.523)" fill="#f6a2bd"/>
      <path id="Trazado_196468" data-name="Trazado 196468" d="M54.164,44.482q18.731.01,37.463.006c2.459,0,3.86-1.661,5.019-3.577a2.512,2.512,0,0,1,1.562-.308c2.953-.008,5.907-.025,8.858,0a6.166,6.166,0,0,1,6.188,5.929c.031.54.018,1.081.018,1.622q0,36.369,0,72.739a10.056,10.056,0,0,1-.15,1.859,62.446,62.446,0,0,1-13.789,9.129,61.655,61.655,0,0,1-10.522,3.975c-2.633.72-5.329,1.066-7.945,1.8a1.36,1.36,0,0,0-1.188,0l-3.567.5c-.619-.3-1.321.083-1.94-.229l-.779.24a1.362,1.362,0,0,0-1.228,0l-1.53,0c-.5-.25-1.041-.059-1.559-.119a9.669,9.669,0,0,0-2.4.122l-1.059-.264a2.652,2.652,0,0,0-1.692.016l-.554-.265a2.026,2.026,0,0,0-1.429.007,55.967,55.967,0,0,0-5.75-1.212,57.957,57.957,0,0,1-9.769-3.274c.176-.761.816-.571,1.3-.581,1.854-.04,3.707-.014,5.559-.016a4.338,4.338,0,0,0,1.584-.184c1.671-.5,2.342-1.2,2.376-2.9q.143-7.539,0-15.08c-.034-2-.981-2.818-3-2.825q-7.54-.029-15.082,0c-2.022.005-2.8.747-2.823,2.778-.046,3.739,0,7.478-.025,11.218,0,.642.161,1.349-.432,1.865a41.51,41.51,0,0,1-6.192-4.684,10.286,10.286,0,0,1-.149-1.735q.011-36.63,0-73.26a7.523,7.523,0,0,1,.9-4.083,5.731,5.731,0,0,1,5.341-3.056c3.027.083,6.055.042,9.083.016a2.691,2.691,0,0,1,2.513,1.243,4.923,4.923,0,0,0,4.228,2.232,11.269,11.269,0,0,1,2.569.37" transform="translate(-7.476 -10.276)" fill="#efefef"/>
      <path id="Trazado_196469" data-name="Trazado 196469" d="M135.782,115.5c-.462-.45-.226-1.019-.226-1.526q-.021-36.832-.014-73.665c0-3.373-1.571-5.691-4.4-6.432a8.611,8.611,0,0,0-2.1-.223c-3.247-.019-6.492,0-9.74,0,.514-6.4.11-12.818.224-19.226a10.014,10.014,0,0,0-.5-2.161l.06-.024c1.468-.226,2.957.057,4.41-.135A7.47,7.47,0,0,1,127,12.2q4.182.022,8.362.044c6.071.03,10.084,4.022,10.129,10.08q.027,3.432.052,6.864,0,4.785,0,9.57a16.607,16.607,0,0,1,.388,3.826q-.021,15.585,0,31.169a14.086,14.086,0,0,1-.391,3.7l0,27.3a52.2,52.2,0,0,1-7.668,8.8c-.688.663-1.4,1.3-2.1,1.952" transform="translate(-30.133 -3.024)" fill="#126783"/>
      <path id="Trazado_196470" data-name="Trazado 196470" d="M32.773,33.647c-3.574-.113-6.294,2.75-6.281,6.808.085,24.55.044,49.1.031,73.651,0,.465.225,1-.226,1.4a69.112,69.112,0,0,1-9.327-10.017,8.482,8.482,0,0,1-.439-.733,5.051,5.051,0,0,1-.377-1.821c.01-8.486-.031-16.973.017-25.459q-.024-4.993-.019-9.986c.014-9.571-.033-19.142.028-28.713-.056-2.595-.01-5.19-.023-7.785a4.945,4.945,0,0,1,.374-1.8c.2-2.864-.161-5.742.205-8.6a9.288,9.288,0,0,1,8.977-8.3c3.117-.122,6.24-.064,9.36-.087a7.6,7.6,0,0,1,3.4-.1c1.491.229,3.033-.072,4.546.138l.058.018a1.043,1.043,0,0,1,.171.828c-.642,6.344-.238,12.7-.223,19.053,0,1.418.037,1.474-1.4,1.482-2.951.015-5.9-.032-8.853.023" transform="translate(-4.088 -3.028)" fill="#126783"/>
      <path id="Unión_34" data-name="Unión 34" d="M4387.939,4422.317a63.923,63.923,0,0,1,7.931-60.416,2.266,2.266,0,0,1,.263-.258l0,9.57,0,.008,0-.007c.016,3.495.045,6.989.042,10.482q-.009,14.106-.04,28.21,0,13.652-.006,27.3A59.267,59.267,0,0,1,4387.939,4422.317Z" transform="translate(-4383.691 -4335.48)" fill="#25e0ac" stroke="rgba(0,0,0,0)" stroke-miterlimit="10" stroke-width="1"/>
      <path id="Trazado_196472" data-name="Trazado 196472" d="M38.027,151.353q.025-6.492.049-12.985c.01-2.423.88-3.307,3.3-3.31q7.555-.011,15.109,0c2.287,0,3.273.967,3.281,3.258q.029,7.554,0,15.109c-.008,2.024-.82,2.945-2.711,3.217-3.158.068-6.317.171-9.474-.034a69.666,69.666,0,0,1-9.551-5.258" transform="translate(-9.627 -34.189)" fill="#20bdfc"/>
      <path id="Trazado_196474" data-name="Trazado 196474" d="M50.815,163.918l9.474.034c-2.347.383-4.713.062-7.066.178-.477.024-1.009-.184-1.413.261a1.545,1.545,0,0,1-.995-.473" transform="translate(-12.864 -41.497)" fill="#c2aec2"/>
      <path id="Trazado_196476" data-name="Trazado 196476" d="M79.265,171.143c.784-.5,1.648-.136,2.471-.226.09.046.119.092.09.137s-.06.068-.09.068l-2.47.02" transform="translate(-20.067 -43.257)" fill="#c6b7c8"/>
      <path id="Trazado_196477" data-name="Trazado 196477" d="M89.307,170.906c.644.1,1.341-.245,1.94.229-.647-.079-1.342.26-1.94-.229" transform="translate(-22.609 -43.259)" fill="#c5b3c5"/>
      <path id="Trazado_196478" data-name="Trazado 196478" d="M75.581,170.807a1.449,1.449,0,0,1,1.693-.015l-1.693.015" transform="translate(-19.134 -43.17)" fill="#c9b9c9"/>
      <path id="Trazado_196479" data-name="Trazado 196479" d="M72.925,170.463a1.06,1.06,0,0,1,1.429-.007l-1.429.007" transform="translate(-18.462 -43.083)" fill="#ccbdcd"/>
      <path id="Trazado_196480" data-name="Trazado 196480" d="M82.572,171.127a1.178,1.178,0,0,0,0-.205c.5.048,1.049-.21,1.493.223l-1.494-.018" transform="translate(-20.904 -43.262)" fill="#d4d1da"/>
      <path id="Trazado_196481" data-name="Trazado 196481" d="M96.68,170.465a.794.794,0,0,1,1.187,0H96.68" transform="translate(-24.475 -43.087)" fill="#c9b7c8"/>
      <path id="Trazado_196482" data-name="Trazado 196482" d="M86.619,171.143a.827.827,0,0,1,1.228,0l-1.228,0" transform="translate(-21.928 -43.257)" fill="#d8d6dd"/>
      <path id="Trazado_196483" data-name="Trazado 196483" d="M79.95,27.419q6.8,0,13.6,0c1.937,0,3.059.953,3.1,2.617.045,1.689-1.12,2.789-3.052,2.871-.539.022-1.081,0-1.621,0q-12.54,0-25.08,0a5.362,5.362,0,0,1-1.839-.234,2.581,2.581,0,0,1-1.871-3.091,2.647,2.647,0,0,1,2.66-2.164c3.618-.019,7.237-.007,10.855-.007H79.95" transform="translate(-15.984 -6.941)" fill="#f1ad5a"/>
      <path id="Trazado_196484" data-name="Trazado 196484" d="M38.408,32.651c2.986-.019,5.972-.062,8.958-.041.863.006,1.231-.16.952-1.115a6.371,6.371,0,0,1-.125-1.73c-.008-4.651.013-9.3-.014-13.954a13.632,13.632,0,0,1,.529-4.545,6.665,6.665,0,0,1,6.476-3.229c.824.035,1.65.017,2.474.024-.528.406-1.193.2-1.786.418a5.456,5.456,0,0,0-3.695,4.993c-.027,5.866-.045,11.731.01,17.6.021,2.161,1.358,3.577,3.122,4.63.35.208.733.361,1.1.541-.953.005-1.908.05-2.859.007a5.089,5.089,0,0,1-4.336-2.5,1.943,1.943,0,0,0-1.985-1.049c-2.94.029-5.881-.022-8.822-.042" transform="translate(-9.723 -2.032)" fill="#f1ad5a"/>
      <path id="Trazado_196485" data-name="Trazado 196485" d="M80.566,10.745a3.759,3.759,0,0,1,7.518-.065,3.759,3.759,0,1,1-7.518.065" transform="translate(-20.396 -1.763)" fill="#343a6e"/>
      <path id="Trazado_196489" data-name="Trazado 196489" d="M38.091,70.317c0-2.579-.011-5.157,0-7.736.012-2.055,1.01-3.053,3.076-3.058q7.735-.018,15.472,0c2.013,0,3.08.9,3.108,2.925q.113,7.921,0,15.845c-.025,1.89-1.105,2.887-3.034,2.9-5.2.049-10.4.057-15.595,0C39,81.169,38.1,80.1,38.092,77.928c-.008-2.537,0-5.074,0-7.611" transform="translate(-9.642 -15.066)" fill="#20bdfc"/>
      <path id="Trazado_196490" data-name="Trazado 196490" d="M94.342,82.528q-8.93,0-17.858.005a2.8,2.8,0,0,1-2.8-1.48,2.56,2.56,0,0,1,1.491-3.546,5.825,5.825,0,0,1,1.85-.208q17.36.008,34.718,0a5.852,5.852,0,0,1,1.609.138,2.552,2.552,0,0,1-.152,5.023,8.114,8.114,0,0,1-1.369.061q-8.743.006-17.484,0" transform="translate(-18.586 -19.569)" fill="#126783"/>
      <path id="Trazado_196491" data-name="Trazado 196491" d="M94.393,152.831c5.995,0,11.99-.01,17.984.006,2.022.006,3.2,1.252,2.93,2.993a2.415,2.415,0,0,1-1.761,2.042,5.66,5.66,0,0,1-1.852.193q-17.3,0-34.594-.007a7.4,7.4,0,0,1-1.606-.14,2.471,2.471,0,0,1-2.063-2.575,2.56,2.56,0,0,1,2.356-2.479,10.512,10.512,0,0,1,1.247-.031q8.68,0,17.36,0" transform="translate(-18.589 -38.69)" fill="#126783"/>
      <path id="Trazado_196492" data-name="Trazado 196492" d="M94.468,115.064q8.867,0,17.734,0c1.85,0,2.872.757,3.1,2.226a2.47,2.47,0,0,1-1.713,2.811,5.2,5.2,0,0,1-1.727.19q-17.484,0-34.967,0h-.25c-2.049-.022-3.258-1.016-3.229-2.659.028-1.6,1.206-2.565,3.193-2.568q8.93-.015,17.858,0" transform="translate(-18.586 -29.129)" fill="#126783"/>
      <path id="Trazado_196493" data-name="Trazado 196493" d="M38.053,100.854a3.424,3.424,0,0,1,0-2.688,2.888,2.888,0,0,1,.453-.8,2.846,2.846,0,0,1,4.324.579c.618.774,1.12,1.633,1.673,2.454,1.246,2,2.7,3.869,3.8,5.872.7-1.949,1.768-3.862,2.691-5.844a22.93,22.93,0,0,1,2.636-5.049c.738-1.482,1.434-2.987,2.229-4.437a2.394,2.394,0,0,1,2.728-1.277,2.515,2.515,0,0,1,2.056,2.214,2.823,2.823,0,0,1-.335,1.671c-.4.951-.839,1.89-1.261,2.833A9.428,9.428,0,0,1,57.7,99.84c-1.006,2.1-1.95,4.231-2.978,6.321-1.023,1.887-1.768,3.907-2.774,5.8-.229.444-.438.9-.689,1.329a2.871,2.871,0,0,1-4.878.47,18.537,18.537,0,0,1-1.228-1.724c-.632-1.072-1.354-2.087-2.058-3.112-1.353-2.13-2.792-4.2-4.191-6.3a5.849,5.849,0,0,1-.851-1.772" transform="translate(-9.563 -22.685)" fill="#25e0ac"/>
      <path id="Trazado_196494" data-name="Trazado 196494" d="M38.134,103.151c1.8,2.595,3.6,5.191,5.226,7.9a2.028,2.028,0,0,1,.268.931c-.143,1.329.573,1.893,1.751,2.092.365.5.728,1.006,1.094,1.507,1.4,1.916,3.6,1.772,4.719-.3.216-.4.443-.795.665-1.191a1.328,1.328,0,0,1,.8-.27c1.482.049,1.562-.382,1.556-1.84a11.208,11.208,0,0,1,.31-3.533c1.416-3.309,3-6.536,4.6-9.76a3.443,3.443,0,0,1,.653,2.464q.021,7.368,0,14.737c-.007,2.329-.993,3.409-3.311,3.432q-7.492.076-14.987,0c-2.529-.025-3.394-1-3.39-3.553q.011-6.306.04-12.612" transform="translate(-9.644 -24.982)" fill="#20bdfc"/>
      <path id="Trazado_196495" data-name="Trazado 196495" d="M84.2,106.628c-2.58,0-5.161.013-7.742,0-1.89-.012-3.022-.993-3.034-2.574-.012-1.538,1.147-2.619,3.006-2.631q7.8-.05,15.607,0c1.841.013,3,1.125,2.975,2.665-.029,1.562-1.179,2.529-3.072,2.539-2.581.015-5.161,0-7.741,0" transform="translate(-18.587 -25.668)" fill="#126783"/>
      <path id="Trazado_196496" data-name="Trazado 196496" d="M84.228,144.392c-2.665,0-5.329.032-7.992-.011a2.6,2.6,0,1,1-.08-5.2q8.052-.059,16.106,0a2.611,2.611,0,0,1,2.755,2.624,2.651,2.651,0,0,1-2.924,2.578c-2.622.027-5.244.007-7.866.007" transform="translate(-18.594 -35.227)" fill="#126783"/>
      <path id="Trazado_196497" data-name="Trazado 196497" d="M84.214,68.856c-2.787,0-5.576.037-8.362-.019a2.365,2.365,0,0,1-2.339-2.027A2.529,2.529,0,0,1,74.863,64a4.192,4.192,0,0,1,1.826-.321q7.553-.009,15.1.007a5.248,5.248,0,0,1,1.6.232A2.547,2.547,0,0,1,95,66.595a2.467,2.467,0,0,1-2.428,2.246c-2.786.057-5.574.017-8.362.016" transform="translate(-18.599 -16.119)" fill="#126783"/>
      <path id="Trazado_196498" data-name="Trazado 196498" d="M44.421,102.539c-.494-.706-.992-1.409-1.483-2.117-1.231-1.772-2.485-2.022-4.282-.847-.479.019-.379-.26-.278-.54a2.323,2.323,0,0,1,2.437-1.727c4.315-.012,8.629.012,12.944.022q-1.221,2.607-2.444,5.213a1.583,1.583,0,0,1-1.022.394c-1.615.043-3.229.052-4.844-.005a1.76,1.76,0,0,1-1.028-.394" transform="translate(-9.694 -24.633)" fill="#20bdfc"/>
      <path id="Trazado_196499" data-name="Trazado 196499" d="M38.329,99.621c.034.21.057.426.278.54l-.476.54a1.294,1.294,0,0,1,.2-1.08" transform="translate(-9.646 -25.22)" fill="#7694c8"/>
      <path id="Trazado_196501" data-name="Trazado 196501" d="M50.737,153.166c-1.539,0-3.078-.025-4.616.011-.7.016-1.056-.131-1.046-.949q.06-4.615,0-9.232c-.01-.807.324-.966,1.037-.96,3.078.027,6.156.032,9.233,0,.777-.009,1,.273.989,1.017-.031,3.036-.043,6.073,0,9.108.014.876-.35,1.041-1.111,1.019-1.5-.043-2.994-.013-4.492-.013" transform="translate(-11.411 -35.957)" fill="#efefef"/>
      <path id="Trazado_196502" data-name="Trazado 196502" d="M45.092,72.046c0-1.5.025-3-.011-4.494-.017-.7.116-1.055.941-1.043,3.121.043,6.243.032,9.364.005.686-.006.957.183.951.912-.032,3.162-.028,6.326,0,9.489.006.666-.249.857-.881.852-3.163-.022-6.326-.031-9.489,0-.766.008-.893-.332-.881-.981.03-1.58.01-3.162.01-4.744" transform="translate(-11.412 -16.837)" fill="#efefef"/>
      <path id="Trazado_196503" data-name="Trazado 196503" d="M46.5,104.313l6.895,0c-.919,1.975-1.837,3.95-2.869,6.169L46.5,104.313" transform="translate(-11.771 -26.408)" fill="#efefef"/>
      <path id="Trazado_196504" data-name="Trazado 196504" d="M59.193,111.75c.011,1.456-.038,2.914.052,4.365.066,1.065-.335,1.435-1.351,1.311a13.52,13.52,0,0,0-1.371-.032,52.256,52.256,0,0,1,2.67-5.644" transform="translate(-14.309 -28.29)" fill="#e9eaed"/>
      <path id="Trazado_196505" data-name="Trazado 196505" d="M47.151,118.267c-2.07.1-2.072.1-2.06-1.92,0-.367.026-.734.04-1.1a16.6,16.6,0,0,1,2.019,3.022" transform="translate(-11.415 -29.175)" fill="#eaeaec"/>
    </g>
  </g>
</svg>
