<?xml version="1.0" encoding="utf-8"?>
<!-- Generator: Adobe Illustrator 26.2.1, SVG Export Plug-In . SVG Version: 6.00 Build 0)  -->
<svg version="1.1" id="Layer_1" xmlns="http://www.w3.org/2000/svg" xmlns:xlink="http://www.w3.org/1999/xlink" x="0px" y="0px"
	 viewBox="0 0 1000.9 495.3" style="enable-background:new 0 0 1000.9 495.3;" xml:space="preserve">
<style type="text/css">
	.st0{fill:#E6E6E5;}
	.st1{fill:#4E4E4E;}
	.st2{fill:#989898;}
	.st3{enable-background:new    ;}
	.st4{fill:#FFFFFF;}
	.st5{fill:none;stroke:#CCCCCC;stroke-width:3;}
	.st6{fill:none;stroke:#48BC91;stroke-width:3;}
	.st7{fill:none;stroke:#A7A9AC;stroke-width:5;stroke-miterlimit:10;}
	.st8{fill:#F36D21;}
	.st9{fill:#FFFFFF;stroke:#818181;stroke-width:3;stroke-miterlimit:10;}
	.st10{fill:#CCCCCC;}
	.st11{fill:#FFFFFF;stroke:#818181;stroke-width:5;stroke-miterlimit:10;}
</style>
<g>
	<g>
		<rect x="115.6" y="141.9" class="st0" width="140.7" height="8.8"/>
		<rect x="115.6" y="156.4" class="st0" width="140.7" height="8.8"/>
		<rect x="115.6" y="169.7" class="st0" width="98.9" height="8.8"/>
		<g>
			<path class="st1" d="M123.6,114.9h-3.8v9.7h-2.1v-9.7H114v-1.9h9.6V114.9z"/>
			<path class="st1" d="M124,113.8l3.2-2.8l1.2,1.6L125,115L124,113.8z M125.1,115.9h2v8.6h-2V115.9z"/>
			<path class="st1" d="M135.5,122.7v1.7c-0.8,0.3-1.5,0.4-2.4,0.4c-2.2,0-3-1.1-3-3.3v-3.7h-1.3v-1.8h1.4l0.5-2.2h1.4v2.2h3.3v1.8
				h-3.3v3.5c0,1.3,0.4,1.8,1.7,1.8C134.3,123,134.9,122.9,135.5,122.7z"/>
			<path class="st1" d="M144.7,115.9v8.6h-1.7l-0.1-0.8c-0.8,0.7-1.7,1.1-2.8,1.1c-2.2,0-3.1-1.1-3.1-3.6v-5.3h2v5.1
				c0,1.4,0.5,2,1.5,2c0.7,0,1.5-0.3,2.1-1v-6.1H144.7z"/>
			<path class="st1" d="M147.1,112.2h2v12.3h-2V112.2z"/>
			<path class="st1" d="M151,120.3c0-2.8,1.7-4.6,4.4-4.6c2.7,0,4.4,1.7,4.4,4.5c0,2.8-1.7,4.6-4.5,4.6
				C152.6,124.8,151,123.1,151,120.3z M157.8,120.2c0-1.8-0.9-2.8-2.4-2.8c-1.4,0-2.4,1-2.4,2.8c0,1.8,0.9,2.8,2.4,2.8
				C156.9,123.1,157.8,122,157.8,120.2z"/>
			<path class="st1" d="M165.1,124.3v-1.8c0.9,0.5,2,0.7,3.1,0.7c1.3,0,1.9-0.3,1.9-1c0-0.6-0.4-0.9-2-1.2c-2-0.3-2.9-1.1-2.9-2.6
				c0-1.7,1.3-2.7,3.6-2.7c1.2,0,2.1,0.1,2.9,0.4v1.7c-1-0.4-1.9-0.5-2.8-0.5c-1.2,0-1.7,0.3-1.7,0.9c0,0.6,0.4,0.8,2.2,1.1
				c2,0.3,2.9,1.1,2.9,2.7c0,1.8-1.3,2.8-3.8,2.8C167.1,124.8,165.9,124.6,165.1,124.3z"/>
			<path class="st1" d="M181.6,115.9v8.6h-1.7l-0.1-0.8c-0.8,0.7-1.7,1.1-2.8,1.1c-2.2,0-3.1-1.1-3.1-3.6v-5.3h2v5.1
				c0,1.4,0.5,2,1.5,2c0.7,0,1.5-0.3,2.1-1v-6.1H181.6z"/>
			<path class="st1" d="M192.2,120.1c0,2.8-1.4,4.8-4.5,4.8c-1.3,0-2.6-0.1-3.8-0.5v-12h2v4.4c0.7-0.7,1.6-1,2.7-1
				C190.9,115.7,192.2,117.3,192.2,120.1z M190.2,120.2c0-1.8-0.8-2.7-2-2.7c-0.9,0-1.7,0.5-2.1,1v4.4c0.6,0.1,1.2,0.2,1.7,0.2
				C189.4,123.1,190.2,121.9,190.2,120.2z"/>
			<path class="st1" d="M200,122.7v1.7c-0.8,0.3-1.5,0.4-2.4,0.4c-2.2,0-3-1.1-3-3.3v-3.7h-1.3v-1.8h1.4l0.5-2.2h1.4v2.2h3.3v1.8
				h-3.3v3.5c0,1.3,0.4,1.8,1.7,1.8C198.7,123,199.4,122.9,200,122.7z"/>
			<path class="st1" d="M208.9,119.8c0,0.4,0,0.7,0,1h-6c0.2,1.5,1.1,2.2,2.8,2.2c1.1,0,1.8-0.1,2.8-0.5v1.7c-1,0.3-1.8,0.5-3.1,0.5
				c-2.9,0-4.5-1.7-4.5-4.5c0-2.8,1.6-4.6,4.2-4.6C207.5,115.7,208.9,117.1,208.9,119.8z M203,119.4h4c-0.1-1.4-0.8-2.1-1.9-2.1
				C204,117.4,203.2,118.1,203,119.4z"/>
			<path class="st1" d="M223.2,118.9v5.7h-2v-5.4c0-1.2-0.5-1.7-1.4-1.7c-0.7,0-1.3,0.3-1.8,1v6.1h-2V119c0-1.1-0.5-1.6-1.4-1.6
				c-0.6,0-1.2,0.3-1.8,1v6.1h-2v-8.6h1.7l0.1,0.8c0.7-0.7,1.6-1.1,2.7-1.1c1.2,0,1.9,0.5,2.3,1.2c0.7-0.9,1.6-1.2,2.8-1.2
				C222.4,115.7,223.2,117.1,223.2,118.9z"/>
			<path class="st1" d="M232.5,119.3v5.2h-1.7l-0.1-0.7c-0.7,0.6-1.6,1-2.9,1c-1.8,0-2.9-1-2.9-2.6c0-1.7,1.2-2.7,3.3-2.7
				c0.9,0,1.6,0.1,2.3,0.3v-0.7c0-1.2-0.6-1.7-2.1-1.7c-1.1,0-2,0.2-2.7,0.5v-1.8c0.8-0.3,1.9-0.5,3-0.5
				C231.4,115.7,232.5,116.8,232.5,119.3z M230.4,122.4v-1.2c-0.6-0.2-1.3-0.3-1.8-0.3c-1.1,0-1.7,0.4-1.7,1.2
				c0,0.9,0.6,1.2,1.4,1.2C229.2,123.3,229.9,123,230.4,122.4z"/>
			<path class="st1" d="M238.1,119.4c0-3.1,1.4-6,4.2-7.5l0.9,1.3c-2.1,1.4-3.1,3.6-3.1,6.2c0,2.6,1,4.8,3.1,6.1l-0.9,1.3
				C239.5,125.5,238.1,122.5,238.1,119.4z"/>
			<path class="st1" d="M250.4,122.7v1.9h-6.1v-1.9h2.1v-7.4l-2.3,0.7v-2l2.8-1h1.6v9.6H250.4z"/>
			<path class="st1" d="M256.2,119.4c0,3.1-1.4,6-4.2,7.5l-0.9-1.3c2.1-1.4,3.1-3.6,3.1-6.2c0-2.6-1-4.8-3.1-6.1l0.9-1.3
				C254.8,113.4,256.2,116.3,256.2,119.4z"/>
		</g>
		<rect x="107.8" y="246.6" class="st0" width="140.7" height="8.8"/>
		<rect x="107.8" y="261.1" class="st0" width="140.7" height="8.8"/>
		<rect x="107.8" y="274.4" class="st0" width="98.9" height="8.8"/>
		<g>
			<path class="st1" d="M115.8,219.6H112v9.7h-2.1v-9.7h-3.8v-1.9h9.6V219.6z"/>
			<path class="st1" d="M116.2,218.5l3.2-2.8l1.2,1.6l-3.4,2.5L116.2,218.5z M117.3,220.6h2v8.6h-2V220.6z"/>
			<path class="st1" d="M127.7,227.4v1.7c-0.8,0.3-1.5,0.4-2.4,0.4c-2.2,0-3-1.1-3-3.3v-3.7h-1.3v-1.8h1.4l0.5-2.2h1.4v2.2h3.3v1.8
				h-3.3v3.5c0,1.3,0.4,1.8,1.7,1.8C126.4,227.7,127.1,227.6,127.7,227.4z"/>
			<path class="st1" d="M136.8,220.6v8.6h-1.7l-0.1-0.8c-0.8,0.7-1.7,1.1-2.8,1.1c-2.2,0-3.1-1.1-3.1-3.6v-5.3h2v5.1
				c0,1.4,0.5,2,1.5,2c0.7,0,1.5-0.3,2.1-1v-6.1H136.8z"/>
			<path class="st1" d="M139.2,216.9h2v12.3h-2V216.9z"/>
			<path class="st1" d="M143.1,225c0-2.8,1.7-4.6,4.4-4.6c2.7,0,4.4,1.7,4.4,4.5c0,2.8-1.7,4.6-4.5,4.6
				C144.8,229.5,143.1,227.8,143.1,225z M149.9,224.9c0-1.8-0.9-2.8-2.4-2.8c-1.4,0-2.4,1-2.4,2.8c0,1.8,0.9,2.8,2.4,2.8
				C149,227.8,149.9,226.7,149.9,224.9z"/>
			<path class="st1" d="M157.2,229v-1.8c0.9,0.5,2,0.7,3.1,0.7c1.3,0,1.9-0.3,1.9-1c0-0.6-0.4-0.9-2-1.2c-2-0.3-2.9-1.1-2.9-2.6
				c0-1.7,1.3-2.7,3.6-2.7c1.2,0,2.1,0.1,2.9,0.4v1.7c-1-0.4-1.9-0.5-2.8-0.5c-1.2,0-1.7,0.3-1.7,0.9c0,0.6,0.4,0.8,2.2,1.1
				c2,0.3,2.9,1.1,2.9,2.7c0,1.8-1.3,2.8-3.8,2.8C159.2,229.5,158,229.3,157.2,229z"/>
			<path class="st1" d="M173.7,220.6v8.6H172l-0.1-0.8c-0.8,0.7-1.7,1.1-2.8,1.1c-2.2,0-3.1-1.1-3.1-3.6v-5.3h2v5.1
				c0,1.4,0.5,2,1.5,2c0.7,0,1.5-0.3,2.1-1v-6.1H173.7z"/>
			<path class="st1" d="M184.3,224.8c0,2.8-1.4,4.8-4.5,4.8c-1.3,0-2.6-0.1-3.8-0.5v-12h2v4.4c0.7-0.7,1.6-1,2.7-1
				C183.1,220.4,184.3,222,184.3,224.8z M182.3,224.9c0-1.8-0.8-2.7-2-2.7c-0.9,0-1.7,0.5-2.1,1v4.4c0.6,0.1,1.2,0.2,1.7,0.2
				C181.6,227.8,182.3,226.6,182.3,224.9z"/>
			<path class="st1" d="M192.1,227.4v1.7c-0.8,0.3-1.5,0.4-2.4,0.4c-2.2,0-3-1.1-3-3.3v-3.7h-1.3v-1.8h1.4l0.5-2.2h1.4v2.2h3.3v1.8
				h-3.3v3.5c0,1.3,0.4,1.8,1.7,1.8C190.9,227.7,191.5,227.6,192.1,227.4z"/>
			<path class="st1" d="M201.1,224.6c0,0.4,0,0.7,0,1h-6c0.2,1.5,1.1,2.2,2.8,2.2c1.1,0,1.8-0.1,2.8-0.5v1.7c-1,0.3-1.8,0.5-3.1,0.5
				c-2.9,0-4.5-1.7-4.5-4.5c0-2.8,1.6-4.6,4.2-4.6C199.6,220.4,201.1,221.8,201.1,224.6z M195.1,224.1h4c-0.1-1.4-0.8-2.1-1.9-2.1
				C196.1,222.1,195.3,222.8,195.1,224.1z"/>
			<path class="st1" d="M215.4,223.6v5.7h-2v-5.4c0-1.2-0.5-1.7-1.4-1.7c-0.7,0-1.3,0.3-1.8,1v6.1h-2v-5.5c0-1.1-0.5-1.6-1.4-1.6
				c-0.6,0-1.2,0.3-1.8,1v6.1h-2v-8.6h1.7l0.1,0.8c0.7-0.7,1.6-1.1,2.7-1.1c1.2,0,1.9,0.5,2.3,1.2c0.7-0.9,1.6-1.2,2.8-1.2
				C214.6,220.4,215.4,221.8,215.4,223.6z"/>
			<path class="st1" d="M224.6,224v5.2h-1.7l-0.1-0.7c-0.7,0.6-1.6,1-2.9,1c-1.8,0-2.9-1-2.9-2.6c0-1.7,1.2-2.7,3.3-2.7
				c0.9,0,1.6,0.1,2.3,0.3v-0.7c0-1.2-0.6-1.7-2.1-1.7c-1.1,0-2,0.2-2.7,0.5v-1.8c0.8-0.3,1.9-0.5,3-0.5
				C223.5,220.4,224.6,221.5,224.6,224z M222.6,227.1v-1.2c-0.6-0.2-1.3-0.3-1.8-0.3c-1.1,0-1.7,0.4-1.7,1.2c0,0.9,0.6,1.2,1.4,1.2
				C221.3,228,222,227.7,222.6,227.1z"/>
			<path class="st1" d="M230.2,224.1c0-3.1,1.4-6,4.2-7.5l0.9,1.3c-2.1,1.4-3.1,3.6-3.1,6.2c0,2.6,1,4.8,3.1,6.1l-0.9,1.3
				C231.6,230.2,230.2,227.2,230.2,224.1z"/>
			<path class="st1" d="M244.6,227.4v1.8h-8.3v-1.7l3.5-3c1.4-1.2,2.2-2,2.2-3.4c0-1.3-0.9-2-2.4-2c-1.1,0-2.2,0.2-3.2,0.7v-1.9
				c1-0.4,2.4-0.7,3.7-0.7c2.5,0,4.1,1.2,4.1,3.6c0,2.3-1.3,3.6-3.2,5.1l-1.7,1.3H244.6z"/>
			<path class="st1" d="M250.6,224.1c0,3.1-1.4,6-4.2,7.5l-0.9-1.3c2.1-1.4,3.1-3.6,3.1-6.2c0-2.6-1-4.8-3.1-6.1l0.9-1.3
				C249.2,218.1,250.6,221,250.6,224.1z"/>
		</g>
		<rect x="107.8" y="348" class="st0" width="140.7" height="8.8"/>
		<rect x="107.8" y="362.6" class="st0" width="140.7" height="8.8"/>
		<rect x="107.8" y="375.9" class="st0" width="98.9" height="8.8"/>
		<g>
			<path class="st1" d="M115.8,321.1H112v9.7h-2.1v-9.7h-3.8v-1.9h9.6V321.1z"/>
			<path class="st1" d="M116.2,319.9l3.2-2.8l1.2,1.6l-3.4,2.5L116.2,319.9z M117.3,322.1h2v8.6h-2V322.1z"/>
			<path class="st1" d="M127.7,328.9v1.7c-0.8,0.3-1.5,0.4-2.4,0.4c-2.2,0-3-1.1-3-3.3v-3.7h-1.3v-1.8h1.4l0.5-2.2h1.4v2.2h3.3v1.8
				h-3.3v3.5c0,1.3,0.4,1.8,1.7,1.8C126.4,329.2,127.1,329.1,127.7,328.9z"/>
			<path class="st1" d="M136.8,322.1v8.6h-1.7l-0.1-0.8c-0.8,0.7-1.7,1.1-2.8,1.1c-2.2,0-3.1-1.1-3.1-3.6v-5.3h2v5.1
				c0,1.4,0.5,2,1.5,2c0.7,0,1.5-0.3,2.1-1v-6.1H136.8z"/>
			<path class="st1" d="M139.2,318.4h2v12.3h-2V318.4z"/>
			<path class="st1" d="M143.1,326.5c0-2.8,1.7-4.6,4.4-4.6c2.7,0,4.4,1.7,4.4,4.5c0,2.8-1.7,4.6-4.5,4.6
				C144.8,331,143.1,329.3,143.1,326.5z M149.9,326.4c0-1.8-0.9-2.8-2.4-2.8c-1.4,0-2.4,1-2.4,2.8c0,1.8,0.9,2.8,2.4,2.8
				C149,329.2,149.9,328.2,149.9,326.4z"/>
			<path class="st1" d="M157.2,330.5v-1.8c0.9,0.5,2,0.7,3.1,0.7c1.3,0,1.9-0.3,1.9-1c0-0.6-0.4-0.9-2-1.2c-2-0.3-2.9-1.1-2.9-2.6
				c0-1.7,1.3-2.7,3.6-2.7c1.2,0,2.1,0.1,2.9,0.4v1.7c-1-0.4-1.9-0.5-2.8-0.5c-1.2,0-1.7,0.3-1.7,0.9c0,0.6,0.4,0.8,2.2,1.1
				c2,0.3,2.9,1.1,2.9,2.7c0,1.8-1.3,2.8-3.8,2.8C159.2,331,158,330.8,157.2,330.5z"/>
			<path class="st1" d="M173.7,322.1v8.6H172l-0.1-0.8c-0.8,0.7-1.7,1.1-2.8,1.1c-2.2,0-3.1-1.1-3.1-3.6v-5.3h2v5.1
				c0,1.4,0.5,2,1.5,2c0.7,0,1.5-0.3,2.1-1v-6.1H173.7z"/>
			<path class="st1" d="M184.3,326.2c0,2.8-1.4,4.8-4.5,4.8c-1.3,0-2.6-0.1-3.8-0.5v-12h2v4.4c0.7-0.7,1.6-1,2.7-1
				C183.1,321.8,184.3,323.5,184.3,326.2z M182.3,326.3c0-1.8-0.8-2.7-2-2.7c-0.9,0-1.7,0.5-2.1,1v4.4c0.6,0.1,1.2,0.2,1.7,0.2
				C181.6,329.2,182.3,328.1,182.3,326.3z"/>
			<path class="st1" d="M192.1,328.9v1.7c-0.8,0.3-1.5,0.4-2.4,0.4c-2.2,0-3-1.1-3-3.3v-3.7h-1.3v-1.8h1.4l0.5-2.2h1.4v2.2h3.3v1.8
				h-3.3v3.5c0,1.3,0.4,1.8,1.7,1.8C190.9,329.2,191.5,329.1,192.1,328.9z"/>
			<path class="st1" d="M201.1,326c0,0.4,0,0.7,0,1h-6c0.2,1.5,1.1,2.2,2.8,2.2c1.1,0,1.8-0.1,2.8-0.5v1.7c-1,0.3-1.8,0.5-3.1,0.5
				c-2.9,0-4.5-1.7-4.5-4.5c0-2.8,1.6-4.6,4.2-4.6C199.6,321.8,201.1,323.2,201.1,326z M195.1,325.6h4c-0.1-1.4-0.8-2.1-1.9-2.1
				C196.1,323.6,195.3,324.2,195.1,325.6z"/>
			<path class="st1" d="M215.4,325v5.7h-2v-5.4c0-1.2-0.5-1.7-1.4-1.7c-0.7,0-1.3,0.3-1.8,1v6.1h-2v-5.5c0-1.1-0.5-1.6-1.4-1.6
				c-0.6,0-1.2,0.3-1.8,1v6.1h-2v-8.6h1.7l0.1,0.8c0.7-0.7,1.6-1.1,2.7-1.1c1.2,0,1.9,0.5,2.3,1.2c0.7-0.9,1.6-1.2,2.8-1.2
				C214.6,321.8,215.4,323.2,215.4,325z"/>
			<path class="st1" d="M224.6,325.5v5.2h-1.7l-0.1-0.7c-0.7,0.6-1.6,1-2.9,1c-1.8,0-2.9-1-2.9-2.6c0-1.7,1.2-2.7,3.3-2.7
				c0.9,0,1.6,0.1,2.3,0.3v-0.7c0-1.2-0.6-1.7-2.1-1.7c-1.1,0-2,0.2-2.7,0.5v-1.8c0.8-0.3,1.9-0.5,3-0.5
				C223.5,321.8,224.6,323,224.6,325.5z M222.6,328.6v-1.2c-0.6-0.2-1.3-0.3-1.8-0.3c-1.1,0-1.7,0.4-1.7,1.2c0,0.9,0.6,1.2,1.4,1.2
				C221.3,329.4,222,329.2,222.6,328.6z"/>
			<path class="st1" d="M230.2,325.6c0-3.1,1.4-6,4.2-7.5l0.9,1.3c-2.1,1.4-3.1,3.6-3.1,6.2c0,2.6,1,4.8,3.1,6.1l-0.9,1.3
				C231.6,331.7,230.2,328.7,230.2,325.6z"/>
			<path class="st1" d="M244.7,327.4c0,2.3-1.5,3.7-4.8,3.7c-1.6,0-2.7-0.2-3.6-0.7v-1.9c0.9,0.5,2.1,0.8,3.5,0.8
				c1.6,0,2.6-0.6,2.6-1.9c0-1.2-0.8-1.7-2.1-1.7c-0.7,0-1.1,0-1.6,0.2l-0.7-1.3l3.3-3.3h-4.9v-1.9h7.7v1.5l-3.4,3.3
				c0.1,0,0.3,0,0.4,0C243.3,324,244.7,325.2,244.7,327.4z"/>
			<path class="st1" d="M250.8,325.6c0,3.1-1.4,6-4.2,7.5l-0.9-1.3c2.1-1.4,3.1-3.6,3.1-6.2c0-2.6-1-4.8-3.1-6.1l0.9-1.3
				C249.4,319.6,250.8,322.5,250.8,325.6z"/>
		</g>
		<g id="Grupo_53351" transform="translate(-15 -27)">
			<g id="Grupo_20664" transform="translate(15 27)">
				<path id="Trazado_99075" class="st2" d="M83.7,110.6c7.8,0,14.1,6.3,14.1,14.1s-6.3,14.1-14.1,14.1s-14.1-6.3-14.1-14.1
					S75.9,110.6,83.7,110.6z"/>
				<g class="st3">
					<path class="st4" d="M84.9,129.5h-1.9v-7.4l-2.3,0.7v-1.5l4-1.4h0.2V129.5z"/>
				</g>
			</g>
		</g>
		<polyline class="st5" points="83.7,138.8 83.7,199.4 288.3,199.4 288.3,231 		"/>
		<polyline class="st5" points="288.3,258.6 288.3,301.9 83.7,301.9 83.7,343.3 		"/>
		<path class="st6" d="M288.3,237.3"/>
		<g id="Grupo_53351_00000040565108457355006700000002438819499892966335_" transform="translate(-15 -27)">
			<g id="Grupo_20664_00000140735132722525064720000018383207393962220474_" transform="translate(15 27)">
				<path id="Trazado_99075_00000134933953143844123220000007527846187981122977_" class="st2" d="M288.3,231
					c7.8,0,14.1,6.3,14.1,14.1s-6.3,14.1-14.1,14.1s-14.1-6.3-14.1-14.1S280.5,231,288.3,231z"/>
				<g class="st3">
					<path class="st4" d="M291.4,249.9h-6.6v-1.3l3.1-3.3c0.4-0.5,0.7-0.9,0.9-1.2c0.2-0.3,0.3-0.7,0.3-1c0-0.4-0.1-0.8-0.3-1
						c-0.2-0.2-0.5-0.4-0.9-0.4c-0.4,0-0.8,0.1-1,0.4c-0.2,0.3-0.4,0.7-0.4,1.2h-1.9c0-0.6,0.1-1.1,0.4-1.6c0.3-0.5,0.7-0.9,1.2-1.1
						s1.1-0.4,1.7-0.4c1,0,1.8,0.2,2.3,0.7c0.5,0.5,0.8,1.1,0.8,2c0,0.5-0.1,1-0.4,1.5c-0.2,0.5-0.7,1.1-1.3,1.7l-2.2,2.3h4.1V249.9
						z"/>
				</g>
			</g>
		</g>
		<g id="Grupo_53351_00000075162088786506679040000012413906320027870387_" transform="translate(-15 -27)">
			<g id="Grupo_20664_00000176016043749620941240000008759560679328540861_" transform="translate(15 27)">
				<path id="Trazado_99075_00000035512775229080010570000007215604609687555990_" class="st2" d="M83.7,319.5
					c7.8,0,14.1,6.3,14.1,14.1s-6.3,14.1-14.1,14.1s-14.1-6.3-14.1-14.1S75.9,319.5,83.7,319.5z"/>
				<g class="st3">
					<path class="st4" d="M82.2,332.8h1c0.5,0,0.8-0.1,1.1-0.4s0.4-0.6,0.4-1c0-0.4-0.1-0.7-0.3-0.9s-0.5-0.3-1-0.3
						c-0.4,0-0.7,0.1-0.9,0.3S82,331,82,331.3h-1.9c0-0.5,0.1-1,0.4-1.4c0.3-0.4,0.6-0.7,1.1-0.9s1-0.3,1.6-0.3c1,0,1.8,0.2,2.4,0.7
						c0.6,0.5,0.9,1.2,0.9,2c0,0.4-0.1,0.8-0.4,1.2c-0.3,0.4-0.6,0.7-1.1,0.9c0.5,0.2,0.9,0.5,1.2,0.9s0.4,0.8,0.4,1.4
						c0,0.9-0.3,1.5-0.9,2.1c-0.6,0.5-1.4,0.8-2.5,0.8c-1,0-1.7-0.3-2.4-0.8s-0.9-1.2-0.9-2h1.9c0,0.4,0.1,0.7,0.4,0.9
						c0.3,0.2,0.6,0.3,1,0.3c0.5,0,0.8-0.1,1.1-0.4c0.3-0.2,0.4-0.6,0.4-1c0-1-0.5-1.4-1.6-1.4h-1V332.8z"/>
				</g>
			</g>
		</g>
	</g>
	<path class="st7" d="M317.6,422.1H54.4c-8,0-14.5-6.5-14.5-14.5v-320c0-8,6.5-14.5,14.5-14.5h263.2c8,0,14.5,6.5,14.5,14.5v320
		C332.1,415.6,325.6,422.1,317.6,422.1z"/>
	<path class="st7" d="M940.2,422.1H378.8c-11.5,0-20.8-9.3-20.8-20.8V94c0-11.5,9.3-20.8,20.8-20.8h561.4c11.5,0,20.8,9.3,20.8,20.8
		v307.3C961,412.8,951.7,422.1,940.2,422.1z"/>
	<g>
		<polygon class="st8" points="397.5,265 381,248.5 397.7,231.7 401.2,235.3 388,248.5 401,261.5 		"/>
		<polygon class="st8" points="916.4,231.7 932.9,248.2 916.1,265 912.6,261.5 925.9,248.2 912.9,235.3 		"/>
		<path class="st9" d="M559,341H431.2c-4,0-7.2-3.2-7.2-7.2V173.4c0-4,3.2-7.2,7.2-7.2H559c4,0,7.2,3.2,7.2,7.2v160.5
			C566.2,337.8,563,341,559,341z"/>
		<rect x="445.9" y="213" class="st10" width="100.6" height="13.6"/>
		<rect x="445.6" y="242.3" class="st0" width="100.9" height="11.9"/>
		<rect x="445.6" y="265.9" class="st0" width="100.9" height="11.9"/>
		<rect x="445.6" y="285.4" class="st0" width="100.9" height="11.9"/>
		<rect x="445.6" y="303.3" class="st0" width="70.9" height="11.9"/>
		<path class="st9" d="M723.4,341H595.6c-4,0-7.2-3.2-7.2-7.2V173.4c0-4,3.2-7.2,7.2-7.2h127.8c4,0,7.2,3.2,7.2,7.2v160.5
			C730.5,337.8,727.3,341,723.4,341z"/>
		<rect x="610.2" y="213" class="st10" width="100.6" height="13.6"/>
		<rect x="609.9" y="242.3" class="st0" width="100.9" height="11.9"/>
		<rect x="609.9" y="265.9" class="st0" width="100.9" height="11.9"/>
		<rect x="609.9" y="285.4" class="st0" width="100.9" height="11.9"/>
		<rect x="609.9" y="303.3" class="st0" width="70.9" height="11.9"/>
		<path class="st9" d="M888.1,341H760.3c-4,0-7.2-3.2-7.2-7.2V173.4c0-4,3.2-7.2,7.2-7.2h127.8c4,0,7.2,3.2,7.2,7.2v160.5
			C895.2,337.8,892,341,888.1,341z"/>
		<rect x="775" y="213" class="st10" width="100.6" height="13.6"/>
		<rect x="774.6" y="242.3" class="st0" width="100.9" height="11.9"/>
		<rect x="774.6" y="265.9" class="st0" width="100.9" height="11.9"/>
		<rect x="774.6" y="285.4" class="st0" width="100.9" height="11.9"/>
		<rect x="774.6" y="303.3" class="st0" width="70.9" height="11.9"/>
		<circle class="st11" cx="424.1" cy="195.5" r="17.1"/>
		<g>
			<path class="st1" d="M459.9,193.9h-2.5v6.3H456v-6.3h-2.5v-1.2h6.3V193.9z"/>
			<path class="st1" d="M460.1,193.2l2.1-1.9l0.8,1l-2.2,1.6L460.1,193.2z M460.9,194.6h1.3v5.7h-1.3V194.6z"/>
			<path class="st1" d="M467.7,199v1.1c-0.5,0.2-1,0.3-1.6,0.3c-1.4,0-2-0.7-2-2.2v-2.4h-0.9v-1.2h0.9l0.4-1.4h0.9v1.4h2.1v1.2h-2.1
				v2.3c0,0.9,0.3,1.2,1.1,1.2C466.9,199.3,467.3,199.2,467.7,199z"/>
			<path class="st1" d="M473.7,194.6v5.7h-1.1l-0.1-0.5c-0.5,0.5-1.1,0.7-1.9,0.7c-1.5,0-2-0.7-2-2.3v-3.5h1.3v3.4
				c0,0.9,0.3,1.3,1,1.3c0.5,0,1-0.2,1.4-0.7v-4H473.7z"/>
			<path class="st1" d="M475.3,192.2h1.3v8.1h-1.3V192.2z"/>
			<path class="st1" d="M477.9,197.5c0-1.8,1.1-3,2.9-3c1.8,0,2.9,1.1,2.9,3c0,1.8-1.1,3-2.9,3C478.9,200.4,477.9,199.3,477.9,197.5
				z M482.3,197.4c0-1.2-0.6-1.9-1.6-1.9c-1,0-1.6,0.7-1.6,1.9c0,1.2,0.6,1.9,1.6,1.9C481.7,199.3,482.3,198.6,482.3,197.4z"/>
			<path class="st1" d="M487.1,200.1v-1.2c0.6,0.3,1.3,0.5,2,0.5c0.9,0,1.2-0.2,1.2-0.7c0-0.4-0.3-0.6-1.3-0.8
				c-1.3-0.2-1.9-0.7-1.9-1.7c0-1.1,0.8-1.8,2.4-1.8c0.8,0,1.4,0.1,1.9,0.3v1.1c-0.7-0.2-1.2-0.3-1.9-0.3c-0.8,0-1.1,0.2-1.1,0.6
				c0,0.4,0.3,0.5,1.4,0.7c1.3,0.2,1.9,0.7,1.9,1.8c0,1.2-0.9,1.8-2.5,1.8C488.4,200.4,487.7,200.3,487.1,200.1z"/>
			<path class="st1" d="M497.9,194.6v5.7h-1.1l-0.1-0.5c-0.5,0.5-1.1,0.7-1.9,0.7c-1.5,0-2-0.7-2-2.3v-3.5h1.3v3.4
				c0,0.9,0.3,1.3,1,1.3c0.5,0,1-0.2,1.4-0.7v-4H497.9z"/>
			<path class="st1" d="M504.9,197.3c0,1.8-1,3.1-2.9,3.1c-0.9,0-1.7-0.1-2.5-0.4v-7.9h1.3v2.9c0.4-0.4,1-0.7,1.8-0.7
				C504.1,194.4,504.9,195.5,504.9,197.3z M503.6,197.4c0-1.2-0.5-1.8-1.3-1.8c-0.6,0-1.1,0.3-1.4,0.7v2.9c0.4,0.1,0.8,0.1,1.1,0.1
				C503.1,199.3,503.6,198.6,503.6,197.4z"/>
			<path class="st1" d="M510,199v1.1c-0.5,0.2-1,0.3-1.6,0.3c-1.4,0-2-0.7-2-2.2v-2.4h-0.9v-1.2h0.9l0.4-1.4h0.9v1.4h2.1v1.2h-2.1
				v2.3c0,0.9,0.3,1.2,1.1,1.2C509.2,199.3,509.7,199.2,510,199z"/>
			<path class="st1" d="M515.9,197.2c0,0.2,0,0.5,0,0.7H512c0.1,1,0.7,1.5,1.8,1.5c0.7,0,1.2-0.1,1.8-0.3v1.1
				c-0.6,0.2-1.2,0.3-2,0.3c-1.9,0-2.9-1.1-2.9-3c0-1.8,1-3,2.8-3C515,194.4,515.9,195.3,515.9,197.2z M512,196.9h2.6
				c0-1-0.5-1.4-1.2-1.4C512.7,195.6,512.2,196,512,196.9z"/>
			<path class="st1" d="M525.3,196.5v3.7H524v-3.6c0-0.8-0.3-1.1-0.9-1.1c-0.4,0-0.8,0.2-1.2,0.7v4h-1.3v-3.6c0-0.7-0.3-1-0.9-1
				c-0.4,0-0.8,0.2-1.2,0.7v4h-1.3v-5.7h1.1l0.1,0.5c0.5-0.5,1-0.7,1.8-0.7c0.8,0,1.3,0.3,1.5,0.8c0.5-0.6,1.1-0.8,1.8-0.8
				C524.8,194.4,525.3,195.3,525.3,196.5z"/>
			<path class="st1" d="M531.4,196.8v3.4h-1.1l-0.1-0.5c-0.5,0.4-1.1,0.6-1.9,0.6c-1.2,0-1.9-0.6-1.9-1.7c0-1.1,0.8-1.8,2.1-1.8
				c0.6,0,1,0.1,1.5,0.2v-0.4c0-0.8-0.4-1.1-1.4-1.1c-0.7,0-1.3,0.1-1.8,0.3v-1.2c0.5-0.2,1.2-0.3,2-0.3
				C530.7,194.4,531.4,195.2,531.4,196.8z M530.1,198.9v-0.8c-0.4-0.1-0.8-0.2-1.2-0.2c-0.7,0-1.1,0.2-1.1,0.8
				c0,0.6,0.4,0.8,0.9,0.8C529.2,199.4,529.7,199.2,530.1,198.9z"/>
			<path class="st1" d="M535.1,196.9c0-2,0.9-4,2.8-4.9l0.6,0.9c-1.4,0.9-2,2.4-2,4.1c0,1.7,0.6,3.1,2,4l-0.6,0.9
				C536,200.9,535.1,199,535.1,196.9z"/>
			<path class="st1" d="M543.2,199v1.2h-4V199h1.4v-4.9l-1.5,0.5v-1.3l1.8-0.6h1v6.3H543.2z"/>
			<path class="st1" d="M547,196.9c0,2-0.9,4-2.8,4.9l-0.6-0.9c1.4-0.9,2-2.4,2-4.1c0-1.7-0.6-3.1-2-4l0.6-0.9
				C546.1,192.9,547,194.9,547,196.9z"/>
		</g>
		<g>
			<path class="st1" d="M427.4,199v1.9h-6.1V199h2.1v-7.4l-2.3,0.7v-2l2.8-1h1.6v9.6H427.4z"/>
		</g>
		<circle class="st11" cx="590" cy="195.5" r="17.1"/>
		<g>
			<path class="st1" d="M593.6,199v1.8h-8.3v-1.7l3.5-3c1.4-1.2,2.2-2,2.2-3.4c0-1.3-0.9-2-2.4-2c-1.1,0-2.2,0.2-3.2,0.7v-1.9
				c1-0.4,2.4-0.7,3.7-0.7c2.5,0,4.1,1.2,4.1,3.6c0,2.3-1.3,3.6-3.2,5.1l-1.7,1.3H593.6z"/>
		</g>
		<circle class="st11" cx="755.2" cy="195.5" r="17.1"/>
		<g>
			<path class="st1" d="M758.9,197.5c0,2.3-1.5,3.7-4.8,3.7c-1.6,0-2.7-0.2-3.6-0.7v-1.9c0.9,0.5,2.1,0.8,3.5,0.8
				c1.6,0,2.6-0.6,2.6-1.9c0-1.2-0.8-1.7-2.1-1.7c-0.7,0-1.1,0-1.6,0.2l-0.7-1.3l3.3-3.3h-4.9v-1.9h7.7v1.5l-3.4,3.3
				c0.1,0,0.3,0,0.4,0C757.5,194.1,758.9,195.2,758.9,197.5z"/>
		</g>
		<g>
			<path class="st1" d="M623.8,193.9h-2.5v6.3H620v-6.3h-2.5v-1.2h6.3V193.9z"/>
			<path class="st1" d="M624.1,193.2l2.1-1.9l0.8,1l-2.2,1.6L624.1,193.2z M624.8,194.6h1.3v5.7h-1.3V194.6z"/>
			<path class="st1" d="M631.6,199v1.1c-0.5,0.2-1,0.3-1.6,0.3c-1.4,0-2-0.7-2-2.2v-2.4h-0.9v-1.2h0.9l0.4-1.4h0.9v1.4h2.1v1.2h-2.1
				v2.3c0,0.9,0.3,1.2,1.1,1.2C630.8,199.3,631.3,199.2,631.6,199z"/>
			<path class="st1" d="M637.7,194.6v5.7h-1.1l-0.1-0.5c-0.5,0.5-1.1,0.7-1.9,0.7c-1.5,0-2-0.7-2-2.3v-3.5h1.3v3.4
				c0,0.9,0.3,1.3,1,1.3c0.5,0,1-0.2,1.4-0.7v-4H637.7z"/>
			<path class="st1" d="M639.2,192.2h1.3v8.1h-1.3V192.2z"/>
			<path class="st1" d="M641.8,197.5c0-1.8,1.1-3,2.9-3c1.8,0,2.9,1.1,2.9,3c0,1.8-1.1,3-2.9,3C642.9,200.4,641.8,199.3,641.8,197.5
				z M646.3,197.4c0-1.2-0.6-1.9-1.6-1.9c-1,0-1.6,0.7-1.6,1.9c0,1.2,0.6,1.9,1.6,1.9C645.7,199.3,646.3,198.6,646.3,197.4z"/>
			<path class="st1" d="M651.1,200.1v-1.2c0.6,0.3,1.3,0.5,2,0.5c0.9,0,1.2-0.2,1.2-0.7c0-0.4-0.3-0.6-1.3-0.8
				c-1.3-0.2-1.9-0.7-1.9-1.7c0-1.1,0.8-1.8,2.4-1.8c0.8,0,1.4,0.1,1.9,0.3v1.1c-0.7-0.2-1.2-0.3-1.9-0.3c-0.8,0-1.1,0.2-1.1,0.6
				c0,0.4,0.3,0.5,1.4,0.7c1.3,0.2,1.9,0.7,1.9,1.8c0,1.2-0.9,1.8-2.5,1.8C652.4,200.4,651.6,200.3,651.1,200.1z"/>
			<path class="st1" d="M661.9,194.6v5.7h-1.1l-0.1-0.5c-0.5,0.5-1.1,0.7-1.9,0.7c-1.5,0-2-0.7-2-2.3v-3.5h1.3v3.4
				c0,0.9,0.3,1.3,1,1.3c0.5,0,1-0.2,1.4-0.7v-4H661.9z"/>
			<path class="st1" d="M668.9,197.3c0,1.8-1,3.1-2.9,3.1c-0.9,0-1.7-0.1-2.5-0.4v-7.9h1.3v2.9c0.4-0.4,1-0.7,1.8-0.7
				C668,194.4,668.9,195.5,668.9,197.3z M667.5,197.4c0-1.2-0.5-1.8-1.3-1.8c-0.6,0-1.1,0.3-1.4,0.7v2.9c0.4,0.1,0.8,0.1,1.1,0.1
				C667.1,199.3,667.5,198.6,667.5,197.4z"/>
			<path class="st1" d="M674,199v1.1c-0.5,0.2-1,0.3-1.6,0.3c-1.4,0-2-0.7-2-2.2v-2.4h-0.9v-1.2h0.9l0.4-1.4h0.9v1.4h2.1v1.2h-2.1
				v2.3c0,0.9,0.3,1.2,1.1,1.2C673.2,199.3,673.6,199.2,674,199z"/>
			<path class="st1" d="M679.9,197.2c0,0.2,0,0.5,0,0.7h-3.9c0.1,1,0.7,1.5,1.8,1.5c0.7,0,1.2-0.1,1.8-0.3v1.1
				c-0.6,0.2-1.2,0.3-2,0.3c-1.9,0-2.9-1.1-2.9-3c0-1.8,1-3,2.8-3C678.9,194.4,679.9,195.3,679.9,197.2z M676,196.9h2.6
				c0-1-0.5-1.4-1.2-1.4C676.6,195.6,676.1,196,676,196.9z"/>
			<path class="st1" d="M689.3,196.5v3.7h-1.3v-3.6c0-0.8-0.3-1.1-0.9-1.1c-0.4,0-0.8,0.2-1.2,0.7v4h-1.3v-3.6c0-0.7-0.3-1-0.9-1
				c-0.4,0-0.8,0.2-1.2,0.7v4h-1.3v-5.7h1.1l0.1,0.5c0.5-0.5,1-0.7,1.8-0.7c0.8,0,1.3,0.3,1.5,0.8c0.5-0.6,1.1-0.8,1.8-0.8
				C688.8,194.4,689.3,195.3,689.3,196.5z"/>
			<path class="st1" d="M695.3,196.8v3.4h-1.1l-0.1-0.5c-0.5,0.4-1.1,0.6-1.9,0.6c-1.2,0-1.9-0.6-1.9-1.7c0-1.1,0.8-1.8,2.1-1.8
				c0.6,0,1,0.1,1.5,0.2v-0.4c0-0.8-0.4-1.1-1.4-1.1c-0.7,0-1.3,0.1-1.8,0.3v-1.2c0.5-0.2,1.2-0.3,2-0.3
				C694.6,194.4,695.3,195.2,695.3,196.8z M694,198.9v-0.8c-0.4-0.1-0.8-0.2-1.2-0.2c-0.7,0-1.1,0.2-1.1,0.8c0,0.6,0.4,0.8,0.9,0.8
				C693.2,199.4,693.6,199.2,694,198.9z"/>
			<path class="st1" d="M699,196.9c0-2,0.9-4,2.8-4.9l0.6,0.9c-1.4,0.9-2,2.4-2,4.1c0,1.7,0.6,3.1,2,4l-0.6,0.9
				C699.9,200.9,699,199,699,196.9z"/>
			<path class="st1" d="M708.5,199.1v1.2H703v-1.1l2.3-2c0.9-0.8,1.4-1.3,1.4-2.2c0-0.9-0.6-1.3-1.6-1.3c-0.7,0-1.4,0.2-2.1,0.5
				v-1.2c0.7-0.3,1.6-0.4,2.4-0.4c1.7,0,2.7,0.8,2.7,2.3c0,1.5-0.9,2.4-2.1,3.3l-1.1,0.9H708.5z"/>
			<path class="st1" d="M712.4,196.9c0,2-0.9,4-2.8,4.9l-0.6-0.9c1.4-0.9,2-2.4,2-4.1c0-1.7-0.6-3.1-2-4l0.6-0.9
				C711.5,192.9,712.4,194.9,712.4,196.9z"/>
		</g>
		<g>
			<path class="st1" d="M792.5,193.9H790v6.3h-1.4v-6.3h-2.5v-1.2h6.3V193.9z"/>
			<path class="st1" d="M792.8,193.2l2.1-1.9l0.8,1l-2.2,1.6L792.8,193.2z M793.5,194.6h1.3v5.7h-1.3V194.6z"/>
			<path class="st1" d="M800.3,199v1.1c-0.5,0.2-1,0.3-1.6,0.3c-1.4,0-2-0.7-2-2.2v-2.4h-0.9v-1.2h0.9l0.4-1.4h0.9v1.4h2.1v1.2h-2.1
				v2.3c0,0.9,0.3,1.2,1.1,1.2C799.5,199.3,799.9,199.2,800.3,199z"/>
			<path class="st1" d="M806.3,194.6v5.7h-1.1l-0.1-0.5c-0.5,0.5-1.1,0.7-1.9,0.7c-1.5,0-2-0.7-2-2.3v-3.5h1.3v3.4
				c0,0.9,0.3,1.3,1,1.3c0.5,0,1-0.2,1.4-0.7v-4H806.3z"/>
			<path class="st1" d="M807.9,192.2h1.3v8.1h-1.3V192.2z"/>
			<path class="st1" d="M810.5,197.5c0-1.8,1.1-3,2.9-3c1.8,0,2.9,1.1,2.9,3c0,1.8-1.1,3-2.9,3C811.6,200.4,810.5,199.3,810.5,197.5
				z M815,197.4c0-1.2-0.6-1.9-1.6-1.9c-1,0-1.6,0.7-1.6,1.9c0,1.2,0.6,1.9,1.6,1.9C814.4,199.3,815,198.6,815,197.4z"/>
			<path class="st1" d="M819.8,200.1v-1.2c0.6,0.3,1.3,0.5,2,0.5c0.9,0,1.2-0.2,1.2-0.7c0-0.4-0.3-0.6-1.3-0.8
				c-1.3-0.2-1.9-0.7-1.9-1.7c0-1.1,0.8-1.8,2.4-1.8c0.8,0,1.4,0.1,1.9,0.3v1.1c-0.7-0.2-1.2-0.3-1.9-0.3c-0.8,0-1.1,0.2-1.1,0.6
				c0,0.4,0.3,0.5,1.4,0.7c1.3,0.2,1.9,0.7,1.9,1.8c0,1.2-0.9,1.8-2.5,1.8C821.1,200.4,820.3,200.3,819.8,200.1z"/>
			<path class="st1" d="M830.6,194.6v5.7h-1.1l-0.1-0.5c-0.5,0.5-1.1,0.7-1.9,0.7c-1.5,0-2-0.7-2-2.3v-3.5h1.3v3.4
				c0,0.9,0.3,1.3,1,1.3c0.5,0,1-0.2,1.4-0.7v-4H830.6z"/>
			<path class="st1" d="M837.6,197.3c0,1.8-1,3.1-2.9,3.1c-0.9,0-1.7-0.1-2.5-0.4v-7.9h1.3v2.9c0.4-0.4,1-0.7,1.8-0.7
				C836.7,194.4,837.6,195.5,837.6,197.3z M836.2,197.4c0-1.2-0.5-1.8-1.3-1.8c-0.6,0-1.1,0.3-1.4,0.7v2.9c0.4,0.1,0.8,0.1,1.1,0.1
				C835.8,199.3,836.2,198.6,836.2,197.4z"/>
			<path class="st1" d="M842.7,199v1.1c-0.5,0.2-1,0.3-1.6,0.3c-1.4,0-2-0.7-2-2.2v-2.4h-0.9v-1.2h0.9l0.4-1.4h0.9v1.4h2.1v1.2h-2.1
				v2.3c0,0.9,0.3,1.2,1.1,1.2C841.9,199.3,842.3,199.2,842.7,199z"/>
			<path class="st1" d="M848.6,197.2c0,0.2,0,0.5,0,0.7h-3.9c0.1,1,0.7,1.5,1.8,1.5c0.7,0,1.2-0.1,1.8-0.3v1.1
				c-0.6,0.2-1.2,0.3-2,0.3c-1.9,0-2.9-1.1-2.9-3c0-1.8,1-3,2.8-3C847.6,194.4,848.6,195.3,848.6,197.2z M844.7,196.9h2.6
				c0-1-0.5-1.4-1.2-1.4C845.3,195.6,844.8,196,844.7,196.9z"/>
			<path class="st1" d="M858,196.5v3.7h-1.3v-3.6c0-0.8-0.3-1.1-0.9-1.1c-0.4,0-0.8,0.2-1.2,0.7v4h-1.3v-3.6c0-0.7-0.3-1-0.9-1
				c-0.4,0-0.8,0.2-1.2,0.7v4h-1.3v-5.7h1.1l0.1,0.5c0.5-0.5,1-0.7,1.8-0.7c0.8,0,1.3,0.3,1.5,0.8c0.5-0.6,1.1-0.8,1.8-0.8
				C857.5,194.4,858,195.3,858,196.5z"/>
			<path class="st1" d="M864,196.8v3.4h-1.1l-0.1-0.5c-0.5,0.4-1.1,0.6-1.9,0.6c-1.2,0-1.9-0.6-1.9-1.7c0-1.1,0.8-1.8,2.1-1.8
				c0.6,0,1,0.1,1.5,0.2v-0.4c0-0.8-0.4-1.1-1.4-1.1c-0.7,0-1.3,0.1-1.8,0.3v-1.2c0.5-0.2,1.2-0.3,2-0.3
				C863.3,194.4,864,195.2,864,196.8z M862.7,198.9v-0.8c-0.4-0.1-0.8-0.2-1.2-0.2c-0.7,0-1.1,0.2-1.1,0.8c0,0.6,0.4,0.8,0.9,0.8
				C861.9,199.4,862.3,199.2,862.7,198.9z"/>
			<path class="st1" d="M867.7,196.9c0-2,0.9-4,2.8-4.9l0.6,0.9c-1.4,0.9-2,2.4-2,4.1c0,1.7,0.6,3.1,2,4l-0.6,0.9
				C868.6,200.9,867.7,199,867.7,196.9z"/>
			<path class="st1" d="M877.2,198.1c0,1.5-1,2.4-3.1,2.4c-1,0-1.8-0.2-2.3-0.5v-1.3c0.6,0.3,1.4,0.5,2.3,0.5c1,0,1.7-0.4,1.7-1.2
				c0-0.8-0.5-1.1-1.4-1.1c-0.5,0-0.7,0-1,0.1l-0.5-0.9l2.2-2.1h-3.2v-1.2h5.1v1l-2.3,2.2c0.1,0,0.2,0,0.3,0
				C876.3,195.9,877.2,196.6,877.2,198.1z"/>
			<path class="st1" d="M881.2,196.9c0,2-0.9,4-2.8,4.9l-0.6-0.9c1.4-0.9,2-2.4,2-4.1c0-1.7-0.6-3.1-2-4l0.6-0.9
				C880.3,192.9,881.2,194.9,881.2,196.9z"/>
		</g>
	</g>
</g>
</svg>
