<?xml version="1.0" encoding="utf-8"?>
<!-- Generator: Adobe Illustrator 26.2.1, SVG Export Plug-In . SVG Version: 6.00 Build 0)  -->
<svg version="1.1" id="Layer_1" xmlns="http://www.w3.org/2000/svg" xmlns:xlink="http://www.w3.org/1999/xlink" x="0px" y="0px"
	 viewBox="0 0 1000.9 616.7" style="enable-background:new 0 0 1000.9 616.7;" xml:space="preserve">
<style type="text/css">
	.st0{fill:#FFFFFF;stroke:#ADADAD;stroke-width:3;stroke-miterlimit:10;}
	.st1{fill:#FFFFFF;stroke:#818181;stroke-width:3;stroke-miterlimit:10;}
	.st2{fill:#CCCCCC;}
	.st3{fill:none;stroke:#818181;stroke-miterlimit:10;}
	.st4{fill:#9E9E9E;}
	.st5{fill:#E6E6E5;}
	.st6{font-family:'Roboto-Bold';}
	.st7{font-size:12px;}
</style>
<g>
	<path class="st0" d="M891.7,433.4H596.3c-6.7,0-12.2-6.8-12.2-15.2V166.3c0-8.4,5.5-15.2,12.2-15.2h295.5c6.7,0,12.2,6.8,12.2,15.2
		v251.9C904,426.6,898.5,433.4,891.7,433.4z"/>
	<g>
		<circle class="st1" cx="780.9" cy="314.4" r="59.1"/>
		<polygon class="st1" points="719.2,222.9 754.7,284.5 790.3,346 719.2,346 648.1,346 683.7,284.5 		"/>
	</g>
</g>
<path class="st2" d="M902,542.4H98.9c-17,0-30.8-13.8-30.8-30.8V105.1c0-17,13.8-30.8,30.8-30.8H902c17,0,30.8,13.8,30.8,30.8v406.4
	C932.8,528.6,919,542.4,902,542.4z M98.9,78.6c-14.6,0-26.5,11.9-26.5,26.5v406.4c0,14.6,11.9,26.5,26.5,26.5H902
	c14.6,0,26.5-11.9,26.5-26.5V105.1c0-14.6-11.9-26.5-26.5-26.5H98.9z"/>
<rect x="112.6" y="117.5" class="st2" width="189.8" height="25.6"/>
<rect x="371.2" y="252.4" class="st3" width="155.5" height="34.3"/>
<rect x="371.2" y="306.6" class="st3" width="155.5" height="34.3"/>
<rect x="371.2" y="362" class="st3" width="155.5" height="34.3"/>
<rect x="371.2" y="416.3" class="st3" width="155.5" height="34.3"/>
<rect x="371.2" y="468.6" class="st3" width="155.5" height="34.3"/>
<rect x="112.6" y="247.9" class="st2" width="155.5" height="34.3"/>
<rect x="769.3" y="467.6" class="st4" width="120.1" height="34.3"/>
<rect x="112.6" y="302.2" class="st2" width="155.5" height="34.3"/>
<rect x="112.6" y="357.6" class="st2" width="155.5" height="34.3"/>
<rect x="112.6" y="411.8" class="st2" width="155.5" height="34.3"/>
<rect x="112.6" y="464.1" class="st2" width="155.5" height="34.3"/>
<rect x="112.6" y="159.2" class="st5" width="419.4" height="16.8"/>
<rect x="112.6" y="192.5" class="st5" width="269.9" height="16.8"/>
<circle class="st5" cx="319.7" cy="265.1" r="13.9"/>
<text transform="matrix(1 0 0 1 315.6495 268.5613)" class="st6 st7">A</text>
<circle class="st5" cx="319.7" cy="319.3" r="13.9"/>
<text transform="matrix(1 0 0 1 315.6495 322.8068)" class="st6 st7">B</text>
<circle class="st5" cx="319.7" cy="371.5" r="13.9"/>
<text transform="matrix(1 0 0 1 315.6495 375.0358)" class="st6 st7">C</text>
<circle class="st5" cx="319.7" cy="429" r="13.9"/>
<text transform="matrix(1 0 0 1 315.6495 432.4848)" class="st6 st7">D</text>
<circle class="st5" cx="319.7" cy="481.3" r="13.9"/>
<text transform="matrix(1 0 0 1 315.6495 484.7757)" class="st6 st7">E</text>
</svg>
