<?xml version="1.0" encoding="utf-8"?>
<!-- Generator: Adobe Illustrator 26.2.1, SVG Export Plug-In . SVG Version: 6.00 Build 0)  -->
<svg version="1.1" id="Layer_1" xmlns="http://www.w3.org/2000/svg" xmlns:xlink="http://www.w3.org/1999/xlink" x="0px" y="0px"
	 viewBox="0 0 1000.9 616.7" style="enable-background:new 0 0 1000.9 616.7;" xml:space="preserve">
<style type="text/css">
	.st0{fill:#FFFFFF;stroke:#818181;stroke-width:3;stroke-miterlimit:10;}
	.st1{fill:#B4B4B4;}
	.st2{fill:#FFFFFF;stroke:#CCCCCC;stroke-width:9;stroke-miterlimit:10;}
	.st3{fill:#A7A9AC;}
</style>
<g>
	<g>
		<rect x="193.8" y="107.2" class="st0" width="294.5" height="402.3"/>
		<path class="st0" d="M292.6,297.9H95c-9.9,0-18-8.1-18-18V166c0-9.9,8.1-18,18-18h197.6c9.9,0,18,8.1,18,18v113.8
			C310.6,289.8,302.6,297.9,292.6,297.9z"/>
		<rect x="222.3" y="402.3" class="st0" width="33.3" height="80.4"/>
		<rect x="269.4" y="378.2" class="st0" width="33.3" height="104.5"/>
		<rect x="316.5" y="331.7" class="st0" width="33.3" height="151"/>
		<rect x="363.6" y="366.2" class="st0" width="33.3" height="116.6"/>
		<rect x="410.7" y="411" class="st0" width="33.3" height="71.8"/>
		<g>
			<rect x="333.2" y="165.4" class="st1" width="131.5" height="10.6"/>
			<rect x="333.2" y="187.3" class="st1" width="131.5" height="10.6"/>
			<rect x="333.2" y="209.3" class="st1" width="131.5" height="10.6"/>
			<rect x="333.2" y="231.3" class="st1" width="72.1" height="10.6"/>
		</g>
		<circle class="st2" cx="416.4" cy="304.9" r="43.2"/>
		<g>
			<circle class="st0" cx="220.8" cy="231.8" r="43.2"/>
			<polygon class="st0" points="175.7,164.8 201.7,209.9 227.7,254.9 175.7,254.9 123.6,254.9 149.6,209.9 			"/>
		</g>
	</g>
	
		<rect x="575.5" y="53.8" transform="matrix(-1.836970e-16 1 -1 -1.836970e-16 977.6473 -467.8135)" class="st0" width="294.5" height="402.3"/>
	<g>
		<rect x="544.2" y="221" class="st1" width="97.1" height="10.6"/>
		<rect x="544.2" y="242.9" class="st1" width="97.1" height="10.6"/>
		<rect x="544.2" y="264.9" class="st1" width="97.1" height="10.6"/>
		<rect x="544.2" y="286.8" class="st1" width="53.2" height="10.6"/>
	</g>
	<circle class="st2" cx="570.8" cy="161.4" r="25.9"/>
	<g>
		<path class="st0" d="M874.2,368.5H676.6c-9.9,0-18-8.1-18-18V236.7c0-9.9,8.1-18,18-18h197.6c9.9,0,18,8.1,18,18v113.8
			C892.2,360.5,884.1,368.5,874.2,368.5z"/>
		<g>
			<circle class="st0" cx="802.4" cy="302.4" r="43.2"/>
			<polygon class="st0" points="757.2,235.4 783.2,280.5 809.3,325.6 757.2,325.6 705.2,325.6 731.2,280.5 			"/>
		</g>
	</g>
</g>
<path class="st3" d="M923.2,576.9H77.7c-18.8,0-34.1-15.3-34.1-34.1V73.8c0-18.8,15.3-34.1,34.1-34.1h845.5
	c18.8,0,34.1,15.3,34.1,34.1v469.1C957.3,561.7,942,576.9,923.2,576.9z M77.7,44.7c-16,0-29.1,13-29.1,29.1v469.1
	c0,16,13,29.1,29.1,29.1h845.5c16,0,29.1-13,29.1-29.1V73.8c0-16-13-29.1-29.1-29.1H77.7z"/>
</svg>
