<?xml version="1.0" encoding="utf-8"?>
<!-- Generator: Adobe Illustrator 26.2.1, SVG Export Plug-In . SVG Version: 6.00 Build 0)  -->
<svg version="1.1" id="Layer_1" xmlns="http://www.w3.org/2000/svg" xmlns:xlink="http://www.w3.org/1999/xlink" x="0px" y="0px"
	 viewBox="0 0 1000.9 616.7" style="enable-background:new 0 0 1000.9 616.7;" xml:space="preserve">
<style type="text/css">
	.st0{fill:#FFFFFF;stroke:#818181;stroke-width:3;stroke-miterlimit:10;}
	.st1{fill:#E6E6E5;}
	.st2{fill:#FFFFFF;stroke:#818181;stroke-width:5;stroke-miterlimit:10;}
	.st3{fill:#A7A9AC;}
</style>
<path class="st0" d="M42.9,531.6V85.1c0-17.1,13.9-31,31-31H927c17.1,0,31,13.9,31,31v446.5c0,17.1-13.9,31-31,31H73.9
	C56.8,562.6,42.9,548.7,42.9,531.6z"/>
<rect x="97" y="499.6" class="st1" width="807" height="10"/>
<circle class="st2" cx="500.5" cy="285.8" r="68.5"/>
<circle class="st2" cx="142.8" cy="504.6" r="18.2"/>
<g>
	<path class="st3" d="M537.6,289.5c-0.4,0.9-0.3,1.8-0.4,2.7c-1.2,8.1-4.4,15.4-9.7,21.7c-1.3,1.6-3.3,1.8-4.8,0.6
		c-1.8-1.5-2.3-3.4-1-5.1c1.7-2.2,3.3-4.5,4.6-7c1.9-3.7,3.1-7.6,3.6-11.7c0.9-6.9-0.2-13.6-3.2-19.9c-1.3-2.8-3-5.4-5-7.7
		c-0.7-0.9-1.5-1.7-1.4-3c0-1.4,1.2-3,2.6-3.6c1.4-0.5,2.9-0.1,3.9,1.1c5.4,6.3,8.9,13.5,10.2,21.7c0.2,1.2,0.4,2.3,0.4,3.5
		c0,0.1,0,0.2,0.1,0.3c0,0.1,0,0.3,0,0.4c-0.1,0.1-0.1,0.2,0,0.3c0,0.2,0,0.5,0,0.7c-0.1,0.3-0.1,0.7,0,1c0,0.5,0,1,0,1.5
		c-0.1,0.4-0.1,0.9,0,1.3c0,0.1,0,0.3,0,0.4c-0.1,0.1-0.1,0.2,0,0.3C537.6,289.2,537.6,289.3,537.6,289.5z"/>
	<path class="st3" d="M537.6,288.2c-0.2-0.4-0.2-0.9,0-1.3C537.6,287.4,537.6,287.8,537.6,288.2z"/>
	<path class="st3" d="M537.6,285.5c-0.2-0.3-0.2-0.7,0-1C537.6,284.8,537.6,285.1,537.6,285.5z"/>
	<path class="st3" d="M537.6,283.7c-0.2-0.1-0.2-0.2,0-0.3C537.6,283.5,537.6,283.6,537.6,283.7z"/>
	<path class="st3" d="M537.6,289c-0.2-0.1-0.2-0.2,0-0.3C537.6,288.8,537.6,288.9,537.6,289z"/>
	<path class="st3" d="M500.5,286.2c0,7.4,0,14.9,0,22.3c0,1.9-0.8,3.1-2.3,3.6c-1.3,0.4-2.4,0.1-3.4-0.7c-3.3-2.7-6.6-5.5-9.9-8.2
		c-2.6-2.2-5.3-4.4-7.9-6.6c-0.4-0.3-0.8-0.4-1.2-0.4c-2.9,0-5.8-0.1-8.7,0c-2.5,0.1-3.8-1.8-3.8-3.8c0.1-4.3,0-8.5,0-12.8
		c0-2.3,1.4-3.7,3.6-3.7c2.9,0,5.8,0,8.8,0c0.5,0,0.9-0.1,1.4-0.5c5.9-4.9,11.7-9.8,17.6-14.6c1.7-1.4,3.8-1.3,5.1,0.4
		c0.4,0.5,0.6,1,0.6,1.7c0,0.5,0,1,0,1.5C500.5,271.8,500.5,279,500.5,286.2z"/>
	<path class="st3" d="M521.3,285.9c0,6.2-1.8,11.5-5.2,16.3c-1.2,1.6-3.2,2-4.7,0.9c-1.9-1.3-2.5-3.3-1.4-5.1c1.5-2.2,2.7-4.4,3.3-7
		c1.4-5.9,0.4-11.4-3.1-16.4c-0.5-0.7-1.1-1.3-1.3-2.2c-0.4-1.6,0.5-3.4,2.2-4.2c1.5-0.8,3.1-0.4,4.2,0.9c3.2,4,5.2,8.6,5.8,13.7
		C521.2,284,521.2,285.1,521.3,285.9z"/>
</g>
</svg>
