<svg xmlns="http://www.w3.org/2000/svg" xmlns:xlink="http://www.w3.org/1999/xlink" width="1240" height="229" viewBox="0 0 1240 229">
  <defs>
    <clipPath id="clip-path">
      <rect id="Rectángulo_33824" data-name="Rectángulo 33824" width="1240" height="229" transform="translate(180 4247)" fill="#fff7da"/>
    </clipPath>
    <clipPath id="clip-path-2">
      <path id="Trazado_113873" data-name="Trazado 113873" d="M460.576,68.3s-15.09-9.124-25.267,8.773c-10.177-17.9-25.267-8.773-25.267-8.773-6.141,3.655-8.505,8.331-9.173,12.54-1.4,8.828,5.219,15.434,11.119,20.945,6.224,5.814,12.181,11.927,18.234,17.92l5.091,5.04c7.472-7.46,15.128-14.733,22.571-22.222,6.036-6.073,13.379-12.151,11.866-21.684C469.082,76.635,466.718,71.959,460.576,68.3Z" transform="translate(-400.679 -65.978)" fill="#7694e3"/>
    </clipPath>
  </defs>
  <g id="Enmascarar_grupo_54" data-name="Enmascarar grupo 54" transform="translate(-180 -4247)" clip-path="url(#clip-path)">
    <g id="Grupo_80387" data-name="Grupo 80387" transform="translate(311 4016)">
      <g id="Grupo_80274" data-name="Grupo 80274">
        <rect id="Rectángulo_33830" data-name="Rectángulo 33830" width="1302" height="978" transform="translate(-162)" fill="#b5c9ff" style="mix-blend-mode: multiply;isolation: isolate"/>
        <circle id="Elipse_4713" data-name="Elipse 4713" cx="111.004" cy="111.004" r="111.004" transform="translate(636.363 274.076) rotate(-45)" fill="#cfdcff"/>
        <path id="Trazado_113782" data-name="Trazado 113782" d="M110.568,140.735c-39.832,47.748-59.2,110.9-66.85,173.128-14.3,116.4,24.587,242.781,143.568,287.35,66.078,24.753,136.677,25.925,201.3,56.313C491.077,705.717,565.3,809.18,687.229,811.991c141.916,3.272,246.56-144.007,187.52-279.954-17.95-41.33-56.247-78.629-85.242-103.11-34.2-28.878-74.686-39.934-114.948-57.6-74.083-32.5-94.072-116.443-128.4-181.867C468.647,41.71,244.707,7.58,125.45,124.586Q117.572,132.314,110.568,140.735Z" transform="translate(39.097 51.91)" fill="#cfdcff"/>
      </g>
      <g id="Grupo_80358" data-name="Grupo 80358" transform="translate(111.78 211.369)">
        <rect id="Rectángulo_33831" data-name="Rectángulo 33831" width="756.812" height="56.454" rx="8.207" transform="translate(0 670.854)" fill="#cfdcff" style="mix-blend-mode: multiply;isolation: isolate"/>
        <g id="Grupo_80276" data-name="Grupo 80276" transform="translate(12.069 340.847)">
          <rect id="Rectángulo_33832" data-name="Rectángulo 33832" width="734.059" height="21.218" transform="translate(0 50.942)" fill="#32465c"/>
          <g id="Grupo_80275" data-name="Grupo 80275" transform="translate(60.369 32.87)">
            <rect id="Rectángulo_33833" data-name="Rectángulo 33833" width="14.338" height="314.329" transform="translate(0 30.668)" fill="#32465c"/>
            <rect id="Rectángulo_33834" data-name="Rectángulo 33834" width="14.338" height="314.329" transform="translate(25.836)" fill="#32465c"/>
            <rect id="Rectángulo_33835" data-name="Rectángulo 33835" width="14.338" height="314.329" transform="translate(571.081)" fill="#32465c"/>
            <rect id="Rectángulo_33836" data-name="Rectángulo 33836" width="14.338" height="314.329" transform="translate(598.982 30.668)" fill="#32465c"/>
          </g>
          <path id="Trazado_113783" data-name="Trazado 113783" d="M771.118,282.319H89.575a26.257,26.257,0,0,0-26.257,26.257v25.95H797.377v-25.95A26.259,26.259,0,0,0,771.118,282.319Z" transform="translate(-63.318 -282.319)" fill="#a2b6eb"/>
          <rect id="Rectángulo_33837" data-name="Rectángulo 33837" width="115.596" height="93.733" transform="translate(574.752)" fill="#fff"/>
        </g>
        <g id="Grupo_80314" data-name="Grupo 80314" transform="translate(140.115)">
          <g id="Grupo_80277" data-name="Grupo 80277" transform="translate(150.304 39.066)">
            <path id="Trazado_113784" data-name="Trazado 113784" d="M205.982,165.8c2.617-18.41,19.173-36.614,37.164-37.725,9.436-.583,18.539,5.164,23.648,13.119,13.71,21.346,3.327,50.694-21.031,58.13-14.807,4.522-30.891-1.821-37.5-16.117A30.826,30.826,0,0,1,205.982,165.8Z" transform="translate(-205.624 -128.034)" fill="#343254"/>
          </g>
          <path id="Trazado_113785" data-name="Trazado 113785" d="M246.124,149.013a22.715,22.715,0,0,0-2.32-12.131,23.7,23.7,0,0,0-3.472-5.185c-1.1-1.248-2.144-3.18-3.906-3.5-4.022-.72-7.673,5.77-8.8,8.806a18.656,18.656,0,0,0,.767,14.631,13.055,13.055,0,0,0,5.365,5.85,8.286,8.286,0,0,0,7.74.166C244.47,156,245.8,152.4,246.124,149.013Z" transform="translate(-35.377 -88.864)" fill="#79e8e8"/>
          <g id="Grupo_80278" data-name="Grupo 80278" transform="translate(195.186)">
            <path id="Trazado_113786" data-name="Trazado 113786" d="M229.069,160.686c3.644-25.653,26.715-51.018,51.785-52.567,13.146-.814,25.833,7.2,32.953,18.279,19.1,29.745,4.636,70.641-29.3,81-20.634,6.3-43.048-2.537-52.253-22.459A42.965,42.965,0,0,1,229.069,160.686Z" transform="translate(-228.569 -108.062)" fill="#343254"/>
          </g>
          <g id="Grupo_80284" data-name="Grupo 80284" transform="translate(178.863 115.307)">
            <g id="Grupo_80282" data-name="Grupo 80282">
              <g id="Grupo_80279" data-name="Grupo 80279">
                <path id="Trazado_113787" data-name="Trazado 113787" d="M221.669,188.365q-.572,41.287-1.146,82.575c-.117,8.514-1.093,17.32,1.273,25.584,4.045,14.122,9.266,28.01,13.878,41.954q6.384,19.3,12.767,38.6c3.748,11.331,15.265,18.719,27.2,15.441,11.089-3.047,19.206-15.812,15.441-27.2q-12.613-38.13-25.225-76.262a40.74,40.74,0,0,0-1.788-5.4c-1.807-3.589-.129,7.036.44,4.182.775-3.877.119-8.62.174-12.554q.349-25.185.7-50.371.252-18.276.507-36.548c.4-28.464-43.822-28.477-44.217,0Z" transform="translate(-220.224 -167.012)" fill="#fff"/>
              </g>
              <g id="Grupo_80280" data-name="Grupo 80280" transform="translate(32.079 118.376)">
                <path id="Trazado_113788" data-name="Trazado 113788" d="M237.359,229.962a.734.734,0,0,1-.063-1.465l11.255-.962a.717.717,0,0,1,.792.667.733.733,0,0,1-.667.794l-11.255.962Z" transform="translate(-236.625 -227.532)" fill="#32465c"/>
              </g>
              <g id="Grupo_80281" data-name="Grupo 80281" transform="translate(34.459 114.502)">
                <path id="Trazado_113789" data-name="Trazado 113789" d="M247.45,230.89a.744.744,0,0,1-.293-.061l-8.874-3.873a.733.733,0,1,1,.587-1.344l8.874,3.873a.733.733,0,0,1-.293,1.4Z" transform="translate(-237.842 -225.551)" fill="#32465c"/>
              </g>
            </g>
            <path id="Trazado_113790" data-name="Trazado 113790" d="M255.832,270.333l13.034,10.633,40.473,11.662,8.918,3.43-73.744-.343L242.8,280.279Z" transform="translate(-198.643 -68.238)" fill="#ffbab0"/>
            <g id="Grupo_80283" data-name="Grupo 80283" transform="translate(40.366 199.003)">
              <path id="Trazado_113791" data-name="Trazado 113791" d="M241.594,285.906a.734.734,0,0,1-.577-1.185A50.344,50.344,0,0,1,262.539,268.8a.733.733,0,1,1,.526,1.369,48.874,48.874,0,0,0-20.892,15.454A.728.728,0,0,1,241.594,285.906Z" transform="translate(-240.861 -268.752)" fill="#32465c"/>
            </g>
          </g>
          <path id="Trazado_113792" data-name="Trazado 113792" d="M284.7,161.675l8.466,24.625L239.29,314.2l13.737,189.552H191.12V242.262Z" transform="translate(-69.185 -56.808)" fill="#ccc"/>
          <g id="Grupo_80290" data-name="Grupo 80290" transform="translate(17.779 199.69)">
            <g id="Grupo_80286" data-name="Grupo 80286" transform="translate(17.405 2.334)">
              <path id="Trazado_113793" data-name="Trazado 113793" d="M206.346,455.27,203.78,474.7a6.033,6.033,0,0,1-5.9,5.772h0a6.035,6.035,0,0,1-6.15-5.571l-2.9-24.659Z" transform="translate(-106.556 17.036)" fill="#ffbab0"/>
              <path id="Trazado_113794" data-name="Trazado 113794" d="M187.852,491.773h68.542c-.227-.673-.3-4-.722-4.546-3.634-4.608-10.142-6.212-16.188-7.1-6.725-.994-15.261-3-15.261-3s-12.689-9.52-17.266-14.572H192.994c-2.009,2.267-1.578,5.127-2.214,7.834-.644,2.734-.3,5.85-1.927,8.2C186.023,482.681,186.449,491.332,187.852,491.773Z" transform="translate(-108.539 28.801)" fill="#2b3a4f"/>
              <g id="Grupo_80285" data-name="Grupo 80285">
                <path id="Trazado_113795" data-name="Trazado 113795" d="M162.128,354.134c-9.87-21.52-28.669-74.418-.575-119.058a51.383,51.383,0,0,1,32.622-22.5h0a52.319,52.319,0,0,1,63.357,47c4.4,55.773,14.834,229.544,14.834,229.544s-14.279,141.853-23.679,192.488a3.161,3.161,0,0,1-2.134,2.423c-6.8,2.214-11.028,2.6-17.565,1.211a3.15,3.15,0,0,1-2.4-2.66L202.8,495.7,171.579,380.511A169.6,169.6,0,0,0,162.128,354.134Z" transform="translate(-146.769 -211.346)" fill="#2b3a4f"/>
              </g>
            </g>
            <g id="Grupo_80289" data-name="Grupo 80289">
              <path id="Trazado_113796" data-name="Trazado 113796" d="M160.657,456.772l-6.017,18.647a6.035,6.035,0,0,1-6.838,4.62h0a6.037,6.037,0,0,1-5.048-6.586l1.58-24.779Z" transform="translate(-133.233 17.874)" fill="#ffbab0"/>
              <path id="Trazado_113797" data-name="Trazado 113797" d="M139.757,491.773H208.3c-.225-.673-.293-4-.722-4.546-3.632-4.608-10.142-6.212-16.186-7.1-6.727-.994-15.263-3-15.263-3s-12.689-9.52-17.266-14.572H144.9c-2.011,2.267-1.58,5.127-2.216,7.834-.642,2.734-.3,5.85-1.927,8.2C137.928,482.681,138.354,491.332,139.757,491.773Z" transform="translate(-137.113 31.135)" fill="#2b3a4f"/>
              <g id="Grupo_80288" data-name="Grupo 80288">
                <path id="Trazado_113798" data-name="Trazado 113798" d="M143.026,343.218c-5.661-22.987-14.216-78.471,21.745-117.057a51.382,51.382,0,0,1,36.258-15.988h0a52.319,52.319,0,0,1,53.428,58.04c-5.968,54.152-27.484,221.517-27.484,221.517S186.7,633.494,167.755,683.173a3.166,3.166,0,0,1-2.535,2c-7.087.954-11.315.571-17.5-1.968a3.149,3.149,0,0,1-1.886-3.049l11.044-184.648L147.368,370.9A169.684,169.684,0,0,0,143.026,343.218Z" transform="translate(-137.87 -210.153)" fill="#3d5270"/>
                <g id="Grupo_80287" data-name="Grupo 80287" transform="translate(96.5 67.128)">
                  <path id="Trazado_113799" data-name="Trazado 113799" d="M187.94,400.156c-.025,0-.051,0-.076,0a.731.731,0,0,1-.653-.806c2.689-25.772,6.4-51.885,9.991-77.137,3.587-25.236,7.3-51.333,9.985-77.08a.734.734,0,0,1,1.459.153c-2.689,25.774-6.4,51.883-9.991,77.133s-7.3,51.337-9.985,77.084A.733.733,0,0,1,187.94,400.156Z" transform="translate(-187.206 -244.472)" fill="#32465c"/>
                </g>
              </g>
            </g>
          </g>
          <g id="Grupo_80291" data-name="Grupo 80291" transform="translate(54.22 76.476)">
            <path id="Trazado_113800" data-name="Trazado 113800" d="M320.314,181.474c-1.442-4.039-2.484-6.715-2.375-7.061-2.427-4.927-5.465-10.637-9.18-14.1s-33.545-9.385-52.648-12.886c-.728-.133-1.461-.176-2.193-.264C222,188.359,190.475,233.128,156.5,279.63a36.156,36.156,0,0,0,3.313,8.712c8.89,16.53,35.842,49.119,68.131,50.367,7.613.3,15.961-3.31,24.47-9.381C274.833,277.212,295.635,227.074,320.314,181.474Z" transform="translate(-156.501 -147.16)" fill="#79e8e8"/>
          </g>
          <g id="Grupo_80292" data-name="Grupo 80292" transform="translate(120.899 170.778)">
            <path id="Trazado_113801" data-name="Trazado 113801" d="M190.662,195.519a.073.073,0,0,0,0-.147.073.073,0,0,0,0,.147Z" transform="translate(-190.59 -195.372)" fill="#32465c"/>
          </g>
          <g id="Grupo_80293" data-name="Grupo 80293" transform="translate(188.248 49.385)">
            <path id="Trazado_113802" data-name="Trazado 113802" d="M230.716,195.822h0a15.864,15.864,0,0,1-2-22.343L262.27,133.31l24.344,20.337-33.557,40.17A15.862,15.862,0,0,1,230.716,195.822Z" transform="translate(-225.022 -133.31)" fill="#ffbab0"/>
            <path id="Trazado_113803" data-name="Trazado 113803" d="M245.9,182.877h0a19.707,19.707,0,0,0,2.609,1.823l25.942-31.053L250.106,133.31l-3.789,4.532C236.209,149.944,233.8,172.768,245.9,182.877Z" transform="translate(-212.859 -133.31)" fill="#de897c"/>
          </g>
          <g id="Grupo_80304" data-name="Grupo 80304" transform="translate(199.191 5.747)">
            <g id="Grupo_80294" data-name="Grupo 80294" transform="translate(17.099 17.394)">
              <path id="Trazado_113804" data-name="Trazado 113804" d="M257.206,199.481h0c-12.992-6.7-22.318-31.4-15.615-44.393l19.071-35.194,47.048,24.272-19.071,35.194C281.935,192.351,262.886,202.411,257.206,199.481Z" transform="translate(-239.359 -119.893)" fill="#ffbab0"/>
              <path id="Trazado_113805" data-name="Trazado 113805" d="M271.984,158.886c9.381-.2,19.977-1.475,28.961-5.487l5-9.234L258.9,119.893l-17.7,32.663C250.551,157.7,260.385,159.134,271.984,158.886Z" transform="translate(-237.598 -119.893)" fill="#de897c"/>
            </g>
            <g id="Grupo_80295" data-name="Grupo 80295">
              <path id="Trazado_113806" data-name="Trazado 113806" d="M231.943,145.4c2.1,1.461,4.589,1.878,7.055,2.824,3.951,1.518,7.652,3.65,11.634,5.142a106.543,106.543,0,0,0,25.373,6.026,109.2,109.2,0,0,0,26.416-.178,98.348,98.348,0,0,0,12.826-2.537c1.531-.413,11.149-2.465,11.505-3.949,3.159-13.183-4.612-30.115-16.421-36.695a42.926,42.926,0,0,0-17.414-4.835c-23.787-1.966-51.462,11.063-62.3,33.074A8.719,8.719,0,0,0,231.943,145.4Z" transform="translate(-230.617 -111)" fill="#343254"/>
            </g>
            <g id="Grupo_80300" data-name="Grupo 80300" transform="translate(46.515 45.186)">
              <g id="Grupo_80296" data-name="Grupo 80296" transform="translate(18.251 17.176)">
                <path id="Trazado_113807" data-name="Trazado 113807" d="M266.434,149.1q.918-2.013,1.837-4.022a1.514,1.514,0,0,0-.528-2.009,1.479,1.479,0,0,0-2.007.526q-.915,2.013-1.835,4.023a1.514,1.514,0,0,0,.526,2.007,1.478,1.478,0,0,0,2.007-.526Z" transform="translate(-263.729 -142.883)" fill="#32465c"/>
              </g>
              <g id="Grupo_80297" data-name="Grupo 80297" transform="translate(0 8.845)">
                <path id="Trazado_113808" data-name="Trazado 113808" d="M257.1,144.844q.918-2.013,1.837-4.022a1.515,1.515,0,0,0-.526-2.009,1.478,1.478,0,0,0-2.007.526l-1.837,4.023a1.514,1.514,0,0,0,.526,2.007,1.478,1.478,0,0,0,2.007-.526Z" transform="translate(-254.398 -138.624)" fill="#32465c"/>
              </g>
              <g id="Grupo_80298" data-name="Grupo 80298" transform="translate(23.6 10.231)">
                <path id="Trazado_113809" data-name="Trazado 113809" d="M271.519,143.655a.732.732,0,0,1-.655-.4,4.578,4.578,0,0,0-3.716-2.455.733.733,0,0,1-.683-.78.715.715,0,0,1,.78-.683,6.067,6.067,0,0,1,4.927,3.257.732.732,0,0,1-.323.984A.723.723,0,0,1,271.519,143.655Z" transform="translate(-266.463 -139.332)" fill="#32465c"/>
              </g>
              <g id="Grupo_80299" data-name="Grupo 80299" transform="translate(1.687)">
                <path id="Trazado_113810" data-name="Trazado 113810" d="M261.327,137.688a.737.737,0,0,1-.528-.225,6.263,6.263,0,0,0-4.769-1.888.72.72,0,0,1-.769-.694.735.735,0,0,1,.7-.771,7.79,7.79,0,0,1,5.9,2.335.732.732,0,0,1-.528,1.242Z" transform="translate(-255.26 -134.102)" fill="#32465c"/>
              </g>
            </g>
            <g id="Grupo_80303" data-name="Grupo 80303" transform="translate(13.395 35.673)">
              <g id="Grupo_80301" data-name="Grupo 80301" transform="translate(7.053)">
                <path id="Trazado_113811" data-name="Trazado 113811" d="M256.232,155.9a1.515,1.515,0,0,1-.994-.37c-2.594-2.232-3.566-5.586-4.346-8.282l-2.879-9.936c-.129-.444-.243-.96-.364-1.5-.272-1.228-.681-3.083-1.356-3.452a1.377,1.377,0,0,0-1,.082,1.885,1.885,0,0,0-1.179,1.473,1.527,1.527,0,0,1-3.028-.4,4.918,4.918,0,0,1,3.165-3.943,4.118,4.118,0,0,1,3.515.11c1.886,1.037,2.429,3.493,2.866,5.469.106.473.2.923.315,1.312l2.879,9.935c.669,2.308,1.5,5.18,3.405,6.819a1.527,1.527,0,0,1-1,2.684Z" transform="translate(-241.071 -129.238)" fill="#fff"/>
              </g>
              <path id="Trazado_113812" data-name="Trazado 113812" d="M286.743,156.474c-.055,1.77-9.582,21.935-17.307,24.72-6.359,2.294-12.708-.722-18.083-4.047-5.58-3.452-8.554-10.4-8.7-16.8-.158-6.938,5.678-14.03,9.6-19.613Z" transform="translate(-232.509 -118.25)" fill="#fff"/>
              <g id="Grupo_80302" data-name="Grupo 80302" transform="translate(1.845 15.072)">
                <path id="Trazado_113813" data-name="Trazado 113813" d="M247.716,165.909a1.525,1.525,0,0,1-1.234-.626c-5.354-7.331-8.573-18.146-8.01-26.911a1.527,1.527,0,1,1,3.047.2c-.522,8.106,2.463,18.118,7.429,24.914a1.527,1.527,0,0,1-1.232,2.427Z" transform="translate(-238.408 -136.943)" fill="#fff"/>
              </g>
              <path id="Trazado_113814" data-name="Trazado 113814" d="M238.206,135.7a8.755,8.755,0,0,0,4.6,11.488l7.094-15.54A8.756,8.756,0,0,0,238.206,135.7Z" transform="translate(-237.465 -127.746)" fill="#de897c"/>
            </g>
          </g>
          <g id="Grupo_80306" data-name="Grupo 80306" transform="translate(0 73.195)">
            <path id="Trazado_113815" data-name="Trazado 113815" d="M322.73,157.042,218.309,318.652,205.173,520.41l-76.392-1.782,18.294-199.858L249.838,154.561a31.754,31.754,0,0,1,29.7-8.188Z" transform="translate(-128.781 -145.482)" fill="#fff"/>
            <path id="Trazado_113816" data-name="Trazado 113816" d="M182.779,280.759l38.582-59.715c-1.168-4.569-2.4-9.115-3.781-13.606-4.933-16.031-10.2-32.043-14-48.368C197.271,199.733,188.927,240.068,182.779,280.759Z" transform="translate(-77.159 -132.493)" fill="#ccc"/>
            <g id="Grupo_80305" data-name="Grupo 80305" transform="translate(31.065 263.49)">
              <path id="Trazado_113817" data-name="Trazado 113817" d="M173.371,281.658H145.4a.733.733,0,1,1,0-1.467h27.975a.733.733,0,1,1,0,1.467Z" transform="translate(-144.663 -280.191)" fill="#32465c"/>
            </g>
          </g>
          <g id="Grupo_80313" data-name="Grupo 80313" transform="translate(119.666 75.819)">
            <g id="Grupo_80307" data-name="Grupo 80307" transform="translate(143.424 44.482)">
              <rect id="Rectángulo_33838" data-name="Rectángulo 33838" width="3.765" height="39.021" transform="translate(31.72 13.313) rotate(38.012)" fill="gray"/>
              <rect id="Rectángulo_33839" data-name="Rectángulo 33839" width="7.114" height="33.843" transform="translate(20.841 24.454) rotate(38.012)" fill="#32465c"/>
              <rect id="Rectángulo_33840" data-name="Rectángulo 33840" width="8.132" height="18.114" rx="0.801" transform="matrix(0.788, 0.616, -0.616, 0.788, 37.432, 0)" fill="#32465c"/>
              <path id="Trazado_113818" data-name="Trazado 113818" d="M277.969,183.776h0a1.165,1.165,0,0,1-.2-1.637L286.63,170.8a1.167,1.167,0,0,1,1.637-.2h0a1.164,1.164,0,0,1,.2,1.635L279.6,183.574A1.164,1.164,0,0,1,277.969,183.776Z" transform="translate(-249.677 -168.813)" fill="gray"/>
              <path id="Rectángulo_33841" data-name="Rectángulo 33841" d="M.82,0h9.357a0,0,0,0,1,0,0V12.619a0,0,0,0,1,0,0H.82A.82.82,0,0,1,0,11.8V.82A.82.82,0,0,1,.82,0Z" transform="matrix(-0.788, -0.616, 0.616, -0.788, 42.394, 23.381)" fill="#32465c"/>
              <rect id="Rectángulo_33842" data-name="Rectángulo 33842" width="12.619" height="2.137" transform="translate(37.824 19.809) rotate(-51.988)" fill="gray"/>
              <rect id="Rectángulo_33843" data-name="Rectángulo 33843" width="6.615" height="4.681" transform="translate(47.721 16.566) rotate(38.011)" fill="gray"/>
            </g>
            <path id="Trazado_113819" data-name="Trazado 113819" d="M279.26,183.6a12.4,12.4,0,0,1,10.111.988c4.538,2.594,11.188,6.377,14.979,8.458a4.7,4.7,0,0,1,1.266,7.292,18.227,18.227,0,0,0-4,6.508C298.9,214.574,291.339,219.264,286.8,220s-15.276-11.652-15.276-11.652l-18.183,5.24-9.625-22.74Z" transform="translate(-138.568 -112.281)" fill="#ffbab0"/>
            <g id="Grupo_80312" data-name="Grupo 80312">
              <g id="Grupo_80308" data-name="Grupo 80308">
                <path id="Trazado_113820" data-name="Trazado 113820" d="M189.977,168.933q2,46.519,4.012,93.039c.62,14.388,13.624,25.074,27.984,21.318l88.591-23.161c27.507-7.192,15.844-49.853-11.756-42.637L210.22,240.653,238.2,261.972q-2-46.519-4.01-93.039c-.514-11.934-9.794-22.109-22.109-22.109-11.578,0-22.625,10.122-22.109,22.109Z" transform="translate(-189.96 -146.824)" fill="#fff"/>
              </g>
              <g id="Grupo_80309" data-name="Grupo 80309" transform="translate(41.458 17.441)">
                <path id="Trazado_113821" data-name="Trazado 113821" d="M218.165,225.925a.733.733,0,0,1-.73-.667l-6.277-68.716a.734.734,0,1,1,1.461-.133l6.277,68.716a.734.734,0,0,1-.663.8Z" transform="translate(-211.156 -155.741)" fill="#32465c"/>
              </g>
              <g id="Grupo_80310" data-name="Grupo 80310" transform="translate(33.839 86.083)">
                <path id="Trazado_113822" data-name="Trazado 113822" d="M208,199.983a.733.733,0,0,1-.356-1.375l13.856-7.683a.733.733,0,0,1,.71,1.283l-13.856,7.683A.73.73,0,0,1,208,199.983Z" transform="translate(-207.26 -190.834)" fill="#32465c"/>
              </g>
              <g id="Grupo_80311" data-name="Grupo 80311" transform="translate(41.008 86.151)">
                <path id="Trazado_113823" data-name="Trazado 113823" d="M211.66,204.88a.585.585,0,0,1-.1-.008.73.73,0,0,1-.628-.823c.775-5.8,3.014-9.944,7.049-13.029a.733.733,0,1,1,.89,1.166c-3.7,2.832-5.766,6.664-6.486,12.059A.733.733,0,0,1,211.66,204.88Z" transform="translate(-210.926 -190.868)" fill="#32465c"/>
              </g>
            </g>
          </g>
        </g>
        <g id="Grupo_80357" data-name="Grupo 80357" transform="translate(333.895 103.444)">
          <path id="Trazado_113824" data-name="Trazado 113824" d="M344.75,308.223l-59.715-2.58V258.492h79.459l1.168,12.006,2.087,11.251A22.407,22.407,0,0,1,344.75,308.223Z" transform="translate(-173.182 -67.694)" fill="#3559a1"/>
          <g id="Grupo_80317" data-name="Grupo 80317" transform="translate(108.839 89.305)">
            <path id="Trazado_113825" data-name="Trazado 113825" d="M368.467,318.728s-4.129,6.026-46.121,3.855c-36.612-1.9-38.852-7.6-38.852-7.6l5.183-36.685-.456-33.07c.119-18.883,7.867-29.716,28.307-38.623h0l26.16,1.725h0c19.163,11.517,24.511,22.658,22.293,41.422l-1.244,31.49Z" transform="translate(-283.494 -206.604)" fill="#ff4a6e"/>
            <g id="Grupo_80315" data-name="Grupo 80315" transform="translate(16.584 64.261)">
              <path id="Trazado_113826" data-name="Trazado 113826" d="M322,279.876a.74.74,0,0,1-.356-.094,61.88,61.88,0,0,1-29.653-39.423.734.734,0,0,1,1.43-.333A60.388,60.388,0,0,0,322.358,278.5a.733.733,0,0,1-.358,1.373Z" transform="translate(-291.972 -239.457)" fill="#32465c"/>
            </g>
            <g id="Grupo_80316" data-name="Grupo 80316" transform="translate(23.703 68.089)">
              <path id="Trazado_113827" data-name="Trazado 113827" d="M324.649,262.075a.661.661,0,0,1-.194-.027,53.94,53.94,0,0,1-28.695-19.456.734.734,0,0,1,1.172-.884,52.459,52.459,0,0,0,27.91,18.926.734.734,0,0,1-.194,1.442Z" transform="translate(-295.612 -241.414)" fill="#32465c"/>
            </g>
          </g>
          <g id="Grupo_80320" data-name="Grupo 80320" transform="translate(138.969 54.511)">
            <g id="Grupo_80318" data-name="Grupo 80318" transform="translate(0)">
              <path id="Trazado_113828" data-name="Trazado 113828" d="M300.584,188.871l-1.674,41.512a13.662,13.662,0,1,0,27.3,1.1l1.721-42.668Z" transform="translate(-298.898 -188.816)" fill="#ffbab0"/>
            </g>
            <g id="Grupo_80319" data-name="Grupo 80319">
              <path id="Trazado_113829" data-name="Trazado 113829" d="M299.772,235.752c9.219,3.267,18.5-.029,26.492-5.547l1.668-41.389-27.349.055-1.674,41.512A13.655,13.655,0,0,0,299.772,235.752Z" transform="translate(-298.898 -188.816)" fill="#de897c"/>
            </g>
          </g>
          <g id="Grupo_80335" data-name="Grupo 80335" transform="translate(120.61)">
            <g id="Grupo_80327" data-name="Grupo 80327">
              <g id="Grupo_80323" data-name="Grupo 80323" transform="translate(0 9.179)">
                <g id="Grupo_80321" data-name="Grupo 80321">
                  <path id="Trazado_113830" data-name="Trazado 113830" d="M298.525,241.873c8.27,4.781,34.832,14.4,45.71-6.523l14.152-28.033a28.838,28.838,0,0,0-9.9-36.871h0a28.837,28.837,0,0,0-41.761,11.22l-14.32,28.4C285.428,224.377,292.5,238.389,298.525,241.873Z" transform="translate(-289.512 -165.64)" fill="#ffbab0"/>
                </g>
                <g id="Grupo_80322" data-name="Grupo 80322" transform="translate(17.633 0.007)">
                  <path id="Trazado_113831" data-name="Trazado 113831" d="M336.207,197.584c-.7.25,13.561,9.729,13.561,9.729a28.818,28.818,0,0,0-51.183-26.486,2.586,2.586,0,0,0,1.825,3.106,4.237,4.237,0,0,0,5.42-3.169,5,5,0,0,0,9.414-1.508,10.977,10.977,0,0,0,13.821,12.726C328.685,195.571,332.812,198.81,336.207,197.584Z" transform="translate(-298.527 -165.643)" fill="#de897c"/>
                </g>
              </g>
              <path id="Trazado_113832" data-name="Trazado 113832" d="M366.922,217.792a10.329,10.329,0,0,0,1.138-18.717c2.83-9.2-3.163-20.155-12.442-22.733a17.527,17.527,0,0,0-25.495-12.282,11,11,0,0,0-18.359,5.215,12.7,12.7,0,0,0-13.592,16.37q-2.444,10.146-4.89,20.29c3.951-8.8,8.829-16.589,12.779-25.387-1.27,2.03-1.154,4.1,1.089,4.939a4.237,4.237,0,0,0,5.42-3.169,5,5,0,0,0,9.414-1.508,10.977,10.977,0,0,0,13.821,12.726c-.381,3.589,3.746,6.828,7.141,5.6-1.451.524-3.546,3.071-4.475,4.29a13.862,13.862,0,0,0-2.373,5.1,8.569,8.569,0,0,0,4.147,8.986,5.751,5.751,0,0,0-2.322,5.788,9.3,9.3,0,0,0,.288,1.011,12.87,12.87,0,0,1,.493,1.67c.446,2.394-.827,4.669-2.259,6.707l5.71,2.969-2.14,4.115c-1.334,3.249-3.5,5.555-6.157,8.415,2.844,1.784,7.194,3.323,10.4,1.823a14.754,14.754,0,0,0,4.381-3.681c6.5.231,12.25-6.578,10.938-12.943A15.309,15.309,0,0,0,366.922,217.792Z" transform="translate(-285.907 -160.947)" fill="#343254"/>
              <g id="Grupo_80326" data-name="Grupo 80326" transform="translate(49.55 63.335)">
                <g id="Grupo_80324" data-name="Grupo 80324">
                  <path id="Trazado_113833" data-name="Trazado 113833" d="M329.277,206.862c-2.529,4.818-8.99,6.408-14.433,3.552l8.458-17.088C331.92,195.267,331.806,202.045,329.277,206.862Z" transform="translate(-314.844 -193.327)" fill="#ffbab0"/>
                </g>
                <g id="Grupo_80325" data-name="Grupo 80325" transform="translate(5.985 6.066)">
                  <path id="Trazado_113834" data-name="Trazado 113834" d="M318.976,206.161a2.314,2.314,0,0,1-.491-.051.733.733,0,0,1,.3-1.434,1.159,1.159,0,0,0,.908-.243,1.042,1.042,0,0,0,.113-1.67,1.156,1.156,0,0,0-.865-.36l-.988.072.219-.966a11.611,11.611,0,0,1,.845-2.674,4.4,4.4,0,0,1,2.208-2.173,3.547,3.547,0,0,1,4.092,1.187.734.734,0,0,1-1.191.859,2.068,2.068,0,0,0-2.355-.685,2.94,2.94,0,0,0-1.442,1.469,7.719,7.719,0,0,0-.546,1.571,2.719,2.719,0,0,1,1.058.661,2.5,2.5,0,0,1-.264,3.881A2.673,2.673,0,0,1,318.976,206.161Z" transform="translate(-317.904 -196.428)" fill="#32465c"/>
                </g>
              </g>
            </g>
            <g id="Grupo_80334" data-name="Grupo 80334" transform="translate(3.007 33.003)">
              <path id="Trazado_113835" data-name="Trazado 113835" d="M316.628,202.181c-.9,1.723-4.712,1.514-8.524-.467s-6.177-4.986-5.281-6.709,4.714-1.516,8.526.467S317.524,200.456,316.628,202.181Z" transform="translate(-279.975 -162.508)" fill="#ff8787"/>
              <path id="Trazado_113836" data-name="Trazado 113836" d="M301.879,194.618c-.9,1.723-3.992,1.889-6.916.37s-4.565-4.149-3.669-5.872,3.992-1.89,6.914-.37S302.775,192.895,301.879,194.618Z" transform="translate(-291.049 -168.369)" fill="#ff8787"/>
              <g id="Grupo_80328" data-name="Grupo 80328" transform="translate(9.184 9.262)">
                <path id="Trazado_113837" data-name="Trazado 113837" d="M298.461,189.287q1.182-2.259,2.369-4.516c.876-1.67-1.655-3.155-2.533-1.481l-2.371,4.516c-.876,1.67,1.655,3.155,2.535,1.481Z" transform="translate(-295.744 -182.555)" fill="#32465c"/>
              </g>
              <g id="Grupo_80329" data-name="Grupo 80329" transform="translate(29.677 20.016)">
                <path id="Trazado_113838" data-name="Trazado 113838" d="M308.936,194.783q1.185-2.256,2.369-4.514c.878-1.67-1.655-3.155-2.533-1.481q-1.185,2.256-2.369,4.514c-.876,1.67,1.655,3.155,2.533,1.481Z" transform="translate(-306.221 -188.053)" fill="#32465c"/>
              </g>
              <g id="Grupo_80330" data-name="Grupo 80330" transform="translate(11.621)">
                <path id="Trazado_113839" data-name="Trazado 113839" d="M303.382,181.311a.721.721,0,0,1-.548-.246,5.4,5.4,0,0,0-4.97-1.686.734.734,0,0,1-.28-1.442,6.882,6.882,0,0,1,6.345,2.154.732.732,0,0,1-.548,1.221Z" transform="translate(-296.99 -177.82)" fill="#32465c"/>
              </g>
              <g id="Grupo_80331" data-name="Grupo 80331" transform="translate(36.387 11.407)">
                <path id="Trazado_113840" data-name="Trazado 113840" d="M316.08,188.493a.739.739,0,0,1-.6-.313,7.349,7.349,0,0,0-5.17-3.063.737.737,0,0,1-.651-.81.722.722,0,0,1,.81-.649,8.849,8.849,0,0,1,6.216,3.681.738.738,0,0,1-.182,1.023A.746.746,0,0,1,316.08,188.493Z" transform="translate(-309.652 -183.652)" fill="#32465c"/>
              </g>
              <g id="Grupo_80332" data-name="Grupo 80332" transform="translate(11.159 19.692)">
                <path id="Trazado_113841" data-name="Trazado 113841" d="M299.4,197.976a.736.736,0,0,1-.479-.178,6.373,6.373,0,0,1-2.161-4.511,3.64,3.64,0,0,1,.3-1.717,2.278,2.278,0,0,1,1.555-1.285,2.345,2.345,0,0,1,1.981.585,4.186,4.186,0,0,1,.681.759,6.928,6.928,0,0,0,3.542-3.288.734.734,0,0,1,1.356.563c-.976,2.345-3.012,3.4-4.806,4.333l-.6.309-.36-.569a4.4,4.4,0,0,0-.765-.988.945.945,0,0,0-.739-.264.818.818,0,0,0-.522.473,2.26,2.26,0,0,0-.16,1.037,4.894,4.894,0,0,0,1.657,3.454.733.733,0,0,1-.481,1.287Z" transform="translate(-296.754 -187.888)" fill="#32465c"/>
              </g>
              <g id="Grupo_80333" data-name="Grupo 80333" transform="translate(9.034 34.537)">
                <path id="Trazado_113842" data-name="Trazado 113842" d="M303.285,200.631a11.5,11.5,0,0,1-6.3-2.371,2.956,2.956,0,0,1-1.314-2.017.731.731,0,0,1,.7-.763.717.717,0,0,1,.763.7c0,.111.172.452.773.937,1.449,1.174,4.288,2.277,5.9,2a.733.733,0,1,1,.246,1.445A4.555,4.555,0,0,1,303.285,200.631Z" transform="translate(-295.668 -195.477)" fill="#32465c"/>
              </g>
            </g>
          </g>
          <g id="Grupo_80347" data-name="Grupo 80347" transform="translate(0 194.291)">
            <g id="Grupo_80340" data-name="Grupo 80340">
              <g id="Grupo_80336" data-name="Grupo 80336" transform="translate(44.492)">
                <path id="Trazado_113843" data-name="Trazado 113843" d="M276.48,280.743l-11.5,1.461s-6.177,10.118,8.63,21.968,20.806,10.183,20.806,10.183l6.742-11.531-1.97-12.728Z" transform="translate(-238.066 -240.714)" fill="#32465c"/>
                <path id="Trazado_113844" data-name="Trazado 113844" d="M310.011,268.974l-37.579,33.039a12.083,12.083,0,0,0-3.969,6.793l-2.028,10.488-15.128,59.251a11.941,11.941,0,0,0,.927,9.993c1.512,2.85,3.679,4.7,5.95,5.068a12.45,12.45,0,0,0,2.044.17c5.248,0,9.559-3.468,11.777-9.606l27.519-60.519,37.641-29.559Z" transform="translate(-250.597 -251.965)" fill="#ffbab0"/>
                <path id="Trazado_113845" data-name="Trazado 113845" d="M286.271,325.221l.714-1.569,37.641-29.559-27.155-25.119-33.757,29.678C275.065,302.3,282.274,313.583,286.271,325.221Z" transform="translate(-238.057 -251.965)" fill="#de897c"/>
                <path id="Trazado_113846" data-name="Trazado 113846" d="M264.358,301.769s15.63-.127,24.43,9.978,5.005,22.173,5.005,22.173l51.159-45.806L312.8,260.278Z" transform="translate(-237.441 -260.278)" fill="#3559a1"/>
              </g>
              <g id="Grupo_80339" data-name="Grupo 80339" transform="translate(0 116.547)">
                <path id="Trazado_113847" data-name="Trazado 113847" d="M253.993,320.411c-1.393.743-2.607,2.582-3.429,4.583a38.874,38.874,0,0,0-1.782,6.322c2.666,2.406,11.885,10.081,14.263.223C264.958,323.619,258.423,318.045,253.993,320.411Z" transform="translate(-207.84 -319.862)" fill="#3559a1"/>
                <path id="Trazado_113848" data-name="Trazado 113848" d="M254.936,349.741c-9.142-2.335-18.044-5.2-27.069-7.949-.256-2.494,2.488-9.639,4.69-10.842a19.334,19.334,0,0,1,7.261-1.772l22.13-2.427,10.783-1.183c2.742-.3,6.292-1.528,8.687.291,1.833,1.395,2.836,2.852,5.338,3.294s5.633.018,7.026,2.073c.794,1.172.6,2.676.376,4.031-.606,3.644-2.187,12.082-2.793,15.728-.286,1.713-.737,3.66-2.339,4.442a6.172,6.172,0,0,1-3.525.2A308.645,308.645,0,0,1,254.936,349.741Z" transform="translate(-227.85 -315.062)" fill="#3559a1"/>
                <path id="Trazado_113849" data-name="Trazado 113849" d="M256.526,338.007a320.094,320.094,0,0,0,31.718,6.107,6.7,6.7,0,0,0,3.47-.168c-.135.759-.256,1.465-.35,2.028-.286,1.714-.737,3.66-2.339,4.44a6.155,6.155,0,0,1-3.525.2,308.645,308.645,0,0,1-30.564-5.886c-9.142-2.335-18.044-5.2-27.069-7.949-.143-1.391.659-4.209,1.766-6.654C238.588,332.864,247.445,335.687,256.526,338.007Z" transform="translate(-227.85 -310.05)" fill="#fff"/>
                <g id="Grupo_80337" data-name="Grupo 80337" transform="translate(35.81 10.105)">
                  <path id="Trazado_113850" data-name="Trazado 113850" d="M250.8,330.7a.732.732,0,0,1-.683-.468,7.143,7.143,0,0,0-3.542-3.806.734.734,0,0,1,.63-1.326,8.63,8.63,0,0,1,4.278,4.6.733.733,0,0,1-.417.951A.707.707,0,0,1,250.8,330.7Z" transform="translate(-246.158 -325.028)" fill="#fff"/>
                </g>
                <g id="Grupo_80338" data-name="Grupo 80338" transform="translate(27.727 11.669)">
                  <path id="Trazado_113851" data-name="Trazado 113851" d="M246.1,330.012a.733.733,0,0,1-.462-.164l-3.345-2.717a.733.733,0,1,1,.925-1.138l3.345,2.717a.734.734,0,0,1-.464,1.3Z" transform="translate(-242.026 -325.828)" fill="#fff"/>
                </g>
              </g>
            </g>
            <g id="Grupo_80346" data-name="Grupo 80346" transform="translate(64.675 9.129)">
              <g id="Grupo_80342" data-name="Grupo 80342" transform="translate(34.775)">
                <path id="Trazado_113852" data-name="Trazado 113852" d="M298.89,283.958l-11.615.237s-7.517,9.391,5.561,22.719S312.1,319.221,312.1,319.221l8.272-10.733-.213-12.845Z" transform="translate(-272.545 -246.769)" fill="#32465c"/>
                <path id="Trazado_113853" data-name="Trazado 113853" d="M349.679,288.045l-20.366-15.186-37.851,29.676-.411.383a11.625,11.625,0,0,0-3.044,6.912L279.023,379a12.023,12.023,0,0,0,2.06,9.723c1.841,2.721,4.217,4.368,6.523,4.526.3.02.6.029.9.029,5.841,0,10.2-3.973,11.773-10.8L320.05,320.9l29.133-18.7a8.618,8.618,0,0,0,.5-14.158Z" transform="translate(-278.694 -257.379)" fill="#ffbab0"/>
                <path id="Trazado_113854" data-name="Trazado 113854" d="M344.986,288.045,324.62,272.859,286.77,302.535l-.411.383a12.031,12.031,0,0,0-2.756,5.1c14.046-3.486,22.621,12.542,27.163,27.186l4.591-14.3,29.133-18.7a8.618,8.618,0,0,0,.5-14.158Z" transform="translate(-274.001 -257.379)" fill="#de897c"/>
                <path id="Trazado_113855" data-name="Trazado 113855" d="M286.225,302.371s15.535,1.526,22.887,12.485,1.935,22.541,1.935,22.541l49.81-42.357-21.984-30.1Z" transform="translate(-271.494 -264.945)" fill="#3559a1"/>
                <g id="Grupo_80341" data-name="Grupo 80341" transform="translate(74.288 9.124)">
                  <path id="Trazado_113856" data-name="Trazado 113856" d="M331.518,279.831h-.031a17.964,17.964,0,0,1-14.723-9.134.733.733,0,1,1,1.285-.706,16.464,16.464,0,0,0,13.5,8.374.734.734,0,0,1-.029,1.467Z" transform="translate(-316.674 -269.609)" fill="#32465c"/>
                </g>
              </g>
              <g id="Grupo_80345" data-name="Grupo 80345" transform="translate(0 117.062)">
                <path id="Trazado_113857" data-name="Trazado 113857" d="M279.759,326.1c-1.056,1.052-1.653,3.044-1.848,5.076a36.528,36.528,0,0,0,.112,6.2c3.063,1.449,13.487,5.872,12.951-3.683C290.542,326.014,283.117,322.755,279.759,326.1Z" transform="translate(-244.757 -324.792)" fill="#3559a1"/>
                <path id="Trazado_113858" data-name="Trazado 113858" d="M287.986,358.09c-8.9.381-17.723.219-26.629.192-.911-2.185-.378-9.389,1.285-11.075a18.234,18.234,0,0,1,6.079-3.581L288.06,335.4l9.42-4.008c2.4-1.019,5.271-3.1,7.932-2.1,2.036.761,3.339,1.805,5.721,1.522s5.1-1.518,6.914-.041a5.165,5.165,0,0,1,1.436,3.54c.446,3.46,1.318,11.517,1.762,14.977.209,1.625.331,3.507-.9,4.649a5.8,5.8,0,0,1-3.13,1.14A290.744,290.744,0,0,1,287.986,358.09Z" transform="translate(-260.915 -320.741)" fill="#3559a1"/>
                <path id="Trazado_113859" data-name="Trazado 113859" d="M287.588,342.623a302.9,302.9,0,0,0,30.328-3.124A6.347,6.347,0,0,0,321,338.4c.086.722.168,1.393.237,1.929.209,1.625.331,3.507-.9,4.649a5.8,5.8,0,0,1-3.13,1.14,290.744,290.744,0,0,1-29.227,3.01c-8.9.381-17.723.219-26.629.192-.507-1.217-.552-3.984-.217-6.5C269.974,342.864,278.747,343,287.588,342.623Z" transform="translate(-260.91 -311.782)" fill="#fff"/>
                <g id="Grupo_80343" data-name="Grupo 80343" transform="translate(28.044 12.076)">
                  <path id="Trazado_113860" data-name="Trazado 113860" d="M280.666,335.167a.734.734,0,0,1-.579-.28,6.7,6.7,0,0,0-4.213-2.461.734.734,0,0,1,.225-1.451,8.175,8.175,0,0,1,5.142,3.006.734.734,0,0,1-.575,1.185Z" transform="translate(-275.253 -330.966)" fill="#fff"/>
                </g>
                <g id="Grupo_80344" data-name="Grupo 80344" transform="translate(21.166 15.694)">
                  <path id="Trazado_113861" data-name="Trazado 113861" d="M276.232,335.826a.69.69,0,0,1-.278-.055l-3.763-1.545a.733.733,0,0,1,.557-1.355l3.763,1.545a.733.733,0,0,1-.28,1.41Z" transform="translate(-271.737 -332.816)" fill="#fff"/>
                </g>
              </g>
            </g>
          </g>
          <g id="Grupo_80356" data-name="Grupo 80356" transform="translate(90.449 103.054)">
            <g id="Grupo_80352" data-name="Grupo 80352">
              <g id="Grupo_80348" data-name="Grupo 80348" transform="translate(0 7.052)">
                <path id="Trazado_113862" data-name="Trazado 113862" d="M297.02,220.248c-29.064,27.208-30.322,71.249-4.767,101.139,9.076,10.615,24.34-4.773,15.321-15.321-18.12-21.193-15.235-51.771,4.769-70.5,10.2-9.551-5.144-24.849-15.323-15.321Z" transform="translate(-274.092 -217.238)" fill="#ffbab0"/>
              </g>
              <path id="Trazado_113863" data-name="Trazado 113863" d="M301.985,259.249l-24.71-20.006,15.961-19.714a15.9,15.9,0,0,1,22.357-2.353h0a15.9,15.9,0,0,1,2.353,22.359Z" transform="translate(-271.049 -213.633)" fill="#ff4a6e"/>
              <g id="Grupo_80351" data-name="Grupo 80351" transform="translate(22.662 18.114)">
                <g id="Grupo_80349" data-name="Grupo 80349">
                  <path id="Trazado_113864" data-name="Trazado 113864" d="M286.412,266.636c-.025,0-.051,0-.076,0a.734.734,0,0,1-.653-.806l4.407-42.277a.734.734,0,0,1,1.459.155l-4.407,42.275A.735.735,0,0,1,286.412,266.636Z" transform="translate(-285.678 -222.894)" fill="#32465c"/>
                </g>
                <g id="Grupo_80350" data-name="Grupo 80350" transform="translate(3.419 3.192)">
                  <path id="Trazado_113865" data-name="Trazado 113865" d="M288.158,233.535a.717.717,0,0,1-.362-.1.733.733,0,0,1-.274-1l4.3-7.542a.733.733,0,0,1,1.273.726l-4.3,7.542A.729.729,0,0,1,288.158,233.535Z" transform="translate(-287.426 -224.526)" fill="#32465c"/>
                </g>
              </g>
            </g>
            <g id="Grupo_80355" data-name="Grupo 80355" transform="translate(34.323 1.545)">
              <g id="Grupo_80353" data-name="Grupo 80353" transform="translate(0 9.454)">
                <path id="Trazado_113866" data-name="Trazado 113866" d="M337.915,235.494c16.632,29.553-1.442,68.03-35.926,71.685-13.725,1.455-13.874,23.138,0,21.669,22.692-2.406,43.728-14.47,55.214-34.647,12.27-21.555,11.468-48.237-.577-69.643-6.84-12.153-25.565-1.242-18.711,10.936Z" transform="translate(-291.64 -219.256)" fill="#ffbab0"/>
              </g>
              <path id="Trazado_113867" data-name="Trazado 113867" d="M320.527,259.583l29.9-10.8-8.614-23.859a15.9,15.9,0,0,0-20.35-9.553h0a15.9,15.9,0,0,0-9.553,20.352Z" transform="translate(-273.166 -214.423)" fill="#ff4a6e"/>
              <g id="Grupo_80354" data-name="Grupo 80354" transform="translate(40.513 20.93)">
                <path id="Trazado_113868" data-name="Trazado 113868" d="M318.952,249.884a.737.737,0,0,1-.712-.554l-5.866-23.292a.734.734,0,0,1,1.424-.36l5.866,23.292a.736.736,0,0,1-.532.892A.822.822,0,0,1,318.952,249.884Z" transform="translate(-312.352 -225.123)" fill="#32465c"/>
              </g>
            </g>
            <circle id="Elipse_4714" data-name="Elipse 4714" cx="15.679" cy="15.679" r="15.679" transform="translate(12.457 98.393) rotate(-20.567)" fill="#ffbab0"/>
          </g>
        </g>
      </g>
      <g id="Grupo_80371" data-name="Grupo 80371" transform="translate(173.449)">
        <g id="Grupo_80362" data-name="Grupo 80362" transform="translate(513.395 256.482)">
          <rect id="Rectángulo_33844" data-name="Rectángulo 33844" width="124.988" height="172.504" transform="translate(0 8.014)" fill="#cbd9ff" style="mix-blend-mode: multiply;isolation: isolate"/>
          <rect id="Rectángulo_33845" data-name="Rectángulo 33845" width="124.988" height="172.504" fill="#fff"/>
          <rect id="Rectángulo_33846" data-name="Rectángulo 33846" width="109.48" height="155.538" transform="translate(7.754 8.483)" fill="#cbd9ff"/>
          <rect id="Rectángulo_33847" data-name="Rectángulo 33847" width="44.183" height="4.499" transform="translate(40.402 86.863)" fill="#a2b6eb"/>
          <rect id="Rectángulo_33848" data-name="Rectángulo 33848" width="89.844" height="4.499" transform="translate(17.572 77.185)" fill="#a2b6eb"/>
          <g id="Grupo_80361" data-name="Grupo 80361" transform="translate(17.151 101.623)">
            <g id="Grupo_80359" data-name="Grupo 80359">
              <rect id="Rectángulo_33849" data-name="Rectángulo 33849" width="42.275" height="4.499" fill="#a2b6eb"/>
              <rect id="Rectángulo_33850" data-name="Rectángulo 33850" width="42.275" height="4.499" transform="translate(0 10.498)" fill="#a2b6eb"/>
              <rect id="Rectángulo_33851" data-name="Rectángulo 33851" width="42.275" height="4.499" transform="translate(0 20.997)" fill="#a2b6eb"/>
              <rect id="Rectángulo_33852" data-name="Rectángulo 33852" width="42.275" height="4.499" transform="translate(0 31.496)" fill="#a2b6eb"/>
              <rect id="Rectángulo_33853" data-name="Rectángulo 33853" width="42.275" height="4.499" transform="translate(0 41.994)" fill="#a2b6eb"/>
            </g>
            <g id="Grupo_80360" data-name="Grupo 80360" transform="translate(48.411)">
              <rect id="Rectángulo_33854" data-name="Rectángulo 33854" width="42.274" height="4.499" fill="#a2b6eb"/>
              <rect id="Rectángulo_33855" data-name="Rectángulo 33855" width="42.274" height="4.499" transform="translate(0 10.498)" fill="#a2b6eb"/>
              <rect id="Rectángulo_33856" data-name="Rectángulo 33856" width="42.274" height="4.499" transform="translate(0 20.997)" fill="#a2b6eb"/>
              <rect id="Rectángulo_33857" data-name="Rectángulo 33857" width="42.274" height="4.499" transform="translate(0 31.496)" fill="#a2b6eb"/>
              <rect id="Rectángulo_33858" data-name="Rectángulo 33858" width="42.274" height="4.499" transform="translate(0 41.994)" fill="#a2b6eb"/>
            </g>
          </g>
          <rect id="Rectángulo_33859" data-name="Rectángulo 33859" width="40.382" height="41.249" transform="translate(42.303 24.589)" fill="#a2b6eb"/>
        </g>
        <g id="Grupo_80366" data-name="Grupo 80366" transform="translate(43.551 247.971)">
          <rect id="Rectángulo_33860" data-name="Rectángulo 33860" width="75.286" height="77.843" transform="translate(0 5.859)" fill="#cbd9ff" style="mix-blend-mode: multiply;isolation: isolate"/>
          <rect id="Rectángulo_33861" data-name="Rectángulo 33861" width="75.286" height="77.843" fill="#fff"/>
          <rect id="Rectángulo_33862" data-name="Rectángulo 33862" width="63.948" height="65.439" transform="translate(5.669 6.202)" fill="#cbd9ff"/>
          <g id="Grupo_80365" data-name="Grupo 80365" transform="translate(11.052 22.908)">
            <g id="Grupo_80364" data-name="Grupo 80364" transform="translate(22.276 0.497)">
              <g id="Grupo_80363" data-name="Grupo 80363">
                <rect id="Rectángulo_33863" data-name="Rectángulo 33863" width="30.906" height="3.289" fill="#a2b6eb"/>
                <rect id="Rectángulo_33864" data-name="Rectángulo 33864" width="30.906" height="3.289" transform="translate(0 7.675)" fill="#a2b6eb"/>
                <rect id="Rectángulo_33865" data-name="Rectángulo 33865" width="30.906" height="3.289" transform="translate(0 15.351)" fill="#a2b6eb"/>
                <rect id="Rectángulo_33866" data-name="Rectángulo 33866" width="30.906" height="3.289" transform="translate(0 23.026)" fill="#a2b6eb"/>
                <rect id="Rectángulo_33867" data-name="Rectángulo 33867" width="30.906" height="3.289" transform="translate(0 30.702)" fill="#a2b6eb"/>
              </g>
            </g>
            <rect id="Rectángulo_33868" data-name="Rectángulo 33868" width="17.874" height="34.506" fill="#a2b6eb"/>
          </g>
        </g>
      </g>
      <g id="Grupo_80386" data-name="Grupo 80386" transform="translate(52.332 120.193)">
        <g id="Grupo_80376" data-name="Grupo 80376" transform="translate(797.397 119.244)">
          <g id="Grupo_80372" data-name="Grupo 80372">
            <path id="Trazado_113870" data-name="Trazado 113870" d="M460.576,68.3s-15.09-9.124-25.267,8.773c-10.177-17.9-25.267-8.773-25.267-8.773-6.141,3.655-8.505,8.331-9.173,12.54-1.4,8.828,5.219,15.434,11.119,20.945,6.224,5.814,12.181,11.927,18.234,17.92l5.091,5.04c7.472-7.46,15.128-14.733,22.571-22.222,6.036-6.073,13.379-12.151,11.866-21.684C469.082,76.635,466.718,71.959,460.576,68.3Z" transform="translate(-400.679 -65.978)" fill="#ff4a6e"/>
          </g>
          <g id="Grupo_80375" data-name="Grupo 80375">
            <path id="Trazado_113871" data-name="Trazado 113871" d="M460.576,68.3s-15.09-9.124-25.267,8.773c-10.177-17.9-25.267-8.773-25.267-8.773-6.141,3.655-8.505,8.331-9.173,12.54-1.4,8.828,5.219,15.434,11.119,20.945,6.224,5.814,12.181,11.927,18.234,17.92l5.091,5.04c7.472-7.46,15.128-14.733,22.571-22.222,6.036-6.073,13.379-12.151,11.866-21.684C469.082,76.635,466.718,71.959,460.576,68.3Z" transform="translate(-400.679 -65.978)" fill="#7694e3"/>
            <g id="Grupo_80374" data-name="Grupo 80374" clip-path="url(#clip-path-2)">
              <g id="Grupo_80373" data-name="Grupo 80373" transform="translate(4.74 15.854)">
                <path id="Trazado_113872" data-name="Trazado 113872" d="M431.727,110.943l-6.412-24.436-4.077,13.527H405.964v-.761h14.708L425.365,83.7l6.269,23.888,3.958-19.418,3.429,14.79,4.863-19.307,4.564,15.619h17.5v.761H447.876l-3.938-13.479L438.99,106.2l-3.352-14.452Z" transform="translate(-405.964 -83.652)" fill="#fff"/>
              </g>
            </g>
          </g>
        </g>
        <g id="Grupo_80377" data-name="Grupo 80377" transform="translate(46.045 308.261)">
          <rect id="Rectángulo_33871" data-name="Rectángulo 33871" width="6.79" height="39.333" transform="translate(58.189 61.157) rotate(42.019)" fill="#32465c"/>
          <path id="Trazado_113874" data-name="Trazado 113874" d="M54.023,306.341l-1.084-.976a8,8,0,0,1-.589-11.3l30.535-33.6,12.97,11.687L65.323,305.754A8,8,0,0,1,54.023,306.341Z" transform="translate(-50.295 -179.453)" fill="#7694e3"/>
          <circle id="Elipse_4715" data-name="Elipse 4715" cx="41.141" cy="41.141" r="41.141" transform="matrix(0.999, -0.034, 0.034, 0.999, 37.003, 2.838)" fill="#7694e3"/>
          <path id="Trazado_113875" data-name="Trazado 113875" d="M129.858,277.369a31.582,31.582,0,1,1-2.322-44.6A31.584,31.584,0,0,1,129.858,277.369Z" transform="translate(-26.856 -213.693)" fill="#cfdcff"/>
        </g>
        <path id="Trazado_113876" data-name="Trazado 113876" d="M319.355,92.086H308.392V81.123H301V92.086H290.032v7.4H301v10.963h7.4V99.483h10.963Z" transform="translate(604.09 44.361)" fill="#fff"/>
        <path id="Trazado_113877" data-name="Trazado 113877" d="M527.319,260.04H491.511V224.231H467.35V260.04H431.542V284.2H467.35v35.808h24.16V284.2h35.808Z" transform="translate(360.223 94.172)" fill="#fff"/>
        <path id="Trazado_113878" data-name="Trazado 113878" d="M76.423,80.018H57.853V61.449H45.324V80.018H26.754V92.547h18.57v18.57H57.853V92.547h18.57Z" transform="translate(-174.754 203.551)" fill="#fff"/>
        <g id="Grupo_80381" data-name="Grupo 80381" transform="translate(1.404 216.797)">
          <g id="Grupo_80378" data-name="Grupo 80378" transform="translate(0 26.353)">
            <path id="Trazado_113879" data-name="Trazado 113879" d="M63.98,198.294,36.54,209.9a6.524,6.524,0,0,1-8.55-3.466h0a6.524,6.524,0,0,1,3.466-8.552L58.9,186.276a6.524,6.524,0,0,1,8.55,3.466h0A6.525,6.525,0,0,1,63.98,198.294Z" transform="translate(-27.472 -185.758)" fill="#fff"/>
            <path id="Trazado_113880" data-name="Trazado 113880" d="M50.244,186.276l-13.721,5.805L41.607,204.1l13.721-5.8a6.524,6.524,0,0,0-5.084-12.018Z" transform="translate(-18.82 -185.758)" fill="#7694e3"/>
          </g>
          <g id="Grupo_80379" data-name="Grupo 80379" transform="translate(39.573 46.615)">
            <path id="Trazado_113881" data-name="Trazado 113881" d="M82.3,214.575l-29.279-5.524a6.522,6.522,0,0,1-5.2-7.619h0a6.524,6.524,0,0,1,7.621-5.2l29.279,5.522a6.524,6.524,0,0,1,5.2,7.621h0A6.521,6.521,0,0,1,82.3,214.575Z" transform="translate(-47.704 -196.117)" fill="#fff"/>
            <path id="Trazado_113882" data-name="Trazado 113882" d="M74.964,200.349l-14.639-2.762-2.42,12.822,14.641,2.762a6.524,6.524,0,0,0,2.418-12.822Z" transform="translate(-37.95 -194.712)" fill="#7694e3"/>
          </g>
          <g id="Grupo_80380" data-name="Grupo 80380" transform="translate(44.417)">
            <path id="Trazado_113883" data-name="Trazado 113883" d="M61.3,174.178l21.15,20.986a6.523,6.523,0,0,1,.035,9.226h0a6.52,6.52,0,0,1-9.224.035L52.108,183.44a6.526,6.526,0,0,1-.035-9.226h0A6.526,6.526,0,0,1,61.3,174.178Z" transform="translate(-50.18 -172.285)" fill="#fff"/>
            <path id="Trazado_113884" data-name="Trazado 113884" d="M52.108,183.44l10.576,10.494,9.191-9.262L61.3,174.178a6.524,6.524,0,1,0-9.191,9.262Z" transform="translate(-50.18 -172.285)" fill="#7694e3"/>
          </g>
        </g>
        <g id="Grupo_80385" data-name="Grupo 80385" transform="translate(772.573 563.56)">
          <g id="Grupo_80382" data-name="Grupo 80382" transform="translate(0 26.354)">
            <path id="Trazado_113885" data-name="Trazado 113885" d="M458.238,375.574,430.8,387.184a6.524,6.524,0,0,1-8.55-3.468h0a6.522,6.522,0,0,1,3.466-8.55l27.441-11.609a6.523,6.523,0,0,1,8.55,3.466h0A6.522,6.522,0,0,1,458.238,375.574Z" transform="translate(-421.73 -363.04)" fill="#fff"/>
            <path id="Trazado_113886" data-name="Trazado 113886" d="M444.5,363.558l-13.721,5.8,5.086,12.018,13.719-5.805a6.523,6.523,0,1,0-5.084-12.016Z" transform="translate(-413.078 -363.04)" fill="#7694e3"/>
          </g>
          <g id="Grupo_80383" data-name="Grupo 80383" transform="translate(39.574 46.615)">
            <path id="Trazado_113887" data-name="Trazado 113887" d="M476.557,391.858l-29.279-5.524a6.521,6.521,0,0,1-5.2-7.619h0a6.522,6.522,0,0,1,7.619-5.2l29.279,5.524a6.527,6.527,0,0,1,5.2,7.621h0A6.524,6.524,0,0,1,476.557,391.858Z" transform="translate(-441.962 -373.399)" fill="#fff"/>
            <path id="Trazado_113888" data-name="Trazado 113888" d="M469.222,377.631l-14.639-2.762-2.419,12.822,14.641,2.762a6.524,6.524,0,0,0,2.418-12.822Z" transform="translate(-432.21 -371.993)" fill="#7694e3"/>
          </g>
          <g id="Grupo_80384" data-name="Grupo 80384" transform="translate(44.417 0)">
            <path id="Trazado_113889" data-name="Trazado 113889" d="M455.557,351.46l21.15,20.986a6.524,6.524,0,0,1,.037,9.226h0a6.523,6.523,0,0,1-9.226.035l-21.15-20.986a6.524,6.524,0,0,1-.037-9.226h0A6.524,6.524,0,0,1,455.557,351.46Z" transform="translate(-444.439 -349.567)" fill="#fff"/>
            <path id="Trazado_113890" data-name="Trazado 113890" d="M446.368,360.722l10.574,10.494,9.191-9.264L455.557,351.46a6.523,6.523,0,1,0-9.189,9.262Z" transform="translate(-444.439 -349.567)" fill="#7694e3"/>
          </g>
        </g>
      </g>
    </g>
  </g>
</svg>
