<svg xmlns="http://www.w3.org/2000/svg" xmlns:xlink="http://www.w3.org/1999/xlink" width="108" height="108" viewBox="0 0 108 108">
  <defs>
    <clipPath id="clip-path">
      <rect id="Rectángulo_46029" data-name="Rectángulo 46029" width="68.924" height="68.937" fill="#fff"/>
    </clipPath>
  </defs>
  <g id="Grupo_154426" data-name="Grupo 154426" transform="translate(-1114.958 -2920)">
    <circle id="Elipse_5730" data-name="Elipse 5730" cx="54" cy="54" r="54" transform="translate(1114.958 2920)" fill="#7f4fc7"/>
    <g id="Grupo_154361" data-name="Grupo 154361" transform="translate(1133.958 2940)">
      <g id="Grupo_154360" data-name="Grupo 154360" clip-path="url(#clip-path)">
        <path id="Trazado_196406" data-name="Trazado 196406" d="M65.693,68.937H63.27A11.953,11.953,0,0,1,61.132,67.6c-2.362-2.269-4.65-4.615-6.969-6.928a2.391,2.391,0,0,1-.759-1.936.81.81,0,0,0-.118-.551c-.84-.891-1.707-1.758-2.456-2.521-1.6.841-3.07,1.6-4.52,2.4a.846.846,0,0,0-.356.6c-.045.693-.01,1.39-.019,2.086a3.428,3.428,0,0,1-3.6,3.6q-19.351.01-38.7,0A3.444,3.444,0,0,1,0,60.712Q0,32.17,0,3.628A3.433,3.433,0,0,1,3.644.007Q19.057,0,34.471,0a3.732,3.732,0,0,1,2.771,1.15q3.753,3.768,7.522,7.519a3.791,3.791,0,0,1,1.182,2.894c-.03,1.7.041,3.413-.03,5.115a1.22,1.22,0,0,0,.912,1.363,21.682,21.682,0,0,1,11.5,27.446c-.709,1.821-1.713,3.528-2.63,5.386.727.717,1.565,1.558,2.426,2.376a.757.757,0,0,0,.531.171,2.515,2.515,0,0,1,2.1.844c2.054,2.071,4.109,4.141,6.191,6.184a7.206,7.206,0,0,1,1.974,2.835v2.423c-.2.39-.39.788-.607,1.17a5.368,5.368,0,0,1-2.624,2.061M43.621,59.03a.633.633,0,0,0-.126-.019c-.087.015-.175.032-.261.053a21.511,21.511,0,0,1-16.692-2.529A2.064,2.064,0,0,0,25.53,56.3q-9.59-.02-19.18-.01c-.224,0-.45.01-.673-.009A1.149,1.149,0,0,1,4.6,55.193a1.163,1.163,0,0,1,.993-1.176A4.414,4.414,0,0,1,6.26,54h16.87c-.64-.68-1.2-1.228-1.7-1.828a1.263,1.263,0,0,0-1.1-.476c-4.711.017-9.422.01-14.133.009a3.614,3.614,0,0,1-.671-.028A1.137,1.137,0,0,1,5.6,49.425a5.309,5.309,0,0,1,.672-.014H19.34c-.357-.674-.685-1.211-.931-1.783a.789.789,0,0,0-.874-.521c-3.724.017-7.448.01-11.172.009a5.347,5.347,0,0,1-.739-.019A1.165,1.165,0,0,1,4.6,45.884a1.146,1.146,0,0,1,1.111-1.056c.2-.015.4-.007.605-.007H17.191a14.523,14.523,0,0,1-.455-1.688c-.078-.53-.337-.62-.812-.617-3.23.018-6.461.012-9.691.005a2.95,2.95,0,0,1-.861-.1,1.031,1.031,0,0,1-.764-1.131,1.056,1.056,0,0,1,.964-1.043,4.644,4.644,0,0,1,.671-.024h9.944c-.04-.811-.076-1.532-.114-2.3H11.739c-1.907,0-3.814.006-5.72,0-.9,0-1.435-.462-1.423-1.172.011-.69.523-1.109,1.392-1.125.516-.009,1.032,0,1.548,0,2.692,0,5.384.009,8.076-.016.219,0,.584-.189.629-.357a17.976,17.976,0,0,0,.315-1.933H6.3c-1.159,0-1.711-.373-1.71-1.147s.565-1.155,1.711-1.155c3.432,0,6.865,0,10.3-.01.235,0,.6-.079.68-.234.309-.631.528-1.306.815-2.055h-.825q-5.653,0-11.306,0c-.857,0-1.375-.445-1.373-1.138s.532-1.134,1.375-1.156c.179,0,.359,0,.538,0,4.083,0,8.165,0,12.248-.01a1.093,1.093,0,0,0,.766-.235c.8-1.01,1.55-2.062,2.375-3.179h-.75q-7,0-14,0a2.336,2.336,0,0,1-2.56-2.546q-.008-6.663,0-13.327A2.322,2.322,0,0,1,7.1,4.595q11.273-.007,22.545,0A2.32,2.32,0,0,1,32.167,7.11c.007,2.984,0,5.968,0,8.952v.811a21.675,21.675,0,0,1,11.438-.018V11.482h-.753c-2,0-3.993.012-5.99,0a2.264,2.264,0,0,1-2.4-2.407c-.01-1.413,0-2.827,0-4.24V2.3H4.056c-1.467,0-1.762.3-1.762,1.776q0,28.1,0,56.2c0,1.473.3,1.777,1.768,1.777H41.884a4.387,4.387,0,0,0,.739-.022,1.047,1.047,0,0,0,.986-.949c.052-.684.012-1.375.012-2.052m-25.23-21.1H44.153a5.61,5.61,0,0,1,.806.025,1.123,1.123,0,0,1,.151,2.191,3.645,3.645,0,0,1-.932.08q-12.384.006-24.768,0h-.876a13.834,13.834,0,0,1,.248,1.521c.035.691.389.792,1,.79,6.618-.022,13.236-.014,19.854-.014,1.683,0,3.365-.008,5.048,0a1.1,1.1,0,0,1,1.239,1.117,1.144,1.144,0,0,1-1.206,1.171c-.2.012-.4,0-.606,0H19.644c.268.619.517,1.14.72,1.678a.908.908,0,0,0,1.017.631q11.408-.03,22.816-.014c.224,0,.45-.01.673.009a1.1,1.1,0,0,1,1.058,1.093,1.117,1.117,0,0,1-.982,1.171,5.011,5.011,0,0,1-.739.02H22.121c.56.671,1.027,1.2,1.461,1.761a1.364,1.364,0,0,0,1.206.545c4.218-.022,8.435-.013,12.653-.012a3.8,3.8,0,0,1,.671.026,1.14,1.14,0,0,1-.056,2.251,4.43,4.43,0,0,1-.6.015q-4.88,0-9.759,0c-.206,0-.413.022-.716.039.166.132.232.191.3.241A19.436,19.436,0,0,0,49.045,53.9a1,1,0,0,0,.34-.708q.026-15.279,0-30.559a.985.985,0,0,0-.344-.705,19.166,19.166,0,0,0-12.907-3.461c-.4.032-.533.194-.526.59.02,1.189.012,2.378.005,3.567a3.463,3.463,0,0,1-3.81,3.79c-3.029,0-6.057,0-9.086.009-.226,0-.551.036-.661.183-.476.636-.89,1.319-1.406,2.107H44.088c.224,0,.45-.011.673.007a1.133,1.133,0,0,1,1.167,1.14,1.116,1.116,0,0,1-1.213,1.149c-.224.011-.449,0-.673,0H20.552a1.909,1.909,0,0,0-.535.012c-.166.05-.39.157-.441.293-.23.622-.408,1.264-.635,2H19.9q12.148,0,24.3,0a3.961,3.961,0,0,1,.869.058,1.123,1.123,0,0,1,0,2.181,4.27,4.27,0,0,1-.936.062q-12.316,0-24.633,0a1.432,1.432,0,0,0-.532.014c-.185.081-.444.244-.465.4-.08.594-.077,1.2-.11,1.889m11.483-31H6.919V20.693c.283,0,.545,0,.807,0q8.262.066,16.523.126c.115,0,.234-.106.346-.171,1.643-.953,3.289-1.9,4.923-2.869a.714.714,0,0,0,.341-.477c.02-3.431.015-6.863.015-10.374M51.747,24.259V51.627c7.933-7.851,7.177-20.6,0-27.368m4.022,34.67c2.348,2.373,4.67,4.734,7.012,7.076a2.086,2.086,0,0,0,1.918.578,2.179,2.179,0,0,0,1.8-1.519,2.252,2.252,0,0,0-.646-2.451q-3.322-3.328-6.651-6.648a2.186,2.186,0,0,0-.274-.206l-3.16,3.17m-22.5-39.958a19.691,19.691,0,0,0-9.152,5.143c2.835,0,5.471.008,8.106-.007a.94.94,0,0,0,1.026-.874c.058-1.4.019-2.8.019-4.262m3.528-9.856h4.943L36.794,4.171ZM52.6,54.073l2.27,2.285,1.442-1.447-2.227-2.223L52.6,54.073" transform="translate(0 0)" fill="#fff"/>
      </g>
    </g>
  </g>
</svg>
