<svg xmlns="http://www.w3.org/2000/svg" xmlns:xlink="http://www.w3.org/1999/xlink" width="108" height="108" viewBox="0 0 108 108">
  <defs>
    <clipPath id="clip-path">
      <rect id="Rectángulo_46030" data-name="Rectángulo 46030" width="62.448" height="65.228" fill="#fff"/>
    </clipPath>
  </defs>
  <g id="Grupo_154425" data-name="Grupo 154425" transform="translate(-4192 8769)">
    <circle id="Elipse_5732" data-name="Elipse 5732" cx="54" cy="54" r="54" transform="translate(4192 -8769)" fill="#7f4fc7"/>
    <g id="Grupo_154363" data-name="Grupo 154363" transform="translate(4214 -8747)">
      <g id="Grupo_154362" data-name="Grupo 154362" clip-path="url(#clip-path)">
        <path id="Trazado_196407" data-name="Trazado 196407" d="M36.118,55.518v4.167c2.223,0,4.4-.006,6.583.006a4.179,4.179,0,0,1,1.11.13,2.755,2.755,0,0,1-.578,5.388c-.234.018-.469.019-.7.02q-11.308,0-22.615-.005a4.73,4.73,0,0,1-1.321-.138,2.76,2.76,0,0,1,.8-5.392c2.043-.023,4.086-.007,6.129-.007h.8V55.518h-.892q-10.427,0-20.854,0A4.227,4.227,0,0,1,.181,52.4a5.957,5.957,0,0,1-.173-1.531Q-.006,32.622,0,14.373a4.27,4.27,0,0,1,4.654-4.64c2.794-.007,5.589,0,8.384,0h.845c0-1.308,0-2.545,0-3.781,0-.9.182-1.079,1.06-1.084.773,0,1.545,0,2.408,0,0-1.241,0-2.432,0-3.624,0-1.113.1-1.219,1.206-1.219C25.041.021,31.523.04,38,0a2.4,2.4,0,0,1,1.954.8c1.553,1.633,3.19,3.187,4.759,4.8a1.616,1.616,0,0,1,.37.981c.048,1.005.017,2.014.017,3.143h.851q5.882,0,11.765,0c3.007,0,4.724,1.712,4.725,4.712q.005,18.179,0,36.357c0,3-1.718,4.712-4.724,4.714q-10.356.006-20.712,0h-.891M45.094,15.3v.891q0,9.722,0,19.445c0,1-.15,1.148-1.141,1.15-1.9,0-3.8,0-5.706,0-.246,0-.493.031-.79.051,0,.776,0,1.477,0,2.178,0,1.131-.09,1.223-1.187,1.223h-21.2c-1.062,0-1.179-.115-1.179-1.164q0-11.449,0-22.9v-.857H5.618V45.754H56.847v-3.41h-.721c-1.949,0-3.9,0-5.847,0-.517,0-1-.089-.994-.712s.5-.7,1.014-.692c1.456.008,2.912,0,4.368,0h2.173V38.861H55.4q-2.642,0-5.283,0c-.452,0-.818-.148-.84-.645-.024-.539.348-.722.83-.735.164,0,.329,0,.493,0q2.747,0,5.495,0c.247,0,.494-.023.727-.035V35.407c-2.265,0-4.472,0-6.678,0-.477,0-.868-.169-.866-.7s.385-.685.872-.683c1.573.008,3.147,0,4.72,0h1.952v-2.1c-2.242,0-4.425,0-6.607,0-.5,0-.936-.113-.933-.694s.442-.708.938-.706c.869,0,1.738,0,2.607,0h4.01v-2.07H53.984c-1.315,0-2.63,0-3.945-.008-.428,0-.748-.2-.761-.654-.015-.5.306-.7.772-.711.188,0,.376,0,.563,0q2.748,0,5.495,0c.246,0,.492-.022.715-.033V15.3ZM18.744,1.464V6.413q0,14.091-.015,28.182c0,.664.2.812.833.811q11.657-.031,23.314-.015c.25,0,.5-.022.775-.034V6.976c-1.553,0-3.055-.006-4.556,0-.638,0-.966-.284-.959-.932,0-.305,0-.611,0-.916,0-1.214,0-2.427,0-3.667ZM35.988,36.845H18.865c-1.464,0-1.572-.105-1.572-1.543q0-13.986,0-27.972V6.354H15.378v32.4H35.988Zm-1.325,18.73H27.786v4.074h6.876ZM42.427,5.536,39.62,2.726V5.505c.18.012.317.029.453.03.793,0,1.585,0,2.354,0" transform="translate(0 0)" fill="#fff"/>
        <path id="Trazado_196408" data-name="Trazado 196408" d="M85.9,20.957c2.087,0,4.174.006,6.262,0,.52,0,.993.083,1,.7s-.468.724-.987.723q-6.3-.006-12.593,0c-.53,0-.985-.143-.968-.748.016-.562.456-.682.958-.68,2.11.01,4.221,0,6.332,0" transform="translate(-57.783 -15.402)" fill="#fff"/>
        <path id="Trazado_196409" data-name="Trazado 196409" d="M85.834,85.2c-2.064,0-4.127-.006-6.191,0-.513,0-1.012-.067-1.031-.677-.021-.654.488-.753,1.033-.752q6.262.008,12.523,0c.519,0,.992.1.991.718s-.472.712-.993.71c-2.111-.01-4.221,0-6.332,0" transform="translate(-57.787 -61.58)" fill="#fff"/>
        <path id="Trazado_196410" data-name="Trazado 196410" d="M85.968,31.417q2.989,0,5.978,0c.211,0,.464-.056.621.04.232.142.554.4.546.6a1.147,1.147,0,0,1-.5.711c-.16.116-.452.063-.685.064q-6.048,0-12.1,0c-.141,0-.282,0-.422,0-.449-.02-.807-.2-.817-.688-.012-.528.349-.725.838-.725h6.54" transform="translate(-57.77 -23.083)" fill="#fff"/>
        <path id="Trazado_196411" data-name="Trazado 196411" d="M85.91,43.28c-2.11,0-4.22.017-6.33-.02a1.26,1.26,0,0,1-.833-.458c-.1-.121.042-.537.193-.723a.912.912,0,0,1,.639-.2q6.4-.017,12.8-.007c.478,0,.86.183.859.713s-.366.7-.859.7c-2.157-.007-4.314,0-6.471,0" transform="translate(-57.863 -30.779)" fill="#fff"/>
        <path id="Trazado_196412" data-name="Trazado 196412" d="M85.88,53.787c-2.087,0-4.175-.005-6.262,0-.52,0-1-.1-1.008-.7s.461-.726.987-.725q6.3.01,12.594,0c.529,0,.981.121.968.738-.012.572-.447.692-.947.69-2.11-.007-4.221,0-6.332,0" transform="translate(-57.786 -38.49)" fill="#fff"/>
        <path id="Trazado_196413" data-name="Trazado 196413" d="M85.886,62.911c2.086,0,4.173.006,6.259,0,.514,0,1,.062,1.005.691s-.474.725-.99.725q-6.294,0-12.589,0c-.522,0-.988-.134-.974-.745.013-.573.461-.673.958-.671,2.11.01,4.22,0,6.33,0" transform="translate(-57.777 -46.243)" fill="#fff"/>
        <path id="Trazado_196414" data-name="Trazado 196414" d="M85.817,74.72c-2.11,0-4.22.02-6.329-.019a1.277,1.277,0,0,1-.914-.449c-.247-.36-.015-.734.4-.874a2.449,2.449,0,0,1,.763-.073q6.048-.006,12.1,0c.141,0,.282,0,.422,0,.451.02.8.205.806.7,0,.53-.357.718-.846.718q-3.2,0-6.4,0" transform="translate(-57.685 -53.884)" fill="#fff"/>
        <path id="Trazado_196415" data-name="Trazado 196415" d="M85.9,94.329c2.063,0,4.127.006,6.19,0,.513,0,1.006.057,1.014.683.009.669-.512.737-1.046.737q-6.225-.005-12.45,0c-.474,0-.915-.046-1.052-.6-.115-.461.257-.814.873-.816,2.157-.008,4.314,0,6.471,0" transform="translate(-57.73 -69.338)" fill="#fff"/>
        <path id="Trazado_196416" data-name="Trazado 196416" d="M132.216,119.254c-.984,0-1.967,0-2.951,0-.483,0-.851-.158-.854-.7s.363-.719.843-.72q2.951,0,5.9,0c.486,0,.86.2.864.71s-.359.716-.853.713c-.984-.006-1.967,0-2.951,0" transform="translate(-94.394 -86.619)" fill="#fff"/>
        <path id="Trazado_196417" data-name="Trazado 196417" d="M132.241,107.355c.96,0,1.919,0,2.879,0,.5,0,.917.176.9.744-.016.526-.415.674-.891.673q-2.914-.006-5.828,0c-.465,0-.87-.112-.892-.663-.023-.586.383-.75.883-.752.983-.005,1.966,0,2.949,0" transform="translate(-94.393 -78.916)" fill="#fff"/>
      </g>
    </g>
  </g>
</svg>
