<?xml version="1.0" encoding="utf-8"?>
<!-- Generator: Adobe Illustrator 26.2.1, SVG Export Plug-In . SVG Version: 6.00 Build 0)  -->
<svg version="1.1" id="Layer_1" xmlns="http://www.w3.org/2000/svg" xmlns:xlink="http://www.w3.org/1999/xlink" x="0px" y="0px"
	 viewBox="0 0 1000.9 616.7" style="enable-background:new 0 0 1000.9 616.7;" xml:space="preserve">
<style type="text/css">
	.st0{fill:#CCCCCC;}
	.st1{fill:#F36D21;}
	.st2{fill:#FFFFFF;stroke:#818181;stroke-width:3;stroke-miterlimit:10;}
	.st3{fill:#B5B5B6;}
	.st4{fill:#E6E6E5;}
	.st5{fill:#FFFFFF;stroke:#818181;stroke-width:5;stroke-miterlimit:10;}
	.st6{fill:#4E4E4E;}
</style>
<g>
	<path class="st0" d="M920.6,563.5H80.3c-18.3,0-33.1-14.9-33.1-33.1V86.3c0-18.3,14.9-33.1,33.1-33.1h840.3
		c18.3,0,33.1,14.9,33.1,33.1v444.1C953.7,548.6,938.9,563.5,920.6,563.5z M80.3,58.2c-15.5,0-28.1,12.6-28.1,28.1v444.1
		c0,15.5,12.6,28.1,28.1,28.1h840.3c15.5,0,28.1-12.6,28.1-28.1V86.3c0-15.5-12.6-28.1-28.1-28.1H80.3z"/>
	<polygon class="st1" points="109.2,339.6 85.3,315.7 109.6,291.4 114.7,296.5 95.5,315.7 114.3,334.5 	"/>
	<polygon class="st1" points="899.6,291.4 923.5,315.3 899.2,339.6 894.1,334.5 913.3,315.3 894.5,296.5 	"/>
	<g>
		<path class="st2" d="M855.2,434.9H670.1c-5.7,0-10.4-4.6-10.4-10.4V192.1c0-5.7,4.6-10.4,10.4-10.4h185.1
			c5.7,0,10.4,4.6,10.4,10.4v232.4C865.5,430.3,860.9,434.9,855.2,434.9z"/>
		<rect x="702.9" y="214.3" class="st3" width="145.6" height="19.7"/>
		<rect x="702.6" y="248.8" class="st4" width="146.1" height="17.2"/>
		<rect x="702.6" y="280.8" class="st4" width="146.1" height="17.2"/>
		<rect x="702.6" y="312.9" class="st4" width="146.1" height="17.2"/>
		<rect x="702.6" y="344.9" class="st4" width="146.1" height="17.2"/>
		<rect x="702.6" y="376.9" class="st4" width="86.8" height="17.2"/>
		<circle class="st5" cx="662.7" cy="224.1" r="24.7"/>
		<g>
			<path class="st6" d="M668.1,226.9c0,3.3-2.2,5.3-6.9,5.3c-2.3,0-3.9-0.4-5.1-1v-2.8c1.4,0.7,3,1.1,5,1.1c2.3,0,3.8-0.9,3.8-2.7
				c0-1.8-1.1-2.5-3-2.5c-1,0-1.6,0.1-2.3,0.2l-1-2l4.7-4.7h-7v-2.7h11.2v2.1l-5,4.8c0.2,0,0.4,0,0.6,0
				C666.1,222,668.1,223.7,668.1,226.9z"/>
		</g>
		<path class="st2" d="M602.7,434.9H417.6c-5.7,0-10.4-4.6-10.4-10.4V192.1c0-5.7,4.6-10.4,10.4-10.4h185.1
			c5.7,0,10.4,4.6,10.4,10.4v232.4C613.1,430.3,608.4,434.9,602.7,434.9z"/>
		<rect x="450.4" y="214.3" class="st3" width="145.6" height="19.7"/>
		<rect x="450.2" y="248.8" class="st4" width="146.1" height="17.2"/>
		<rect x="450.2" y="280.8" class="st4" width="146.1" height="17.2"/>
		<rect x="450.2" y="312.9" class="st4" width="146.1" height="17.2"/>
		<rect x="450.2" y="344.9" class="st4" width="146.1" height="17.2"/>
		<rect x="450.2" y="376.9" class="st4" width="86.8" height="17.2"/>
		<circle class="st5" cx="410.3" cy="224.1" r="24.7"/>
		<g>
			<path class="st6" d="M415.5,229.1v2.7h-12v-2.4l5-4.3c2-1.7,3.1-3,3.1-4.9c0-1.9-1.3-2.8-3.5-2.8c-1.5,0-3.1,0.4-4.6,1v-2.7
				c1.5-0.6,3.4-1,5.3-1c3.7,0,6,1.8,6,5.2c0,3.3-1.9,5.2-4.6,7.4l-2.4,1.9H415.5z"/>
		</g>
		<path class="st2" d="M352.6,434.9H167.5c-5.7,0-10.4-4.6-10.4-10.4V192.1c0-5.7,4.6-10.4,10.4-10.4h185.1
			c5.7,0,10.4,4.6,10.4,10.4v232.4C362.9,430.3,358.3,434.9,352.6,434.9z"/>
		<rect x="200.3" y="214.3" class="st3" width="145.6" height="19.7"/>
		<rect x="200" y="248.8" class="st4" width="146.1" height="17.2"/>
		<rect x="200" y="280.8" class="st4" width="146.1" height="17.2"/>
		<rect x="200" y="312.9" class="st4" width="146.1" height="17.2"/>
		<rect x="200" y="344.9" class="st4" width="146.1" height="17.2"/>
		<rect x="200" y="376.9" class="st4" width="86.8" height="17.2"/>
		<circle class="st5" cx="160.1" cy="224.1" r="24.7"/>
		<g>
			<path class="st6" d="M162.4,229.1v2.7h-8.9v-2.7h3.1v-10.7l-3.3,1v-2.8l4-1.4h2.3v14H162.4z"/>
		</g>
	</g>
</g>
</svg>
