<svg xmlns="http://www.w3.org/2000/svg" xmlns:xlink="http://www.w3.org/1999/xlink" width="108" height="108" viewBox="0 0 108 108">
  <defs>
    <clipPath id="clip-path">
      <rect id="Rectángulo_46027" data-name="Rectángulo 46027" width="73.919" height="73.181" fill="#fff"/>
    </clipPath>
  </defs>
  <g id="Grupo_154423" data-name="Grupo 154423" transform="translate(-4852 8769)">
    <circle id="Elipse_5731" data-name="Elipse 5731" cx="54" cy="54" r="54" transform="translate(4852 -8769)" fill="#7f4fc7"/>
    <g id="Grupo_154357" data-name="Grupo 154357" transform="translate(4869 -8751)">
      <g id="Grupo_154356" data-name="Grupo 154356" clip-path="url(#clip-path)">
        <path id="Trazado_196392" data-name="Trazado 196392" d="M0,20.737A3.175,3.175,0,0,1,1.951,19.3c3.527-1.187,7.041-2.409,10.56-3.619.245-.084.489-.173.77-.273-.185-1.062-.359-2.077-.538-3.091-.3-1.7.2-2.431,1.894-2.723,3.9-.675,7.809-1.347,11.807-2.036V4.614c0-.866-.018-1.732.006-2.6A1.868,1.868,0,0,1,28.371.024c.24-.017.481-.01.721-.01Q45.8.014,62.5,0a3.138,3.138,0,0,1,2.378.94c2.7,2.636,5.445,5.234,8.195,7.822a2.481,2.481,0,0,1,.843,1.961q-.027,23.092-.014,46.184c0,1.7-.66,2.365-2.343,2.366-3.031,0-6.072-.153-9.089.05a26.534,26.534,0,0,0-6.913,1.214c-11.583,4.042-23.107,8.252-34.652,12.4-1.559.561-2.394.167-2.957-1.4Q13.891,60.256,9.836,48.968a4.739,4.739,0,0,1-.175-.548,1.053,1.053,0,0,1,.676-1.334,1.026,1.026,0,0,1,1.343.648c.46,1.186.877,2.389,1.307,3.587Q16.4,60.811,19.805,70.3c.064.179.142.352.257.637l23.686-8.514c-.01-.038-.02-.075-.03-.112q-3.117.529-6.233,1.059-6.819,1.17-13.638,2.342a1.822,1.822,0,0,1-2.209-1.636Q20.48,57.44,19.347,50.8q-2.059-12.006-4.113-24.012c-.519-3.028-1.041-6.056-1.583-9.21l-11.387,3.9c.38,1.074.734,2.085,1.1,3.092q3.254,9.049,6.51,18.1a3.512,3.512,0,0,1,.2.615,1.022,1.022,0,0,1-.688,1.205.982.982,0,0,1-1.257-.418,3.789,3.789,0,0,1-.334-.794Q3.973,32.67.155,22.064A3.113,3.113,0,0,0,0,21.748V20.737M71.69,57.079V11.4c-.335,0-.619,0-.9,0-2.213-.009-4.427.022-6.638-.041a2.429,2.429,0,0,1-2.521-2.649c-.017-1.9-.009-3.8-.015-5.7,0-.255-.023-.509-.035-.768H28.608v.924q0,13.567,0,27.134c0,.241.009.482-.011.721a.985.985,0,0,1-1.012,1.007,1,1,0,0,1-1.109-.912,4.068,4.068,0,0,1-.032-.791q0-9.85,0-19.7V9.757L14.851,11.748l8.88,51.788,24.228-4.153c0-.037-.006-.074-.009-.111H47.09q-9.165,0-18.33,0c-1.632,0-2.315-.689-2.315-2.334q0-10.211,0-20.423a3.191,3.191,0,0,1,.043-.717,1.064,1.064,0,0,1,2.108.138c.019.239.011.481.011.721q0,9.779,0,19.557v.865Zm-7.9-54.164c0,1.977.023,3.753-.012,5.529-.012.612.225.794.794.789,1.705-.015,3.411,0,5.116,0,.176,0,.353-.033.664-.065L63.788,2.915" transform="translate(0 0)" fill="#fff"/>
        <path id="Trazado_196393" data-name="Trazado 196393" d="M111.3,87.068h14.857a3.947,3.947,0,0,1,.719.022,1.019,1.019,0,0,1,.915,1.044,1.03,1.03,0,0,1-.951,1.085,2.954,2.954,0,0,1-.5.014H96.191a3.019,3.019,0,0,1-.575-.019,1.074,1.074,0,0,1-.034-2.117,3.407,3.407,0,0,1,.719-.028q7.5,0,15,0" transform="translate(-60.847 -55.938)" fill="#fff"/>
        <path id="Trazado_196394" data-name="Trazado 196394" d="M111.289,65.6h14.856a5.487,5.487,0,0,1,.72.02.906.906,0,0,1,.889.955,1.874,1.874,0,0,1-.667,1.061c-.192.167-.594.125-.9.125q-14.964.008-29.928,0c-.12,0-.241,0-.361,0-.764-.044-1.238-.495-1.206-1.145.03-.626.479-1.013,1.239-1.014q7.68-.009,15.36,0" transform="translate(-60.837 -42.148)" fill="#fff"/>
        <path id="Trazado_196395" data-name="Trazado 196395" d="M111.225,110.715H96.37a6.361,6.361,0,0,1-.72-.014.976.976,0,0,1-.933-.934.962.962,0,0,1,.706-1.114,3.18,3.18,0,0,1,.923-.1q14.892-.007,29.783,0a3.505,3.505,0,0,1,.857.069.986.986,0,0,1,.806,1.119,1,1,0,0,1-.989.964c-.215.018-.432.009-.648.009H111.225" transform="translate(-60.849 -69.743)" fill="#fff"/>
        <path id="Trazado_196396" data-name="Trazado 196396" d="M111.225,44.049q7.427,0,14.854,0a4.9,4.9,0,0,1,.791.031,1,1,0,0,1,.926,1.1.99.99,0,0,1-.944,1.006,6.486,6.486,0,0,1-.792.029q-14.818,0-29.635,0a5.051,5.051,0,0,1-.862-.045,1.054,1.054,0,0,1-.051-2.058,4,4,0,0,1,.859-.059q7.427,0,14.854,0" transform="translate(-60.852 -28.301)" fill="#fff"/>
        <path id="Trazado_196397" data-name="Trazado 196397" d="M111.287,130.1h14.782a6.638,6.638,0,0,1,.792.024,1.053,1.053,0,0,1,.107,2.07,3.251,3.251,0,0,1-.785.069q-14.963,0-29.925,0a2.841,2.841,0,0,1-.853-.1.88.88,0,0,1-.675-1.107,2.125,2.125,0,0,1,.853-.912c.183-.126.514-.045.778-.045q7.463,0,14.926,0" transform="translate(-60.836 -83.574)" fill="#fff"/>
      </g>
    </g>
  </g>
</svg>
