<svg xmlns="http://www.w3.org/2000/svg" width="90" height="90.181" viewBox="0 0 90 90.181"><g transform="translate(-0.514)"><path d="M30.358,91.365l73.237-7.65a43.159,43.159,0,1,0-73.237,7.65Z" transform="translate(-17.272 -18.118)" fill="#5c45bf"/><path d="M269.386,261.921a19.6,19.6,0,0,1-2.828,2.7,10.353,10.353,0,0,1-9.5,1.676l.214,1.119A10.728,10.728,0,0,1,255.2,273a5.191,5.191,0,0,0-.586.185,14.158,14.158,0,0,0,14.259-1.8,28.573,28.573,0,0,0,2.559-2.25C269.874,267.295,269.463,264.154,269.386,261.921Z" transform="translate(-209.343 -215.787)" fill="#73c3f9"/><path d="M224.784,261.921c-.077,2.233-.488,5.374-2.045,7.206a28.568,28.568,0,0,0,2.559,2.25,14,14,0,0,0,3.425,1.955,3.743,3.743,0,0,1,.365-.1,10.875,10.875,0,0,0,2.191-5.832l-.193-1.013a10.313,10.313,0,0,1-3.475-1.763A19.636,19.636,0,0,1,224.784,261.921Z" transform="translate(-183.083 -215.787)" fill="#49b1f7"/><path d="M272.9,5.828C265.467.462,260-1.2,253.771.85l.049.02a13.683,13.683,0,0,0-.906,4.425,7.27,7.27,0,0,0,4.108,7.136,3.323,3.323,0,0,0-.166.46,16.544,16.544,0,0,1,11.506,2.881,8.251,8.251,0,0,1,2.823,4.052l.77,2.992,1.638,3.677a2.926,2.926,0,0,1,2.364-.353h0L276.7,14.63a9.936,9.936,0,0,0-3.8-8.8Z" transform="translate(-207.94 0)" fill="#73c3f9"/><path d="M201.137,15.7c-6.917-3.244-3.214-11.585-3.214-11.585a33.144,33.144,0,0,0-9.436,5.1,9.936,9.936,0,0,0-3.8,8.8l.741,11.509h0a2.927,2.927,0,0,1,2.364.353l1.637-3.677.77-2.992a8.251,8.251,0,0,1,2.823-4.052,16.055,16.055,0,0,1,7.877-2.909A2.855,2.855,0,0,1,201.137,15.7Z" transform="translate(-151.698 -3.392)" fill="#49b1f7"/><path d="M289.137,76.6a8.251,8.251,0,0,0-2.823-4.052,16.541,16.541,0,0,0-11.473-2.885c.045.024.088.05.133.073a2.674,2.674,0,0,0-.194,1.776,2.08,2.08,0,0,0,.939,1.19c-.058.084-.126.187-.195.306a20.26,20.26,0,0,1,10.789,2.267,6.656,6.656,0,0,1,2.823,3.117l1.091,2.451Z" transform="translate(-225.893 -57.304)" fill="#9bd8f9"/><path d="M222.792,72.906a2.059,2.059,0,0,1-.783-3,16.092,16.092,0,0,0-8.115,2.931,8.25,8.25,0,0,0-2.823,4.052l-1.091,4.243,1.091-2.451a6.657,6.657,0,0,1,2.823-3.117,19.529,19.529,0,0,1,8.622-2.281A3.259,3.259,0,0,1,222.792,72.906Z" transform="translate(-172.571 -57.59)" fill="#73c3f9"/><path d="M367.73,145.752c-.717-.658-2.321-.324-2.939.078a8.678,8.678,0,0,1,.026,2.557l-.729,5.31c0,.428-.014.848-.038,1.261a2.4,2.4,0,0,0,2.985-2.155,8.131,8.131,0,0,1,.314-1.39C367.822,149.937,369.528,147.4,367.73,145.752Z" transform="translate(-299.504 -119.773)" fill="#73c3f9"/><path d="M184.123,145.752c.717-.658,2.321-.324,2.939.078a8.685,8.685,0,0,0-.026,2.557l.729,5.31c0,.428.014.848.038,1.261a2.4,2.4,0,0,1-2.985-2.155,8.168,8.168,0,0,0-.314-1.39C184.032,149.937,182.326,147.4,184.123,145.752Z" transform="translate(-150.606 -119.773)" fill="#49b1f7"/><path d="M292.35,97.09l-1.327-2.98-.77-1.728a6.655,6.655,0,0,0-2.823-3.117,20.223,20.223,0,0,0-10.669-2.273c.025.017.049.035.075.051a3.364,3.364,0,0,0,.034,4.228,1.78,1.78,0,0,0-.475,1.156,1.442,1.442,0,0,0,.5,1.026c-.442.841-1.942,4.167.625,6.462a2.013,2.013,0,0,0,.1,2.566v10.951a10.057,10.057,0,0,0,2.179,6.317,10.333,10.333,0,0,0,2.774,2.386,10.274,10.274,0,0,0,1.655-1.046,19.514,19.514,0,0,0,7.544-15.519l.729-5.31A8.617,8.617,0,0,0,292.35,97.09Z" transform="translate(-227.01 -71.647)" fill="#ffc7ab"/><path d="M222.633,122.031a10.123,10.123,0,0,1-2.846-2.408,9.77,9.77,0,0,1-2.12-6.151V102.415a1.846,1.846,0,0,1,0-2.5c-3.1-2.51-.652-6.483-.652-6.483a1.308,1.308,0,0,1,0-2.114,3.175,3.175,0,0,1-.009-4.307,19.63,19.63,0,0,0-8.889,2.292,6.655,6.655,0,0,0-2.823,3.117l-.77,1.728h0L203.2,97.123a8.608,8.608,0,0,0-.15,3.175l.729,5.312a19.514,19.514,0,0,0,7.544,15.519,10.363,10.363,0,0,0,11.309.9Z" transform="translate(-166.795 -71.685)" fill="#ffaa7b"/><g transform="translate(34.627 24.814)"><path d="M198.529,148.7l-4.213-6.6a.793.793,0,1,1,1.336-.853l4.213,6.6a.793.793,0,0,1-1.336.853Z" transform="translate(-194.191 -140.879)" fill="#d3dcfb"/></g><g transform="translate(61.59 24.814)"><path d="M347.635,148.894a.793.793,0,0,1-.242-1.095l4.184-6.556a.793.793,0,0,1,1.336.853l-4.184,6.556A.792.792,0,0,1,347.635,148.894Z" transform="translate(-347.269 -140.878)" fill="#d3dcfb"/></g><path d="M294.079,165.925a14.9,14.9,0,0,1-7.7-1.836,7.2,7.2,0,0,0-4.231-.954,1.9,1.9,0,0,0,.353,2.079v10.951a10.058,10.058,0,0,0,2.178,6.317,10.407,10.407,0,0,0,3.093,2.57,10.267,10.267,0,0,0,1.336-.878,19.842,19.842,0,0,0,4.593-5.1,7,7,0,0,0,1.047-3.384l.329-8.347C295.12,166.559,294.655,165.906,294.079,165.925Z" transform="translate(-231.899 -134.378)" fill="#deeeff"/><path d="M228.819,186.376a10.355,10.355,0,0,0,5.278-1.444,10.19,10.19,0,0,1-3.159-2.583,9.77,9.77,0,0,1-2.12-6.151V165.141a1.652,1.652,0,0,1-.317-1.993,7.333,7.333,0,0,0-3.3.975,14.9,14.9,0,0,1-7.7,1.836c-.576-.019-1.041.635-1,1.417l.329,8.347a7,7,0,0,0,1.047,3.384,19.836,19.836,0,0,0,4.593,5.1,10.344,10.344,0,0,0,6.342,2.169Z" transform="translate(-177.946 -134.412)" fill="#d3dcfb"/><path d="M205.447,337.88l5.9-5.513a43.22,43.22,0,0,0,6.69-10.075c-3.88-7.049-18.11-10.717-18.11-10.717h-.285a34.031,34.031,0,0,1-5.138,4.961,19.473,19.473,0,0,1-20.329,2.165c.012.085.023.169.039.256a19.79,19.79,0,0,0-6.727,1.609,11.334,11.334,0,0,0-7.1,10.954v11.106a43.176,43.176,0,0,0,45.061-4.745Z" transform="translate(-131.713 -256.695)" fill="#73c3f9"/><path d="M92.622,311.575h-.285S77.561,315.383,74.016,322.7a30,30,0,0,0-2.124,7.246,43.331,43.331,0,0,0,15.851,12.812V331.52c0-12.153,13.887-12.311,13.887-12.311-.031-.129-.057-.255-.079-.377a19.3,19.3,0,0,1-3.791-2.3A34.025,34.025,0,0,1,92.622,311.575Z" transform="translate(-58.807 -256.695)" fill="#49b1f7"/><path d="M260.775,295.514a2.161,2.161,0,0,0-2.945.2,27.652,27.652,0,0,1-3.145,2.863,13.564,13.564,0,0,1-13.567,1.767,4.8,4.8,0,0,0-2.613,1.868,4.152,4.152,0,0,0-.487,3.113l-.185.011a19.473,19.473,0,0,0,20.476-2.094,34.118,34.118,0,0,0,5.423-5.3Z" transform="translate(-195.518 -243.061)" fill="#9bd8f9"/><path d="M197.01,298.574a27.638,27.638,0,0,1-3.145-2.863,2.161,2.161,0,0,0-2.945-.2l-2.956,2.427a34.109,34.109,0,0,0,5.423,5.3,19.3,19.3,0,0,0,3.869,2.331c-1.022-4.235,3.182-5.064,3.182-5.064A13.433,13.433,0,0,1,197.01,298.574Z" transform="translate(-154.433 -243.062)" fill="#73c3f9"/><path d="M292.455,114.167a5.07,5.07,0,0,0-4.1-2.7H276.864a1.772,1.772,0,0,0-.468,1.148,1.442,1.442,0,0,0,.5,1.026c-.442.841-1.942,4.167.625,6.462a2.015,2.015,0,0,0,.085,2.551.471.471,0,0,1,.636.076c2.51,2.97,4.407,3.617,5.581,3.617h3.647a4.735,4.735,0,0,0,3.429-1.508,7.223,7.223,0,0,0,2.107-4.89v-3.882A3.5,3.5,0,0,0,292.455,114.167Z" transform="translate(-227.01 -91.832)" fill="#4b6bb2"/><path d="M215.323,122.728a.469.469,0,0,1,.36-.167,1.846,1.846,0,0,1,0-2.5c-3.1-2.51-.652-6.483-.652-6.483a1.308,1.308,0,0,1,0-2.114h-9.823a5.07,5.07,0,0,0-4.1,2.7,3.5,3.5,0,0,0-.549,1.9v3.882a7.225,7.225,0,0,0,2.107,4.89,4.735,4.735,0,0,0,3.429,1.508h3.647C210.916,126.345,212.813,125.7,215.323,122.728Z" transform="translate(-164.811 -91.832)" fill="#2a428c"/><path d="M286.835,123.466h-2.8a15.315,15.315,0,0,1-4.824,0h-2.37c.02.02.038.04.058.06-.442.841-1.941,4.165.623,6.46a1.9,1.9,0,0,1,.363-.038,1.927,1.927,0,0,1,1.518.744c.093.118.185.232.278.344a7.647,7.647,0,0,1,1.817.746,14.857,14.857,0,0,0,7.47,1.841,2.788,2.788,0,0,0,.22-.18,7.163,7.163,0,0,1,1.677-3.147,4.034,4.034,0,0,0,.029-.463v-2.313A19.67,19.67,0,0,0,286.835,123.466Z" transform="translate(-227.01 -101.719)" fill="#ffaa7b"/><path d="M224.05,130.692a1.927,1.927,0,0,1,1.518-.744c-3.1-2.51-.652-6.483-.652-6.483h-9.823c-1.09,0-1.986,1.211-2.322,1.732a1.388,1.388,0,0,0-.213.754v3.882a5.159,5.159,0,0,0,1.533,3.443,2.8,2.8,0,0,0,.392.346,14.856,14.856,0,0,0,7.47-1.841,7.648,7.648,0,0,1,1.817-.746C223.865,130.923,223.957,130.809,224.05,130.692Z" transform="translate(-174.696 -101.718)" fill="#fc9460"/><path d="M304.592,166.634a.744.744,0,0,0-.163-.015,14.9,14.9,0,0,1-7.695-1.836,7.576,7.576,0,0,0-2.18-.834c.028.032.058.062.085.1,1.693,2.145,3.347,3.426,4.422,3.426h3.647A2.578,2.578,0,0,0,304.592,166.634Z" transform="translate(-242.249 -135.073)" fill="#bec8f7"/><path d="M229.146,164.784a14.9,14.9,0,0,1-7.7,1.836.747.747,0,0,0-.164.015,2.579,2.579,0,0,0,1.884.838h3.647c1.076,0,2.729-1.281,4.422-3.426.027-.034.056-.064.085-.1A7.575,7.575,0,0,0,229.146,164.784Z" transform="translate(-181.887 -135.073)" fill="#a8b7ef"/><path d="M338.768,123.466h-1.521l4.056,4.056v-1.569a1.388,1.388,0,0,0-.213-.754C340.755,124.677,339.858,123.466,338.768,123.466Z" transform="translate(-277.422 -101.719)" fill="#ffc7ab"/><path d="M298.765,123.466h-4.824l9.978,9.978c.059-.053.117-.108.172-.166a5.38,5.38,0,0,0,1.5-2.98Z" transform="translate(-241.744 -101.719)" fill="#ffc7ab"/><path d="M276.444,323.733h-2.762a1.046,1.046,0,0,0-1.046,1.046v32.1a43.418,43.418,0,0,0,4.854-.4v-31.7A1.046,1.046,0,0,0,276.444,323.733Z" transform="translate(-224.191 -266.712)" fill="#49b1f7"/><path d="M39.449,201.318a8.109,8.109,0,0,0,6.464,2.625l8,8.425a8.287,8.287,0,0,0,3.413,5.214c2.168,1.43,5.064,1.7,8.607.822a19.179,19.179,0,0,0-28.42-25.292c-.143,1.161-.464,5.363,1.937,8.206Z" transform="translate(-30.4 -155.223)" fill="#ffdd40"/><path d="M35.749,238.872c-10.713,2.826-11.991-5.834-11.991-5.834l-8.131-8.565c-10.051,0-8.212-10.824-8.212-10.825a19.179,19.179,0,1,0,28.334,25.224Z" transform="translate(0 -176.017)" fill="#ffc839"/><g transform="translate(18.812 27.447)"><path d="M105.282,166.013a.881.881,0,0,1-.881-.881V156.71a.881.881,0,1,1,1.761,0v8.423A.881.881,0,0,1,105.282,166.013Z" transform="translate(-104.401 -155.829)" fill="#deeeff"/></g><path d="M101.76,204.711h-1.026a.769.769,0,0,0-.754.618l-.253,1.264a11.5,11.5,0,0,0-.223,2.255v4.484h3.486v-4.484a11.5,11.5,0,0,0-.223-2.255l-.253-1.264A.769.769,0,0,0,101.76,204.711Z" transform="translate(-81.554 -168.654)" fill="#73c3f9"/><path d="M102.042,211.217a.8.8,0,0,1-.794-.794V205.2a.785.785,0,0,1,.173-.488h-.686a.769.769,0,0,0-.754.618l-.253,1.264a11.5,11.5,0,0,0-.223,2.255v4.484h3.486v-2.116h-.949Z" transform="translate(-81.555 -168.655)" fill="#1e9ef4"/><path d="M96.813,253.659h4.434v3.122H96.813Z" transform="translate(-79.337 -208.981)" fill="#1e9ef4"/><g transform="translate(16.17 43.798)"><path d="M95.563,250.42H90.278a.881.881,0,0,1,0-1.761h5.285a.881.881,0,1,1,0,1.761Z" transform="translate(-89.397 -248.659)" fill="#9bd8f9"/></g><path d="M93.57,270.106H87.2a.881.881,0,0,0-.881.881v1.191h8.131v-1.191A.881.881,0,0,0,93.57,270.106Z" transform="translate(-70.692 -222.531)" fill="#cc0053"/><path d="M110.862,295.716a2.186,2.186,0,0,0-2.179,2.179v15.442a2.177,2.177,0,0,0,.983,1.816,19.23,19.23,0,0,0,3.209-.413V295.716Z" transform="translate(-89.117 -243.63)" fill="#ff4155"/><path d="M90.385,300.8V285.828a2.12,2.12,0,0,1,2.114-2.114H94.45v-2.874H86.319v21.644a19.254,19.254,0,0,0,4.065.433q.807,0,1.6-.067A2.12,2.12,0,0,1,90.385,300.8Z" transform="translate(-70.692 -231.375)" fill="#e80054"/><g transform="translate(14.747 52.796)"><path d="M84.048,301.507H82.2a.881.881,0,0,1,0-1.761h1.848a.881.881,0,0,1,0,1.761Z" transform="translate(-81.319 -299.746)" fill="#f9a0b1"/></g><g transform="translate(14.747 56.272)"><path d="M83.051,321.241H82.2a.881.881,0,0,1,0-1.761h.851a.881.881,0,0,1,0,1.761Z" transform="translate(-81.319 -319.48)" fill="#ff7186"/></g><g transform="translate(14.747 59.748)"><path d="M83.051,340.974H82.2a.881.881,0,0,1,0-1.761h.851a.881.881,0,0,1,0,1.761Z" transform="translate(-81.319 -339.213)" fill="#ff7186"/></g><g transform="translate(14.747 63.223)"><path d="M84.048,360.708H82.2a.881.881,0,1,1,0-1.761h1.848a.881.881,0,1,1,0,1.761Z" transform="translate(-81.319 -358.947)" fill="#f9a0b1"/></g><g transform="translate(14.747 66.699)"><path d="M83.051,380.441H82.2a.881.881,0,1,1,0-1.761h.851a.881.881,0,1,1,0,1.761Z" transform="translate(-81.319 -378.68)" fill="#ff7186"/></g><path d="M66.378,66.469C71.48,70.127,79.337,70.3,82.3,65.14c1.969-3.429-.035-8.109-1.96-11.312A43.369,43.369,0,0,0,66.378,66.469Z" transform="translate(-54.263 -44.347)" fill="#7255ce"/><path d="M410.042,115.608a43.047,43.047,0,0,0-14.613-32.365c-1.756,2.328-2.282,6.052-1.226,11.14,2.114,10.189-11.566,12.356-2.994,23.263,4.476,5.695,12.117,5.725,18.341,4.483a43.46,43.46,0,0,0,.494-6.521Z" transform="translate(-319.528 -68.581)" fill="#7255ce"/><path d="M275.063,443.181a2.534,2.534,0,0,1-2.427-1.809V453.8a43.4,43.4,0,0,0,4.854-.4V441.372A2.534,2.534,0,0,1,275.063,443.181Z" transform="translate(-224.191 -363.63)" fill="#1e9ef4"/><path d="M422.118,403.649a14.756,14.756,0,0,0-3.2-5.075,1.571,1.571,0,0,0-2.7,1.1v9.489A43.39,43.39,0,0,0,422.118,403.649Z" transform="translate(-342.484 -327.978)" fill="#49b1f7"/></g></svg>