<svg xmlns="http://www.w3.org/2000/svg" width="75.326" height="81.225" viewBox="0 0 75.326 81.225">
  <g id="Group_20633" data-name="Group 20633" transform="translate(-3.454 4.073)">
    <path id="Rectangle_657" data-name="Rectangle 657" d="M.45,0h5.8A.45.45,0,0,1,6.7.45V19.817a3.351,3.351,0,0,1-3.351,3.351h0A3.351,3.351,0,0,1,0,19.817V.45A.45.45,0,0,1,.45,0Z" transform="translate(57.508 60.607) rotate(-45)" fill="#0f94a5"/>
    <g id="Group_1114" data-name="Group 1114" transform="translate(10.637 8.997)">
      <circle id="Ellipse_17" data-name="Ellipse 17" cx="29.92" cy="29.92" r="29.92" fill="#0f94a5"/>
    </g>
    <circle id="Ellipse_18" data-name="Ellipse 18" cx="24.622" cy="24.622" r="24.622" transform="translate(15.935 14.296)" fill="#ffe8e6"/>
    <path id="Path_580" data-name="Path 580" d="M67.15,45.849a1.447,1.447,0,0,0-.811.716.644.644,0,0,1-.443.337,20.807,20.807,0,0,1-2.138.31,13.181,13.181,0,0,0-4.1-5.936,24.541,24.541,0,0,1,1.318-2.431.674.674,0,0,1,.507-.31,1.629,1.629,0,0,0,1.213-.694,1.661,1.661,0,0,0-.416-2.31,1.7,1.7,0,0,0-2.388.549,1.63,1.63,0,0,0-.157,1.241.675.675,0,0,1-.122.577,24.685,24.685,0,0,1-1.833,2.1A13.091,13.091,0,0,0,51.3,38.281c-.318,0-.63.026-.942.047a23.318,23.318,0,0,1-.693-2.275.692.692,0,0,1,.144-.595,1.687,1.687,0,0,0,.292-1.613,1.716,1.716,0,1,0-2.465,2.046.683.683,0,0,1,.343.489,22.919,22.919,0,0,1,.218,2.285,13.14,13.14,0,0,0-6.138,3.41,22.446,22.446,0,0,1-2.386-1.512.638.638,0,0,1-.262-.484,1.305,1.305,0,0,0-.386-.884,1.348,1.348,0,0,0-1.945.089,1.317,1.317,0,0,0,.173,1.856,1.293,1.293,0,0,0,1.054.278.628.628,0,0,1,.526.17,22.23,22.23,0,0,1,1.9,2.029,13.072,13.072,0,0,0-2.474,6.1,23.912,23.912,0,0,1-2.628.368.657.657,0,0,1-.534-.214,1.667,1.667,0,0,0-1.7-.484,1.848,1.848,0,0,0-1.148,1.2,1.667,1.667,0,0,0,1.671,2.065,1.629,1.629,0,0,0,1.236-.626.7.7,0,0,1,.548-.274,23.311,23.311,0,0,1,2.455.178,13.085,13.085,0,0,0,2.069,6.631,21.529,21.529,0,0,1-1.649,1.867.645.645,0,0,1-.537.186,1.357,1.357,0,0,0-1.519,1.574,1.373,1.373,0,0,0,2.73-.226.641.641,0,0,1,.244-.5,20.888,20.888,0,0,1,1.9-1.348,13.193,13.193,0,0,0,4.642,3.409,23.219,23.219,0,0,1-.569,2.374.674.674,0,0,1-.4.43A1.66,1.66,0,0,0,44,67.876a1.617,1.617,0,0,0,.674,1.326,1.659,1.659,0,0,0,2.548-.785,1.632,1.632,0,0,0-.145-1.391.667.667,0,0,1-.045-.589A22.854,22.854,0,0,1,48.09,64.21a12.882,12.882,0,0,0,7.692-.391c.35.553.669,1.088.917,1.56a.676.676,0,0,1,.023.6,2.045,2.045,0,0,0,.384,2.313,1.953,1.953,0,0,0,1.667.592,2.04,2.04,0,0,0,1.613-2.911,1.994,1.994,0,0,0-1.391-1.089.667.667,0,0,1-.464-.384c-.213-.481-.43-1.054-.642-1.661a13.211,13.211,0,0,0,5.135-5.414,21.472,21.472,0,0,1,2.475.8.645.645,0,0,1,.372.4,1.324,1.324,0,0,0,1.026.912,1.317,1.317,0,0,0,.786-2.493,1.282,1.282,0,0,0-1.08-.005.642.642,0,0,1-.557-.021,21.326,21.326,0,0,1-2.262-1.407,12.9,12.9,0,0,0,.456-6.548,20.582,20.582,0,0,1,2.017-.749.636.636,0,0,1,.551.091,1.436,1.436,0,0,0,2.2-.727A1.46,1.46,0,0,0,67.15,45.849Z" transform="translate(-10.671 -12.566)" fill="#ff4a69"/>
    <g id="Group_1115" data-name="Group 1115" transform="translate(32.842 30.282)">
      <circle id="Ellipse_19" data-name="Ellipse 19" cx="0.994" cy="0.994" r="0.994" transform="translate(14.91 11.038)" fill="#d32a57"/>
      <circle id="Ellipse_20" data-name="Ellipse 20" cx="1.445" cy="1.445" r="1.445" transform="translate(5.05 14.449)" fill="#d32a57"/>
      <circle id="Ellipse_21" data-name="Ellipse 21" cx="1.081" cy="1.081" r="1.081" transform="translate(11.528)" fill="#d32a57"/>
      <circle id="Ellipse_22" data-name="Ellipse 22" cx="0.966" cy="0.966" r="0.966" transform="translate(0 10.153)" fill="#d32a57"/>
      <circle id="Ellipse_23" data-name="Ellipse 23" cx="1.081" cy="1.081" r="1.081" transform="translate(0.966 2.67)" fill="#d32a57"/>
      <circle id="Ellipse_24" data-name="Ellipse 24" cx="1.809" cy="1.809" r="1.809" transform="translate(7.94 6.043)" fill="#d32a57"/>
    </g>
    <g id="Group_1133" data-name="Group 1133" transform="translate(68.45 2.974)">
      <g id="Group_1125" data-name="Group 1125" transform="translate(4.205 0)">
        <path id="Path_589" data-name="Path 589" d="M113.075,9.413a.959.959,0,0,1-.96-.96V6.85a.96.96,0,1,1,1.919,0v1.6A.96.96,0,0,1,113.075,9.413Z" transform="translate(-112.115 -5.89)" fill="#f96985"/>
      </g>
      <g id="Group_1126" data-name="Group 1126" transform="translate(4.205 6.807)">
        <path id="Path_590" data-name="Path 590" d="M113.075,20.053a.959.959,0,0,1-.96-.96v-1.6a.96.96,0,1,1,1.919,0v1.6A.96.96,0,0,1,113.075,20.053Z" transform="translate(-112.115 -16.53)" fill="#f96985"/>
      </g>
      <g id="Group_1127" data-name="Group 1127" transform="translate(0 4.205)">
        <path id="Path_591" data-name="Path 591" d="M108.1,14.382h-1.6a.96.96,0,1,1,0-1.919h1.6a.96.96,0,0,1,0,1.919Z" transform="translate(-105.542 -12.463)" fill="#f96985"/>
      </g>
      <g id="Group_1128" data-name="Group 1128" transform="translate(6.807 4.205)">
        <path id="Path_592" data-name="Path 592" d="M118.745,14.382h-1.6a.96.96,0,0,1,0-1.919h1.6a.96.96,0,0,1,0,1.919Z" transform="translate(-116.182 -12.463)" fill="#f96985"/>
      </g>
      <g id="Group_1129" data-name="Group 1129" transform="translate(1.232 1.232)">
        <path id="Path_593" data-name="Path 593" d="M109.56,10.868a.955.955,0,0,1-.678-.281l-1.134-1.134A.96.96,0,0,1,109.106,8.1l1.134,1.134a.959.959,0,0,1-.679,1.638Z" transform="translate(-107.467 -7.816)" fill="#f96985"/>
      </g>
      <g id="Group_1130" data-name="Group 1130" transform="translate(6.045 6.045)">
        <path id="Path_594" data-name="Path 594" d="M117.084,18.392a.957.957,0,0,1-.679-.281l-1.134-1.134a.96.96,0,1,1,1.357-1.357l1.134,1.134a.96.96,0,0,1-.678,1.638Z" transform="translate(-114.99 -15.338)" fill="#f96985"/>
      </g>
      <g id="Group_1131" data-name="Group 1131" transform="translate(1.232 6.045)">
        <path id="Path_595" data-name="Path 595" d="M108.427,18.392a.96.96,0,0,1-.678-1.638l1.134-1.134a.96.96,0,1,1,1.357,1.357l-1.134,1.134A.957.957,0,0,1,108.427,18.392Z" transform="translate(-107.467 -15.338)" fill="#f96985"/>
      </g>
      <g id="Group_1132" data-name="Group 1132" transform="translate(6.045 1.232)">
        <path id="Path_596" data-name="Path 596" d="M115.95,10.868a.959.959,0,0,1-.679-1.638L116.405,8.1a.96.96,0,1,1,1.357,1.357l-1.134,1.134A.955.955,0,0,1,115.95,10.868Z" transform="translate(-114.99 -7.816)" fill="#f96985"/>
      </g>
    </g>
    <g id="Group_1142" data-name="Group 1142" transform="translate(3.454 66.823)">
      <g id="Group_1134" data-name="Group 1134" transform="translate(4.205 0)">
        <path id="Path_597" data-name="Path 597" d="M11.482,109.212a.959.959,0,0,1-.96-.96v-1.6a.96.96,0,1,1,1.919,0v1.6A.959.959,0,0,1,11.482,109.212Z" transform="translate(-10.522 -105.689)" fill="#f96985"/>
      </g>
      <g id="Group_1135" data-name="Group 1135" transform="translate(4.205 6.807)">
        <path id="Path_598" data-name="Path 598" d="M11.482,119.852a.959.959,0,0,1-.96-.96v-1.6a.96.96,0,1,1,1.919,0v1.6A.959.959,0,0,1,11.482,119.852Z" transform="translate(-10.522 -116.329)" fill="#f96985"/>
      </g>
      <g id="Group_1136" data-name="Group 1136" transform="translate(0 4.205)">
        <path id="Path_599" data-name="Path 599" d="M6.512,114.181h-1.6a.96.96,0,0,1,0-1.919h1.6a.96.96,0,0,1,0,1.919Z" transform="translate(-3.949 -112.262)" fill="#f96985"/>
      </g>
      <g id="Group_1137" data-name="Group 1137" transform="translate(6.806 4.205)">
        <path id="Path_600" data-name="Path 600" d="M17.152,114.181h-1.6a.96.96,0,0,1,0-1.919h1.6a.96.96,0,1,1,0,1.919Z" transform="translate(-14.588 -112.262)" fill="#f96985"/>
      </g>
      <g id="Group_1138" data-name="Group 1138" transform="translate(1.232 1.232)">
        <path id="Path_601" data-name="Path 601" d="M7.967,110.668a.957.957,0,0,1-.679-.282l-1.134-1.134A.96.96,0,0,1,7.513,107.9l1.134,1.134a.96.96,0,0,1-.679,1.638Z" transform="translate(-5.874 -107.614)" fill="#f96985"/>
      </g>
      <g id="Group_1139" data-name="Group 1139" transform="translate(6.045 6.045)">
        <path id="Path_602" data-name="Path 602" d="M15.49,118.191a.958.958,0,0,1-.679-.281l-1.134-1.134a.96.96,0,0,1,1.358-1.357l1.134,1.134a.959.959,0,0,1-.679,1.638Z" transform="translate(-13.397 -115.138)" fill="#f96985"/>
      </g>
      <g id="Group_1140" data-name="Group 1140" transform="translate(1.232 6.045)">
        <path id="Path_603" data-name="Path 603" d="M6.834,118.191a.959.959,0,0,1-.679-1.638l1.134-1.134a.96.96,0,0,1,1.358,1.357L7.513,117.91A.957.957,0,0,1,6.834,118.191Z" transform="translate(-5.874 -115.138)" fill="#f96985"/>
      </g>
      <g id="Group_1141" data-name="Group 1141" transform="translate(6.045 1.232)">
        <path id="Path_604" data-name="Path 604" d="M14.357,110.668a.96.96,0,0,1-.678-1.638l1.134-1.134a.96.96,0,0,1,1.357,1.357l-1.134,1.134A.957.957,0,0,1,14.357,110.668Z" transform="translate(-13.397 -107.614)" fill="#f96985"/>
      </g>
    </g>
    <g id="Group_1147" data-name="Group 1147" transform="translate(11.22 -4.073)">
      <g id="Group_1124" data-name="Group 1124" transform="translate(0 0)">
        <g id="Group_1116" data-name="Group 1116" transform="translate(6.089)">
          <path id="Path_581" data-name="Path 581" d="M11.482,5.373a.96.96,0,0,1-.96-.96V2.092a.96.96,0,0,1,1.919,0V4.413A.96.96,0,0,1,11.482,5.373Z" transform="translate(-10.522 -1.132)" fill="#f96985"/>
        </g>
        <g id="Group_1117" data-name="Group 1117" transform="translate(6.089 9.856)">
          <path id="Path_582" data-name="Path 582" d="M11.482,20.777a.959.959,0,0,1-.96-.96V17.5a.96.96,0,0,1,1.919,0v2.321A.959.959,0,0,1,11.482,20.777Z" transform="translate(-10.522 -16.537)" fill="#f96985"/>
        </g>
        <g id="Group_1118" data-name="Group 1118" transform="translate(0 6.089)">
          <path id="Path_583" data-name="Path 583" d="M4.286,12.568H1.965a.96.96,0,1,1,0-1.919H4.286a.96.96,0,1,1,0,1.919Z" transform="translate(-1.005 -10.649)" fill="#f96985"/>
        </g>
        <g id="Group_1119" data-name="Group 1119" transform="translate(9.856 6.089)">
          <path id="Path_584" data-name="Path 584" d="M19.691,12.568H17.37a.96.96,0,0,1,0-1.919h2.321a.96.96,0,0,1,0,1.919Z" transform="translate(-16.41 -10.649)" fill="#f96985"/>
        </g>
        <g id="Group_1120" data-name="Group 1120" transform="translate(1.783 1.783)">
          <path id="Path_585" data-name="Path 585" d="M6.393,7.48A.956.956,0,0,1,5.715,7.2L4.074,5.558A.96.96,0,0,1,5.431,4.2L7.072,5.842A.959.959,0,0,1,6.393,7.48Z" transform="translate(-3.792 -3.919)" fill="#f96985"/>
        </g>
        <g id="Group_1121" data-name="Group 1121" transform="translate(8.752 8.752)">
          <path id="Path_586" data-name="Path 586" d="M17.286,18.373a.957.957,0,0,1-.679-.281l-1.641-1.641a.96.96,0,0,1,1.357-1.358l1.642,1.642a.96.96,0,0,1-.679,1.638Z" transform="translate(-14.685 -14.812)" fill="#f96985"/>
        </g>
        <g id="Group_1122" data-name="Group 1122" transform="translate(1.783 8.752)">
          <path id="Path_587" data-name="Path 587" d="M4.752,18.373a.96.96,0,0,1-.678-1.638l1.642-1.642a.96.96,0,0,1,1.357,1.358L5.431,18.092A.957.957,0,0,1,4.752,18.373Z" transform="translate(-3.792 -14.812)" fill="#f96985"/>
        </g>
        <g id="Group_1123" data-name="Group 1123" transform="translate(8.752 1.783)">
          <path id="Path_588" data-name="Path 588" d="M15.645,7.48a.959.959,0,0,1-.678-1.638L16.608,4.2a.96.96,0,0,1,1.358,1.357L16.324,7.2A.957.957,0,0,1,15.645,7.48Z" transform="translate(-14.685 -3.919)" fill="#f96985"/>
        </g>
      </g>
      <g id="Group_1143" data-name="Group 1143" transform="translate(3.281 3.282)">
        <circle id="Ellipse_25" data-name="Ellipse 25" cx="3.767" cy="3.767" r="3.767" transform="translate(0)" fill="#f96985"/>
      </g>
    </g>
    <g id="Group_1144" data-name="Group 1144" transform="translate(71.013 5.538)">
      <circle id="Ellipse_26" data-name="Ellipse 26" cx="2.602" cy="2.602" r="2.602" fill="#f96985"/>
    </g>
    <g id="Group_1145" data-name="Group 1145" transform="translate(6.017 69.386)">
      <circle id="Ellipse_27" data-name="Ellipse 27" cx="2.602" cy="2.602" r="2.602" fill="#f96985"/>
    </g>
  </g>
</svg>
