<svg xmlns="http://www.w3.org/2000/svg" width="42.764" height="50" viewBox="0 0 42.764 50"><g transform="translate(0.001)"><path d="M3.953-.048l21.136,0c1.374,1.391,9.625,9.726,12.51,12.647V45.931a3.978,3.978,0,0,1-3.953,4H3.953a3.978,3.978,0,0,1-3.953-4V3.954A3.978,3.978,0,0,1,3.953-.048Z" transform="translate(5.164 0.066)" fill="#fff"/><path d="M1494.793,662.327h-21.068a4.121,4.121,0,0,0-4.091,4.142v41.7a4.121,4.121,0,0,0,4.091,4.142h29.418a4.121,4.121,0,0,0,4.091-4.142V674.922Zm10.142,45.839a1.806,1.806,0,0,1-1.792,1.815h-29.418a1.806,1.806,0,0,1-1.792-1.815v-41.7a1.806,1.806,0,0,1,1.792-1.815h20.116l.011.011v11.214h11.076l.007.007Z" transform="translate(-1464.505 -662.327)" fill="#87d64e"/><path d="M1456.429,948.847a1.6,1.6,0,0,1-1.537,1.638h-33.821a1.6,1.6,0,0,1-1.537-1.638V932.465a1.6,1.6,0,0,1,1.537-1.638h33.821a1.6,1.6,0,0,1,1.537,1.638Z" transform="translate(-1419.535 -907.828)" fill="#63a832"/><path d="M-6.675,0-8.56-2.821-10.42,0h-2.938l3.315-4.6-3.172-4.5h2.9L-8.5-6.474-6.7-9.1h2.782L-7.091-4.706-3.712,0Zm4.082-9.1H-.019v7.059H4.323V0H-2.593ZM9.029.182A8.413,8.413,0,0,1,6.884-.091a5.276,5.276,0,0,1-1.69-.728l.845-1.9a5.468,5.468,0,0,0,1.417.65,5.394,5.394,0,0,0,1.586.247q1.482,0,1.482-.741A.614.614,0,0,0,10.1-3.14a7.77,7.77,0,0,0-1.359-.4,12.966,12.966,0,0,1-1.716-.475,2.888,2.888,0,0,1-1.183-.812A2.2,2.2,0,0,1,5.35-6.331a2.611,2.611,0,0,1,.455-1.5A3.045,3.045,0,0,1,7.163-8.892a5.592,5.592,0,0,1,2.217-.39,7.819,7.819,0,0,1,1.768.2,5.414,5.414,0,0,1,1.534.592l-.793,1.911a5.3,5.3,0,0,0-2.522-.7,2.114,2.114,0,0,0-1.118.227.682.682,0,0,0-.351.592.586.586,0,0,0,.416.546,7.522,7.522,0,0,0,1.339.377,12.544,12.544,0,0,1,1.722.475,2.974,2.974,0,0,1,1.183.806,2.153,2.153,0,0,1,.5,1.5A2.56,2.56,0,0,1,12.6-1.274a3.1,3.1,0,0,1-1.365,1.06A5.521,5.521,0,0,1,9.029.182Z" transform="translate(17.999 38)" fill="#f8f8f8"/></g></svg>