<svg xmlns="http://www.w3.org/2000/svg" width="42.764" height="50" viewBox="0 0 42.764 50"><g transform="translate(-698.519 -1875)"><path d="M3.953-.048l21.136,0c1.374,1.391,9.625,9.726,12.51,12.647V45.931a3.978,3.978,0,0,1-3.953,4H3.953a3.978,3.978,0,0,1-3.953-4V3.954A3.978,3.978,0,0,1,3.953-.048Z" transform="translate(703.684 1875.066)" fill="#fff"/><g transform="translate(698.52 1875)"><path d="M1494.793,662.327h-21.068a4.121,4.121,0,0,0-4.091,4.142v41.7a4.121,4.121,0,0,0,4.091,4.142h29.418a4.121,4.121,0,0,0,4.091-4.142V674.922Zm10.142,45.839a1.806,1.806,0,0,1-1.792,1.815h-29.418a1.806,1.806,0,0,1-1.792-1.815v-41.7a1.806,1.806,0,0,1,1.792-1.815h20.116l.011.011v11.214h11.076l.007.007Z" transform="translate(-1464.505 -662.327)" fill="#68aeff"/><path d="M1456.429,948.847a1.6,1.6,0,0,1-1.537,1.638h-33.821a1.6,1.6,0,0,1-1.537-1.638V932.465a1.6,1.6,0,0,1,1.537-1.638h33.821a1.6,1.6,0,0,1,1.537,1.638Z" transform="translate(-1419.535 -907.828)" fill="#147ffd"/><path d="M-15.275-9.1h4.3a6.024,6.024,0,0,1,2.652.559A4.211,4.211,0,0,1-6.526-6.955,4.469,4.469,0,0,1-5.889-4.55a4.469,4.469,0,0,1-.637,2.405A4.211,4.211,0,0,1-8.32-.559,6.024,6.024,0,0,1-10.972,0h-4.3Zm4.2,7.046A2.638,2.638,0,0,0-9.2-2.717,2.388,2.388,0,0,0-8.489-4.55,2.388,2.388,0,0,0-9.2-6.383a2.638,2.638,0,0,0-1.878-.663H-12.7v4.992ZM.572.182A5.443,5.443,0,0,1-2.021-.429a4.591,4.591,0,0,1-1.807-1.69A4.584,4.584,0,0,1-4.485-4.55a4.584,4.584,0,0,1,.657-2.431,4.591,4.591,0,0,1,1.807-1.69A5.443,5.443,0,0,1,.572-9.282a5.443,5.443,0,0,1,2.593.611,4.591,4.591,0,0,1,1.807,1.69A4.584,4.584,0,0,1,5.629-4.55a4.584,4.584,0,0,1-.656,2.431A4.591,4.591,0,0,1,3.165-.429,5.443,5.443,0,0,1,.572.182Zm0-2.132A2.437,2.437,0,0,0,1.82-2.275,2.338,2.338,0,0,0,2.7-3.192,2.775,2.775,0,0,0,3.029-4.55,2.775,2.775,0,0,0,2.7-5.909a2.338,2.338,0,0,0-.884-.917A2.437,2.437,0,0,0,.572-7.15a2.437,2.437,0,0,0-1.248.325,2.338,2.338,0,0,0-.884.917A2.775,2.775,0,0,0-1.885-4.55,2.775,2.775,0,0,0-1.56-3.192a2.338,2.338,0,0,0,.884.917A2.437,2.437,0,0,0,.572-1.95ZM12.038.182a5.385,5.385,0,0,1-2.568-.6A4.52,4.52,0,0,1,7.683-2.106a4.643,4.643,0,0,1-.65-2.444,4.643,4.643,0,0,1,.65-2.444A4.52,4.52,0,0,1,9.47-8.677a5.385,5.385,0,0,1,2.568-.6,5.511,5.511,0,0,1,2.249.442,4.327,4.327,0,0,1,1.664,1.274L14.313-6.084A2.694,2.694,0,0,0,12.168-7.15a2.647,2.647,0,0,0-1.319.325,2.256,2.256,0,0,0-.9.917A2.821,2.821,0,0,0,9.633-4.55a2.821,2.821,0,0,0,.319,1.359,2.256,2.256,0,0,0,.9.917,2.647,2.647,0,0,0,1.319.325,2.694,2.694,0,0,0,2.145-1.066l1.638,1.482A4.327,4.327,0,0,1,14.287-.26,5.511,5.511,0,0,1,12.038.182Z" transform="translate(17.999 38)" fill="#f8f8f8"/></g></g></svg>