<?xml version="1.0" encoding="utf-8"?>
<!-- Generator: Adobe Illustrator 25.2.1, SVG Export Plug-In . SVG Version: 6.00 Build 0)  -->
<svg version="1.0" id="Layer_1" xmlns="http://www.w3.org/2000/svg" xmlns:xlink="http://www.w3.org/1999/xlink" x="0px" y="0px"
	 viewBox="0 0 150 70" style="enable-background:new 0 0 150 70;" xml:space="preserve">
<style type="text/css">
	.st0{fill:#F5F5F5;}
	.st1{fill:#FFFFFF;}
</style>
<g>
	<rect class="st0" width="150" height="70"/>
	<g>
		<path class="st1" d="M93.8,18.3H56.2c-1.5,0-2.7,1.2-2.7,2.7v28c0,1.5,1.2,2.7,2.7,2.7h37.6c1.5,0,2.7-1.2,2.7-2.7V21
			C96.5,19.5,95.3,18.3,93.8,18.3z M93.8,21v19.9L88.4,36c-0.8-0.7-2.1-0.7-2.8,0.1l-5.5,5.4L69.4,28.7c-0.8-1-2.3-1-3.1,0l-10,11.7
			V21H93.8z M82.2,28.2c0-2.1,1.7-3.8,3.8-3.8c2.1,0,3.8,1.7,3.8,3.8S88.1,32,86,32C83.9,31.9,82.2,30.2,82.2,28.2z"/>
	</g>
</g>
</svg>
