<?xml version="1.0" encoding="utf-8"?>
<!-- Generator: Adobe Illustrator 26.2.1, SVG Export Plug-In . SVG Version: 6.00 Build 0)  -->
<svg version="1.1" id="Layer_1" xmlns="http://www.w3.org/2000/svg" xmlns:xlink="http://www.w3.org/1999/xlink" x="0px" y="0px"
	 viewBox="0 0 1308.5 616.7" style="enable-background:new 0 0 1308.5 616.7;" xml:space="preserve">
<style type="text/css">
	.st0{fill:#CCCCCC;}
	.st1{fill:#989898;}
	.st2{fill:none;stroke:#FFFFFF;stroke-width:5;stroke-miterlimit:10;}
	.st3{fill:#FFFFFF;stroke:#818181;stroke-width:3;stroke-miterlimit:10;}
	.st4{fill:#E6E6E5;}
	.st5{fill:none;stroke:#818181;stroke-width:3;stroke-miterlimit:10;}
	.st6{fill:#4E4E4E;}
	.st7{fill:#676767;}
	.st8{fill:#B4B4B4;}
</style>
<g>
	<g>
		<path class="st0" d="M1210.5,546.6H500.3c-16.2,0-29.3-13.1-29.3-29.3V96.9c0-16.2,13.1-29.3,29.3-29.3h710.2
			c16.2,0,29.3,13.1,29.3,29.3v420.4C1239.8,533.5,1226.6,546.6,1210.5,546.6z M500.3,71.4c-14,0-25.5,11.4-25.5,25.5v420.4
			c0,14,11.4,25.5,25.5,25.5h710.2c14,0,25.5-11.4,25.5-25.5V96.9c0-14-11.4-25.5-25.5-25.5H500.3z"/>
		<g>
			<circle class="st1" cx="518.8" cy="137.6" r="25.4"/>
			<polyline class="st2" points="522.2,126.7 510.5,138.3 521.9,149.7 			"/>
		</g>
		<g>
			<circle class="st1" cx="1188.1" cy="137.6" r="25.4"/>
			<polyline class="st2" points="1184.7,148.5 1196.3,136.9 1184.9,125.4 			"/>
		</g>
		<path class="st3" d="M1187.2,480.3H808.3c-8.7,0-15.7-7-15.7-15.7V205c0-8.7,7-15.7,15.7-15.7h378.9c8.7,0,15.7,7,15.7,15.7v259.6
			C1202.9,473.2,1195.9,480.3,1187.2,480.3z"/>
		<g>
			<circle class="st3" cx="1051.1" cy="360.7" r="74.8"/>
			<polygon class="st3" points="973,244.8 1018,322.8 1063,400.7 973,400.7 883,400.7 928,322.8 			"/>
		</g>
		<rect x="510.5" y="244.8" class="st4" width="240" height="14.9"/>
		<rect x="510.5" y="268.6" class="st4" width="240" height="14.9"/>
		<rect x="510.5" y="298.2" class="st4" width="240" height="14.9"/>
		<rect x="510.5" y="322.8" class="st4" width="240" height="14.9"/>
		<rect x="510.5" y="345.3" class="st4" width="168.7" height="14.9"/>
		<g>
			<line class="st5" x1="596" y1="138.2" x2="1085.9" y2="138.2"/>
			<circle class="st3" cx="596" cy="138.2" r="7.7"/>
			<circle class="st3" cx="718.5" cy="138.2" r="7.7"/>
			<circle class="st3" cx="841" cy="138.2" r="7.7"/>
			<circle class="st3" cx="963.4" cy="138.2" r="7.7"/>
			<circle class="st3" cx="1085.9" cy="138.2" r="7.7"/>
		</g>
		<g>
			<path class="st6" d="M566.9,93.7v4.5h6.3v2.6h-6.3v6.1H564V91.2h10.2v2.5H566.9z"/>
			<path class="st6" d="M586.4,100.5c0,0.5,0,0.9,0,1.4h-8.1c0.3,2,1.5,3,3.8,3c1.5,0,2.5-0.2,3.8-0.7v2.3c-1.3,0.5-2.5,0.7-4.2,0.7
				c-4,0-6.1-2.3-6.1-6.1c0-3.8,2.2-6.3,5.8-6.3C584.4,94.8,586.4,96.7,586.4,100.5z M578.3,99.9h5.4c-0.1-2-1-2.8-2.6-2.8
				C579.7,97.1,578.6,98,578.3,99.9z"/>
			<path class="st6" d="M588.3,101c0-3.7,2.3-6.3,6.3-6.3c1.1,0,2.1,0.2,2.9,0.5v2.4c-0.7-0.3-1.6-0.5-2.7-0.5
				c-2.4,0-3.7,1.5-3.7,3.9c0,2.4,1.2,3.9,3.5,3.9c1.1,0,2-0.2,2.9-0.6v2.4c-0.8,0.3-1.9,0.6-3.2,0.6
				C590.3,107.2,588.3,104.8,588.3,101z"/>
			<path class="st6" d="M610.8,99.6v7.3h-2.7v-7.2c0-1.7-0.8-2.6-2.4-2.6c-1,0-2.1,0.4-2.9,1.4v8.4H600V90.1h2.8v6
				c1-0.9,2.2-1.3,3.6-1.3C609.4,94.8,610.8,96.5,610.8,99.6z"/>
			<path class="st6" d="M623.4,99.7v7.1H621l-0.2-1c-0.9,0.9-2.2,1.3-3.9,1.3c-2.5,0-3.9-1.3-3.9-3.6c0-2.3,1.7-3.7,4.4-3.7
				c1.2,0,2.1,0.1,3.1,0.4v-0.9c0-1.6-0.8-2.4-2.8-2.4c-1.5,0-2.7,0.3-3.7,0.7v-2.4c1.1-0.4,2.6-0.7,4.1-0.7
				C621.9,94.8,623.4,96.3,623.4,99.7z M620.6,104v-1.6c-0.8-0.2-1.7-0.4-2.5-0.4c-1.4,0-2.3,0.5-2.3,1.6c0,1.2,0.8,1.6,1.9,1.6
				C618.9,105.1,619.8,104.7,620.6,104z"/>
		</g>
		<g>
			<path class="st6" d="M689.1,93.7v4.5h6.3v2.6h-6.3v6.1h-2.8V91.2h10.2v2.5H689.1z"/>
			<path class="st6" d="M708.6,100.5c0,0.5,0,0.9,0,1.4h-8.1c0.3,2,1.5,3,3.8,3c1.5,0,2.5-0.2,3.8-0.7v2.3c-1.3,0.5-2.5,0.7-4.2,0.7
				c-4,0-6.1-2.3-6.1-6.1c0-3.8,2.2-6.3,5.8-6.3C706.6,94.8,708.6,96.7,708.6,100.5z M700.5,99.9h5.4c-0.1-2-1-2.8-2.6-2.8
				C701.9,97.1,700.8,98,700.5,99.9z"/>
			<path class="st6" d="M710.4,101c0-3.7,2.3-6.3,6.3-6.3c1.1,0,2.1,0.2,2.9,0.5v2.4c-0.7-0.3-1.6-0.5-2.7-0.5
				c-2.4,0-3.7,1.5-3.7,3.9c0,2.4,1.2,3.9,3.5,3.9c1.1,0,2-0.2,2.9-0.6v2.4c-0.8,0.3-1.9,0.6-3.2,0.6
				C712.5,107.2,710.4,104.8,710.4,101z"/>
			<path class="st6" d="M733,99.6v7.3h-2.7v-7.2c0-1.7-0.8-2.6-2.4-2.6c-1,0-2.1,0.4-2.9,1.4v8.4h-2.8V90.1h2.8v6
				c1-0.9,2.2-1.3,3.6-1.3C731.5,94.8,733,96.5,733,99.6z"/>
			<path class="st6" d="M745.5,99.7v7.1h-2.4l-0.2-1c-0.9,0.9-2.2,1.3-3.9,1.3c-2.5,0-3.9-1.3-3.9-3.6c0-2.3,1.7-3.7,4.4-3.7
				c1.2,0,2.1,0.1,3.1,0.4v-0.9c0-1.6-0.8-2.4-2.8-2.4c-1.5,0-2.7,0.3-3.7,0.7v-2.4c1.1-0.4,2.6-0.7,4.1-0.7
				C744.1,94.8,745.5,96.3,745.5,99.7z M742.8,104v-1.6c-0.8-0.2-1.7-0.4-2.5-0.4c-1.4,0-2.3,0.5-2.3,1.6c0,1.2,0.8,1.6,1.9,1.6
				C741.1,105.1,742,104.7,742.8,104z"/>
		</g>
		<g>
			<path class="st6" d="M811.5,93.7v4.5h6.3v2.6h-6.3v6.1h-2.8V91.2h10.2v2.5H811.5z"/>
			<path class="st6" d="M831.1,100.5c0,0.5,0,0.9,0,1.4h-8.1c0.3,2,1.5,3,3.8,3c1.5,0,2.5-0.2,3.8-0.7v2.3c-1.3,0.5-2.5,0.7-4.2,0.7
				c-4,0-6.1-2.3-6.1-6.1c0-3.8,2.2-6.3,5.8-6.3C829.1,94.8,831.1,96.7,831.1,100.5z M823,99.9h5.4c-0.1-2-1-2.8-2.6-2.8
				C824.4,97.1,823.3,98,823,99.9z"/>
			<path class="st6" d="M832.9,101c0-3.7,2.3-6.3,6.3-6.3c1.1,0,2.1,0.2,2.9,0.5v2.4c-0.7-0.3-1.6-0.5-2.7-0.5
				c-2.4,0-3.7,1.5-3.7,3.9c0,2.4,1.2,3.9,3.5,3.9c1.1,0,2-0.2,2.9-0.6v2.4c-0.8,0.3-1.9,0.6-3.2,0.6
				C835,107.2,832.9,104.8,832.9,101z"/>
			<path class="st6" d="M855.4,99.6v7.3h-2.7v-7.2c0-1.7-0.8-2.6-2.4-2.6c-1,0-2.1,0.4-2.9,1.4v8.4h-2.8V90.1h2.8v6
				c1-0.9,2.2-1.3,3.6-1.3C854,94.8,855.4,96.5,855.4,99.6z"/>
			<path class="st6" d="M868,99.7v7.1h-2.4l-0.2-1c-0.9,0.9-2.2,1.3-3.9,1.3c-2.5,0-3.9-1.3-3.9-3.6c0-2.3,1.7-3.7,4.4-3.7
				c1.2,0,2.1,0.1,3.1,0.4v-0.9c0-1.6-0.8-2.4-2.8-2.4c-1.5,0-2.7,0.3-3.7,0.7v-2.4c1.1-0.4,2.6-0.7,4.1-0.7
				C866.6,94.8,868,96.3,868,99.7z M865.2,104v-1.6c-0.8-0.2-1.7-0.4-2.5-0.4c-1.4,0-2.3,0.5-2.3,1.6c0,1.2,0.8,1.6,1.9,1.6
				C863.6,105.1,864.5,104.7,865.2,104z"/>
		</g>
		<g>
			<path class="st6" d="M934,93.7v4.5h6.3v2.6H934v6.1h-2.8V91.2h10.2v2.5H934z"/>
			<path class="st6" d="M953.5,100.5c0,0.5,0,0.9,0,1.4h-8.1c0.3,2,1.5,3,3.8,3c1.5,0,2.5-0.2,3.8-0.7v2.3c-1.3,0.5-2.5,0.7-4.2,0.7
				c-4,0-6.1-2.3-6.1-6.1c0-3.8,2.2-6.3,5.8-6.3C951.6,94.8,953.5,96.7,953.5,100.5z M945.5,99.9h5.4c-0.1-2-1-2.8-2.6-2.8
				C946.8,97.1,945.7,98,945.5,99.9z"/>
			<path class="st6" d="M955.4,101c0-3.7,2.3-6.3,6.3-6.3c1.1,0,2.1,0.2,2.9,0.5v2.4c-0.7-0.3-1.6-0.5-2.7-0.5
				c-2.4,0-3.7,1.5-3.7,3.9c0,2.4,1.2,3.9,3.5,3.9c1.1,0,2-0.2,2.9-0.6v2.4c-0.8,0.3-1.9,0.6-3.2,0.6
				C957.5,107.2,955.4,104.8,955.4,101z"/>
			<path class="st6" d="M977.9,99.6v7.3h-2.7v-7.2c0-1.7-0.8-2.6-2.4-2.6c-1,0-2.1,0.4-2.9,1.4v8.4h-2.8V90.1h2.8v6
				c1-0.9,2.2-1.3,3.6-1.3C976.5,94.8,977.9,96.5,977.9,99.6z"/>
			<path class="st6" d="M990.5,99.7v7.1h-2.4l-0.2-1c-0.9,0.9-2.2,1.3-3.9,1.3c-2.5,0-3.9-1.3-3.9-3.6c0-2.3,1.7-3.7,4.4-3.7
				c1.2,0,2.1,0.1,3.1,0.4v-0.9c0-1.6-0.8-2.4-2.8-2.4c-1.5,0-2.7,0.3-3.7,0.7v-2.4c1.1-0.4,2.6-0.7,4.1-0.7
				C989,94.8,990.5,96.3,990.5,99.7z M987.7,104v-1.6c-0.8-0.2-1.7-0.4-2.5-0.4c-1.4,0-2.3,0.5-2.3,1.6c0,1.2,0.8,1.6,1.9,1.6
				C986,105.1,987,104.7,987.7,104z"/>
		</g>
		<g>
			<path class="st6" d="M1056.5,93.7v4.5h6.3v2.6h-6.3v6.1h-2.8V91.2h10.2v2.5H1056.5z"/>
			<path class="st6" d="M1076,100.5c0,0.5,0,0.9,0,1.4h-8.1c0.3,2,1.5,3,3.8,3c1.5,0,2.5-0.2,3.8-0.7v2.3c-1.3,0.5-2.5,0.7-4.2,0.7
				c-4,0-6.1-2.3-6.1-6.1c0-3.8,2.2-6.3,5.8-6.3C1074.1,94.8,1076,96.7,1076,100.5z M1067.9,99.9h5.4c-0.1-2-1-2.8-2.6-2.8
				C1069.3,97.1,1068.2,98,1067.9,99.9z"/>
			<path class="st6" d="M1077.9,101c0-3.7,2.3-6.3,6.3-6.3c1.1,0,2.1,0.2,2.9,0.5v2.4c-0.7-0.3-1.6-0.5-2.7-0.5
				c-2.4,0-3.7,1.5-3.7,3.9c0,2.4,1.2,3.9,3.5,3.9c1.1,0,2-0.2,2.9-0.6v2.4c-0.8,0.3-1.9,0.6-3.2,0.6
				C1079.9,107.2,1077.9,104.8,1077.9,101z"/>
			<path class="st6" d="M1100.4,99.6v7.3h-2.7v-7.2c0-1.7-0.8-2.6-2.4-2.6c-1,0-2.1,0.4-2.9,1.4v8.4h-2.8V90.1h2.8v6
				c1-0.9,2.2-1.3,3.6-1.3C1099,94.8,1100.4,96.5,1100.4,99.6z"/>
			<path class="st6" d="M1113,99.7v7.1h-2.4l-0.2-1c-0.9,0.9-2.2,1.3-3.9,1.3c-2.5,0-3.9-1.3-3.9-3.6c0-2.3,1.7-3.7,4.4-3.7
				c1.2,0,2.1,0.1,3.1,0.4v-0.9c0-1.6-0.8-2.4-2.8-2.4c-1.5,0-2.7,0.3-3.7,0.7v-2.4c1.1-0.4,2.6-0.7,4.1-0.7
				C1111.5,94.8,1113,96.3,1113,99.7z M1110.2,104v-1.6c-0.8-0.2-1.7-0.4-2.5-0.4c-1.4,0-2.3,0.5-2.3,1.6c0,1.2,0.8,1.6,1.9,1.6
				C1108.5,105.1,1109.5,104.7,1110.2,104z"/>
		</g>
		<g>
			<path class="st7" d="M517.4,209h-4.5v11.7h-1.8V209h-4.5v-1.7h10.9V209z"/>
			<path class="st7" d="M517.9,208.3l3.5-3.3l1.1,1.4l-3.7,3L517.9,208.3z M519.3,210.7h1.8v10.1h-1.8V210.7z"/>
			<path class="st7" d="M530.7,219v1.5c-0.9,0.4-1.7,0.5-2.7,0.5c-2.3,0-3.3-1.2-3.3-3.7v-4.9H523v-1.7h1.7l0.5-2.4h1.3v2.4h4v1.7
				h-4v4.8c0,1.6,0.5,2.2,2.1,2.2C529.2,219.4,530,219.3,530.7,219z"/>
			<path class="st7" d="M541.1,210.7v10.1h-1.6l-0.1-1.1c-0.9,0.9-2,1.4-3.4,1.4c-2.5,0-3.6-1.2-3.6-4.1v-6.2h1.8v6.1
				c0,1.9,0.6,2.6,2.1,2.6c1,0,2.1-0.4,2.9-1.5v-7.3H541.1z"/>
			<path class="st7" d="M544.2,206.4h1.8v14.4h-1.8V206.4z"/>
			<path class="st7" d="M548.4,215.8c0-3.3,2-5.4,5.1-5.4c3.1,0,5,2.1,5,5.3c0,3.3-1.9,5.4-5.1,5.4
				C550.3,221.1,548.4,219,548.4,215.8z M556.6,215.7c0-2.4-1.2-3.8-3.2-3.8c-2,0-3.2,1.4-3.2,3.8c0,2.4,1.3,3.8,3.2,3.8
				C555.4,219.5,556.6,218.1,556.6,215.7z"/>
			<path class="st7" d="M574.5,214.6v6.2h-1.8v-6.2c0-1.7-0.8-2.6-2.4-2.6c-1,0-2.1,0.4-2.9,1.5v7.4h-1.8v-14.4h1.8v5.3
				c0.9-0.9,2-1.3,3.3-1.3C573.2,210.4,574.5,211.8,574.5,214.6z"/>
			<path class="st7" d="M577.1,207.3c0-0.8,0.6-1.3,1.3-1.3c0.7,0,1.3,0.5,1.3,1.3s-0.5,1.3-1.3,1.3
				C577.7,208.6,577.1,208.1,577.1,207.3z M577.5,210.7h1.8v10.1h-1.8V210.7z"/>
			<path class="st7" d="M588.9,219v1.5c-0.9,0.4-1.7,0.5-2.7,0.5c-2.3,0-3.3-1.2-3.3-3.7v-4.9h-1.7v-1.7h1.7l0.5-2.4h1.3v2.4h4v1.7
				h-4v4.8c0,1.6,0.5,2.2,2.1,2.2C587.4,219.4,588.2,219.3,588.9,219z"/>
			<path class="st7" d="M590,215.8c0-3.3,2-5.4,5.1-5.4c3.1,0,5,2.1,5,5.3c0,3.3-1.9,5.4-5.1,5.4C591.9,221.1,590,219,590,215.8z
				 M598.2,215.7c0-2.4-1.2-3.8-3.2-3.8c-2,0-3.2,1.4-3.2,3.8c0,2.4,1.3,3.8,3.2,3.8C597,219.5,598.2,218.1,598.2,215.7z"/>
		</g>
	</g>
	<path class="st0" d="M413.1,549.1H90c-11.7,0-21.2-9.5-21.2-21.2v-435c0-11.7,9.5-21.2,21.2-21.2h323.1c11.7,0,21.2,9.5,21.2,21.2
		v435C434.3,539.6,424.8,549.1,413.1,549.1z M88.9,75.1c-9,0-16.3,7.3-16.3,16.3v437.8c0,9,7.3,16.3,16.3,16.3h325.3
		c9,0,16.3-7.3,16.3-16.3V91.5c0-9-7.3-16.3-16.3-16.3H88.9z"/>
	<rect x="236.4" y="179.7" class="st4" width="144.3" height="10.9"/>
	<rect x="236.4" y="200.5" class="st4" width="144.3" height="10.9"/>
	<rect x="236.4" y="221.4" class="st4" width="123.8" height="10.9"/>
	<circle class="st3" cx="164.7" cy="155.7" r="37.8"/>
	<circle class="st3" cx="164.7" cy="295.6" r="37.8"/>
	<g>
		<path class="st6" d="M237.1,125.4v4.4h6.2v2.5h-6.2v6h-2.8v-15.4h10.1v2.5H237.1z"/>
		<path class="st6" d="M256.3,132.1c0,0.5,0,0.9,0,1.4h-8c0.3,2,1.5,3,3.7,3c1.4,0,2.4-0.2,3.7-0.7v2.3c-1.3,0.5-2.4,0.7-4.2,0.7
			c-3.9,0-6-2.3-6-6c0-3.7,2.1-6.2,5.7-6.2C254.4,126.4,256.3,128.3,256.3,132.1z M248.4,131.5h5.4c-0.1-1.9-1-2.8-2.5-2.8
			C249.8,128.7,248.7,129.6,248.4,131.5z"/>
		<path class="st6" d="M258.2,132.6c0-3.6,2.3-6.2,6.2-6.2c1.1,0,2.1,0.2,2.8,0.5v2.4c-0.7-0.3-1.6-0.5-2.7-0.5
			c-2.3,0-3.6,1.5-3.6,3.8c0,2.3,1.2,3.8,3.5,3.8c1,0,2-0.2,2.8-0.6v2.4c-0.8,0.3-1.9,0.6-3.2,0.6
			C260.2,138.7,258.2,136.4,258.2,132.6z"/>
		<path class="st6" d="M280.4,131.2v7.2h-2.7v-7.1c0-1.7-0.8-2.5-2.4-2.5c-1,0-2.1,0.4-2.8,1.4v8.2h-2.7v-16.5h2.7v5.9
			c0.9-0.9,2.1-1.3,3.5-1.3C279,126.4,280.4,128.1,280.4,131.2z"/>
		<path class="st6" d="M292.8,131.3v7h-2.3l-0.2-1c-0.9,0.8-2.2,1.3-3.8,1.3c-2.4,0-3.8-1.3-3.8-3.5c0-2.2,1.7-3.6,4.4-3.6
			c1.2,0,2.1,0.1,3,0.4v-0.9c0-1.6-0.8-2.3-2.8-2.3c-1.4,0-2.6,0.3-3.6,0.7v-2.4c1.1-0.4,2.5-0.7,4-0.7
			C291.3,126.4,292.8,128,292.8,131.3z M290,135.5v-1.6c-0.8-0.2-1.7-0.4-2.4-0.4c-1.4,0-2.2,0.5-2.2,1.6c0,1.1,0.8,1.5,1.9,1.5
			C288.4,136.6,289.3,136.3,290,135.5z"/>
	</g>
	<g>
		<path class="st7" d="M243.6,153.9h-4.5v11.6h-1.8v-11.6h-4.4v-1.7h10.7V153.9z"/>
		<path class="st7" d="M244,153.2l3.4-3.2l1.1,1.4l-3.6,2.9L244,153.2z M245.4,155.5h1.8v9.9h-1.8V155.5z"/>
		<path class="st7" d="M256.6,163.7v1.5c-0.9,0.4-1.7,0.5-2.7,0.5c-2.2,0-3.2-1.2-3.2-3.6v-4.9H249v-1.6h1.7l0.5-2.4h1.3v2.4h3.9
			v1.6h-3.9v4.7c0,1.6,0.5,2.2,2.1,2.2C255.2,164.1,256,164,256.6,163.7z"/>
		<path class="st7" d="M266.9,155.5v9.9h-1.5l-0.1-1.1c-0.9,0.9-1.9,1.4-3.3,1.4c-2.5,0-3.5-1.2-3.5-4.1v-6.1h1.8v6.1
			c0,1.9,0.6,2.6,2,2.6c1,0,2.1-0.4,2.9-1.4v-7.2H266.9z"/>
		<path class="st7" d="M269.9,151.3h1.8v14.2h-1.8V151.3z"/>
		<path class="st7" d="M274,160.5c0-3.2,1.9-5.3,5-5.3c3,0,4.9,2,4.9,5.2c0,3.2-1.9,5.3-5,5.3C275.9,165.7,274,163.7,274,160.5z
			 M282.2,160.5c0-2.3-1.2-3.7-3.2-3.7s-3.2,1.4-3.2,3.7c0,2.3,1.2,3.7,3.2,3.7S282.2,162.8,282.2,160.5z"/>
		<path class="st7" d="M299.8,159.3v6.1H298v-6.1c0-1.7-0.8-2.5-2.4-2.5c-1,0-2.1,0.4-2.9,1.4v7.2h-1.8v-14.2h1.8v5.3
			c0.9-0.9,2-1.3,3.2-1.3C298.5,155.2,299.8,156.6,299.8,159.3z"/>
		<path class="st7" d="M302.3,152.2c0-0.8,0.5-1.3,1.2-1.3c0.7,0,1.2,0.5,1.2,1.3c0,0.8-0.5,1.3-1.2,1.3
			C302.9,153.4,302.3,152.9,302.3,152.2z M302.7,155.5h1.8v9.9h-1.8V155.5z"/>
		<path class="st7" d="M313.9,163.7v1.5c-0.9,0.4-1.7,0.5-2.7,0.5c-2.2,0-3.2-1.2-3.2-3.6v-4.9h-1.6v-1.6h1.7l0.5-2.4h1.3v2.4h3.9
			v1.6h-3.9v4.7c0,1.6,0.5,2.2,2.1,2.2C312.5,164.1,313.3,164,313.9,163.7z"/>
		<path class="st7" d="M315,160.5c0-3.2,1.9-5.3,5-5.3c3,0,4.9,2,4.9,5.2c0,3.2-1.9,5.3-5,5.3C316.9,165.7,315,163.7,315,160.5z
			 M323.2,160.5c0-2.3-1.2-3.7-3.2-3.7s-3.2,1.4-3.2,3.7c0,2.3,1.2,3.7,3.2,3.7S323.2,162.8,323.2,160.5z"/>
	</g>
	<rect x="236.4" y="318.9" class="st4" width="144.3" height="10.9"/>
	<rect x="236.4" y="339.7" class="st4" width="144.3" height="10.9"/>
	<rect x="236.4" y="360.6" class="st4" width="123.8" height="10.9"/>
	<g>
		<path class="st6" d="M237.1,264.6v4.4h6.2v2.5h-6.2v6h-2.8v-15.4h10.1v2.5H237.1z"/>
		<path class="st6" d="M256.3,271.3c0,0.5,0,0.9,0,1.4h-8c0.3,2,1.5,3,3.7,3c1.4,0,2.4-0.2,3.7-0.7v2.3c-1.3,0.5-2.4,0.7-4.2,0.7
			c-3.9,0-6-2.3-6-6c0-3.7,2.1-6.2,5.7-6.2C254.4,265.6,256.3,267.5,256.3,271.3z M248.4,270.7h5.4c-0.1-1.9-1-2.8-2.5-2.8
			C249.8,267.9,248.7,268.8,248.4,270.7z"/>
		<path class="st6" d="M258.2,271.8c0-3.6,2.3-6.2,6.2-6.2c1.1,0,2.1,0.2,2.8,0.5v2.4c-0.7-0.3-1.6-0.5-2.7-0.5
			c-2.3,0-3.6,1.5-3.6,3.8c0,2.3,1.2,3.8,3.5,3.8c1,0,2-0.2,2.8-0.6v2.4c-0.8,0.3-1.9,0.6-3.2,0.6
			C260.2,277.9,258.2,275.6,258.2,271.8z"/>
		<path class="st6" d="M280.4,270.4v7.2h-2.7v-7.1c0-1.7-0.8-2.5-2.4-2.5c-1,0-2.1,0.4-2.8,1.4v8.2h-2.7V261h2.7v5.9
			c0.9-0.9,2.1-1.3,3.5-1.3C279,265.6,280.4,267.3,280.4,270.4z"/>
		<path class="st6" d="M292.8,270.5v7h-2.3l-0.2-1c-0.9,0.8-2.2,1.3-3.8,1.3c-2.4,0-3.8-1.3-3.8-3.5c0-2.2,1.7-3.6,4.4-3.6
			c1.2,0,2.1,0.1,3,0.4v-0.9c0-1.6-0.8-2.3-2.8-2.3c-1.4,0-2.6,0.3-3.6,0.7v-2.4c1.1-0.4,2.5-0.7,4-0.7
			C291.3,265.6,292.8,267.2,292.8,270.5z M290,274.7v-1.6c-0.8-0.2-1.7-0.4-2.4-0.4c-1.4,0-2.2,0.5-2.2,1.6c0,1.1,0.8,1.5,1.9,1.5
			C288.4,275.8,289.3,275.5,290,274.7z"/>
	</g>
	<g>
		<path class="st7" d="M243.6,293.1h-4.5v11.6h-1.8v-11.6h-4.4v-1.7h10.7V293.1z"/>
		<path class="st7" d="M244,292.4l3.4-3.2l1.1,1.4l-3.6,2.9L244,292.4z M245.4,294.7h1.8v9.9h-1.8V294.7z"/>
		<path class="st7" d="M256.6,302.9v1.5c-0.9,0.4-1.7,0.5-2.7,0.5c-2.2,0-3.2-1.2-3.2-3.6v-4.9H249v-1.6h1.7l0.5-2.4h1.3v2.4h3.9
			v1.6h-3.9v4.7c0,1.6,0.5,2.2,2.1,2.2C255.2,303.3,256,303.2,256.6,302.9z"/>
		<path class="st7" d="M266.9,294.7v9.9h-1.5l-0.1-1.1c-0.9,0.9-1.9,1.4-3.3,1.4c-2.5,0-3.5-1.2-3.5-4.1v-6.1h1.8v6.1
			c0,1.9,0.6,2.6,2,2.6c1,0,2.1-0.4,2.9-1.4v-7.2H266.9z"/>
		<path class="st7" d="M269.9,290.5h1.8v14.2h-1.8V290.5z"/>
		<path class="st7" d="M274,299.7c0-3.2,1.9-5.3,5-5.3c3,0,4.9,2,4.9,5.2c0,3.2-1.9,5.3-5,5.3C275.9,304.9,274,302.9,274,299.7z
			 M282.2,299.7c0-2.3-1.2-3.7-3.2-3.7s-3.2,1.4-3.2,3.7c0,2.3,1.2,3.7,3.2,3.7S282.2,302,282.2,299.7z"/>
		<path class="st7" d="M299.8,298.5v6.1H298v-6.1c0-1.7-0.8-2.5-2.4-2.5c-1,0-2.1,0.4-2.9,1.4v7.2h-1.8v-14.2h1.8v5.3
			c0.9-0.9,2-1.3,3.2-1.3C298.5,294.4,299.8,295.8,299.8,298.5z"/>
		<path class="st7" d="M302.3,291.4c0-0.8,0.5-1.3,1.2-1.3c0.7,0,1.2,0.5,1.2,1.3c0,0.8-0.5,1.3-1.2,1.3
			C302.9,292.6,302.3,292.1,302.3,291.4z M302.7,294.7h1.8v9.9h-1.8V294.7z"/>
		<path class="st7" d="M313.9,302.9v1.5c-0.9,0.4-1.7,0.5-2.7,0.5c-2.2,0-3.2-1.2-3.2-3.6v-4.9h-1.6v-1.6h1.7l0.5-2.4h1.3v2.4h3.9
			v1.6h-3.9v4.7c0,1.6,0.5,2.2,2.1,2.2C312.5,303.3,313.3,303.2,313.9,302.9z"/>
		<path class="st7" d="M315,299.7c0-3.2,1.9-5.3,5-5.3c3,0,4.9,2,4.9,5.2c0,3.2-1.9,5.3-5,5.3C316.9,304.9,315,302.9,315,299.7z
			 M323.2,299.7c0-2.3-1.2-3.7-3.2-3.7s-3.2,1.4-3.2,3.7c0,2.3,1.2,3.7,3.2,3.7S323.2,302,323.2,299.7z"/>
	</g>
	<rect x="236.4" y="454.6" class="st4" width="144.3" height="10.9"/>
	<rect x="236.4" y="475.4" class="st4" width="144.3" height="10.9"/>
	<rect x="236.4" y="496.3" class="st4" width="123.8" height="10.9"/>
	<g>
		<path class="st6" d="M237.1,400.3v4.4h6.2v2.5h-6.2v6h-2.8v-15.4h10.1v2.5H237.1z"/>
		<path class="st6" d="M256.3,407c0,0.5,0,0.9,0,1.4h-8c0.3,2,1.5,3,3.7,3c1.4,0,2.4-0.2,3.7-0.7v2.3c-1.3,0.5-2.4,0.7-4.2,0.7
			c-3.9,0-6-2.3-6-6c0-3.7,2.1-6.2,5.7-6.2C254.4,401.3,256.3,403.2,256.3,407z M248.4,406.4h5.4c-0.1-1.9-1-2.8-2.5-2.8
			C249.8,403.6,248.7,404.5,248.4,406.4z"/>
		<path class="st6" d="M258.2,407.5c0-3.6,2.3-6.2,6.2-6.2c1.1,0,2.1,0.2,2.8,0.5v2.4c-0.7-0.3-1.6-0.5-2.7-0.5
			c-2.3,0-3.6,1.5-3.6,3.8c0,2.3,1.2,3.8,3.5,3.8c1,0,2-0.2,2.8-0.6v2.4c-0.8,0.3-1.9,0.6-3.2,0.6
			C260.2,413.6,258.2,411.3,258.2,407.5z"/>
		<path class="st6" d="M280.4,406.1v7.2h-2.7v-7.1c0-1.7-0.8-2.5-2.4-2.5c-1,0-2.1,0.4-2.8,1.4v8.2h-2.7v-16.5h2.7v5.9
			c0.9-0.9,2.1-1.3,3.5-1.3C279,401.3,280.4,403,280.4,406.1z"/>
		<path class="st6" d="M292.8,406.2v7h-2.3l-0.2-1c-0.9,0.8-2.2,1.3-3.8,1.3c-2.4,0-3.8-1.3-3.8-3.5c0-2.2,1.7-3.6,4.4-3.6
			c1.2,0,2.1,0.1,3,0.4V406c0-1.6-0.8-2.3-2.8-2.3c-1.4,0-2.6,0.3-3.6,0.7v-2.4c1.1-0.4,2.5-0.7,4-0.7
			C291.3,401.3,292.8,402.9,292.8,406.2z M290,410.4v-1.6c-0.8-0.2-1.7-0.4-2.4-0.4c-1.4,0-2.2,0.5-2.2,1.6c0,1.1,0.8,1.5,1.9,1.5
			C288.4,411.5,289.3,411.2,290,410.4z"/>
	</g>
	<g>
		<path class="st7" d="M243.6,428.8h-4.5v11.6h-1.8v-11.6h-4.4v-1.7h10.7V428.8z"/>
		<path class="st7" d="M244,428.1l3.4-3.2l1.1,1.4l-3.6,2.9L244,428.1z M245.4,430.4h1.8v9.9h-1.8V430.4z"/>
		<path class="st7" d="M256.6,438.6v1.5c-0.9,0.4-1.7,0.5-2.7,0.5c-2.2,0-3.2-1.2-3.2-3.6v-4.9H249v-1.6h1.7l0.5-2.4h1.3v2.4h3.9
			v1.6h-3.9v4.7c0,1.6,0.5,2.2,2.1,2.2C255.2,439,256,438.9,256.6,438.6z"/>
		<path class="st7" d="M266.9,430.4v9.9h-1.5l-0.1-1.1c-0.9,0.9-1.9,1.4-3.3,1.4c-2.5,0-3.5-1.2-3.5-4.1v-6.1h1.8v6.1
			c0,1.9,0.6,2.6,2,2.6c1,0,2.1-0.4,2.9-1.4v-7.2H266.9z"/>
		<path class="st7" d="M269.9,426.2h1.8v14.2h-1.8V426.2z"/>
		<path class="st7" d="M274,435.4c0-3.2,1.9-5.3,5-5.3c3,0,4.9,2,4.9,5.2c0,3.2-1.9,5.3-5,5.3C275.9,440.6,274,438.6,274,435.4z
			 M282.2,435.4c0-2.3-1.2-3.7-3.2-3.7s-3.2,1.4-3.2,3.7c0,2.3,1.2,3.7,3.2,3.7S282.2,437.7,282.2,435.4z"/>
		<path class="st7" d="M299.8,434.2v6.1H298v-6.1c0-1.7-0.8-2.5-2.4-2.5c-1,0-2.1,0.4-2.9,1.4v7.2h-1.8v-14.2h1.8v5.3
			c0.9-0.9,2-1.3,3.2-1.3C298.5,430.1,299.8,431.5,299.8,434.2z"/>
		<path class="st7" d="M302.3,427.1c0-0.8,0.5-1.3,1.2-1.3c0.7,0,1.2,0.5,1.2,1.3c0,0.8-0.5,1.3-1.2,1.3
			C302.9,428.3,302.3,427.8,302.3,427.1z M302.7,430.4h1.8v9.9h-1.8V430.4z"/>
		<path class="st7" d="M313.9,438.6v1.5c-0.9,0.4-1.7,0.5-2.7,0.5c-2.2,0-3.2-1.2-3.2-3.6v-4.9h-1.6v-1.6h1.7l0.5-2.4h1.3v2.4h3.9
			v1.6h-3.9v4.7c0,1.6,0.5,2.2,2.1,2.2C312.5,439,313.3,438.9,313.9,438.6z"/>
		<path class="st7" d="M315,435.4c0-3.2,1.9-5.3,5-5.3c3,0,4.9,2,4.9,5.2c0,3.2-1.9,5.3-5,5.3C316.9,440.6,315,438.6,315,435.4z
			 M323.2,435.4c0-2.3-1.2-3.7-3.2-3.7s-3.2,1.4-3.2,3.7c0,2.3,1.2,3.7,3.2,3.7S323.2,437.7,323.2,435.4z"/>
	</g>
	<g>
		<g>
			<path class="st8" d="M179.4,143l2.2-2.2l2,2l2-2l-6-6l-2,2l2,2l-2.4,2.4c-2.5-1.8-5.2-3-8.2-3.6v-3.4h2.8v-2.8h-14.2v2.8h2.8v3.4
				c-3,0.6-5.7,1.8-8.2,3.6l-2.4-2.4l2-2l-2-2l-6,6l2,2l2-2l2.2,2.2c-4.2,4-6.7,9.5-6.7,15.5c0,11.8,9.6,21.4,21.3,21.4
				c11.8,0,21.3-9.6,21.3-21.4C186,152.8,183.8,147.2,179.4,143z M163.3,134.2h2.8v3c-0.5,0-0.9,0-1.4,0c-0.5,0-1,0-1.4,0V134.2z
				 M164.7,177.1c-10.2,0-18.5-8.3-18.5-18.6c0-10.2,8.3-18.5,18.5-18.5c10.2,0,18.5,8.3,18.5,18.5
				C183.2,168.7,174.9,177.1,164.7,177.1z"/>
			<path class="st8" d="M166.1,154.5v-11.6h-2.8v11.6c-1.7,0.6-2.8,2.2-2.8,4c0,2.4,1.9,4.3,4.3,4.3c2.4,0,4.3-1.9,4.3-4.3
				C169,156.6,167.8,155.1,166.1,154.5z M164.7,159.9c-0.8,0-1.4-0.6-1.4-1.4c0-0.8,0.6-1.4,1.4-1.4c0.8,0,1.4,0.6,1.4,1.4
				C166.1,159.3,165.5,159.9,164.7,159.9z"/>
			<path class="st8" d="M163.3,171.3h2.8v2.8h-2.8V171.3z"/>
			<path class="st8" d="M149.1,157.1h2.8v2.8h-2.8V157.1z"/>
			<path class="st8" d="M177.5,157.1h2.8v2.8h-2.8V157.1z"/>
			<path class="st8" d="M154.7,170.6l-2-2l2-2l2,2L154.7,170.6z"/>
			<path class="st8" d="M174.8,150.5l-2-2l2-2l2,2L174.8,150.5z"/>
			<path class="st8" d="M174.8,170.6l-2-2l2-2l2,2L174.8,170.6z"/>
			<path class="st8" d="M154.7,150.5l-2-2l2-2l2,2L154.7,150.5z"/>
		</g>
	</g>
	<g>
		<g>
			<path class="st8" d="M186,282.6l-5.2,2.6l-1.2-2.3l5.2-2.6L186,282.6z"/>
			<path class="st8" d="M184.8,303.3l-5.2-2.6l1.2-2.3l5.2,2.6L184.8,303.3z"/>
			<path class="st8" d="M181.5,290.5h5.3v2.6h-5.3V290.5z"/>
			<path class="st8" d="M144.6,280.2l5.2,2.6l-1.2,2.3l-5.2-2.6L144.6,280.2z"/>
			<path class="st8" d="M144.6,303.3l-1.2-2.3l5.2-2.6l1.2,2.3L144.6,303.3z"/>
			<path class="st8" d="M142.6,290.5h5.3v2.6h-5.3V290.5z"/>
			<path class="st8" d="M160.8,319.1h7.8v2.6h-7.8V319.1z"/>
			<path class="st8" d="M178.9,291.8c0-7.8-6.4-14.2-14.2-14.2c-7.8,0-14.2,6.4-14.2,14.2c0,5.4,3,10.2,7.8,12.7v4.2h-2.6v2.6h2.6
				v5.3h12.9v-5.3h2.6v-2.6h-2.6v-4.2C175.9,302,178.9,297.1,178.9,291.8z M168.6,313.9h-7.8v-2.8h7.8V313.9z M163.4,294.3
				c0-0.7,0.6-1.3,1.3-1.3c0.7,0,1.3,0.6,1.3,1.3c0,0.7-0.6,1.3-1.3,1.3C164,295.6,163.4,295.1,163.4,294.3z M166,308.6V298
				c1.5-0.5,2.6-2,2.6-3.7c0-2.1-1.7-3.9-3.9-3.9s-3.9,1.7-3.9,3.9c0,1.7,1.1,3.1,2.6,3.7v10.6h-2.6v-5.8l-0.8-0.3
				c-4.2-1.9-7-6-7-10.7c0-6.4,5.2-11.6,11.6-11.6c6.4,0,11.6,5.2,11.6,11.6c0,4.6-2.7,8.8-7,10.7l-0.8,0.3v5.8H166z"/>
		</g>
	</g>
	<circle class="st3" cx="164.7" cy="434.6" r="37.8"/>
	<path class="st8" d="M150.4,416.9l-3.3,3.3l1.6,3.3c-0.6,0.9-1.1,1.8-1.6,2.7l-3.6,0.2l-1.2,4.5l3,2l0,0c0,0.5-0.1,1.1-0.1,1.6
		c0,0.5,0,1.1,0.1,1.6l0,0l-3,2l1.2,4.5l3.6,0.2c0.4,0.9,1,1.8,1.6,2.7l-1.6,3.3l3.3,3.3l3.3-1.6c0.9,0.6,1.8,1.1,2.7,1.6l0.2,3.6
		l4.5,1.2l2-3c0.5,0,1.1,0.1,1.6,0.1c0.5,0,1.1,0,1.6-0.1l0,0l2,3l4.5-1.2l0.2-3.6c0.9-0.5,1.9-1,2.7-1.6l3.3,1.6l3.3-3.3l-1.6-3.3
		c0.6-0.9,1.1-1.8,1.6-2.7l3.6-0.2l1.2-4.5l-3-2c0-0.5,0.1-1.1,0.1-1.6c0-0.5,0-1.1-0.1-1.6l3-2l-1.2-4.5l-3.6-0.2
		c-0.5-0.9-1-1.9-1.6-2.7l1.6-3.3l-3.3-3.3l-3.3,1.6c-0.9-0.6-1.8-1.1-2.7-1.6l-0.2-3.6l-4.5-1.2l-2,3l0,0c-0.5,0-1.1-0.1-1.6-0.1
		c-0.5,0-1.1,0-1.6,0.1l-2-3l-4.5,1.2l-0.2,3.6c-0.9,0.4-1.9,1-2.7,1.6L150.4,416.9z M174.9,424.3c5.7,5.7,5.7,14.8,0,20.5
		c-5.7,5.7-14.8,5.7-20.5,0c-5.7-5.7-5.7-14.8,0-20.5C160.1,418.7,169.3,418.7,174.9,424.3z"/>
	<line class="st3" x1="164.7" y1="333.5" x2="164.7" y2="396.7"/>
	<line class="st3" x1="164.7" y1="194.6" x2="164.7" y2="257.9"/>
</g>
</svg>
