<svg xmlns="http://www.w3.org/2000/svg" xmlns:xlink="http://www.w3.org/1999/xlink" width="1228" height="475" viewBox="0 0 1228 475">
  <defs>
    <clipPath id="clip-path">
      <rect id="Rectángulo_35864" data-name="Rectángulo 35864" width="1228" height="475" rx="10" transform="translate(0 -520.077)" fill="none"/>
    </clipPath>
    <clipPath id="clip-path-2">
      <rect id="Rectángulo_35866" data-name="Rectángulo 35866" width="1228" height="474.647" rx="13" transform="translate(0 -520.077)" fill="none"/>
    </clipPath>
  </defs>
  <g id="pasos4" transform="translate(-185.999 -4439.579)">
    <g id="Grupo_131899" data-name="Grupo 131899" transform="translate(185.999 4959.656)">
      <g id="Grupo_131569" data-name="Grupo 131569">
        <g id="Grupo_131568" data-name="Grupo 131568" clip-path="url(#clip-path)">
          <g id="Enmascarar_grupo_70" data-name="Enmascarar grupo 70">
            <g id="Grupo_131152" data-name="Grupo 131152">
              <rect id="Rectángulo_35714" data-name="Rectángulo 35714" width="1228" height="475" transform="translate(0 -520.077)" fill="#f2e6dd"/>
              <path id="Trazado_123569" data-name="Trazado 123569" d="M1228-317.952s-55.28,11.708-136.984-51.752c-41.708-35.172-85.719-70.1-137.148-89.333-61.137-22.871-127.487-20.425-190.148-5.311-58.168,14.031-114.1,37.894-169.471,60.092-105.837,42.43-211.871,89.777-323.636,114.017C189.765-272.708,87.7-265.6,30.862-339.126,16.807-357.308,6.919-378.478,0-400.388V-45.429H1227.965C1227.965-132.473,1228-317.952,1228-317.952Z" fill="#fff" opacity="0.36" style="isolation: isolate"/>
              <path id="Trazado_123570" data-name="Trazado 123570" d="M0-102.239c208.4,98.208,506.15-52.248,710.014-61.255s283.087,100,517.965,25.764v92.3H0Z" fill="#fff" opacity="0.39" style="isolation: isolate"/>
            </g>
          </g>
        </g>
      </g>
      <g id="Grupo_131894" data-name="Grupo 131894">
        <g id="Grupo_131893" data-name="Grupo 131893" clip-path="url(#clip-path-2)">
          <g id="Grupo_132016" data-name="Grupo 132016" transform="translate(-27.669 -502.382)">
            <g id="Grupo_132015" data-name="Grupo 132015">
              <g id="Grupo_132014" data-name="Grupo 132014">
                <path id="Trazado_124974" data-name="Trazado 124974" d="M501.087,284.4c2.007-.225,4.263-5.358,5.114-6.777,3.165-5.276,6.033-10.734,8.909-16.17,6.017-11.375,11.822-22.866,17.946-34.185-2.834-2.808-5.743-5.8-8.586-8.873,2.879-12.735.981-25.788-7.628-36.931a42.61,42.61,0,0,0-24.879-16c-2.235-7.869-4.148-15.615-3.477-15.164,21.852,14.666,19.879-13.079,42.019-15.752,15.657-1.891,33.563,3.448,46.208-8.576,10.763-10.235,15.267-25.958,22.093-38.8,11.682-21.972,28.65-40.648,54.353-44.518,24.716-3.721,49.119,6.146,66.292,23.866,9.2,9.495,17.31,21.5,21.553,34.1,3.7,10.992-.415,18.386-8.421,24.537a2.381,2.381,0,0,0-.429,3.33c1.661,2.172,12.645,12.808,13.41,15.522,2.169,7.7-7.8,8.4-15.554,11.8.127,2.864-.167,5.57-1.4,7.492-2.4,3.719-6.35,2.566-9.4.285-5.641-4.213-18.168-19.974-23.029-5.285-.453,1.369-1.694,5.455-1.343,6.7.884,3.133,5.316,5.169,8.118,5.772,4.623.994,14.679.474,16.96,5.342,1.729,3.692.866,7.555-.048,11.323-1.471,6.062-2.384,15.274-8.151,18.85-6.569,4.073-16.531.539-23.068-1.758-5.505-1.933-10.913-4.662-16.786-5.308-9.243-1.017-8.971,7.127-3.7,12.969,15.537,17.235,44.59,13.621,58.412-3.618a88.44,88.44,0,0,0,10.863-17.827c4.317-9.241,7.541-18.944,11.379-28.384,2.559-6.3,4.644-12.737,10.884-16.1a2.828,2.828,0,0,1,3.467.5c9.018,4.9-1.61,25.61-3.7,31.945-2.006,6.089-3.811,12.432-5.789,18.737,3.25-1.253,6.568-2.11,9.58-1.637,5.192.817,7.6,5.868,7.535,10.689a21.353,21.353,0,0,1-1.958,8.651c6.486,1.619,12.244,4.74,13.241,11.877a11.649,11.649,0,0,1-3.442,9.878,15.718,15.718,0,0,1,2.057,9.9c-1.53,12.733-19.309,18.111-29.553,20.105-37.054,7.21-77.2,1.272-108.149-21.222-13.247-9.629-22.93-23.8-37.309-32-6.493-3.7-14.9-7.176-22.487-4.713-8.5,2.759-10.948,8.616-2.646,14.449,19.112,13.429,34.121,23.429,35.547,49.562,1.206,22.094-14.317,41.529-35.895,25.735-8.416-6.16-16.184-9.438-26.89-7.559-8.3,1.457-15.978,5.038-24,7.425-7.582,2.257-16.562,3.727-24.6,1.666-4.3-1.1-13.643-6.422-13.836-12.026a4.987,4.987,0,0,1,.09-1.137C491.883,282.361,498.031,284.739,501.087,284.4Z" fill="#050f17"/>
                <path id="Trazado_124975" data-name="Trazado 124975" d="M715.192,122.156a31.709,31.709,0,0,0,6.984,9.6c.937.881-.476,2.29-1.412,1.411a33.2,33.2,0,0,1-7.295-10C712.921,122.01,714.641,121,715.192,122.156Z" fill="#7c4851"/>
                <path id="Trazado_124976" data-name="Trazado 124976" d="M705.537,257.8A14.969,14.969,0,0,0,724.469,239a1.026,1.026,0,0,1,.7-1.227c2.471-.981,5.011-2.005,7.472-3.189a1.039,1.039,0,0,1,1.376-.689,31.022,31.022,0,0,0,8.783-6.386,13.3,13.3,0,0,0,3.243-4.873c1.113-4.057-3.26-5.469-6.379-4.373-4.019,1.413-8.008,2.919-12.01,4.377-1.208.441-1.729-1.487-.53-1.924,4.123-1.5,24.907-11.633,21.339,1.339-1.738,6.318-7.351,10.488-13.354,13.545,1.033,1.954,2.3,3.906,4.549,4.574,2.11.627,5.111-.39,7.145-1.1a28.48,28.48,0,0,0,11.714-7.961c.868-.951,2.275.464,1.411,1.411-4.448,4.879-10.376,8.64-17.012,9.6a9.159,9.159,0,0,1-3.256-.063c.176,6.252,5.9,12.108,12.106,12.551,5.643.4,11.295-2.717,15.795-5.847,1.057-.735,2.056,1,1.008,1.723-5.772,4.013-13.668,8.021-20.755,5.276-5.675-2.2-10.2-7.87-10.167-14.046a1,1,0,0,1,.084-.4,11.885,11.885,0,0,1-4.386-4.851c-2.309,1.088-4.625,2.03-6.756,2.878a16.932,16.932,0,0,1-21.58,20.376A1,1,0,0,1,705.537,257.8Z" fill="#7c4851"/>
                <path id="Trazado_124977" data-name="Trazado 124977" d="M593.583,195.249c22.53,6.975,49.759,1.062,61.37-20.938,8.445-16,10.043-34.923,21.575-49.376.8-1,2.2.416,1.41,1.411-13.082,16.4-13.023,39.207-25.595,55.85-13.377,17.708-39.19,21.2-59.29,14.978C591.83,196.795,592.352,194.868,593.583,195.249Z" fill="#7c4851"/>
                <path id="Trazado_124978" data-name="Trazado 124978" d="M120.227,216.908c9.814,24.156,24.97,45.525,37.614,68.192,12.828,22.994,18.065,44.311,22.008,70.083,2.965,19.381,11.852,30.345,27.19,41.575,20.169,14.767,37.988,26.221,38.465,53.715.295,17.038-9.15,56.631-5.783,77.431,2.434,15.032,32.005,12.929,42.318,13.344a154.544,154.544,0,0,0,27.446-1.361c19.642-2.724,38.209-11.89,58.349-9.814,18.706,1.928,37.335,15.052,56.219,12.836,15.123-1.774,36.64-2.045,49.7-11.246,3.359-2.367,5.645-5.452,5.937-9.664.427-6.156-2.4-13.757-3.461-19.845-1.154-6.6-2.225-13.216-2.991-19.874-1.091-9.488-3.19-22.585,1.729-31.4,5.088-9.117,12.977-16.176,17.765-25.714a93.719,93.719,0,0,0,9.038-29.008c2.778-19.88-2.512-39.915-.078-59.859,2.742-22.466,10.235-44.67,20.117-64.5,16.552-33.211,19-80.671-7.976-109.225-4.49-4.754-9.726-8.951-15.817-11.33-33.075-12.917-26.8,28.943-22.542,46.942,5.237,22.146,15.126,47.056,7.363,69.773-5.874,17.189-21.874,1.861-26.488-6.76-7.7-14.393-10.932-30.325-20.581-43.842a62.876,62.876,0,0,0-15.428-15.452c-10.867-7.472-25.224-14.977-31.367-27.346-9.465-19.062-1.832-45.345,3.264-64.64,5.7-21.56,12.58-43.481,9.952-66.062C398.539,12.527,380.606-19.2,347.6-25.968c-5.432-1.114-11.309-.825-16.207,1.772-26.628,14.121-11.3,52.17.422,70.2,9.128,14.039,22.114,31.334,15.752,49.035-.527,1.467-3.707,7.773-6.138,5.548a3.955,3.955,0,0,1-.942-2.262c-1.635-8.448-5.68,10.476-11.209,3.9-14.869-18.585-39.4-27.187-62.331-19.54a2.012,2.012,0,0,1-1.288.131c-.832-.3,6.583-4.667,6.343-5.516-3.657-12.95-21.939-36.742,27.02-84.042,19.708-19.04,21.673-61.839,1.67-82.656C284.9-105.823,261.172-108.7,242.177-95.97c-47.21,31.641-33.946,112.244-23.87,158.68a346.81,346.81,0,0,0,14.074,47.9c5.535,14.8,13.848,29.494,15.554,45.425.729,6.818-.022,16.991-7.05,20.582-12.168,6.217-17.877-10.849-19.546-19.157-2.825-14.067-2.8-28.6-6.369-42.54-2.847-11.128-8.129-22.9-18.877-28.39-31.347-16.008-29.453,38.742-25.274,54.366,5.706,21.333,16.76,40.759,22.852,61.969,2.273,7.914,6.215,29.374-6.537,30.854-10.59,1.228-16.463-26.2-18.753-33.248-3.366-10.361-9.3-18.112-18.074-24.6-9.388-6.947-24.065-9.246-32.019,1.164C109.319,188.776,115.329,204.852,120.227,216.908ZM277.484-41.553a40.244,40.244,0,0,1,6.031-9.628c1.1-1.253,2.6-3.117,4.174-3.786,2.042-.868,1.745-.845,2.889,1.289,3.785,7.06,4.746,16.174.119,23.1-2.953,4.42-8.942,8.548-13.589,3.724C273.323-30.783,275.517-37.315,277.484-41.553ZM507.2,203.384c-.107-1.933,1.1-4.084,3.29-3.628,2.934.61,6.251,7.709,1.88,8.454a3.664,3.664,0,0,1-2.78-.833,7.371,7.371,0,0,1-1.333-1.32A4.831,4.831,0,0,1,507.2,203.384Zm-5.042-28.757c.378-2.506,2.148-3.82,4.448-2.448,1.722,1.027,2.359,3.05,2.982,4.832.672,1.925,3.107,9.5-1.481,8.217C504.071,184.1,501.562,178.543,502.155,174.627ZM491.188,183a4.977,4.977,0,0,1,1.528,1.162c4.306,4.4,6.389,10.966,6.319,17.044-.054,4.658-3.57,6.4-6.908,2.8-2.794-3.018-4.607-7.519-5.431-11.49C486.2,190.115,486.212,180.86,491.188,183ZM369.07,13.491c4.139-6.224,7.674,3.23,8.521,6.684,1.245,5.071,1.064,11.183-3.086,14.922-4.48,4.037-8.1-2.16-8.457-6.256C365.622,24,366.317,17.632,369.07,13.491Zm-18.094,36.8c-4.387,1.617-8.118-2.153-9.807-5.829-1.092-2.379-2.615-12.754,2.382-10.181,3.842,1.978,8.573,2.4,11.269,6.2C357.3,43.976,354.754,48.9,350.976,50.29ZM260.454-71.22a79.28,79.28,0,0,1-3.9,15.5c-1.593,4.179-4.5,11.348-9.838,11.72-7.242.5-7.6-8.712-6.43-13.614.864-3.637,2.369-7.792,5.448-10.13,1.244-.944,11.325-7.135,14.084-5.521C260.372-72.941,260.63-72.295,260.454-71.22ZM248.539-15.6a5.283,5.283,0,0,1,.731-7.013c2.294-2.06,5.329-2.344,7.276.307,1.27,1.731,3.229,9.566-.533,9.673C252.911-12.546,250.382-12.717,248.539-15.6ZM187.845,127.881c.017,3.183-1.591,5.46-4.539,2.758-3.869-3.546-5.795-11.59-4.218-16.527.793-2.482,2.635-3.025,4.388-.81a14.474,14.474,0,0,1,.983,1.414A26.917,26.917,0,0,1,187.845,127.881Zm6.675-9.592c-1.7-2.441-3.626-15.133,2.915-12.135,4.2,1.923,5.148,7.525,3.9,11.529C200.17,121.429,196.518,121.158,194.52,118.289Zm-49.177,73.018c4.043-5.533,13.02,9.544,6,12.822-2.459,1.147-4.556-1.848-5.568-3.629C144.21,197.753,143.307,194.093,145.343,191.307Zm-8.307,13.572c3.3.281,5.212,5.42,3.949,8.037-1.081,2.237-2.677,1.977-4.048.675C134.251,211.04,132.428,204.488,137.036,204.879Z" fill="#050f17"/>
                <g id="Grupo_131986" data-name="Grupo 131986">
                  <path id="Trazado_124979" data-name="Trazado 124979" d="M363.47,137.795s-6.765,49.756,0,67.926S420.655,315.1,305.093,329.257s-108.764-55.061-98.567-78.8,25.775-63.852,20.933-103.447c0,0,12.489-35.028,78.767-35.156S363.47,137.795,363.47,137.795Z" fill="#13273e"/>
                  <path id="Trazado_124980" data-name="Trazado 124980" d="M338.045,114.594c31.155,6.666,25.425,23.2,25.425,23.2s-6.765,49.756,0,67.926c2.266,6.085,9.423,20.362,13.606,37.189-4.972-8.371-11.632-19.334-17.224-27.668C352.469,204.236,336.749,171.489,338.045,114.594Z" fill="#0d1a29"/>
                  <path id="Trazado_124981" data-name="Trazado 124981" d="M206.526,250.46c10.2-23.736,25.775-63.852,20.933-103.447,0,0,5.875-17.113,33.309-27.678-4.245,28.186-13,76.9-26.056,103.926-10.7,22.17-28.829,52.112-28.536,76.229C197.882,281.879,201.84,261.368,206.526,250.46Z" fill="#0d1a29"/>
                </g>
                <g id="Grupo_131990" data-name="Grupo 131990">
                  <g id="Grupo_131989" data-name="Grupo 131989">
                    <g id="Grupo_131988" data-name="Grupo 131988">
                      <g id="Grupo_131987" data-name="Grupo 131987">
                        <path id="Trazado_124982" data-name="Trazado 124982" d="M313.761,244.947l2.9,27.891-34.124,3.551L278.762,240.1A52.144,52.144,0,0,0,313.761,244.947Z" fill="#f1a78f"/>
                        <path id="Trazado_124983" data-name="Trazado 124983" d="M278.762,240.1l-2.908-27.95,34.126-3.549,3.781,36.341A52.144,52.144,0,0,1,278.762,240.1Z" fill="#e28c79"/>
                      </g>
                      <path id="Trazado_124984" data-name="Trazado 124984" d="M303.925,269.558c-12.26,1.516-22.883-4.886-26.354-8.274,6.5-1.848,16.207-5.158,21.969-5.8,5.459-.606,13.751.418,19.476.845C319.053,259.055,317,267.942,303.925,269.558Z" fill="#f1a78f"/>
                    </g>
                    <path id="Trazado_124985" data-name="Trazado 124985" d="M216.053,291.4c-1.325-13.247,17.09-17.793,17.09-17.793,9.539-2.8,25.071-6.725,35.139-10.246,0,0,4.762-1.575,10.962-3.339,3.47,3.388,12.014,8.772,24.275,7.256,13.077-1.615,14.208-8.986,14.173-11.71,6.081.454,10.765,1.1,10.765,1.1,18.729,2.022,33.688,4.035,33.688,4.035s19.235.781,20.559,14.027c.6,5.985-11.263,15.992-16.589,19.665l.148,1.465c19.448,12.3,23.093,22.61,24.3,34.648,2.517,25.164-17.982,33.442-17.982,33.442l.653,69.425c-37.3,24.536-99.315,9.359-99.315,9.359-10.961-43.756-24.007-71.277-31.56-99.2a261.528,261.528,0,0,1-6.631-36.508C229.31,304.226,216.628,297.14,216.053,291.4Z" fill="#188df8"/>
                    <path id="Trazado_124986" data-name="Trazado 124986" d="M385.84,341.82s-4.085,4.226-13.706,6.033c-19.419,3.65-51.2,10.388-79.975,8.669-12.071-.72-21.408-5.849-31.06-11.968,0,0,8.382,29.922,45.555,25.583S385.92,366.208,385.84,341.82Z" fill="#1683e8"/>
                  </g>
                </g>
                <g id="Grupo_131995" data-name="Grupo 131995">
                  <g id="Grupo_131992" data-name="Grupo 131992">
                    <path id="Trazado_124987" data-name="Trazado 124987" d="M245.424,157.047s-12.086-77.041,51.738-76.99c65.334.053,59.226,66.982,59.078,73.907-1.671,8.413-3.753,21.869-3.1,33.476,1.624,28.966-22.81,47.815-44.509,47.788-41.68-.053-57.044-41.085-57.044-41.085A182.891,182.891,0,0,1,245.424,157.047Z" fill="#f1a78f"/>
                    <path id="Trazado_124988" data-name="Trazado 124988" d="M297.162,80.057c65.334.053,59.226,66.982,59.078,73.907-.387,1.95-.8,4.18-1.188,6.586-4.879-1.538-15.51-6.411-18-20.119-3.259-17.939,2.163-41.543-19.335-34.555,0,0-18.74-5.077-18.893,6.147-.151,11.126,4.538,56.074-52.8,52.465-.485-4.611-.605-7.441-.605-7.441S233.338,80.006,297.162,80.057Z" fill="#e28c79"/>
                    <g id="Grupo_131991" data-name="Grupo 131991">
                      <path id="Trazado_124996" data-name="Trazado 124996" d="M333.518,176.145c.988,3.849-1.054,8.281.045,12.074a6.425,6.425,0,0,1,.453,2.021,10.832,10.832,0,0,1-.558,2.08,3.867,3.867,0,0,0,.382,2.75.688.688,0,0,0,.281.3.465.465,0,0,0,.5-.208,3.541,3.541,0,0,0,.53-1.891l.5-5.492a18.316,18.316,0,0,0,0-4.939c-.189-1.032-.558-2-.665-3.055-.118-1.157,0-2.593-.724-3.231" fill="#baecff"/>
                      <path id="Trazado_124995" data-name="Trazado 124995" d="M289.766,175.061c.988,8.872-1.054,19.085.045,27.829a32.115,32.115,0,0,1,.454,4.658c-.028,1.707-.392,3.164-.559,4.793a19.5,19.5,0,0,0,.382,6.337,1.735,1.735,0,0,0,.281.691c.176.17.366-.1.5-.481a16.821,16.821,0,0,0,.53-4.357l.5-12.658a97.159,97.159,0,0,0,0-11.384c-.19-2.378-.558-4.613-.666-7.04-.118-2.668,0-5.977-.724-7.447" fill="#baecff"/>
                      <path id="Trazado_123501" data-name="Trazado 123501" d="M246.484,198.96a4.653,4.653,0,0,0,4.643-4.653.338.338,0,1,0-.676,0,3.969,3.969,0,1,1-3.968-3.974.338.338,0,0,0,0-.676,4.652,4.652,0,1,0,0,9.3Z" fill="#fff"/>
                      <ellipse id="Elipse_4807" data-name="Elipse 4807" cx="5.529" cy="4.25" rx="5.529" ry="4.25" transform="translate(267.167 177.269)" fill="#e28c79"/>
                      <ellipse id="Elipse_4808" data-name="Elipse 4808" cx="5.529" cy="4.25" rx="5.529" ry="4.25" transform="translate(337.791 177.269)" fill="#e28c79"/>
                      <path id="Trazado_123511" data-name="Trazado 123511" d="M312.068,183.414l-.241-.632c.044-.018,4.446-1.732,5.324-4.947s-5.569-11.752-5.634-11.838l.538-.409c.275.36,6.716,8.881,5.748,12.424S312.262,183.34,312.068,183.414Z" fill="#13273e"/>
                      <g id="Grupo_131114" data-name="Grupo 131114">
                        <path id="Trazado_123512" data-name="Trazado 123512" d="M273.247,161.2a29.948,29.948,0,0,1,5.856-3.1,24.623,24.623,0,0,1,6.521-1.577,25,25,0,0,1,6.773.289,30.834,30.834,0,0,1,6.511,1.955,1.353,1.353,0,1,1-1.043,2.5c-.034-.014-.071-.031-.1-.048a25.221,25.221,0,0,0-12.037-3.039,25.7,25.7,0,0,0-12.153,3.538.3.3,0,0,1-.321-.516Z" fill="#1f5683"/>
                        <path id="Trazado_123513" data-name="Trazado 123513" d="M351.672,161.718a24.8,24.8,0,0,0-11.9-3.526,24.335,24.335,0,0,0-11.78,3.049,1.353,1.353,0,1,1-1.271-2.389c.033-.017.071-.035.1-.05a29.86,29.86,0,0,1,6.388-1.962,24.019,24.019,0,0,1,6.659-.3,23.738,23.738,0,0,1,6.4,1.573A29.009,29.009,0,0,1,352,161.2a.3.3,0,0,1-.325.516h0Z" fill="#1f5683"/>
                      </g>
                      <path id="Trazado_123515" data-name="Trazado 123515" d="M312.819,227.345a12.8,12.8,0,0,1-3.965-.688l.21-.643a10.029,10.029,0,0,0,7.093.007l.253.628A9.482,9.482,0,0,1,312.819,227.345Z" fill="#e28c79"/>
                      <g id="Grupo_131116" data-name="Grupo 131116">
                        <path id="Trazado_123518" data-name="Trazado 123518" d="M283.827,192.561a22.388,22.388,0,1,1,22.39-22.388A22.387,22.387,0,0,1,283.827,192.561Zm0-43.763A21.373,21.373,0,1,0,305.2,170.171,21.374,21.374,0,0,0,283.827,148.8Z" fill="#fff"/>
                        <path id="Trazado_123519" data-name="Trazado 123519" d="M341.416,192.561A22.388,22.388,0,1,1,363.8,170.174,22.388,22.388,0,0,1,341.416,192.561Zm0-43.763a21.373,21.373,0,1,0,21.375,21.373A21.373,21.373,0,0,0,341.416,148.8Z" fill="#fff"/>
                        <path id="Trazado_123520" data-name="Trazado 123520" d="M320.127,165.609a.514.514,0,0,1-.3-.1c-5.112-3.843-9.737-3.85-14.138-.024a.507.507,0,0,1-.665-.765c4.749-4.131,9.934-4.139,15.412-.022a.507.507,0,0,1-.306.912Z" fill="#fff"/>
                      </g>
                      <path id="Trazado_124989" data-name="Trazado 124989" d="M305.125,212a9.065,9.065,0,0,0,9.064,9.064h0A9.065,9.065,0,0,0,323.253,212v-3.4a9.065,9.065,0,0,0-9.064-9.064h0a9.065,9.065,0,0,0-9.064,9.064Z" fill="#af2a2d"/>
                      <path id="Trazado_124990" data-name="Trazado 124990" d="M280.5,181.872a10.454,10.454,0,0,1-.465,3.587,6.855,6.855,0,0,0-.134,3.59,2.173,2.173,0,0,0,.919,1.275,1.207,1.207,0,0,0,1.476-.17,1.416,1.416,0,0,0,.234-.415,3.091,3.091,0,0,0,.19-.786,5.994,5.994,0,0,0-.115-1.7,19.082,19.082,0,0,0-1.419-4.541,4.213,4.213,0,0,1-.418-1.189" fill="#baecff"/>
                      <path id="Trazado_124991" data-name="Trazado 124991" d="M282.4,207.511a10.431,10.431,0,0,1-.8,3.529,6.849,6.849,0,0,0-.467,3.562,2.18,2.18,0,0,0,.8,1.355,1.206,1.206,0,0,0,1.485-.033,1.387,1.387,0,0,0,.272-.391,3.075,3.075,0,0,0,.262-.765,5.95,5.95,0,0,0,.044-1.707,19.145,19.145,0,0,0-.991-4.653,4.169,4.169,0,0,1-.306-1.223" fill="#baecff"/>
                      <path id="Trazado_124992" data-name="Trazado 124992" d="M345.737,192.941a11.226,11.226,0,0,0,.5,3.865,7.4,7.4,0,0,1,.144,3.869,2.35,2.35,0,0,1-.991,1.374,1.3,1.3,0,0,1-1.589-.184,1.5,1.5,0,0,1-.253-.447,3.294,3.294,0,0,1-.2-.847,6.411,6.411,0,0,1,.123-1.836A20.559,20.559,0,0,1,345,193.843a4.493,4.493,0,0,0,.45-1.282" fill="#baecff"/>
                      <path id="Trazado_124993" data-name="Trazado 124993" d="M296.25,171.445c-.389-1.459,1.141,3.342.293,4.592a3.07,3.07,0,0,1-4,.908c-.609-.378-1.135-1.012-1.853-1.019-1.049-.011-1.551,1.231-2.172,2.077a3.913,3.913,0,0,1-3.452,1.551,2.261,2.261,0,0,1-1.328-.517c-.589-.54-.7-1.443-1.219-2.048-1.48-1.713-4.9.071-6.315-1.7a2.149,2.149,0,0,1-.1-2.367,2.986,2.986,0,0,1,2.037-1.346s4.076,3.216,7.338,2.923S296.51,172.419,296.25,171.445Z" fill="#baecff"/>
                      <path id="Trazado_124994" data-name="Trazado 124994" d="M346.489,171.445c-.362-1.459,1.06,3.342.273,4.592a2.731,2.731,0,0,1-3.717.908c-.566-.378-1.056-1.012-1.723-1.019-.975-.011-1.442,1.231-2.019,2.077a3.536,3.536,0,0,1-3.208,1.551,2.017,2.017,0,0,1-1.234-.517c-.548-.54-.648-1.443-1.134-2.048-1.375-1.713-4.556.071-5.869-1.7a2.284,2.284,0,0,1-.093-2.367,2.775,2.775,0,0,1,1.893-1.346s3.789,3.216,6.821,2.923S346.731,172.419,346.489,171.445Z" fill="#baecff"/>
                      <g id="Grupo_131115" data-name="Grupo 131115">
                        <path id="Trazado_123516" data-name="Trazado 123516" d="M279.048,170.912a26.037,26.037,0,0,0,4.116,1.9,12.469,12.469,0,0,0,4.247.677,13.941,13.941,0,0,0,4.256-.774,35.013,35.013,0,0,0,4.183-1.811l.4.543a13.809,13.809,0,0,1-3.947,2.832,11.724,11.724,0,0,1-4.867,1.175,11.025,11.025,0,0,1-4.9-1.09,12.55,12.55,0,0,1-3.9-2.924Z" fill="#13273e"/>
                        <path id="Trazado_123517" data-name="Trazado 123517" d="M329.4,170.912a26.037,26.037,0,0,0,4.116,1.9,12.464,12.464,0,0,0,4.246.677,13.93,13.93,0,0,0,4.256-.774A34.874,34.874,0,0,0,346.2,170.9l.4.543a13.822,13.822,0,0,1-3.947,2.832,11.739,11.739,0,0,1-4.867,1.175,11.034,11.034,0,0,1-4.907-1.09,12.557,12.557,0,0,1-3.9-2.924Z" fill="#13273e"/>
                      </g>
                    </g>
                  </g>
                  <g id="Grupo_131993" data-name="Grupo 131993">
                    <path id="Trazado_124997" data-name="Trazado 124997" d="M246.912,157.25s5.97,1.309,8.048,18.115-2.122,18.2-3.375,18.778c0,0-15.225,4.257-20.508-20.94C226.69,152.273,246.912,157.25,246.912,157.25Z" fill="#f1a78f"/>
                    <path id="Trazado_124998" data-name="Trazado 124998" d="M251.127,182.568s-11.092-5.554-2.431-11.13c0,0-2.91-12.7-10.332-9.83s-1.475,14.776,0,17.236C241.453,183.995,251.127,190.307,251.127,182.568Z" fill="#e28c79"/>
                  </g>
                  <g id="Grupo_131994" data-name="Grupo 131994">
                    <path id="Trazado_124999" data-name="Trazado 124999" d="M317.718,105.876s-28-16.3-28.432,8.309-3.316,49.943-46.3,50.227c0,0-10.589-.546-11.914,8.791,0,0-12.655-51.727,7.738-81.183C257.04,65.695,302.587,48.1,319.443,68.11c0,0,41.788-14.633,49.662,23.91,5.665,27.727-7.964,55.905-13.99,68.141,0,0-12.64-10.854-12.448-22.94S346.257,88.964,317.718,105.876Z" fill="#0d1a29"/>
                    <path id="Trazado_125000" data-name="Trazado 125000" d="M335.971,103.071c8.672-9.335,14.426-23.393,17.791-33.852,6.918,3.685,12.843,10.558,15.343,22.8a67.763,67.763,0,0,1,1.3,11.524,122.187,122.187,0,0,1-28.424,11.338C341.076,109.8,339.3,105.352,335.971,103.071Z" fill="#0b1724"/>
                    <path id="Trazado_125001" data-name="Trazado 125001" d="M264.357,69.523c10.569,16.08,20.078,26.929,28.608,33.769-2.162,2.064-3.585,5.493-3.679,10.893q-.033,1.771-.086,3.546c-21.258-2.719-40.576-9.373-55.647-16.055a53.993,53.993,0,0,1,5.262-9.656C244.947,83.164,254.174,75.3,264.357,69.523Z" fill="#0b1724"/>
                    <path id="Trazado_125002" data-name="Trazado 125002" d="M319.443,68.11s1.322,23.6-1.7,35.879a71.252,71.252,0,0,0,5.718-37Z" fill="#13273e"/>
                  </g>
                </g>
                <g id="Grupo_131998" data-name="Grupo 131998">
                  <g id="Grupo_131996" data-name="Grupo 131996">
                    <path id="Trazado_125003" data-name="Trazado 125003" d="M368.79,304.262a19.4,19.4,0,1,1,.819-38.795c1.686.036,121.244,13.907,121.244,13.907a16.407,16.407,0,0,1-.693,32.8Z" fill="#ec9681"/>
                    <path id="Trazado_125004" data-name="Trazado 125004" d="M489.594,312.165a16.411,16.411,0,0,1-15.787-16.742,16.918,16.918,0,0,1,16.769-16.352h0s28.705-4.353,119.215,2.658l-.443,20.955S532,316.54,490.977,312.168C490.707,312.139,489.594,312.165,489.594,312.165Z" fill="#ec9681"/>
                    <path id="Trazado_125005" data-name="Trazado 125005" d="M420.93,310.882l-52.281-3.411a22.612,22.612,0,0,1,1.028-45.213c.888.017,26.222,2.912,54.258,6.142C424.333,278.449,424.247,294.9,420.93,310.882Z" fill="#188df8"/>
                  </g>
                  <g id="Grupo_131997" data-name="Grupo 131997">
                    <path id="Trazado_125006" data-name="Trazado 125006" d="M572.5,259.321c2.264-.814,5.12.5,6.354,2.026,0,0,9.819,11.076,11.518,10.145,1.569-.862,1.25-6.713,1.25-6.713-.46-4.579.495-14.859.495-14.859l-3.706-28.972a3.552,3.552,0,0,1,3.6-3.505,4.151,4.151,0,0,1,3.694,4.069l4.226,26.236a.97.97,0,0,0,.983.821c.482.017,1.12-.005,1.239-.824l.17-31.572a3.611,3.611,0,0,1,3.549-3.623,3.484,3.484,0,0,1,3.485,3.54l.381,32.585c-.064.956,1.19,1.526,1.512.472l4.868-28.937a3.36,3.36,0,1,1,6.719.083l-3.668,32.2c-.075,1.4,1.133,1.572,1.27.648l-.006,0,7.089-22.383c.733-1.921,1.95-3.525,3.652-3.029,1.782.517,2.3,1.628,2.016,3.536l-5.634,26.068c2.208,27.642-5.559,38.03-5.559,38.03-14.129,17.782-24.633-1.332-24.633-1.332a43.378,43.378,0,0,1-11.773-11.362c-2.134-3.012-8.041-12.1-12.154-17.222a34.558,34.558,0,0,0-3.08-3.3C569.567,261.188,570.438,260.064,572.5,259.321Z" fill="#ec9681"/>
                    <path id="Trazado_125007" data-name="Trazado 125007" d="M624.111,257.235s-11.66-8.309-30.39-5.73C593.721,251.505,609.791,250.663,624.111,257.235Z" fill="#12263f"/>
                  </g>
                </g>
                <path id="Trazado_125008" data-name="Trazado 125008" d="M243.606,433.287c.126-.972,1.5-1.647,2.06-.558,2.887,5.623,7.861,11.042,14.793,10.529,5.473-.4,8.6-4.685,11.614-8.656,4.051-5.34,8.059-9.895,15.084-10.8,6.983-.9,14.064,1.745,19.625,5.851,5.938,4.386,9.042,11.664,15.34,15.693,6.891,4.41,15.98,3.879,23.646,1.022a25.661,25.661,0,0,0,14.779-13.587,45.9,45.9,0,0,0,3.993-17.627c.279-10.7-2.339-26.542,6.4-34.886,7.21-6.882,15.593-1.043,18.345,6.887,2.176,6.272,1.706,13.054.818,19.512-.56,4.075-1.538,8.189-1.68,12.3-.1,2.8.007,5.773,1.539,8.234,2.3,3.7,8.477,5.6,10.56.518.523-1.277,2.592-.748,2.151.521.172.175,9.118.837,7.677,4.428-3.211,8.006-11.215,11.61-18.929,13.969-11.909,3.642-24.668,4.8-37.093,4.886a462.258,462.258,0,0,1-49.554.066c-15.925-.928-31.837-.532-47.674-2.976C249.048,447.378,242.441,442.257,243.606,433.287Z" fill="#050f17"/>
                <g id="Grupo_131999" data-name="Grupo 131999">
                  <path id="Trazado_125009" data-name="Trazado 125009" d="M394.214,436.094a.533.533,0,0,0,.243-1.007c-5.807-2.965-3.121-13.61-1.516-19.97.25-.993.476-1.886.641-2.639l.407-1.812c1.888-8.364,5.048-22.365-.084-30.015a11.9,11.9,0,0,0-8.291-5.082c-3.228-.543-6.107.189-9.154.967l-.665.169a.532.532,0,1,0,.261,1.032l.668-.169c2.934-.749,5.7-1.456,8.713-.949a10.879,10.879,0,0,1,7.584,4.625c4.876,7.27,1.779,20.99-.071,29.187l-.407,1.818c-.164.744-.387,1.627-.635,2.607-1.682,6.669-4.5,17.828,2.064,21.18A.535.535,0,0,0,394.214,436.094Z" fill="#7c4851"/>
                </g>
                <g id="Grupo_132005" data-name="Grupo 132005">
                  <g id="Grupo_132000" data-name="Grupo 132000">
                    <path id="Trazado_125010" data-name="Trazado 125010" d="M352.4,276.535a1.34,1.34,0,0,1-2.1-.918V275.6c-.056-.664-.181-1.556-.273-2.481a1.361,1.361,0,0,1,.012-.355c.036-.226.078-.514.126-.878.132-1,.289-1.989.479-2.976.28-1.453.728-2.871,1.076-4.3a1.164,1.164,0,0,1,.055-.17c.2-.5.4-.993.611-1.485l.022-.051a14.918,14.918,0,0,1,8.281-7.9c5.645-2.191,14.362-5.385,19.9-6.5a67.708,67.708,0,0,1,18.812-1.261c7.293.59,14.158,2.9,21.1,5.055,15.138,4.687,30.529,7.15,46.249,8.818,15.3,1.623,31.111,3.633,43.847,13a.653.653,0,0,1,.263.726c.333.188.669.36,1,.56.822.5-.1,1.681-.917,1.185a34.918,34.918,0,0,0-20.845-5.017c-7.923.621-14.16,4.357-20.881,8.25-11.112,6.436-22.644,6.73-34.861,3.352a90.291,90.291,0,0,1-20.723-8.656c-1.814-1.037-3.605-2.138-5.4-3.225a1.35,1.35,0,0,0-1.362-.028,39.35,39.35,0,0,0-4.529,3.127c-2.081,1.615-4.92,4.816-7.872,3.415a3.616,3.616,0,0,1-.339-.185,1.316,1.316,0,0,0-1.772.446,17.537,17.537,0,0,1-1.479,1.957,4.393,4.393,0,0,1-4.09,1.491c-2.176-.445-3.31-2.59-3.6-4.625a11.7,11.7,0,0,1,.169-4c-.27.569-.526,1.159-.784,1.742a1.206,1.206,0,0,0-.063.174c-1.622,5.837-4.518,13.395-9.518,8.728-4.062-3.791-3.408-9.307-1.562-14.215-.355.414-.706.833-1.045,1.265-3.1,3.956-4.485,8.344-6.878,12.61-1.968,3.508-5.716,3.354-7.467-.534a8.907,8.907,0,0,1-.446-5.485,1.348,1.348,0,0,0-2.081-1.394C353.123,276.036,352.745,276.3,352.4,276.535Z" fill="#050f17"/>
                  </g>
                  <g id="Grupo_132001" data-name="Grupo 132001">
                    <path id="Trazado_125011" data-name="Trazado 125011" d="M372.31,252.33a.722.722,0,1,1,.708,1.259c-12.46,7-15.661,18.007-15.693,18.118a.721.721,0,0,1-1.39-.387C356.066,270.847,359.3,259.646,372.31,252.33Z" fill="#7c4851"/>
                  </g>
                  <g id="Grupo_132002" data-name="Grupo 132002">
                    <path id="Trazado_125012" data-name="Trazado 125012" d="M385.093,250.3a.721.721,0,1,1,.645,1.29c-9.629,4.818-12.986,15.5-13.018,15.608a.722.722,0,0,1-1.382-.42C371.48,266.318,374.893,255.4,385.093,250.3Z" fill="#7c4851"/>
                  </g>
                  <g id="Grupo_132003" data-name="Grupo 132003">
                    <path id="Trazado_125013" data-name="Trazado 125013" d="M395.772,253.061a.722.722,0,1,1,.791,1.207c-8.927,5.843-11.69,16.831-11.716,16.943a.73.73,0,0,1-.131.27.721.721,0,0,1-1.272-.611C383.559,270.4,386.361,259.224,395.772,253.061Z" fill="#7c4851"/>
                  </g>
                  <g id="Grupo_132004" data-name="Grupo 132004">
                    <path id="Trazado_125014" data-name="Trazado 125014" d="M404.234,257.636a.722.722,0,1,1,.769,1.222c-7.657,4.813-10.741,15.834-10.772,15.945a.713.713,0,0,1-.125.251.722.722,0,0,1-1.268-.63C392.967,273.949,396.1,262.75,404.234,257.636Z" fill="#7c4851"/>
                  </g>
                </g>
                <g id="Grupo_132008" data-name="Grupo 132008">
                  <g id="Grupo_132006" data-name="Grupo 132006">
                    <path id="Trazado_125015" data-name="Trazado 125015" d="M233.609,315.428a19.4,19.4,0,1,1,5.307-38.439c1.67.231,118.817,27.859,118.817,27.859a16.407,16.407,0,0,1-4.489,32.5Z" fill="#f1a78f"/>
                    <path id="Trazado_125016" data-name="Trazado 125016" d="M352.683,337.273a16.413,16.413,0,0,1-13.742-18.458,16.919,16.919,0,0,1,18.551-14.3h0s29.016-1,118.1,16.452l-2.867,20.761s-78.435,4.8-118.672-4.293C353.792,337.376,352.683,337.273,352.683,337.273Z" fill="#f1a78f"/>
                    <path id="Trazado_125017" data-name="Trazado 125017" d="M284.63,328.043,233.1,318.6a22.612,22.612,0,0,1,6.259-44.789c.879.12,25.707,5.93,53.182,12.387C291.768,296.223,289.777,312.55,284.63,328.043Z" fill="#188df8"/>
                  </g>
                  <g id="Grupo_132007" data-name="Grupo 132007">
                    <path id="Trazado_125018" data-name="Trazado 125018" d="M508.821,305.7c-2.153-1.071-5.141-.1-6.545,1.277,0,0-11.036,9.865-12.616,8.742-1.458-1.038-.463-6.813-.463-6.813.988-4.495,1.23-14.817,1.23-14.817l7.037-28.347a3.551,3.551,0,0,0-3.168-3.9,4.15,4.15,0,0,0-4.14,3.614l-7.237,25.57a.97.97,0,0,1-1.071.7c-.481-.038-1.114-.136-1.136-.962l3.489-31.379a3.611,3.611,0,0,0-3.106-4.01,3.484,3.484,0,0,0-3.871,3.112l-4.153,32.322c-.048.957-1.359,1.379-1.557.293L470.032,261.8a3.36,3.36,0,1,0-6.684-.7l-.088,32.409c-.087,1.4-1.306,1.432-1.336.5l.007-.005-4.448-23.053c-.506-1.992-1.529-3.726-3.276-3.432-1.831.308-2.473,1.352-2.412,3.28l2.575,26.544c-5.4,27.2,1.116,38.419,1.116,38.419,15.248,13.092,24.62,1.53,24.62,1.53a43.366,43.366,0,0,0,13.011-9.921c2.469-2.746,9.389-11.09,14.067-15.7a34.45,34.45,0,0,1,3.442-2.92C511.518,307.9,510.784,306.681,508.821,305.7Z" fill="#f1a78f"/>
                    <path id="Trazado_125019" data-name="Trazado 125019" d="M457.8,297.653s12.545-6.9,30.849-2.171C488.649,295.482,472.785,292.783,457.8,297.653Z" fill="#12263f"/>
                  </g>
                </g>
                <g id="Grupo_132013" data-name="Grupo 132013">
                  <path id="Trazado_125020" data-name="Trazado 125020" d="M251.083,377.462c-.506-.873-1-1.735-1.482-2.559a140.072,140.072,0,0,1-8.917-18.13c-5.179-12.706-26.4-24.182-28.565-37.715-1.088-6.78-1.934-13.634-2.359-20.49-.8-12.889,4.408-21.964,14.277-29.978,5.682-4.613,34.122.158,39.854-4.394.754-.6,1.548.673.8,1.267h0c3.1,6.854-2.716,4.234-7.063,10.5-3.589,5.176-9.8,7.605-13.974,12.231-4.409,4.888-7.7,12.252-6.413,18.927,1.607,8.36,9.075,13.973,14.051,20.334a43.059,43.059,0,0,1,8.179,17.907c2.874-.922,8.966-2.383,11.448-.3a3.3,3.3,0,0,1,.937,3.649c2.488.077,4.426,1.007,4.505,3.7.071,2.434-2.626,3.8-4.545,4.509-.792.291-1.546.55-2.3.812,1.56.324,3.154.988,3.577,2.5.656,2.344-1.989,3.809-3.666,4.7-1.6.849-3.429,1.486-5.117,2.311.752.068,1.511.159,2.291.3,2.454.437,2,3.516.156,4.344a55.615,55.615,0,0,0-5.858,2.97c.255,7.467-.834,18.245-1.2,18.082-3.266-1.427-4.391-8.834-6.414-11.888A2.371,2.371,0,0,1,251.083,377.462Z" fill="#050f17"/>
                  <g id="Grupo_132009" data-name="Grupo 132009">
                    <path id="Trazado_125021" data-name="Trazado 125021" d="M244.42,356.809a.755.755,0,0,0,.171-.15,30.941,30.941,0,0,1,13.906-9.436.722.722,0,1,0-.385-1.391,31.92,31.92,0,0,0-14.633,9.906.722.722,0,0,0,.941,1.071Z" fill="#7c4851"/>
                  </g>
                  <g id="Grupo_132010" data-name="Grupo 132010">
                    <path id="Trazado_125022" data-name="Trazado 125022" d="M270.99,349.782a.722.722,0,0,0-.558-1.311c-.636.157-15.664,3.936-22.226,12.714a.721.721,0,0,0,1.155.864c6.254-8.362,21.265-12.139,21.416-12.176A.7.7,0,0,0,270.99,349.782Z" fill="#7c4851"/>
                  </g>
                  <g id="Grupo_132011" data-name="Grupo 132011">
                    <path id="Trazado_125023" data-name="Trazado 125023" d="M268.41,358.792a.722.722,0,0,0-.608-1.3c-.418.136-10.3,3.375-15.884,9.44a.722.722,0,0,0,1.062.977c5.324-5.78,15.168-9.012,15.266-9.043A.769.769,0,0,0,268.41,358.792Z" fill="#7c4851"/>
                  </g>
                  <g id="Grupo_132012" data-name="Grupo 132012">
                    <path id="Trazado_125024" data-name="Trazado 125024" d="M253.684,374.29a.714.714,0,0,0,.237-.245c1.714-2.932,6.831-4.882,8.758-5.617a7.869,7.869,0,0,0,.875-.369.722.722,0,0,0-.753-1.232c-.1.05-.322.132-.636.252-2.057.785-7.52,2.868-9.49,6.236a.722.722,0,0,0,1.009.975Z" fill="#7c4851"/>
                  </g>
                </g>
              </g>
              <path id="Trazado_125025" data-name="Trazado 125025" d="M424.36,129.411c1.081,2.52,13.626,11.433,16.623,13.987,6.049,5.152,11.435,11.021,14.219,18.469a1.113,1.113,0,0,0,2.009.065c3.955-10.653-.874-21.059-9.441-27.609a.738.738,0,0,1,.37-1.331c2.528-.272,6.387-.8,7.226-1.49,1.747-1.43-.033-3.424-.955-4.9-11.946-19.138-26.152-25.286-26.47-25.16a1.059,1.059,0,0,0-1.806.559c-.338,3.129,13.242,18.629,13.441,20.2.341,2.7-4.3,2.274-6.128,2.246C430.979,124.408,422.52,125.128,424.36,129.411Z" fill="#dfa35d"/>
              <path id="Trazado_125026" data-name="Trazado 125026" d="M197.034,429.762a10.675,10.675,0,0,1-3.029,2.121c-3.278,1.871-6.683,4.8-6.8,8.2-.079,2.36,1.619,3.778,3.882,4.783,4.033,1.789,8.577,2.933,12.7,4.626a73.312,73.312,0,0,1,12.617,6.479,43.289,43.289,0,0,1,5.279,4.075c.763.694,5.6,6.3,6.9,3.561a2.059,2.059,0,0,0-.078-1.548c-1.281-3.94-2.594-7.954-4.893-11.519a36.875,36.875,0,0,0-10.5-10.507c-2.705-1.819-5.514-2.626-3.051-5.769,1.681-2.146,4.764-3.753,7.2-5.211,2.857-1.71,6.773-3.79,8.78-6.3,2.106-2.64-12.8-5.37-16.989-5.938a110.388,110.388,0,0,1-29.047-8.281,5.544,5.544,0,0,0-2.5-.689c-7.116.31,3,9.535,4.07,10.31a76.029,76.029,0,0,0,12.762,7.378C196.207,426.385,198.881,427.526,197.034,429.762Z" transform="translate(-17.102 -13)" fill="#dfa35d"/>
              <path id="Trazado_125027" data-name="Trazado 125027" d="M151.24,132.979c-1.006.578-3.448,2.245-4.122.611-.392-.951,2.19-13.914,1-15.584a.67.67,0,0,0-1.182.239c-.218.026-6.14,7.88-6.651,22.4-.039,1.121-.39,2.8,1.038,3.072.686.132,3-.754,4.49-1.377a.486.486,0,0,1,.632.641c-2.663,6.347-2.015,13.731,3.591,18.554a.7.7,0,0,0,1.1-.655c-.837-5.078.276-10.061,1.987-14.842.848-2.369,4.963-11.279,4.757-13.04C157.528,130.006,152.6,132.2,151.24,132.979Z" fill="#dfa35d"/>
            </g>
            <path id="Trazado_125028" data-name="Trazado 125028" d="M271.326,281.217l21.212,4.979-.46,3.193,65.414,15.127s49.7,4.557,61.07,6.366" fill="none" stroke="#12263f" stroke-linecap="round" stroke-linejoin="round" stroke-width="1"/>
            <path id="Trazado_125029" data-name="Trazado 125029" d="M278.762,362.339s6.06,7.161,13.316,7.691,35.4-2,35.4-2" fill="none" stroke="#12263f" stroke-linecap="round" stroke-linejoin="round" stroke-width="1"/>
            <path id="Trazado_125030" data-name="Trazado 125030" d="M273.121,262.543s-1.495,1.1,8.513,5.169,19.585,1.478,24.583,2.074,6.452,2.246,10.444-2.074a57.4,57.4,0,0,0,6.592-8.743" fill="none" stroke="#12263f" stroke-linecap="round" stroke-linejoin="round" stroke-width="1"/>
          </g>
        </g>
      </g>
    </g>
    <g id="Grupo_131931" data-name="Grupo 131931" transform="translate(640.999 1855.128)">
      <rect id="Rectángulo_35706" data-name="Rectángulo 35706" width="376" height="151" rx="12" transform="translate(316 2728.36)" fill="#ffb840"/>
      <path id="Trazado_126990" data-name="Trazado 126990" d="M4.672,11.93a7.053,7.053,0,0,1-2.809-1.363,2.6,2.6,0,0,1-.879-2A2.751,2.751,0,0,1,2.059,6.348a4.269,4.269,0,0,1,2.793-.879,4.66,4.66,0,0,1,2.09.453,3.436,3.436,0,0,1,1.422,1.25,3.2,3.2,0,0,1,.5,1.742H7.359A2.08,2.08,0,0,0,6.7,7.287,2.669,2.669,0,0,0,4.852,6.7a2.732,2.732,0,0,0-1.73.489A1.632,1.632,0,0,0,2.5,8.542,1.468,1.468,0,0,0,3.09,9.72,5.785,5.785,0,0,0,5.1,10.6a9.316,9.316,0,0,1,2.219.88A3.367,3.367,0,0,1,8.5,12.6a2.861,2.861,0,0,1,.387,1.508,2.658,2.658,0,0,1-1.078,2.215,4.6,4.6,0,0,1-2.883.832,5.347,5.347,0,0,1-2.187-.449,3.681,3.681,0,0,1-1.566-1.23A3,3,0,0,1,.625,13.7H2.133a1.959,1.959,0,0,0,.762,1.629,3.207,3.207,0,0,0,2.035.6,2.948,2.948,0,0,0,1.82-.484,1.573,1.573,0,0,0,.633-1.32A1.545,1.545,0,0,0,6.8,12.832,6.755,6.755,0,0,0,4.672,11.93ZM12.156,17H10.711V8.547h1.445ZM10.594,6.3a.863.863,0,0,1,.215-.594.807.807,0,0,1,.637-.242.819.819,0,0,1,.641.242A.854.854,0,0,1,12.3,6.3a.826.826,0,0,1-.219.586.834.834,0,0,1-.641.234.821.821,0,0,1-.637-.234A.834.834,0,0,1,10.594,6.3Zm5.242,2.242.047,1.063a3.08,3.08,0,0,1,2.531-1.219q2.68,0,2.7,3.023V17H19.672V11.406a1.946,1.946,0,0,0-.418-1.352,1.675,1.675,0,0,0-1.277-.437,2.086,2.086,0,0,0-1.234.375,2.546,2.546,0,0,0-.828.984V17H14.469V8.547Zm14.93,8.609a3.693,3.693,0,0,1-2.8-1.129,4.19,4.19,0,0,1-1.078-3.02v-.266a5.073,5.073,0,0,1,.48-2.246,3.748,3.748,0,0,1,1.344-1.547,3.378,3.378,0,0,1,1.871-.559,3.166,3.166,0,0,1,2.563,1.086,4.7,4.7,0,0,1,.914,3.109v.6H28.336a3,3,0,0,0,.73,2.02,2.3,2.3,0,0,0,1.777.77,2.517,2.517,0,0,0,1.3-.312,3.259,3.259,0,0,0,.93-.828l.883.688A3.55,3.55,0,0,1,30.766,17.156Zm-.18-7.578a1.928,1.928,0,0,0-1.469.637A3.1,3.1,0,0,0,28.383,12h4.234v-.109a2.753,2.753,0,0,0-.594-1.707A1.815,1.815,0,0,0,30.586,9.578Zm6.508-1.031.039.938a3.122,3.122,0,0,1,2.508-1.094A2.417,2.417,0,0,1,42.055,9.75a3.2,3.2,0,0,1,1.1-.984,3.242,3.242,0,0,1,1.6-.375q2.781,0,2.828,2.945V17H46.133V11.422a1.941,1.941,0,0,0-.414-1.355,1.823,1.823,0,0,0-1.391-.449,1.917,1.917,0,0,0-1.336.48,1.949,1.949,0,0,0-.617,1.293V17H40.922V11.461a1.613,1.613,0,0,0-1.8-1.844,1.934,1.934,0,0,0-1.945,1.211V17H35.727V8.547Zm19.82,4.32a5.026,5.026,0,0,1-.891,3.113,2.846,2.846,0,0,1-2.391,1.176,2.947,2.947,0,0,1-2.477-1.133l-.07.977H49.758V5H51.2V9.477a2.93,2.93,0,0,1,2.414-1.086,2.863,2.863,0,0,1,2.418,1.164,5.177,5.177,0,0,1,.879,3.188ZM55.469,12.7a3.906,3.906,0,0,0-.57-2.281,1.888,1.888,0,0,0-1.641-.8A2.122,2.122,0,0,0,51.2,10.945V14.6a2.181,2.181,0,0,0,2.07,1.328,1.878,1.878,0,0,0,1.617-.8A4.153,4.153,0,0,0,55.469,12.7ZM63.953,17a3.036,3.036,0,0,1-.2-.891,3.225,3.225,0,0,1-2.406,1.047,2.984,2.984,0,0,1-2.051-.707,2.287,2.287,0,0,1-.8-1.793,2.39,2.39,0,0,1,1-2.051,4.733,4.733,0,0,1,2.824-.73h1.406v-.664A1.623,1.623,0,0,0,63.273,10a1.821,1.821,0,0,0-1.336-.449,2.107,2.107,0,0,0-1.3.391,1.151,1.151,0,0,0-.523.945H58.664a2,2,0,0,1,.449-1.223,3.066,3.066,0,0,1,1.219-.934,4.1,4.1,0,0,1,1.691-.344,3.342,3.342,0,0,1,2.289.73,2.635,2.635,0,0,1,.859,2.012v3.891a4.757,4.757,0,0,0,.3,1.852V17Zm-2.4-1.1a2.54,2.54,0,0,0,1.289-.352,2.127,2.127,0,0,0,.883-.914V12.9H62.594q-2.656,0-2.656,1.555a1.316,1.316,0,0,0,.453,1.063A1.742,1.742,0,0,0,61.555,15.9Zm9.969-6.055a4.331,4.331,0,0,0-.711-.055A1.9,1.9,0,0,0,68.883,11v6H67.438V8.547h1.406l.023.977a2.251,2.251,0,0,1,2.016-1.133,1.477,1.477,0,0,1,.641.109Zm.984,2.859a4.968,4.968,0,0,1,.914-3.145,3.151,3.151,0,0,1,4.836-.074l.07-.937h1.32V16.8a3.439,3.439,0,0,1-.973,2.586,3.589,3.589,0,0,1-2.613.945,4.348,4.348,0,0,1-1.789-.391,3.08,3.08,0,0,1-1.336-1.07l.75-.867a2.826,2.826,0,0,0,2.273,1.148,2.214,2.214,0,0,0,1.645-.594,2.269,2.269,0,0,0,.59-1.672v-.727a2.971,2.971,0,0,1-2.367,1,2.887,2.887,0,0,1-2.4-1.2A5.224,5.224,0,0,1,72.508,12.7Zm1.453.164a3.79,3.79,0,0,0,.586,2.246,1.9,1.9,0,0,0,1.641.816A2.117,2.117,0,0,0,78.2,14.688V10.828A2.142,2.142,0,0,0,76.2,9.617a1.921,1.921,0,0,0-1.648.82A4.128,4.128,0,0,0,73.961,12.867Zm7.484-.172a4.993,4.993,0,0,1,.488-2.234A3.643,3.643,0,0,1,83.293,8.93a3.7,3.7,0,0,1,1.988-.539,3.565,3.565,0,0,1,2.793,1.2,4.6,4.6,0,0,1,1.066,3.18v.1a5.036,5.036,0,0,1-.473,2.215,3.589,3.589,0,0,1-1.352,1.527,3.743,3.743,0,0,1-2.02.547,3.556,3.556,0,0,1-2.785-1.2A4.575,4.575,0,0,1,81.445,12.8Zm1.453.172a3.616,3.616,0,0,0,.652,2.258,2.211,2.211,0,0,0,3.5-.012A3.955,3.955,0,0,0,87.7,12.7a3.61,3.61,0,0,0-.66-2.254,2.1,2.1,0,0,0-1.754-.863,2.075,2.075,0,0,0-1.727.852A3.925,3.925,0,0,0,82.9,12.867Zm8.008,6.4-.82-.562a3.77,3.77,0,0,0,.766-2.109v-1.3h1.414v1.133A3.559,3.559,0,0,1,91.879,18,3.7,3.7,0,0,1,90.906,19.266Zm10.656-2.109a3.693,3.693,0,0,1-2.8-1.129,4.19,4.19,0,0,1-1.078-3.02v-.266a5.073,5.073,0,0,1,.48-2.246,3.748,3.748,0,0,1,1.344-1.547,3.378,3.378,0,0,1,1.871-.559,3.166,3.166,0,0,1,2.563,1.086,4.7,4.7,0,0,1,.914,3.109v.6H99.133a3,3,0,0,0,.73,2.02,2.3,2.3,0,0,0,1.777.77,2.517,2.517,0,0,0,1.3-.312,3.259,3.259,0,0,0,.93-.828l.883.688A3.55,3.55,0,0,1,101.563,17.156Zm-.18-7.578a1.928,1.928,0,0,0-1.469.637A3.1,3.1,0,0,0,99.18,12h4.234v-.109a2.753,2.753,0,0,0-.594-1.707A1.815,1.815,0,0,0,101.383,9.578ZM108.1,17h-1.445V5H108.1Zm8.234-10.5V8.547h1.578V9.664h-1.578v5.249a1.173,1.173,0,0,0,.211.763.888.888,0,0,0,.719.254,3.5,3.5,0,0,0,.688-.094V17a4.215,4.215,0,0,1-1.109.155,1.8,1.8,0,0,1-1.461-.586,2.517,2.517,0,0,1-.492-1.664V9.664h-1.539V8.547h1.539V6.5Zm6.773,10.656a3.693,3.693,0,0,1-2.8-1.129,4.19,4.19,0,0,1-1.078-3.02v-.266a5.073,5.073,0,0,1,.48-2.246,3.748,3.748,0,0,1,1.344-1.547,3.378,3.378,0,0,1,1.871-.559,3.166,3.166,0,0,1,2.563,1.086,4.7,4.7,0,0,1,.914,3.109v.6H120.68a3,3,0,0,0,.73,2.02,2.3,2.3,0,0,0,1.777.77,2.517,2.517,0,0,0,1.3-.312,3.259,3.259,0,0,0,.93-.828l.883.688A3.55,3.55,0,0,1,123.109,17.156Zm-.18-7.578a1.928,1.928,0,0,0-1.469.637A3.1,3.1,0,0,0,120.727,12h4.234v-.109a2.753,2.753,0,0,0-.594-1.707A1.815,1.815,0,0,0,122.93,9.578Zm6.508-1.031.039.938a3.122,3.122,0,0,1,2.508-1.094A2.417,2.417,0,0,1,134.4,9.75a3.2,3.2,0,0,1,1.1-.984,3.242,3.242,0,0,1,1.6-.375q2.781,0,2.828,2.945V17h-1.445V11.422a1.941,1.941,0,0,0-.414-1.355,1.823,1.823,0,0,0-1.391-.449,1.917,1.917,0,0,0-1.336.48,1.949,1.949,0,0,0-.617,1.293V17h-1.453V11.461a1.613,1.613,0,0,0-1.8-1.844,1.934,1.934,0,0,0-1.945,1.211V17H128.07V8.547ZM147.32,17a3.036,3.036,0,0,1-.2-.891,3.225,3.225,0,0,1-2.406,1.047,2.984,2.984,0,0,1-2.051-.707,2.287,2.287,0,0,1-.8-1.793,2.39,2.39,0,0,1,1-2.051,4.733,4.733,0,0,1,2.824-.73h1.406v-.664A1.623,1.623,0,0,0,146.641,10a1.821,1.821,0,0,0-1.336-.449,2.107,2.107,0,0,0-1.3.391,1.151,1.151,0,0,0-.523.945h-1.453a2,2,0,0,1,.449-1.223,3.066,3.066,0,0,1,1.219-.934,4.1,4.1,0,0,1,1.691-.344,3.342,3.342,0,0,1,2.289.73,2.635,2.635,0,0,1,.859,2.012v3.891a4.757,4.757,0,0,0,.3,1.852V17Zm-2.4-1.1a2.54,2.54,0,0,0,1.289-.352,2.127,2.127,0,0,0,.883-.914V12.9h-1.133q-2.656,0-2.656,1.555a1.316,1.316,0,0,0,.453,1.063A1.742,1.742,0,0,0,144.922,15.9Zm13.352,1.258a3.693,3.693,0,0,1-2.8-1.129,4.19,4.19,0,0,1-1.078-3.02v-.266a5.073,5.073,0,0,1,.48-2.246,3.748,3.748,0,0,1,1.344-1.547,3.378,3.378,0,0,1,1.871-.559,3.166,3.166,0,0,1,2.563,1.086,4.7,4.7,0,0,1,.914,3.109v.6h-5.727a3,3,0,0,0,.73,2.02,2.3,2.3,0,0,0,1.777.77,2.517,2.517,0,0,0,1.3-.312,3.258,3.258,0,0,0,.93-.828l.883.688A3.55,3.55,0,0,1,158.273,17.156Zm-.18-7.578a1.928,1.928,0,0,0-1.469.637A3.1,3.1,0,0,0,155.891,12h4.234v-.109a2.753,2.753,0,0,0-.594-1.707A1.815,1.815,0,0,0,158.094,9.578ZM164.6,8.547l.039.938a3.122,3.122,0,0,1,2.508-1.094,2.417,2.417,0,0,1,2.414,1.359,3.2,3.2,0,0,1,1.1-.984,3.242,3.242,0,0,1,1.6-.375q2.781,0,2.828,2.945V17h-1.445V11.422a1.941,1.941,0,0,0-.414-1.355,1.823,1.823,0,0,0-1.391-.449,1.917,1.917,0,0,0-1.336.48,1.949,1.949,0,0,0-.617,1.293V17H168.43V11.461a1.613,1.613,0,0,0-1.8-1.844,1.934,1.934,0,0,0-1.945,1.211V17h-1.445V8.547Zm19.8,4.32a5.062,5.062,0,0,1-.883,3.109,2.829,2.829,0,0,1-2.391,1.18,3.1,3.1,0,0,1-2.422-.977v4.07h-1.445V8.547h1.32l.07.938a2.977,2.977,0,0,1,2.453-1.094,2.882,2.882,0,0,1,2.41,1.148,5.117,5.117,0,0,1,.887,3.2Zm-1.445-.164a3.735,3.735,0,0,0-.609-2.258,1.963,1.963,0,0,0-1.672-.828,2.125,2.125,0,0,0-1.969,1.164V14.82a2.129,2.129,0,0,0,1.984,1.156,1.954,1.954,0,0,0,1.652-.824A4.077,4.077,0,0,0,182.961,12.7Zm4.852,4.3h-1.445V8.547h1.445ZM186.25,6.3a.863.863,0,0,1,.215-.594.807.807,0,0,1,.637-.242.819.819,0,0,1,.641.242.854.854,0,0,1,.219.594.826.826,0,0,1-.219.586.834.834,0,0,1-.641.234.821.821,0,0,1-.637-.234A.834.834,0,0,1,186.25,6.3Zm7.383,10.852a3.693,3.693,0,0,1-2.8-1.129,4.19,4.19,0,0,1-1.078-3.02v-.266a5.073,5.073,0,0,1,.48-2.246,3.748,3.748,0,0,1,1.344-1.547,3.378,3.378,0,0,1,1.871-.559,3.166,3.166,0,0,1,2.563,1.086,4.7,4.7,0,0,1,.914,3.109v.6H191.2a3,3,0,0,0,.73,2.02,2.3,2.3,0,0,0,1.777.77,2.517,2.517,0,0,0,1.3-.312,3.258,3.258,0,0,0,.93-.828l.883.688A3.55,3.55,0,0,1,193.633,17.156Zm-.18-7.578a1.928,1.928,0,0,0-1.469.637A3.1,3.1,0,0,0,191.25,12h4.234v-.109a2.753,2.753,0,0,0-.594-1.707A1.815,1.815,0,0,0,193.453,9.578Zm6.508,6.242h4.945V17H198.2V15.938l4.664-6.2h-4.594v-1.2h6.406V9.57ZM211.75,17a3.036,3.036,0,0,1-.2-.891,3.225,3.225,0,0,1-2.406,1.047,2.984,2.984,0,0,1-2.051-.707,2.287,2.287,0,0,1-.8-1.793,2.39,2.39,0,0,1,1-2.051,4.733,4.733,0,0,1,2.824-.73h1.406v-.664A1.623,1.623,0,0,0,211.07,10a1.821,1.821,0,0,0-1.336-.449,2.107,2.107,0,0,0-1.3.391,1.151,1.151,0,0,0-.523.945h-1.453a2,2,0,0,1,.449-1.223,3.066,3.066,0,0,1,1.219-.934,4.1,4.1,0,0,1,1.691-.344,3.342,3.342,0,0,1,2.289.73,2.635,2.635,0,0,1,.859,2.012v3.891a4.757,4.757,0,0,0,.3,1.852V17Zm-2.4-1.1a2.54,2.54,0,0,0,1.289-.352,2.127,2.127,0,0,0,.883-.914V12.9h-1.133q-2.656,0-2.656,1.555a1.316,1.316,0,0,0,.453,1.063A1.742,1.742,0,0,0,209.352,15.9ZM224.414,17a3.036,3.036,0,0,1-.2-.891,3.225,3.225,0,0,1-2.406,1.047,2.984,2.984,0,0,1-2.051-.707,2.287,2.287,0,0,1-.8-1.793,2.39,2.39,0,0,1,1-2.051,4.733,4.733,0,0,1,2.824-.73h1.406v-.664A1.623,1.623,0,0,0,223.734,10a1.821,1.821,0,0,0-1.336-.449,2.107,2.107,0,0,0-1.3.391,1.151,1.151,0,0,0-.523.945h-1.453a2,2,0,0,1,.449-1.223,3.066,3.066,0,0,1,1.219-.934,4.1,4.1,0,0,1,1.691-.344,3.342,3.342,0,0,1,2.289.73,2.635,2.635,0,0,1,.859,2.012v3.891a4.757,4.757,0,0,0,.3,1.852V17Zm-2.4-1.1a2.54,2.54,0,0,0,1.289-.352,2.127,2.127,0,0,0,.883-.914V12.9h-1.133q-2.656,0-2.656,1.555a1.316,1.316,0,0,0,.453,1.063A1.742,1.742,0,0,0,222.016,15.9Zm11.8-9.4V8.547H235.4V9.664H233.82v5.249a1.173,1.173,0,0,0,.211.763.888.888,0,0,0,.719.254,3.5,3.5,0,0,0,.688-.094V17a4.215,4.215,0,0,1-1.109.155,1.8,1.8,0,0,1-1.461-.586,2.517,2.517,0,0,1-.492-1.664V9.664h-1.539V8.547h1.539V6.5Zm6.773,10.656a3.693,3.693,0,0,1-2.8-1.129,4.19,4.19,0,0,1-1.078-3.02v-.266a5.073,5.073,0,0,1,.48-2.246,3.748,3.748,0,0,1,1.344-1.547,3.378,3.378,0,0,1,1.871-.559,3.166,3.166,0,0,1,2.563,1.086,4.7,4.7,0,0,1,.914,3.109v.6h-5.727a3,3,0,0,0,.73,2.02,2.3,2.3,0,0,0,1.777.77,2.517,2.517,0,0,0,1.3-.312,3.258,3.258,0,0,0,.93-.828l.883.688A3.55,3.55,0,0,1,240.594,17.156Zm-.18-7.578a1.928,1.928,0,0,0-1.469.637A3.1,3.1,0,0,0,238.211,12h4.234v-.109a2.753,2.753,0,0,0-.594-1.707A1.815,1.815,0,0,0,240.414,9.578Zm6.516-1.031.047,1.063a3.08,3.08,0,0,1,2.531-1.219q2.68,0,2.7,3.023V17h-1.445V11.406a1.946,1.946,0,0,0-.418-1.352,1.675,1.675,0,0,0-1.277-.437,2.086,2.086,0,0,0-1.234.375,2.546,2.546,0,0,0-.828.984V17h-1.445V8.547ZM257.9,17.156a3.693,3.693,0,0,1-2.8-1.129,4.19,4.19,0,0,1-1.078-3.02v-.266a5.073,5.073,0,0,1,.48-2.246,3.748,3.748,0,0,1,1.344-1.547,3.379,3.379,0,0,1,1.871-.559,3.166,3.166,0,0,1,2.563,1.086,4.7,4.7,0,0,1,.914,3.109v.6h-5.727a3,3,0,0,0,.73,2.02,2.3,2.3,0,0,0,1.777.77,2.517,2.517,0,0,0,1.3-.312,3.259,3.259,0,0,0,.93-.828l.883.688A3.55,3.55,0,0,1,257.9,17.156Zm-.18-7.578a1.928,1.928,0,0,0-1.469.637A3.1,3.1,0,0,0,255.516,12h4.234v-.109a2.753,2.753,0,0,0-.594-1.707A1.815,1.815,0,0,0,257.719,9.578Zm9.234.266a4.331,4.331,0,0,0-.711-.055A1.9,1.9,0,0,0,264.313,11v6h-1.445V8.547h1.406l.023.977a2.251,2.251,0,0,1,2.016-1.133,1.477,1.477,0,0,1,.641.109Zm10.508,6.32a3.07,3.07,0,0,1-2.477.992,2.628,2.628,0,0,1-2.059-.785,3.4,3.4,0,0,1-.715-2.324v-5.5h1.445v5.461q0,1.922,1.563,1.922a2.163,2.163,0,0,0,2.2-1.234V8.547h1.445V17h-1.375Zm4.969-7.617.047,1.063a3.08,3.08,0,0,1,2.531-1.219q2.68,0,2.7,3.023V17h-1.445V11.406a1.946,1.946,0,0,0-.418-1.352,1.675,1.675,0,0,0-1.277-.437,2.086,2.086,0,0,0-1.234.375,2.546,2.546,0,0,0-.828.984V17h-1.445V8.547ZM4.484,39.977a2.082,2.082,0,0,0,1.352-.469,1.649,1.649,0,0,0,.641-1.172H7.844a2.621,2.621,0,0,1-.5,1.383,3.293,3.293,0,0,1-1.23,1.047,3.55,3.55,0,0,1-1.629.391A3.482,3.482,0,0,1,1.738,40a4.59,4.59,0,0,1-1.02-3.152v-.242a5.089,5.089,0,0,1,.453-2.2,3.451,3.451,0,0,1,1.3-1.492,3.7,3.7,0,0,1,2-.531,3.39,3.39,0,0,1,2.363.852,3.043,3.043,0,0,1,1,2.211H6.477a1.992,1.992,0,0,0-.621-1.348,1.932,1.932,0,0,0-1.379-.527,2.023,2.023,0,0,0-1.707.793,3.724,3.724,0,0,0-.605,2.293v.273a3.65,3.65,0,0,0,.6,2.25A2.033,2.033,0,0,0,4.484,39.977Zm4.6-3.281a4.993,4.993,0,0,1,.488-2.234,3.643,3.643,0,0,1,1.359-1.531,3.7,3.7,0,0,1,1.988-.539,3.565,3.565,0,0,1,2.793,1.2,4.6,4.6,0,0,1,1.066,3.18v.1a5.036,5.036,0,0,1-.473,2.215,3.589,3.589,0,0,1-1.352,1.527,3.743,3.743,0,0,1-2.02.547,3.556,3.556,0,0,1-2.785-1.2A4.575,4.575,0,0,1,9.086,36.8Zm1.453.172a3.616,3.616,0,0,0,.652,2.258,2.211,2.211,0,0,0,3.5-.012,3.955,3.955,0,0,0,.648-2.418,3.61,3.61,0,0,0-.66-2.254,2.1,2.1,0,0,0-1.754-.863,2.075,2.075,0,0,0-1.727.852A3.925,3.925,0,0,0,10.539,36.867Zm9.422-4.32.047,1.063a3.08,3.08,0,0,1,2.531-1.219q2.68,0,2.7,3.023V41H23.8V35.406a1.946,1.946,0,0,0-.418-1.352,1.675,1.675,0,0,0-1.277-.437,2.086,2.086,0,0,0-1.234.375,2.546,2.546,0,0,0-.828.984V41H18.594V32.547ZM29.383,30.5v2.047h1.578v1.117H29.383v5.249a1.173,1.173,0,0,0,.211.763.888.888,0,0,0,.719.254A3.5,3.5,0,0,0,31,39.836V41a4.215,4.215,0,0,1-1.109.155,1.8,1.8,0,0,1-1.461-.586,2.517,2.517,0,0,1-.492-1.664V33.664H26.4V32.547h1.539V30.5Zm6.773,10.656a3.693,3.693,0,0,1-2.8-1.129,4.19,4.19,0,0,1-1.078-3.02v-.266a5.073,5.073,0,0,1,.48-2.246,3.748,3.748,0,0,1,1.344-1.547,3.378,3.378,0,0,1,1.871-.559,3.166,3.166,0,0,1,2.563,1.086,4.7,4.7,0,0,1,.914,3.109v.6H33.727a3,3,0,0,0,.73,2.02,2.3,2.3,0,0,0,1.777.77,2.517,2.517,0,0,0,1.3-.312,3.258,3.258,0,0,0,.93-.828l.883.688A3.55,3.55,0,0,1,36.156,41.156Zm-.18-7.578a1.928,1.928,0,0,0-1.469.637A3.1,3.1,0,0,0,33.773,36h4.234v-.109a2.753,2.753,0,0,0-.594-1.707A1.815,1.815,0,0,0,35.977,33.578Zm6.516-1.031.047,1.063a3.08,3.08,0,0,1,2.531-1.219q2.68,0,2.7,3.023V41H46.328V35.406a1.946,1.946,0,0,0-.418-1.352,1.675,1.675,0,0,0-1.277-.437,2.086,2.086,0,0,0-1.234.375,2.546,2.546,0,0,0-.828.984V41H41.125V32.547ZM51.523,41H50.078V32.547h1.445ZM49.961,30.3a.863.863,0,0,1,.215-.594.807.807,0,0,1,.637-.242.819.819,0,0,1,.641.242.854.854,0,0,1,.219.594.826.826,0,0,1-.219.586.834.834,0,0,1-.641.234.821.821,0,0,1-.637-.234A.834.834,0,0,1,49.961,30.3Zm3.523,6.4a4.952,4.952,0,0,1,.922-3.129,3.137,3.137,0,0,1,4.766-.168V29h1.445V41H59.289l-.07-.906A2.943,2.943,0,0,1,56.8,41.156a2.887,2.887,0,0,1-2.395-1.2,5.008,5.008,0,0,1-.926-3.141Zm1.445.164a3.749,3.749,0,0,0,.594,2.25,1.919,1.919,0,0,0,1.641.813A2.108,2.108,0,0,0,59.172,38.7V34.813a2.125,2.125,0,0,0-1.992-1.2,1.929,1.929,0,0,0-1.656.82A4.128,4.128,0,0,0,54.93,36.867Zm7.547-.172a4.993,4.993,0,0,1,.488-2.234,3.643,3.643,0,0,1,1.359-1.531,3.7,3.7,0,0,1,1.988-.539,3.565,3.565,0,0,1,2.793,1.2,4.6,4.6,0,0,1,1.066,3.18v.1a5.036,5.036,0,0,1-.473,2.215,3.589,3.589,0,0,1-1.352,1.527,3.743,3.743,0,0,1-2.02.547,3.556,3.556,0,0,1-2.785-1.2A4.575,4.575,0,0,1,62.477,36.8Zm1.453.172a3.616,3.616,0,0,0,.652,2.258,2.211,2.211,0,0,0,3.5-.012,3.955,3.955,0,0,0,.648-2.418,3.61,3.61,0,0,0-.66-2.254,2.1,2.1,0,0,0-1.754-.863,2.075,2.075,0,0,0-1.727.852A3.925,3.925,0,0,0,63.93,36.867ZM77.3,32.547l.039.938a3.122,3.122,0,0,1,2.508-1.094,2.417,2.417,0,0,1,2.414,1.359,3.2,3.2,0,0,1,1.1-.984,3.242,3.242,0,0,1,1.6-.375q2.781,0,2.828,2.945V41H86.344V35.422a1.941,1.941,0,0,0-.414-1.355,1.823,1.823,0,0,0-1.391-.449,1.916,1.916,0,0,0-1.336.48,1.949,1.949,0,0,0-.617,1.293V41H81.133V35.461a1.613,1.613,0,0,0-1.8-1.844,1.934,1.934,0,0,0-1.945,1.211V41H75.938V32.547ZM95.188,41a3.036,3.036,0,0,1-.2-.891,3.225,3.225,0,0,1-2.406,1.047,2.984,2.984,0,0,1-2.051-.707,2.288,2.288,0,0,1-.8-1.793,2.39,2.39,0,0,1,1-2.051,4.733,4.733,0,0,1,2.824-.73h1.406v-.664A1.623,1.623,0,0,0,94.508,34a1.821,1.821,0,0,0-1.336-.449,2.107,2.107,0,0,0-1.3.391,1.151,1.151,0,0,0-.523.945H89.9a2,2,0,0,1,.449-1.223,3.066,3.066,0,0,1,1.219-.934,4.1,4.1,0,0,1,1.691-.344,3.342,3.342,0,0,1,2.289.73,2.635,2.635,0,0,1,.859,2.012v3.891a4.757,4.757,0,0,0,.3,1.852V41Zm-2.4-1.1a2.54,2.54,0,0,0,1.289-.352,2.127,2.127,0,0,0,.883-.914V36.9H93.828q-2.656,0-2.656,1.555a1.316,1.316,0,0,0,.453,1.063A1.742,1.742,0,0,0,92.789,39.9ZM94.125,29h1.75l-2.094,2.3-1.164,0Zm9.469,9.758a1.064,1.064,0,0,0-.441-.91,4.249,4.249,0,0,0-1.539-.559,7.277,7.277,0,0,1-1.742-.562,2.479,2.479,0,0,1-.953-.781,1.869,1.869,0,0,1-.309-1.078,2.193,2.193,0,0,1,.879-1.758,3.432,3.432,0,0,1,2.246-.719,3.532,3.532,0,0,1,2.332.742,2.357,2.357,0,0,1,.895,1.9h-1.453a1.3,1.3,0,0,0-.5-1.023,1.888,1.888,0,0,0-1.27-.43,1.976,1.976,0,0,0-1.234.344,1.082,1.082,0,0,0-.445.9.877.877,0,0,0,.414.789,5.1,5.1,0,0,0,1.5.508,7.8,7.8,0,0,1,1.754.578,2.558,2.558,0,0,1,1,.809,1.988,1.988,0,0,1,.324,1.152,2.163,2.163,0,0,1-.906,1.816,3.8,3.8,0,0,1-2.352.684,4.257,4.257,0,0,1-1.8-.359,2.922,2.922,0,0,1-1.223-1A2.42,2.42,0,0,1,98.32,38.4h1.445a1.5,1.5,0,0,0,.582,1.152,2.258,2.258,0,0,0,1.434.426,2.331,2.331,0,0,0,1.316-.332A1.02,1.02,0,0,0,103.594,38.758Zm10.68,1.219a2.082,2.082,0,0,0,1.352-.469,1.649,1.649,0,0,0,.641-1.172h1.367a2.621,2.621,0,0,1-.5,1.383,3.293,3.293,0,0,1-1.23,1.047,3.55,3.55,0,0,1-1.629.391A3.482,3.482,0,0,1,111.527,40a4.59,4.59,0,0,1-1.02-3.152v-.242a5.089,5.089,0,0,1,.453-2.2,3.451,3.451,0,0,1,1.3-1.492,3.7,3.7,0,0,1,2-.531,3.39,3.39,0,0,1,2.363.852,3.043,3.043,0,0,1,1,2.211h-1.367a1.992,1.992,0,0,0-.621-1.348,1.932,1.932,0,0,0-1.379-.527,2.023,2.023,0,0,0-1.707.793,3.724,3.724,0,0,0-.605,2.293v.273a3.65,3.65,0,0,0,.6,2.25A2.033,2.033,0,0,0,114.273,39.977Zm4.6-3.281a4.993,4.993,0,0,1,.488-2.234,3.643,3.643,0,0,1,1.359-1.531,3.7,3.7,0,0,1,1.988-.539,3.565,3.565,0,0,1,2.793,1.2,4.6,4.6,0,0,1,1.066,3.18v.1a5.036,5.036,0,0,1-.473,2.215,3.589,3.589,0,0,1-1.352,1.527,3.743,3.743,0,0,1-2.02.547,3.556,3.556,0,0,1-2.785-1.2,4.575,4.575,0,0,1-1.066-3.164Zm1.453.172a3.616,3.616,0,0,0,.652,2.258,2.211,2.211,0,0,0,3.5-.012,3.955,3.955,0,0,0,.648-2.418,3.61,3.61,0,0,0-.66-2.254,2.1,2.1,0,0,0-1.754-.863,2.075,2.075,0,0,0-1.727.852A3.925,3.925,0,0,0,120.328,36.867Zm9.414-4.32.039.938a3.122,3.122,0,0,1,2.508-1.094A2.417,2.417,0,0,1,134.7,33.75a3.2,3.2,0,0,1,1.1-.984,3.242,3.242,0,0,1,1.6-.375q2.781,0,2.828,2.945V41h-1.445V35.422a1.941,1.941,0,0,0-.414-1.355,1.823,1.823,0,0,0-1.391-.449,1.917,1.917,0,0,0-1.336.48,1.949,1.949,0,0,0-.617,1.293V41H133.57V35.461a1.613,1.613,0,0,0-1.8-1.844,1.934,1.934,0,0,0-1.945,1.211V41h-1.445V32.547Zm19.8,4.32a5.062,5.062,0,0,1-.883,3.109,2.829,2.829,0,0,1-2.391,1.18,3.1,3.1,0,0,1-2.422-.977v4.07h-1.445v-11.7h1.32l.07.938a2.977,2.977,0,0,1,2.453-1.094,2.882,2.882,0,0,1,2.41,1.148,5.117,5.117,0,0,1,.887,3.2ZM148.1,36.7a3.735,3.735,0,0,0-.609-2.258,1.963,1.963,0,0,0-1.672-.828,2.125,2.125,0,0,0-1.969,1.164V38.82a2.129,2.129,0,0,0,1.984,1.156,1.954,1.954,0,0,0,1.652-.824A4.077,4.077,0,0,0,148.1,36.7Zm4.852,4.3h-1.445V29h1.445Zm5.82.156a3.693,3.693,0,0,1-2.8-1.129,4.19,4.19,0,0,1-1.078-3.02v-.266a5.073,5.073,0,0,1,.48-2.246,3.748,3.748,0,0,1,1.344-1.547,3.378,3.378,0,0,1,1.871-.559,3.166,3.166,0,0,1,2.563,1.086,4.7,4.7,0,0,1,.914,3.109v.6h-5.727a3,3,0,0,0,.73,2.02,2.3,2.3,0,0,0,1.777.77,2.517,2.517,0,0,0,1.3-.312,3.258,3.258,0,0,0,.93-.828l.883.688A3.55,3.55,0,0,1,158.773,41.156Zm-.18-7.578a1.928,1.928,0,0,0-1.469.637A3.1,3.1,0,0,0,156.391,36h4.234v-.109a2.753,2.753,0,0,0-.594-1.707A1.815,1.815,0,0,0,158.594,33.578Zm6.641-1.031v9.43q0,2.438-2.211,2.438a2.7,2.7,0,0,1-.883-.14V43.125a2.794,2.794,0,0,0,.656.063.982.982,0,0,0,.738-.262,1.3,1.3,0,0,0,.254-.911V32.547ZM163.641,30.3a.867.867,0,0,1,.215-.59.79.79,0,0,1,.629-.246.819.819,0,0,1,.641.242.854.854,0,0,1,.219.594.826.826,0,0,1-.219.586.834.834,0,0,1-.641.234.808.808,0,0,1-.633-.234A.843.843,0,0,1,163.641,30.3ZM167.18,36.7a4.993,4.993,0,0,1,.488-2.234,3.642,3.642,0,0,1,1.359-1.531,3.7,3.7,0,0,1,1.988-.539,3.565,3.565,0,0,1,2.793,1.2,4.6,4.6,0,0,1,1.066,3.18v.1a5.036,5.036,0,0,1-.473,2.215,3.589,3.589,0,0,1-1.352,1.527,3.743,3.743,0,0,1-2.02.547,3.556,3.556,0,0,1-2.785-1.2A4.575,4.575,0,0,1,167.18,36.8Zm1.453.172a3.616,3.616,0,0,0,.652,2.258,2.211,2.211,0,0,0,3.5-.012,3.954,3.954,0,0,0,.648-2.418,3.61,3.61,0,0,0-.66-2.254,2.1,2.1,0,0,0-1.754-.863,2.075,2.075,0,0,0-1.727.852A3.925,3.925,0,0,0,168.633,36.867Zm14.781,2.016,1.969-6.336h1.547l-3.4,9.758q-.789,2.109-2.508,2.109l-.273-.023-.539-.1V43.117l.391.031a1.923,1.923,0,0,0,1.145-.3,2.148,2.148,0,0,0,.676-1.086l.32-.859-3.016-8.359H181.3ZM193.438,41a3.036,3.036,0,0,1-.2-.891,3.225,3.225,0,0,1-2.406,1.047,2.984,2.984,0,0,1-2.051-.707,2.287,2.287,0,0,1-.8-1.793,2.39,2.39,0,0,1,1-2.051,4.733,4.733,0,0,1,2.824-.73h1.406v-.664A1.623,1.623,0,0,0,192.758,34a1.821,1.821,0,0,0-1.336-.449,2.107,2.107,0,0,0-1.3.391,1.151,1.151,0,0,0-.523.945h-1.453a2,2,0,0,1,.449-1.223,3.066,3.066,0,0,1,1.219-.934,4.1,4.1,0,0,1,1.691-.344,3.342,3.342,0,0,1,2.289.73,2.635,2.635,0,0,1,.859,2.012v3.891a4.757,4.757,0,0,0,.3,1.852V41Zm-2.4-1.1a2.54,2.54,0,0,0,1.289-.352,2.127,2.127,0,0,0,.883-.914V36.9h-1.133q-2.656,0-2.656,1.555a1.316,1.316,0,0,0,.453,1.063A1.742,1.742,0,0,0,191.039,39.9Zm9.492-3.2a4.961,4.961,0,0,1,.914-3.152,3.226,3.226,0,0,1,4.82-.152l.063-.852h1.328v11.7h-1.445V40.219a3.033,3.033,0,0,1-2.328.938,2.915,2.915,0,0,1-2.441-1.191,5.072,5.072,0,0,1-.91-3.16Zm1.445.164a3.761,3.761,0,0,0,.613,2.281,1.951,1.951,0,0,0,1.652.828,2.164,2.164,0,0,0,1.969-1.141V34.7a2.171,2.171,0,0,0-1.953-1.117,1.965,1.965,0,0,0-1.664.832A4.094,4.094,0,0,0,201.977,36.867Zm13.219,3.3a3.07,3.07,0,0,1-2.477.992,2.628,2.628,0,0,1-2.059-.785,3.4,3.4,0,0,1-.715-2.324v-5.5h1.445v5.461q0,1.922,1.563,1.922a2.163,2.163,0,0,0,2.2-1.234V32.547H216.6V41h-1.375Zm7.109.992a3.693,3.693,0,0,1-2.8-1.129,4.19,4.19,0,0,1-1.078-3.02v-.266a5.073,5.073,0,0,1,.48-2.246,3.748,3.748,0,0,1,1.344-1.547,3.378,3.378,0,0,1,1.871-.559,3.166,3.166,0,0,1,2.563,1.086,4.7,4.7,0,0,1,.914,3.109v.6h-5.727a3,3,0,0,0,.73,2.02,2.3,2.3,0,0,0,1.777.77,2.517,2.517,0,0,0,1.3-.312,3.258,3.258,0,0,0,.93-.828l.883.688A3.55,3.55,0,0,1,222.3,41.156Zm-.18-7.578a1.928,1.928,0,0,0-1.469.637A3.1,3.1,0,0,0,219.922,36h4.234v-.109a2.753,2.753,0,0,0-.594-1.707A1.815,1.815,0,0,0,222.125,33.578Zm12.617,7.578a3.693,3.693,0,0,1-2.8-1.129,4.19,4.19,0,0,1-1.078-3.02v-.266a5.073,5.073,0,0,1,.48-2.246,3.748,3.748,0,0,1,1.344-1.547,3.378,3.378,0,0,1,1.871-.559,3.166,3.166,0,0,1,2.563,1.086,4.7,4.7,0,0,1,.914,3.109v.6h-5.727a3,3,0,0,0,.73,2.02,2.3,2.3,0,0,0,1.777.77,2.517,2.517,0,0,0,1.3-.312,3.258,3.258,0,0,0,.93-.828l.883.688A3.55,3.55,0,0,1,234.742,41.156Zm-.18-7.578a1.928,1.928,0,0,0-1.469.637A3.1,3.1,0,0,0,232.359,36h4.234v-.109A2.753,2.753,0,0,0,236,34.184,1.815,1.815,0,0,0,234.563,33.578Zm10.07,5.18a1.064,1.064,0,0,0-.441-.91,4.249,4.249,0,0,0-1.539-.559,7.277,7.277,0,0,1-1.742-.562,2.479,2.479,0,0,1-.953-.781,1.869,1.869,0,0,1-.309-1.078,2.193,2.193,0,0,1,.879-1.758,3.432,3.432,0,0,1,2.246-.719,3.532,3.532,0,0,1,2.332.742,2.357,2.357,0,0,1,.895,1.9h-1.453a1.3,1.3,0,0,0-.5-1.023,1.888,1.888,0,0,0-1.27-.43,1.976,1.976,0,0,0-1.234.344,1.082,1.082,0,0,0-.445.9.877.877,0,0,0,.414.789,5.1,5.1,0,0,0,1.5.508,7.8,7.8,0,0,1,1.754.578,2.558,2.558,0,0,1,1,.809,1.988,1.988,0,0,1,.324,1.152,2.163,2.163,0,0,1-.906,1.816,3.8,3.8,0,0,1-2.352.684,4.257,4.257,0,0,1-1.8-.359,2.922,2.922,0,0,1-1.223-1,2.42,2.42,0,0,1-.441-1.395H240.8a1.5,1.5,0,0,0,.582,1.152,2.258,2.258,0,0,0,1.434.426,2.331,2.331,0,0,0,1.316-.332A1.02,1.02,0,0,0,244.633,38.758ZM257.141,41a3.036,3.036,0,0,1-.2-.891,3.225,3.225,0,0,1-2.406,1.047,2.984,2.984,0,0,1-2.051-.707,2.287,2.287,0,0,1-.8-1.793,2.39,2.39,0,0,1,1-2.051,4.733,4.733,0,0,1,2.824-.73h1.406v-.664A1.623,1.623,0,0,0,256.461,34a1.821,1.821,0,0,0-1.336-.449,2.107,2.107,0,0,0-1.3.391,1.151,1.151,0,0,0-.523.945h-1.453a2,2,0,0,1,.449-1.223,3.066,3.066,0,0,1,1.219-.934,4.1,4.1,0,0,1,1.691-.344,3.342,3.342,0,0,1,2.289.73,2.635,2.635,0,0,1,.859,2.012v3.891a4.757,4.757,0,0,0,.3,1.852V41Zm-2.4-1.1a2.54,2.54,0,0,0,1.289-.352,2.126,2.126,0,0,0,.883-.914V36.9h-1.133q-2.656,0-2.656,1.555a1.316,1.316,0,0,0,.453,1.063A1.742,1.742,0,0,0,254.742,39.9ZM262.2,41H260.75V29H262.2Zm5.7-1.023a2.082,2.082,0,0,0,1.352-.469,1.649,1.649,0,0,0,.641-1.172h1.367a2.621,2.621,0,0,1-.5,1.383,3.293,3.293,0,0,1-1.23,1.047,3.55,3.55,0,0,1-1.629.391A3.482,3.482,0,0,1,265.152,40a4.59,4.59,0,0,1-1.02-3.152v-.242a5.089,5.089,0,0,1,.453-2.2,3.451,3.451,0,0,1,1.3-1.492,3.7,3.7,0,0,1,2-.531,3.39,3.39,0,0,1,2.363.852,3.043,3.043,0,0,1,1,2.211h-1.367a1.992,1.992,0,0,0-.621-1.348,1.932,1.932,0,0,0-1.379-.527,2.023,2.023,0,0,0-1.707.793,3.724,3.724,0,0,0-.605,2.293v.273a3.65,3.65,0,0,0,.6,2.25A2.033,2.033,0,0,0,267.9,39.977ZM278.1,41a3.036,3.036,0,0,1-.2-.891,3.225,3.225,0,0,1-2.406,1.047,2.984,2.984,0,0,1-2.051-.707,2.288,2.288,0,0,1-.8-1.793,2.39,2.39,0,0,1,1-2.051,4.733,4.733,0,0,1,2.824-.73h1.406v-.664A1.623,1.623,0,0,0,277.422,34a1.821,1.821,0,0,0-1.336-.449,2.108,2.108,0,0,0-1.3.391,1.151,1.151,0,0,0-.523.945h-1.453a2,2,0,0,1,.449-1.223,3.066,3.066,0,0,1,1.219-.934,4.1,4.1,0,0,1,1.691-.344,3.342,3.342,0,0,1,2.289.73,2.635,2.635,0,0,1,.859,2.012v3.891a4.757,4.757,0,0,0,.3,1.852V41Zm-2.4-1.1a2.54,2.54,0,0,0,1.289-.352,2.126,2.126,0,0,0,.883-.914V36.9h-1.133q-2.656,0-2.656,1.555a1.316,1.316,0,0,0,.453,1.063A1.742,1.742,0,0,0,275.7,39.9Zm7.25-7.352L283,33.609a3.08,3.08,0,0,1,2.531-1.219q2.68,0,2.7,3.023V41h-1.445V35.406a1.946,1.946,0,0,0-.418-1.352,1.675,1.675,0,0,0-1.277-.437,2.086,2.086,0,0,0-1.234.375,2.546,2.546,0,0,0-.828.984V41h-1.445V32.547Zm8.82,7.273h4.945V41h-6.711V39.938l4.664-6.2h-4.594v-1.2h6.406V33.57ZM303.563,41a3.036,3.036,0,0,1-.2-.891,3.225,3.225,0,0,1-2.406,1.047,2.984,2.984,0,0,1-2.051-.707,2.288,2.288,0,0,1-.8-1.793,2.39,2.39,0,0,1,1-2.051,4.733,4.733,0,0,1,2.824-.73h1.406v-.664A1.623,1.623,0,0,0,302.883,34a1.821,1.821,0,0,0-1.336-.449,2.108,2.108,0,0,0-1.3.391,1.151,1.151,0,0,0-.523.945h-1.453a2,2,0,0,1,.449-1.223,3.066,3.066,0,0,1,1.219-.934,4.1,4.1,0,0,1,1.691-.344,3.342,3.342,0,0,1,2.289.73,2.635,2.635,0,0,1,.859,2.012v3.891a4.757,4.757,0,0,0,.3,1.852V41Zm-2.4-1.1a2.54,2.54,0,0,0,1.289-.352,2.126,2.126,0,0,0,.883-.914V36.9H302.2q-2.656,0-2.656,1.555A1.316,1.316,0,0,0,300,39.516,1.742,1.742,0,0,0,301.164,39.9Zm5.531-3.2a4.952,4.952,0,0,1,.922-3.129,3.137,3.137,0,0,1,4.766-.168V29h1.445V41H312.5l-.07-.906a2.943,2.943,0,0,1-2.414,1.063,2.887,2.887,0,0,1-2.395-1.2,5.008,5.008,0,0,1-.926-3.141Zm1.445.164a3.749,3.749,0,0,0,.594,2.25,1.92,1.92,0,0,0,1.641.813,2.109,2.109,0,0,0,2.008-1.234V34.813a2.125,2.125,0,0,0-1.992-1.2,1.929,1.929,0,0,0-1.656.82A4.128,4.128,0,0,0,308.141,36.867ZM321.289,41a3.036,3.036,0,0,1-.2-.891,3.225,3.225,0,0,1-2.406,1.047,2.984,2.984,0,0,1-2.051-.707,2.288,2.288,0,0,1-.8-1.793,2.39,2.39,0,0,1,1-2.051,4.733,4.733,0,0,1,2.824-.73h1.406v-.664A1.623,1.623,0,0,0,320.609,34a1.821,1.821,0,0,0-1.336-.449,2.108,2.108,0,0,0-1.3.391,1.151,1.151,0,0,0-.523.945H316a2,2,0,0,1,.449-1.223,3.066,3.066,0,0,1,1.219-.934,4.1,4.1,0,0,1,1.691-.344,3.342,3.342,0,0,1,2.289.73,2.635,2.635,0,0,1,.859,2.012v3.891a4.757,4.757,0,0,0,.3,1.852V41Zm-2.4-1.1a2.54,2.54,0,0,0,1.289-.352,2.126,2.126,0,0,0,.883-.914V36.9H319.93q-2.656,0-2.656,1.555a1.316,1.316,0,0,0,.453,1.063A1.742,1.742,0,0,0,318.891,39.9ZM8.234,60.867a5.062,5.062,0,0,1-.883,3.109,2.829,2.829,0,0,1-2.391,1.18,3.1,3.1,0,0,1-2.422-.977v4.07H1.094v-11.7h1.32l.07.938a2.977,2.977,0,0,1,2.453-1.094,2.882,2.882,0,0,1,2.41,1.148,5.117,5.117,0,0,1,.887,3.2ZM6.789,60.7a3.735,3.735,0,0,0-.609-2.258,1.963,1.963,0,0,0-1.672-.828,2.125,2.125,0,0,0-1.969,1.164V62.82a2.129,2.129,0,0,0,1.984,1.156,1.954,1.954,0,0,0,1.652-.824A4.077,4.077,0,0,0,6.789,60.7Zm2.9-.008a4.993,4.993,0,0,1,.488-2.234,3.643,3.643,0,0,1,1.359-1.531,3.7,3.7,0,0,1,1.988-.539,3.565,3.565,0,0,1,2.793,1.2,4.6,4.6,0,0,1,1.066,3.18v.1a5.036,5.036,0,0,1-.473,2.215,3.589,3.589,0,0,1-1.352,1.527,3.743,3.743,0,0,1-2.02.547,3.556,3.556,0,0,1-2.785-1.2A4.575,4.575,0,0,1,9.688,60.8Zm1.453.172a3.616,3.616,0,0,0,.652,2.258,2.211,2.211,0,0,0,3.5-.012,3.955,3.955,0,0,0,.648-2.418,3.61,3.61,0,0,0-.66-2.254,2.1,2.1,0,0,0-1.754-.863,2.075,2.075,0,0,0-1.727.852A3.925,3.925,0,0,0,11.141,60.867Zm12.141-3.023a4.331,4.331,0,0,0-.711-.055A1.9,1.9,0,0,0,20.641,59v6H19.2V56.547H20.6l.023.977a2.251,2.251,0,0,1,2.016-1.133,1.477,1.477,0,0,1,.641.109Zm8.8,7.313a3.693,3.693,0,0,1-2.8-1.129,4.19,4.19,0,0,1-1.078-3.02v-.266a5.073,5.073,0,0,1,.48-2.246,3.748,3.748,0,0,1,1.344-1.547,3.378,3.378,0,0,1,1.871-.559,3.166,3.166,0,0,1,2.563,1.086,4.7,4.7,0,0,1,.914,3.109v.6H29.648a3,3,0,0,0,.73,2.02,2.3,2.3,0,0,0,1.777.77,2.517,2.517,0,0,0,1.3-.312,3.258,3.258,0,0,0,.93-.828l.883.688A3.55,3.55,0,0,1,32.078,65.156Zm-.18-7.578a1.928,1.928,0,0,0-1.469.637A3.1,3.1,0,0,0,29.7,60H33.93v-.109a2.753,2.753,0,0,0-.594-1.707A1.815,1.815,0,0,0,31.9,57.578ZM38.617,65H37.172V53h1.445ZM42.5,65H41.055V53H42.5Zm1.93-4.3a4.993,4.993,0,0,1,.488-2.234,3.643,3.643,0,0,1,1.359-1.531,3.7,3.7,0,0,1,1.988-.539,3.565,3.565,0,0,1,2.793,1.2,4.6,4.6,0,0,1,1.066,3.18v.1a5.036,5.036,0,0,1-.473,2.215A3.589,3.589,0,0,1,50.3,64.609a3.743,3.743,0,0,1-2.02.547,3.556,3.556,0,0,1-2.785-1.2A4.575,4.575,0,0,1,44.43,60.8Zm1.453.172a3.616,3.616,0,0,0,.652,2.258,2.211,2.211,0,0,0,3.5-.012A3.955,3.955,0,0,0,50.68,60.7a3.61,3.61,0,0,0-.66-2.254,2.1,2.1,0,0,0-1.754-.863,2.075,2.075,0,0,0-1.727.852A3.925,3.925,0,0,0,45.883,60.867Zm12.977,1.891a1.064,1.064,0,0,0-.441-.91,4.249,4.249,0,0,0-1.539-.559,7.277,7.277,0,0,1-1.742-.562,2.479,2.479,0,0,1-.953-.781,1.869,1.869,0,0,1-.309-1.078,2.193,2.193,0,0,1,.879-1.758A3.432,3.432,0,0,1,57,56.391a3.532,3.532,0,0,1,2.332.742,2.357,2.357,0,0,1,.895,1.9H58.773a1.3,1.3,0,0,0-.5-1.023,1.888,1.888,0,0,0-1.27-.43,1.976,1.976,0,0,0-1.234.344,1.082,1.082,0,0,0-.445.9.877.877,0,0,0,.414.789,5.1,5.1,0,0,0,1.5.508,7.8,7.8,0,0,1,1.754.578,2.558,2.558,0,0,1,1,.809,1.988,1.988,0,0,1,.324,1.152,2.163,2.163,0,0,1-.906,1.816,3.8,3.8,0,0,1-2.352.684,4.257,4.257,0,0,1-1.8-.359,2.922,2.922,0,0,1-1.223-1,2.42,2.42,0,0,1-.441-1.395h1.445a1.5,1.5,0,0,0,.582,1.152,2.258,2.258,0,0,0,1.434.426,2.331,2.331,0,0,0,1.316-.332A1.02,1.02,0,0,0,58.859,62.758Zm10.8,2.4a3.693,3.693,0,0,1-2.8-1.129,4.19,4.19,0,0,1-1.078-3.02v-.266a5.073,5.073,0,0,1,.48-2.246,3.748,3.748,0,0,1,1.344-1.547,3.378,3.378,0,0,1,1.871-.559,3.166,3.166,0,0,1,2.563,1.086,4.7,4.7,0,0,1,.914,3.109v.6H67.227a3,3,0,0,0,.73,2.02,2.3,2.3,0,0,0,1.777.77,2.517,2.517,0,0,0,1.3-.312,3.259,3.259,0,0,0,.93-.828l.883.688A3.55,3.55,0,0,1,69.656,65.156Zm-.18-7.578a1.928,1.928,0,0,0-1.469.637A3.1,3.1,0,0,0,67.273,60h4.234v-.109a2.753,2.753,0,0,0-.594-1.707A1.815,1.815,0,0,0,69.477,57.578ZM80.156,65H78.711V56.547h1.445ZM78.594,54.3a.863.863,0,0,1,.215-.594.807.807,0,0,1,.637-.242.819.819,0,0,1,.641.242.854.854,0,0,1,.219.594.826.826,0,0,1-.219.586.834.834,0,0,1-.641.234.821.821,0,0,1-.637-.234A.834.834,0,0,1,78.594,54.3Zm5.242,2.242.047,1.063a3.08,3.08,0,0,1,2.531-1.219q2.68,0,2.7,3.023V65H87.672V59.406a1.946,1.946,0,0,0-.418-1.352,1.675,1.675,0,0,0-1.277-.437,2.086,2.086,0,0,0-1.234.375,2.546,2.546,0,0,0-.828.984V65H82.469V56.547ZM93.258,54.5v2.047h1.578v1.117H93.258v5.249a1.173,1.173,0,0,0,.211.763.888.888,0,0,0,.719.254,3.5,3.5,0,0,0,.688-.094V65a4.215,4.215,0,0,1-1.109.155A1.8,1.8,0,0,1,92.3,64.57a2.517,2.517,0,0,1-.492-1.664V57.664H90.273V56.547h1.539V54.5Zm6.773,10.656a3.693,3.693,0,0,1-2.8-1.129,4.19,4.19,0,0,1-1.078-3.02v-.266a5.073,5.073,0,0,1,.48-2.246,3.748,3.748,0,0,1,1.344-1.547,3.378,3.378,0,0,1,1.871-.559,3.166,3.166,0,0,1,2.563,1.086,4.7,4.7,0,0,1,.914,3.109v.6H97.6a3,3,0,0,0,.73,2.02,2.3,2.3,0,0,0,1.777.77,2.517,2.517,0,0,0,1.3-.312,3.259,3.259,0,0,0,.93-.828l.883.688A3.55,3.55,0,0,1,100.031,65.156Zm-.18-7.578a1.928,1.928,0,0,0-1.469.637A3.1,3.1,0,0,0,97.648,60h4.234v-.109a2.753,2.753,0,0,0-.594-1.707A1.815,1.815,0,0,0,99.852,57.578Zm6.516-1.031.047,1.063a3.08,3.08,0,0,1,2.531-1.219q2.68,0,2.7,3.023V65H110.2V59.406a1.946,1.946,0,0,0-.418-1.352,1.675,1.675,0,0,0-1.277-.437,2.086,2.086,0,0,0-1.234.375,2.546,2.546,0,0,0-.828.984V65H105V56.547Zm9.422-2.047v2.047h1.578v1.117h-1.578v5.249a1.173,1.173,0,0,0,.211.763.888.888,0,0,0,.719.254,3.5,3.5,0,0,0,.688-.094V65a4.215,4.215,0,0,1-1.109.155,1.8,1.8,0,0,1-1.461-.586,2.517,2.517,0,0,1-.492-1.664V57.664H112.8V56.547h1.539V54.5ZM124.273,65a3.036,3.036,0,0,1-.2-.891,3.225,3.225,0,0,1-2.406,1.047,2.984,2.984,0,0,1-2.051-.707,2.288,2.288,0,0,1-.8-1.793,2.39,2.39,0,0,1,1-2.051,4.733,4.733,0,0,1,2.824-.73h1.406v-.664A1.623,1.623,0,0,0,123.594,58a1.821,1.821,0,0,0-1.336-.449,2.107,2.107,0,0,0-1.3.391,1.151,1.151,0,0,0-.523.945h-1.453a2,2,0,0,1,.449-1.223,3.066,3.066,0,0,1,1.219-.934,4.1,4.1,0,0,1,1.691-.344,3.342,3.342,0,0,1,2.289.73,2.635,2.635,0,0,1,.859,2.012v3.891a4.757,4.757,0,0,0,.3,1.852V65Zm-2.4-1.1a2.54,2.54,0,0,0,1.289-.352,2.127,2.127,0,0,0,.883-.914V60.9h-1.133q-2.656,0-2.656,1.555a1.316,1.316,0,0,0,.453,1.063A1.742,1.742,0,0,0,121.875,63.9Zm7.25-7.352.047,1.063a3.08,3.08,0,0,1,2.531-1.219q2.68,0,2.7,3.023V65h-1.445V59.406a1.946,1.946,0,0,0-.418-1.352,1.675,1.675,0,0,0-1.277-.437,2.086,2.086,0,0,0-1.234.375,2.546,2.546,0,0,0-.828.984V65h-1.445V56.547ZM145.766,65a3.036,3.036,0,0,1-.2-.891,3.225,3.225,0,0,1-2.406,1.047,2.984,2.984,0,0,1-2.051-.707,2.287,2.287,0,0,1-.8-1.793,2.39,2.39,0,0,1,1-2.051,4.733,4.733,0,0,1,2.824-.73h1.406v-.664A1.623,1.623,0,0,0,145.086,58a1.821,1.821,0,0,0-1.336-.449,2.107,2.107,0,0,0-1.3.391,1.151,1.151,0,0,0-.523.945h-1.453a2,2,0,0,1,.449-1.223,3.066,3.066,0,0,1,1.219-.934,4.1,4.1,0,0,1,1.691-.344,3.342,3.342,0,0,1,2.289.73,2.635,2.635,0,0,1,.859,2.012v3.891a4.757,4.757,0,0,0,.3,1.852V65Zm-2.4-1.1a2.54,2.54,0,0,0,1.289-.352,2.127,2.127,0,0,0,.883-.914V60.9h-1.133q-2.656,0-2.656,1.555a1.316,1.316,0,0,0,.453,1.063A1.742,1.742,0,0,0,143.367,63.9Zm13.039-3.031a5.026,5.026,0,0,1-.891,3.113,2.846,2.846,0,0,1-2.391,1.176,2.947,2.947,0,0,1-2.477-1.133l-.07.977H149.25V53H150.7v4.477a2.93,2.93,0,0,1,2.414-1.086,2.863,2.863,0,0,1,2.418,1.164,5.177,5.177,0,0,1,.879,3.188Zm-1.445-.164a3.906,3.906,0,0,0-.57-2.281,1.888,1.888,0,0,0-1.641-.8,2.122,2.122,0,0,0-2.055,1.328V62.6a2.181,2.181,0,0,0,2.07,1.328,1.878,1.878,0,0,0,1.617-.8A4.153,4.153,0,0,0,154.961,60.7Zm8.484,3.461a3.07,3.07,0,0,1-2.477.992,2.628,2.628,0,0,1-2.059-.785,3.4,3.4,0,0,1-.715-2.324v-5.5h1.445v5.461q0,1.922,1.563,1.922a2.163,2.163,0,0,0,2.2-1.234V56.547h1.445V65h-1.375Zm8.523-1.406a1.064,1.064,0,0,0-.441-.91,4.249,4.249,0,0,0-1.539-.559,7.277,7.277,0,0,1-1.742-.562,2.479,2.479,0,0,1-.953-.781,1.869,1.869,0,0,1-.309-1.078,2.193,2.193,0,0,1,.879-1.758,3.432,3.432,0,0,1,2.246-.719,3.532,3.532,0,0,1,2.332.742,2.357,2.357,0,0,1,.895,1.9h-1.453a1.3,1.3,0,0,0-.5-1.023,1.888,1.888,0,0,0-1.27-.43,1.976,1.976,0,0,0-1.234.344,1.082,1.082,0,0,0-.445.9.877.877,0,0,0,.414.789,5.1,5.1,0,0,0,1.5.508,7.8,7.8,0,0,1,1.754.578,2.558,2.558,0,0,1,1,.809,1.988,1.988,0,0,1,.324,1.152,2.163,2.163,0,0,1-.906,1.816,3.8,3.8,0,0,1-2.352.684,4.257,4.257,0,0,1-1.8-.359,2.922,2.922,0,0,1-1.223-1A2.42,2.42,0,0,1,166.7,62.4h1.445a1.5,1.5,0,0,0,.582,1.152,2.258,2.258,0,0,0,1.434.426,2.331,2.331,0,0,0,1.316-.332A1.02,1.02,0,0,0,171.969,62.758ZM180.516,65a3.036,3.036,0,0,1-.2-.891,3.225,3.225,0,0,1-2.406,1.047,2.984,2.984,0,0,1-2.051-.707,2.287,2.287,0,0,1-.8-1.793,2.39,2.39,0,0,1,1-2.051,4.733,4.733,0,0,1,2.824-.73h1.406v-.664A1.623,1.623,0,0,0,179.836,58a1.821,1.821,0,0,0-1.336-.449,2.107,2.107,0,0,0-1.3.391,1.151,1.151,0,0,0-.523.945h-1.453a2,2,0,0,1,.449-1.223,3.066,3.066,0,0,1,1.219-.934,4.1,4.1,0,0,1,1.691-.344,3.342,3.342,0,0,1,2.289.73,2.635,2.635,0,0,1,.859,2.012v3.891a4.757,4.757,0,0,0,.3,1.852V65Zm-2.4-1.1a2.54,2.54,0,0,0,1.289-.352,2.127,2.127,0,0,0,.883-.914V60.9h-1.133q-2.656,0-2.656,1.555a1.316,1.316,0,0,0,.453,1.063A1.742,1.742,0,0,0,178.117,63.9Zm9.969-6.055a4.331,4.331,0,0,0-.711-.055A1.9,1.9,0,0,0,185.445,59v6H184V56.547h1.406l.023.977a2.251,2.251,0,0,1,2.016-1.133,1.477,1.477,0,0,1,.641.109ZM198.3,62.758a1.064,1.064,0,0,0-.441-.91,4.249,4.249,0,0,0-1.539-.559,7.277,7.277,0,0,1-1.742-.562,2.479,2.479,0,0,1-.953-.781,1.869,1.869,0,0,1-.309-1.078,2.193,2.193,0,0,1,.879-1.758,3.432,3.432,0,0,1,2.246-.719,3.532,3.532,0,0,1,2.332.742,2.357,2.357,0,0,1,.895,1.9h-1.453a1.3,1.3,0,0,0-.5-1.023,1.888,1.888,0,0,0-1.27-.43,1.976,1.976,0,0,0-1.234.344,1.082,1.082,0,0,0-.445.9.877.877,0,0,0,.414.789,5.1,5.1,0,0,0,1.5.508,7.8,7.8,0,0,1,1.754.578,2.558,2.558,0,0,1,1,.809,1.988,1.988,0,0,1,.324,1.152,2.163,2.163,0,0,1-.906,1.816,3.8,3.8,0,0,1-2.352.684,4.257,4.257,0,0,1-1.8-.359,2.922,2.922,0,0,1-1.223-1,2.42,2.42,0,0,1-.441-1.395h1.445a1.5,1.5,0,0,0,.582,1.152,2.258,2.258,0,0,0,1.434.426,2.331,2.331,0,0,0,1.316-.332A1.02,1.02,0,0,0,198.3,62.758Zm6.836,2.4a3.693,3.693,0,0,1-2.8-1.129,4.19,4.19,0,0,1-1.078-3.02v-.266a5.073,5.073,0,0,1,.48-2.246,3.748,3.748,0,0,1,1.344-1.547,3.378,3.378,0,0,1,1.871-.559,3.166,3.166,0,0,1,2.563,1.086,4.7,4.7,0,0,1,.914,3.109v.6H202.7a3,3,0,0,0,.73,2.02,2.3,2.3,0,0,0,1.777.77,2.517,2.517,0,0,0,1.3-.312,3.258,3.258,0,0,0,.93-.828l.883.688A3.55,3.55,0,0,1,205.133,65.156Zm-.18-7.578a1.928,1.928,0,0,0-1.469.637A3.1,3.1,0,0,0,202.75,60h4.234v-.109a2.753,2.753,0,0,0-.594-1.707A1.815,1.815,0,0,0,204.953,57.578Zm7.984,2.055,1.875-3.086H216.5l-2.766,4.18L216.586,65h-1.672l-1.953-3.164L211.008,65h-1.68l2.852-4.273-2.766-4.18h1.672Zm10.313,4.531a3.07,3.07,0,0,1-2.477.992,2.628,2.628,0,0,1-2.059-.785A3.4,3.4,0,0,1,218,62.047v-5.5h1.445v5.461q0,1.922,1.563,1.922a2.163,2.163,0,0,0,2.2-1.234V56.547h1.445V65h-1.375Zm8.82.836a3.036,3.036,0,0,1-.2-.891,3.225,3.225,0,0,1-2.406,1.047,2.984,2.984,0,0,1-2.051-.707,2.287,2.287,0,0,1-.8-1.793,2.39,2.39,0,0,1,1-2.051,4.733,4.733,0,0,1,2.824-.73h1.406v-.664A1.623,1.623,0,0,0,231.391,58a1.821,1.821,0,0,0-1.336-.449,2.107,2.107,0,0,0-1.3.391,1.151,1.151,0,0,0-.523.945h-1.453a2,2,0,0,1,.449-1.223,3.066,3.066,0,0,1,1.219-.934,4.1,4.1,0,0,1,1.691-.344,3.342,3.342,0,0,1,2.289.73,2.635,2.635,0,0,1,.859,2.012v3.891a4.757,4.757,0,0,0,.3,1.852V65Zm-2.4-1.1a2.54,2.54,0,0,0,1.289-.352,2.127,2.127,0,0,0,.883-.914V60.9h-1.133q-2.656,0-2.656,1.555a1.316,1.316,0,0,0,.453,1.063A1.742,1.742,0,0,0,229.672,63.9Zm7.453,1.1H235.68V53h1.445Zm3.672-8.453.039.938a3.122,3.122,0,0,1,2.508-1.094,2.417,2.417,0,0,1,2.414,1.359,3.2,3.2,0,0,1,1.1-.984,3.242,3.242,0,0,1,1.6-.375q2.781,0,2.828,2.945V65h-1.445V59.422a1.941,1.941,0,0,0-.414-1.355,1.823,1.823,0,0,0-1.391-.449,1.917,1.917,0,0,0-1.336.48,1.949,1.949,0,0,0-.617,1.293V65h-1.453V59.461a1.613,1.613,0,0,0-1.8-1.844,1.934,1.934,0,0,0-1.945,1.211V65H239.43V56.547Zm16.172,8.609a3.693,3.693,0,0,1-2.8-1.129,4.19,4.19,0,0,1-1.078-3.02v-.266a5.073,5.073,0,0,1,.48-2.246,3.748,3.748,0,0,1,1.344-1.547,3.378,3.378,0,0,1,1.871-.559,3.166,3.166,0,0,1,2.563,1.086,4.7,4.7,0,0,1,.914,3.109v.6h-5.727a3,3,0,0,0,.73,2.02,2.3,2.3,0,0,0,1.777.77,2.517,2.517,0,0,0,1.3-.312,3.259,3.259,0,0,0,.93-.828l.883.688A3.55,3.55,0,0,1,256.969,65.156Zm-.18-7.578a1.928,1.928,0,0,0-1.469.637A3.1,3.1,0,0,0,254.586,60h4.234v-.109a2.753,2.753,0,0,0-.594-1.707A1.815,1.815,0,0,0,256.789,57.578Zm6.516-1.031.047,1.063a3.08,3.08,0,0,1,2.531-1.219q2.68,0,2.7,3.023V65h-1.445V59.406a1.946,1.946,0,0,0-.418-1.352,1.675,1.675,0,0,0-1.277-.437,2.086,2.086,0,0,0-1.234.375,2.546,2.546,0,0,0-.828.984V65h-1.445V56.547Zm9.422-2.047v2.047H274.3v1.117h-1.578v5.249a1.173,1.173,0,0,0,.211.763.888.888,0,0,0,.719.254,3.5,3.5,0,0,0,.688-.094V65a4.215,4.215,0,0,1-1.109.155,1.8,1.8,0,0,1-1.461-.586,2.517,2.517,0,0,1-.492-1.664V57.664h-1.539V56.547h1.539V54.5ZM279.5,65.156a3.693,3.693,0,0,1-2.8-1.129,4.19,4.19,0,0,1-1.078-3.02v-.266a5.073,5.073,0,0,1,.48-2.246,3.748,3.748,0,0,1,1.344-1.547,3.379,3.379,0,0,1,1.871-.559,3.166,3.166,0,0,1,2.563,1.086,4.7,4.7,0,0,1,.914,3.109v.6H277.07a3,3,0,0,0,.73,2.02,2.3,2.3,0,0,0,1.777.77,2.517,2.517,0,0,0,1.3-.312,3.259,3.259,0,0,0,.93-.828l.883.688A3.55,3.55,0,0,1,279.5,65.156Zm-.18-7.578a1.928,1.928,0,0,0-1.469.637A3.1,3.1,0,0,0,277.117,60h4.234v-.109a2.753,2.753,0,0,0-.594-1.707A1.815,1.815,0,0,0,279.32,57.578Zm8.758,3.125A4.952,4.952,0,0,1,289,57.574a3.137,3.137,0,0,1,4.766-.168V53h1.445V65h-1.328l-.07-.906a2.943,2.943,0,0,1-2.414,1.063,2.887,2.887,0,0,1-2.395-1.2,5.008,5.008,0,0,1-.926-3.141Zm1.445.164a3.749,3.749,0,0,0,.594,2.25,1.92,1.92,0,0,0,1.641.813,2.109,2.109,0,0,0,2.008-1.234V58.813a2.125,2.125,0,0,0-1.992-1.2,1.929,1.929,0,0,0-1.656.82A4.128,4.128,0,0,0,289.523,60.867Zm11.438,4.289a3.693,3.693,0,0,1-2.8-1.129,4.19,4.19,0,0,1-1.078-3.02v-.266a5.073,5.073,0,0,1,.48-2.246,3.748,3.748,0,0,1,1.344-1.547,3.379,3.379,0,0,1,1.871-.559,3.166,3.166,0,0,1,2.563,1.086,4.7,4.7,0,0,1,.914,3.109v.6h-5.727a3,3,0,0,0,.73,2.02,2.3,2.3,0,0,0,1.777.77,2.517,2.517,0,0,0,1.3-.312,3.259,3.259,0,0,0,.93-.828l.883.688A3.55,3.55,0,0,1,300.961,65.156Zm-.18-7.578a1.928,1.928,0,0,0-1.469.637A3.1,3.1,0,0,0,298.578,60h4.234v-.109a2.753,2.753,0,0,0-.594-1.707A1.815,1.815,0,0,0,300.781,57.578ZM4.6,89.156a3.693,3.693,0,0,1-2.8-1.129,4.19,4.19,0,0,1-1.078-3.02v-.266a5.073,5.073,0,0,1,.48-2.246,3.748,3.748,0,0,1,1.344-1.547,3.378,3.378,0,0,1,1.871-.559,3.166,3.166,0,0,1,2.563,1.086A4.7,4.7,0,0,1,7.9,84.586v.6H2.172a3,3,0,0,0,.73,2.02,2.3,2.3,0,0,0,1.777.77,2.517,2.517,0,0,0,1.3-.312,3.259,3.259,0,0,0,.93-.828l.883.688A3.55,3.55,0,0,1,4.6,89.156Zm-.18-7.578a1.928,1.928,0,0,0-1.469.637A3.1,3.1,0,0,0,2.219,84H6.453v-.109a2.753,2.753,0,0,0-.594-1.707A1.815,1.815,0,0,0,4.422,81.578ZM11.141,89H9.7V77h1.445Zm3.883,0H13.578V77h1.445Zm7.531,0a3.036,3.036,0,0,1-.2-.891,3.225,3.225,0,0,1-2.406,1.047,2.984,2.984,0,0,1-2.051-.707,2.287,2.287,0,0,1-.8-1.793,2.39,2.39,0,0,1,1-2.051,4.733,4.733,0,0,1,2.824-.73h1.406v-.664A1.623,1.623,0,0,0,21.875,82a1.821,1.821,0,0,0-1.336-.449,2.108,2.108,0,0,0-1.3.391,1.151,1.151,0,0,0-.523.945H17.266a2,2,0,0,1,.449-1.223,3.066,3.066,0,0,1,1.219-.934,4.1,4.1,0,0,1,1.691-.344,3.342,3.342,0,0,1,2.289.73,2.635,2.635,0,0,1,.859,2.012v3.891a4.757,4.757,0,0,0,.3,1.852V89Zm-2.4-1.1a2.54,2.54,0,0,0,1.289-.352,2.127,2.127,0,0,0,.883-.914V84.9H21.2q-2.656,0-2.656,1.555a1.316,1.316,0,0,0,.453,1.063A1.742,1.742,0,0,0,20.156,87.9Zm5.836,3.367-.82-.562a3.77,3.77,0,0,0,.766-2.109v-1.3h1.414v1.133A3.559,3.559,0,0,1,26.965,90,3.7,3.7,0,0,1,25.992,91.266ZM34.711,89H33.266V77h1.445Zm3.883,0H37.148V77h1.445Zm5.82.156a3.693,3.693,0,0,1-2.8-1.129,4.19,4.19,0,0,1-1.078-3.02v-.266a5.073,5.073,0,0,1,.48-2.246,3.748,3.748,0,0,1,1.344-1.547,3.378,3.378,0,0,1,1.871-.559A3.166,3.166,0,0,1,46.8,81.477a4.7,4.7,0,0,1,.914,3.109v.6H41.984a3,3,0,0,0,.73,2.02,2.3,2.3,0,0,0,1.777.77,2.517,2.517,0,0,0,1.3-.312,3.259,3.259,0,0,0,.93-.828l.883.688A3.55,3.55,0,0,1,44.414,89.156Zm-.18-7.578a1.928,1.928,0,0,0-1.469.637A3.1,3.1,0,0,0,42.031,84h4.234v-.109a2.753,2.753,0,0,0-.594-1.707A1.815,1.815,0,0,0,44.234,81.578Zm4.8,3.125a4.968,4.968,0,0,1,.914-3.145,3.151,3.151,0,0,1,4.836-.074l.07-.937h1.32V88.8a3.439,3.439,0,0,1-.973,2.586,3.589,3.589,0,0,1-2.613.945,4.348,4.348,0,0,1-1.789-.391,3.08,3.08,0,0,1-1.336-1.07l.75-.867a2.826,2.826,0,0,0,2.273,1.148,2.214,2.214,0,0,0,1.645-.594,2.269,2.269,0,0,0,.59-1.672v-.727a2.971,2.971,0,0,1-2.367,1,2.887,2.887,0,0,1-2.4-1.2A5.224,5.224,0,0,1,49.039,84.7Zm1.453.164a3.79,3.79,0,0,0,.586,2.246,1.9,1.9,0,0,0,1.641.816,2.117,2.117,0,0,0,2.008-1.242V82.828a2.142,2.142,0,0,0-1.992-1.211,1.921,1.921,0,0,0-1.648.82A4.128,4.128,0,0,0,50.492,84.867ZM63.578,89a3.036,3.036,0,0,1-.2-.891,3.225,3.225,0,0,1-2.406,1.047,2.984,2.984,0,0,1-2.051-.707,2.287,2.287,0,0,1-.8-1.793,2.39,2.39,0,0,1,1-2.051,4.733,4.733,0,0,1,2.824-.73h1.406v-.664A1.623,1.623,0,0,0,62.9,82a1.821,1.821,0,0,0-1.336-.449,2.108,2.108,0,0,0-1.3.391,1.151,1.151,0,0,0-.523.945H58.289a2,2,0,0,1,.449-1.223,3.066,3.066,0,0,1,1.219-.934,4.1,4.1,0,0,1,1.691-.344,3.342,3.342,0,0,1,2.289.73,2.635,2.635,0,0,1,.859,2.012v3.891a4.757,4.757,0,0,0,.3,1.852V89Zm-2.4-1.1a2.54,2.54,0,0,0,1.289-.352,2.127,2.127,0,0,0,.883-.914V84.9H62.219q-2.656,0-2.656,1.555a1.316,1.316,0,0,0,.453,1.063A1.742,1.742,0,0,0,61.18,87.9Zm7.25-7.352.047,1.063a3.08,3.08,0,0,1,2.531-1.219q2.68,0,2.7,3.023V89H72.266V83.406a1.946,1.946,0,0,0-.418-1.352,1.675,1.675,0,0,0-1.277-.437,2.086,2.086,0,0,0-1.234.375,2.546,2.546,0,0,0-.828.984V89H67.063V80.547ZM75.539,84.7a4.952,4.952,0,0,1,.922-3.129,3.137,3.137,0,0,1,4.766-.168V77h1.445V89H81.344l-.07-.906a2.943,2.943,0,0,1-2.414,1.063,2.887,2.887,0,0,1-2.395-1.2,5.008,5.008,0,0,1-.926-3.141Zm1.445.164a3.749,3.749,0,0,0,.594,2.25,1.92,1.92,0,0,0,1.641.813A2.109,2.109,0,0,0,81.227,86.7V82.813a2.125,2.125,0,0,0-1.992-1.2,1.929,1.929,0,0,0-1.656.82A4.128,4.128,0,0,0,76.984,84.867Zm7.547-.172a4.993,4.993,0,0,1,.488-2.234,3.643,3.643,0,0,1,1.359-1.531,3.7,3.7,0,0,1,1.988-.539,3.565,3.565,0,0,1,2.793,1.2,4.6,4.6,0,0,1,1.066,3.18v.1a5.036,5.036,0,0,1-.473,2.215A3.589,3.589,0,0,1,90.4,88.609a3.743,3.743,0,0,1-2.02.547,3.556,3.556,0,0,1-2.785-1.2A4.575,4.575,0,0,1,84.531,84.8Zm1.453.172a3.616,3.616,0,0,0,.652,2.258,2.211,2.211,0,0,0,3.5-.012,3.955,3.955,0,0,0,.648-2.418,3.61,3.61,0,0,0-.66-2.254,2.1,2.1,0,0,0-1.754-.863,2.075,2.075,0,0,0-1.727.852A3.925,3.925,0,0,0,85.984,84.867ZM103.219,89a3.036,3.036,0,0,1-.2-.891,3.225,3.225,0,0,1-2.406,1.047,2.984,2.984,0,0,1-2.051-.707,2.287,2.287,0,0,1-.8-1.793,2.39,2.39,0,0,1,1-2.051,4.733,4.733,0,0,1,2.824-.73h1.406v-.664A1.623,1.623,0,0,0,102.539,82a1.821,1.821,0,0,0-1.336-.449,2.108,2.108,0,0,0-1.3.391,1.151,1.151,0,0,0-.523.945H97.93a2,2,0,0,1,.449-1.223,3.066,3.066,0,0,1,1.219-.934,4.1,4.1,0,0,1,1.691-.344,3.342,3.342,0,0,1,2.289.73,2.635,2.635,0,0,1,.859,2.012v3.891a4.757,4.757,0,0,0,.3,1.852V89Zm-2.4-1.1a2.54,2.54,0,0,0,1.289-.352,2.127,2.127,0,0,0,.883-.914V84.9h-1.133q-2.656,0-2.656,1.555a1.316,1.316,0,0,0,.453,1.063A1.742,1.742,0,0,0,100.82,87.9Zm15.063.266a3.07,3.07,0,0,1-2.477.992,2.628,2.628,0,0,1-2.059-.785,3.4,3.4,0,0,1-.715-2.324v-5.5h1.445v5.461q0,1.922,1.563,1.922a2.163,2.163,0,0,0,2.2-1.234V80.547h1.445V89h-1.375Zm4.969-7.617.047,1.063a3.08,3.08,0,0,1,2.531-1.219q2.68,0,2.7,3.023V89h-1.445V83.406a1.946,1.946,0,0,0-.418-1.352,1.675,1.675,0,0,0-1.277-.437,2.086,2.086,0,0,0-1.234.375,2.546,2.546,0,0,0-.828.984V89h-1.445V80.547ZM133.844,89H132.4V77h1.445Zm7.531-.836a3.07,3.07,0,0,1-2.477.992,2.628,2.628,0,0,1-2.059-.785,3.4,3.4,0,0,1-.715-2.324v-5.5h1.445v5.461q0,1.922,1.563,1.922a2.163,2.163,0,0,0,2.2-1.234V80.547h1.445V89h-1.375Zm3.258-3.461a4.968,4.968,0,0,1,.914-3.145,3.151,3.151,0,0,1,4.836-.074l.07-.937h1.32V88.8a3.439,3.439,0,0,1-.973,2.586,3.589,3.589,0,0,1-2.613.945,4.348,4.348,0,0,1-1.789-.391,3.08,3.08,0,0,1-1.336-1.07l.75-.867a2.826,2.826,0,0,0,2.273,1.148,2.214,2.214,0,0,0,1.645-.594,2.269,2.269,0,0,0,.59-1.672v-.727a2.971,2.971,0,0,1-2.367,1,2.887,2.887,0,0,1-2.4-1.2A5.224,5.224,0,0,1,144.633,84.7Zm1.453.164a3.79,3.79,0,0,0,.586,2.246,1.9,1.9,0,0,0,1.641.816,2.117,2.117,0,0,0,2.008-1.242V82.828a2.142,2.142,0,0,0-1.992-1.211,1.921,1.921,0,0,0-1.648.82A4.128,4.128,0,0,0,146.086,84.867ZM159.172,89a3.036,3.036,0,0,1-.2-.891,3.225,3.225,0,0,1-2.406,1.047,2.984,2.984,0,0,1-2.051-.707,2.287,2.287,0,0,1-.8-1.793,2.39,2.39,0,0,1,1-2.051,4.733,4.733,0,0,1,2.824-.73h1.406v-.664A1.623,1.623,0,0,0,158.492,82a1.821,1.821,0,0,0-1.336-.449,2.108,2.108,0,0,0-1.3.391,1.151,1.151,0,0,0-.523.945h-1.453a2,2,0,0,1,.449-1.223,3.066,3.066,0,0,1,1.219-.934,4.1,4.1,0,0,1,1.691-.344,3.342,3.342,0,0,1,2.289.73,2.635,2.635,0,0,1,.859,2.012v3.891a4.757,4.757,0,0,0,.3,1.852V89Zm-2.4-1.1a2.54,2.54,0,0,0,1.289-.352,2.127,2.127,0,0,0,.883-.914V84.9h-1.133q-2.656,0-2.656,1.555a1.316,1.316,0,0,0,.453,1.063A1.742,1.742,0,0,0,156.773,87.9Zm9.969-6.055a4.331,4.331,0,0,0-.711-.055A1.9,1.9,0,0,0,164.1,83v6h-1.445V80.547h1.406l.023.977a2.251,2.251,0,0,1,2.016-1.133,1.477,1.477,0,0,1,.641.109ZM171.68,84.7a4.952,4.952,0,0,1,.922-3.129,3.137,3.137,0,0,1,4.766-.168V77h1.445V89h-1.328l-.07-.906A2.943,2.943,0,0,1,175,89.156a2.887,2.887,0,0,1-2.395-1.2,5.008,5.008,0,0,1-.926-3.141Zm1.445.164a3.749,3.749,0,0,0,.594,2.25,1.919,1.919,0,0,0,1.641.813,2.108,2.108,0,0,0,2.008-1.234V82.813a2.125,2.125,0,0,0-1.992-1.2,1.929,1.929,0,0,0-1.656.82A4.128,4.128,0,0,0,173.125,84.867Zm11.438,4.289a3.693,3.693,0,0,1-2.8-1.129,4.19,4.19,0,0,1-1.078-3.02v-.266a5.073,5.073,0,0,1,.48-2.246,3.748,3.748,0,0,1,1.344-1.547,3.378,3.378,0,0,1,1.871-.559,3.166,3.166,0,0,1,2.563,1.086,4.7,4.7,0,0,1,.914,3.109v.6h-5.727a3,3,0,0,0,.73,2.02,2.3,2.3,0,0,0,1.777.77,2.517,2.517,0,0,0,1.3-.312,3.258,3.258,0,0,0,.93-.828l.883.688A3.55,3.55,0,0,1,184.563,89.156Zm-.18-7.578a1.928,1.928,0,0,0-1.469.637A3.1,3.1,0,0,0,182.18,84h4.234v-.109a2.753,2.753,0,0,0-.594-1.707A1.815,1.815,0,0,0,184.383,81.578Zm10.07,5.18a1.064,1.064,0,0,0-.441-.91,4.249,4.249,0,0,0-1.539-.559,7.277,7.277,0,0,1-1.742-.562,2.479,2.479,0,0,1-.953-.781,1.869,1.869,0,0,1-.309-1.078,2.193,2.193,0,0,1,.879-1.758,3.432,3.432,0,0,1,2.246-.719,3.532,3.532,0,0,1,2.332.742,2.357,2.357,0,0,1,.895,1.9h-1.453a1.3,1.3,0,0,0-.5-1.023,1.888,1.888,0,0,0-1.27-.43,1.976,1.976,0,0,0-1.234.344,1.082,1.082,0,0,0-.445.9.877.877,0,0,0,.414.789,5.1,5.1,0,0,0,1.5.508,7.8,7.8,0,0,1,1.754.578,2.558,2.558,0,0,1,1,.809,1.988,1.988,0,0,1,.324,1.152,2.163,2.163,0,0,1-.906,1.816,3.8,3.8,0,0,1-2.352.684,4.257,4.257,0,0,1-1.8-.359,2.922,2.922,0,0,1-1.223-1,2.42,2.42,0,0,1-.441-1.395h1.445a1.5,1.5,0,0,0,.582,1.152,2.258,2.258,0,0,0,1.434.426,2.331,2.331,0,0,0,1.316-.332A1.02,1.02,0,0,0,194.453,86.758ZM197.4,84.7a4.993,4.993,0,0,1,.488-2.234,3.642,3.642,0,0,1,1.359-1.531,3.7,3.7,0,0,1,1.988-.539,3.565,3.565,0,0,1,2.793,1.2,4.6,4.6,0,0,1,1.066,3.18v.1a5.036,5.036,0,0,1-.473,2.215,3.589,3.589,0,0,1-1.352,1.527,3.743,3.743,0,0,1-2.02.547,3.556,3.556,0,0,1-2.785-1.2A4.575,4.575,0,0,1,197.4,84.8Zm1.453.172a3.616,3.616,0,0,0,.652,2.258,2.211,2.211,0,0,0,3.5-.012,3.954,3.954,0,0,0,.648-2.418,3.61,3.61,0,0,0-.66-2.254,2.1,2.1,0,0,0-1.754-.863,2.075,2.075,0,0,0-1.727.852A3.925,3.925,0,0,0,198.852,84.867ZM208.477,89h-1.445V77h1.445Zm7.531,0a3.036,3.036,0,0,1-.2-.891,3.225,3.225,0,0,1-2.406,1.047,2.984,2.984,0,0,1-2.051-.707,2.287,2.287,0,0,1-.8-1.793,2.39,2.39,0,0,1,1-2.051,4.733,4.733,0,0,1,2.824-.73h1.406v-.664A1.623,1.623,0,0,0,215.328,82a1.821,1.821,0,0,0-1.336-.449,2.108,2.108,0,0,0-1.3.391,1.151,1.151,0,0,0-.523.945h-1.453a2,2,0,0,1,.449-1.223,3.066,3.066,0,0,1,1.219-.934,4.1,4.1,0,0,1,1.691-.344,3.342,3.342,0,0,1,2.289.73,2.635,2.635,0,0,1,.859,2.012v3.891a4.757,4.757,0,0,0,.3,1.852V89Zm-2.4-1.1a2.54,2.54,0,0,0,1.289-.352,2.127,2.127,0,0,0,.883-.914V84.9h-1.133q-2.656,0-2.656,1.555a1.316,1.316,0,0,0,.453,1.063A1.742,1.742,0,0,0,213.609,87.9Zm5.531-3.2a4.952,4.952,0,0,1,.922-3.129,3.137,3.137,0,0,1,4.766-.168V77h1.445V89h-1.328l-.07-.906a2.943,2.943,0,0,1-2.414,1.063,2.887,2.887,0,0,1-2.395-1.2,5.008,5.008,0,0,1-.926-3.141Zm1.445.164a3.749,3.749,0,0,0,.594,2.25,1.919,1.919,0,0,0,1.641.813,2.108,2.108,0,0,0,2.008-1.234V82.813a2.125,2.125,0,0,0-1.992-1.2,1.929,1.929,0,0,0-1.656.82A4.128,4.128,0,0,0,220.586,84.867Zm7.547-.172a4.993,4.993,0,0,1,.488-2.234,3.642,3.642,0,0,1,1.359-1.531,3.7,3.7,0,0,1,1.988-.539,3.565,3.565,0,0,1,2.793,1.2,4.6,4.6,0,0,1,1.066,3.18v.1a5.036,5.036,0,0,1-.473,2.215A3.589,3.589,0,0,1,234,88.609a3.743,3.743,0,0,1-2.02.547,3.556,3.556,0,0,1-2.785-1.2,4.575,4.575,0,0,1-1.066-3.164Zm1.453.172a3.616,3.616,0,0,0,.652,2.258,2.211,2.211,0,0,0,3.5-.012,3.954,3.954,0,0,0,.648-2.418,3.61,3.61,0,0,0-.66-2.254,2.1,2.1,0,0,0-1.754-.863,2.075,2.075,0,0,0-1.727.852A3.925,3.925,0,0,0,229.586,84.867Zm19.156,0a5.062,5.062,0,0,1-.883,3.109,2.829,2.829,0,0,1-2.391,1.18,3.1,3.1,0,0,1-2.422-.977v4.07H241.6v-11.7h1.32l.07.938a2.977,2.977,0,0,1,2.453-1.094,2.882,2.882,0,0,1,2.41,1.148,5.117,5.117,0,0,1,.887,3.2ZM247.3,84.7a3.735,3.735,0,0,0-.609-2.258,1.963,1.963,0,0,0-1.672-.828,2.125,2.125,0,0,0-1.969,1.164V86.82a2.129,2.129,0,0,0,1.984,1.156,1.954,1.954,0,0,0,1.652-.824A4.077,4.077,0,0,0,247.3,84.7Zm2.9-.008a4.993,4.993,0,0,1,.488-2.234,3.642,3.642,0,0,1,1.359-1.531,3.7,3.7,0,0,1,1.988-.539,3.565,3.565,0,0,1,2.793,1.2,4.6,4.6,0,0,1,1.066,3.18v.1a5.037,5.037,0,0,1-.473,2.215,3.589,3.589,0,0,1-1.352,1.527,3.743,3.743,0,0,1-2.02.547,3.556,3.556,0,0,1-2.785-1.2A4.575,4.575,0,0,1,250.2,84.8Zm1.453.172a3.616,3.616,0,0,0,.652,2.258,2.211,2.211,0,0,0,3.5-.012,3.955,3.955,0,0,0,.648-2.418,3.61,3.61,0,0,0-.66-2.254,2.1,2.1,0,0,0-1.754-.863,2.075,2.075,0,0,0-1.727.852A3.925,3.925,0,0,0,251.648,84.867Zm12.141-3.023a4.331,4.331,0,0,0-.711-.055A1.9,1.9,0,0,0,261.148,83v6H259.7V80.547h1.406l.023.977a2.251,2.251,0,0,1,2.016-1.133,1.477,1.477,0,0,1,.641.109Zm8.8,7.313a3.693,3.693,0,0,1-2.8-1.129,4.19,4.19,0,0,1-1.078-3.02v-.266a5.073,5.073,0,0,1,.48-2.246,3.748,3.748,0,0,1,1.344-1.547,3.378,3.378,0,0,1,1.871-.559,3.166,3.166,0,0,1,2.563,1.086,4.7,4.7,0,0,1,.914,3.109v.6h-5.727a3,3,0,0,0,.73,2.02,2.3,2.3,0,0,0,1.777.77,2.517,2.517,0,0,0,1.3-.312,3.259,3.259,0,0,0,.93-.828l.883.688A3.55,3.55,0,0,1,272.586,89.156Zm-.18-7.578a1.928,1.928,0,0,0-1.469.637A3.1,3.1,0,0,0,270.2,84h4.234v-.109a2.753,2.753,0,0,0-.594-1.707A1.815,1.815,0,0,0,272.406,81.578ZM279.125,89H277.68V77h1.445Zm5.922-4.3a4.961,4.961,0,0,1,.914-3.152,3.226,3.226,0,0,1,4.82-.152l.063-.852h1.328v11.7h-1.445V88.219a3.033,3.033,0,0,1-2.328.938,2.915,2.915,0,0,1-2.441-1.191,5.072,5.072,0,0,1-.91-3.16Zm1.445.164a3.761,3.761,0,0,0,.613,2.281,1.951,1.951,0,0,0,1.652.828,2.164,2.164,0,0,0,1.969-1.141V82.7a2.171,2.171,0,0,0-1.953-1.117,1.965,1.965,0,0,0-1.664.832A4.094,4.094,0,0,0,286.492,84.867Zm13.219,3.3a3.07,3.07,0,0,1-2.477.992,2.628,2.628,0,0,1-2.059-.785,3.4,3.4,0,0,1-.715-2.324v-5.5h1.445v5.461q0,1.922,1.563,1.922a2.163,2.163,0,0,0,2.2-1.234V80.547h1.445V89h-1.375Zm7.109.992a3.693,3.693,0,0,1-2.8-1.129,4.19,4.19,0,0,1-1.078-3.02v-.266a5.073,5.073,0,0,1,.48-2.246,3.748,3.748,0,0,1,1.344-1.547,3.378,3.378,0,0,1,1.871-.559,3.166,3.166,0,0,1,2.563,1.086,4.7,4.7,0,0,1,.914,3.109v.6h-5.727a3,3,0,0,0,.73,2.02,2.3,2.3,0,0,0,1.777.77,2.517,2.517,0,0,0,1.3-.312,3.259,3.259,0,0,0,.93-.828l.883.688A3.55,3.55,0,0,1,306.82,89.156Zm-.18-7.578a1.928,1.928,0,0,0-1.469.637A3.1,3.1,0,0,0,304.438,84h4.234v-.109a2.753,2.753,0,0,0-.594-1.707A1.815,1.815,0,0,0,306.641,81.578ZM3.055,102.5v2.047H4.633v1.117H3.055v5.249a1.173,1.173,0,0,0,.211.763.888.888,0,0,0,.719.254,3.5,3.5,0,0,0,.688-.094V113a4.215,4.215,0,0,1-1.109.155A1.8,1.8,0,0,1,2.1,112.57a2.517,2.517,0,0,1-.492-1.664v-5.242H.07v-1.117H1.609V102.5Zm8.484,9.664a3.07,3.07,0,0,1-2.477.992A2.628,2.628,0,0,1,7,112.371a3.4,3.4,0,0,1-.715-2.324v-5.5H7.734v5.461q0,1.922,1.563,1.922a2.163,2.163,0,0,0,2.2-1.234v-6.148h1.445V113H11.57Zm6.391-1.125,2.094-6.492H21.5L18.469,113h-1.1L14.3,104.547h1.477Zm4.461-2.344a4.993,4.993,0,0,1,.488-2.234,3.643,3.643,0,0,1,1.359-1.531,3.7,3.7,0,0,1,1.988-.539,3.565,3.565,0,0,1,2.793,1.2,4.6,4.6,0,0,1,1.066,3.18v.1a5.036,5.036,0,0,1-.473,2.215,3.589,3.589,0,0,1-1.352,1.527,3.743,3.743,0,0,1-2.02.547,3.556,3.556,0,0,1-2.785-1.2,4.575,4.575,0,0,1-1.066-3.164Zm1.453.172a3.616,3.616,0,0,0,.652,2.258,2.211,2.211,0,0,0,3.5-.012,3.955,3.955,0,0,0,.648-2.418,3.61,3.61,0,0,0-.66-2.254,2.1,2.1,0,0,0-1.754-.863,2.075,2.075,0,0,0-1.727.852A3.925,3.925,0,0,0,23.844,108.867Zm11.664-.164a4.961,4.961,0,0,1,.914-3.152,3.226,3.226,0,0,1,4.82-.152l.063-.852h1.328v11.7H41.188v-4.031a3.033,3.033,0,0,1-2.328.938,2.915,2.915,0,0,1-2.441-1.191,5.072,5.072,0,0,1-.91-3.16Zm1.445.164a3.761,3.761,0,0,0,.613,2.281,1.951,1.951,0,0,0,1.652.828,2.164,2.164,0,0,0,1.969-1.141V106.7a2.171,2.171,0,0,0-1.953-1.117,1.965,1.965,0,0,0-1.664.832A4.094,4.094,0,0,0,36.953,108.867Zm13.219,3.3a3.07,3.07,0,0,1-2.477.992,2.628,2.628,0,0,1-2.059-.785,3.4,3.4,0,0,1-.715-2.324v-5.5h1.445v5.461q0,1.922,1.563,1.922a2.163,2.163,0,0,0,2.2-1.234v-6.148h1.445V113H50.2Zm7.109.992a3.693,3.693,0,0,1-2.8-1.129,4.19,4.19,0,0,1-1.078-3.02v-.266a5.073,5.073,0,0,1,.48-2.246,3.748,3.748,0,0,1,1.344-1.547,3.378,3.378,0,0,1,1.871-.559,3.166,3.166,0,0,1,2.563,1.086,4.7,4.7,0,0,1,.914,3.109v.6H54.852a3,3,0,0,0,.73,2.02,2.3,2.3,0,0,0,1.777.77,2.517,2.517,0,0,0,1.3-.312,3.259,3.259,0,0,0,.93-.828l.883.688A3.55,3.55,0,0,1,57.281,113.156Zm-.18-7.578a1.928,1.928,0,0,0-1.469.637A3.1,3.1,0,0,0,54.9,108h4.234v-.109a2.753,2.753,0,0,0-.594-1.707A1.815,1.815,0,0,0,57.1,105.578Zm12.5,6.4a2.082,2.082,0,0,0,1.352-.469,1.649,1.649,0,0,0,.641-1.172h1.367a2.621,2.621,0,0,1-.5,1.383,3.293,3.293,0,0,1-1.23,1.047,3.55,3.55,0,0,1-1.629.391A3.482,3.482,0,0,1,66.855,112a4.59,4.59,0,0,1-1.02-3.152v-.242a5.089,5.089,0,0,1,.453-2.2,3.451,3.451,0,0,1,1.3-1.492,3.7,3.7,0,0,1,2-.531,3.39,3.39,0,0,1,2.363.852,3.043,3.043,0,0,1,1,2.211H71.594a1.992,1.992,0,0,0-.621-1.348,1.932,1.932,0,0,0-1.379-.527,2.023,2.023,0,0,0-1.707.793,3.724,3.724,0,0,0-.605,2.293v.273a3.65,3.65,0,0,0,.6,2.25A2.033,2.033,0,0,0,69.6,111.977Zm9.07-6.133a4.331,4.331,0,0,0-.711-.055A1.9,1.9,0,0,0,76.031,107v6H74.586v-8.453h1.406l.023.977a2.251,2.251,0,0,1,2.016-1.133,1.477,1.477,0,0,1,.641.109Zm6.547,6.32a3.07,3.07,0,0,1-2.477.992,2.628,2.628,0,0,1-2.059-.785,3.4,3.4,0,0,1-.715-2.324v-5.5h1.445v5.461q0,1.922,1.563,1.922a2.163,2.163,0,0,0,2.2-1.234v-6.148h1.445V113H85.25Zm4.961-.344h4.945V113H88.414v-1.062l4.664-6.2H88.484v-1.2h6.406v1.023ZM101.969,113a3.036,3.036,0,0,1-.2-.891,3.225,3.225,0,0,1-2.406,1.047,2.984,2.984,0,0,1-2.051-.707,2.287,2.287,0,0,1-.8-1.793,2.39,2.39,0,0,1,1-2.051,4.733,4.733,0,0,1,2.824-.73h1.406v-.664a1.623,1.623,0,0,0-.453-1.207,1.821,1.821,0,0,0-1.336-.449,2.108,2.108,0,0,0-1.3.391,1.151,1.151,0,0,0-.523.945H96.68a2,2,0,0,1,.449-1.223,3.066,3.066,0,0,1,1.219-.934,4.1,4.1,0,0,1,1.691-.344,3.342,3.342,0,0,1,2.289.73,2.635,2.635,0,0,1,.859,2.012v3.891a4.757,4.757,0,0,0,.3,1.852V113Zm-2.4-1.1a2.54,2.54,0,0,0,1.289-.352,2.127,2.127,0,0,0,.883-.914V108.9h-1.133q-2.656,0-2.656,1.555a1.316,1.316,0,0,0,.453,1.063A1.742,1.742,0,0,0,99.57,111.9Zm9.969-6.055a4.331,4.331,0,0,0-.711-.055A1.9,1.9,0,0,0,106.9,107v6h-1.445v-8.453h1.406l.023.977a2.251,2.251,0,0,1,2.016-1.133,1.477,1.477,0,0,1,.641.109Zm.4,6.4a.905.905,0,0,1,.223-.625.848.848,0,0,1,.668-.25.874.874,0,0,1,.676.25.887.887,0,0,1,.23.625.839.839,0,0,1-.23.6.89.89,0,0,1-.676.242.8.8,0,0,1-.891-.844Z" transform="translate(339 2746.36)" fill="#12263f"/>
    </g>
  </g>
</svg>
