<svg id="Grupo_184129" data-name="Grupo 184129" xmlns="http://www.w3.org/2000/svg" xmlns:xlink="http://www.w3.org/1999/xlink" width="292.909" height="370.666" viewBox="0 0 292.909 370.666">
  <defs>
    <clipPath id="clip-path">
      <rect id="Rectángulo_64636" data-name="Rectángulo 64636" width="292.909" height="370.666" fill="none"/>
    </clipPath>
    <clipPath id="clip-path-3">
      <rect id="Rectángulo_64630" data-name="Rectángulo 64630" width="18.759" height="2.216" transform="translate(30.274 366.237)" fill="none"/>
    </clipPath>
    <clipPath id="clip-path-4">
      <rect id="Rectángulo_64631" data-name="Rectángulo 64631" width="2.391" height="2.386" transform="translate(103.654 361.729)" fill="none"/>
    </clipPath>
    <clipPath id="clip-path-5">
      <rect id="Rectángulo_64632" data-name="Rectángulo 64632" width="30.714" height="2.49" transform="translate(101.195 365.927)" fill="none"/>
    </clipPath>
    <clipPath id="clip-path-6">
      <rect id="Rectángulo_64633" data-name="Rectángulo 64633" width="25.491" height="15.141" transform="translate(54.165 155.157)" fill="none"/>
    </clipPath>
    <clipPath id="clip-path-7">
      <rect id="Rectángulo_64634" data-name="Rectángulo 64634" width="7.059" height="27.492" transform="translate(81.731 139.815)" fill="none"/>
    </clipPath>
  </defs>
  <g id="Grupo_184128" data-name="Grupo 184128" clip-path="url(#clip-path)">
    <g id="Grupo_184127" data-name="Grupo 184127">
      <g id="Grupo_184126" data-name="Grupo 184126" clip-path="url(#clip-path)">
        <path id="Trazado_236909" data-name="Trazado 236909" d="M289.543,370.666H3.366a3.366,3.366,0,0,1,0-6.733H289.543a3.366,3.366,0,0,1,0,6.733" fill="#afafaf"/>
        <path id="Trazado_236910" data-name="Trazado 236910" d="M275.281,1.451s15.291.215,8.748,30.486-5.7,36-5.7,47.974a20.884,20.884,0,0,0,11.308,19.057H268.9L253.65,28.307V1.451Z" fill="#e0e0e0"/>
        <path id="Trazado_236911" data-name="Trazado 236911" d="M279.776,239.786H70.39L72.255,34.933,269.473,24.626Z" fill="#e0e0e0"/>
        <path id="Trazado_236912" data-name="Trazado 236912" d="M272.589,234.5H63.2L65.068,29.645l203.306-3.969Z" fill="#ebebeb"/>
        <path id="Trazado_236913" data-name="Trazado 236913" d="M268.248,228.785H59.286V23.932l209.089-.488Z" fill="#fafafa"/>
        <path id="Trazado_236914" data-name="Trazado 236914" d="M268.248,228.785c0-1.913-.039-82.175-.1-205.341l.225.224-208.761.524h-.328l.26-.261c-.013,74.938-.025,145.208-.035,204.853l-.225-.226,208.962.226-208.962.226H59.06v-.226c-.01-59.645-.022-129.915-.035-204.853v-.26h.588l208.761-.452h.226v.226c-.21,123.166-.348,203.429-.351,205.341" fill="#263238"/>
        <path id="Trazado_236915" data-name="Trazado 236915" d="M268.374,22.891C257.581,10.322,270.105,1.018,274.328.822L75.359.709A16.758,16.758,0,0,0,58.832,20.328a23.062,23.062,0,0,0,.807,3.115" fill="#f5f5f5"/>
        <path id="Trazado_236916" data-name="Trazado 236916" d="M273.652,98.968a1.189,1.189,0,0,1,.272-.021c.2-.007.469-.013.8-.023l3.125-.041,11.784-.074-.047.31a12.639,12.639,0,0,1-4.807-2.752,15.652,15.652,0,0,1-3.587-5.113,34.188,34.188,0,0,1-2.146-6.543c-.271-1.165-.511-2.362-.734-3.583-.108-.611-.234-1.222-.288-1.862a15.08,15.08,0,0,1-.144-1.924,70.946,70.946,0,0,1,.267-7.96c.2-2.724.5-5.512.834-8.36.682-5.693,1.538-11.621,2.548-17.7.413-2.6.94-5.159,1.369-7.671.41-2.523.747-5.023,1.065-7.483q.442-3.692.871-7.247c.126-1.188.291-2.357.317-3.5a21.105,21.105,0,0,0-.191-3.412,20.475,20.475,0,0,0-1.885-6.28,12.522,12.522,0,0,0-3.821-4.765,7.513,7.513,0,0,0-5.438-1.216,9.989,9.989,0,0,0-4.843,2.012A11.929,11.929,0,0,0,265.953,7.5a16.149,16.149,0,0,0-1.469,4.074,10.646,10.646,0,0,0,.8,6.775,22.467,22.467,0,0,0,2.2,3.826l.671.937a2.17,2.17,0,0,1,.22.328,2.289,2.289,0,0,1-.262-.3c-.168-.2-.407-.5-.714-.908a21,21,0,0,1-2.3-3.806,10.8,10.8,0,0,1-.9-6.918,16.316,16.316,0,0,1,1.46-4.167,12.253,12.253,0,0,1,3.087-3.876,10.332,10.332,0,0,1,5.017-2.121,7.914,7.914,0,0,1,5.74,1.257,12.92,12.92,0,0,1,3.986,4.916,20.927,20.927,0,0,1,1.951,6.418,21.59,21.59,0,0,1,.2,3.49c-.025,1.188-.189,2.363-.312,3.547q-.4,3.56-.859,7.257c-.315,2.462-.649,4.967-1.06,7.5-.432,2.539-.952,5.071-1.366,7.671-1.009,6.068-1.869,11.989-2.559,17.671-.334,2.842-.643,5.624-.849,8.337a71.07,71.07,0,0,0-.29,7.907,14.921,14.921,0,0,0,.133,1.88c.049.617.173,1.233.278,1.842.218,1.218.451,2.408.715,3.567a34.059,34.059,0,0,0,2.085,6.471,15.345,15.345,0,0,0,3.469,5.016,12.334,12.334,0,0,0,4.655,2.714l.978.317-1.025-.005-11.784-.075-3.125-.041-.8-.022a1.3,1.3,0,0,1-.272-.022" fill="#263238"/>
        <path id="Trazado_236917" data-name="Trazado 236917" d="M144.776,7.085c.081.057-.515.852-1.107,2.305a13.123,13.123,0,0,0-.751,2.637,14.889,14.889,0,0,0-.158,3.346,14.842,14.842,0,0,0,.667,3.284,13.1,13.1,0,0,0,1.144,2.491c.807,1.346,1.517,2.041,1.446,2.11-.025.025-.216-.132-.543-.442a8.538,8.538,0,0,1-1.214-1.471,11.714,11.714,0,0,1-1.286-2.53,13.872,13.872,0,0,1-.733-3.4,13.836,13.836,0,0,1,.206-3.473,11.667,11.667,0,0,1,.885-2.7,8.486,8.486,0,0,1,.975-1.639c.276-.356.44-.541.469-.519" fill="#263238"/>
        <path id="Trazado_236918" data-name="Trazado 236918" d="M139.807,0a21.364,21.364,0,0,0-2.643,3.229,13.767,13.767,0,0,0-1.889,9.593,13.765,13.765,0,0,0,5.22,8.268,21.336,21.336,0,0,0,3.629,2.059,4,4,0,0,1-1.1-.3,11.961,11.961,0,0,1-2.747-1.46,13.616,13.616,0,0,1-5.515-8.471,13.614,13.614,0,0,1,2.091-9.887A12,12,0,0,1,138.89.678,4,4,0,0,1,139.807,0" fill="#263238"/>
        <path id="Trazado_236919" data-name="Trazado 236919" d="M252.269,159.912s-.222.018-.654.027l-1.921.026-7.385.048-27.162.083-89.613.076-38.646-.012H86.64v-.248c.038-25.6.07-47.622.093-63.26.031-7.8.055-14,.072-18.278.018-2.116.031-3.751.041-4.878.009-.542.016-.958.021-1.258.007-.282.021-.427.021-.427s.015.145.022.427c0,.3.012.716.021,1.258.009,1.127.023,2.762.04,4.878.017,4.275.041,10.48.072,18.278.023,15.638.055,37.657.093,63.26l-.248-.248,38.646-.012,89.613.076,27.162.083,7.385.049,1.921.025c.432.009.654.027.654.027" fill="#263238"/>
        <rect id="Rectángulo_64624" data-name="Rectángulo 64624" width="16.706" height="16.706" transform="translate(100.329 138.146)" fill="#8c5be1"/>
        <rect id="Rectángulo_64625" data-name="Rectángulo 64625" width="16.706" height="28.649" transform="translate(124.821 126.203)" fill="#8c5be1"/>
        <rect id="Rectángulo_64626" data-name="Rectángulo 64626" width="16.706" height="42.216" transform="translate(149.41 112.636)" fill="#8c5be1"/>
        <rect id="Rectángulo_64627" data-name="Rectángulo 64627" width="16.706" height="57.317" transform="translate(173.247 97.535)" fill="#43a99b"/>
        <rect id="Rectángulo_64628" data-name="Rectángulo 64628" width="16.706" height="76.654" transform="translate(197.639 78.198)" fill="#8c5be1"/>
        <rect id="Rectángulo_64629" data-name="Rectángulo 64629" width="16.706" height="90.608" transform="translate(221.849 63.451)" fill="#43a99b"/>
        <path id="Trazado_236920" data-name="Trazado 236920" d="M100.329,121.018a1.3,1.3,0,0,1,.213-.164l.651-.449,2.545-1.7,9.573-6.311,33.152-21.666.384-.251v.459c0,2.366,0,4.9.006,7.478l-.4-.212,13.064-8.761,46.1-30.8,14-9.284,3.822-2.5,1-.64a2.219,2.219,0,0,1,.351-.2,2.4,2.4,0,0,1-.321.247l-.972.683-3.768,2.583-13.911,9.422L159.81,89.871l-13.07,8.752-.4.266v-.478c0-2.579.005-5.112.007-7.478l.384.209-33.253,21.51-9.652,6.19-2.59,1.635-.674.413a1.241,1.241,0,0,1-.236.128" fill="#263238"/>
        <path id="Trazado_236921" data-name="Trazado 236921" d="M224.8,53.079a8.637,8.637,0,0,1-.177-2.06c-.046-1.279-.077-3.056-.082-5.049l.259.26h-.638c-2.14,0-4.077-.03-5.479-.077a9.9,9.9,0,0,1-2.269-.184,9.9,9.9,0,0,1,2.269-.184c1.4-.047,3.339-.076,5.479-.076h.9v.259c-.006,1.993-.037,3.77-.083,5.049a8.635,8.635,0,0,1-.177,2.06" fill="#263238"/>
        <path id="Trazado_236922" data-name="Trazado 236922" d="M136.52,173.385c0,.144-5.164.26-11.532.26s-11.533-.116-11.533-.26,5.163-.26,11.533-.26,11.532.116,11.532.26" fill="#263238"/>
        <path id="Trazado_236923" data-name="Trazado 236923" d="M124.676,181.281a14.165,14.165,0,0,1,0-5.4,14.165,14.165,0,0,1,0,5.4" fill="#263238"/>
        <path id="Trazado_236924" data-name="Trazado 236924" d="M152.936,183.982c0,.144-13.863.261-30.959.261s-30.962-.117-30.962-.261,13.86-.26,30.962-.26,30.959.116,30.959.26" fill="#263238"/>
        <path id="Trazado_236925" data-name="Trazado 236925" d="M91.43,191.67a27.029,27.029,0,0,1,0-7.48,27.029,27.029,0,0,1,0,7.48" fill="#263238"/>
        <path id="Trazado_236926" data-name="Trazado 236926" d="M113.456,190.839a20,20,0,0,1,0-6.441,20.075,20.075,0,0,1,0,6.441" fill="#263238"/>
        <path id="Trazado_236927" data-name="Trazado 236927" d="M136.1,191.255a24.128,24.128,0,0,1,0-7.065,24.126,24.126,0,0,1,0,7.065" fill="#263238"/>
        <path id="Trazado_236928" data-name="Trazado 236928" d="M153.351,191.255a25.562,25.562,0,0,1,0-7.273,25.562,25.562,0,0,1,0,7.273" fill="#263238"/>
        <path id="Trazado_236929" data-name="Trazado 236929" d="M99.118,193.748a53.952,53.952,0,0,1-7.48.26,53.961,53.961,0,0,1-7.481-.26,53.961,53.961,0,0,1,7.481-.26,53.952,53.952,0,0,1,7.48.26" fill="#263238"/>
        <path id="Trazado_236930" data-name="Trazado 236930" d="M118.235,193.748a31.584,31.584,0,0,1-5.714.26,31.575,31.575,0,0,1-5.714-.26,31.575,31.575,0,0,1,5.714-.26,31.584,31.584,0,0,1,5.714.26" fill="#263238"/>
        <path id="Trazado_236931" data-name="Trazado 236931" d="M142.546,194.372a36.311,36.311,0,0,1-6.13.26,36.3,36.3,0,0,1-6.13-.26,36.3,36.3,0,0,1,6.13-.26,36.314,36.314,0,0,1,6.13.26" fill="#263238"/>
        <path id="Trazado_236932" data-name="Trazado 236932" d="M162.286,193.333a41.363,41.363,0,0,1-6.545.26,41.361,41.361,0,0,1-6.546-.26,41.364,41.364,0,0,1,6.546-.26,41.367,41.367,0,0,1,6.545.26" fill="#263238"/>
        <path id="Trazado_236933" data-name="Trazado 236933" d="M91.638,201.021a9.286,9.286,0,0,1,0-4.364,9.286,9.286,0,0,1,0,4.364" fill="#263238"/>
        <path id="Trazado_236934" data-name="Trazado 236934" d="M105.86,201.021c0,.144-6.048.26-13.506.26s-13.507-.116-13.507-.26,6.047-.26,13.507-.26,13.506.116,13.506.26" fill="#263238"/>
        <path id="Trazado_236935" data-name="Trazado 236935" d="M105.86,207.254a18.814,18.814,0,0,1,0-6.234,18.814,18.814,0,0,1,0,6.234" fill="#263238"/>
        <path id="Trazado_236936" data-name="Trazado 236936" d="M78.848,207.67a21.384,21.384,0,0,1,0-6.649,21.384,21.384,0,0,1,0,6.649" fill="#263238"/>
        <path id="Trazado_236937" data-name="Trazado 236937" d="M136.658,201.021a9.286,9.286,0,0,1,0-4.364,9.286,9.286,0,0,1,0,4.364" fill="#263238"/>
        <path id="Trazado_236938" data-name="Trazado 236938" d="M169.495,201.021c0,.144-10.215.26-22.812.26s-22.815-.116-22.815-.26,10.213-.26,22.815-.26,22.812.116,22.812.26" fill="#263238"/>
        <path id="Trazado_236939" data-name="Trazado 236939" d="M150.88,207.254a18.813,18.813,0,0,1,0-6.234,18.814,18.814,0,0,1,0,6.234" fill="#263238"/>
        <path id="Trazado_236940" data-name="Trazado 236940" d="M170.427,207.254a18.814,18.814,0,0,1,0-6.234,18.814,18.814,0,0,1,0,6.234" fill="#263238"/>
        <path id="Trazado_236941" data-name="Trazado 236941" d="M123.868,207.67a21.385,21.385,0,0,1,0-6.649,21.384,21.384,0,0,1,0,6.649" fill="#263238"/>
        <path id="Trazado_236942" data-name="Trazado 236942" d="M84.172,211.5a27.462,27.462,0,0,1-5.325.26,27.455,27.455,0,0,1-5.324-.26,27.453,27.453,0,0,1,5.324-.26,27.46,27.46,0,0,1,5.325.26" fill="#263238"/>
        <path id="Trazado_236943" data-name="Trazado 236943" d="M110.625,210.739a32.01,32.01,0,0,1-5.753.26,32.017,32.017,0,0,1-5.754-.26,32.017,32.017,0,0,1,5.754-.26,32.01,32.01,0,0,1,5.753.26" fill="#263238"/>
        <path id="Trazado_236944" data-name="Trazado 236944" d="M129.743,210.739a24.877,24.877,0,0,1-5.066.26,24.875,24.875,0,0,1-5.067-.26,24.875,24.875,0,0,1,5.067-.26,24.877,24.877,0,0,1,5.066.26" fill="#263238"/>
        <path id="Trazado_236945" data-name="Trazado 236945" d="M155.509,210.739a29.227,29.227,0,0,1-5.495.26,29.225,29.225,0,0,1-5.5-.26,29.225,29.225,0,0,1,5.5-.26,29.227,29.227,0,0,1,5.495.26" fill="#263238"/>
        <path id="Trazado_236946" data-name="Trazado 236946" d="M176.118,210.052a30.138,30.138,0,0,1-5.581.26,30.136,30.136,0,0,1-5.582-.26,30.136,30.136,0,0,1,5.582-.26,30.138,30.138,0,0,1,5.581.26" fill="#263238"/>
        <path id="Trazado_236947" data-name="Trazado 236947" d="M252.12,214.1H181.574V170.423H252.12Zm-70.495-.051h70.444V170.473H181.625Z" fill="#263238"/>
        <path id="Trazado_236948" data-name="Trazado 236948" d="M235.075,201.995c-4.888-1.854-10.511,3.272-15.3,1.182-2.788-1.216-4.052-4.37-5.419-7.088s-3.72-5.586-6.745-5.27c-3.052.318-5.52,3.852-8.468,3-1.858-.537-2.786-2.6-3.251-4.475s-.789-3.951-2.206-5.268-4.368-.964-4.591.957v23.13H244.22s-7.453-5.526-9.145-6.168" fill="#8c5be1"/>
        <path id="Trazado_236949" data-name="Trazado 236949" d="M245.692,208.163c0,.05-13.362.09-29.841.09s-29.845-.04-29.845-.09,13.36-.09,29.845-.09,29.841.041,29.841.09" fill="#e0e0e0"/>
        <path id="Trazado_236950" data-name="Trazado 236950" d="M245.692,198.06c0,.049-13.362.09-29.841.09s-29.845-.041-29.845-.09,13.36-.09,29.845-.09,29.841.041,29.841.09" fill="#263238"/>
        <path id="Trazado_236951" data-name="Trazado 236951" d="M245.692,187.958c0,.049-13.362.09-29.841.09s-29.845-.041-29.845-.09,13.36-.09,29.845-.09,29.841.041,29.841.09" fill="#263238"/>
        <path id="Trazado_236952" data-name="Trazado 236952" d="M245.692,178.356c0,.049-13.362.09-29.841.09s-29.845-.041-29.845-.09,13.36-.09,29.845-.09,29.841.041,29.841.09" fill="#263238"/>
        <path id="Trazado_236953" data-name="Trazado 236953" d="M86.9,38.278a.4.4,0,0,1,.1-.006h.286a6.53,6.53,0,0,1,1.1.1,6.023,6.023,0,0,1,1.661.568A5.51,5.51,0,0,1,91.81,40.46a6.374,6.374,0,0,1,1.165,2.6,6.148,6.148,0,0,1-.41,3.255,9.559,9.559,0,0,1-.808,1.6,17.162,17.162,0,0,0-.913,1.615,14.123,14.123,0,0,0-1.22,3.709l-.016.088-.085,0-2.613-.063-2.74-.068-.1,0v-.1a7.838,7.838,0,0,0-1.125-3.665c-.295-.555-.622-1.077-.927-1.6a15.339,15.339,0,0,1-.867-1.552,5.1,5.1,0,0,1-.285-3.237A6.872,6.872,0,0,1,82,40.442a5.111,5.111,0,0,1,1.784-1.48,6.472,6.472,0,0,1,1.649-.562,6.881,6.881,0,0,1,1.087-.133c.125,0,.22,0,.284,0a.31.31,0,0,1,.1.01.4.4,0,0,1-.1.009l-.282.017a8.147,8.147,0,0,0-1.074.166,6.623,6.623,0,0,0-1.616.584A5.042,5.042,0,0,0,82.1,40.521a6.786,6.786,0,0,0-1.079,2.547,4.957,4.957,0,0,0,.293,3.134,15.4,15.4,0,0,0,.866,1.532c.3.519.634,1.046.935,1.6a7.99,7.99,0,0,1,1.154,3.76l-.1-.1,2.74.066,2.613.065-.1.085a14.23,14.23,0,0,1,1.246-3.765A17.2,17.2,0,0,1,91.6,47.82a9.578,9.578,0,0,0,.8-1.571,6,6,0,0,0,.419-3.165A6.258,6.258,0,0,0,91.7,40.54a5.449,5.449,0,0,0-1.715-1.509,6.09,6.09,0,0,0-1.625-.589,7.326,7.326,0,0,0-1.086-.132l-.284-.019a.375.375,0,0,1-.1-.013" fill="#263238"/>
        <path id="Trazado_236954" data-name="Trazado 236954" d="M87.661,53.019s-.006-.028-.013-.084-.017-.141-.03-.247c-.025-.22-.061-.539-.106-.949-.086-.825-.214-2.021-.273-3.5-.013-.371-.023-.76-.021-1.165s0-.827.043-1.264a3.562,3.562,0,0,1,.351-1.311,2.01,2.01,0,0,1,1.05-.969,1.352,1.352,0,0,1,1.428.332,1,1,0,0,1,.279.736,1.286,1.286,0,0,1-.3.747,1.723,1.723,0,0,1-.656.488,3.337,3.337,0,0,1-.8.229,9.4,9.4,0,0,1-1.676.127,9.69,9.69,0,0,1-1.676-.149,3.167,3.167,0,0,1-.787-.262,2.06,2.06,0,0,1-.647-.5,1.538,1.538,0,0,1-.355-.723,1.192,1.192,0,0,1,.126-.779,1.062,1.062,0,0,1,.574-.516.952.952,0,0,1,.751.065,1.43,1.43,0,0,1,.543.5,1.977,1.977,0,0,1,.254.67,7.862,7.862,0,0,1,.079,1.354c.01.872.02,1.685.029,2.427.015,1.481.027,2.681.035,3.514,0,.412.005.733.006.955,0,.107,0,.189,0,.249s0,.084,0,.084,0-.028,0-.084,0-.142-.008-.249c0-.222-.012-.543-.021-.955-.014-.833-.035-2.032-.061-3.513-.012-.742-.025-1.555-.039-2.427a7.943,7.943,0,0,0-.082-1.341,1.893,1.893,0,0,0-.246-.644,1.343,1.343,0,0,0-.514-.472.876.876,0,0,0-.691-.06.984.984,0,0,0-.531.48,1.117,1.117,0,0,0-.117.728,1.466,1.466,0,0,0,.338.684,2.385,2.385,0,0,0,1.389.735,9.668,9.668,0,0,0,1.66.147,9.416,9.416,0,0,0,1.662-.125,3.322,3.322,0,0,0,.777-.223,1.647,1.647,0,0,0,.628-.465,1.213,1.213,0,0,0,.284-.7.93.93,0,0,0-.257-.679,1.275,1.275,0,0,0-1.346-.314,1.936,1.936,0,0,0-1.011.931,3.473,3.473,0,0,0-.347,1.285c-.042.43-.043.852-.048,1.256s.005.793.016,1.163c.051,1.482.171,2.678.246,3.5.04.41.07.73.091.952.01.1.017.187.022.246s.005.085.005.085" fill="#263238"/>
        <path id="Trazado_236955" data-name="Trazado 236955" d="M84.174,53.018c.012.013.022.331.033.883.007.639.016,1.4.026,2.294l-.02-.056c.507.634,1.08,1.349,1.7,2.124l-.09-.043c.649-.012,1.343-.022,2.062-.033l-.088.04,1.075-1.21q.273-.306.539-.606l-.031.08c.021-1.207.041-2.35.059-3.393l.108.112L85.7,53.1l-1.111-.045a2.831,2.831,0,0,1-.414-.033A2.044,2.044,0,0,1,84.542,53l1.087-.013,3.919,0h.11v.11c-.011,1.043-.023,2.186-.035,3.4v.045l-.03.034-.539.6-1.077,1.209-.036.04h-.053l-2.063.018h-.056l-.034-.043-1.662-2.151-.021-.026,0-.031q.042-1.37.072-2.35a7.169,7.169,0,0,1,.05-.826" fill="#263238"/>
        <path id="Trazado_236956" data-name="Trazado 236956" d="M89.365,56.211a1.386,1.386,0,0,1-.192-.09,5.466,5.466,0,0,0-.525-.233,5.216,5.216,0,0,0-3.7-.037c-.227.084-.407.164-.53.223a1.148,1.148,0,0,1-.193.086.959.959,0,0,1,.179-.115,4.409,4.409,0,0,1,.524-.248,4.937,4.937,0,0,1,3.743.037,4.354,4.354,0,0,1,.519.258.978.978,0,0,1,.177.119" fill="#263238"/>
        <path id="Trazado_236957" data-name="Trazado 236957" d="M89.4,55.387a1.249,1.249,0,0,1-.192-.09,5.468,5.468,0,0,0-.525-.233,5.216,5.216,0,0,0-3.7-.037c-.227.084-.407.164-.53.223a1.147,1.147,0,0,1-.193.086.96.96,0,0,1,.179-.115,4.185,4.185,0,0,1,.524-.248,4.937,4.937,0,0,1,3.743.037,4.049,4.049,0,0,1,.519.259.892.892,0,0,1,.177.118" fill="#263238"/>
        <path id="Trazado_236958" data-name="Trazado 236958" d="M89.381,54.6a1.249,1.249,0,0,1-.192-.09c-.121-.06-.3-.145-.525-.233a5.209,5.209,0,0,0-3.7-.036c-.227.084-.407.163-.53.222a1.115,1.115,0,0,1-.193.087.826.826,0,0,1,.179-.114,4.028,4.028,0,0,1,.524-.249,4.956,4.956,0,0,1,3.743.036,4.331,4.331,0,0,1,.519.259,1.016,1.016,0,0,1,.177.118" fill="#263238"/>
        <path id="Trazado_236959" data-name="Trazado 236959" d="M108.478,76.136s-2.019,18.446.575,28.546L133.7,103.6s-5.282-18.2-2.039-26.257Z" fill="#ebebeb"/>
        <path id="Trazado_236960" data-name="Trazado 236960" d="M108.576,75.543s.168,19.915,1.181,25.991l24.978-1.181s-2.194-19.578-1.35-24.81Z" fill="#eeac3a"/>
        <path id="Trazado_236961" data-name="Trazado 236961" d="M129.621,83.908c.005.092-3.743.393-8.37.67s-8.386.43-8.392.339,3.742-.392,8.371-.671,8.385-.43,8.391-.338" fill="#fff"/>
        <path id="Trazado_236962" data-name="Trazado 236962" d="M129.627,88.127c.005.092-3.743.392-8.371.671s-8.385.429-8.391.337,3.742-.392,8.371-.67,8.385-.43,8.391-.338" fill="#fff"/>
        <path id="Trazado_236963" data-name="Trazado 236963" d="M125.382,92.268a5.886,5.886,0,0,1-1.392.2c-.862.082-2.054.172-3.373.252s-2.514.132-3.379.154a5.882,5.882,0,0,1-1.406-.034,5.987,5.987,0,0,1,1.391-.2c.863-.082,2.055-.173,3.374-.252s2.513-.133,3.379-.155a5.948,5.948,0,0,1,1.406.034" fill="#fff"/>
        <path id="Trazado_236964" data-name="Trazado 236964" d="M165.531,43.206c0,.144-14.61.26-32.628.26s-32.632-.116-32.632-.26,14.607-.26,32.632-.26,32.628.116,32.628.26" fill="#263238"/>
        <path id="Trazado_236965" data-name="Trazado 236965" d="M124.234,49.154c0,.144-5.479.26-12.236.26s-12.236-.116-12.236-.26,5.477-.26,12.236-.26,12.236.116,12.236.26" fill="#263238"/>
        <path id="Trazado_236966" data-name="Trazado 236966" d="M137.235,49.154a21.586,21.586,0,0,1-4.716.26,21.579,21.579,0,0,1-4.716-.26,21.579,21.579,0,0,1,4.716-.26,21.586,21.586,0,0,1,4.716.26" fill="#263238"/>
        <path id="Trazado_236967" data-name="Trazado 236967" d="M273.652,111.891a.771.771,0,0,1-.04-.227c-.018-.181-.04-.4-.066-.668q-.075-.95-.2-2.574c-.156-2.285-.377-5.509-.648-9.473-.5-8.043-1.185-19.076-1.942-31.264-.7-12.2-1.329-23.233-1.79-31.278-.2-3.968-.366-7.2-.483-9.483q-.066-1.626-.105-2.579c-.005-.269-.01-.489-.014-.671a.768.768,0,0,1,.013-.23.728.728,0,0,1,.04.226c.018.182.04.4.066.669q.075.949.2,2.574c.156,2.285.377,5.508.648,9.472.5,8.043,1.185,19.077,1.942,31.269.7,12.191,1.329,23.227,1.79,31.272.2,3.968.366,7.2.483,9.483q.066,1.628.105,2.58c.005.269.01.489.014.672a.779.779,0,0,1-.013.23" fill="#263238"/>
        <path id="Trazado_236968" data-name="Trazado 236968" d="M268.374.818s-.2.018-.579.026l-1.7.022L259.553.9,235.5.931l-79.357-.1L73.989.569l.042,0A19.78,19.78,0,0,0,63.586,7.076a19.292,19.292,0,0,0-4.06,8.377,20.108,20.108,0,0,0-.386,5.887c.061.672.123,1.183.182,1.525s.067.518.067.518a13.657,13.657,0,0,1-.348-2.034A19.717,19.717,0,0,1,63.372,6.9,20.012,20.012,0,0,1,73.948.22l.02,0h.022c20.272.025,49.59.058,82.154.1,30.98.1,59.029.186,79.356.25,10.141.057,18.354.1,24.054.135,2.824.027,5.024.048,6.54.064.733.011,1.3.022,1.7.028.383.011.579.028.579.028" fill="#263238"/>
        <path id="Trazado_236969" data-name="Trazado 236969" d="M35.909,312.159,33.5,356.736l16.147,3.9,3.216-43.546Z" fill="#aa6550"/>
        <path id="Trazado_236970" data-name="Trazado 236970" d="M33.024,356.357l-2.75,12.1H48.856l.8-7.874Z" fill="#8c5be1"/>
        <path id="Trazado_236971" data-name="Trazado 236971" d="M49.235,366.7a13.033,13.033,0,0,1-2.707.155c-1.673.019-3.983-.026-6.531-.12l-6.519-.277a15.253,15.253,0,0,1-2.7-.217,13.194,13.194,0,0,1,2.707-.147c1.673-.015,3.983.032,6.531.126l6.519.271a15.484,15.484,0,0,1,2.7.209" fill="#263238"/>
        <path id="Trazado_236972" data-name="Trazado 236972" d="M41.363,358.714a29.835,29.835,0,0,1-.525,7.8,29.721,29.721,0,0,1,.525-7.8" fill="#263238"/>
        <g id="Grupo_184113" data-name="Grupo 184113" opacity="0.6">
          <g id="Grupo_184112" data-name="Grupo 184112">
            <g id="Grupo_184111" data-name="Grupo 184111" clip-path="url(#clip-path-3)">
              <path id="Trazado_236973" data-name="Trazado 236973" d="M30.274,368.453H48.855l.178-1.757-18.424-.459-.335,2.006" fill="#fff"/>
            </g>
          </g>
        </g>
        <path id="Trazado_236974" data-name="Trazado 236974" d="M97.218,333.832l3.919,29.535,14.293-.994-3.005-27.078Z" fill="#aa6550"/>
        <path id="Trazado_236975" data-name="Trazado 236975" d="M115.579,359.168h0s16.057,5.426,16.322,8.354l-30.705.895-.276-8.028,1.136.225a22.819,22.819,0,0,0,13.523-1.446" fill="#8c5be1"/>
        <g id="Grupo_184116" data-name="Grupo 184116" opacity="0.6">
          <g id="Grupo_184115" data-name="Grupo 184115">
            <g id="Grupo_184114" data-name="Grupo 184114" clip-path="url(#clip-path-4)">
              <path id="Trazado_236976" data-name="Trazado 236976" d="M104.514,361.789a1.254,1.254,0,0,0-.825,1.456,1.2,1.2,0,0,0,1.436.831,1.323,1.323,0,0,0,.866-1.547,1.251,1.251,0,0,0-1.59-.7" fill="#fff"/>
            </g>
          </g>
        </g>
        <g id="Grupo_184119" data-name="Grupo 184119" opacity="0.6">
          <g id="Grupo_184118" data-name="Grupo 184118">
            <g id="Grupo_184117" data-name="Grupo 184117" clip-path="url(#clip-path-5)">
              <path id="Trazado_236977" data-name="Trazado 236977" d="M101.195,368.418l.012-2.49,29.436.072s1.384.555,1.258,1.522Z" fill="#fff"/>
            </g>
          </g>
        </g>
        <path id="Trazado_236978" data-name="Trazado 236978" d="M116.072,359c0,.15-.748.24-1.472.744-.737.484-1.1,1.145-1.238,1.09-.139-.025.058-.928.945-1.523s1.793-.45,1.765-.311" fill="#263238"/>
        <path id="Trazado_236979" data-name="Trazado 236979" d="M119.331,360.235c.038.144-.6.418-1.094,1.067-.51.635-.619,1.324-.768,1.322-.14.028-.27-.847.356-1.643s1.5-.889,1.506-.746" fill="#263238"/>
        <path id="Trazado_236980" data-name="Trazado 236980" d="M121.273,364.037c-.135.036-.366-.707-.005-1.54s1.053-1.179,1.12-1.056c.088.121-.354.575-.64,1.263-.3.68-.327,1.314-.475,1.333" fill="#263238"/>
        <path id="Trazado_236981" data-name="Trazado 236981" d="M115.736,358.92a2.883,2.883,0,0,1-1.538.037,6.958,6.958,0,0,1-1.624-.447,7.282,7.282,0,0,1-.9-.443,1.9,1.9,0,0,1-.475-.348.654.654,0,0,1-.092-.8.825.825,0,0,1,.647-.362,2.022,2.022,0,0,1,.579.063,5.563,5.563,0,0,1,.966.3,5.46,5.46,0,0,1,1.445.889c.731.639.991,1.192.94,1.223-.066.051-.426-.408-1.167-.931a6.154,6.154,0,0,0-1.394-.733,5.806,5.806,0,0,0-.891-.247c-.328-.075-.605-.07-.684.077-.029.057-.032.079.039.172a1.584,1.584,0,0,0,.349.254,8.109,8.109,0,0,0,.826.44,8.55,8.55,0,0,0,1.5.527,10.733,10.733,0,0,1,1.467.325" fill="#263238"/>
        <path id="Trazado_236982" data-name="Trazado 236982" d="M115.547,359.141a2.458,2.458,0,0,1-.449-1.473,4.988,4.988,0,0,1,.525-2.635,1.27,1.27,0,0,1,.959-.8.716.716,0,0,1,.654.41,2.086,2.086,0,0,1,.175.559,3.427,3.427,0,0,1,.031,1.036,3.537,3.537,0,0,1-.611,1.608c-.576.813-1.2,1.01-1.211.96-.052-.074.462-.379.9-1.157a3.543,3.543,0,0,0,.444-1.459,3.16,3.16,0,0,0-.054-.888c-.058-.325-.188-.585-.309-.548-.153,0-.4.256-.523.52a5.11,5.11,0,0,0-.357.844,5.566,5.566,0,0,0-.253,1.544c-.016.9.161,1.459.08,1.484" fill="#263238"/>
        <path id="Trazado_236983" data-name="Trazado 236983" d="M47.851,184.322s-11.332,18.934-11.332,30.26L33.725,352.531,51.634,356.8,65.3,221.991S98.385,357.15,99.447,357.15s17.355-2.922,17.355-2.922l-24.709-169.3Z" fill="#263238"/>
        <path id="Trazado_236984" data-name="Trazado 236984" d="M54.9,218.285a1.854,1.854,0,0,1-.034.348c-.037.253-.086.588-.148,1.014-.146.918-.352,2.223-.617,3.889-.554,3.375-1.322,8.263-2.233,14.308-1.82,12.059-4.092,28.807-6,47.387s-3.065,35.42-3.728,47.629c-.333,6.1-.571,11.046-.712,14.462-.079,1.685-.141,3.005-.185,3.933-.025.429-.045.768-.06,1.023a1.857,1.857,0,0,1-.037.347,1.75,1.75,0,0,1-.013-.349c0-.255.006-.594.011-1.024.022-.929.052-2.25.092-3.937.082-3.419.267-8.364.556-14.473.573-12.218,1.689-29.086,3.586-47.661s4.231-35.31,6.146-47.39c.954-6.041,1.775-10.922,2.388-14.287.3-1.66.541-2.96.708-3.874.082-.422.147-.755.2-1.005a1.812,1.812,0,0,1,.084-.34" fill="#455a64"/>
        <path id="Trazado_236985" data-name="Trazado 236985" d="M83.251,220.567c.134-.023,5.6,30.251,12.2,67.612s11.851,67.682,11.716,67.705-5.6-30.245-12.2-67.619-11.85-67.674-11.716-67.7" fill="#455a64"/>
        <path id="Trazado_236986" data-name="Trazado 236986" d="M64.661,221.757a1.3,1.3,0,0,1-.187-.343c-.108-.232-.267-.574-.457-1.02a36.2,36.2,0,0,1-1.328-3.892,39.513,39.513,0,0,1-1.28-13.467c.089-1.325.27-2.61.475-3.846.226-1.241.541-2.4.854-3.509.629-2.208,1.286-4.165,1.85-5.8s1.052-2.952,1.4-3.856c.164-.411.3-.753.414-1.037a1.314,1.314,0,0,1,.174-.35,1.339,1.339,0,0,1-.092.38c-.092.291-.2.642-.337,1.063l-1.268,3.9c-.526,1.648-1.151,3.612-1.756,5.814-.3,1.1-.606,2.262-.82,3.475-.2,1.221-.374,2.5-.462,3.806a41.754,41.754,0,0,0,1.144,13.355c.42,1.674.882,2.994,1.19,3.91a10.434,10.434,0,0,1,.486,1.424" fill="#455a64"/>
        <path id="Trazado_236987" data-name="Trazado 236987" d="M69.733,198.588a1.525,1.525,0,0,1,.027.264c.011.2.024.44.04.73.029.678.068,1.589.117,2.724.083,2.367.2,5.66.337,9.6l-.115-.168,6.893,2.809-.189.015,5.6-3.408.364-.221-.1.166c.422-4.554.818-8.831,1.161-12.525l.189.208-10.306-.1-2.938-.05-.788-.023a1.71,1.71,0,0,1-.286-.021,8.717,8.717,0,0,1,.993-.044l2.894-.05c2.578-.024,6.163-.056,10.431-.1h.209l-.019.209c-.327,3.7-.7,7.975-1.108,12.53l-.01.109-.094.057-.364.221-5.6,3.4-.091.055-.1-.04L70,212.08l-.113-.048,0-.12c-.061-3.988-.112-7.324-.149-9.722-.008-1.118-.014-2.015-.019-2.683a7.71,7.71,0,0,1,.019-.919" fill="#455a64"/>
        <path id="Trazado_236988" data-name="Trazado 236988" d="M43.811,194.946a9.135,9.135,0,0,1-.118.927c-.1.634-.227,1.477-.387,2.524-.355,2.193-.847,5.234-1.436,8.87l-.072-.181,5.207,3.861-.181-.034,6.329-1.761.324-.089-.151.148,3.331-11.35.14.239-9.352-2.231-2.663-.658c-.621-.157-.96-.248-.971-.265a7.463,7.463,0,0,1,.91.163l2.643.551,9.518,2.068.2.043-.057.2-3.279,11.365-.034.116-.117.033-.323.089-6.333,1.747-.1.028-.082-.062-5.178-3.9-.093-.069.021-.112c.674-3.671,1.239-6.742,1.646-8.957.2-1.022.355-1.845.474-2.464a6.536,6.536,0,0,1,.187-.836" fill="#455a64"/>
        <path id="Trazado_236989" data-name="Trazado 236989" d="M79.984,219.08a71.162,71.162,0,0,1-7.619,1.876,71.075,71.075,0,0,1-7.712,1.453,71,71,0,0,1,7.62-1.876,70.991,70.991,0,0,1,7.711-1.453" fill="#455a64"/>
        <path id="Trazado_236990" data-name="Trazado 236990" d="M57.719,219.679a6.939,6.939,0,0,1-1.955,0,32.162,32.162,0,0,1-4.657-.731,31.574,31.574,0,0,1-4.51-1.376,7.032,7.032,0,0,1-1.758-.855,11.623,11.623,0,0,1,1.861.566c1.139.369,2.724.837,4.5,1.242s3.408.684,4.593.849a11.748,11.748,0,0,1,1.922.306" fill="#455a64"/>
        <path id="Trazado_236991" data-name="Trazado 236991" d="M55.731,75.971c.618,1.784-1.495,3.3-3.335,3.725s-4.07.686-4.912,2.375c-.731,1.465.01,3.325-.655,4.821-1.266,2.846-6.379,2.251-7.381,5.2-.687,2.024,1.213,4.111.975,6.235-.205,1.83-1.881,3.075-3.351,4.183s-3.016,2.637-2.785,4.464c.268,2.109,2.843,3.57,2.607,5.684-.232,2.08-3.038,3.05-3.441,5.1-.48,2.437,2.571,4,3.552,6.286.749,1.743.287,3.988,1.552,5.4,1.3,1.449,3.6,1.165,5.5.762l18.962-4.02c-1.282-3-.076-6.505,1.751-9.2s4.261-4.979,5.83-7.836,2.086-6.679.031-9.209" fill="#263238"/>
        <path id="Trazado_236992" data-name="Trazado 236992" d="M89.078,91.134a19.467,19.467,0,0,0-.621-3,3.012,3.012,0,0,0-.759-1.23c-.373-.355-.861-.13-1.17.381a9.253,9.253,0,0,0,0,7.687c.309.512.8.737,1.17.382a3.009,3.009,0,0,0,.759-1.231,19.5,19.5,0,0,0,.621-2.994,2.3,2.3,0,0,1,.065.838,8.029,8.029,0,0,1-.357,2.271,3.244,3.244,0,0,1-.826,1.43,1.018,1.018,0,0,1-1.008.236,1.661,1.661,0,0,1-.8-.679,9.3,9.3,0,0,1,0-8.192,1.661,1.661,0,0,1,.8-.679,1.018,1.018,0,0,1,1.008.236,3.234,3.234,0,0,1,.826,1.43,8.024,8.024,0,0,1,.357,2.271,2.3,2.3,0,0,1-.065.838" fill="#263238"/>
        <path id="Trazado_236993" data-name="Trazado 236993" d="M58.142,108.6c-3.43-5.8-4.413-13.518-5.28-20.2-.408-3.143-1.126-7.619,1.085-9.586,2.368-2.106,2.6-5.354,5.317-6.979a8.358,8.358,0,0,1,8.979.1" fill="#263238"/>
        <path id="Trazado_236994" data-name="Trazado 236994" d="M67.647,129.129h0a9.3,9.3,0,0,0,10.032-8.889c.209-5.063.394-10.181.394-10.181s7.674-.7,8.253-8.288S86.7,76.65,86.7,76.65a26.458,26.458,0,0,0-26.745,1.641l.4,26.725-.042,14.377c.037,4.822,2.53,9.353,7.337,9.736" fill="#aa6550"/>
        <path id="Trazado_236995" data-name="Trazado 236995" d="M78.785,92.48A3.892,3.892,0,0,0,73.6,91.332a4.414,4.414,0,0,0-1.487,5.514,5.816,5.816,0,0,0,3.717,2.827A2.916,2.916,0,0,1,78.1,102.82c-.224,1.9-3.4,2.612-4.832,4.185-2.233,2.447-7.121,3.471-10.411,3.851-3.236.372-2.845.4-4.719-2.259a10.2,10.2,0,0,1-1.829-6.17q-.15-8.4-.3-16.8a24.053,24.053,0,0,1,.4-6.026,8.089,8.089,0,0,1,3.193-4.974c1.85-1.21,4.19-1.307,6.3-1.981,2.632-.843,4.871-2.581,7.335-3.832s5.483-2,7.949-.748c1.771.895,2.954,2.668,4.676,3.654,2.45,1.4,5.793,1.1,6.975,4.709a6.122,6.122,0,0,1-.052,3.861c-1.679,4.908-7.769,6.871-12.145,4.734-.089.832.725,2.686-.159,5.312-.282.839-.385,2.12-1.7,2.14" fill="#263238"/>
        <path id="Trazado_236996" data-name="Trazado 236996" d="M77.413,97.216c.031.012.03.144-.106.328a1.134,1.134,0,0,1-.847.42,2.09,2.09,0,0,1-1.962-2.1,2.194,2.194,0,0,1,.562-1.6,2.269,2.269,0,0,1,1.191-.681c.782-.161,1.232.128,1.2.178-.019.086-.467-.037-1.094.191a1.9,1.9,0,0,0-1.316,1.892,1.771,1.771,0,0,0,1.423,1.743c.636.039.9-.413.95-.365" fill="#ae4f32"/>
        <path id="Trazado_236997" data-name="Trazado 236997" d="M89.1,90.77a27.851,27.851,0,0,1-5.109,1.087,27.779,27.779,0,0,1-5.189.6,27.8,27.8,0,0,1,5.11-1.086,27.822,27.822,0,0,1,5.188-.6" fill="#263238"/>
        <path id="Trazado_236998" data-name="Trazado 236998" d="M58.752,116a2.206,2.206,0,0,0,2.639,1.059,6.318,6.318,0,0,0,2.551-1.73,6.68,6.68,0,0,1,2.529-1.768c2.026-.615,4.5.736,6.208-.52,1.551-1.144,1.349-3.735,2.872-4.916.808-.627,1.935-.708,2.758-1.316,1.539-1.137,1.285-3.677-.008-5.088s-3.24-1.983-5.084-2.494L56.9,106.187Z" fill="#263238"/>
        <path id="Trazado_236999" data-name="Trazado 236999" d="M78.137,86.519c0,.007-.042.041-.136.1a3.944,3.944,0,0,1-.431.241,8.709,8.709,0,0,1-1.787.645,20.528,20.528,0,0,1-2.964.471,29.949,29.949,0,0,0-3.894.538,7.343,7.343,0,0,0-4.03,2.2c-1.1,1.277-1.512,3.114-2.364,4.89A6.329,6.329,0,0,1,60.632,98a9.917,9.917,0,0,1-2.841,1.4c-2.005.672-4.212,1.076-5.882,2.492a4.214,4.214,0,0,0-1.506,2.669,18.424,18.424,0,0,0,0,3.169,5.19,5.19,0,0,1-2.809,5.253c-1.707,1-3.495,1.536-4.923,2.447a5.75,5.75,0,0,0-1.756,1.62,4.249,4.249,0,0,0-.666,2.078,14.574,14.574,0,0,0,.53,3.86,10.043,10.043,0,0,1,.272,3,4.235,4.235,0,0,1-.544,1.824,2.146,2.146,0,0,1-.412.521,4.52,4.52,0,0,0,.765-2.359,10.286,10.286,0,0,0-.35-2.923,14.456,14.456,0,0,1-.61-3.941,4.619,4.619,0,0,1,.694-2.264,6.128,6.128,0,0,1,1.858-1.76c1.483-.961,3.276-1.512,4.906-2.491a4.739,4.739,0,0,0,2.562-4.85,18.433,18.433,0,0,1,0-3.256,4.706,4.706,0,0,1,1.67-2.97c1.81-1.525,4.1-1.918,6.049-2.575a9.532,9.532,0,0,0,2.712-1.318A5.891,5.891,0,0,0,62.124,95.4c.835-1.694,1.264-3.582,2.46-4.954a7.657,7.657,0,0,1,4.263-2.275,28.543,28.543,0,0,1,3.947-.473,22.462,22.462,0,0,0,2.946-.383,13.283,13.283,0,0,0,2.4-.8" fill="#455a64"/>
        <path id="Trazado_237000" data-name="Trazado 237000" d="M73.74,89.241c0,.053-.585,0-1.589.229a7.212,7.212,0,0,0-3.659,2.186,6.614,6.614,0,0,0-1.457,2.55,11.462,11.462,0,0,0-.3,3.408,8.911,8.911,0,0,1-.564,3.9,3.973,3.973,0,0,1-1.425,1.6,17.244,17.244,0,0,1-1.881,1.006,4.893,4.893,0,0,0-1.623,1.154,2.91,2.91,0,0,0-.637,1.747c-.09,1.266.187,2.678-.437,3.89a6.4,6.4,0,0,1-2.538,2.516c-.958.571-1.886.99-2.674,1.466a6.581,6.581,0,0,0-1.882,1.558,4.267,4.267,0,0,0-.81,1.643,3.839,3.839,0,0,0,.027,1.574.982.982,0,0,1-.166-.391,2.84,2.84,0,0,1-.05-1.22,4.315,4.315,0,0,1,.779-1.772,6.691,6.691,0,0,1,1.919-1.689c.8-.507,1.726-.95,2.643-1.517a6.059,6.059,0,0,0,2.342-2.365c.542-1.051.288-2.35.365-3.729a3.393,3.393,0,0,1,.742-2.025,5.309,5.309,0,0,1,1.777-1.28c1.281-.62,2.567-1.194,3.095-2.382a8.632,8.632,0,0,0,.544-3.683,11.577,11.577,0,0,1,.361-3.528,6.876,6.876,0,0,1,1.592-2.667,7.14,7.14,0,0,1,3.876-2.137,4.977,4.977,0,0,1,1.209-.091,1.339,1.339,0,0,1,.419.05" fill="#455a64"/>
        <path id="Trazado_237001" data-name="Trazado 237001" d="M79.935,117.153l-1.974-4.063-17.154-.648-2.692,5.276H79.656" fill="#8c5be1"/>
        <path id="Trazado_237002" data-name="Trazado 237002" d="M138.889,153.839c-.123-.616,4.538-24.836,5.822-31.487a1.408,1.408,0,0,0-1.383-1.675H108.985a1.41,1.41,0,0,0-1.371,1.084l-7.032,29.648L83.248,152.7l.61,1.137Z" fill="#455a64"/>
        <path id="Trazado_237003" data-name="Trazado 237003" d="M137.385,151.69l5.557-29.363-33.761.2-7.415,29.2Z" fill="#ebebeb"/>
        <path id="Trazado_237004" data-name="Trazado 237004" d="M101.739,151.753l.007-.026,7.418-29.216h.017l33.786-.205,0,.026-5.56,29.379h-.017Zm7.458-29.2-7.4,29.159,35.575-.042,5.549-29.32Z" fill="#263238"/>
        <path id="Trazado_237005" data-name="Trazado 237005" d="M137.352,151.894c0,.12-9.879.217-22.063.217s-22.064-.1-22.064-.217,9.877-.217,22.064-.217,22.063.1,22.063.217" fill="#263238"/>
        <path id="Trazado_237006" data-name="Trazado 237006" d="M135.023,144.48a1.693,1.693,0,0,1-.441.044l-1.265.04-4.653.069c-3.929.04-9.357.064-15.351.064l-4.926-.006h-.273l.068-.263c1.195-4.623,2.239-8.663,3-11.622l.919-3.391a8.13,8.13,0,0,1,.381-1.213,8.456,8.456,0,0,1-.239,1.248c-.2.861-.469,2.011-.8,3.423-.728,2.967-1.721,7.021-2.858,11.658l-.2-.262,4.926-.006c5.994,0,11.422.024,15.351.064l4.653.069,1.265.04a1.692,1.692,0,0,1,.441.044" fill="#455a64"/>
        <path id="Trazado_237007" data-name="Trazado 237007" d="M110.567,143.365l.632-2.832h4.345l-.556,2.832Z" fill="#8c5be1"/>
        <path id="Trazado_237008" data-name="Trazado 237008" d="M116.476,143.365l1.312-5.574h4.345l-1.236,5.574Z" fill="#8c5be1"/>
        <path id="Trazado_237009" data-name="Trazado 237009" d="M122.384,143.365l.632-2.832h4.345l-.556,2.832Z" fill="#8c5be1"/>
        <path id="Trazado_237010" data-name="Trazado 237010" d="M128.292,143.365l2.488-10.829h4.345l-2.412,10.829Z" fill="#8c5be1"/>
        <path id="Trazado_237011" data-name="Trazado 237011" d="M113.976,146.531a7.21,7.21,0,0,1-3.507-.033,7.21,7.21,0,0,1,3.507.033" fill="#455a64"/>
        <path id="Trazado_237012" data-name="Trazado 237012" d="M119.7,146.521a7.21,7.21,0,0,1-3.507-.033,7.21,7.21,0,0,1,3.507.033" fill="#455a64"/>
        <path id="Trazado_237013" data-name="Trazado 237013" d="M125.431,146.512a7.209,7.209,0,0,1-3.507-.033,7.21,7.21,0,0,1,3.507.033" fill="#455a64"/>
        <path id="Trazado_237014" data-name="Trazado 237014" d="M131.158,146.5a7.21,7.21,0,0,1-3.507-.033,7.21,7.21,0,0,1,3.507.033" fill="#455a64"/>
        <path id="Trazado_237015" data-name="Trazado 237015" d="M122.736,126.928a27.409,27.409,0,0,1-4.862.217,27.409,27.409,0,0,1-4.862-.217,27.407,27.407,0,0,1,4.862-.217,27.407,27.407,0,0,1,4.862.217" fill="#455a64"/>
        <path id="Trazado_237016" data-name="Trazado 237016" d="M117.623,125.725a10.814,10.814,0,0,1-4.311,0,10.814,10.814,0,0,1,4.311,0" fill="#455a64"/>
        <path id="Trazado_237017" data-name="Trazado 237017" d="M108.309,171.7l19.875-14.386-.739-1.2a9.59,9.59,0,0,0-4.645-3.9l-3.108.558-18.427,2.807Z" fill="#8c5be1"/>
        <path id="Trazado_237018" data-name="Trazado 237018" d="M37.653,168.389l16.512-6.561-3.686-13.677-13.457,4.575Z" fill="#8c5be1"/>
        <path id="Trazado_237019" data-name="Trazado 237019" d="M107.622,172.081c4.115-2.044,5.172-6.954,3.162-11.085L93.674,124.43a6.6,6.6,0,0,0-1.721-2.36A19.35,19.35,0,0,0,77.8,117.223l-17.844-.467s-14.016,0-19.275,11.047c-.384.809-8.533,16.969-13.9,27.617a9.213,9.213,0,1,0,16.632,7.918l5.836-13.01,3.674,18.636L47.63,184.322l44.242.607-3.4-20.545-1.075-14.649,8.974,18.5a8.368,8.368,0,0,0,11.253,3.843" fill="#8c5be1"/>
        <g id="Grupo_184122" data-name="Grupo 184122" opacity="0.2">
          <g id="Grupo_184121" data-name="Grupo 184121">
            <g id="Grupo_184120" data-name="Grupo 184120" clip-path="url(#clip-path-6)">
              <path id="Trazado_237020" data-name="Trazado 237020" d="M54.413,168.607c3.35,2.507,8.283,1.671,12.41.985a17.91,17.91,0,0,0,10.808-5.854,7.267,7.267,0,0,0,2.007-5.109c-.164-1.871-1.818-3.677-3.683-3.453-2.138.257-3.169,2.654-4.2,4.545a16.578,16.578,0,0,1-17.273,8.111s-.667.329-.071.775"/>
            </g>
          </g>
        </g>
        <g id="Grupo_184125" data-name="Grupo 184125" opacity="0.2">
          <g id="Grupo_184124" data-name="Grupo 184124">
            <g id="Grupo_184123" data-name="Grupo 184123" clip-path="url(#clip-path-7)">
              <path id="Trazado_237021" data-name="Trazado 237021" d="M81.731,139.815c1.042,8.416.576,7.776,2.332,16.073.863,4.081,1.912,8.34,4.727,11.419L87.4,149.735Z"/>
            </g>
          </g>
        </g>
        <path id="Trazado_237022" data-name="Trazado 237022" d="M47.63,184.322l-1.268-3.694,3.3-2.2,40.583-3.347,2.862,5.376-1.232,4.467Z" fill="#8c5be1"/>
        <path id="Trazado_237023" data-name="Trazado 237023" d="M56.009,114.691a6.053,6.053,0,0,0-2.819,9.035,2.953,2.953,0,0,1,.774,1.676c-.079,1.5-2.5,1.54-3.264,2.831a2.325,2.325,0,0,0,.648,2.712,18.54,18.54,0,0,0,2.5,1.669,3.045,3.045,0,0,1,1.532,2.439c.847-.023,1.347-1.048,1.218-1.885a8.248,8.248,0,0,0-1.041-2.3,2.418,2.418,0,0,1-.1-2.415c.554-.788,1.682-.82,2.58-1.168a3.6,3.6,0,0,0,1.906-4.633c-.544-1.218-1.812-2.449-1.195-3.632.344-.659,1.135-.911,1.786-1.271a4.646,4.646,0,0,0,.6-7.736" fill="#263238"/>
        <path id="Trazado_237024" data-name="Trazado 237024" d="M49.137,152.111a10.921,10.921,0,0,1-.9,2.078c-.615,1.254-1.516,2.963-2.6,4.8s-2.154,3.447-2.958,4.59a11.028,11.028,0,0,1-1.389,1.788,12.587,12.587,0,0,1,1.133-1.958c.737-1.183,1.757-2.814,2.84-4.641s2.021-3.506,2.7-4.721a12.575,12.575,0,0,1,1.171-1.935" fill="#263238"/>
        <path id="Trazado_237025" data-name="Trazado 237025" d="M45.243,159.13a7.093,7.093,0,0,1-1.831,5.716c-.107-.074.641-1.212,1.137-2.787.511-1.57.564-2.931.694-2.929" fill="#263238"/>
        <path id="Trazado_237026" data-name="Trazado 237026" d="M110.062,159.681c-.11.05-3.571-7.192-7.73-16.175S94.887,127.2,95,127.147s3.569,7.191,7.73,16.177,7.444,16.307,7.336,16.357" fill="#263238"/>
        <path id="Trazado_237027" data-name="Trazado 237027" d="M88.984,122.327c.026.069-.746.341-1.848,1.029a11.491,11.491,0,0,0-5.363,8.17c-.192,1.285-.135,2.1-.209,2.1a5.477,5.477,0,0,1-.1-2.142,10.726,10.726,0,0,1,5.513-8.4,5.453,5.453,0,0,1,2-.764" fill="#263238"/>
        <path id="Trazado_237028" data-name="Trazado 237028" d="M52.867,169.146c-.117.026-2.107-8.451-4.444-18.932s-4.138-19-4.021-19.029,2.106,8.449,4.444,18.934,4.138,19,4.021,19.027" fill="#263238"/>
        <path id="Trazado_237029" data-name="Trazado 237029" d="M128.185,157.309l8.067-3.47H125.506l2.347,3.042" fill="#aa6550"/>
        <path id="Trazado_237030" data-name="Trazado 237030" d="M111.611,158.206a14.045,14.045,0,0,1-1.957-1.839,14.086,14.086,0,0,1-1.9-1.9,9.431,9.431,0,0,1,3.853,3.741" fill="#263238"/>
        <path id="Trazado_237031" data-name="Trazado 237031" d="M96.739,168.918a7.6,7.6,0,0,1-.679-1.122c-.414-.734-.991-1.809-1.691-3.144-1.4-2.668-3.262-6.392-5.3-10.511s-3.907-7.837-5.292-10.51l-1.641-3.167a7.578,7.578,0,0,1-.561-1.185,7.678,7.678,0,0,1,.709,1.1c.434.723,1.036,1.784,1.763,3.1,1.456,2.64,3.371,6.34,5.41,10.462,2.009,4.092,3.826,7.794,5.186,10.566l1.567,3.2a7.619,7.619,0,0,1,.529,1.2" fill="#263238"/>
        <path id="Trazado_237032" data-name="Trazado 237032" d="M80.791,157.6c.015,0,.01.1-.012.291a6.46,6.46,0,0,1-.139.82,10.722,10.722,0,0,1-1.1,2.858,16.189,16.189,0,0,1-7.469,6.629,32.565,32.565,0,0,1-9.753,2.434c-1.279.144-2.315.228-3.032.276a5.447,5.447,0,0,1-1.118.028,5.607,5.607,0,0,1,1.1-.2l3.009-.412a35.493,35.493,0,0,0,9.612-2.525,16.557,16.557,0,0,0,7.383-6.386,15.99,15.99,0,0,0,1.52-3.817" fill="#263238"/>
        <path id="Trazado_237033" data-name="Trazado 237033" d="M71.892,179.064c.007.12-5.481.6-12.257,1.077s-12.281.764-12.288.644,5.478-.6,12.257-1.077,12.279-.763,12.288-.644" fill="#263238"/>
        <path id="Trazado_237034" data-name="Trazado 237034" d="M78.968,175.773a20.075,20.075,0,0,1,.884,8.4c-.125,0-.179-1.892-.426-4.2s-.581-4.171-.458-4.2" fill="#263238"/>
        <path id="Trazado_237035" data-name="Trazado 237035" d="M81.813,173.125a5.488,5.488,0,0,1,.369,1.676,21.226,21.226,0,0,1-.576,8.223,5.46,5.46,0,0,1-.6,1.609c-.13-.038.645-2.535.857-5.723.235-3.185-.186-5.766-.051-5.785" fill="#263238"/>
        <path id="Trazado_237036" data-name="Trazado 237036" d="M79.979,117.443c-.007.12-3.97-.006-8.85-.28s-8.834-.594-8.828-.714,3.969.006,8.852.281,8.833.593,8.826.713" fill="#263238"/>
      </g>
    </g>
  </g>
</svg>
