<svg id="Grupo_143187" data-name="Grupo 143187" xmlns="http://www.w3.org/2000/svg" xmlns:xlink="http://www.w3.org/1999/xlink" width="128" height="128.052" viewBox="0 0 128 128.052">
  <defs>
    <clipPath id="clip-path">
      <rect id="Rectángulo_35906" data-name="Rectángulo 35906" width="128" height="128.052" fill="none"/>
    </clipPath>
  </defs>
  <g id="Grupo_134232" data-name="Grupo 134232" clip-path="url(#clip-path)">
    <path id="Trazado_127974" data-name="Trazado 127974" d="M83.907,0a34.142,34.142,0,0,0,4.977.73,62.661,62.661,0,0,1,27.771,11.494c-.494.52-1.149.422-1.755.413-3.153-.047-6.305-.033-9.458-.032a5.234,5.234,0,0,0-1.482.1,13.193,13.193,0,0,0-11.443,9.233,19.736,19.736,0,0,0-.77,5.66,21.3,21.3,0,0,1-.131,3.109,3.572,3.572,0,0,0-.111.863c-.09,1.65-.329,1.848-1.876,1.422a25.078,25.078,0,0,0-6.894-.867c-2.985.023-5.973-.172-8.953.112a29.6,29.6,0,0,0-6.226,1.026c-1.021-.017-1.134-.752-1.255-1.533a22.053,22.053,0,0,0-6.808-13,23.472,23.472,0,0,0-15.807-6.4,2.36,2.36,0,0,1-1.557-.288c-.092-.806.583-1.045,1.072-1.373A64.945,64.945,0,0,1,61.2,2.214,44.578,44.578,0,0,1,74.069.127.511.511,0,0,0,74.406,0h2a3.255,3.255,0,0,0,2,0h1.5a3.253,3.253,0,0,0,2,0Z" transform="translate(-15.156)" fill="#25e0ac"/>
    <path id="Trazado_127975" data-name="Trazado 127975" d="M5.452,118.07A60.693,60.693,0,0,1,.484,100.228,6.612,6.612,0,0,0,0,97.616v-1.5c.271-.48.063-1,.129-1.5-.065-.5.142-1.02-.129-1.5v-1.5a3.253,3.253,0,0,0,0-2v-2.25c.3-2.207.2-4.456.7-6.641.145-.636.115-1.338.642-1.842.036-.019.084-.061.108-.051a26.341,26.341,0,0,1,4.038,2.021,56.037,56.037,0,0,1,.149,6.822c.044,1.769.036,1.782,1.817,1.8,2.983.031,5.967-.079,8.948.06a25.436,25.436,0,0,1,5.455,2.725c.021.577-.468.733-.834.964-1.01.638-2.084,1.172-3.052,1.88a19.326,19.326,0,0,0-6.059,3.36,16.946,16.946,0,0,0-6.056,12.5c-.1,1.862,0,3.734-.025,5.6-.006.52.127,1.1-.375,1.5" transform="translate(0 -28.365)" fill="#25e0ac"/>
    <path id="Trazado_127976" data-name="Trazado 127976" d="M5.228,75.042a5.986,5.986,0,0,1-3.721-1.778C.358,72.816.367,71.673,0,70.756v-2.75c.839-1.82,1.862-3.455,3.922-4.13.23-.076.373-.416.556-.634.689.305,1.469.074,2.163.359a.438.438,0,0,1,.219.3,9.157,9.157,0,0,1-.448,2.572,1.613,1.613,0,0,1-.978,1.207,1.794,1.794,0,0,0-1.3,1.664,1.641,1.641,0,0,0,1.341,1.6,1.167,1.167,0,0,1,.877.961c.145,1.076.817,2.109.294,3.247a1.308,1.308,0,0,1-1.42-.107" transform="translate(0 -22.756)" fill="#f5c9ad"/>
    <path id="Trazado_127977" data-name="Trazado 127977" d="M103.144,0a1.869,1.869,0,0,1-2,0Z" transform="translate(-36.394)" fill="#fee671"/>
    <path id="Trazado_127978" data-name="Trazado 127978" d="M97.677,0a1.869,1.869,0,0,1-2,0Z" transform="translate(-34.427)" fill="#fee671"/>
    <path id="Trazado_127979" data-name="Trazado 127979" d="M0,95.679a1.869,1.869,0,0,1,0,2Z" transform="translate(0 -34.428)" fill="#fee671"/>
    <path id="Trazado_127980" data-name="Trazado 127980" d="M.244,103.446c-.081.5.224,1.06-.244,1.5v-1.5c.083-.115.165-.113.244,0" transform="translate(0 -37.19)" fill="#fee986"/>
    <path id="Trazado_127981" data-name="Trazado 127981" d="M.244,102.65c-.081,0-.163,0-.244,0v-1.5c.449.442.176,1,.244,1.5" transform="translate(0 -36.395)" fill="#fee56e"/>
    <path id="Trazado_127982" data-name="Trazado 127982" d="M169.168,126.617a60.686,60.686,0,0,1-8.814,14.258,63.768,63.768,0,0,1-22.025,17.342,3.219,3.219,0,0,1-.471.145,3.562,3.562,0,0,1-.241-1.951,36.575,36.575,0,0,0-.652-7.194,20.153,20.153,0,0,0-5.932-10.364c-.448-.421-1-.774-1.136-1.449-.166-4.613-.122-9.225-.028-13.834a2.557,2.557,0,0,1,.581-1.339,27.829,27.829,0,0,0,3.066-5.055,1.01,1.01,0,0,1,.91-.719c.693.074,1.333.39,2.031.444a6.29,6.29,0,0,0,6.114-2.378c.38-.454.606-1.133,1.411-.971.888.505.769,1.287.561,2.082-.892,3.422-1.854,6.825-2.777,10.239q-1.336,4.94-2.7,9.872a2.6,2.6,0,0,0,.522,2.538c1.5,1.889,3,3.783,4.508,5.664.725.9.868.894,1.588.013,1.579-1.933,3.1-3.917,4.66-5.862a2.23,2.23,0,0,0,.412-2.2c-1.739-6.339-3.422-12.693-5.226-19.015a4.506,4.506,0,0,1,.672-4.452c.627-.766.882-1.8,1.74-2.407,1.248-.188,2.075.725,3.035,1.227,1.9.992,1.862,1.046,2.289-1.011.53-2.561,1.11-5.113,1.638-7.675a2.219,2.219,0,0,1,.52-1.244,1.707,1.707,0,0,1,1.446.1A18.554,18.554,0,0,1,169.289,118.9c0,2.572.067,5.146-.121,7.715" transform="translate(-46.7 -36.413)" fill="#dce7ec"/>
    <path id="Trazado_127983" data-name="Trazado 127983" d="M43.884,161.246a62.5,62.5,0,0,1-14.81-9.587,65.252,65.252,0,0,1-8.73-9.249,7.862,7.862,0,0,1-.515-.844,39.969,39.969,0,0,1-.112-4.976c-.013-4.986-.1-9.973.024-14.955a16.83,16.83,0,0,1,4.986-11.622,2.162,2.162,0,0,1,1.227-.8c.661.186.674.784.8,1.293.471,1.981.892,3.974,1.316,5.965.967,4.091,1.784,8.215,2.684,12.321a5.363,5.363,0,0,0,2.307,3.829,4.7,4.7,0,0,0,7.1-2.911c.595-2.469,1.085-4.961,1.614-7.445a5.879,5.879,0,0,1,.711-2.244c.855-.526,1.772.119,2.641-.143a2.656,2.656,0,0,0,.733-.13c2.119-.819,2.116-.348,2.92,1.252a25.536,25.536,0,0,0,8.895,9.863c.485.323,1,.6,1.177,1.224a17.554,17.554,0,0,1-.013,4.219c-.2.586-.716.766-1.228.942-1.1.378-2.192.763-3.3,1.1a1.463,1.463,0,0,0-1.159,1.286,28.579,28.579,0,0,0-5.369,5.528,19.893,19.893,0,0,0-3.39,9.914c-.12,1.744-.253,3.482-.238,5.231a1.276,1.276,0,0,1-.266.937" transform="translate(-7.079 -39.297)" fill="#66b9ec"/>
    <path id="Trazado_127984" data-name="Trazado 127984" d="M137.108,16.5a3.925,3.925,0,0,1,1.958-.2c3.7-.028,7.409-.028,11.113-.038,3.9.072,7.806.134,11.709.226a1.788,1.788,0,0,0,1.419-.608c1.4-1.424,2.848-2.8,4.212-4.25.558-.593.826-.5,1.328.065a13.894,13.894,0,0,1,.551,17.482c-.272.358-.667.639-.758,1.121-1.045,1.642-2.719,2.463-4.36,3.317a17.127,17.127,0,0,1-1.835.744,13.767,13.767,0,0,1-12.5-2.262,5.656,5.656,0,0,0-3.786-1.215c-2.986.07-5.974.022-8.962.024a3.21,3.21,0,0,1-1.486-.24,2.651,2.651,0,0,1-.332-2.262,13.741,13.741,0,0,1,8.46-11.3,4.93,4.93,0,0,1,.587-.2c.4-.124.824-.09,1.011-.166a62.4,62.4,0,0,1-7.574.111.857.857,0,0,1-.761-.35" transform="translate(-48.68 -4.039)" fill="#3d4159"/>
    <path id="Trazado_127985" data-name="Trazado 127985" d="M181.583,117.6c-.383-.385-.187-.869-.206-1.307-.135-3.115.328-6.258-.262-9.347-1.439-7.532-5.945-12.334-13.223-14.6a22.5,22.5,0,0,1-3.2-1.764.661.661,0,0,1-.391-.7c.3-.525.867-.616,1.352-.814a22.087,22.087,0,0,0,11.505-10.653c.264-.506.426-1.093.99-1.39.7-.137,1.288.378,1.972.312a5.6,5.6,0,0,0,4.038-.785,1.457,1.457,0,0,1,1.14-.38,64.835,64.835,0,0,1,1.8,16.672,63.7,63.7,0,0,1-4.988,23.366c-.193.458-.35.93-.524,1.4" transform="translate(-59.115 -27.398)" fill="#25e0ac"/>
    <path id="Trazado_127986" data-name="Trazado 127986" d="M125.1,157.537a20.626,20.626,0,0,1,7.358,12.887,57.73,57.73,0,0,1,.291,7.833,61.333,61.333,0,0,1-17.157,5.262,40.051,40.051,0,0,1,2.257-5.9c.7-1.778,1.4-3.559,2.155-5.314.282-.653.125-.869-.582-.935-1.68-.159-1.78-.36-1.186-1.927q2.188-5.768,4.413-11.524a2.752,2.752,0,0,1,.8-1.379c.906-.258,1.241.426,1.647,1" transform="translate(-41.594 -56.306)" fill="#3d4159"/>
    <path id="Trazado_127987" data-name="Trazado 127987" d="M57.492,178.267c.052-3.073-.121-6.163.57-9.194a20.158,20.158,0,0,1,8.582-12.556c.423.115.544.484.677.831,1.572,4.116,3.209,8.208,4.716,12.348.512,1.406.414,1.594-1.079,1.68-.975.056-.985.444-.681,1.191,1.348,3.311,2.744,6.6,4.087,9.915.138.339.4.643.321,1.05a60.094,60.094,0,0,1-17.193-5.264" transform="translate(-20.687 -56.318)" fill="#3d4159"/>
    <path id="Trazado_127988" data-name="Trazado 127988" d="M22.052,107.306a16.242,16.242,0,0,0-5.961,12.515c-.131,6.11-.029,12.225-.042,18.339,0,.477.183,1.006-.235,1.423a55.715,55.715,0,0,1-7.3-12.563c.014-1.789.109-3.581.029-5.364A17.583,17.583,0,0,1,21.155,103.7a3.587,3.587,0,0,1,.9,3.6" transform="translate(-3.065 -37.314)" fill="#2ba0ce"/>
    <path id="Trazado_127989" data-name="Trazado 127989" d="M119.6,154.779l-4.327,11.128c-.3.773-.553,1.57-.914,2.314-.4.814-.242,1.1.693,1.107,1.711.01,1.727.055,1.071,1.69q-2.015,5.02-4.068,10.026a4.671,4.671,0,0,1-.469.729,27.028,27.028,0,0,1-5.185.568c-2.1.255-2.27.051-1.586-1.911a12.007,12.007,0,0,0,.409-1.152c1.157-4.507,2.591-8.933,3.862-13.407.17-.6.358-1.193.512-1.8,1.015-3.3,1.967-6.626,2.937-9.943a5.4,5.4,0,0,1,1-2.393,2.36,2.36,0,0,1,1.7.163c1.312.4,2.628.8,3.9,1.313.736.3,1.273.757.47,1.565" transform="translate(-37.586 -54.56)" fill="#2a2f4f"/>
    <path id="Trazado_127990" data-name="Trazado 127990" d="M79.726,181.809c-1.12-1.334-1.418-3.059-2.137-4.584-1.007-2.136-1.807-4.369-2.7-6.559-.523-1.284-.511-1.306.841-1.317,1.474-.012,1.507-.024.978-1.42-1.661-4.383-3.348-8.757-5.026-13.134-.312-.625-.287-1.012.531-1.255,1.694-.5,3.353-1.131,5.025-1.707a.482.482,0,0,1,.569-.016,2.652,2.652,0,0,1,.6,1.339c1.068,3.742,2.178,7.471,3.3,11.2,1.31,4.651,2.742,9.266,4.063,13.914a13.383,13.383,0,0,1,.346,1.33c.106.309.209.619.315.928.618,1.816.394,2.086-1.521,1.852a26.977,26.977,0,0,1-5.185-.568" transform="translate(-25.727 -54.597)" fill="#2a2f4f"/>
    <path id="Trazado_127991" data-name="Trazado 127991" d="M92.449,186.869c1.78-.087,1.837-.187,1.131-1.9-.122-.294-.2-.606-.3-.909.882-3.967,2.05-7.862,2.981-11.817a2.766,2.766,0,0,0-.517-2.106,17.367,17.367,0,0,1-2.136-3.768,4.782,4.782,0,0,1,4.485-2.088c.736.348,1.394.833,2.116,1.207a1.111,1.111,0,0,1,.716.914,14.182,14.182,0,0,1-2.028,3.54,3.427,3.427,0,0,0-.487,2.936c.948,3.646,1.871,7.3,2.844,10.938-.121.344-.23.694-.365,1.033-.739,1.849-.693,1.933,1.195,2.017a15.94,15.94,0,0,1-4.692.193,17.808,17.808,0,0,1-4.941-.193" transform="translate(-33.265 -59.089)" fill="#3d4159"/>
    <path id="Trazado_127992" data-name="Trazado 127992" d="M177.926,44.785a22.787,22.787,0,0,0,5.973-3.766q.265,3.938.531,7.875a8.19,8.19,0,0,1,.394,3.254,4.611,4.611,0,0,1-.239,1.582c-1.34,1.1-3.034,1.271-4.627,1.641-.835.194-.926-.7-1.018-1.28q-.439-2.765-.841-5.536c-.126-.862-.267-1.721-.366-2.588a1.387,1.387,0,0,1,.191-1.183" transform="translate(-63.938 -14.76)" fill="#2a2f4f"/>
    <path id="Trazado_127993" data-name="Trazado 127993" d="M194.089,70.183a6.212,6.212,0,0,1-5.18,1.474c-.412-.878.144-1.692.17-2.541.032-1.063.835-1.387,1.618-1.823,1.11-.618,1.25-2.442.131-2.883-1.741-.685-1.8-2.081-2.021-3.495a2.02,2.02,0,0,1-.044-.862,1.256,1.256,0,0,1,1.685-.383,7.44,7.44,0,0,1,4.042,2.244c1.994,2.5,1.874,5.217-.4,8.269" transform="translate(-67.909 -21.413)" fill="#d2a389"/>
    <path id="Trazado_127994" data-name="Trazado 127994" d="M190.264,57.443l-1.538.247c-.695-.083-.188-.707-.446-.987q-.032-1.69-.063-3.382a21.708,21.708,0,0,1,2.047,4.121" transform="translate(-67.725 -19.187)" fill="#fbdd54"/>
    <path id="Trazado_127995" data-name="Trazado 127995" d="M34.09,18.941l.946-.278a26.071,26.071,0,0,1,10.338,1.843c8.042,3.5,12.862,9.554,14.25,18.261.076.475.093.93.715.976.062.421-.294.446-.541.544A19.554,19.554,0,0,0,52.785,45.1a3.169,3.169,0,0,1-1.59,1.143,14.608,14.608,0,0,1-4.188-.513c-.727-.259-1.463-.491-2.193-.737a14.96,14.96,0,0,1-9.235-10.982,13.454,13.454,0,0,1-10.852,7.678,2.614,2.614,0,0,1-1.934-.188c-.488-.855-.067-1.728.029-2.562.709-6.139,2.467-11.882,6.6-16.672a11.7,11.7,0,0,1,4.67-3.329" transform="translate(-8.118 -6.715)" fill="#cb7a3b"/>
    <path id="Trazado_127996" data-name="Trazado 127996" d="M86.793,49.07a4.539,4.539,0,0,1,1.969-.141c3.652.085,7.306-.205,10.956.166a19.855,19.855,0,0,1,3.869.833c.611.189.806.134.8-.532a4.207,4.207,0,0,1,.195-1.841,1.142,1.142,0,0,1,.336,1.138,1.8,1.8,0,0,0,1.371,2.047,15.849,15.849,0,0,1,3.676,2.3c.631.513,1.314.96,1.919,1.509a20.771,20.771,0,0,1,6.079,15.116c-.092,3.023.193,6.047-.061,9.067a1.186,1.186,0,0,1-.2.409,8.462,8.462,0,0,1-4.413.2c-.732-.092-.757-.8-.775-1.391-.045-1.541-.005-3.082-.021-4.623-.015-1.476-.106-1.56-1.6-1.835q-15.174-2.8-30.341-5.637a2.6,2.6,0,0,1-1.511-.509,2.031,2.031,0,0,1,.005-1.806,20.469,20.469,0,0,1,13.9-14.007c.561-.181,1.156-.133,1.6-.266a48.508,48.508,0,0,1-6.994.149.842.842,0,0,1-.762-.345" transform="translate(-28.365 -17.111)" fill="#3d4159"/>
    <path id="Trazado_127997" data-name="Trazado 127997" d="M79.982,49.916h8.546A21.853,21.853,0,0,0,78,55.462a18.385,18.385,0,0,0-4.7,6.932,9.849,9.849,0,0,0-.994,3.559,1.037,1.037,0,0,1-.871.269c-1.556-.256-3.1-.6-4.658-.844-1.156-.183-1.317-.074-1.326,1.12-.028,3.573-.008,7.146-.011,10.719,0,.5.015,1-.015,1.5-.077,1.257-.345,1.6-1.561,1.6s-2.492.337-3.658-.339a2.9,2.9,0,0,1-.3-1.686c0-3.022-.02-6.045,0-9.066a19.611,19.611,0,0,1,.779-4.4,22.094,22.094,0,0,1,2.856-6.269,3.02,3.02,0,0,1,1.267-1.317A23.223,23.223,0,0,1,72.2,51.655q.788-.336,1.578-.67a18.142,18.142,0,0,1,6.206-1.069" transform="translate(-21.553 -17.957)" fill="#2a2f4f"/>
    <path id="Trazado_127998" data-name="Trazado 127998" d="M124.364,43.25a18.252,18.252,0,0,0-4.669-2.747.861.861,0,0,1-.6-.951c0-.7-.02-1.4-.031-2.106a39.559,39.559,0,0,1,.545-7.666c1.127-5.353,6.361-9.97,11.664-10.316h9.295a13.8,13.8,0,0,0-10.73,14c-.621.613-1.41.362-2.133.391-1.409.058-1.522.118-1.756,1.537-.353,2.133-.616,4.28-.976,6.413-.09.529-.09,1.092-.6,1.442" transform="translate(-42.84 -7.004)" fill="#2a2f4f"/>
    <path id="Trazado_127999" data-name="Trazado 127999" d="M28.673,19.1c.067.09.439.136.214.227-4.4,1.769-6.669,5.449-8.5,9.482a37.882,37.882,0,0,0-2.947,12.779,1.081,1.081,0,0,1-.967.343A13.774,13.774,0,0,1,11.3,40.3c-.71-.415-.938-.305-1.053.568-.245,1.858-.145,3.717-.218,5.574-.02.5.262,1.21-.569,1.421v0a.887.887,0,0,0-.584-.121c-1.354-.039-1.354-.04-1.369-1.41.606-1,.326-2.111.317-3.164a23.416,23.416,0,0,1,3.486-13.152A22.685,22.685,0,0,1,28.673,19.1" transform="translate(-2.702 -6.872)" fill="#a25418"/>
    <path id="Trazado_128000" data-name="Trazado 128000" d="M7.324,61.642c.1,1.207,1.024,1.375,1.952,1.531-.755-.189-1.707.508-2.282-.506.109-.342.22-.683.33-1.025" transform="translate(-2.517 -22.18)" fill="#e9b498"/>
    <path id="Trazado_128001" data-name="Trazado 128001" d="M8.822,59.146c.44-.348.273-.839.271-1.271a53.834,53.834,0,0,1,.325-7.413,15.522,15.522,0,0,0,6.4,2.467,2.086,2.086,0,0,1,.323,1.547c.01,2.582,0,5.163,0,7.745a8.158,8.158,0,0,0,.442,2.885c1.467-.953,2.864-1.066,4.145.171a2.68,2.68,0,0,1,.611,3.1A2.98,2.98,0,0,1,18,70.18a19.465,19.465,0,0,0,5.512,7.488,20.74,20.74,0,0,0,8.329,4.383,6.948,6.948,0,0,0,3.688.1c.46-.127.964-.357,1.417.067a2.43,2.43,0,0,1,.083,1.819,2.354,2.354,0,0,1-1.741,1.083,25.087,25.087,0,0,1-5.663.878c-1.025.035-1.113.189-.713,1.111a6.239,6.239,0,0,0,2.35,2.69c.361.244.879.356.9.935-1.051.949-2.275.582-3.376.282a6.55,6.55,0,0,1-4.808-6.379,14.6,14.6,0,0,0-.137-2.468c-1.654-.9-3.463-1.5-5.059-2.52a14.4,14.4,0,0,1-5.139-4.4A16.547,16.547,0,0,1,11.2,71.5c-.374-.834-.726-1.394-1.74-.928a.512.512,0,0,1-.658-.2c-.154-.593-.357-1.177-.453-1.779-.152-.958-.166-1.763-1.474-2.134A1.8,1.8,0,0,1,6.671,63.2c1.574-.64,1.561-1.9,1.889-3.111.085-.314.174-.628.262-.942" transform="translate(-2.063 -18.158)" fill="#e9b498"/>
    <path id="Trazado_128002" data-name="Trazado 128002" d="M9.652,81.378c1.689-.825,2.287.12,2.98,1.533a21.687,21.687,0,0,0,7,7.749c-3.529.012-7.057.011-10.585.045-.673.006-.967-.176-.955-.906.044-2.78.038-5.561.051-8.342l1.514-.079" transform="translate(-2.91 -29.171)" fill="#a25418"/>
    <path id="Trazado_128003" data-name="Trazado 128003" d="M31.943,99.986c.822.213.465.889.458,1.346a8.083,8.083,0,0,0,1.291,4.959,5.981,5.981,0,0,0,6.482,2.193c.835.155.863.214.714,1.49-.3.578-.625.209-.882-.01a2.078,2.078,0,0,0-2.632-.127c-1.768,1-3.531,2.006-5.329,2.95-.362.19-.681.49-1.136.441q-.744-3.223-1.492-6.444c-.065-.277-.173-.543-.261-.814a9.89,9.89,0,0,0-.9-3.6c1.068-1.045,2.533-1.471,3.687-2.38" transform="translate(-10.167 -35.977)" fill="#d7d4cf"/>
    <path id="Trazado_128004" data-name="Trazado 128004" d="M75.92,75.022l.745-.05c2.916.782,5.908,1.181,8.868,1.742Q97.611,79,109.706,81.195c.737.134.717.507.715,1.024-.006,1.914.045,3.83-.022,5.742-.032.9.287,1.141,1.135,1.093,1.2-.068,2.412-.028,3.619-.034.511.5.307,1.155.383,1.75,0,1.2.029,2.408-.015,3.611a31.276,31.276,0,0,1-1.577,12.136,3.052,3.052,0,0,1-.281.688c-.917.244-.78,1.185-1.134,1.786-.965,1.634-2.016,3.2-3.12,4.743a4.945,4.945,0,0,1-1.438,2,29.228,29.228,0,0,1-5.807,4.294c-1.091.561-1.9,1.161-1.75,2.517a.666.666,0,0,1-.193.45.4.4,0,0,1-.34.02c-.026-.03-.05-.064-.079-.093-.435-.437.2-1.38-.563-1.523-.5-.093-1.053.382-1.6.554a3.432,3.432,0,0,1-.554.137c-4.307,1.579-8.082-.186-11.64-2.175a24.586,24.586,0,0,1-13-19.083,74.706,74.706,0,0,1-.212-13.838,25.5,25.5,0,0,1,2.812-10.784,2.449,2.449,0,0,1,.873-1.186" transform="translate(-25.914 -26.977)" fill="#f5c9ad"/>
    <path id="Trazado_128005" data-name="Trazado 128005" d="M152.924,114.079c-2.477,2.755-2.735,5.666-1.526,9.233,1.876,5.535,3.16,11.271,4.707,16.919a1.414,1.414,0,0,1-.193,1.481c-1.871,2.285-3.7,4.607-5.5,6.945-.478.62-.721.688-1.241,0-1.737-2.284-3.54-4.518-5.346-6.749a1.7,1.7,0,0,1-.339-1.709c1.906-6.927,3.76-13.868,5.671-20.794a1.739,1.739,0,0,0-.323-1.832.734.734,0,0,1-.356-.95,13.814,13.814,0,0,0,.26-3.924,1.027,1.027,0,0,1,.784-.587,1.627,1.627,0,0,1,.592-.015c1.053.494,2.269.759,2.812,1.98" transform="translate(-51.596 -40.329)" fill="#f64f4f"/>
    <path id="Trazado_128006" data-name="Trazado 128006" d="M115.977,144.8c0-.5.029-1,0-1.49a1.1,1.1,0,0,1,.71-1.166,27.566,27.566,0,0,0,8.54-6.623q.007,7.237.013,14.473l-1.492-1.011c.255-.654.248-1.066-.623-1.3-1.816-.479-3.593-1.109-5.386-1.676a1.87,1.87,0,0,1-1.76-1.211" transform="translate(-41.729 -48.763)" fill="#bed4dd"/>
    <path id="Trazado_128007" data-name="Trazado 128007" d="M147.637,110.028a6.432,6.432,0,0,1,.026,3.622c-.108.428-.335.846-.077,1.294-.737.029-.844.727-1.162,1.159-1.342,1.823-4.342,2.969-6.322,2.354-.326-1.44.243-2.754.611-4.088.108-.392.57-.442.923-.553a2.03,2.03,0,0,0,1.531-1.907,1.849,1.849,0,0,0-1.43-1.952,1.86,1.86,0,0,1-1.36-1.721c-.156-1.009-.632-1.976-.372-3.037.684-.66,1.5-.385,2.282-.313a6.893,6.893,0,0,1,5.518,4.586,1.07,1.07,0,0,1-.166.558" transform="translate(-50.349 -37.697)" fill="#f5c9ad"/>
    <path id="Trazado_128008" data-name="Trazado 128008" d="M156.691,108.829a13.269,13.269,0,0,0-2.828-1.762c.138-.707.8-.546,1.24-.755a6.224,6.224,0,0,0,4.686-5.892,6.661,6.661,0,0,1,.237-2.822.376.376,0,0,1,.533,0c1.061,1,2.6,1.3,3.581,2.425-.73,3.465-1.483,6.927-2.175,10.4-.16.8-.387.924-1.114.541a21.932,21.932,0,0,0-4.16-2.139" transform="translate(-55.364 -35.079)" fill="#bed4dd"/>
    <path id="Trazado_128009" data-name="Trazado 128009" d="M138.984,105.393c.252,1.209.54,2.412.736,3.63.081.5.357.549.739.65a2.366,2.366,0,0,1-.134,4.694c-.487.118-.535.368-.608.765-.214,1.174-.482,2.339-.729,3.507a3.931,3.931,0,0,1-2-.531.93.93,0,0,1-.053-.931,30.085,30.085,0,0,0,1.56-11.805.337.337,0,0,1,.49.02" transform="translate(-49.237 -37.881)" fill="#e9b499"/>
    <path id="Trazado_128010" data-name="Trazado 128010" d="M169.563,131.083c-1.246,0-2.493-.043-3.736.015-.84.039-1.126-.294-1.042-1.088a7.1,7.1,0,0,0,0-1.12c-.032-.583.223-.814.807-.811,2.7.015,5.4.019,8.1,0,.663-.006.9.272.852.894a4.079,4.079,0,0,0,0,.871c.14.987-.257,1.325-1.249,1.262-1.241-.079-2.49-.019-3.735-.019" transform="translate(-59.289 -46.085)" fill="#bed4dd"/>
    <path id="Trazado_128011" data-name="Trazado 128011" d="M69.392,74.352a48.674,48.674,0,0,0-2.652,6.69,33.124,33.124,0,0,0-.8,6.754,83.34,83.34,0,0,0,.215,11.818,24.253,24.253,0,0,0,4.922,12.445,25.528,25.528,0,0,0,14.264,9.393c1.89.492,3.581-.009,5.343-.374a2.818,2.818,0,0,1,.158,2.33,2.135,2.135,0,0,1-1.452.869,23.376,23.376,0,0,1-7.231,1.12c-1.22-.01-1.338.159-.892,1.285a6.458,6.458,0,0,0,2.844,3.352c.449.257,1.035.4,1.136,1.051a.638.638,0,0,1-.589.486c-.978-.28-1.995.174-2.938-.065a7.37,7.37,0,0,1-4.32-2.724,7.874,7.874,0,0,1-1.617-4.853,4.686,4.686,0,0,0-.262-2.55c-.991-.8-2.312-.9-3.363-1.581-.449-.29-1-.437-1.243-.982a25.409,25.409,0,0,1-10.476-11.458c-.32-.7-.643-.977-1.394-.572a2.108,2.108,0,0,1-1.413.311c-.7-.614-.639-1.507-.794-2.3a2.162,2.162,0,0,0-1.427-1.952,2.444,2.444,0,0,1-1.526-2.378,2.288,2.288,0,0,1,1.41-2.3A2.371,2.371,0,0,0,56.841,96a8.481,8.481,0,0,1,.576-2.159,2.931,2.931,0,0,0,.38-1.652c-.024-1.076.016-2.151-.052-3.225a.639.639,0,0,1,.4-.661c1.205.012,2.415-.026,3.616.053.885.058,1.119-.252,1.111-1.118-.042-4.326,0-8.653-.036-12.979-.009-.955.115-1.344,1.219-1.045,1.755.475,3.609.528,5.34,1.143" transform="translate(-19.387 -26.307)" fill="#e9b498"/>
    <path id="Trazado_128012" data-name="Trazado 128012" d="M32.4,118.288a57.819,57.819,0,0,1,7.233-4.07c1.063-.522,1.849.283,2.5,1.077.378.289.332.737.4,1.131a6.276,6.276,0,0,0,3.581,4.609c.391.2.893.259,1.059.772-.684,3.206-1.353,6.416-2.058,9.618a5.25,5.25,0,0,1-4.9,4.084,5.126,5.126,0,0,1-4.991-3.951c-1-4.411-1.888-8.847-2.823-13.271" transform="translate(-11.658 -41.039)" fill="#f1efeb"/>
    <path id="Trazado_128013" data-name="Trazado 128013" d="M50.211,117.863c-3.063-1.1-5-3.072-5.041-6.513-.129-.591.439-1.368-.47-1.75a7.175,7.175,0,0,1-3.717-3.945c-.289-.773-.2-1.1.743-1.079a20.135,20.135,0,0,0,7.032-1.152,5.249,5.249,0,0,0,.665-.335,1.448,1.448,0,0,0,2.071,1.117,1.3,1.3,0,0,1,1.454.4c-.252,1.211-.54,2.417-.737,3.637-.081.5-.37.54-.746.645a2.445,2.445,0,0,0-2,2.376c-.036,1.081.8,1.962,2.164,2.321a.676.676,0,0,1,.579.658c.218,1.218.481,2.427.728,3.639-.912.439-1.816-.044-2.723-.021" transform="translate(-14.694 -37.094)" fill="#f5c9ad"/>
    <path id="Trazado_128014" data-name="Trazado 128014" d="M80.476,144.506l4.722,2.171a9.536,9.536,0,0,1-4.273,2.582l-.459-.028q0-2.363.01-4.726" transform="translate(-28.954 -51.997)" fill="#fde052"/>
    <path id="Trazado_128015" data-name="Trazado 128015" d="M151.9,77.423l-.4-.006a5.156,5.156,0,0,1-.618.494,6.246,6.246,0,0,1-4.262.242,25.051,25.051,0,0,1-8.961-4.493,3.575,3.575,0,0,1-1.6-3.4,10.841,10.841,0,0,0-.053-3.1,20.887,20.887,0,0,0-6.082-14.7,2.747,2.747,0,0,1,.1-1.821,24.064,24.064,0,0,1,3.548-7.736,3.366,3.366,0,0,1,1.636-1.455q5.369-.019,10.738-.041a1.412,1.412,0,0,1,1.032.326,13.972,13.972,0,0,0,13.471,3.182.86.86,0,0,1,.248.01c.511,3.465,1.022,6.931,1.542,10.454l4.972-1.464c.723,1.281.335,2.673.332,4.006a18.245,18.245,0,0,1-1.154,5.694,2.038,2.038,0,0,1-.684,1.011,22.823,22.823,0,0,1-13.8,12.8" transform="translate(-46.702 -14.9)" fill="#d2a388"/>
    <path id="Trazado_128016" data-name="Trazado 128016" d="M134.321,41.424a22.445,22.445,0,0,0-5.285,11.011l-1.69-1.314c.406-2.657.835-5.31,1.209-7.971.246-1.752.209-1.752,2.022-1.76.746,0,1.492-.034,2.239-.052l1.506.086" transform="translate(-45.822 -14.874)" fill="#be8d75"/>
    <path id="Trazado_128017" data-name="Trazado 128017" d="M185.881,70.813A25.932,25.932,0,0,0,187.387,60.1q.027-.75.053-1.5c.31.256.038.775.446.987q.132.666.265,1.333c.235,1.166.168,2.438,1.835,2.782.75.154.937,1.073.905,1.879a1.686,1.686,0,0,1-1.122,1.766,1.708,1.708,0,0,0-1.445,1.93,10,10,0,0,1-.44,2.05c-.749.143-1.321-.4-2-.517" transform="translate(-66.884 -21.087)" fill="#be8e75"/>
    <path id="Trazado_128018" data-name="Trazado 128018" d="M104.258,184.932c-.519.042-.448-.38-.525-.677-.955-3.691-1.9-7.386-2.872-11.072a1.774,1.774,0,0,1,.308-1.515c.889-1.4,1.764-2.813,2.645-4.22a.59.59,0,0,1,.693-.056,18.7,18.7,0,0,1,4.035,2.332c-.749,3.452-1.949,6.776-2.874,10.178-.456,1.68-.939,3.354-1.409,5.03" transform="translate(-36.27 -60.201)" fill="#66b9ec"/>
    <path id="Trazado_128019" data-name="Trazado 128019" d="M108.659,162.748c-1.715-.47-3.011-1.81-4.728-2.276-.782-.819-1.912-1.1-2.78-1.78-.129-.465.353-.249.479-.429l.524-.264c.274-.355.72-.382,1.082-.567a6.858,6.858,0,0,0,4.078-5.787,1.757,1.757,0,0,1,.313-1.167q.029-1.242.056-2.483l.466-.078a3.166,3.166,0,0,1,2.259,1.25l.229.093,1.76,1.211q-1.629,5.514-3.259,11.026a3.011,3.011,0,0,1-.478,1.251" transform="translate(-36.389 -53.224)" fill="#2ba0ce"/>
    <path id="Trazado_128020" data-name="Trazado 128020" d="M91.751,167.45c.859,1.374,1.7,2.759,2.586,4.116a2.1,2.1,0,0,1,.293,1.864c-.965,3.564-1.855,7.148-2.777,10.724-.1.38-.015.869-.545,1.024q-1.949-6.751-3.9-13.5c-.16-.556-.282-1.124-.422-1.686a.437.437,0,0,1,.228-.525,34.064,34.064,0,0,1,3.831-2.072.62.62,0,0,1,.7.057" transform="translate(-31.294 -60.203)" fill="#66b9ec"/>
    <path id="Trazado_128021" data-name="Trazado 128021" d="M89.669,160.465A26.988,26.988,0,0,0,84.908,163L81.183,150.48l4.273-2.582c.746.182.457.791.465,1.229.031,1.657-.109,3.331.659,4.886,1.619,3.279,4.353,4.491,7.873,4.242l-.479.429a1.308,1.308,0,0,0-1.393-.022,17.491,17.491,0,0,0-2.912,1.8" transform="translate(-29.212 -53.217)" fill="#2ba0ce"/>
    <path id="Trazado_128022" data-name="Trazado 128022" d="M46.468,76.751l-.255.467c-.36.895-1.3.846-1.988,1.212a6.171,6.171,0,0,1-1.24.481.611.611,0,0,1-.528-.149c-2.911,1.191-5.628.277-8.245-.906A21.067,21.067,0,0,1,23.06,66.344c1.053.194,2.013.346,2.851-.4a2.55,2.55,0,0,0,.456-3.65,2.485,2.485,0,0,0-3.723-.351c-.205.164-.344.554-.7.341-.289-.173-.2-.515-.234-.8-.513-3.977-.132-7.971-.242-11.955l.983-.059c6.062.024,10.277-2.836,12.87-8.454a14.9,14.9,0,0,0,9.123,11.766c-.035.625-.571.472-.919.562a3.425,3.425,0,0,0-1.614.841c-1,.981-.949,1.539.2,2.5a2.21,2.21,0,0,1-.007.865A2.093,2.093,0,0,0,44.151,60c1.323-.01,2.058-.926,1.974-2.46-.009-.166-.058-.328-.079-.493a1.081,1.081,0,0,1,.026-.348c1.259-.972,1.257-.971.369-2.44-.139-.23-.391-.444-.182-.76a.12.12,0,0,1,.093-.033.462.462,0,0,1,.115.04l4.507.529A25.148,25.148,0,0,0,47.161,61.5c-1.351,1.23-1.78,2.618-.728,4.258q.017,5.495.035,10.99" transform="translate(-7.712 -14.76)" fill="#f5c9ad"/>
    <path id="Trazado_128023" data-name="Trazado 128023" d="M52.814,63.421c-.282-.535-1.474.023-1.283-1.132a3.627,3.627,0,0,1,2.682-2.655c.354-.062.762.113,1.052-.235a6.379,6.379,0,0,1,2.024.72c-.055.782.821,1.019.978,1.714.17.744.483,1.428-.758,1.306a.524.524,0,0,0-.5.31.773.773,0,0,1-.632-.256c-1.178-.85-1.594-.865-2.785-.082-.24.157-.45.378-.777.31" transform="translate(-18.535 -21.373)" fill="#e9b498"/>
    <path id="Trazado_128024" data-name="Trazado 128024" d="M139.485,81.632a4.584,4.584,0,0,1,.164,2.683,3.67,3.67,0,0,0,1.712,3.588A24.06,24.06,0,0,0,151.4,92.569a8.09,8.09,0,0,0,3.04-.453,1.724,1.724,0,0,1-.523,2.727A22.233,22.233,0,0,1,147.7,95.96c-1.349.068-1.529.348-.9,1.574a6.561,6.561,0,0,0,2.287,2.405c.353.239.89.334.854.936-.344.351-.93.078-1.252.486l-.519-.019c-.238-.095-.556.054-.731-.236a9.22,9.22,0,0,0-2.939-3.381,10.031,10.031,0,0,0-2.271-.87c-.657-.538-.592-1.3-.64-2.034a6.238,6.238,0,0,0-.243-2.54c-.552-.483-1.4-.479-1.849-1.127l-.012-9.521" transform="translate(-50.19 -29.373)" fill="#be8d75"/>
    <path id="Trazado_128025" data-name="Trazado 128025" d="M139.465,96.5l1.953.734a1.961,1.961,0,0,1-2,1.214q-.009-.842-.019-1.684l.068-.264" transform="translate(-50.158 -34.724)" fill="#fbdd56"/>
    <path id="Trazado_128026" data-name="Trazado 128026" d="M59.941,77.275c-1.53-1.417-1.219-3.238.727-4.258q-.364,2.129-.727,4.258" transform="translate(-21.22 -26.273)" fill="#e7b398"/>
    <path id="Trazado_128027" data-name="Trazado 128027" d="M54.26,99.977l.479.006A8.216,8.216,0,0,1,58.26,102c-.033.538.191,1.163-.491,1.486a3.8,3.8,0,0,0-2.309.035c-1.14.348-1.3-.134-1.2-1.054a3.414,3.414,0,0,0-.016-.5l.015-1.993" transform="translate(-19.516 -35.974)" fill="#d7d4cf"/>
    <path id="Trazado_128028" data-name="Trazado 128028" d="M95.962,127.591a13.329,13.329,0,0,1-5.421-1.35c-.739-.316-1.339-.825-.9-1.731.41-.847,1.072-.682,1.792-.332a10.423,10.423,0,0,0,9.577-.02c.741-.363,1.39-.453,1.773.391s-.147,1.346-.85,1.655a13.792,13.792,0,0,1-5.972,1.387" transform="translate(-32.201 -44.58)" fill="#e9b499"/>
    <path id="Trazado_128029" data-name="Trazado 128029" d="M114.078,106.283a2.808,2.808,0,1,1-2.871-2.8,2.838,2.838,0,0,1,2.871,2.8" transform="translate(-39.027 -37.235)" fill="#3e4259"/>
    <path id="Trazado_128030" data-name="Trazado 128030" d="M88.314,106.273a2.808,2.808,0,1,1-5.615.021,2.808,2.808,0,0,1,5.615-.021" transform="translate(-29.757 -37.235)" fill="#3e4259"/>
    <path id="Trazado_128031" data-name="Trazado 128031" d="M97.688,116.124c-.832,0-1.669.058-2.495-.014-.783-.068-1.5-.351-1.46-1.346.038-1.033.751-1.141,1.574-1.132q2.433.028,4.868,0c.769-.008,1.465.086,1.536,1.036.073.971-.636,1.336-1.406,1.43a22.3,22.3,0,0,1-2.618.026" transform="translate(-33.727 -40.887)" fill="#e9b499"/>
    <path id="Trazado_128032" data-name="Trazado 128032" d="M139.426,98.865l2-1.214c.691.12.464.672.474,1.075a14.508,14.508,0,0,0,.305,3.893,7.579,7.579,0,0,0-2.292.029l-.49-.02q0-1.882,0-3.764" transform="translate(-50.168 -35.137)" fill="#bfd4dc"/>
    <path id="Trazado_128033" data-name="Trazado 128033" d="M114.353,148.811l-2.259-1.25a.974.974,0,0,1,.2-.143c2.068-.805,2.069-.8,2.061,1.394" transform="translate(-40.334 -52.867)" fill="#f6de5d"/>
    <path id="Trazado_128034" data-name="Trazado 128034" d="M151.91,112.052c.262.024.557-.057.731.236l-.693.361-.038-.6" transform="translate(-54.661 -40.319)" fill="#c5c3c9"/>
    <path id="Trazado_128035" data-name="Trazado 128035" d="M153.578,106.639c-1.531-.925-3.021-1.889-3.7-3.676-.529-1.4-.42-1.571,1.042-1.575a22.275,22.275,0,0,0,5.971-.914c1.63-.457,1.8-.881,1.186-2.595a.517.517,0,0,1,.538-.225c-.191,1.479.131,2.98-.277,4.459-.629,2.285-2.755,4.356-4.764,4.524" transform="translate(-53.826 -35.138)" fill="#d2a388"/>
    <path id="Trazado_128036" data-name="Trazado 128036" d="M105.634,151.919c.193,3.8-2.207,7.1-5.473,7.52-1.182-.867-2.667-1.362-3.4-2.779-.074-.144-.224-.249-.3-.392-.451-.842-1.131-1.823-.762-2.645.259-.58,1.437-.175,2.2-.195a27.125,27.125,0,0,0,7.738-1.51" transform="translate(-34.396 -54.664)" fill="#f5c9ad"/>
    <path id="Trazado_128037" data-name="Trazado 128037" d="M58.543,101.131a19.955,19.955,0,0,1-3.522-2.017c.976-.762,2.264-.863,3.277-1.549.529,1.158.118,2.381.245,3.566" transform="translate(-19.798 -35.106)" fill="#fee053"/>
    <path id="Trazado_128038" data-name="Trazado 128038" d="M150.223,79.824a13.131,13.131,0,0,1-5.391-1.406c-.538-.292-.931-.626-.622-1.264a1,1,0,0,1,1.362-.51c.944.3,1.837.715,2.82.946a8.838,8.838,0,0,0,5.555-.729,2.512,2.512,0,0,1,1.186-.318c.444.036.629.332.809.679.2.391-.019.627-.262.866a6.225,6.225,0,0,1-2.912,1.333,21.212,21.212,0,0,1-2.545.4" transform="translate(-51.851 -27.541)" fill="#be8e75"/>
    <path id="Trazado_128039" data-name="Trazado 128039" d="M143.088,60.826a2.623,2.623,0,0,1-2.556,2.527,2.53,2.53,0,0,1-.008-5.059,2.66,2.66,0,0,1,2.563,2.533" transform="translate(-49.676 -20.975)" fill="#3e4259"/>
    <path id="Trazado_128040" data-name="Trazado 128040" d="M165.855,60.5c.015,1.559-.615,2.464-1.931,2.773a2.5,2.5,0,0,1-2.8-1.349,2.467,2.467,0,0,1,.724-3.033,2.38,2.38,0,0,1,3.549.6.628.628,0,0,1-.288.186,2.375,2.375,0,0,1-.487.028.722.722,0,0,0-.81.588.6.6,0,0,0,.233.651c.387.277.688.075.962-.208a2.2,2.2,0,0,1,.361-.329.409.409,0,0,1,.483.1" transform="translate(-57.888 -20.992)" fill="#3e4259"/>
    <path id="Trazado_128041" data-name="Trazado 128041" d="M151.322,70.969c-.791,0-1.583.02-2.372-.006-.651-.022-1.195-.351-1.221-1.013a1.148,1.148,0,0,1,1.182-1.2c1.579-.06,3.164-.057,4.744,0,.634.022,1.265.267,1.244,1.1-.021.851-.549,1.136-1.329,1.123-.749-.013-1.5,0-2.248,0Z" transform="translate(-53.156 -24.723)" fill="#be8e75"/>
    <path id="Trazado_128042" data-name="Trazado 128042" d="M168.2,61.15h-.38a.748.748,0,0,1-.358-1l.282-.012a1.053,1.053,0,0,1,.455,1.011" transform="translate(-60.237 -21.639)" fill="#5f5e6e"/>
    <path id="Trazado_128043" data-name="Trazado 128043" d="M41.1,85.729a11.256,11.256,0,0,1-4.663-1.213c-.529-.269-1.086-.577-.724-1.332.35-.731.866-.716,1.545-.389a8.928,8.928,0,0,0,8.154-.024c.629-.307,1.107-.3,1.465.35.405.734-.089,1.085-.632,1.362A11.25,11.25,0,0,1,41.1,85.729" transform="translate(-12.808 -29.713)" fill="#e9b499"/>
    <path id="Trazado_128044" data-name="Trazado 128044" d="M28.128,63.231c-.5-.12-1.182.271-1.474-.316s.2-1.119.5-1.59a3.519,3.519,0,0,1,5.559-.567,3.184,3.184,0,0,1,.841,1.767c.123,1.038-1.046.423-1.282,1a.633.633,0,0,1-.561-.174,2.227,2.227,0,0,0-3-.241.767.767,0,0,1-.581.119" transform="translate(-9.559 -21.465)" fill="#e9b498"/>
    <path id="Trazado_128045" data-name="Trazado 128045" d="M28.813,64.7c1.662-1.356,2.677-1.283,4.142.3A2.445,2.445,0,0,1,30.2,68.477c-1.592-.443-2.159-1.889-1.385-3.773" transform="translate(-10.244 -22.938)" fill="#3f425a"/>
    <path id="Trazado_128046" data-name="Trazado 128046" d="M53.407,64.985c1.45-1.552,2.808-1.65,3.782-.276-.077.468-.532.293-.789.458a.663.663,0,0,0-.358.723.451.451,0,0,0,.307.359A.659.659,0,0,0,57.118,66c.214-.254.221-.631.5-.846a2.1,2.1,0,0,1-.566,2.861,2.2,2.2,0,0,1-2.771.154,2.246,2.246,0,0,1-1.006-2.7c.047-.159.087-.321.131-.481" transform="translate(-19.128 -22.937)" fill="#3e4259"/>
    <path id="Trazado_128047" data-name="Trazado 128047" d="M42.513,75.808c-.791,0-1.582.019-2.372-.008a.993.993,0,1,1,.024-1.983c1.581-.017,3.162,0,4.744-.01a1.02,1.02,0,0,1,1.1,1.1c.013.64-.506.9-1.121.9-.791,0-1.581,0-2.372,0" transform="translate(-14.07 -26.558)" fill="#e9b498"/>
    <path id="Trazado_128048" data-name="Trazado 128048" d="M58.982,65.694c-.006.164-.006.328-.019.492-.056.748-.44,1.161-1.209,1.064a.854.854,0,0,1-.794-1.059c.115-.705.493-1.127,1.3-.818.071.028.193-.077.291-.121.138.1.276.2.413.3a.223.223,0,0,0,.019.14" transform="translate(-20.49 -23.479)" fill="#f7f7f8"/>
    <path id="Trazado_128049" data-name="Trazado 128049" d="M114.078,107.643a1.14,1.14,0,0,1-1.221-1.127,1.193,1.193,0,1,1,2.384-.1,1.159,1.159,0,0,1-1.163,1.222" transform="translate(-40.607 -37.872)" fill="#f9f9fa"/>
    <path id="Trazado_128050" data-name="Trazado 128050" d="M88.034,107.641a1.158,1.158,0,0,1-1.168-1.212,1.1,1.1,0,0,1,1.176-1.178,1.113,1.113,0,0,1,1.207,1.262,1.133,1.133,0,0,1-1.214,1.128" transform="translate(-31.256 -37.872)" fill="#fbfbfb"/>
    <path id="Trazado_128051" data-name="Trazado 128051" d="M143.9,61c-.11.656-.462,1.086-1.158,1.031a.972.972,0,0,1-.965-1.076.99.99,0,0,1,1.136-1.031A1.031,1.031,0,0,1,143.9,61" transform="translate(-51.014 -21.56)" fill="#fafafb"/>
    <path id="Trazado_128052" data-name="Trazado 128052" d="M166.521,60.069a1.782,1.782,0,0,1,.358,1c-.13.752-.583,1.113-1.319.915a.95.95,0,0,1-.727-1.253c.264-.877.919-.965,1.688-.662" transform="translate(-59.293 -21.558)" fill="#fafafb"/>
    <path id="Trazado_128053" data-name="Trazado 128053" d="M33.99,66.234c-.116.631-.4,1.039-1.05,1.038a.894.894,0,0,1-.991-.993.929.929,0,0,1,.993-1.011c.632-.008.919.433,1.048.967" transform="translate(-11.496 -23.485)" fill="#f7f7f8"/>
  </g>
</svg>
