<svg id="Grupo_154333" data-name="Grupo 154333" xmlns="http://www.w3.org/2000/svg" xmlns:xlink="http://www.w3.org/1999/xlink" width="127.953" height="128.019" viewBox="0 0 127.953 128.019">
  <defs>
    <clipPath id="clip-path">
      <rect id="Rectángulo_45995" data-name="Rectángulo 45995" width="127.953" height="128.018" fill="none"/>
    </clipPath>
  </defs>
  <g id="Grupo_154333-2" data-name="Grupo 154333" clip-path="url(#clip-path)">
    <path id="Trazado_196506" data-name="Trazado 196506" d="M151.257,91.3c-.66,1.2-.485,2.562-.684,3.844a64.274,64.274,0,0,1-44.12,51.7c-.591-.189-.493-.712-.515-1.141-.047-.913,0-1.829-.021-2.744a6.149,6.149,0,0,0-5.369-6.067c-.4-.057-.85-.013-1.092-.456.559-1.854.177-3.717-.079-5.543a22.873,22.873,0,0,0-8.156-14.668c-.708-.6-1.672-.983-1.946-2.014a1.2,1.2,0,0,0-.815-1.235c-1.6-.77-3.194-1.548-4.756-2.388a1.4,1.4,0,0,0-1.691.138,11.025,11.025,0,0,1-4.559-2.65c.05-.613.595-.631.991-.777A29.192,29.192,0,0,0,93.656,94.536c.25-.415.41-.926.957-1.087a2.482,2.482,0,0,1,1.251.515A36.165,36.165,0,0,0,110.539,98.5c11.838,1.007,21.872-2.846,30.148-11.259a34.293,34.293,0,0,0,8.156-13.309c.189-.565.126-1.411,1.078-1.447.981,1.581.863,3.4,1.072,5.136.127,1.055.069,2.13.264,3.182v1.5c-.261.55-.067,1.133-.129,1.7.059.432-.134.89.129,1.3v1.249c-.261.4-.069.853-.129,1.277.065.489-.142,1,.129,1.474Z" transform="translate(-23.303 -21.809)" fill="#25e0ac"/>
    <path id="Trazado_196507" data-name="Trazado 196507" d="M14.89,105.018A61.552,61.552,0,0,1,1.507,77.634c-4.441-21.975.927-41.349,16.2-57.74C28.149,8.68,41.235,2.336,56.466.439A5.144,5.144,0,0,0,58.961,0h1c.166.182.388.113.591.129.3-.045.634.11.909-.129h5c.275.238.607.084.91.129.2-.015.424.053.591-.129h1c1.466.281,2.964.168,4.439.367a60.97,60.97,0,0,1,9.133,2A2.141,2.141,0,0,1,83.723,3c.024.875-.734.806-1.23.923a40.623,40.623,0,0,0-6.3,2.023,35.933,35.933,0,0,0-9.97,6.337,21.778,21.778,0,0,0-3.087,3.078,1.923,1.923,0,0,1-1.086.8,11.431,11.431,0,0,1-2.887-1.118A22.156,22.156,0,0,0,50.241,13.6c-4.072-.04-8.15-.122-12.217.027A21.88,21.88,0,0,0,25.963,17.9a23,23,0,0,0-9.548,15.491c-.144.864-.036,1.747-.238,2.606a42.257,42.257,0,0,0-.1,5.229c-.031,2.826,0,5.652.007,8.478.031,1.249.043,2.5,0,3.747-.025.818-.359,1.359-1.258,1.377a7.61,7.61,0,0,0-7.134,3.508,7.066,7.066,0,0,0-.306,7.582,7.335,7.335,0,0,0,6.6,4c.208,0,.416,0,.623,0a5.123,5.123,0,0,0,2.411-.546c.849-.409,1.314-.092,1.656.694a29.33,29.33,0,0,0,16.41,15.357c.443.169,1.012.187,1.194.775a13.613,13.613,0,0,1-4.788,2.883,1.505,1.505,0,0,0-1.734-.017c-1.418.758-2.9,1.386-4.368,2.029-.812.354-1.277.761-1.072,1.684-1.248,1.272-2.733,2.267-3.967,3.58a23.86,23.86,0,0,0-4.772,7.536c-.164.408-.222.9-.693,1.133" transform="translate(0)" fill="#25e0ac"/>
    <path id="Trazado_196508" data-name="Trazado 196508" d="M157.113,62.664a47.687,47.687,0,0,1-4.242,9.124,36.507,36.507,0,0,1-17.822,14.8c-10.627,4.131-21.059,3.465-31.213-1.691-.666-.338-1.293-.749-1.938-1.127a2.928,2.928,0,0,1,1-2.409c.731-.322,1.341.159,2,.3a5.406,5.406,0,0,0,1.442.243,7.485,7.485,0,0,0,1.883-.108c.41-.108.817-.23,1.228-.329a3.429,3.429,0,0,0,1.816-.965,2.6,2.6,0,0,1,1.953-1.056,43,43,0,0,0,7.014,1.022,29.041,29.041,0,0,0,9.827-1.3,28.5,28.5,0,0,0,19.418-22.545,29.893,29.893,0,0,0-.464-11.634,1.555,1.555,0,0,1-.009-.938c2.666-1.043,4.94-2.788,7.43-4.15a.56.56,0,0,1,.361.129,15.741,15.741,0,0,1,1.535,5.919,16.505,16.505,0,0,0,.265,2.3v1.5a.571.571,0,0,0,0,.75V54a.571.571,0,0,0,0,.75V56c-.358,1.4-.22,2.865-.593,4.256a5.765,5.765,0,0,1-.9,2.405" transform="translate(-30.649 -12.007)" fill="#f64f4f"/>
    <path id="Trazado_196509" data-name="Trazado 196509" d="M182.658,88.269c.1-.577-.26-1.219.242-1.741v1.75c-.085.112-.166.115-.242-.009" transform="translate(-54.946 -26.034)" fill="#70c99a"/>
    <path id="Trazado_196510" data-name="Trazado 196510" d="M182.9,95.86c-.473-.433-.157-.994-.24-1.491.076-.124.155-.121.24-.009Z" transform="translate(-54.949 -28.365)" fill="#6ec898"/>
    <path id="Trazado_196511" data-name="Trazado 196511" d="M182.906,93.857c-.08,0-.16,0-.24.009.042-.427-.174-.9.24-1.259Z" transform="translate(-54.953 -27.863)" fill="#55bf87"/>
    <path id="Trazado_196512" data-name="Trazado 196512" d="M182.664,89.018c.08.006.161.008.242.009v1.25c-.415-.354-.2-.833-.242-1.259" transform="translate(-54.953 -26.783)" fill="#53be84"/>
    <path id="Trazado_196513" data-name="Trazado 196513" d="M96.074.224c-.354,0-.74.147-1.012-.224h1c.078.045.107.094.085.145s-.047.079-.072.079" transform="translate(-28.601)" fill="#7bcda1"/>
    <path id="Trazado_196514" data-name="Trazado 196514" d="M87.441,0c-.272.371-.659.223-1.012.224-.073-.055-.1-.106-.068-.154S86.415,0,86.441,0Z" transform="translate(-25.98 0)" fill="#7bcda1"/>
    <path id="Trazado_196515" data-name="Trazado 196515" d="M182.907,60.819c-.369-.25-.317-.5,0-.75Z" transform="translate(-54.954 -18.073)" fill="#faa5a5"/>
    <path id="Trazado_196516" data-name="Trazado 196516" d="M182.91,54.741c-.313-.25-.357-.5,0-.75Z" transform="translate(-54.956 -16.244)" fill="#f99090"/>
    <path id="Trazado_196517" data-name="Trazado 196517" d="M96.5.224A2.013,2.013,0,0,1,96.492,0h.5c-.087.239-.283.241-.487.224" transform="translate(-29.032)" fill="#9ad9b7"/>
    <path id="Trazado_196518" data-name="Trazado 196518" d="M86.266,0a2,2,0,0,1-.013.224c-.2.016-.4.015-.487-.224Z" transform="translate(-25.804)" fill="#9ad9b7"/>
    <path id="Trazado_196519" data-name="Trazado 196519" d="M89.674,131.959c.037.477.4.7.735.945a23.481,23.481,0,0,1,9.5,15.593,22.435,22.435,0,0,1,.317,4.951c-.02.333.023.68-.389.819-.58-.348-.415-.935-.441-1.445a23.556,23.556,0,0,0-.141-2.6,2.86,2.86,0,0,0-4.328-2.109,3.508,3.508,0,0,0-1.319,3.075q.022,7.168,0,14.336a2.492,2.492,0,0,1-.4,1.9,56.6,56.6,0,0,1-15.045-.436,4,4,0,0,0,1.452-1.95c1.948-4.69,3.842-9.4,5.8-14.087.536-1.277.473-1.337-.97-1.426-1.422-.086-1.644-.382-1.163-1.695,1.863-5.082,3.852-10.116,5.8-15.166.112-.29.145-.68.594-.7" transform="translate(-23.516 -39.703)" fill="#3d4159"/>
    <path id="Trazado_196520" data-name="Trazado 196520" d="M86.892,130.161c-2.046,5.369-4.07,10.746-6.159,16.1-.361.924-.211,1.151.755,1.155,2.213.007,2.226.047,1.366,2.134-2,4.861-4.026,9.713-6.018,14.577-.282.69-.668,1.124-1.458,1.058a29.124,29.124,0,0,1-6.391-1.281c-.287-1.086.354-2,.559-3a15.773,15.773,0,0,1,.417-1.565c1.627-5.909,3.363-11.787,5-17.692,1.306-4.274,2.411-8.606,3.673-12.894a4.9,4.9,0,0,1,.808-2.058c.278-.641.584-.942,1.365-.513,1.845,1.012,3.739,1.937,5.636,2.848.566.273.757.569.447,1.128" transform="translate(-20.734 -37.905)" fill="#2a2f4f"/>
    <path id="Trazado_196521" data-name="Trazado 196521" d="M34.511,130.719c-.417-.85-.251-1.344.717-1.734,1.842-.741,3.624-1.632,5.416-2.492.626-.3,1.02-.245,1.165.494a2.079,2.079,0,0,1,.655,1.308c1.272,4.4,2.5,8.806,3.8,13.2q2.511,8.981,5.081,17.946c.136.793.693,1.548.221,2.4a48.515,48.515,0,0,1-10.293-5.061,7.933,7.933,0,0,1-1.211-2.442c-.828-1.818-1.539-3.684-2.253-5.548-.447-1.169-.2-1.515,1.032-1.6a2.593,2.593,0,0,1,.5-.006c1.063.13,1.058-.36.74-1.158-1.278-3.207-2.457-6.452-3.718-9.665-.562-1.433-1.07-2.886-1.663-4.307a1.776,1.776,0,0,1-.188-1.324" transform="translate(-10.319 -38.007)" fill="#2a2f4f"/>
    <path id="Trazado_196522" data-name="Trazado 196522" d="M30.6,132.611c2.034,5.3,4.051,10.612,6.12,15.9.3.756.172.885-.6.895-2.416.029-2.357.034-1.481,2.318.891,2.32,2.06,4.53,2.72,6.938a59.812,59.812,0,0,1-13.951-11.3c-.733-.788-1.409-1.628-2.111-2.445a22.7,22.7,0,0,1,9.3-12.307" transform="translate(-6.408 -39.899)" fill="#3d4159"/>
    <path id="Trazado_196523" data-name="Trazado 196523" d="M58.781,166.1q-.25-1.135-.5-2.269a7.985,7.985,0,0,1,.285-1.951q1.405-5.755,2.946-11.476a3.1,3.1,0,0,0-.41-2.7,31.755,31.755,0,0,1-2.738-4.592c.031-.561.489-.736.888-.933a19.1,19.1,0,0,1,3.2-1.641,1.691,1.691,0,0,1,.578,0c1.337.8,3,1.092,3.912,2.553a8.17,8.17,0,0,1-1.785,3.233,5.5,5.5,0,0,0-.918,5.532c1.058,3.185,1.667,6.516,2.569,9.759a5.345,5.345,0,0,1,.224,2.07q-.62,2.295-1.239,4.588a39.7,39.7,0,0,1-7.007-2.169" transform="translate(-17.535 -42.277)" fill="#f64f4f"/>
    <path id="Trazado_196524" data-name="Trazado 196524" d="M99.68,174.177q.011-8.354.016-16.709a3.038,3.038,0,0,1,1.73-3.028c1.495-.108,2.371.659,2.577,2.32a20.464,20.464,0,0,1,.045,3.113,2.014,2.014,0,0,0,1.05,1.947,6.485,6.485,0,0,1,3.216,6.066c-.039,1.2,0,2.41-.012,3.614a1.9,1.9,0,0,1-.342,1.414l-4.533.986a1.774,1.774,0,0,0-1.2.024l-.8.221a1.783,1.783,0,0,0-1.2.031H99.68" transform="translate(-29.991 -46.464)" fill="#f5c9ad"/>
    <path id="Trazado_196525" data-name="Trazado 196525" d="M108.712,172.751c0-1.747-.038-3.494,0-5.241a6.009,6.009,0,0,0-3.3-5.706,1.579,1.579,0,0,1-.975-1.655c.062-1.12.049-2.247,0-3.368a2.419,2.419,0,0,0-2.264-2.5A3.249,3.249,0,0,1,106.9,157.3a13.2,13.2,0,0,0,.156,3.558,7.137,7.137,0,0,1,4.516,1.791,6.626,6.626,0,0,1,2.15,4.481,21.155,21.155,0,0,0,.168,4.2,28.339,28.339,0,0,1-5.18,1.415" transform="translate(-30.742 -46.3)" fill="#e9b498"/>
    <path id="Trazado_196526" data-name="Trazado 196526" d="M103.32,182.208a.887.887,0,0,1,1.2-.024l-1.2.024" transform="translate(-31.086 -54.746)" fill="#d4baa5"/>
    <path id="Trazado_196527" data-name="Trazado 196527" d="M100.462,182.567a.886.886,0,0,1,1.2-.031l-1.2.031" transform="translate(-30.226 -54.854)" fill="#cab7a5"/>
    <path id="Trazado_196528" data-name="Trazado 196528" d="M93.1,89.173c-.835-.037-1.188.687-1.735,1.1-.979-.447-1.18.615-1.774.914-.405.078-.756.377-1.2.3-.788-.034-1.587-.409-2.359.083a.586.586,0,0,1-.431-.675A25.723,25.723,0,0,1,86.371,87a.647.647,0,0,1,.661-.466c1.243.593,1.243.593,1.593-.657a4.547,4.547,0,0,0,.754-3.12c.365-1.03-.376-.973-1.01-1.021-2.088-.543-2.357-.905-2.263-3.041.308-.545.628-1.093-.279-1.4-.381.264-.391.264-.394.686a39.756,39.756,0,0,1-.258,5.937,31.756,31.756,0,0,1-1.514,6,1.766,1.766,0,0,1-.826,1.041q-.481,1.136-.961,2.271a29.64,29.64,0,0,1-13.381,12.906c-1.185.57-2.416,1.046-3.626,1.565a.9.9,0,0,1-.487.32,11.3,11.3,0,0,1-7.785.123A29.476,29.476,0,0,1,39.162,94.325a29.87,29.87,0,0,1-3.784-11.911c-.05-.473-.236-1.019.424-1.268a11.475,11.475,0,0,1,2.053,2.291c2.769,3.1,8.192,3.443,11.489,1.427.511-.312.942-.859,1.655-.741a3.02,3.02,0,0,0,2.645,1c1.647-.064,3.3-.045,4.947-.006a2.821,2.821,0,0,0,2.332-.89c.763-.324,1.255.264,1.8.577A9.471,9.471,0,0,0,74.68,83.011,8.393,8.393,0,0,0,77,76.865c-.006-3.267-.308-3.221,3.027-4.144,1.272-.352,2.494-.868,3.779-1.177a2.04,2.04,0,0,1,1.326-.112c.51.8.231,1.722.381,2.576-.073.815-.38,1.777,1.043,1.651a2.989,2.989,0,0,1,.528.086,4.762,4.762,0,0,0,1.243.177,2.972,2.972,0,0,1,1.191.394,1.073,1.073,0,0,0,1.621.8c1.685.746,2.469,2.324,3.445,3.727A7.766,7.766,0,0,1,93.1,89.173" transform="translate(-10.626 -21.468)" fill="#f5c9ad"/>
    <path id="Trazado_196529" data-name="Trazado 196529" d="M73.277,123.356l.533-.01a47.661,47.661,0,0,0,4.466,2.557,50.815,50.815,0,0,1-1.683,6.336c-.805,2.9-1.673,5.787-2.514,8.68a28.688,28.688,0,0,1-5.224-3.061l-3.818-2.268c.35-.884,1.264-.458,1.847-.8,3.847-.963,6.178-4.31,6.039-8.692.068-.921-.255-1.893.354-2.741" transform="translate(-19.567 -37.111)" fill="#bed4dd"/>
    <path id="Trazado_196530" data-name="Trazado 196530" d="M81.243,55.7c-2.168.683-4.323,1.409-6.51,2.027-.955.271-1.4.695-1.242,1.725a10.359,10.359,0,0,1-.022,1.735,2.465,2.465,0,0,1-2.458.134,1.986,1.986,0,0,1-.39-1.522c-.027-.831.009-1.663-.031-2.5a1.711,1.711,0,0,0-1.449-1.756,21.011,21.011,0,0,0-10.847.064,1.476,1.476,0,0,0-1.21,1.6c-.062,1.351.326,2.744-.3,4.054a3.145,3.145,0,0,1-2.173.213c-1.027-.134-.975-.989-.983-1.725-.01-.84-.15-1.444-1.208-1.446-1.317,0-1.492.107-1.559,1.433a2.377,2.377,0,0,1-.345,1.541,3.387,3.387,0,0,1-2.7.065c-.694-.733-.408-1.65-.429-2.492-.079-3.267.453-2.872-3-3.654a19.607,19.607,0,0,0-9.245.4,2.336,2.336,0,0,0-1,.469c-.382.364-.3.84-.3,1.29-.01.871.015,1.743-.01,2.614-.037,1.284-.307,1.545-1.54,1.556-1.263.011-1.661-.247-1.612-1.473.055-1.361-.594-1.907-1.786-2.244-1.675-.473-3.35-.961-4.987-1.565a2.417,2.417,0,0,1-1.356-.818q-.017-6.473-.029-12.946a1.533,1.533,0,0,1,.2-1.075c.519.5.4,1.156.4,1.765.018,2.873,0,5.745.011,8.618.007,1.668.087,1.736,1.777,1.763a9.188,9.188,0,0,1,1.493.082c.462.107.906.279,1.356.426,1.666.714,3.264,1.094,4.363-.917a24.1,24.1,0,0,1,16.394-.331,3.831,3.831,0,0,1,1.814,1.47,2.415,2.415,0,0,0,3.8-.1,3.59,3.59,0,0,1,1.985-1.426,24.988,24.988,0,0,1,14.882-.141,3.607,3.607,0,0,1,2.4,1.644.889.889,0,0,0,1.165.43,7.3,7.3,0,0,1,1.655-.353c-.842-.261-.812-.958-.825-1.584-.038-1.915-.007-3.831-.017-5.745-.008-1.566-.025-1.61-1.513-1.891Q58.211,42.16,42.548,39.281c-1.6-.3-3.185-.632-4.788-.9A2.231,2.231,0,0,1,36.5,37.9a1.519,1.519,0,0,1-.109-1.537A24.019,24.019,0,0,1,52.208,19.727a23.1,23.1,0,0,1,4.76-.759,21.641,21.641,0,0,1,11.4,2.511,4.272,4.272,0,0,0,.582.2,2.827,2.827,0,0,1,1.577.687,22.848,22.848,0,0,1,5.18,4.462,23.6,23.6,0,0,1,4.712,8.1,18.249,18.249,0,0,1,1.194,6.447c.076,3.978-.145,7.959.131,11.937a3.456,3.456,0,0,1-.5,2.383" transform="translate(-6.771 -5.695)" fill="#3d4159"/>
    <path id="Trazado_196531" data-name="Trazado 196531" d="M20.468,71.134c2.287.744,4.553,1.565,6.87,2.2,1.2.329,1.819.834,1.558,2.122-.265,1.307.329,1.643,1.558,1.531.73-.066.989-.22,1-.994a18.848,18.848,0,0,1,.151-4.555,1.038,1.038,0,0,1,.4.863,31.063,31.063,0,0,1-.1,5.282c-.225.574-.556.273-.883.108a1.4,1.4,0,0,0-1.427-.069c-.532.354-.12.907-.108,1.375.017.736.653,1.361.389,2.148a9.289,9.289,0,0,0,.382,4.353,29.052,29.052,0,0,0,8.562,15.421,28.339,28.339,0,0,0,15.491,7.6c1.34.2,2.741-.489,4.089-.873l-.034,2.992a6.959,6.959,0,0,1-3.329,1.269,26.6,26.6,0,0,1-6.919.826c-1.189-.024-1.33.206-.873,1.307a8.363,8.363,0,0,0,4.059,4.555c.34.167.847.215.838.782-.617.342-1.386.083-1.983.5l-.541-.03c-3.279.5-6.835-2.318-8-5.5a9.166,9.166,0,0,1-.568-3.406,10.284,10.284,0,0,0-.206-3.331,34.835,34.835,0,0,1-8.94-4.818A29.037,29.037,0,0,1,23.19,91.77c-.382-.86-.708-1.138-1.6-.642a3.538,3.538,0,0,1-2.151.459c-.046-.789-.256-1.556-.328-2.337-.124-1.348-.417-2.405-1.965-2.9a2.5,2.5,0,0,1-1.516-2.761,2.674,2.674,0,0,1,1.849-2.578,1.96,1.96,0,0,0,1.509-1.989c.085-1.021.513-2.018.2-3.066.994.109,1.4-.254,1.3-1.323-.108-1.155-.018-2.329-.015-3.495" transform="translate(-4.699 -21.402)" fill="#e9b498"/>
    <path id="Trazado_196532" data-name="Trazado 196532" d="M95.442,22.371a29.592,29.592,0,0,0-6.505-5.222,36.843,36.843,0,0,1,20.79-12.506c.281-.064.556-.16.835-.241a64.16,64.16,0,0,1,7.3-.535A37.819,37.819,0,0,1,135.472,8.48c.064.485-.291.749-.573,1.033q-2.344,2.371-4.713,4.715a1.723,1.723,0,0,1-1.156.646,45.712,45.712,0,0,0-7.332-2c-9.234-1.19-17.287,1.268-24.074,7.714-.68.644-1.175,1.535-2.183,1.783" transform="translate(-26.759 -1.163)" fill="#f64f4f"/>
    <path id="Trazado_196533" data-name="Trazado 196533" d="M26.905,53.978c-.992-.013-1.987-.078-2.975-.021-.884.051-1.126-.285-1.119-1.14.03-3.8,0-7.608-.009-11.412.469-8.878,4.753-15.372,12.423-19.681a22.453,22.453,0,0,1,11.48-2.8c3.45.044,6.9.029,10.351.04-.961.187-1.932.332-2.879.57A23.918,23.918,0,0,0,43.85,25.007a24.182,24.182,0,0,0-7.189,11.8,5,5,0,0,0-.088.862.954.954,0,0,1-.848.247c-1.851-.286-3.691-.639-5.532-.991-1.642-.315-1.732-.256-1.735,1.381-.009,4.58,0,9.161-.008,13.741a3.532,3.532,0,0,1-.25,1.834c-.405.4-.857.162-1.3.092" transform="translate(-6.861 -5.694)" fill="#2a2f4f"/>
    <path id="Trazado_196534" data-name="Trazado 196534" d="M17.138,78.02c.357.227.75.3.545.984a16.219,16.219,0,0,0-.545,3.287c-.062.721-.582.738-1.02.873-1.572.483-2.257,1.282-2.248,2.7.009,1.4.68,2.185,2.292,2.65.605.174.969.4.992,1.169a15.483,15.483,0,0,0,.494,2.921c.1.433.191.79-.259,1.055a7.843,7.843,0,1,1-.251-15.636" transform="translate(-2.652 -23.47)" fill="#f5c9ad"/>
    <path id="Trazado_196535" data-name="Trazado 196535" d="M49.707,123.311c.766.124.519.729.547,1.184.1,1.649-.143,3.3.387,4.948a8.349,8.349,0,0,0,7.273,5.91,2.38,2.38,0,0,1,.565.2l-3.943,2.286a11.47,11.47,0,0,1-5.328,2.772c-1.528-4.8-2.842-9.665-4.166-14.526l4.665-2.771" transform="translate(-13.552 -37.101)" fill="#bed4dd"/>
    <path id="Trazado_196536" data-name="Trazado 196536" d="M117.967,81.683a3.539,3.539,0,0,1,.291-.795,7.739,7.739,0,0,0,.989-7.151,1.976,1.976,0,0,1-.038-.489c.385-.345.791-.13,1.179-.026a23.636,23.636,0,0,0,4.174.707,19.974,19.974,0,0,0,21.484-17.163,19.741,19.741,0,0,0-.44-7.789,11.247,11.247,0,0,1-.4-1.826c.034-.736.385-.866.97-.484.8.523,1.613,1.035,2.383,1.6a1.5,1.5,0,0,0,2.039-.025,14.734,14.734,0,0,1,2.381-1.36c.349-.18.719-.482,1.15-.152a28.913,28.913,0,0,1-17.789,34.262,29.407,29.407,0,0,1-18.369.689" transform="translate(-35.493 -13.978)" fill="#f1efeb"/>
    <path id="Trazado_196537" data-name="Trazado 196537" d="M164.7,43.775a13.447,13.447,0,0,0-3.373,1.8,1.66,1.66,0,0,1-2.315.059c-.792-.662-1.7-1.189-2.535-1.8-.308-.224-.423-.152-.468.188-.6-.021-.479-.617-.738-.912-.628-1.116-1.133-2.3-1.862-3.361-.208-.3-.414-.639-.169-1.031a3.2,3.2,0,0,1,2.463.561c1.5.733,2.736.668,3.784-.773a9.4,9.4,0,0,1,1.4-1.4c.338-.3.679-.642,1.2-.392a19.4,19.4,0,0,1,2.549,5.606.7.7,0,0,1-.082.706q.07.374.141.749" transform="translate(-46.073 -11.02)" fill="#d7d4cf"/>
    <path id="Trazado_196538" data-name="Trazado 196538" d="M168.339,41.824a31.305,31.305,0,0,0-2.66-6.293c.317-1.465,1.462-2.183,2.61-2.9.868.009,1.137.868,1.756,1.245,1.509.919,2.9,2.012,4.375,2.989a3.272,3.272,0,0,1,1.1.965c-.474.9-1.441,1.13-2.222,1.611-1.089.67-2.169,1.359-3.287,1.976-.5.276-.977.866-1.675.407" transform="translate(-49.848 -9.818)" fill="#dc3033"/>
    <path id="Trazado_196539" data-name="Trazado 196539" d="M110.035,84.841a3.353,3.353,0,0,1-.751,3.248,1.44,1.44,0,0,1-1.5.749c-1.13-.069-.917,1.026-.869,1.407.144,1.144-1.211,2.214-.133,3.35.056.044.076.089.06.136s-.033.071-.051.071c-1.259.21-2.278-.761-3.505-.712a26.629,26.629,0,0,0,2.25-11c0-.833-.034-1.667.015-2.5.024-.4-.3-1.048.346-1.159.58-.1.22.731.631.909a1.264,1.264,0,0,1,.255,1.247c.05,2.373.05,2.373,2.248,3,.489.292,1.007.56,1,1.248" transform="translate(-31.076 -23.596)" fill="#e9b498"/>
    <path id="Trazado_196540" data-name="Trazado 196540" d="M176.653,36.494a36.274,36.274,0,0,1-6.875-4.906c-.077-.077-.227-.082-.343-.12.442-1.481,1.763-2.185,2.785-3.154a.772.772,0,0,1,.671-.077,29.824,29.824,0,0,1,3.99,8.242,2.09,2.09,0,0,0-.229.015" transform="translate(-50.978 -8.481)" fill="#f64f4f"/>
    <path id="Trazado_196541" data-name="Trazado 196541" d="M112.948,99.089c.148-.291.293-.585.448-.873.415-.773.859-.826,1.326-.041a3.37,3.37,0,0,1-1.774.914" transform="translate(-33.983 -29.368)" fill="#f5c9ad"/>
    <path id="Trazado_196542" data-name="Trazado 196542" d="M108.3,100.025c0-.069-.008-.138-.009-.207.7-1.468,1.373-.221,2.058.018a3.731,3.731,0,0,1-2.048.189" transform="translate(-32.581 -29.821)" fill="#f5c9ad"/>
    <path id="Trazado_196543" data-name="Trazado 196543" d="M145.179,16.689c2.171-1.987,4.23-4.085,6.247-6.227.324-.051.463.134.528.413a1.873,1.873,0,0,1,.631.9,40.7,40.7,0,0,1,2.077,6.215,2.177,2.177,0,0,1-.787,1.237Q150,23.122,146.1,27c-.341.338-.642.8-1.242.7-.621-.5-.713-1.287-1.03-1.952-.515-1.574-1.119-3.117-1.693-4.669a1.766,1.766,0,0,1,.426-2.141c.854-.768,1.481-1.8,2.612-2.247" transform="translate(-42.712 -3.145)" fill="#e7c834"/>
    <path id="Trazado_196544" data-name="Trazado 196544" d="M158.8,18.4l-2.549-7.344a31.279,31.279,0,0,1,8.97,7.252.225.225,0,0,1,.085.2c-.01.075-.024.113-.043.113-1.142.716-2.345,1.33-3.492,2.041a1.749,1.749,0,0,1-1.026-.173A6.045,6.045,0,0,1,158.8,18.4" transform="translate(-47.012 -3.326)" fill="#f64f4f"/>
    <path id="Trazado_196545" data-name="Trazado 196545" d="M168.9,21.716c.006-.1.012-.192.017-.287a22.046,22.046,0,0,1,3.7,4.774l-.445.245c-1.136-.46-2.482-.491-3.3-1.607a3.739,3.739,0,0,1,.026-3.125" transform="translate(-50.709 -6.447)" fill="#f65150"/>
    <path id="Trazado_196546" data-name="Trazado 196546" d="M68.964,144.1a22.3,22.3,0,0,1,5.223,3.06q-2.2,7.864-4.4,15.727c-.178.633-.412,1.25-.621,1.874q-1.859-7.1-3.724-14.194a1.529,1.529,0,0,1,.311-1.276c1.079-1.725,2.141-3.459,3.208-5.19" transform="translate(-19.677 -43.357)" fill="#dce7ec"/>
    <path id="Trazado_196547" data-name="Trazado 196547" d="M51,146.859l5.328-2.773c1.077,1.723,2.142,3.454,3.24,5.164a1.726,1.726,0,0,1,.264,1.5c-1.2,4.567-2.356,9.145-3.533,13.718a2.508,2.508,0,0,1-.211.437c-1.758-6-3.528-11.994-5.089-18.049" transform="translate(-15.345 -43.351)" fill="#dce7ec"/>
    <path id="Trazado_196548" data-name="Trazado 196548" d="M132.939,30.751l.837,2.066c.034.426-.26.682-.517.942q-2.53,2.554-5.086,5.082a1.232,1.232,0,0,1-1.075.508,11.809,11.809,0,0,0-6.666-1.035,10.055,10.055,0,1,0,11.713,8.517,5.388,5.388,0,0,1-.117-1.24c.085-.466.464-.669.819-.877,2.4-1.4,4.775-2.846,7.193-4.217.282-.16.564-.372.927-.234l.5,1A20.509,20.509,0,0,1,116.314,67.8c-.356-.1-.718-.185-1.077-.277-.928-.752-1.279-1.978-2.268-2.7-.352-.258-.684-.562-1.061-.8a2.786,2.786,0,0,1-1.437-.74l-1.209-.294c-.392-.261-.866.006-1.267-.2l-.484-.048c-.519-.512-1.259-.856-1.312-1.723a11.015,11.015,0,0,1-.208-2.764c0-5.074.035-10.149-.038-15.223a18.26,18.26,0,0,0-1.191-5.7c.376-1.595,1.61-2.6,2.649-3.7A20.772,20.772,0,0,1,130.9,29.356a6.088,6.088,0,0,1,2.035,1.4" transform="translate(-31.52 -8.257)" fill="#f64f4f"/>
    <path id="Trazado_196549" data-name="Trazado 196549" d="M84.46,79.37h2.485a8.964,8.964,0,0,1-4.987,8.33,9.633,9.633,0,0,1-10.29-.5c-.316-.2-.629-.405-.942-.609a8.628,8.628,0,0,1-3.257-5.108c-.371-1.85-.278-1.981,1.563-1.977a9.129,9.129,0,0,1,1.115.024c.429.3.394.8.505,1.228a6.452,6.452,0,0,0,5.975,5.165,6.519,6.519,0,0,0,6.51-3.279,4.92,4.92,0,0,0,.738-1.964c.074-.488.1-1.006.587-1.31" transform="translate(-20.247 -23.88)" fill="#fee052"/>
    <path id="Trazado_196550" data-name="Trazado 196550" d="M67.218,78.283c-2.975-.137-3.038-.057-2.065,2.8a4.707,4.707,0,0,0,2.016,2.985,1.176,1.176,0,0,1,.594,1.153,1.581,1.581,0,0,1-1.814,1.3c-2.113-.033-4.228-.064-6.339.013a1.82,1.82,0,0,1-2.094-1.272,1.232,1.232,0,0,1,.616-1.47c1.549-1.051,1.953-2.677,2.271-4.346a2.465,2.465,0,0,1,.551-1.463q0-.562,0-1.124c0-2.013,0-1.986,2.069-2.023.969-.018,1.621-.012,1.556,1.336-.108,2.2-.363,1.874,1.883,1.892A7.4,7.4,0,0,0,67.21,78a.183.183,0,0,1,.066.188c-.018.064-.038.1-.058.1" transform="translate(-17.284 -22.515)" fill="#e9b498"/>
    <path id="Trazado_196551" data-name="Trazado 196551" d="M54.077,79.34a13,13,0,0,1-.86,3.82c-.426.883-.77,1.812-1.816,2.23-.478.191-.543.794-.761,1.23a9.851,9.851,0,0,1-15.047-3,7.354,7.354,0,0,1-.769-2.464c-.037-.52-.615-1.287.206-1.458.756-.157,1.845-.594,2.286.673.41.243.412.7.552,1.077a6.827,6.827,0,0,0,12.982-.38c.173-.573.01-1.277.594-1.709l2.633-.015" transform="translate(-10.407 -23.871)" fill="#fee052"/>
    <path id="Trazado_196552" data-name="Trazado 196552" d="M61.845,102.072a15.779,15.779,0,0,1-7.418-1.665,1.3,1.3,0,0,1-.744-1.82c.354-.821,1.148-.8,1.825-.515a17.5,17.5,0,0,0,3.519,1.181,11.977,11.977,0,0,0,7.153-.856,5.342,5.342,0,0,1,.561-.268c.811-.241,1.725-.513,2.2.439.483.972-.231,1.559-1.025,1.943a15.205,15.205,0,0,1-6.07,1.561" transform="translate(-16.108 -29.453)" fill="#e9b498"/>
    <path id="Trazado_196553" data-name="Trazado 196553" d="M106.71,75.473c.417.59,1.153.937,1.312,1.724-1.687.024-1.795-.117-1.312-1.724" transform="translate(-32.031 -22.708)" fill="#f1e8e2"/>
    <path id="Trazado_196554" data-name="Trazado 196554" d="M109.72,93l1.5-.749c.048.617-.035,1.213-.7,1.429-.519.168-.747-.2-.8-.68" transform="translate(-33.012 -27.755)" fill="#f5c9ad"/>
    <path id="Trazado_196555" data-name="Trazado 196555" d="M112.857,78.709a2.17,2.17,0,0,1,1.437.74c-.369.217-.665.7-1.2.31-.389-.285-.55-.61-.242-1.05" transform="translate(-33.907 -23.681)" fill="#f5c9ad"/>
    <path id="Trazado_196556" data-name="Trazado 196556" d="M112.507,87.062l-1-1.248c.873-.017,1.736-.026,1,1.248" transform="translate(-33.548 -25.818)" fill="#f5c9ad"/>
    <path id="Trazado_196557" data-name="Trazado 196557" d="M108.178,80.987c-.41-.35-.187-.828-.255-1.248.326.011.69-.025.738.437.04.38.045.76-.483.811" transform="translate(-32.47 -23.991)" fill="#f5c9ad"/>
    <path id="Trazado_196558" data-name="Trazado 196558" d="M109.386,78a1.794,1.794,0,0,1,1.266.2c-.426-.04-.889.161-1.266-.2" transform="translate(-32.911 -23.46)" fill="#f5c9ad"/>
    <path id="Trazado_196559" data-name="Trazado 196559" d="M65.485,136.38a8.9,8.9,0,0,1-5.15-5.053,5.823,5.823,0,0,1-.314-.806c-.173-.725-.159-1.207.883-1.147a30.542,30.542,0,0,0,10.805-1.732,8.347,8.347,0,0,1-6.224,8.738" transform="translate(-18.034 -38.404)" fill="#f5c9ad"/>
    <path id="Trazado_196560" data-name="Trazado 196560" d="M39.555,45.748l.745-.006c2.919.784,5.914,1.184,8.875,1.749,8.334,1.587,16.678,3.121,25.019,4.674,1.506.281,3,.619,4.522.808.747.093.861.419.854,1.049-.023,2.288.016,4.578-.023,6.865-.013.8.016,1.44,1.086,1.532-.923.289-1.858.547-2.764.88-.531.2-.645-.083-.769-.472a2.454,2.454,0,0,0-1.76-1.607,24.507,24.507,0,0,0-15.556.024c-.7.227-1.419.566-1.588,1.277-.241,1.008-.852,1.06-1.654,1a13.546,13.546,0,0,0-1.5,0c-.524.017-.9,0-1.066-.693a2.542,2.542,0,0,0-1.994-1.689,24.544,24.544,0,0,0-16.137.411c-.738-.08-.59-.684-.626-1.13a15.39,15.39,0,0,1,.245-3.721,31.4,31.4,0,0,1,2.7-8.912,4.936,4.936,0,0,1,1.388-2.033" transform="translate(-10.587 -13.762)" fill="#f5c9ad"/>
    <path id="Trazado_196561" data-name="Trazado 196561" d="M130.977,27.258a21.447,21.447,0,0,0-9.546-2.943c-7.6-.282-13.611,2.739-18.1,8.852-.169.231-.354.452-.532.677a25.226,25.226,0,0,0-4.559-7.871c8.631-9.865,21.407-12.764,33.783-7.665-.742.784-1.437,1.618-2.239,2.335a1.552,1.552,0,0,0-.48,2.051c.636,1.488,1.122,3.039,1.672,4.564" transform="translate(-29.558 -4.765)" fill="#f1efeb"/>
    <path id="Trazado_196562" data-name="Trazado 196562" d="M71.412,76.773c0-.094,0-.189-.007-.284,0-1.539.023-3.078-.015-4.616a.966.966,0,0,1,.819-1.142,22.011,22.011,0,0,1,12.415-.043,1.088,1.088,0,0,1,.958,1.195c.014,1.537.071,3.075.11,4.612a7.3,7.3,0,0,1-3.133,5.7,7.013,7.013,0,0,1-7.228.508,6.616,6.616,0,0,1-3.919-5.927" transform="translate(-21.479 -21.005)" fill="#dce7ec"/>
    <path id="Trazado_196563" data-name="Trazado 196563" d="M52.617,76.484c-.409,3.991-2.388,6.189-6.15,6.833A6.874,6.874,0,0,1,38.488,77.5q0-3.23,0-6.459A21,21,0,0,1,51.9,70.758c.565.161.659.495.659,1,0,1.574.039,3.148.063,4.722" transform="translate(-11.58 -21)" fill="#dce7ec"/>
    <path id="Trazado_196564" data-name="Trazado 196564" d="M37.986,45.148c-.629,1.342-1.339,2.654-1.869,4.034a28.414,28.414,0,0,0-2.134,10.99.835.835,0,0,0,.3.773c-.111.12-.282.223-.324.364-.59,2-1.89,1.214-3.1.805-.273-.092-.548-.176-.822-.264-.182-.252.094-.32.186-.462.013-5.49.055-10.979.017-16.468-.008-1.072.2-1.342,1.3-1.073,2.129.518,4.331.708,6.449,1.3" transform="translate(-9.018 -13.163)" fill="#e9b498"/>
    <path id="Trazado_196565" data-name="Trazado 196565" d="M29.828,68.978q-.093.231-.186.462a1.852,1.852,0,0,1-.971-.4l1.157-.059" transform="translate(-8.626 -20.753)" fill="#a7867f"/>
    <path id="Trazado_196566" data-name="Trazado 196566" d="M163.244,25.808c.928.656,2.221.566,3.021,1.482a26.745,26.745,0,0,0-3.011,2.985A16.82,16.82,0,0,0,160.628,33a23.326,23.326,0,0,0-3.157,2.992,1.4,1.4,0,0,1-1.657.37,21.31,21.31,0,0,0-3.884-1.3,1.184,1.184,0,0,1-.7-.087c-.548-.2-1.105-.366-1.653-.566-.838-.3-.874-.787-.326-1.408.138-.156.282-.3.43-.452q3.792-3.8,7.593-7.584c.34-.339.63-.807,1.227-.736l1.005.271a6.5,6.5,0,0,1,3.735,1.3" transform="translate(-44.796 -7.289)" fill="#fee052"/>
    <path id="Trazado_196567" data-name="Trazado 196567" d="M146.246,39.4l.42.229a25.725,25.725,0,0,1,2.311,4.226l-8.742,5.255c-1,1.093-2.406,1.581-3.617,2.358-.836.536-1.714,1.011-2.557,1.542-.554.273-1.051.65-1.609.908-.33.152-.723.527-1.062-.021.278-.917,1.221-1.167,1.815-1.772,3.858-3.933,7.77-7.813,11.671-11.7.4-.4.747-.9,1.37-1.021" transform="translate(-39.531 -11.856)" fill="#dc3033"/>
    <path id="Trazado_196568" data-name="Trazado 196568" d="M144.742,34.036q-6.726,6.756-13.461,13.5a9.415,9.415,0,0,1-1.31.931,2.373,2.373,0,0,1-2.87-.666,3.068,3.068,0,0,1-.364-3.375,8.723,8.723,0,0,1,1.688-1.975c1.447-1.354,2.808-2.8,4.23-4.178.344-.333.617-.8,1.2-.776l6.425-6.454,9.535-9.486a10.873,10.873,0,0,1,1.917,1.872l-9.44,9.537c.717.561,1.686.591,2.448,1.067" transform="translate(-38.028 -6.487)" fill="#3d4159"/>
    <path id="Trazado_196569" data-name="Trazado 196569" d="M167.814,25.09a25.742,25.742,0,0,1-3.735-1.3,8.1,8.1,0,0,1,3.481-1.947,14.005,14.005,0,0,0,.254,3.25" transform="translate(-49.367 -6.571)" fill="#dd3133"/>
    <path id="Trazado_196570" data-name="Trazado 196570" d="M130.378,43.7c-1.623,1.747-3.291,3.45-5.065,5.046a8.133,8.133,0,0,0-2.041.907,3.543,3.543,0,0,0,.968,6.417,3.281,3.281,0,0,0,3.755-1.253,6.81,6.81,0,0,1,.953-1.147,53.9,53.9,0,0,1,6.3-3.724,10.382,10.382,0,1,1-20.308,4.078A10.324,10.324,0,0,1,130.378,43.7" transform="translate(-34.549 -12.688)" fill="#f1efeb"/>
    <path id="Trazado_196571" data-name="Trazado 196571" d="M80.053,76.58c.263,1.965-.4,3.3-1.976,3.982A3.291,3.291,0,0,1,74.9,74.869a3.122,3.122,0,0,1,4.716.907c.117.237-.028.316-.22.367-.293-.019-.547-.188-.835-.225a1.116,1.116,0,0,0-1.242.618.9.9,0,0,0,.346,1.2.962.962,0,0,0,1.342-.159,3.672,3.672,0,0,0,.334-.366c.237-.206.246-.675.708-.626" transform="translate(-22.135 -22.311)" fill="#3d4159"/>
    <path id="Trazado_196572" data-name="Trazado 196572" d="M82.5,77.278l-.426.734a.946.946,0,0,1-.218-1.273l.21-.266a.955.955,0,0,1,.433.8" transform="translate(-24.58 -23.008)" fill="#63677b"/>
    <path id="Trazado_196573" data-name="Trazado 196573" d="M49.442,80.8a3.486,3.486,0,0,1-3.327-3.364A3.339,3.339,0,1,1,49.442,80.8" transform="translate(-13.874 -22.308)" fill="#3d4159"/>
    <path id="Trazado_196574" data-name="Trazado 196574" d="M131.719,56.5a3.8,3.8,0,0,1-4.59,2.79,3.9,3.9,0,0,1,.955-7.713c-.306.331-.591.683-.919.991a2.866,2.866,0,0,0-.977,3.415,2.706,2.706,0,0,0,3.075,1.519c1.039.206,1.529-.933,2.456-1" transform="translate(-37.321 -15.515)" fill="#f64f4f"/>
    <path id="Trazado_196575" data-name="Trazado 196575" d="M80.823,76.633l.218,1.273c-.44.831-1.063,1.263-2,.812a1.34,1.34,0,0,1-.533-1.984c.515-.782,1.295-.817,2.316-.1" transform="translate(-23.548 -22.902)" fill="#fcfcfc"/>
    <path id="Trazado_196576" data-name="Trazado 196576" d="M50.642,77.53c.087-.94.559-1.444,1.445-1.419a1.272,1.272,0,0,1,1.341,1.328,1.294,1.294,0,0,1-1.37,1.432,1.332,1.332,0,0,1-1.416-1.341" transform="translate(-15.237 -22.899)" fill="#fcfcfc"/>
  </g>
</svg>
