<svg xmlns="http://www.w3.org/2000/svg" xmlns:xlink="http://www.w3.org/1999/xlink" width="292.909" height="370.926" viewBox="0 0 292.909 370.926">
  <defs>
    <clipPath id="clip-path">
      <rect id="Rectángulo_64568" data-name="Rectángulo 64568" width="292.909" height="370.926" fill="none"/>
    </clipPath>
    <clipPath id="clip-path-4">
      <rect id="Rectángulo_64562" data-name="Rectángulo 64562" width="5.863" height="4.15" transform="translate(106.558 362.76)" fill="none"/>
    </clipPath>
    <clipPath id="clip-path-5">
      <rect id="Rectángulo_64563" data-name="Rectángulo 64563" width="26.735" height="2.823" transform="translate(85.571 364.467)" fill="none"/>
    </clipPath>
    <clipPath id="clip-path-6">
      <rect id="Rectángulo_64564" data-name="Rectángulo 64564" width="19.544" height="2.492" transform="translate(166.076 365.177)" fill="none"/>
    </clipPath>
    <clipPath id="clip-path-7">
      <rect id="Rectángulo_64565" data-name="Rectángulo 64565" width="22.846" height="109.476" transform="translate(135.866 203.729)" fill="none"/>
    </clipPath>
  </defs>
  <g id="Grupo_184029" data-name="Grupo 184029" transform="translate(-756 -2335)">
    <g id="Grupo_184028" data-name="Grupo 184028" transform="translate(756 2335)">
      <g id="Grupo_184027" data-name="Grupo 184027" clip-path="url(#clip-path)">
        <rect id="Rectángulo_64548" data-name="Rectángulo 64548" width="153.641" height="175.345" transform="translate(111.014 0.26)" fill="#fafafa"/>
        <g id="Grupo_184010" data-name="Grupo 184010">
          <g id="Grupo_184009" data-name="Grupo 184009" clip-path="url(#clip-path)">
            <path id="Trazado_236547" data-name="Trazado 236547" d="M264.655,175.6s-.009-.284-.013-.832-.008-1.366-.013-2.435c-.006-2.15-.016-5.325-.027-9.461-.014-8.277-.035-20.39-.061-35.774-.028-30.744-.068-74.552-.116-126.843l.23.23L111.03.521h-.015l.26-.261c-.015,64.647-.029,124.931-.04,175.345l-.22-.219,111.444.113,31.155.057,8.21.026c1.86.008,2.831.023,2.831.023s-.939.017-2.783.025l-8.168.026-31.106.057-111.583.113h-.221V175.6c-.011-50.414-.025-110.7-.04-175.345V0h.276c55.812.01,108.381.022,153.625.031h.23V.26c-.048,52.352-.088,96.211-.116,126.991-.026,15.361-.047,27.457-.061,35.722-.011,4.116-.021,7.277-.027,9.416q-.008,1.588-.013,2.41c0,.54-.013.806-.013.806" fill="#263238"/>
            <rect id="Rectángulo_64549" data-name="Rectángulo 64549" width="124.465" height="99.845" transform="translate(123.306 14.279)" fill="#e0e0e0"/>
            <rect id="Rectángulo_64550" data-name="Rectángulo 64550" width="4.085" height="1.177" transform="translate(132.004 96.373)" fill="#263238"/>
            <rect id="Rectángulo_64551" data-name="Rectángulo 64551" width="5.224" height="1.177" transform="translate(141.245 102.666)" fill="#263238"/>
            <rect id="Rectángulo_64552" data-name="Rectángulo 64552" width="5.224" height="1.177" transform="translate(159.43 102.666)" fill="#263238"/>
            <rect id="Rectángulo_64553" data-name="Rectángulo 64553" width="5.224" height="1.177" transform="translate(177.616 102.666)" fill="#263238"/>
            <rect id="Rectángulo_64554" data-name="Rectángulo 64554" width="5.224" height="1.177" transform="translate(195.801 102.666)" fill="#263238"/>
            <rect id="Rectángulo_64555" data-name="Rectángulo 64555" width="5.224" height="1.177" transform="translate(213.986 102.666)" fill="#263238"/>
            <rect id="Rectángulo_64556" data-name="Rectángulo 64556" width="5.224" height="1.177" transform="translate(232.171 102.666)" fill="#263238"/>
            <rect id="Rectángulo_64557" data-name="Rectángulo 64557" width="4.085" height="1.177" transform="translate(132.004 80.652)" fill="#263238"/>
            <rect id="Rectángulo_64558" data-name="Rectángulo 64558" width="4.085" height="1.177" transform="translate(132.004 51.062)" fill="#263238"/>
            <rect id="Rectángulo_64559" data-name="Rectángulo 64559" width="4.085" height="1.177" transform="translate(132.004 36.193)" fill="#263238"/>
            <rect id="Rectángulo_64560" data-name="Rectángulo 64560" width="4.085" height="1.177" transform="translate(132.211 65.857)" fill="#263238"/>
            <path id="Trazado_236548" data-name="Trazado 236548" d="M237.249,97.55a2.724,2.724,0,0,1-.438.027l-1.285.026-4.943.048-18.178.083-59.973.076-14.212,0h-.257V97.55c.035-20.048.066-37.691.088-50.352.033-6.3.059-11.358.077-14.87.019-1.722.034-3.064.045-4,.01-.438.017-.781.023-1.036a1.99,1.99,0,0,1,.024-.353,1.992,1.992,0,0,1,.024.353c.006.255.013.6.023,1.036.01.938.025,2.28.044,4,.019,3.512.045,8.57.078,14.87.022,12.66.053,30.3.087,50.352l-.256-.257,14.212,0,59.973.076,18.178.083,4.943.049,1.285.025a2.721,2.721,0,0,1,.438.027" fill="#263238"/>
            <path id="Trazado_236549" data-name="Trazado 236549" d="M238.4,66.445c0,.144-21.543.26-48.112.26s-48.117-.116-48.117-.26,21.539-.26,48.117-.26,48.112.116,48.112.26" fill="#263238"/>
            <path id="Trazado_236550" data-name="Trazado 236550" d="M238.4,51.651c0,.144-21.543.26-48.112.26s-48.117-.116-48.117-.26,21.539-.26,48.117-.26,48.112.116,48.112.26" fill="#263238"/>
            <path id="Trazado_236551" data-name="Trazado 236551" d="M238.4,36.781c0,.144-21.543.26-48.112.26s-48.117-.116-48.117-.26,21.539-.26,48.117-.26,48.112.116,48.112.26" fill="#263238"/>
            <path id="Trazado_236552" data-name="Trazado 236552" d="M238.4,81.24c0,.144-21.543.26-48.112.26s-48.117-.116-48.117-.26,21.539-.26,48.117-.26,48.112.116,48.112.26" fill="#263238"/>
            <path id="Trazado_236553" data-name="Trazado 236553" d="M143.163,94.367V81.241l8.181-12.7L156.9,72.8l11.4-17.7,6.721,4.733,9.35-16.329,7.6,6.189,11.4-21.662L215.627,52.24l9.934-12.114,11.688-3.345V94.367Z" fill="#69a88d"/>
            <path id="Trazado_236554" data-name="Trazado 236554" d="M238.4,32.12a.843.843,0,0,1-.207.02l-.608.019-2.373.038-8.968.068.115-.057c-2.614,3.423-5.862,7.678-9.6,12.572l-.061.08h-.1l-24.062.044.215-.121L182.637,61.626c-3.448,5.727-6.783,11.271-9.935,16.507l-.195.325-.222-.306L159.26,60.223l.349-.011c-4.952,7.7-9.041,14.054-11.909,18.512-1.425,2.189-2.546,3.911-3.33,5.113-.375.566-.669,1.008-.886,1.333-.2.3-.321.444-.321.444s.082-.169.267-.479l.834-1.366c.759-1.217,1.847-2.96,3.231-5.175,2.831-4.482,6.868-10.871,11.756-18.61l.166-.263.186.252c3.9,5.331,8.314,11.362,13.086,17.883l-.416.018,9.918-16.516,10.131-16.833.073-.121h.141l24.062.044-.162.081c3.772-4.865,7.054-9.1,9.694-12.5l.043-.057h.071l8.968.068,2.373.038.608.019a.843.843,0,0,1,.207.02" fill="#8c5be1"/>
            <path id="Trazado_236555" data-name="Trazado 236555" d="M163.375,64.305a.924.924,0,1,1-.923-.889.906.906,0,0,1,.923.889" fill="#e8505b"/>
            <path id="Trazado_236556" data-name="Trazado 236556" d="M191.129,48.53a.924.924,0,1,1-.923-.888.906.906,0,0,1,.923.888" fill="#e8505b"/>
            <path id="Trazado_236557" data-name="Trazado 236557" d="M212.705,44.654a.924.924,0,1,1-.923-.888.906.906,0,0,1,.923.888" fill="#e8505b"/>
            <path id="Trazado_236558" data-name="Trazado 236558" d="M242.161,128.968c0,.144-26.264.26-58.654.26s-58.659-.116-58.659-.26,26.258-.26,58.659-.26,58.654.116,58.654.26" fill="#263238"/>
            <path id="Trazado_236559" data-name="Trazado 236559" d="M242.161,135.311c0,.144-26.264.26-58.654.26s-58.659-.116-58.659-.26,26.258-.26,58.659-.26,58.654.116,58.654.26" fill="#263238"/>
            <path id="Trazado_236560" data-name="Trazado 236560" d="M242.161,141.653c0,.144-26.264.26-58.654.26s-58.659-.116-58.659-.26,26.258-.26,58.659-.26,58.654.116,58.654.26" fill="#263238"/>
            <path id="Trazado_236561" data-name="Trazado 236561" d="M242.161,147.995c0,.144-26.264.26-58.654.26s-58.659-.116-58.659-.26,26.258-.26,58.659-.26,58.654.116,58.654.26" fill="#263238"/>
          </g>
        </g>
        <g id="Grupo_184024" data-name="Grupo 184024">
          <g id="Grupo_184023" data-name="Grupo 184023" clip-path="url(#clip-path)">
            <path id="Trazado_236562" data-name="Trazado 236562" d="M289.543,370.926H3.366a3.367,3.367,0,0,1,0-6.733H289.543a3.367,3.367,0,0,1,0,6.733" fill="#afafaf"/>
            <path id="Trazado_236563" data-name="Trazado 236563" d="M170.964,79.243c3.952-6.633,5.1-15.483,6.121-23.138.479-3.6,1.317-8.732-1.212-10.994-2.708-2.423-2.958-6.147-6.073-8.02a9.58,9.58,0,0,0-10.294.085" fill="#263238"/>
            <path id="Trazado_236564" data-name="Trazado 236564" d="M160,102.752h0a10.665,10.665,0,0,1-11.472-10.225c-.223-5.805-.418-11.673-.418-11.673s-8.8-.824-9.434-9.53-.347-28.8-.347-28.8a30.337,30.337,0,0,1,30.658,1.971l-.542,30.639V91.614c-.059,5.529-2.932,10.715-8.445,11.138" fill="#ffbe9d"/>
            <path id="Trazado_236565" data-name="Trazado 236565" d="M147.35,60.7c1.5-1.861,3.944-2.6,5.949-1.3a5.061,5.061,0,0,1,1.686,6.327,6.667,6.667,0,0,1-4.271,3.229,3.344,3.344,0,0,0-2.618,3.6c.251,2.185,3.886,3.006,5.526,4.814,2.552,2.813,8.152,4,11.924,4.45,3.708.438,3.26.474,5.417-2.573a11.689,11.689,0,0,0,2.118-7.068q.2-9.628.4-19.256a27.58,27.58,0,0,0-.438-6.91A9.277,9.277,0,0,0,169.4,40.3c-2.117-1.394-4.8-1.513-7.211-2.293-3.015-.975-5.576-2.975-8.4-4.418s-6.279-2.3-9.111-.884c-2.033,1.02-3.4,3.049-5.373,4.174-2.815,1.6-6.646,1.237-8.013,5.376a7.017,7.017,0,0,0,.047,4.426c1.909,5.632,8.884,7.9,13.908,5.469.1.954-.841,3.077.164,6.09.321.963.435,2.432,1.94,2.459" fill="#263238"/>
            <path id="Trazado_236566" data-name="Trazado 236566" d="M148.908,66.13c.066-.055.363.46,1.088.415a2.026,2.026,0,0,0,1.628-1.987,2.179,2.179,0,0,0-1.494-2.167c-.717-.265-1.23-.128-1.253-.23-.038-.059.478-.392,1.378-.206a2.6,2.6,0,0,1,1.367.786,2.52,2.52,0,0,1,.642,1.848A2.4,2.4,0,0,1,150,67a1.306,1.306,0,0,1-.974-.489c-.154-.213-.153-.365-.117-.379" fill="#eb996e"/>
            <path id="Trazado_236567" data-name="Trazado 236567" d="M157.969,39.882c-.021-.019.189-.333.729-.738a5.838,5.838,0,0,1,2.644-1.027,7.618,7.618,0,0,1,4.167.633,9.553,9.553,0,0,1,3.841,3.434,19.507,19.507,0,0,1,2.7,8.815,22.512,22.512,0,0,1,.229,3.8,22.255,22.255,0,0,1-.679-3.743c-.383-2.281-.845-5.573-2.787-8.517a9.3,9.3,0,0,0-3.56-3.255,6.991,6.991,0,0,0-7.288.6" fill="#455a64"/>
            <path id="Trazado_236568" data-name="Trazado 236568" d="M133.453,48.786c0,.019-.119.023-.331-.025a2.487,2.487,0,0,1-.867-.39,3.157,3.157,0,0,1-1.01-1.136,2.892,2.892,0,0,1-.273-2.015,3.306,3.306,0,0,1,1.412-2.032,4.72,4.72,0,0,1,2.753-.54,3.806,3.806,0,0,0,2.629-.665,19.093,19.093,0,0,0,2.127-2.3,10.858,10.858,0,0,1,5.421-3.129,11.543,11.543,0,0,1,5.108-.113,9.874,9.874,0,0,1,3.21,1.233,3.716,3.716,0,0,1,.995.768,15.016,15.016,0,0,0-4.286-1.555,11.613,11.613,0,0,0-4.881.24,10.537,10.537,0,0,0-5.1,2.99,18.158,18.158,0,0,1-2.223,2.364,3.581,3.581,0,0,1-1.5.673,7.239,7.239,0,0,1-1.513.08,4.3,4.3,0,0,0-2.463.4,2.87,2.87,0,0,0-1.254,1.69,2.8,2.8,0,0,0,.992,2.844,6.789,6.789,0,0,0,1.048.615" fill="#455a64"/>
            <path id="Trazado_236569" data-name="Trazado 236569" d="M156.745,73.008c-.021-.054.438-.216,1.15-.695a7.194,7.194,0,0,0,2.374-2.646,6.623,6.623,0,0,0,.4-5.1,6.555,6.555,0,0,0-1.581-2.617,12.586,12.586,0,0,0-2.72-1.989c-1.018-.591-2.052-1.14-3-1.784a10.114,10.114,0,0,1-2.41-2.272,10.522,10.522,0,0,1-2.037-5.153,9.558,9.558,0,0,1,.284-3.719,5.6,5.6,0,0,1,.348-.952c.1-.211.157-.316.177-.308a12.923,12.923,0,0,0-.359,4.92,10.4,10.4,0,0,0,2.056,4.852,9.732,9.732,0,0,0,2.294,2.112c.912.611,1.932,1.148,2.968,1.75a12.863,12.863,0,0,1,2.848,2.1,7.054,7.054,0,0,1,1.694,2.878,6.932,6.932,0,0,1-3.207,8.139,3.071,3.071,0,0,1-1.28.482" fill="#455a64"/>
            <path id="Trazado_236570" data-name="Trazado 236570" d="M171.839,60.234a3.9,3.9,0,0,1-1.121.25,16.228,16.228,0,0,1-3.13.095,19.38,19.38,0,0,1-9.711-3.339c-3.364-2.28-5.693-5.391-6.371-8.014a6.626,6.626,0,0,1-.13-3.155A2.517,2.517,0,0,1,151.808,45a7.709,7.709,0,0,0,.133,4.1c.747,2.451,3.037,5.4,6.3,7.612a20.4,20.4,0,0,0,9.388,3.417c2.584.281,4.2-.024,4.214.107" fill="#455a64"/>
            <path id="Trazado_236571" data-name="Trazado 236571" d="M173.224,54.27a15.371,15.371,0,0,1,12-5.436c4.536.255,8.962,3.389,10.07,7.8.834,3.317-.184,6.775-.614,10.168s-.014,7.36,2.754,9.369c1.669,1.212,3.827,1.433,5.83,1.921s4.144,1.49,4.833,3.433c.79,2.229-.83,4.76-3,5.7s-4.668.656-6.965.1a5.835,5.835,0,0,1-2.582,6.979,7.712,7.712,0,0,1-7.732-.324,11.548,11.548,0,0,1-4.724-6.4c-1.489,2.621-5.408,3.173-7.918,1.505a8.306,8.306,0,0,1-3.2-7.96,15.519,15.519,0,0,1,4.011-7.957,19.582,19.582,0,0,0,2.8-3.569,4.545,4.545,0,0,0,.176-4.35c-.776-1.3-2.793-1.841-3.875-.777" fill="#263238"/>
            <path id="Trazado_236572" data-name="Trazado 236572" d="M178.463,63.4a3,3,0,0,1-2.617-.031,6.3,6.3,0,0,1-3.8-4.956,6.485,6.485,0,0,1,.414-3.533,6.745,6.745,0,0,1,1.668-2.363,4.273,4.273,0,0,1,2.29-1.276,20.353,20.353,0,0,0-1.972,1.6,6.45,6.45,0,0,0-1.766,5.474,5.558,5.558,0,0,0,5.78,5.086" fill="#8c5be1"/>
            <path id="Trazado_236573" data-name="Trazado 236573" d="M147.818,80.709a4.121,4.121,0,0,1-1.988-.2,10.718,10.718,0,0,1-7.054-6.226,4.119,4.119,0,0,1-.442-1.948,12.55,12.55,0,0,1,.855,1.76,12.3,12.3,0,0,0,6.776,5.981,12.608,12.608,0,0,1,1.853.629" fill="#eb996e"/>
            <path id="Trazado_236574" data-name="Trazado 236574" d="M181.333,87.845c0,.022-.15,0-.427-.063a4.262,4.262,0,0,1-1.133-.5,6.2,6.2,0,0,1-2.473-3.762,7.716,7.716,0,0,1-.107-3.165,12.716,12.716,0,0,1,1.149-3.426c1.1-2.3,2.829-4.476,4.108-7.009a12.454,12.454,0,0,0,1.288-3.875A7.494,7.494,0,0,0,178.9,57.97a8.012,8.012,0,0,0-4.309-.268c-1.02.215-1.541.5-1.567.445-.01-.02.113-.1.359-.238a6.157,6.157,0,0,1,1.148-.449,7.724,7.724,0,0,1,9.337,4.662,7.958,7.958,0,0,1,.491,4,12.819,12.819,0,0,1-1.338,4.082c-1.327,2.619-3.064,4.772-4.151,6.984a9.313,9.313,0,0,0-1.13,6.228,6.162,6.162,0,0,0,2.174,3.658,11.431,11.431,0,0,0,1.417.772" fill="#455a64"/>
            <path id="Trazado_236575" data-name="Trazado 236575" d="M194.47,94.214a1.756,1.756,0,0,1-.549.032,6.1,6.1,0,0,1-1.554-.278,8.734,8.734,0,0,1-4.533-3.534,13.427,13.427,0,0,1-1.957-8.3c.116-3.256,1.068-6.7,1.677-10.309a24.076,24.076,0,0,0,.367-5.3,13.682,13.682,0,0,0-1.114-4.759,8.678,8.678,0,0,0-6.111-5.1,12.715,12.715,0,0,0-5.6.019c-1.312.293-2.008.584-2.029.529a1.824,1.824,0,0,1,.486-.255,10.879,10.879,0,0,1,1.483-.516,12.247,12.247,0,0,1,5.765-.219,9.228,9.228,0,0,1,3.682,1.653,9.374,9.374,0,0,1,2.866,3.644,14.063,14.063,0,0,1,1.2,4.964,24.156,24.156,0,0,1-.361,5.445c-.621,3.669-1.577,7.064-1.72,10.234a13.18,13.18,0,0,0,1.745,8.018,8.766,8.766,0,0,0,4.235,3.547,13.3,13.3,0,0,0,2.023.483" fill="#455a64"/>
            <path id="Trazado_236576" data-name="Trazado 236576" d="M197.09,133.863l-18.541,14.465L186.33,161.1l22.328-16.451Z" fill="#ffbe9d"/>
            <path id="Trazado_236577" data-name="Trazado 236577" d="M147.491,85.267s.09-1.547-3.952-1.769a42.16,42.16,0,0,0-4.495-.151s-1.822-2.331-1.935-3.75a11.25,11.25,0,0,1,.866-3.809l4.092-.376-1.11-2.779-2.885.2-8.146.977-3.242,14.261-22.231,41.5a10.715,10.715,0,0,0,4.245,15.6c5.747,2.777,13.45-3.12,15.579-9.137l12.3-46.16,4.328-3.381,6.2-1.137" fill="#ffbe9d"/>
            <path id="Trazado_236578" data-name="Trazado 236578" d="M96.812,361.482l30.269-174.137-.043-.011.191-.755.006-.032h0c5.15-20.424,13.091-26.972,13.091-26.972l46.322,2.906c3.939,7.08,4.439,24.066,4.439,24.066.539,2.082-9.787,170.814-9.787,170.814l-15.493-.427-8.4-159.638-45.08,164.849Z" fill="#ffbe9d"/>
            <path id="Trazado_236579" data-name="Trazado 236579" d="M96.449,363.046l.06-1.573,15.934.46-.137,5.188-.986.032c-4.384.109-22.3.264-25.2-.639-3.235-1.008,10.331-3.468,10.331-3.468" fill="#8c5be1"/>
            <g id="Grupo_184013" data-name="Grupo 184013" opacity="0.6">
              <g id="Grupo_184012" data-name="Grupo 184012">
                <g id="Grupo_184011" data-name="Grupo 184011" clip-path="url(#clip-path-4)">
                  <path id="Trazado_236580" data-name="Trazado 236580" d="M106.558,366.851a5.1,5.1,0,0,1,2.122-3.09,5.642,5.642,0,0,1,3.741-.973l-.125,4.122Z" fill="#fff"/>
                </g>
              </g>
            </g>
            <g id="Grupo_184016" data-name="Grupo 184016" opacity="0.6">
              <g id="Grupo_184015" data-name="Grupo 184015">
                <g id="Grupo_184014" data-name="Grupo 184014" clip-path="url(#clip-path-5)">
                  <path id="Trazado_236581" data-name="Trazado 236581" d="M89.814,364.467s-4.764,1.14-4.2,1.879,18.68,1.215,26.689.776l-.015-.331L91.159,366.4s-.423-1.875-1.345-1.936" fill="#fff"/>
                </g>
              </g>
            </g>
            <path id="Trazado_236582" data-name="Trazado 236582" d="M112.54,366.788a1.575,1.575,0,0,1-.273.02l-.785.024-2.887.039c-2.438.018-5.806,0-9.524-.094s-7.085-.251-9.518-.393l-2.88-.187-.782-.064a1.528,1.528,0,0,1-.271-.034,1.633,1.633,0,0,1,.274,0l.784.029,2.883.131c2.434.109,5.8.244,9.515.34s7.082.132,9.519.147l2.886.017.785.01a1.666,1.666,0,0,1,.274.016" fill="#263238"/>
            <path id="Trazado_236583" data-name="Trazado 236583" d="M91.156,366.632a5.733,5.733,0,0,0-.5-1.294,6.229,6.229,0,0,0-.951-1.052,2.107,2.107,0,0,1,1.118.963,1.869,1.869,0,0,1,.333,1.383" fill="#263238"/>
            <path id="Trazado_236584" data-name="Trazado 236584" d="M95.9,364.547c-.046.025-.262-.234-.483-.579s-.363-.645-.318-.67.262.233.483.578.364.646.318.671" fill="#263238"/>
            <path id="Trazado_236585" data-name="Trazado 236585" d="M97.208,363.95c-.037.036-.282-.126-.549-.361s-.452-.456-.416-.492.283.126.549.362.452.455.416.491" fill="#263238"/>
            <path id="Trazado_236586" data-name="Trazado 236586" d="M98.062,362.579a3.906,3.906,0,0,1-1.658-.026,1.979,1.979,0,0,1,.831-.076,2.006,2.006,0,0,1,.827.1" fill="#263238"/>
            <path id="Trazado_236587" data-name="Trazado 236587" d="M98.371,361.605a1.693,1.693,0,0,1-.931.225,1.71,1.71,0,0,1-.95-.143,5.453,5.453,0,0,1,.941-.035,5.4,5.4,0,0,1,.94-.047" fill="#263238"/>
            <path id="Trazado_236588" data-name="Trazado 236588" d="M95.4,363.247a3.164,3.164,0,0,1-1.019-.033,6.3,6.3,0,0,1-1.079-.251,3.141,3.141,0,0,1-.614-.254.52.52,0,0,1-.243-.3.362.362,0,0,1,.166-.375,1.951,1.951,0,0,1,2.3.569,1.651,1.651,0,0,1,.314.641c.036.164.03.256.018.257a2.579,2.579,0,0,0-.439-.821,1.853,1.853,0,0,0-.855-.549,1.7,1.7,0,0,0-1.218.045c-.165.108-.107.286.07.391a3.1,3.1,0,0,0,.566.242,7.346,7.346,0,0,0,1.042.282c.607.116,1,.128.995.157" fill="#263238"/>
            <path id="Trazado_236589" data-name="Trazado 236589" d="M95.139,363.287a.88.88,0,0,1-.1-.661,1.5,1.5,0,0,1,.3-.685,1.036,1.036,0,0,1,.863-.461.376.376,0,0,1,.3.446,1.006,1.006,0,0,1-.186.419,2.96,2.96,0,0,1-.5.561,1.5,1.5,0,0,1-.6.368c-.017-.024.208-.165.5-.458a3.325,3.325,0,0,0,.444-.557c.146-.2.252-.554,0-.6a.93.93,0,0,0-.684.385,1.519,1.519,0,0,0-.307.608,3.166,3.166,0,0,0-.036.639" fill="#263238"/>
            <path id="Trazado_236590" data-name="Trazado 236590" d="M112.339,362.744c0,.033-.453-.052-1.173.008a5.354,5.354,0,0,0-2.586.912,4.8,4.8,0,0,0-1.662,2.057c-.261.626-.3,1.051-.334,1.045a.81.81,0,0,1,.009-.3,3.669,3.669,0,0,1,.2-.791,4.584,4.584,0,0,1,1.674-2.157,5.156,5.156,0,0,1,2.693-.9,4.507,4.507,0,0,1,.872.044.98.98,0,0,1,.31.075" fill="#263238"/>
            <path id="Trazado_236591" data-name="Trazado 236591" d="M104.605,365.36a13.988,13.988,0,0,1-4.637-.081c.007-.052,1.041.035,2.318.055s2.314-.026,2.319.026" fill="#263238"/>
            <path id="Trazado_236592" data-name="Trazado 236592" d="M107.714,365.438c.038.037-.091.2-.2.42s-.177.413-.231.408-.075-.235.058-.486.343-.379.376-.342" fill="#263238"/>
            <path id="Trazado_236593" data-name="Trazado 236593" d="M108.927,364.113c.037.036-.07.186-.239.337s-.336.243-.372.208.07-.187.239-.337.335-.244.372-.208" fill="#263238"/>
            <path id="Trazado_236594" data-name="Trazado 236594" d="M110.623,363.538c-.013.05-.223.042-.459.113s-.407.181-.447.146.1-.235.391-.317.532.013.515.058" fill="#263238"/>
            <path id="Trazado_236595" data-name="Trazado 236595" d="M111.826,363.277c.017.047-.077.12-.21.164s-.255.042-.273-.005.076-.12.209-.163.255-.042.274,0" fill="#263238"/>
            <path id="Trazado_236596" data-name="Trazado 236596" d="M174.271,90.165a30.529,30.529,0,0,1,12.261,4.828c14.647,9.494,39.141,29.572,37.109,38.87-1.73,7.915-20.834,17.526-20.834,17.526L190.4,136.465l7.606-4.35-18.7-12.438Z" fill="#263238"/>
            <path id="Trazado_236597" data-name="Trazado 236597" d="M182.623,120.393l-.609,2.226-2.153,10.291-.531,15.082c11.11,14.3,11.277,26.35,11.277,26.35L134.49,180.9c.01-11.084,4.054-25.044,4.054-25.044,3.247-5.508,3.09-21.983,2.484-22.584-3.507-3.475-4.356-6.023-1.556-10.473,0,0-17.4,18.274-19.189,19.916-6.147,5.635-12.058,4.063-14.8,1.614-7.683-6.857.2-15.7.2-15.7l29.3-33.584A14.589,14.589,0,0,1,142.6,90.4c3.123-.737,6.275-1.113,6.275-1.113l19.565.167a32.828,32.828,0,0,1,5.829.712,13.993,13.993,0,0,1,8.544,10.591c1.752,8.409-.192,19.637-.192,19.637" fill="#263238"/>
            <path id="Trazado_236598" data-name="Trazado 236598" d="M183.236,106.941a7.917,7.917,0,0,1,.12,1.626c.026,1.048.006,2.567-.106,4.439a118.013,118.013,0,0,1-1.932,14.507c-.367,1.915-.753,3.759-1.157,5.468l.008-.061c-.172,4.36-.345,8.129-.494,10.808q-.119,1.868-.2,3.137a4.63,4.63,0,0,1-.145,1.127,4.613,4.613,0,0,1-.065-1.134c.006-.85.012-1.9.02-3.144.041-2.683.133-6.455.267-10.815v-.029l.007-.032c.385-1.695.763-3.539,1.128-5.445,1.068-5.6,1.778-10.706,2.11-14.422.169-1.857.257-3.365.308-4.408a8.02,8.02,0,0,1,.13-1.622" fill="#455a64"/>
            <path id="Trazado_236599" data-name="Trazado 236599" d="M183.426,122.027c.1-.146,4.688,2.854,10.244,6.7s9.981,7.08,9.881,7.226-4.687-2.853-10.246-6.7-9.98-7.08-9.879-7.226" fill="#455a64"/>
            <path id="Trazado_236600" data-name="Trazado 236600" d="M147.148,100.036c.015-.016.114.059.288.217a5.808,5.808,0,0,1,.7.762,8.476,8.476,0,0,1,1.519,3.478,11.5,11.5,0,0,1-.319,5.622,22.975,22.975,0,0,1-3.149,6.118,21.823,21.823,0,0,1-2.314,2.72c-.815.83-1.688,1.512-2.451,2.208-1.552,1.391-2.89,2.712-4,3.837s-1.978,2.061-2.583,2.707a6.044,6.044,0,0,1-.979.97,5.422,5.422,0,0,1,.791-1.133c.547-.7,1.371-1.683,2.442-2.856s2.383-2.534,3.927-3.962c.771-.725,1.627-1.41,2.4-2.213a22.136,22.136,0,0,0,2.239-2.653,23.517,23.517,0,0,0,3.105-5.921,11.45,11.45,0,0,0,.438-5.362,10.075,10.075,0,0,0-2.058-4.539" fill="#455a64"/>
            <path id="Trazado_236601" data-name="Trazado 236601" d="M140.617,149.641l.648-7.539h38.273l-.207,5.891Z" fill="#455a64"/>
            <path id="Trazado_236602" data-name="Trazado 236602" d="M107.967,127.14c.07.1-.967.724-2.121,2.216a10.2,10.2,0,0,0,.543,13.372c1.272,1.393,2.356,1.935,2.294,2.036-.018.035-.3-.063-.782-.325a8.71,8.71,0,0,1-1.839-1.4,10.121,10.121,0,0,1-.567-13.973,8.677,8.677,0,0,1,1.719-1.541c.455-.3.732-.421.753-.388" fill="#455a64"/>
            <path id="Trazado_236603" data-name="Trazado 236603" d="M181.3,357.361l4.34,10.1-19.422-.231-.41-10.293Z" fill="#8c5be1"/>
            <path id="Trazado_236604" data-name="Trazado 236604" d="M166.077,365.481a17.87,17.87,0,0,0,2.719.139c1.683.029,4,.02,6.567-.021l6.558-.136a20.217,20.217,0,0,0,2.716-.138,18.154,18.154,0,0,0-2.72-.133c-1.681-.026-4.006-.017-6.567.025l-6.556.132a20.6,20.6,0,0,0-2.717.132" fill="#263238"/>
            <path id="Trazado_236605" data-name="Trazado 236605" d="M174.173,357.141c-.17.009-.206,1.844-.081,4.1s.363,4.072.533,4.063.206-1.843.081-4.1-.363-4.071-.533-4.062" fill="#263238"/>
            <g id="Grupo_184019" data-name="Grupo 184019" opacity="0.6">
              <g id="Grupo_184018" data-name="Grupo 184018">
                <g id="Grupo_184017" data-name="Grupo 184017" clip-path="url(#clip-path-6)">
                  <path id="Trazado_236606" data-name="Trazado 236606" d="M185.613,367.669l-19.412-.65-.124-1.842,18.56.159.983,2.114" fill="#fff"/>
                </g>
              </g>
            </g>
            <path id="Trazado_236607" data-name="Trazado 236607" d="M189.369,164.618c14.612,46.116-4.226,102.094.292,155.828.444,5.279,2.586,11.595-2.35,14.6a8.062,8.062,0,0,1-4.455,1.088c-3.946-.129-7.241-2.176-10.763-3.581a31.97,31.97,0,0,0-21.178-.821c-4.662,1.454-9.285,4.022-14.114,3.292-6.412-.969-10.568-7.308-16.47-9.994-5.526-2.514-11.909-1.576-17.978-1.728l-.182-.005a13.621,13.621,0,0,1-12.578-17.248c8.82-32.305,38.075-137.25,51.024-156.409l38.713-1.648c3.568,4.311,8.152,10.75,10.039,16.626" fill="#8c5be1"/>
            <path id="Trazado_236608" data-name="Trazado 236608" d="M175.806,186.327a17.163,17.163,0,0,1-2.106,2.647,60.4,60.4,0,0,1-5.715,5.842,38.41,38.41,0,0,1-6.745,4.639,14.924,14.924,0,0,1-3.074,1.423c-.132-.224,4.6-2.426,9.4-6.546,2.379-2.075,4.342-4.179,5.8-5.665a18.151,18.151,0,0,1,2.44-2.34" fill="#263238"/>
            <g id="Grupo_184022" data-name="Grupo 184022" opacity="0.1">
              <g id="Grupo_184021" data-name="Grupo 184021">
                <g id="Grupo_184020" data-name="Grupo 184020" clip-path="url(#clip-path-7)">
                  <path id="Trazado_236609" data-name="Trazado 236609" d="M158.712,203.729a164.946,164.946,0,0,0-6.486,98.708c.693,2.819,1.4,6.023-.2,8.441-2.078,3.132-7.109,2.916-9.954.46s-3.981-6.324-4.694-10.015c-5.315-27.513,4.311-55.16,14.71-81.18"/>
                </g>
              </g>
            </g>
          </g>
        </g>
        <g id="Grupo_184026" data-name="Grupo 184026">
          <g id="Grupo_184025" data-name="Grupo 184025" clip-path="url(#clip-path)">
            <path id="Trazado_236610" data-name="Trazado 236610" d="M79.931,109.7a31.882,31.882,0,0,1,1.079,5.078,39.56,39.56,0,0,1,.383,5.338,39.165,39.165,0,0,1-.626,7.291,29.377,29.377,0,0,1-1.881,6.206,30.279,30.279,0,0,1-3.133,5.556,46.155,46.155,0,0,1-4.388,5.251q-2.577,2.779-4.6,5.165a33.773,33.773,0,0,0-3.412,4.774,20.411,20.411,0,0,0-2.09,4.948,21.632,21.632,0,0,0-.7,5.685,15.7,15.7,0,0,0,.766,4.992,11.534,11.534,0,0,0,2.194,3.95,10.27,10.27,0,0,0,3.483,2.6,10.689,10.689,0,0,0,4.561.955,25.95,25.95,0,0,0,11.282-2.821,36.754,36.754,0,0,0,11.074-8.55v26.128a39.236,39.236,0,0,1-11.7,5.989,43.359,43.359,0,0,1-13.093,2,39.435,39.435,0,0,1-12.049-1.78A25.012,25.012,0,0,1,40.89,183.092a39.066,39.066,0,0,1-2.334-14.278,43.427,43.427,0,0,1,.975-9.592,36.67,36.67,0,0,1,2.856-8.116,40.829,40.829,0,0,1,4.666-7.334,96.624,96.624,0,0,1,6.406-7.249q2.438-2.516,4.284-4.686a28.667,28.667,0,0,0,3.065-4.3,18.56,18.56,0,0,0,1.845-4.513,21.413,21.413,0,0,0,.626-5.425,20.82,20.82,0,0,0-.452-4.253,14.344,14.344,0,0,0-1.219-3.646ZM69.763,71.682a11.723,11.723,0,0,1,9.263,4.167,15.312,15.312,0,0,1,3.691,10.243,14.575,14.575,0,0,1-3.691,10.155,11.963,11.963,0,0,1-9.263,4.079,11.673,11.673,0,0,1-9.123-4.079,14.54,14.54,0,0,1-3.622-10.155,14.962,14.962,0,0,1,3.552-10.33A11.755,11.755,0,0,1,69.763,71.682Z" fill="none" stroke="#000" stroke-width="1.046"/>
            <path id="Trazado_236611" data-name="Trazado 236611" d="M23.5,86.4a23.926,23.926,0,0,1-.81-3.809A29.978,29.978,0,0,1,22.4,78.59a29.422,29.422,0,0,1,.47-5.47,22.013,22.013,0,0,1,1.411-4.655,22.634,22.634,0,0,1,2.35-4.168,34.726,34.726,0,0,1,3.292-3.94q1.933-2.085,3.451-3.875a25.292,25.292,0,0,0,2.56-3.581,15.316,15.316,0,0,0,1.568-3.712,16.231,16.231,0,0,0,.525-4.265,11.784,11.784,0,0,0-.575-3.745,8.648,8.648,0,0,0-1.646-2.963A7.72,7.72,0,0,0,33.2,36.265a8.021,8.021,0,0,0-3.421-.716,19.464,19.464,0,0,0-8.464,2.116A27.579,27.579,0,0,0,13,44.079v-19.6a29.467,29.467,0,0,1,8.778-4.493,32.52,32.52,0,0,1,9.822-1.5,29.591,29.591,0,0,1,9.039,1.335A18.763,18.763,0,0,1,52.789,31.346a29.306,29.306,0,0,1,1.75,10.712,32.6,32.6,0,0,1-.731,7.2,27.5,27.5,0,0,1-2.143,6.088,30.573,30.573,0,0,1-3.5,5.5,72.3,72.3,0,0,1-4.806,5.438Q41.53,68.171,40.145,69.8a21.586,21.586,0,0,0-2.3,3.226,13.9,13.9,0,0,0-1.384,3.385,16.039,16.039,0,0,0-.47,4.07,15.7,15.7,0,0,0,.339,3.191,10.793,10.793,0,0,0,.915,2.735Zm7.628,28.522a8.791,8.791,0,0,1-6.949-3.126,11.486,11.486,0,0,1-2.769-7.684A10.936,10.936,0,0,1,24.179,96.5a8.975,8.975,0,0,1,6.949-3.06,8.759,8.759,0,0,1,6.844,3.06,10.9,10.9,0,0,1,2.717,7.619,11.225,11.225,0,0,1-2.664,7.749A8.822,8.822,0,0,1,31.128,114.926Z" fill="none" stroke="#000" stroke-width="0.785"/>
          </g>
        </g>
      </g>
    </g>
  </g>
</svg>
