<?xml version="1.0" encoding="utf-8"?>
<!-- Generator: Adobe Illustrator 26.2.1, SVG Export Plug-In . SVG Version: 6.00 Build 0)  -->
<svg version="1.1" id="Layer_1" xmlns="http://www.w3.org/2000/svg" xmlns:xlink="http://www.w3.org/1999/xlink" x="0px" y="0px"
	 viewBox="0 0 1000.9 616.7" style="enable-background:new 0 0 1000.9 616.7;" xml:space="preserve">
<style type="text/css">
	.st0{fill:#A7A9AC;}
	.st1{fill:#B4B4B4;}
	.st2{fill:none;stroke:#818181;stroke-width:5;stroke-miterlimit:10;}
	.st3{fill:#FFFFFF;stroke:#818181;stroke-width:3;stroke-miterlimit:10;}
	.st4{fill:#989898;}
	.st5{fill:#FFFFFF;}
	.st6{fill:none;stroke:#CCCCCC;stroke-width:11;stroke-linecap:round;stroke-miterlimit:10;}
	.st7{fill:#4E4E4E;}
</style>
<g>
	<path class="st0" d="M932,547.2H69c-17.9,0-32.5-14.6-32.5-32.5V101.9C36.5,84,51.1,69.4,69,69.4h863c17.9,0,32.5,14.6,32.5,32.5
		v412.8C964.4,532.7,949.9,547.2,932,547.2z M69,74.4c-15.2,0-27.5,12.3-27.5,27.5v412.8c0,15.2,12.3,27.5,27.5,27.5h863
		c15.2,0,27.5-12.3,27.5-27.5V101.9c0-15.2-12.3-27.5-27.5-27.5H69z"/>
	<g>
		<g>
			<path class="st1" d="M718.6,306.5l-6.1,6.1l2.9,6c-1.1,1.6-2.1,3.3-2.9,5l-6.7,0.4l-2.2,8.3l5.6,3.7l0,0c-0.1,1-0.1,2-0.1,2.9
				c0,1,0,2,0.1,3l0,0l-5.6,3.7l2.2,8.3l6.7,0.4c0.8,1.7,1.8,3.4,2.9,5l-3,6l6.1,6.1l6-3c1.6,1.1,3.3,2.1,5.1,2.9l0.4,6.7l8.3,2.2
				l3.7-5.6c1,0.1,1.9,0.1,2.9,0.1c1,0,2,0,3-0.1l0,0l3.7,5.6l8.3-2.2l0.5-6.7c1.7-0.8,3.4-1.8,5-2.9l6,3l6.1-6.1l-3-6
				c1.1-1.6,2.1-3.3,2.9-5l6.7-0.5l2.2-8.3L781,342c0.1-1,0.1-1.9,0.1-2.9c0-1,0-2-0.1-2.9l5.6-3.7l-2.2-8.3l-6.7-0.4
				c-0.8-1.7-1.8-3.4-2.9-5l3-6l-6.1-6.1l-6,3c-1.6-1.1-3.3-2.1-5-2.9l-0.4-6.7l-8.3-2.2l-3.7,5.6l0,0c-1-0.1-2-0.1-3-0.1
				c-1,0-1.9,0-2.9,0.1l-3.7-5.6l-8.3,2.2l-0.5,6.7c-1.7,0.8-3.4,1.8-5,2.9L718.6,306.5z M764,320.2c10.4,10.4,10.4,27.4,0,37.8
				c-10.4,10.4-27.4,10.4-37.8,0c-10.4-10.4-10.4-27.4,0-37.8C736.6,309.7,753.6,309.7,764,320.2z"/>
			<circle class="st2" cx="745.1" cy="339.1" r="73.8"/>
			<path class="st3" d="M740.1,172.3c-88.9,2.6-160.3,74.6-161.9,163.7h67.1c0.7-22.4,8.7-43,21.8-59.3l4.1,1.1l12.2,3.3l-3.3-12.2
				l-1.2-4.6c16.5-14.6,37.7-23.8,61.2-24.9V172.3z"/>
			<path class="st3" d="M912,336c-1.6-89.1-73-161.1-161.9-163.7v67.1c23.4,1.1,44.7,10.4,61.2,24.9l-1.2,4.6l-3.3,12.2l12.2-3.3
				l4.1-1.1c13.1,16.3,21.2,36.9,21.8,59.3H912z"/>
			<path class="st3" d="M844.7,346c-1.5,22.6-10.6,43.1-24.7,59.1l-1.1-0.3l-12.2-3.3l3.3,12.2l0.3,1c-16.3,14.1-37.2,23-60.2,24.1
				v67.1c87.6-2.6,158.2-72.6,161.8-159.9H844.7z"/>
			<path class="st3" d="M680,414.7l0.3-1l3.3-12.2l-12.2,3.3l-1.1,0.3c-14.1-16-23.2-36.5-24.7-59.1h-67.1
				c3.5,87.3,74.2,157.4,161.8,159.9v-67.1C717.2,437.7,696.3,428.8,680,414.7z"/>
			<circle class="st4" cx="865.8" cy="226.6" r="24.6"/>
			<circle class="st4" cx="621.8" cy="226.6" r="21.7"/>
			<circle class="st4" cx="621.8" cy="451.5" r="21.7"/>
			<circle class="st4" cx="865.8" cy="451.5" r="24.6"/>
			<polygon class="st5" points="624.1,224.4 624.1,216.8 619.6,216.8 619.6,224.4 612,224.4 612,228.9 619.6,228.9 619.6,236.5 
				624.1,236.5 624.1,228.9 631.7,228.9 631.7,224.4 			"/>
			<polygon class="st5" points="868.1,224.4 868.1,216.8 863.6,216.8 863.6,224.4 856,224.4 856,228.9 863.6,228.9 863.6,236.5 
				868.1,236.5 868.1,228.9 875.7,228.9 875.7,224.4 			"/>
			<polygon class="st5" points="624.1,449.3 624.1,441.7 619.6,441.7 619.6,449.3 612,449.3 612,453.8 619.6,453.8 619.6,461.4 
				624.1,461.4 624.1,453.8 631.7,453.8 631.7,449.3 			"/>
			<polygon class="st5" points="868.1,449.3 868.1,441.7 863.6,441.7 863.6,449.3 856,449.3 856,453.8 863.6,453.8 863.6,461.4 
				868.1,461.4 868.1,453.8 875.7,453.8 875.7,449.3 			"/>
		</g>
		<g>
			<g>
				<g>
					<path class="st1" d="M402.5,361.3l-7.4,3.7l-1.6-3.3l7.4-3.7L402.5,361.3z"/>
					<path class="st1" d="M400.9,390.7l-7.4-3.7l1.6-3.3l7.4,3.7L400.9,390.7z"/>
					<path class="st1" d="M396.2,372.5h7.5v3.7h-7.5V372.5z"/>
					<path class="st1" d="M343.6,358l7.4,3.7l-1.6,3.3l-7.4-3.7L343.6,358z"/>
					<path class="st1" d="M343.6,390.7l-1.6-3.3l7.4-3.7l1.6,3.3L343.6,390.7z"/>
					<path class="st1" d="M340.9,372.5h7.5v3.7h-7.5V372.5z"/>
					<path class="st1" d="M366.7,413.2h11v3.7h-11V413.2z"/>
					<path class="st1" d="M392.5,374.3c0-11.2-9.1-20.2-20.2-20.2s-20.2,9.1-20.2,20.2c0,7.6,4.3,14.6,11,18v5.9h-3.7v3.7h3.7v7.6
						h18.4v-7.6h3.7v-3.7h-3.7v-5.9C388.2,388.9,392.5,381.9,392.5,374.3z M377.8,405.9h-11v-3.9h11V405.9z M370.4,378
						c0-1,0.8-1.8,1.8-1.8c1,0,1.8,0.8,1.8,1.8c0,1-0.8,1.8-1.8,1.8C371.3,379.9,370.4,379,370.4,378z M374.1,398.3v-15
						c2.1-0.8,3.7-2.8,3.7-5.2c0-3-2.5-5.5-5.5-5.5s-5.5,2.5-5.5,5.5c0,2.4,1.5,4.4,3.7,5.2v15h-3.7V390l-1.1-0.5
						c-6-2.7-9.9-8.6-9.9-15.2c0-9.1,7.4-16.6,16.6-16.6c9.1,0,16.6,7.4,16.6,16.6c0,6.6-3.9,12.5-9.9,15.2l-1.1,0.5v8.3H374.1z"/>
				</g>
			</g>
			<circle class="st2" cx="183.4" cy="380.5" r="64.2"/>
			<circle class="st2" cx="372.3" cy="380.5" r="64.2"/>
			<path class="st6" d="M466.7,380.5c0,52.2-42.3,94.4-94.4,94.4s-94.4-42.3-94.4-94.4v0c0-52.2-42.3-94.4-94.4-94.4
				S89,328.3,89,380.5"/>
			<path class="st3" d="M458,277.9H112.9c-13.2,0-24-10.7-24-24v-70.7c0-13.2,10.7-24,24-24H458c13.2,0,24,10.7,24,24v70.7
				C482,267.1,471.3,277.9,458,277.9z"/>
			<g>
				<circle class="st4" cx="183.8" cy="277.9" r="24.6"/>
			</g>
			<g>
				<g>
					<path class="st1" d="M204.3,362.5l3.2-3.2l2.9,2.9l2.9-2.9l-8.6-8.6l-2.9,2.9l2.9,2.9l-3.4,3.4c-3.5-2.5-7.5-4.3-11.7-5.1V350
						h4v-4h-20.2v4h4v4.8c-4.2,0.8-8.2,2.6-11.7,5.1l-3.4-3.4l2.9-2.9l-2.9-2.9l-8.6,8.6l2.9,2.9l2.9-2.9l3.2,3.2
						c-6,5.7-9.5,13.5-9.5,22c0,16.8,13.6,30.5,30.4,30.5c16.7,0,30.4-13.7,30.4-30.5C213.7,376.4,210.5,368.4,204.3,362.5z
						 M181.4,350h4v4.2c-0.7,0-1.3-0.1-2-0.1c-0.7,0-1.4,0-2,0.1V350z M183.4,411c-14.5,0-26.3-11.9-26.3-26.4
						c0-14.5,11.8-26.3,26.3-26.3c14.5,0,26.3,11.8,26.3,26.3C209.7,399.1,197.9,411,183.4,411z"/>
					<path class="st1" d="M185.4,378.8v-16.5h-4v16.5c-2.4,0.8-4,3.1-4,5.7c0,3.3,2.7,6.1,6.1,6.1c3.3,0,6.1-2.7,6.1-6.1
						C189.5,381.9,187.8,379.6,185.4,378.8z M183.4,386.6c-1.1,0-2-0.9-2-2c0-1.1,0.9-2,2-2c1.1,0,2,0.9,2,2
						C185.4,385.7,184.5,386.6,183.4,386.6z"/>
					<path class="st1" d="M181.4,402.7h4v4h-4V402.7z"/>
					<path class="st1" d="M161.1,382.5h4v4h-4V382.5z"/>
					<path class="st1" d="M201.6,382.5h4v4h-4V382.5z"/>
					<path class="st1" d="M169.1,401.7l-2.9-2.9l2.9-2.9l2.9,2.9L169.1,401.7z"/>
					<path class="st1" d="M197.7,373.1l-2.9-2.9l2.9-2.9l2.9,2.9L197.7,373.1z"/>
					<path class="st1" d="M197.7,401.7l-2.9-2.9l2.9-2.9l2.9,2.9L197.7,401.7z"/>
					<path class="st1" d="M169.1,373.1l-2.9-2.9l2.9-2.9l2.9,2.9L169.1,373.1z"/>
				</g>
			</g>
			<g>
				<g>
					<path class="st5" d="M186.7,281.4h-7l-1.3,3.9h-4.4l7.4-19h3.8l7.4,19H188L186.7,281.4z M185.6,278.2l-2.4-7l-2.4,7H185.6z"/>
				</g>
			</g>
			<g>
				<circle class="st4" cx="374.1" cy="481.2" r="24.6"/>
			</g>
			<g>
				<g>
					<path class="st5" d="M381.1,485.9c0,3.8-2.6,5.8-6.7,5.8h-8.2v-19h8.7c3.7,0,5.7,1.9,5.7,5c0,1.9-0.9,3.1-2.1,3.8
						C380,482.1,381.1,483.5,381.1,485.9z M370.3,475.7v4.7h3.4c2,0,2.9-1,2.9-2.4c0-1.4-0.7-2.3-2.9-2.3H370.3z M377,486
						c0-1.6-1-2.5-3-2.5h-3.7v5.1h3.6C375.9,488.6,377,487.7,377,486z"/>
				</g>
			</g>
		</g>
		<g>
			<path class="st7" d="M212.8,118.1c0,4-2.3,5.7-6.1,5.7h-4.4v5.4h-2.3v-16.7h6.7C210.5,112.5,212.8,114.2,212.8,118.1z
				 M210.5,118.1c0-2.5-1.5-3.5-3.8-3.5h-4.4v7.1h4.4C208.9,121.7,210.5,120.7,210.5,118.1z"/>
			<path class="st7" d="M226.1,116.7v12.5h-1.9l-0.1-1.4c-1.1,1.1-2.5,1.7-4.2,1.7c-3.2,0-4.4-1.5-4.4-5.1v-7.8h2.2v7.6
				c0,2.4,0.8,3.3,2.6,3.3c1.2,0,2.6-0.5,3.7-1.8v-9.1H226.1z"/>
			<path class="st7" d="M241.1,121.5v7.7h-2.2v-7.5c0-2.3-1.1-3.4-3-3.4c-1.3,0-2.7,0.6-3.7,1.8v9.1h-2.2v-12.5h1.9l0.2,1.3
				c1.1-1.1,2.6-1.7,4.2-1.7C239.6,116.3,241.1,118.1,241.1,121.5z"/>
			<path class="st7" d="M252.8,127v1.9c-1.1,0.5-2.1,0.6-3.4,0.6c-2.8,0-4.1-1.5-4.1-4.6v-6.1h-2.1v-2.1h2.1l0.6-3h1.6v3h5v2.1h-5v6
				c0,2,0.7,2.8,2.6,2.8C251,127.5,252,127.3,252.8,127z"/>
			<path class="st7" d="M254.2,123c0-4.1,2.4-6.7,6.3-6.7c3.8,0,6.2,2.6,6.2,6.6c0,4.1-2.4,6.7-6.3,6.7
				C256.6,129.6,254.2,127,254.2,123z M264.5,122.9c0-2.9-1.6-4.7-4-4.7c-2.4,0-4,1.8-4,4.7c0,2.9,1.6,4.7,4,4.7
				C263,127.6,264.5,125.8,264.5,122.9z"/>
			<path class="st7" d="M269,128.8v-2.2c1.4,0.7,2.9,1,4.4,1c2.1,0,3-0.6,3-1.8c0-1.1-0.7-1.6-3-2c-3.1-0.5-4.4-1.6-4.4-3.7
				c0-2.4,1.8-3.8,5-3.8c1.7,0,2.9,0.2,3.9,0.6v2.1c-1.5-0.5-2.6-0.7-4-0.7c-1.9,0-2.8,0.5-2.8,1.6c0,1,0.7,1.4,3.4,1.9
				c2.9,0.5,4.1,1.6,4.1,3.9c0,2.5-1.9,3.9-5.3,3.9C271.8,129.6,270.2,129.3,269,128.8z"/>
			<path class="st7" d="M286.6,123c0-3.9,2.5-6.7,6.6-6.7c1.2,0,2.1,0.2,3,0.5v2c-0.8-0.4-1.8-0.6-3.1-0.6c-2.7,0-4.3,1.9-4.3,4.7
				c0,2.8,1.4,4.7,4.2,4.7c1.1,0,2.2-0.2,3.2-0.7v2c-0.7,0.4-2.1,0.7-3.4,0.7C288.8,129.6,286.6,127,286.6,123z"/>
			<path class="st7" d="M308.7,121.4v7.8h-1.9l-0.1-1.2c-1.1,1-2.5,1.5-4.3,1.5c-2.7,0-4.2-1.4-4.2-3.7c0-2.4,1.7-3.8,4.7-3.8
				c1.4,0,2.5,0.2,3.6,0.6v-1.3c0-2-1-2.9-3.2-2.9c-1.6,0-2.9,0.3-4,0.8v-2.1c1.2-0.5,2.6-0.8,4.1-0.8
				C307.1,116.3,308.7,118,308.7,121.4z M306.4,126.2v-1.9c-1.1-0.3-2.2-0.5-3.2-0.5c-1.8,0-2.8,0.6-2.8,2c0,1.5,1,2,2.4,2
				C304.2,127.7,305.5,127.2,306.4,126.2z"/>
			<path class="st7" d="M312.3,111.3h2.2v17.9h-2.2V111.3z"/>
			<path class="st7" d="M318,112.4c0-1,0.7-1.6,1.6-1.6c0.9,0,1.6,0.6,1.6,1.6s-0.7,1.6-1.6,1.6C318.6,114,318,113.4,318,112.4z
				 M318.4,116.7h2.2v12.5h-2.2V116.7z"/>
			<path class="st7" d="M335.1,122.5v1.2H326c0.2,2.5,1.7,3.9,4.5,3.9c1.5,0,2.6-0.2,4-0.8v2.1c-1.4,0.5-2.5,0.7-4.3,0.7
				c-4.2,0-6.4-2.5-6.4-6.6c0-4,2.3-6.7,6-6.7C333.1,116.3,335.1,118.4,335.1,122.5z M326,121.8h6.8c-0.1-2.5-1.2-3.6-3.2-3.6
				C327.7,118.2,326.3,119.5,326,121.8z"/>
			<path class="st7" d="M349.2,121.5v7.7H347v-7.5c0-2.3-1.1-3.4-3-3.4c-1.3,0-2.7,0.6-3.7,1.8v9.1H338v-12.5h1.9l0.2,1.3
				c1.1-1.1,2.6-1.7,4.2-1.7C347.7,116.3,349.2,118.1,349.2,121.5z"/>
			<path class="st7" d="M360.9,127v1.9c-1.1,0.5-2.1,0.6-3.4,0.6c-2.8,0-4.1-1.5-4.1-4.6v-6.1h-2.1v-2.1h2.1l0.6-3h1.6v3h5v2.1h-5v6
				c0,2,0.7,2.8,2.6,2.8C359.1,127.5,360.1,127.3,360.9,127z"/>
			<path class="st7" d="M373.7,122.5v1.2h-9.1c0.2,2.5,1.7,3.9,4.5,3.9c1.5,0,2.6-0.2,4-0.8v2.1c-1.4,0.5-2.5,0.7-4.3,0.7
				c-4.2,0-6.4-2.5-6.4-6.6c0-4,2.3-6.7,6-6.7C371.8,116.3,373.7,118.4,373.7,122.5z M364.7,121.8h6.8c-0.1-2.5-1.2-3.6-3.2-3.6
				C366.4,118.2,365,119.5,364.7,121.8z"/>
			<path class="st7" d="M376,128.8v-2.2c1.4,0.7,2.9,1,4.4,1c2.1,0,3-0.6,3-1.8c0-1.1-0.7-1.6-3-2c-3.1-0.5-4.4-1.6-4.4-3.7
				c0-2.4,1.8-3.8,5-3.8c1.7,0,2.9,0.2,3.9,0.6v2.1c-1.5-0.5-2.6-0.7-4-0.7c-1.9,0-2.8,0.5-2.8,1.6c0,1,0.7,1.4,3.4,1.9
				c2.9,0.5,4.1,1.6,4.1,3.9c0,2.5-1.9,3.9-5.3,3.9C378.8,129.6,377.1,129.3,376,128.8z"/>
		</g>
		<g>
			<path class="st7" d="M715.6,112.5v16.7h-2.2v-9l0.1-4.2c-0.4,0.7-0.8,1.4-1.2,2.1l-4.1,6.4h-1.5l-4.2-6.4
				c-0.4-0.6-0.8-1.2-1.1-1.9l0,4v9h-2.2v-16.7h2.1l6.2,9.5l6.1-9.5H715.6z"/>
			<path class="st7" d="M718.7,123c0-4.1,2.4-6.7,6.3-6.7c3.8,0,6.2,2.6,6.2,6.6c0,4.1-2.4,6.7-6.3,6.7
				C721.1,129.6,718.7,127,718.7,123z M729,122.9c0-2.9-1.6-4.7-4-4.7c-2.4,0-4,1.8-4,4.7c0,2.9,1.6,4.7,4,4.7
				C727.5,127.6,729,125.8,729,122.9z"/>
			<path class="st7" d="M745.1,111.3v17.9h-1.9l-0.2-1.5c-1,1.1-2.5,1.8-4.2,1.8c-3.4,0-5.3-2.1-5.3-6.5c0-4.2,2.4-6.8,6.2-6.8
				c1.3,0,2.2,0.1,3.1,0.4v-5.4H745.1z M742.9,125.8v-7c-0.9-0.3-1.9-0.5-3.1-0.5c-2.6,0-4,1.6-4,4.7c0,3,1.2,4.6,3.4,4.6
				C740.6,127.6,741.8,127,742.9,125.8z"/>
			<path class="st7" d="M758.4,121.4v7.8h-1.9l-0.1-1.2c-1.1,1-2.5,1.5-4.3,1.5c-2.7,0-4.2-1.4-4.2-3.7c0-2.4,1.7-3.8,4.7-3.8
				c1.4,0,2.5,0.2,3.6,0.6v-1.3c0-2-1-2.9-3.2-2.9c-1.6,0-2.9,0.3-4,0.8v-2.1c1.2-0.5,2.6-0.8,4.1-0.8
				C756.9,116.3,758.4,118,758.4,121.4z M756.2,126.2v-1.9c-1.1-0.3-2.2-0.5-3.2-0.5c-1.8,0-2.8,0.6-2.8,2c0,1.5,1,2,2.4,2
				C754,127.7,755.2,127.2,756.2,126.2z"/>
			<path class="st7" d="M762.1,111.3h2.2v17.9h-2.2V111.3z"/>
			<path class="st7" d="M778.8,122.5v1.2h-9.1c0.2,2.5,1.7,3.9,4.5,3.9c1.5,0,2.6-0.2,4-0.8v2.1c-1.4,0.5-2.5,0.7-4.3,0.7
				c-4.2,0-6.4-2.5-6.4-6.6c0-4,2.3-6.7,6-6.7C776.8,116.3,778.8,118.4,778.8,122.5z M769.7,121.8h6.8c-0.1-2.5-1.2-3.6-3.2-3.6
				C771.4,118.2,770,119.5,769.7,121.8z"/>
			<path class="st7" d="M781,128.8v-2.2c1.4,0.7,2.9,1,4.4,1c2.1,0,3-0.6,3-1.8c0-1.1-0.7-1.6-3-2c-3.1-0.5-4.4-1.6-4.4-3.7
				c0-2.4,1.8-3.8,5-3.8c1.7,0,2.9,0.2,3.9,0.6v2.1c-1.5-0.5-2.6-0.7-4-0.7c-1.9,0-2.8,0.5-2.8,1.6c0,1,0.7,1.4,3.4,1.9
				c2.9,0.5,4.1,1.6,4.1,3.9c0,2.5-1.9,3.9-5.3,3.9C783.8,129.6,782.1,129.3,781,128.8z"/>
		</g>
	</g>
</g>
</svg>
