<?xml version="1.0" encoding="utf-8"?>
<!-- Generator: Adobe Illustrator 25.2.3, SVG Export Plug-In . SVG Version: 6.00 Build 0)  -->
<svg version="1.1" id="Layer_1" xmlns="http://www.w3.org/2000/svg" xmlns:xlink="http://www.w3.org/1999/xlink" x="0px" y="0px"
	 viewBox="0 0 100 100" style="enable-background:new 0 0 100 100;" xml:space="preserve">
<style type="text/css">
	.st0{fill:#FFFFFF;}
</style>
<path d="M62.9,18.4c-1.6,0.8-2.8,2-3.5,3.6c-3.9-3.8-11.2-2.7-13.5,2.3c-3.6-3.6-10.5-2.8-13.2,1.8L23.9,9.7
	c-2.3-4.2-7.5-5.9-11.8-3.6s-5.9,7.5-3.6,11.8l21.6,40.6c-3.4,0.1-16.6-2.1-19.6,0.1c-4.2,2.3-5.9,7.5-3.6,11.8
	c-0.2,2.8,33.6,20.2,35.8,22.1C55,101,73,85.7,83.8,80.9c9.5-5.1,13.1-16.9,8.1-26.4L74.5,22C72.3,17.8,67.1,16.2,62.9,18.4z"/>
<path class="st0" d="M88,56.6c3.9,7.4,1.1,16.6-6.3,20.6L59.6,88.9c-4.7,2.5-10.2,2.4-14.7-0.2c-0.1,0-32.5-18.8-32.6-18.8
	c-0.6-0.3-1.2-1-1.6-1.7c-1.7-3,1-6.7,4.2-6.3c0.1,0,18.7,1.2,18.9,1.2c0.9,0.1,1.8-0.5,2.1-1.3c0.3-0.6,0.2-1.3-0.1-1.9L12.4,15.8
	c-2.6-5.1,4.9-9.1,7.7-4.1l21.3,40.2c0.6,1.1,1.9,1.5,3,0.9c1.1-0.6,1.5-1.9,0.9-3l-9.1-17.2c-1.1-2.1-0.3-4.7,1.8-5.8
	c2.1-1.1,4.7-0.3,5.8,1.8l9.1,17.2c1.2,2.5,5.2,0.4,3.8-2l-7.1-13.4c-1.1-2.1-0.3-4.7,1.8-5.8c4.5-2.2,6.3,2.4,7.9,5.7l5.1,9.5
	c1.2,2.5,5.2,0.4,3.8-2L63,28.2c-1.1-2.1-0.3-4.7,1.8-5.8c2.1-1.1,4.7-0.3,5.8,1.8C70.8,24.1,88,56.6,88,56.6z"/>
</svg>
