<svg id="Grupo_183719" data-name="Grupo 183719" xmlns="http://www.w3.org/2000/svg" xmlns:xlink="http://www.w3.org/1999/xlink" width="400" height="283.791" viewBox="0 0 400 283.791">
  <defs>
    <clipPath id="clip-path">
      <rect id="Rectángulo_64160" data-name="Rectángulo 64160" width="400" height="283.791" fill="none"/>
    </clipPath>
    <clipPath id="clip-path-2">
      <path id="Trazado_235723" data-name="Trazado 235723" d="M181.462,72.381c-24.949,27.671-23.43,47.25-36.547,56.393C117.124,148.147,83.08,148.2,69.022,166.422,35.471,209.905,123.1,238.69,184.129,215.81c56.117-21.04,98.813-71.016,106.289-84.979,19.514-36.437,16.922-62.458-5.036-75.287-10.345-6.046-25.193-10.128-41.217-10.128-21.429,0-44.967,7.3-62.7,26.966" transform="translate(-61.603 -45.415)" fill="none"/>
    </clipPath>
    <linearGradient id="linear-gradient" x1="-0.096" y1="0.876" x2="-0.092" y2="0.876" gradientUnits="objectBoundingBox">
      <stop offset="0" stop-color="#cde2f5"/>
      <stop offset="1" stop-color="#adcff1"/>
    </linearGradient>
  </defs>
  <g id="Grupo_183714" data-name="Grupo 183714">
    <g id="Grupo_183713" data-name="Grupo 183713" clip-path="url(#clip-path)">
      <path id="Trazado_235712" data-name="Trazado 235712" d="M236.558,83.409s14.092,1.372,22.118,1.2,12.008.247,14.107-3.89c2.081-4.1-2.1-6.275-8.545-6.39s-27.68,9.078-27.68,9.078" transform="translate(101.134 31.778)" fill="#cde9fe"/>
      <path id="Trazado_235713" data-name="Trazado 235713" d="M234.723,91.956s2.2-9.5,1.949-16.558-3.048-18.465,4.492-18.338c6.464.107,3.732,13.262,1.42,18.721-1.537,3.63-7.861,16.175-7.861,16.175" transform="translate(100.349 24.394)" fill="#d6e0f4"/>
      <path id="Trazado_235714" data-name="Trazado 235714" d="M250.841,67.849c1.726-5.36,4.652-12.738,5.552-16.064s2.834-10.992-4.315-13.133c-3.472-1.041-5.682,6.752-5.109,13.37.618,7.135,2.147,21.187,3.873,15.827" transform="translate(105.546 16.484)" fill="#cde9fe"/>
      <path id="Trazado_235715" data-name="Trazado 235715" d="M260.829,56.614s6.223-3.326,12.152-6.742,17.387-10.414,15.246-16.1c-2.257-5.994-9.442-2.415-12.568.845s-14.83,22-14.83,22" transform="translate(111.51 13.056)" fill="#cde9fe"/>
      <path id="Trazado_235716" data-name="Trazado 235716" d="M249.546,70.584c.037-.231,3.7-23.366,2.174-31.488a.229.229,0,0,0-.268-.181.231.231,0,0,0-.183.268c1.516,8.041-2.14,31.1-2.177,31.33a.23.23,0,0,0,.069.2.215.215,0,0,0,.123.061.229.229,0,0,0,.263-.191" transform="translate(106.491 16.635)" fill="#6a8ec8"/>
      <path id="Trazado_235717" data-name="Trazado 235717" d="M215.18,126.237a.325.325,0,0,1-.063-.081.343.343,0,0,1,.134-.468A129.342,129.342,0,0,0,227,118.043c6-4.358,14.391-11.212,20.264-19.122,4.738-6.381,8.238-12.145,11.327-17.229,4.455-7.333,8.3-13.667,14.394-19.725,8.1-8.057,32.809-30.168,33.059-30.39a.344.344,0,0,1,.458.514c-.248.223-24.944,22.321-33.031,30.365-6.031,6-9.858,12.3-14.289,19.594-3.1,5.1-6.607,10.876-11.363,17.282-5.927,7.983-14.377,14.888-20.422,19.274a129.861,129.861,0,0,1-11.814,7.684.346.346,0,0,1-.405-.053" transform="translate(91.948 13.463)" fill="#6a8ec8"/>
      <path id="Trazado_235718" data-name="Trazado 235718" d="M221.057,107.94a5.975,5.975,0,0,0,.585-1.2,127,127,0,0,0,5.976-14.427c.061-.2.134-.434.216-.694,1.652-5.3,6.676-21.451,2.571-26.476a4.421,4.421,0,0,0-4.131-1.5c-4.431.448-6.125,8.1-6.742,12.616-.842,6.185.864,17.339,1.883,22.372a15.672,15.672,0,0,1,.059,6.628c-.31.915-.567,1.61-.7,1.954l-.214.44a.288.288,0,0,0,.059.334.3.3,0,0,0,.435-.046m6.013-15.8a100.949,100.949,0,0,1-4.177,10.534,38.934,38.934,0,0,0,1.319-5.941c.2-1.65.774-6.211,1.432-11.406l4.444-4.064c-.944,4.211-2.157,8.105-2.8,10.183-.081.26-.154.493-.216.7m2.577-26.98a3.783,3.783,0,0,1,.314.341c1.652,2.023,1.9,6.321.734,12.775-.123.677-.256,1.355-.4,2.027-.051.037-4.541,4.144-4.541,4.144.093-.731.186-1.472.28-2.216a.289.289,0,0,0,.1-.347l-.044-.106c1.072-8.459,2.188-17.233,2.208-17.389a3.065,3.065,0,0,1,1.346.769m-3.316-.949a5.456,5.456,0,0,1,1.425.027.306.306,0,0,0-.024.08c-.019.15-1.051,8.258-2.083,16.4l-4.29-10.281a19.94,19.94,0,0,1,.814-2.181c1.126-2.518,2.525-3.879,4.158-4.043m-5.229,7.1,4.4,10.549c-.111.875-.221,1.746-.33,2.6l-5.245-6.214c.036-.685.091-1.328.171-1.916a39.383,39.383,0,0,1,1-5.023M219.9,79.1l5.178,6.135c-.207,1.642-.407,3.22-.588,4.665l-4.454-5.76c-.12-1.786-.174-3.5-.136-5.041m2.078,19.413a120.24,120.24,0,0,1-1.869-13.337l4.275,5.529c-.345,2.752-.615,4.925-.741,5.958a38.057,38.057,0,0,1-1.268,5.737,18.984,18.984,0,0,0-.4-3.887" transform="translate(93.757 27.192)" fill="#6a8ec8"/>
      <path id="Trazado_235719" data-name="Trazado 235719" d="M287.4,61.7a4.647,4.647,0,0,0-1.78-3.58c-2.442-1.782-6.978-1.035-11.09-.07-5.038,1.183-28.272,13.851-29.258,14.389a.237.237,0,0,0-.1.12c-.1.043-.166.07-.166.07a.23.23,0,0,0-.12.3.254.254,0,0,0,.051.076.229.229,0,0,0,.25.044l.394-.164c2.01.151,16.11,1.163,23.747.427l.287.113a.227.227,0,0,0,.3-.13,25.317,25.317,0,0,0,2.55-.493A47.532,47.532,0,0,0,277,71.314l.2.089a.231.231,0,0,0,.3-.117.22.22,0,0,0,.006-.17c.647-.26,1.308-.544,1.97-.854a.234.234,0,0,0,.32-.1c.888-.475,1.754-.939,2.581-1.45,3.533-2.187,5.223-4.544,5.026-7.009m-24.372,1.946-5.44,4.531-.126.037c-3.844,1.179-7,2.3-9.18,3.121,3.378-1.814,9.289-4.956,14.746-7.689m-16.479,8.849c1.941-.769,5.843-2.243,10.98-3.821l10.822,4.257c-6.921.505-18.194-.187-21.8-.435m25.787-.134a18.745,18.745,0,0,1-2.952.482l-11.146-4.385c2.208-.667,4.765-1.388,7.577-2.091.027.014,10.581,4.684,10.581,4.684-1.3.488-2.671.932-4.06,1.31M277,70.816l-10.465-4.629q1.473-.362,3.028-.712a.23.23,0,0,0,.066.213.2.2,0,0,0,.061.041l9.227,4.278c-.615.278-1.256.55-1.917.809m2.462-1.064-9.446-4.378a131.41,131.41,0,0,1,16.392-2.607.23.23,0,1,0-.041-.458,145.714,145.714,0,0,0-27.658,5.526l5.9-4.915a.233.233,0,0,0,.069-.1,68.683,68.683,0,0,1,9.95-4.325c3.777-.886,8.41-1.689,10.716-.007a3.774,3.774,0,0,1,.374.313,4.359,4.359,0,0,1,1.219,2.932c.181,2.28-1.436,4.5-4.811,6.582a27.677,27.677,0,0,1-2.667,1.436" transform="translate(104.684 24.385)" fill="#6a8ec8"/>
      <path id="Trazado_235720" data-name="Trazado 235720" d="M234.927,92.873c.021-.066,2.188-6.7,4.083-14.329q1.017-4.1,1.677-7.529a.232.232,0,0,0,.188-.087l4.241-5.36a.23.23,0,1,0-.361-.284l-3.923,4.959c1.088-5.889,1.34-10.181.749-12.806a.23.23,0,1,0-.448.1c.64,2.841.174,7.516-.751,12.545l-3.663-4.267a.23.23,0,0,0-.348.3l3.9,4.547A208.8,208.8,0,0,1,234.49,92.73a.229.229,0,0,0,.06.237.234.234,0,0,0,.087.053.231.231,0,0,0,.29-.147" transform="translate(100.245 24.478)" fill="#6a8ec8"/>
      <path id="Trazado_235721" data-name="Trazado 235721" d="M273.126,77.68a.23.23,0,0,0-.233-.227c-4.825.07-13.12,1.123-20.543,2.217L257,75.793a.229.229,0,0,0-.293-.353l-4.955,4.114a.226.226,0,0,0-.078.216c-7.966,1.185-14.758,2.384-14.889,2.407a.229.229,0,0,0-.186.267.229.229,0,0,0,.266.186c.106-.019,4.442-.785,10.23-1.694.081.073,5.874,3.043,5.874,3.043a.229.229,0,0,0,.208-.408l-5.357-2.749c1.418-.22,2.912-.448,4.445-.675l7.232,3.809a.23.23,0,1,0,.213-.407l-6.675-3.515a184.7,184.7,0,0,1,19.861-2.12.23.23,0,0,0,.227-.233" transform="translate(101.151 32.229)" fill="#6a8ec8"/>
      <path id="Trazado_235722" data-name="Trazado 235722" d="M302.349,17C203.907-36.274,135.039,74.465,69.049,74.1c-67.792-.371-90.983,57.762-35.625,120.491C87.317,255.664,163.186,279.6,211.776,279.1c80.332-.827,157.2-74.036,123.873-119.189C305.575,119.159,367.368,52.181,302.349,17" transform="translate(1.059 1.07)" fill="#e9f5fe"/>
    </g>
  </g>
  <g id="Grupo_183716" data-name="Grupo 183716" transform="translate(87.94 64.831)">
    <g id="Grupo_183715" data-name="Grupo 183715" clip-path="url(#clip-path-2)">
      <rect id="Rectángulo_64161" data-name="Rectángulo 64161" width="333.997" height="325.792" transform="matrix(0.756, -0.655, 0.655, 0.756, -121.783, 82.86)" fill="url(#linear-gradient)"/>
    </g>
  </g>
  <g id="Grupo_183718" data-name="Grupo 183718">
    <g id="Grupo_183717" data-name="Grupo 183717" clip-path="url(#clip-path)">
      <path id="Trazado_235724" data-name="Trazado 235724" d="M212.8,283.791c-52.38,0-128.19-26.612-181.065-86.526C3.347,165.1-6.807,130.948,4.574,105.912c9.567-21.049,32.936-33.073,64.071-32.853h.323c24.959,0,50.613-15.8,77.768-32.519,45.586-28.071,97.254-59.886,160.435-25.7,39.036,21.124,33.8,53.425,28.735,84.662-3.693,22.769-7.179,44.275,5.5,61.453,10.494,14.221,11.083,31.684,1.7,50.5-17.486,35.08-70.421,71.724-128.741,72.324-.52.006-1.046.007-1.569.007M67.988,74.485c-30.241,0-52.857,11.649-62.116,32.018C-5.266,131.012,4.8,164.589,32.8,196.32c52.577,59.576,127.934,86.044,179.99,86.044.522,0,1.041,0,1.559-.007,57.772-.594,110.183-36.837,127.478-71.535,9.123-18.305,8.579-35.255-1.576-49.017-13.032-17.66-9.335-40.47-5.757-62.527C339.48,68.533,344.635,36.74,306.492,16.1c-62.455-33.8-113.751-2.21-159.007,25.658-27.451,16.9-53.406,32.889-78.848,32.729h-.648" transform="translate(0 0)" fill="#d5e9f6"/>
      <path id="Trazado_235725" data-name="Trazado 235725" d="M288.924,221.074H35.139a5.373,5.373,0,0,1-5.373-5.373V26.246a5.374,5.374,0,0,1,5.373-5.373H288.924a5.374,5.374,0,0,1,5.373,5.373V215.7a5.373,5.373,0,0,1-5.373,5.373" transform="translate(12.726 8.924)" fill="#fff"/>
      <path id="Trazado_235726" data-name="Trazado 235726" d="M289.031,221.538H35.246a5.737,5.737,0,0,1-5.73-5.732V26.353a5.737,5.737,0,0,1,5.73-5.73H289.031a5.737,5.737,0,0,1,5.73,5.73V215.807a5.737,5.737,0,0,1-5.73,5.732M35.246,21.337a5.023,5.023,0,0,0-5.016,5.016V215.807a5.023,5.023,0,0,0,5.016,5.018H289.031a5.023,5.023,0,0,0,5.016-5.018V26.353a5.022,5.022,0,0,0-5.016-5.016Z" transform="translate(12.619 8.817)" fill="#0041ef"/>
      <rect id="Rectángulo_64162" data-name="Rectángulo 64162" width="85.845" height="2.363" transform="translate(182.69 144.074)" fill="#b0daf9"/>
      <rect id="Rectángulo_64163" data-name="Rectángulo 64163" width="85.843" height="2.363" transform="translate(182.691 148.701)" fill="#b0daf9"/>
      <path id="Trazado_235727" data-name="Trazado 235727" d="M127.893,107.761l25.888-.041v2.363l-25.888.041Z" transform="translate(54.677 46.053)" fill="#b0daf9"/>
      <path id="Trazado_235728" data-name="Trazado 235728" d="M5.675,70.734H42.746c.834,0,1.512,1.036,1.512,2.313V101.62c0,1.278-.678,2.314-1.512,2.314H5.675c-.835,0-1.512-1.036-1.512-2.314V73.047c0-1.276.677-2.313,1.512-2.313" transform="translate(1.78 30.24)" fill="#fff"/>
      <path id="Trazado_235729" data-name="Trazado 235729" d="M42.852,104.4H5.781c-1.048,0-1.869-1.172-1.869-2.669V73.155c0-1.5.821-2.671,1.869-2.671H42.852c1.048,0,1.869,1.173,1.869,2.671v28.573c0,1.5-.821,2.669-1.869,2.669M5.781,71.2c-.627,0-1.155.9-1.155,1.957v28.573c0,1.059.528,1.956,1.155,1.956H42.852c.627,0,1.155-.9,1.155-1.956V73.155c0-1.061-.528-1.957-1.155-1.957Z" transform="translate(1.672 30.133)" fill="#0041ef"/>
      <path id="Trazado_235730" data-name="Trazado 235730" d="M174.688,68.612h81.985a3.42,3.42,0,0,1,3.342,3.49v43.123a3.42,3.42,0,0,1-3.342,3.49H174.688a3.419,3.419,0,0,1-3.343-3.49V72.1a3.419,3.419,0,0,1,3.343-3.49" transform="translate(73.254 29.333)" fill="#fff"/>
      <path id="Trazado_235731" data-name="Trazado 235731" d="M256.782,119.18H174.795a3.779,3.779,0,0,1-3.7-3.849V72.209a3.779,3.779,0,0,1,3.7-3.847h81.987a3.779,3.779,0,0,1,3.7,3.847v43.123a3.779,3.779,0,0,1-3.7,3.849m-81.987-50.1a3.066,3.066,0,0,0-2.985,3.133v43.123a3.066,3.066,0,0,0,2.985,3.135h81.987a3.065,3.065,0,0,0,2.984-3.135V72.209a3.064,3.064,0,0,0-2.984-3.133Z" transform="translate(73.147 29.226)" fill="#0041ef"/>
      <path id="Trazado_235732" data-name="Trazado 235732" d="M231.431,106.346H207.358a3.156,3.156,0,0,1-3.156-3.156V79.118a3.155,3.155,0,0,1,3.156-3.155h24.072a3.155,3.155,0,0,1,3.156,3.155V103.19a3.156,3.156,0,0,1-3.156,3.156" transform="translate(87.301 32.476)" fill="#8c5be1"/>
      <path id="Trazado_235733" data-name="Trazado 235733" d="M210.473,85.49a8.019,8.019,0,0,1,1.577-5.5,6.062,6.062,0,0,1,4.484-2.009,5.608,5.608,0,0,1,4.427,1.5c2.076,2.051,1.967,5.422,1.961,5.564l-1.428-.056c0-.029.086-2.9-1.543-4.5a4.267,4.267,0,0,0-3.342-1.083,4.7,4.7,0,0,0-3.47,1.5,6.662,6.662,0,0,0-1.246,4.431Z" transform="translate(89.971 33.335)" fill="#fff"/>
      <path id="Trazado_235734" data-name="Trazado 235734" d="M208.922,98.855a2.2,2.2,0,0,1-2.2-2.191l1.894-11.636a2.156,2.156,0,0,1,2.181-2.077h15.847a2.194,2.194,0,0,1,2.191,2.191l1.776,11.2a2.208,2.208,0,0,1-2.183,2.3ZM210.8,84.379a.765.765,0,0,0-.764.764l-1.893,11.636a.77.77,0,0,0,.774.65l19.506-.214a.767.767,0,0,0,.772-.764l-1.776-11.2a.808.808,0,0,0-.772-.875Z" transform="translate(88.378 35.463)" fill="#fff"/>
      <path id="Trazado_235735" data-name="Trazado 235735" d="M214.4,95.581,211.585,89l1.313-.561,1.886,4.415,6.5-7.907,1.1.906Z" transform="translate(90.457 36.318)" fill="#fff"/>
      <rect id="Rectángulo_64164" data-name="Rectángulo 64164" width="49.922" height="30.649" transform="translate(86.534 215.873) rotate(-7.368)" fill="#6b8ec7"/>
      <rect id="Rectángulo_64165" data-name="Rectángulo 64165" width="20.892" height="30.649" transform="translate(116.063 211.734) rotate(-7.368)" fill="#a2c9ea"/>
      <path id="Trazado_235736" data-name="Trazado 235736" d="M86.449,147.943l1.352,8.088,1.547-1.456,1.674,1.517,1.335-1.586,1.789.925-1.222-8.282Z" transform="translate(36.959 62.91)" fill="#fffeee"/>
      <path id="Trazado_235737" data-name="Trazado 235737" d="M59.328,64.616h89.11a3.89,3.89,0,0,1,3.89,3.89V172.315a3.89,3.89,0,0,1-3.89,3.89H59.328a3.89,3.89,0,0,1-3.89-3.89V68.506a3.89,3.89,0,0,1,3.89-3.89" transform="translate(23.701 27.625)" fill="#e8f2f9"/>
      <path id="Trazado_235738" data-name="Trazado 235738" d="M126.762,117.787h48.786a2.315,2.315,0,0,1,2.13,2.464V186.01a2.315,2.315,0,0,1-2.13,2.464H126.762a2.315,2.315,0,0,1-2.13-2.464V120.251a2.315,2.315,0,0,1,2.13-2.464" transform="translate(53.283 50.356)" fill="#fff"/>
      <path id="Trazado_235739" data-name="Trazado 235739" d="M175.656,188.937H126.869a2.673,2.673,0,0,1-2.487-2.821V120.358a2.672,2.672,0,0,1,2.487-2.821h48.787a2.672,2.672,0,0,1,2.485,2.821v65.759a2.673,2.673,0,0,1-2.485,2.821m-48.787-70.687a1.964,1.964,0,0,0-1.773,2.107v65.759a1.965,1.965,0,0,0,1.773,2.107h48.787a1.965,1.965,0,0,0,1.772-2.107V120.358a1.964,1.964,0,0,0-1.772-2.107Z" transform="translate(53.176 50.25)" fill="#0041ef"/>
      <path id="Trazado_235740" data-name="Trazado 235740" d="M156.046,113.4h28.715a1.363,1.363,0,0,1,1.253,1.45v38.7a1.363,1.363,0,0,1-1.253,1.45H156.046a1.363,1.363,0,0,1-1.253-1.45v-38.7a1.363,1.363,0,0,1,1.253-1.45" transform="translate(66.177 48.482)" fill="#e8f2f9"/>
      <path id="Trazado_235741" data-name="Trazado 235741" d="M183.448,113.4h28.715a1.363,1.363,0,0,1,1.253,1.45v38.7a1.363,1.363,0,0,1-1.253,1.45H183.448a1.363,1.363,0,0,1-1.253-1.45v-38.7a1.363,1.363,0,0,1,1.253-1.45" transform="translate(77.892 48.482)" fill="#e8f2f9"/>
      <path id="Trazado_235742" data-name="Trazado 235742" d="M167.2,119.681a7.647,7.647,0,0,0,4.2,1.853,4.177,4.177,0,0,0,3.707-2.048,9.863,9.863,0,0,1,3.9,1.562c1.463,1.171,5.365,6.243,5.365,6.243l-3.512,3.8-3.706-2.341,1.363,13.167H165.149l.294-13.167-2.147,2.634-4.878-2.048s2.538-5.56,3.806-6.926,4.973-2.731,4.973-2.731" transform="translate(67.727 51.082)" fill="#b0d2f1"/>
      <path id="Trazado_235743" data-name="Trazado 235743" d="M119.082,84.78l-27.137-.572a.357.357,0,0,1-.173-.665c6.679-3.943,16.795-10.459,17.283-12.248a2.772,2.772,0,0,0-.512-2.452,2.4,2.4,0,0,0-1.977-.925c-1.692.077-2.428,2.227-2.435,2.25a.357.357,0,1,1-.677-.227c.036-.107.9-2.637,3.081-2.735A3.107,3.107,0,0,1,109.1,68.4a3.487,3.487,0,0,1,.644,3.086c-.194.712-1.438,1.889-3.185,3.245l12.735,9.41a.356.356,0,0,1-.211.644M93.2,83.52l24.76.522-12-8.865C101.937,78.212,95.8,81.963,93.2,83.52" transform="translate(39.159 28.73)" fill="#0041ef"/>
      <path id="Trazado_235744" data-name="Trazado 235744" d="M102.631,74.453s2.958,3.326,5.764,3.095a6.572,6.572,0,0,0,5.229-3.095s4.7,1.31,7.088,3.222,8.607,18.556,8.607,18.556L122.4,99.516l-2.915-9.2L125.555,147l-29.039.324.8-57.017-3.526,14.461-2.62,1.623-1.566,3.188-3.3-.968.712-3.188-1.309-2.9s5.525-20.392,7.6-22.622,9.326-5.453,9.326-5.453" transform="translate(36.642 31.83)" fill="#43a99b"/>
      <path id="Trazado_235745" data-name="Trazado 235745" d="M107.108,84.78l-27.137-.572a.357.357,0,0,1-.173-.665C86.477,79.6,96.593,73.083,97.081,71.295a2.772,2.772,0,0,0-.512-2.452,2.361,2.361,0,0,0-1.977-.925c-1.692.077-2.428,2.227-2.435,2.25a.357.357,0,1,1-.677-.227c.036-.107.9-2.637,3.081-2.735A3.1,3.1,0,0,1,97.125,68.4a3.487,3.487,0,0,1,.644,3.086c-.194.712-1.438,1.889-3.185,3.245l12.735,9.41a.356.356,0,0,1-.211.644M81.231,83.52l24.762.522-12-8.865c-4.03,3.035-10.165,6.785-12.762,8.342" transform="translate(34.04 28.73)" fill="#0041ef"/>
      <path id="Trazado_235746" data-name="Trazado 235746" d="M90.657,74.453,96.648,84l5-9.543s4.7,1.309,7.086,3.222,10.966,24.64,10.966,24.64l-.969,2.528,1.36,3.44-2.5,1.929-2.268-3.328-2.872-.945L107.51,90.311l3.322,21.537-2.592,2.377.117,2.782-21.543,1,.458-3.766-2.23-2.4.3-21.537-3.526,14.461L79.2,106.4l-1.566,3.188-3.3-.968.712-3.188-1.309-2.9s5.525-20.392,7.6-22.622,9.326-5.453,9.326-5.453" transform="translate(31.523 31.83)" fill="#ffd875"/>
      <path id="Trazado_235747" data-name="Trazado 235747" d="M113.848,143.521a12.914,12.914,0,1,1,12.915,12.911,12.912,12.912,0,0,1-12.915-12.911" transform="translate(48.672 55.839)" fill="#beddfa"/>
      <path id="Trazado_235748" data-name="Trazado 235748" d="M151.53,163.028a6.382,6.382,0,1,1,6.381,6.38,6.38,6.38,0,0,1-6.381-6.38" transform="translate(64.782 66.97)" fill="#beddfa"/>
      <path id="Trazado_235749" data-name="Trazado 235749" d="M68.123,151.255a.2.2,0,0,1-.2-.206c.01-.447.294-10.932,5.262-11.512a3.1,3.1,0,0,1,2.475.779c2.9,2.511,3.148,10.055,3.158,10.377a.2.2,0,0,1-.4.01c0-.076-.251-7.686-3.019-10.08a2.724,2.724,0,0,0-2.163-.685c-4.619.541-4.9,11.013-4.9,11.118a.2.2,0,0,1-.2.2" transform="translate(29.039 59.645)" fill="#040076"/>
      <path id="Trazado_235750" data-name="Trazado 235750" d="M65.743,144.657l-.572,39.766,27.2-3.523L91.5,144.8Z" transform="translate(27.862 61.844)" fill="#fc0"/>
      <path id="Trazado_235751" data-name="Trazado 235751" d="M62.46,144.678l2.652.031-.762,35.411-3.1,1.034Z" transform="translate(26.185 61.853)" fill="#fc0"/>
      <path id="Trazado_235752" data-name="Trazado 235752" d="M64.114,144.743l2.5,0L66,184.1l-2.672-4.16Z" transform="translate(27.075 61.88)" fill="#e69104"/>
      <path id="Trazado_235753" data-name="Trazado 235753" d="M61.277,170.609l3.2-1.2,2.464,4.221Z" transform="translate(26.197 72.424)" fill="#fde180"/>
      <path id="Trazado_235754" data-name="Trazado 235754" d="M71.168,150.739a.2.2,0,0,1-.2-.206c.01-.447.3-10.932,5.263-11.512a3.081,3.081,0,0,1,2.474.779c2.9,2.511,3.149,10.055,3.158,10.375a.2.2,0,0,1-.2.208.208.208,0,0,1-.208-.2c0-.076-.25-7.686-3.018-10.081a2.732,2.732,0,0,0-2.163-.684c-4.622.54-4.9,11.013-4.906,11.118a.2.2,0,0,1-.2.2" transform="translate(30.34 59.424)" fill="#040076"/>
      <path id="Trazado_235755" data-name="Trazado 235755" d="M26.238,183.95l-4.221,14.472-4.849-2.268L19.478,180.2Z" transform="translate(7.339 77.04)" fill="#ff9583"/>
      <path id="Trazado_235756" data-name="Trazado 235756" d="M17.712,190.3c-.582-.049-2.705,3.41-2.214,5.33.287,1.126,2.23.789,4.742,1.082s4.531,1.228,6.263,1.185,7.176-.6,7.176-.6l-.183-1.453s-2.7-.053-3.793-.827-5.646-4.278-5.646-4.278a10.132,10.132,0,0,1-2.637,1.646c-1.278.551-1.432.411-2.029.089-1.073-.578-.761-2.1-1.68-2.178" transform="translate(6.594 81.359)"/>
      <path id="Trazado_235757" data-name="Trazado 235757" d="M50.806,181.194l.464,15.067-5.315-.657-2.737-15.885Z" transform="translate(18.477 76.834)" fill="#ff9583"/>
      <path id="Trazado_235758" data-name="Trazado 235758" d="M44.848,189.15c-.581.036-2.188,3.763-1.428,5.593.445,1.074,2.321.461,4.848.391s4.662.565,6.37.274,7.016-1.617,7.016-1.617l-.39-1.412s-2.677.334-3.873-.274-6.2-3.425-6.2-3.425a10.177,10.177,0,0,1-2.373,2.007c-1.185.728-1.359.612-2,.378-1.143-.42-1.052-1.973-1.974-1.916" transform="translate(18.477 80.665)"/>
      <path id="Trazado_235759" data-name="Trazado 235759" d="M94.621,84.954,67.483,84.38a.356.356,0,0,1-.173-.664c6.679-3.943,16.795-10.459,17.283-12.248a2.768,2.768,0,0,0-.512-2.452,2.385,2.385,0,0,0-1.976-.925c-1.686.077-2.428,2.227-2.435,2.25a.358.358,0,0,1-.678-.227c.037-.107.9-2.637,3.081-2.735a3.075,3.075,0,0,1,2.565,1.191,3.485,3.485,0,0,1,.644,3.088c-.194.711-1.438,1.887-3.185,3.243l12.735,9.41a.356.356,0,0,1-.211.644M68.744,83.693l24.762.522-12-8.865c-4.03,3.035-10.165,6.785-12.762,8.342" transform="translate(28.702 28.804)" fill="#0041ef"/>
      <path id="Trazado_235760" data-name="Trazado 235760" d="M78.535,75.739l2.218-2.353A7.034,7.034,0,0,0,84.382,74.4a22.665,22.665,0,0,0,3.176-.605l1.557,2.2s4.745.481,7.135,2.394,10.966,24.64,10.966,24.64l-.969,2.528,1.36,3.44-2.5,1.927-2.268-3.326-2.872-.945L95.023,91.016l.383,17.9,7.377,49.279-36.426.114,7.853-49.291-1.352-18-3.526,14.461-2.62,1.622-1.566,3.189-3.3-.968.712-3.189-1.309-2.9s5.524-20.392,7.6-22.623,9.691-4.871,9.691-4.871" transform="translate(26.185 31.374)" fill="#a5c8e5"/>
      <path id="Trazado_235761" data-name="Trazado 235761" d="M81.634,158.729a.2.2,0,0,1-.2-.207c.007-.256.17-6.281,3.063-6.619a1.835,1.835,0,0,1,1.473.463c1.677,1.452,1.817,5.771,1.823,5.954a.2.2,0,0,1-.2.208.219.219,0,0,1-.207-.2c0-.043-.14-4.325-1.684-5.659a1.43,1.43,0,0,0-1.159-.368c-2.548.3-2.707,6.168-2.708,6.227a.2.2,0,0,1-.2.2" transform="translate(34.814 64.935)" fill="#040076"/>
      <path id="Trazado_235762" data-name="Trazado 235762" d="M80.257,154.869l-.325,22.576,15.446-2-.5-20.495Z" transform="translate(34.173 66.21)" fill="#2355f1"/>
      <path id="Trazado_235763" data-name="Trazado 235763" d="M78.393,154.881l1.506.019L79.465,175l-1.76.587Z" transform="translate(33.221 66.215)" fill="#2355f1"/>
      <path id="Trazado_235764" data-name="Trazado 235764" d="M79.332,154.918h1.419L80.4,177.263,78.887,174.9Z" transform="translate(33.726 66.23)" fill="#1a3ad4"/>
      <path id="Trazado_235765" data-name="Trazado 235765" d="M77.722,169.6l1.816-.682,1.4,2.4Z" transform="translate(33.228 72.217)" fill="#3971f1"/>
      <path id="Trazado_235766" data-name="Trazado 235766" d="M83.362,158.436a.2.2,0,0,1-.2-.207c.006-.256.17-6.283,3.065-6.619a1.84,1.84,0,0,1,1.473.464c1.676,1.45,1.817,5.77,1.822,5.954a.2.2,0,0,1-.2.207.2.2,0,0,1-.208-.2c0-.044-.141-4.327-1.683-5.66a1.446,1.446,0,0,0-1.161-.368c-2.548.3-2.707,6.168-2.708,6.227a.2.2,0,0,1-.2.2" transform="translate(35.554 64.81)" fill="#040076"/>
      <path id="Trazado_235767" data-name="Trazado 235767" d="M60.708,128.515s.979,8.818,1.472,11.616.45,28.361.655,34.833-.414,30.415-.414,30.415l2.705,2.3-12.679,2.26s-2.491-1.006-1.7-2.856,2.435-2.07,1.923-4.677-3.053-8.848-2.53-12.3,1.843-9.623,1.313-12.913-4.714-28.6-4.392-28.9c-5.714,29.824-20.384,63.378-20.384,63.378s-3.8-3.423-5.492-2.961-3.3.939-3.3.939a3.62,3.62,0,0,1-.227-2.859c.518-1.69,2.574-4.061,3.275-6.705a12.912,12.912,0,0,1,.788-2.631s-.064-7.04.532-9.5,3.265-11.686,3.9-16.194,2.528-18.362,2.161-25.092c-.491-9,2.288-21.433,2.288-21.433s4.565.962,7.69,0,6.371,2.311,10.469,1.964,11.944,1.309,11.944,1.309" transform="translate(7.474 53.468)" fill="#0f1d92"/>
      <path id="Trazado_235768" data-name="Trazado 235768" d="M43.116,82.146l-2.61,2.13L38.1,88.36a11.1,11.1,0,0,0,3.849,3.3,9.679,9.679,0,0,0,4.812.675l.687-4.452Z" transform="translate(16.288 35.119)" fill="#feb3a2"/>
      <path id="Trazado_235769" data-name="Trazado 235769" d="M44.283,81.568s-1.336-3.7-3.188-2.08,2.228,12.6,5.863,12.791,7.759-5.527,9.009-8.214,2.737-5.632-.251-7.918c-6.127-4.689-11.433,5.422-11.433,5.422" transform="translate(17.372 32.024)" fill="#feb3a2"/>
      <path id="Trazado_235770" data-name="Trazado 235770" d="M40.172,90.057l2.345-1.639s-1.846-6.107,0-6.548,1.987,1.61,2.819,2.8c1.113,1.6.729-4.29,4.906-5.36C54.663,78.179,56,81.8,56.928,82.856a4.832,4.832,0,0,0,5.881,1.056c2.083-1.242,2.719-4.819.668-8.525s-3.456-1.61-4.781-2.415,1.389-3.33-3.032-4.267c-4.2-.889-5.647,3.814-7.749,4.036s-2.454-.792-3.716-.507c-2.648.6-4.277.474-5.425,5.76-1.191,5.48,1.4,12.063,1.4,12.063" transform="translate(16.444 29.325)" fill="#0b0c2a"/>
      <path id="Trazado_235771" data-name="Trazado 235771" d="M74.633,100.649s-4.048,2.4-4.669,2.7-2.561,1.408-2.561,1.408L63.13,115.168s2.246-.458,3.272-.54,2.051.054,2.807-.485,3.482-2.24,3.886-2.43,2.754-.864,2.942-1.079,1.849-1.509,1.673-2.537c-.041-.243,1.836-.521,1.539-1.744s-1.052-.874-1.052-.874l.458-.594s2.294-.216,2.321-1.052a1.348,1.348,0,0,0-.837-1.188Z" transform="translate(26.989 43.03)" fill="#f1a599"/>
      <path id="Trazado_235772" data-name="Trazado 235772" d="M74.231,98.112l5.37,3.9a.338.338,0,0,1,.074.473l-8.262,11.363a.338.338,0,0,1-.473.076l-5.37-3.906a.338.338,0,0,1-.074-.473l8.262-11.363a.338.338,0,0,1,.473-.074" transform="translate(27.973 41.917)" fill="#0041ef"/>
      <path id="Trazado_235773" data-name="Trazado 235773" d="M74.092,98.408l5.018,3.7c.146.106.071.453.071.453l-7.91,10.876a.323.323,0,0,1-.451.073l-5.019-3.7a.325.325,0,0,1-.071-.453l7.91-10.878a.324.324,0,0,1,.453-.071" transform="translate(28.074 42.045)" fill="#e8f2f9"/>
      <path id="Trazado_235774" data-name="Trazado 235774" d="M71.082,113.877a.567.567,0,0,1-.331-.106l-5.021-3.7a.565.565,0,0,1-.226-.368.552.552,0,0,1,.1-.42l7.91-10.875a.56.56,0,0,1,.363-.227.573.573,0,0,1,.424.1l5.018,3.7c.25.18.188.577.166.7a.266.266,0,0,1-.041.091l-7.91,10.876a.56.56,0,0,1-.455.233m2.892-15.22a.074.074,0,0,0-.067.033l-7.913,10.879c.019.116,5.038,3.814,5.038,3.814a.088.088,0,0,0,.114-.019l7.877-10.833a.459.459,0,0,0,0-.184l-5-3.673a.077.077,0,0,0-.049-.017" transform="translate(28.002 41.972)" fill="#0041ef"/>
      <path id="Trazado_235775" data-name="Trazado 235775" d="M73.365,99.428c.019-.007.622.454.635.463-.207.284-.534.538-.779.348s-.03-.742.144-.811" transform="translate(31.258 42.508)" fill="#0041ef"/>
      <path id="Trazado_235776" data-name="Trazado 235776" d="M73.288,99.727a.161.161,0,1,1,.034.227.161.161,0,0,1-.034-.227" transform="translate(31.318 42.607)"/>
      <path id="Trazado_235777" data-name="Trazado 235777" d="M58.859,110.36l4.672-2.388,4.737-3.927,1.215-.607,3.643.364,2.106,2.834s-.367,1.121-3.442-.445c-.941-.48-2.146,2.794-2.146,2.794l-3.116,2.024-.648,2.955-4.454,3.36Z" transform="translate(25.163 44.222)" fill="#feb3a2"/>
      <path id="Trazado_235778" data-name="Trazado 235778" d="M47.8,86.161s2.12,3.333,4.234,3.624,5.148.571,4.769.324-.237-1.784-.237-1.784,4.929,2.251,7,4.744,2.7,4.717,3.816,7.951,3.712,18.5,3.712,18.5L80,115.157l4.425,7.958S71.632,133.2,68.854,133.5s-5.6-2.467-5.6-2.467l-1.309,5.86.507,5.784.665,3.125s-7.342,2.1-11.506.311-5.009-2.885-9.7-3.223-5.579-.026-9.593.01-3.463-2.588-3.463-2.588l1.727-1.733-1.068-2.14-.14-2.842s-12.558-.34-13.536-8.675,8.631-24.171,8.631-24.171a48.422,48.422,0,0,1,6.02-8.34c3.239-3.382,17.3-6.255,17.3-6.255" transform="translate(6.743 36.836)" fill="#0b67d1"/>
      <path id="Trazado_235779" data-name="Trazado 235779" d="M48.964,122.8a.453.453,0,0,1-.076-.007.358.358,0,0,1-.274-.424c.958-4.5,1.066-22.316,1.066-22.5,0-.2.133-.323.36-.354a.355.355,0,0,1,.354.358c0,.735-.108,18.065-1.082,22.64a.356.356,0,0,1-.348.283" transform="translate(20.78 42.545)" fill="#09030f"/>
      <path id="Trazado_235780" data-name="Trazado 235780" d="M43.484,119.31l6.748,2.994,4.411,1.789,1.61,4.769-1.67,4.144-5.15,3.339-.036-1.82s3.015-1.9,2.9-3.039c-.368-3.756-3.976-2.385-3.976-2.385a2.081,2.081,0,0,1-2.684.657c-1.035-.45-2.979-3.4-2.979-3.4l-3.653-1.707Z" transform="translate(16.677 51.008)" fill="#feb3a2"/>
      <rect id="Rectángulo_64166" data-name="Rectángulo 64166" width="29.79" height="17.527" transform="translate(111.36 191.915)" fill="#beddfa"/>
      <rect id="Rectángulo_64167" data-name="Rectángulo 64167" width="8.764" height="17.527" transform="translate(111.36 191.915)" fill="#6b8ec7"/>
      <path id="Trazado_235781" data-name="Trazado 235781" d="M57.875,193.907a.681.681,0,0,0,.65.881h15.93a5.735,5.735,0,0,0-1.809,4.207,5.15,5.15,0,1,0,10.265,0,5.73,5.73,0,0,0-1.809-4.207h25.8a5.73,5.73,0,0,0-1.809,4.207,5.149,5.149,0,1,0,10.264,0,5.73,5.73,0,0,0-1.809-4.207h5.71a.68.68,0,0,0,0-1.36H59.445l2.665-8.666a6.425,6.425,0,0,1,5.013-4.617l36.029-5.781a.68.68,0,1,0-.216-1.343L66.908,178.8a7.766,7.766,0,0,0-6.1,5.557Zm52.354.881a4.231,4.231,0,1,1-3.772,4.207,4.013,4.013,0,0,1,3.772-4.207m-32.45,0a4.231,4.231,0,1,1-3.773,4.207,4.012,4.012,0,0,1,3.773-4.207" transform="translate(24.73 73.966)" fill="#0b1468"/>
      <path id="Trazado_235782" data-name="Trazado 235782" d="M44.646,128.678a3.075,3.075,0,0,0,2.955,3.176,3.016,3.016,0,0,0,2.881-2.5H51.8a4.41,4.41,0,0,1,4.188,3.893l9.463,57.973a5.456,5.456,0,0,0,2.178,3.6,4.686,4.686,0,0,0,3.539.847l61.693-10.151a4.618,4.618,0,0,0,3.713-3.97l1.071-7.031a.676.676,0,0,0,.333-.691.655.655,0,0,0-.176-.34l3.964-26.037a4.951,4.951,0,0,0-1.111-3.988,4.174,4.174,0,0,0-3.195-1.5H58.788l-1.457-8.928A5.759,5.759,0,0,0,51.8,128H50.482A3.014,3.014,0,0,0,47.6,125.5a3.074,3.074,0,0,0-2.955,3.175m16.878,30.031,5.964-.343,1.673,11.657-5.7.554Zm2.157,13.215,5.674-.552,1.753,12.217-5.386.842Zm72.764,1.456-4.582.717.724-8.876,5.178-.5Zm-35.09-16.958,9.993-.574v10.071l-9.819.955Zm-1.185,10.585-9.068.882-.671-10.841L100,156.5Zm12.538-11.236,9.316-.535-.471,9.691-8.845.859Zm8.778,10.529-.461,9.489-8.317,1.3v-9.934Zm-10.138,11-9.62,1.5-.176-10.565,9.8-.952Zm-10.978,1.714-8.5,1.329-.687-11.1,9.006-.875Zm-9.846,1.539-8.972,1.4-1.273-11.647,9.553-.929Zm-10.392-11.6L78.9,157.711l10.171-.584.674,10.893Zm-1.378-12.6-1.425-13.039H88.218l.771,12.451Zm10.828-13.039H99.775l.2,11.82-9.626.554Zm11.554,0h10.211v11.167l-10.015.575Zm11.571,0H122.6l-.512,10.551-9.382.54Zm11.255,0h9.046l-.814,9.971-8.741.5Zm8.121,11.339-.759,9.319-8.4.818.468-9.637Zm1.37-.079,5.906-.338-1.385,9.089-5.276.512Zm-2.974,19.733-8.084,1.263.457-9.409,8.358-.812Zm-.113,1.395-.732,8.966-7.743,1.273.437-8.983Zm-9.847,10.465-7.813,1.286v-8.992l8.25-1.289Zm-9.173,1.51-9.447,1.553-.15-9.058,9.6-1.5Zm-10.8,1.777-8.024,1.32-.562-9.072,8.435-1.318ZM91.17,191,82.694,192.4,81.7,183.31l8.908-1.392Zm-9.821,1.616-7.395,1.216-1.308-9.108,7.709-1.2Zm-8.9-9.239L70.71,171.239l8.215-.8,1.282,11.726Zm-3.6-25.09,8.691-.5,1.235,11.3-8.26.8Zm-.194-1.35L66.7,143.318H75.96l1.435,13.116Zm71.767-9.691-.857,5.62-6,.345.808-9.893h3.089a2.83,2.83,0,0,1,2.163,1.031,3.608,3.608,0,0,1,.8,2.9m-7.783,36.931-1.623.267.729-8.953,4.481-.7-1,6.555a3.266,3.266,0,0,1-2.59,2.832M66.794,191l-.854-5.23,5.362-.838,1.309,9.119-1.663.274a3.382,3.382,0,0,1-2.524-.61A4.171,4.171,0,0,1,66.794,191m-7.783-47.685h6.315l1.967,13.7-5.991.344Zm-13-14.641a1.607,1.607,0,1,1,1.595,1.816,1.717,1.717,0,0,1-1.595-1.816" transform="translate(19.087 53.655)" fill="#0b1468"/>
      <path id="Trazado_235783" data-name="Trazado 235783" d="M44.284,135.746a.321.321,0,0,1-.1-.016l-18.366-5.543a.356.356,0,1,1,.206-.682l18.135,5.473,6.658-8.367-18.061-9.58L24.089,119.1a.357.357,0,0,1-.261-.657l6.851-3.941,4.455-16.588a.361.361,0,0,1,.437-.251.356.356,0,0,1,.253.437l-4.5,16.731a.354.354,0,0,1-.166.216l-4.842,2.788,6.4-1.53a.355.355,0,0,1,.25.031l18.559,9.844a.358.358,0,0,1,.111.538l-7.075,8.892a.362.362,0,0,1-.28.134" transform="translate(10.11 41.749)" fill="#09030f"/>
      <path id="Trazado_235784" data-name="Trazado 235784" d="M202.138,166.419l18.309,35.257,2.747-4.935s-3.113-9.64-3.981-13.072-7.781-20.765-8.659-22.074-8.415,4.824-8.415,4.824" transform="translate(86.418 69.007)" fill="#feb3a2"/>
      <path id="Trazado_235785" data-name="Trazado 235785" d="M226.049,194.578l-1.563-5.3-4.6-4.778-4.766,5.6s1.579,1.662.01,4.911a27.936,27.936,0,0,1-5.307,6.688l10.294-4.29.954-5.569,2.123-1.589,1.967,4.481Z" transform="translate(89.703 78.876)" fill="#ffd875"/>
      <path id="Trazado_235786" data-name="Trazado 235786" d="M178.988,165.89l4.542,39.467,4.325-3.632s.527-10.117.938-13.633.13-22.175-.224-23.71-9.582,1.507-9.582,1.507" transform="translate(76.521 70.092)" fill="#feb3a2"/>
      <path id="Trazado_235787" data-name="Trazado 235787" d="M192.594,200.468l.431-5.512-2.6-6.106-6.448,3.532s.885,2.116-1.74,4.592a27.915,27.915,0,0,1-7.34,4.357l11.146-.338,2.875-4.865,2.548-.727.241,4.886Z" transform="translate(74.772 80.738)" fill="#ffd875"/>
      <path id="Trazado_235788" data-name="Trazado 235788" d="M145.3,113.136s3.235,1.919,3.732,2.157,2.046,1.125,2.046,1.125l3.415,8.321s-1.794-.367-2.614-.431a4.415,4.415,0,0,1-2.243-.388c-.6-.433-2.782-1.79-3.106-1.941s-2.2-.689-2.351-.862-1.476-1.206-1.336-2.027c.033-.194-1.467-.417-1.229-1.395s.841-.7.841-.7l-.367-.474s-1.833-.173-1.854-.841a1.076,1.076,0,0,1,.668-.949Z" transform="translate(59.95 48.368)" fill="#f1a599"/>
      <path id="Trazado_235789" data-name="Trazado 235789" d="M144.77,111.108l-4.291,3.121a.271.271,0,0,0-.06.377l6.6,9.08a.27.27,0,0,0,.377.06l4.291-3.121a.271.271,0,0,0,.06-.378l-6.6-9.079a.269.269,0,0,0-.377-.06" transform="translate(60.01 47.479)" fill="#0041ef"/>
      <path id="Trazado_235790" data-name="Trazado 235790" d="M144.7,111.345l-4.01,2.954c-.116.084-.057.361-.057.361l6.321,8.692a.258.258,0,0,0,.361.057l4.01-2.954a.258.258,0,0,0,.057-.361l-6.321-8.692a.258.258,0,0,0-.361-.057" transform="translate(60.116 47.581)" fill="#e8f2f9"/>
      <path id="Trazado_235791" data-name="Trazado 235791" d="M146.853,123.52l-6.321-8.691a.2.2,0,0,1-.033-.073c-.02-.094-.068-.411.131-.555l4.01-2.955a.46.46,0,0,1,.338-.08.448.448,0,0,1,.291.181l6.321,8.689a.45.45,0,0,1-.1.63l-4.013,2.956a.456.456,0,0,1-.263.084.445.445,0,0,1-.364-.187m-1.987-11.963-3.993,2.935a.365.365,0,0,0,0,.147l6.294,8.658a.071.071,0,0,0,.091.014l4.011-2.956c.014-.091-6.308-8.785-6.308-8.785-.053-.026-.079-.023-.093-.013" transform="translate(60.058 47.524)" fill="#0041ef"/>
      <path id="Trazado_235792" data-name="Trazado 235792" d="M142.25,112.16c-.014-.006-.508.37-.508.37.166.227.427.43.624.278s.024-.594-.116-.648" transform="translate(60.598 47.951)" fill="#0041ef"/>
      <path id="Trazado_235793" data-name="Trazado 235793" d="M142.178,112.4a.129.129,0,1,0-.027.181.13.13,0,0,0,.027-.181" transform="translate(60.684 48.03)"/>
      <path id="Trazado_235794" data-name="Trazado 235794" d="M157.548,120.9l-3.733-1.909-3.786-3.138-.971-.485-2.911.291-1.682,2.264s.293.9,2.749-.355c.751-.383,1.714,2.231,1.714,2.231l2.491,1.617.517,2.363,3.559,2.685Z" transform="translate(61.762 49.321)" fill="#feb3a2"/>
      <path id="Trazado_235795" data-name="Trazado 235795" d="M181.69,91.593l5.153,8.872s.084,2.534-3.971,3.041-5.913-.845-5.913-.845l-.17-5.407Z" transform="translate(75.581 39.158)" fill="#feb3a2"/>
      <path id="Trazado_235796" data-name="Trazado 235796" d="M182.872,91a2.566,2.566,0,0,1,2.956-1.944c2.45.337-2.872,11.49-6.253,12.674s-6.926-5.071-7.94-7.69-2.958-6.925,1.1-8.023S182.872,91,182.872,91" transform="translate(72.794 36.716)" fill="#feb3a2"/>
      <path id="Trazado_235797" data-name="Trazado 235797" d="M197.934,124.387l-21.4,2.561-1.646,57.99s.731,3.476,14.816,4.208,24.148-1.1,29.819-6.4,10.428-15,10.428-15Z" transform="translate(74.767 53.178)" fill="#636363"/>
      <path id="Trazado_235798" data-name="Trazado 235798" d="M198.5,97.6s-2.264,3.7-4.528,3.6a18,18,0,0,1-5.246-1.442,58.237,58.237,0,0,0-7,7c-2.47,3.189-5.063,10.764-6.915,13.437s-1.025,8.492-6.581,5.612-5.574-2.48-7.222,1.43c-.551,1.306-8.174-2.461-8.174-2.461l-4.287,5.951s9.651,5.186,10.4,6.35c3.81,5.953,2.721,6.615,8.174,5.9s8.332,1.029,10.6-2.881,7.921-11.523,7.921-11.523l2.571,10.7s19.24-.514,21.3-3.395,2.675-2.057,1.749-5.657a9.779,9.779,0,0,1,1.132-6.895l4.647,3.009s2.368.918,3.191,7.193,2.2,2.931,6.108,5.092c2.682,1.482,5.158,7.125,5.158,7.125l5.836-1.018s-2.679-6.642-2.307-6.854c3.086-1.75,4.4-1,2.036-6.244s-5.53-5.833-8.515-9.229-12.758-14.918-12.758-14.918a55.5,55.5,0,0,0-5.966-5.761C207.762,100.278,198.5,97.6,198.5,97.6" transform="translate(63.51 41.727)" fill="#ffd875"/>
      <path id="Trazado_235799" data-name="Trazado 235799" d="M182.616,94.133c-1.666-.237-1.366-2.023-3.933-3.623-1.592-.994-7.971,1.8-8.635-.759s2.622-7.694,6.883-8.568c6.388-1.31,7.65,4.263,12.021,6.612,4.2,2.257,3.963.722,7.757,3.285s7.876,7.686,7.4,11.006-1.233,8.539-1.233,8.539-3.131-3.132-6.168-3.8-7.019-1.707-7.019-1.707l-4.781-7.928s1.86-4.315.437-5.739-1.066,2.915-2.731,2.678" transform="translate(72.662 34.623)" fill="#101d94"/>
      <path id="Trazado_235800" data-name="Trazado 235800" d="M171.012,88.375s.929,3.879,1.422,5.026a49.862,49.862,0,0,0,3.168,5.683c.6.764,3.5,3.169,4.591,2.622s.765,3.553.765,3.553-4.207,2.457-5.19,3.769-2.023,2.514-2.023,2.514-4.207-3.552-5.136-8.578-.327-13.279-.327-13.279.772-3.109,1.693-3.5,1.038,2.187,1.038,2.187" transform="translate(71.862 36.83)" fill="#101d94"/>
      <path id="Trazado_235801" data-name="Trazado 235801" d="M202.282,96.06a.357.357,0,0,1-.306-.173,20.04,20.04,0,0,0-5.574-5.819,8.3,8.3,0,0,0-3.5-1.052c-2.244-.32-4.785-.684-8.564-4.382-5-4.889-8.481-2.912-8.625-2.826a.358.358,0,0,1-.37-.612c.164-.1,4.071-2.377,9.493,2.928,3.612,3.537,6.031,3.881,8.165,4.187a8.994,8.994,0,0,1,3.773,1.152,20.4,20.4,0,0,1,5.809,6.057.357.357,0,0,1-.305.541" transform="translate(74.892 34.469)" fill="#1f0bc5"/>
      <path id="Trazado_235802" data-name="Trazado 235802" d="M206.057,131.156a2.578,2.578,0,0,1-2.108-.994,2.7,2.7,0,0,1-.281-2.078,17.119,17.119,0,0,1-1.443-5.33,4.347,4.347,0,0,1,.929-2.9.766.766,0,0,0-.343-.261,2.046,2.046,0,0,0-1.607.363c-2.3,1.3-5.4-1.482-5.536-1.6l-7.323-7.14a.357.357,0,0,1,.5-.512l7.313,7.133c.02.017,2.842,2.551,4.7,1.5a2.633,2.633,0,0,1,2.23-.4,1.5,1.5,0,0,1,.847.878.355.355,0,0,1-.114.383,3.353,3.353,0,0,0-.876,2.56,17.455,17.455,0,0,0,1.432,5.158.351.351,0,0,1,.014.253,2.11,2.11,0,0,0,.157,1.6,1.9,1.9,0,0,0,1.539.681.357.357,0,0,1-.023.712" transform="translate(80.475 47.285)" fill="#09030f"/>
      <path id="Trazado_235803" data-name="Trazado 235803" d="M175.6,125.32a.36.36,0,0,1-.325-.207c-.02-.047-2.111-4.6-2.839-6.32-.628-1.495.16-3.135,1.071-5.033.253-.525.517-1.075.761-1.646a16.623,16.623,0,0,0,.976-5.884.357.357,0,0,1,.714-.02,17.071,17.071,0,0,1-1.035,6.185c-.247.581-.515,1.139-.774,1.674-.837,1.743-1.557,3.249-1.055,4.445.722,1.713,2.811,6.254,2.831,6.3a.357.357,0,0,1-.176.473.345.345,0,0,1-.148.033" transform="translate(73.625 45.259)" fill="#09030f"/>
      <path id="Trazado_235804" data-name="Trazado 235804" d="M177.347,98.316a.357.357,0,0,1-.107-.7,4.536,4.536,0,0,0,3.322-3.43.357.357,0,0,1,.708.091,5.193,5.193,0,0,1-3.819,4.021.342.342,0,0,1-.1.016" transform="translate(75.667 40.134)" fill="#09030f"/>
      <path id="Trazado_235805" data-name="Trazado 235805" d="M157.506,127.9a.358.358,0,0,1-.361-.347c-.006-.22-.136-5.412.926-7.479.711-1.385,1.3-2.207,1.672-2.315a.352.352,0,0,1,.158-.01,54.637,54.637,0,0,1,5.732,1.308,2.58,2.58,0,0,0,2.394-.228,1.843,1.843,0,0,1,2.407.194c2.313,1.652,1.222,3.248,1.211,3.263a.357.357,0,0,1-.584-.41c.033-.05.665-1.054-1.042-2.271-.848-.607-1.111-.455-1.639-.157a3.279,3.279,0,0,1-2.945.3,54.094,54.094,0,0,0-5.517-1.268,8.107,8.107,0,0,0-1.211,1.926c-.979,1.906-.849,7.081-.848,7.132a.361.361,0,0,1-.353.367" transform="translate(67.179 50.339)" fill="#09030f"/>
      <path id="Trazado_235806" data-name="Trazado 235806" d="M158.123,121.031a.366.366,0,0,1-.133-.026l-6.752-2.682a.357.357,0,0,1-.2-.464.364.364,0,0,1,.464-.2l6.754,2.684a.357.357,0,0,1-.133.688" transform="translate(64.561 50.292)" fill="#09030f"/>
      <path id="Trazado_235807" data-name="Trazado 235807" d="M157.31,122.263a.364.364,0,0,1-.143-.029l-6.2-2.684a.357.357,0,1,1,.284-.655l6.2,2.684a.357.357,0,0,1-.143.684" transform="translate(64.451 50.817)" fill="#09030f"/>
      <path id="Trazado_235808" data-name="Trazado 235808" d="M156.551,123.605a.363.363,0,0,1-.166-.04l-5.829-3.055a.357.357,0,1,1,.331-.632l5.829,3.053a.357.357,0,0,1-.166.674" transform="translate(64.285 51.233)" fill="#09030f"/>
      <path id="Trazado_235809" data-name="Trazado 235809" d="M210.213,131.4a.356.356,0,0,1-.328-.218l-1.944-4.627a.357.357,0,1,1,.658-.276l1.944,4.625a.356.356,0,0,1-.191.467.344.344,0,0,1-.138.029" transform="translate(88.887 53.893)" fill="#09030f"/>
      <path id="Trazado_235810" data-name="Trazado 235810" d="M208.611,131.575a.356.356,0,0,1-.335-.236l-1.573-4.348a.357.357,0,0,1,.672-.243l1.572,4.348a.356.356,0,0,1-.214.457.363.363,0,0,1-.121.021" transform="translate(88.361 54.087)" fill="#09030f"/>
      <path id="Trazado_235811" data-name="Trazado 235811" d="M207.9,131.769a.358.358,0,0,1-.318-.194l-2.22-4.348a.357.357,0,1,1,.635-.324l2.221,4.347a.357.357,0,0,1-.318.52" transform="translate(87.779 54.17)" fill="#09030f"/>
      <path id="Trazado_235812" data-name="Trazado 235812" d="M218.564,166.363l-.341,4.859.511.384,6.906-1.193Z" transform="translate(93.295 71.124)" fill="#9195f0"/>
      <path id="Trazado_235813" data-name="Trazado 235813" d="M231.361,155l2.234,3.536.548.006,4.173-4.337Z" transform="translate(98.912 65.924)" fill="#fde180"/>
      <path id="Trazado_235814" data-name="Trazado 235814" d="M242.589,160.418l-19.883-20.759-1.343,1.383,14.447,20.9Z" transform="translate(94.638 59.707)" fill="#e69104"/>
      <path id="Trazado_235815" data-name="Trazado 235815" d="M215.744,149.4a.2.2,0,0,1-.173-.1c-.161-.264-3.967-6.49-3.235-9.326a1.759,1.759,0,0,1,.839-1.148c2.925-1.642,9.562,4.709,9.844,4.981a.2.2,0,0,1-.283.291c-.066-.066-6.7-6.42-9.363-4.919a1.349,1.349,0,0,0-.645.9c-.691,2.671,3.149,8.949,3.188,9.012a.2.2,0,0,1-.067.278.2.2,0,0,1-.106.03" transform="translate(90.739 59.238)" fill="#040076"/>
      <path id="Trazado_235816" data-name="Trazado 235816" d="M210.6,151.606l15.51-12.392.741,1.1c3.192,4.744,15.638,23.273,16.161,24.63.016-.1-17.64,10.234-17.64,10.234Z" transform="translate(90.038 59.517)" fill="#fc0"/>
      <path id="Trazado_235817" data-name="Trazado 235817" d="M218.828,143.314a.484.484,0,1,1,.675.1.483.483,0,0,1-.675-.1" transform="translate(93.514 60.941)" fill="#e69104"/>
      <path id="Trazado_235818" data-name="Trazado 235818" d="M213.829,146.986a.484.484,0,1,1,.675.1.483.483,0,0,1-.675-.1" transform="translate(91.376 62.511)" fill="#1e23c8"/>
      <path id="Trazado_235819" data-name="Trazado 235819" d="M214.855,150.032a.2.2,0,0,1-.181-.114c-.186-.377-4.488-9.282-1.527-10.948,2.929-1.653,8.752,5.2,9,5.487a.2.2,0,1,1-.308.261c-.059-.069-5.856-6.888-8.494-5.4-2.183,1.228.483,7.937,1.693,10.418a.2.2,0,0,1-.181.291" transform="translate(90.681 59.303)" fill="#040076"/>
      <path id="Trazado_235820" data-name="Trazado 235820" d="M201.3,161.026l-2.909,3,.124.535,5.2,3.031Z" transform="translate(84.814 68.842)" fill="#4b85f1"/>
      <path id="Trazado_235821" data-name="Trazado 235821" d="M203.038,173.175l15.484-24.219-1.662-.978-16.906,18.97Z" transform="translate(85.485 63.264)" fill="#1a3ad4"/>
      <path id="Trazado_235822" data-name="Trazado 235822" d="M211.828,150.312a.2.2,0,0,1-.174-.3c.046-.08,4.657-8.026,2.571-10.26a1.353,1.353,0,0,0-1.024-.417c-2.8,0-7.956,5.17-8.007,5.222a.2.2,0,0,1-.288-.284c.218-.22,5.389-5.376,8.3-5.343a1.766,1.766,0,0,1,1.313.545c2.29,2.454-2.32,10.4-2.518,10.741a.2.2,0,0,1-.174.1" transform="translate(87.577 59.394)" fill="#040076"/>
      <path id="Trazado_235823" data-name="Trazado 235823" d="M208.014,139.237l15.7,12.15s-.326.355-.894.979c-3.857,4.221-18.928,20.688-20.124,21.516.1-.01-14.105-14.729-14.105-14.729Z" transform="translate(80.627 59.527)" fill="#2355f1"/>
      <path id="Trazado_235824" data-name="Trazado 235824" d="M203.872,142.4a.563.563,0,1,1,.564.564.563.563,0,0,1-.564-.564" transform="translate(87.16 60.637)" fill="#1a3ad4"/>
      <path id="Trazado_235825" data-name="Trazado 235825" d="M208.84,146.118a.483.483,0,1,1,.059.681.482.482,0,0,1-.059-.681" transform="translate(89.235 62.395)" fill="#e69104"/>
      <path id="Trazado_235826" data-name="Trazado 235826" d="M211.2,149.579a.2.2,0,0,1-.163-.323c.053-.071,5.313-7.3,3.239-9.526-1.709-1.829-7.6,2.341-9.724,4.1a.2.2,0,0,1-.26-.311c.325-.27,7.968-6.554,10.28-4.068,2.3,2.465-2.982,9.734-3.209,10.041a.2.2,0,0,1-.163.083" transform="translate(87.309 59.372)" fill="#040076"/>
      <path id="Trazado_235827" data-name="Trazado 235827" d="M225.64,179.362V145.429l-6.565,1.109-.852,29.584Z" transform="translate(93.295 62.174)" fill="#1e23c8"/>
      <path id="Trazado_235828" data-name="Trazado 235828" d="M219.22,150.3a.2.2,0,0,1-.2-.168c-.017-.106-1.867-10.669-5.426-11.1a1.607,1.607,0,0,0-1.251.4c-2.5,2.039-3.228,10.6-3.235,10.681a.206.206,0,0,1-.218.184.2.2,0,0,1-.186-.217c.029-.358.749-8.814,3.383-10.96a2.015,2.015,0,0,1,1.553-.492c3.857.467,5.7,10.988,5.779,11.436a.2.2,0,0,1-.167.233Z" transform="translate(89.226 59.262)" fill="#040076"/>
      <path id="Trazado_235829" data-name="Trazado 235829" d="M204.424,145.889l23.106-.938s-.023.561-.064,1.543c-.273,6.654-1.366,32.632-1.812,34.266.084-.086-23.617-2.558-23.617-2.558Z" transform="translate(86.375 61.97)" fill="#594cf0"/>
      <path id="Trazado_235830" data-name="Trazado 235830" d="M214.72,146.912a.563.563,0,1,1,.562.564.564.564,0,0,1-.562-.564" transform="translate(91.797 62.567)" fill="#1e23c8"/>
      <path id="Trazado_235831" data-name="Trazado 235831" d="M207.5,146.912a.563.563,0,1,1,.564.564.564.564,0,0,1-.564-.564" transform="translate(88.709 62.567)" fill="#1e23c8"/>
      <path id="Trazado_235832" data-name="Trazado 235832" d="M207.951,150.267a.21.21,0,0,1-.2-.238c.089-.481,2.181-11.794,6.078-11.3,3.874.47,4.608,10.885,4.637,11.327a.2.2,0,0,1-.4.027c-.007-.106-.738-10.524-4.28-10.953a1.514,1.514,0,0,0-.2-.011c-3.4,0-5.417,10.875-5.436,10.988a.2.2,0,0,1-.2.166" transform="translate(88.817 59.301)" fill="#040076"/>
      <path id="Trazado_235833" data-name="Trazado 235833" d="M215.461,145.486c.711-.248,2.313-5.091,2.333-5.672.073-1.869-4.274-5.309-4.578-5.906s-1.272-3.253-1.272-3.253l-4.841.845,2.2,3.633a33.263,33.263,0,0,1,.647,3.857,17.633,17.633,0,0,0,1.439,3.612s-1.429-.321-1.433.374,1.77,1.183,1.77,1.183.978,2.138,1.784,2.231.758-1.253.758-1.253.906.448,1.191.348m-1.866-2.859-.344-1.633s.737-.662,1.035-.49c.375.217.258,2.373.258,2.373Z" transform="translate(88.541 55.858)" fill="#feb3a2"/>
      <rect id="Rectángulo_64168" data-name="Rectángulo 64168" width="54.461" height="10.749" transform="translate(182.119 104.246)" fill="#e8f2f9"/>
      <path id="Trazado_235834" data-name="Trazado 235834" d="M157.367,73.975v0Z" transform="translate(67.278 31.626)" fill="#fff"/>
      <path id="Trazado_235835" data-name="Trazado 235835" d="M157.474,82.479a.357.357,0,0,1-.357-.357v-8.04a.357.357,0,0,1,.714,0v8.04a.357.357,0,0,1-.357.357" transform="translate(67.171 31.519)" fill="#0041ef"/>
      <path id="Trazado_235836" data-name="Trazado 235836" d="M160.091,75.6l4.855-.016-2.25,3.442Z" transform="translate(68.442 32.314)" fill="#fff"/>
      <path id="Trazado_235837" data-name="Trazado 235837" d="M162.811,79.49a.364.364,0,0,1-.291-.14l-2.605-3.426a.356.356,0,0,1-.037-.374.361.361,0,0,1,.32-.2l4.856-.014a.357.357,0,0,1,.314.187.351.351,0,0,1-.016.364l-2.25,3.442a.359.359,0,0,1-.291.161m-1.894-3.427,1.866,2.452,1.612-2.464Z" transform="translate(68.335 32.208)" fill="#0041ef"/>
      <path id="Trazado_235838" data-name="Trazado 235838" d="M155.768,100.45H132.191a4.614,4.614,0,0,1-4.614-4.614V93.365a4.614,4.614,0,0,1,4.614-4.614h23.577a4.614,4.614,0,0,1,4.614,4.614v2.471a4.614,4.614,0,0,1-4.614,4.614" transform="translate(54.542 37.943)" fill="#5d97f1"/>
      <path id="Trazado_235839" data-name="Trazado 235839" d="M140.291,127.006s1.477,6.808,5.619,7.139,5.833-7.139,5.833-7.139,1.552-.938,4.038,1.052c-3.8,9,.635,14.785.635,14.785l1.547,22.281h-22.7l.5-22.374s4.124-2.6,1.029-14.417a6.406,6.406,0,0,1,3.5-1.328" transform="translate(57.826 54.203)" fill="#8c5be1"/>
      <path id="Trazado_235840" data-name="Trazado 235840" d="M157.2,160.2s-1.216-2.127-2.866-1.042c-3.617,2.38,2.842,6.953,2.842,6.953s6.357-4.692,2.974-6.953c-1.66-1.109-2.949,1.042-2.949,1.042" transform="translate(65.509 67.908)" fill="#fff"/>
      <path id="Trazado_235841" data-name="Trazado 235841" d="M157.233,166.376a.2.2,0,0,1-.117-.037c-.166-.118-4.068-2.911-4.027-5.353a2.325,2.325,0,0,1,1.191-1.934,1.818,1.818,0,0,1,1.453-.294,2.9,2.9,0,0,1,1.527,1.143,3,3,0,0,1,1.6-1.156,1.822,1.822,0,0,1,1.462.308,2.171,2.171,0,0,1,1.081,1.8c.057,2.43-3.879,5.363-4.046,5.487a.2.2,0,0,1-.12.039m-1.894-7.26a1.513,1.513,0,0,0-.837.274,1.923,1.923,0,0,0-1.009,1.6c-.034,2.007,3.083,4.44,3.737,4.928.655-.507,3.811-3.062,3.764-5.061a1.771,1.771,0,0,0-.9-1.472,1.454,1.454,0,0,0-1.149-.25,2.914,2.914,0,0,0-1.513,1.228.2.2,0,0,1-.173.1.2.2,0,0,1-.176-.1,2.8,2.8,0,0,0-1.445-1.211,1.245,1.245,0,0,0-.3-.036" transform="translate(65.449 67.847)" fill="#0041ef"/>
      <path id="Trazado_235842" data-name="Trazado 235842" d="M136.353,54.4H110.871l2-25.86h21.182Z" transform="translate(47.4 12.2)" fill="#fff"/>
      <path id="Trazado_235843" data-name="Trazado 235843" d="M125.334,68.659h-3.443A11.019,11.019,0,0,1,110.872,57.64V46.651h25.481V57.64a11.019,11.019,0,0,1-11.019,11.019" transform="translate(47.4 19.944)" fill="#e0ecee"/>
      <path id="Trazado_235844" data-name="Trazado 235844" d="M118.5,54.4H93.022l6.087-25.86H120.5Z" transform="translate(39.769 12.2)" fill="#8c5be1"/>
      <path id="Trazado_235845" data-name="Trazado 235845" d="M107.484,68.659h-3.443A11.019,11.019,0,0,1,93.022,57.64V46.651H118.5V57.64a11.019,11.019,0,0,1-11.019,11.019" transform="translate(39.769 19.944)" fill="#532c97"/>
      <path id="Trazado_235846" data-name="Trazado 235846" d="M100.557,54.4H75.076l10.695-25.86h20.7Z" transform="translate(32.096 12.2)" fill="#fff"/>
      <path id="Trazado_235847" data-name="Trazado 235847" d="M89.538,68.659H86.1A11.019,11.019,0,0,1,75.076,57.64V46.651h25.481V57.64A11.019,11.019,0,0,1,89.538,68.659" transform="translate(32.097 19.944)" fill="#e0ecee"/>
      <path id="Trazado_235848" data-name="Trazado 235848" d="M82.683,54.4H57.2l14.305-25.86H93.413Z" transform="translate(24.455 12.2)" fill="#8c5be1"/>
      <path id="Trazado_235849" data-name="Trazado 235849" d="M71.664,68.659H68.221A11.019,11.019,0,0,1,57.2,57.64V46.651H82.683V57.64A11.019,11.019,0,0,1,71.664,68.659" transform="translate(24.455 19.944)" fill="#532c97"/>
      <path id="Trazado_235850" data-name="Trazado 235850" d="M64.87,54.4H39.388l18.277-25.86H79.124Z" transform="translate(16.839 12.2)" fill="#fff"/>
      <path id="Trazado_235851" data-name="Trazado 235851" d="M53.851,68.659H50.408A11.019,11.019,0,0,1,39.389,57.64V46.651H64.87V57.64A11.019,11.019,0,0,1,53.851,68.659" transform="translate(16.84 19.944)" fill="#e0ecee"/>
      <path id="Trazado_235852" data-name="Trazado 235852" d="M47.379,54.4H21.9l21.788-25.86H65.143Z" transform="translate(9.362 12.2)" fill="#8c5be1"/>
      <path id="Trazado_235853" data-name="Trazado 235853" d="M36.36,68.659H32.917A11.019,11.019,0,0,1,21.9,57.64V46.651H47.379V57.64A11.019,11.019,0,0,1,36.36,68.659" transform="translate(9.362 19.944)" fill="#532c97"/>
      <path id="Trazado_235854" data-name="Trazado 235854" d="M129.4,54.4h25.481L148.8,28.536H127.409Z" transform="translate(54.47 12.2)" fill="#8c5be1"/>
      <path id="Trazado_235855" data-name="Trazado 235855" d="M139.824,68.659h3.443A11.019,11.019,0,0,0,154.286,57.64V46.651H128.8V57.64a11.019,11.019,0,0,0,11.019,11.019" transform="translate(55.067 19.944)" fill="#532c97"/>
      <path id="Trazado_235856" data-name="Trazado 235856" d="M148.523,54.4H174l-10.7-25.86h-20.7Z" transform="translate(60.968 12.2)" fill="#fff"/>
      <path id="Trazado_235857" data-name="Trazado 235857" d="M157.77,68.659h3.443A11.019,11.019,0,0,0,172.232,57.64V46.651H146.751V57.64A11.019,11.019,0,0,0,157.77,68.659" transform="translate(62.739 19.944)" fill="#e0ecee"/>
      <path id="Trazado_235858" data-name="Trazado 235858" d="M167.839,54.4H193.32l-14.305-25.86H157.109Z" transform="translate(67.168 12.2)" fill="#8c5be1"/>
      <path id="Trazado_235859" data-name="Trazado 235859" d="M175.644,68.659h3.443A11.019,11.019,0,0,0,190.106,57.64V46.651H164.625V57.64a11.019,11.019,0,0,0,11.019,11.019" transform="translate(70.381 19.944)" fill="#532c97"/>
      <path id="Trazado_235860" data-name="Trazado 235860" d="M186.708,54.4h25.481l-18.278-25.86H172.454Z" transform="translate(73.728 12.2)" fill="#fff"/>
      <path id="Trazado_235861" data-name="Trazado 235861" d="M193.458,68.659H196.9A11.019,11.019,0,0,0,207.919,57.64V46.651H182.438V57.64a11.02,11.02,0,0,0,11.02,11.019" transform="translate(77.996 19.944)" fill="#e0ecee"/>
      <path id="Trazado_235862" data-name="Trazado 235862" d="M206.146,54.4h25.481l-22.586-25.86H187.582Z" transform="translate(80.195 12.2)" fill="#8c5be1"/>
      <path id="Trazado_235863" data-name="Trazado 235863" d="M211.605,68.659h3.443A11.019,11.019,0,0,0,226.067,57.64V46.651H200.586V57.64a11.019,11.019,0,0,0,11.019,11.019" transform="translate(85.755 19.944)" fill="#532c97"/>
      <path id="Trazado_235864" data-name="Trazado 235864" d="M118.266,141.274v7.572h10.978a2.266,2.266,0,0,0,2.126-1.483l2.2-5.978a1.373,1.373,0,0,0-1.332-1.71h-4.618l-.091-3.525a2.185,2.185,0,0,0-1.081-1.829l-.251-.148a.8.8,0,0,0-1.2.7l.04,2.522-2.831,3.756Z" transform="translate(50.561 57.314)" fill="#fff"/>
      <path id="Trazado_235865" data-name="Trazado 235865" d="M129.394,149.5H117.911v-8.567l4.188-.131,2.581-3.423-.037-2.348a1.3,1.3,0,0,1,1.961-1.146l.253.148a2.678,2.678,0,0,1,1.33,2.253l.079,3.032h4.126a1.88,1.88,0,0,1,1.823,2.34l-2.221,6.03a2.779,2.779,0,0,1-2.6,1.813m-10.471-1.012h10.471a1.763,1.763,0,0,0,1.65-1.151l2.206-5.978a.876.876,0,0,0-.858-1.029h-5.111l-.1-4.018a1.676,1.676,0,0,0-.831-1.406l-.253-.147a.291.291,0,0,0-.438.257l.041,2.7-3.082,4.087-3.692.114Z" transform="translate(50.409 57.163)" fill="#2356f1"/>
      <path id="Trazado_235866" data-name="Trazado 235866" d="M237.074,113.017h27.233c.612,0,1.111.926,1.111,2.068v25.553c0,1.141-.5,2.067-1.111,2.067H237.074c-.614,0-1.111-.926-1.111-2.067V115.085c0-1.142.5-2.068,1.111-2.068" transform="translate(100.879 48.317)" fill="#fff"/>
      <path id="Trazado_235867" data-name="Trazado 235867" d="M264.412,143.169H237.179c-.837,0-1.466-1.042-1.466-2.424V115.192c0-1.383.63-2.425,1.466-2.425h27.233c.837,0,1.466,1.042,1.466,2.425v25.553c0,1.382-.63,2.424-1.466,2.424m-27.233-29.688c-.307,0-.752.667-.752,1.712v25.553c0,1.045.445,1.71.752,1.71h27.233c.307,0,.752-.665.752-1.71V115.192c0-1.045-.445-1.712-.752-1.712Z" transform="translate(100.772 48.21)" fill="#0041ef"/>
      <path id="Trazado_235868" data-name="Trazado 235868" d="M249.432,115.864l3.253,6.592,7.276,1.058-5.265,5.132,1.243,7.246-6.508-3.422-6.508,3.422,1.243-7.246-5.265-5.132,7.276-1.058Z" transform="translate(102.136 49.534)" fill="#beddfa"/>
      <path id="Trazado_235869" data-name="Trazado 235869" d="M252.549,120.891l-.849-.551.277-.424c.18-.278.55-.871.995-1.713l.237-.447.894.474-.236.447c-.465.876-.854,1.5-1.042,1.79Zm2.821-5.5-.948-.351.176-.474c.218-.592.431-1.223.628-1.889l.144-.484.969.287-.143.485c-.206.688-.424,1.34-.651,1.951Zm1.65-5.941-1-.151.076-.5c.1-.64.174-1.3.224-1.973l.037-.5,1.009.076-.037.5c-.053.7-.133,1.385-.233,2.049Zm-.667-6.081-.041-.5q-.079-.97-.241-1.967l-.083-.5,1-.164.081.5c.114.692.2,1.375.253,2.047l.04.505Zm-1.084-5.831-.163-.48q-.306-.9-.7-1.819l.926-.407-.475.176.475-.176q.411.959.731,1.9l.161.478Zm-2.417-5.44-.26-.434c-.347-.585-.707-1.142-1.073-1.673l-.288-.415.832-.575.287.415q.572.822,1.113,1.73l.257.435Zm-3.476-4.826-.345-.371q-.7-.747-1.408-1.4l-.373-.343.687-.744.371.343c.488.451.978.935,1.462,1.453l.345.37Zm-4.445-3.949-.42-.283c-.578-.39-1.143-.737-1.686-1.045l-.441-.248.5-.881.44.25q.848.478,1.754,1.085l.42.283ZM239.708,80.5l-.475-.173a14.657,14.657,0,0,0-1.869-.565l-.5-.1.2-.992.5.1a15.053,15.053,0,0,1,2.016.607l.475.173Z" transform="translate(101.267 33.634)" fill="#0041ef"/>
      <path id="Trazado_235870" data-name="Trazado 235870" d="M233.017,127.113l-.5-.029c-.7-.039-1.389-.11-2.06-.211l-.5-.074.15-1,.5.074c.64.1,1.3.164,1.964.2l.505.029Zm3.123-.1-.12-1,.5-.06a15.939,15.939,0,0,0,1.926-.333l.49-.128.257.978-.49.128a16.419,16.419,0,0,1-2.063.36Zm-9.228-.984-.475-.174a18.614,18.614,0,0,1-1.909-.824l-.453-.226.453-.905.451.226a17.647,17.647,0,0,0,1.806.779l.475.174Zm-5.473-2.941-.388-.323a18.793,18.793,0,0,1-1.526-1.412l-.351-.363.727-.7.353.363a17.745,17.745,0,0,0,1.442,1.336l.39.323Z" transform="translate(93.702 51.427)" fill="#0041ef"/>
      <path id="Trazado_235871" data-name="Trazado 235871" d="M16.458,81.728l-.39-.321a19.939,19.939,0,0,1-1.51-1.445l-.351-.364.731-.7.35.365a19.124,19.124,0,0,0,1.425,1.363l.39.321Zm-4.241-4.515-.3-.41c-.383-.524-.772-1.091-1.159-1.7l-.271-.427.855-.542.271.428c.374.588.751,1.136,1.122,1.646l.3.408ZM9,71.953l-.211-.46c-.278-.608-.545-1.242-.792-1.9l-.178-.474.946-.355.178.474c.238.634.5,1.246.765,1.833l.211.461ZM6.943,66.136l-.106-.494q-.21-.989-.348-2.031l-.067-.5,1-.133.067.5q.133,1,.337,1.954l.1.5Zm.327-6.11L6.258,60l.013-.505q.026-1.009.131-2.057l.051-.5,1,.1-.05.5q-.1,1.006-.127,1.98Zm.7-5.906-.981-.246.123-.491q.242-.974.564-1.977l.156-.481.962.31-.154.481q-.313.97-.547,1.913Zm1.891-5.66-.922-.417.208-.461q.435-.957.9-1.843l.236-.447.9.473-.237.448q-.454.857-.875,1.786Zm2.876-5.216-.824-.59.3-.411q.617-.859,1.259-1.629l.323-.388.778.648-.324.388q-.619.743-1.213,1.57Zm3.887-4.492-.67-.758.378-.334c.531-.471,1.064-.905,1.595-1.308l.4-.3.611.807-.4.305c-.511.387-1.024.8-1.535,1.256Zm4.808-3.489-.477-.892.445-.238c.641-.343,1.262-.64,1.859-.9l.464-.2.4.926-.464.2c-.572.25-1.171.537-1.786.865ZM26.927,33l-.244-.981.491-.123a16.509,16.509,0,0,1,2.057-.393l.5-.057.114,1-.5.057a15.789,15.789,0,0,0-1.927.368Z" transform="translate(2.675 13.443)" fill="#0041ef"/>
      <path id="Trazado_235872" data-name="Trazado 235872" d="M257.1,19.7a10.006,10.006,0,1,1-10-10.011,10.007,10.007,0,0,1,10,10.011" transform="translate(101.358 4.143)" fill="#e9f5fe"/>
      <path id="Trazado_235873" data-name="Trazado 235873" d="M175.922,14.228a4.144,4.144,0,1,1-4.143-4.146,4.145,4.145,0,0,1,4.143,4.146" transform="translate(71.667 4.31)" fill="#fff"/>
      <path id="Trazado_235874" data-name="Trazado 235874" d="M113.354,180.035a4.144,4.144,0,1,1-4.143-4.146,4.145,4.145,0,0,1,4.143,4.146" transform="translate(44.918 75.196)" fill="#fff"/>
      <path id="Trazado_235875" data-name="Trazado 235875" d="M170.081,187.619a5.766,5.766,0,1,1,5.769-5.764,5.731,5.731,0,0,1-5.769,5.764m0-10.522a4.755,4.755,0,1,0,4.755,4.758h0a4.754,4.754,0,0,0-4.755-4.758" transform="translate(70.248 75.28)" fill="#fff"/>
      <path id="Trazado_235876" data-name="Trazado 235876" d="M18.054,133.078a7.477,7.477,0,0,0-12.775,5.3,7.354,7.354,0,0,0,2.178,5.282,7.487,7.487,0,0,0,10.6-10.579M16.882,142.5a5.894,5.894,0,0,1-4.127,1.7,5.8,5.8,0,0,1-5.826-5.827,5.733,5.733,0,0,1,1.7-4.126,5.823,5.823,0,0,1,9.953,4.126,5.9,5.9,0,0,1-1.7,4.127" transform="translate(2.257 55.955)" fill="#9fc6f1"/>
      <path id="Trazado_235877" data-name="Trazado 235877" d="M45.473,88.8a.354.354,0,0,1-.187-.053,10.426,10.426,0,0,1-3.846-5.32.357.357,0,1,1,.682-.208c.011.034,1.058,3.4,3.536,4.921a.357.357,0,0,1-.186.661" transform="translate(17.71 35.468)" fill="#09030f"/>
      <path id="Trazado_235878" data-name="Trazado 235878" d="M28.885,92.758H13.612a2.514,2.514,0,0,1-2.521-2.5V80.567a2.515,2.515,0,0,1,2.521-2.5H28.885a2.515,2.515,0,0,1,2.52,2.5v9.689a2.514,2.514,0,0,1-2.52,2.5M13.612,78.779A1.8,1.8,0,0,0,11.8,80.567v9.689a1.8,1.8,0,0,0,1.807,1.789H28.885a1.8,1.8,0,0,0,1.806-1.789V80.567a1.8,1.8,0,0,0-1.806-1.789Z" transform="translate(4.742 33.374)" fill="#0041ef"/>
      <path id="Trazado_235879" data-name="Trazado 235879" d="M11.518,80.753a.357.357,0,0,1,0-.714l19.249-.07a.357.357,0,0,1,0,.714Z" transform="translate(4.772 34.188)" fill="#0041ef"/>
      <path id="Trazado_235880" data-name="Trazado 235880" d="M11.574,86.644a.357.357,0,0,1,0-.714l19.249-.07a.357.357,0,0,1,0,.714Z" transform="translate(4.796 36.707)" fill="#0041ef"/>
      <path id="Trazado_235881" data-name="Trazado 235881" d="M14.287,79.914a.36.36,0,0,1-.355-.378l.213-3.5a.353.353,0,0,1,.143-.264.361.361,0,0,1,.294-.061l13.567,3.159a.357.357,0,1,1-.161.7L14.829,76.5l-.186,3.081a.358.358,0,0,1-.357.335" transform="translate(5.956 32.362)" fill="#0041ef"/>
      <path id="Trazado_235882" data-name="Trazado 235882" d="M26.913,79.919a.354.354,0,0,1-.156-.036l-9.789-4.725-.1,2.026a.334.334,0,0,1-.373.34.354.354,0,0,1-.34-.373l.121-2.565a.355.355,0,0,1,.511-.3l10.275,4.959a.357.357,0,0,1-.156.678" transform="translate(6.909 31.742)" fill="#0041ef"/>
      <path id="Trazado_235883" data-name="Trazado 235883" d="M293.988,29H30.124a.357.357,0,1,1,0-.714H293.988a.357.357,0,0,1,0,.714" transform="translate(12.726 12.093)" fill="#0041ef"/>
      <path id="Trazado_235884" data-name="Trazado 235884" d="M36.581,28.094a2.557,2.557,0,1,1,2.557-2.558,2.561,2.561,0,0,1-2.557,2.558m0-4.4a1.844,1.844,0,1,0,1.843,1.843,1.847,1.847,0,0,0-1.843-1.843" transform="translate(14.546 9.824)" fill="#0041ef"/>
      <path id="Trazado_235885" data-name="Trazado 235885" d="M39.822,25.573A2.682,2.682,0,1,1,42.5,28.256a2.682,2.682,0,0,1-2.682-2.682" transform="translate(17.025 9.786)" fill="#0041ef"/>
      <path id="Trazado_235886" data-name="Trazado 235886" d="M48.4,28.285A2.705,2.705,0,1,1,51.1,25.58,2.708,2.708,0,0,1,48.4,28.285m0-4.7A1.991,1.991,0,1,0,50.39,25.58,1.994,1.994,0,0,0,48.4,23.589" transform="translate(19.535 9.78)" fill="#0041ef"/>
      <path id="Trazado_235887" data-name="Trazado 235887" d="M245.611,27.923H70.166a2.031,2.031,0,0,1-2.03-2.03v-.634a2.031,2.031,0,0,1,2.03-2.03H245.611a2.031,2.031,0,0,1,2.03,2.03v.634a2.031,2.031,0,0,1-2.03,2.03" transform="translate(29.13 9.931)" fill="#b0daf9"/>
    </g>
  </g>
</svg>
