<?xml version="1.0" encoding="utf-8"?>
<!-- Generator: Adobe Illustrator 26.2.1, SVG Export Plug-In . SVG Version: 6.00 Build 0)  -->
<svg version="1.1" id="Layer_1" xmlns="http://www.w3.org/2000/svg" xmlns:xlink="http://www.w3.org/1999/xlink" x="0px" y="0px"
	 viewBox="0 0 567 277" style="enable-background:new 0 0 567 277;" xml:space="preserve">
<style type="text/css">
	.st0{fill:#FDD835;}
	.st1{fill:#12263F;}
</style>
<g id="Grupo_93236" transform="translate(6338 -2474)">
	<g id="Grupo_93235">
		<rect id="Rectángulo_35535" x="-5821" y="2474" class="st0" width="50" height="277"/>
		<path id="Icon_ionic-ios-arrow-back" class="st1" d="M-5793.6,2612.4l-8.9,8.3c-0.7,0.6-0.7,1.6,0,2.2s1.7,0.6,2.4,0c0,0,0,0,0,0
			l10.1-9.4c0.6-0.6,0.7-1.5,0-2.2l-10.1-9.4c-0.6-0.6-1.7-0.6-2.4,0c-0.7,0.6-0.7,1.6-0.1,2.2c0,0,0,0,0,0L-5793.6,2612.4z"/>
	</g>
	<g id="Grupo_93234">
		<rect id="Rectángulo_35536" x="-6338" y="2474" class="st0" width="50" height="277"/>
		<path id="Icon_ionic-ios-arrow-back-2" class="st1" d="M-6315.4,2612.6l8.9-8.3c0.7-0.6,0.7-1.6,0-2.2s-1.7-0.6-2.4,0c0,0,0,0,0,0
			l-10.1,9.4c-0.6,0.6-0.7,1.5,0,2.2l10.1,9.4c0.6,0.6,1.7,0.6,2.4,0c0.7-0.6,0.7-1.6,0.1-2.2c0,0,0,0,0,0L-6315.4,2612.6z"/>
	</g>
</g>
</svg>
