<svg xmlns="http://www.w3.org/2000/svg" xmlns:xlink="http://www.w3.org/1999/xlink" width="400" height="300" viewBox="0 0 400 300">
  <defs>
    <clipPath id="clip-path">
      <rect id="Rectángulo_64487" data-name="Rectángulo 64487" width="332.021" height="296.332" fill="none"/>
    </clipPath>
    <clipPath id="clip-path-3">
      <path id="Trazado_236155" data-name="Trazado 236155" d="M151.115,53.055C105.391,62.582,65.5,102.423,57.732,114.4c-20.273,31.256-22.215,56.716-7.488,73.2,16.22,18.152,52.678,30.684,81.352,3.587,23.079-21.81,24.868-40.886,36.191-47.166,23.988-13.309,49.818-6.895,63.218-21.707,28.755-31.787-18.607-70.785-64.6-70.788a74.793,74.793,0,0,0-15.294,1.533" transform="translate(-40.624 -51.522)" fill="none"/>
    </clipPath>
    <linearGradient id="linear-gradient" x1="-0.124" y1="0.989" x2="-0.119" y2="0.989" gradientUnits="objectBoundingBox">
      <stop offset="0" stop-color="#e4f1f9"/>
      <stop offset="1" stop-color="#adcff1"/>
    </linearGradient>
    <clipPath id="clip-path-5">
      <path id="Trazado_236165" data-name="Trazado 236165" d="M78.61,70.963,39.016,149.721H78.388l39.594-78.758Z" transform="translate(-39.016 -70.963)" fill="none"/>
    </clipPath>
    <linearGradient id="linear-gradient-2" x1="-0.382" y1="1.876" x2="-0.368" y2="1.876" gradientUnits="objectBoundingBox">
      <stop offset="0" stop-color="#e4f1f9"/>
      <stop offset="1" stop-color="#9dc6e8"/>
    </linearGradient>
    <clipPath id="clip-path-6">
      <path id="Trazado_236166" data-name="Trazado 236166" d="M38.16,70.967,13.449,116.12l0,27.541a6.056,6.056,0,0,0,6.059,6.051H32.89l39.3-78.744Z" transform="translate(-13.449 -70.967)" fill="none"/>
    </clipPath>
    <linearGradient id="linear-gradient-3" x1="-0.002" y1="2.128" x2="0.013" y2="2.128" xlink:href="#linear-gradient-2"/>
    <clipPath id="clip-path-8">
      <rect id="Rectángulo_64462" data-name="Rectángulo 64462" width="107.605" height="235.493" fill="none"/>
    </clipPath>
    <clipPath id="clip-path-9">
      <rect id="Rectángulo_64478" data-name="Rectángulo 64478" width="1.764" height="2.567" fill="none"/>
    </clipPath>
    <clipPath id="clip-path-10">
      <path id="Trazado_236262" data-name="Trazado 236262" d="M176.919,129.8c-.184.7-.7,1.17-1.149,1.051s-.669-.781-.485-1.479.7-1.17,1.149-1.051.669.781.485,1.479" transform="translate(-175.22 -128.299)" fill="none"/>
    </clipPath>
    <linearGradient id="linear-gradient-4" x1="-81.322" y1="40.238" x2="-80.857" y2="40.238" gradientUnits="objectBoundingBox">
      <stop offset="0" stop-color="#fff"/>
      <stop offset="1" stop-color="#d9e5e5"/>
    </linearGradient>
    <clipPath id="clip-path-11">
      <path id="Trazado_236283" data-name="Trazado 236283" d="M72.395,5.925a8.517,8.517,0,0,0-8.976,6.6H170.48a8.774,8.774,0,0,0-8.682-6.61Z" transform="translate(-63.419 -5.915)" fill="none"/>
    </clipPath>
    <linearGradient id="linear-gradient-5" x1="-0.878" y1="42.472" x2="-0.864" y2="42.472" xlink:href="#linear-gradient"/>
  </defs>
  <g id="Grupo_184265" data-name="Grupo 184265" transform="translate(-8395 4216)">
    <g id="Grupo_183860" data-name="Grupo 183860" transform="translate(0 211)">
      <rect id="Rectángulo_64172" data-name="Rectángulo 64172" width="400" height="300" transform="translate(8395 -4427)" fill="none"/>
      <g id="Grupo_183858" data-name="Grupo 183858" transform="translate(8429 -4427)">
        <g id="Grupo_183857" data-name="Grupo 183857" clip-path="url(#clip-path)">
          <g id="Grupo_183834" data-name="Grupo 183834">
            <g id="Grupo_183833" data-name="Grupo 183833" clip-path="url(#clip-path)">
              <path id="Trazado_236151" data-name="Trazado 236151" d="M50.9,260.288C122.83,327.643,189.8,226.563,242,236.32c53.618,10.022,78.517-44.887,41.759-115.58C247.968,51.917,190.607,17.149,152.091,10.732,88.412.122,19.333,62.485,40.627,112.444,59.846,157.532,3.4,215.8,50.9,260.288" transform="translate(15.118 4.602)" fill="#e9f5fe"/>
              <path id="Trazado_236152" data-name="Trazado 236152" d="M199.367,153.784l10.34,3.783,4.982-5.169-6.331-4.163Z" transform="translate(96.171 71.506)" fill="#feb3a2"/>
              <path id="Trazado_236153" data-name="Trazado 236153" d="M105.852,292.141c-18.072,0-36.656-6.474-55.532-24.15-28.739-26.914-20.906-58.728-13.33-89.5,5.535-22.479,10.764-43.713,2.579-62.911C31.221,96,35.842,72.8,52.249,51.939,76.483,21.127,118.78,3.835,155.088,9.885,197.03,16.871,255.362,54.711,291.126,123.49c21.2,40.78,23.843,80.321,6.883,103.192-11.045,14.892-29.035,20.872-50.653,16.828-19.879-3.715-42.195,8.577-65.818,21.591-23.6,13-49.085,27.037-75.686,27.04M140.276,10.167c-32.037,0-66.132,16.333-86.862,42.688C37.351,73.276,32.8,95.93,40.934,115c8.377,19.653,2.846,42.12-2.5,63.846-7.474,30.353-15.2,61.738,12.9,88.058,45.872,42.962,90.293,18.487,129.489-3.106,23.86-13.146,46.4-25.573,66.805-21.748,21.028,3.927,38.5-1.841,49.19-16.256,16.619-22.411,13.933-61.351-7.007-101.625-35.53-68.326-93.387-105.9-134.967-112.827a88.693,88.693,0,0,0-14.569-1.18" transform="translate(14.451 4.19)" fill="#d5e9f6"/>
              <path id="Trazado_236154" data-name="Trazado 236154" d="M204.773,158.529s2.373,1.991,4.714,3.648,3.356,2.123,5.651.778,2.674-4.591,3.667-5.956,5.3-6.822,5.3-6.822.854-3.737-.07-4.275c-1.537-.9-4.035,2.2-5.984,3.856s-8.081,2.424-8.081,2.424Z" transform="translate(98.779 70.304)" fill="#0b156d"/>
            </g>
          </g>
          <g id="Grupo_183836" data-name="Grupo 183836" transform="translate(60.221 76.375)">
            <g id="Grupo_183835" data-name="Grupo 183835" clip-path="url(#clip-path-3)">
              <rect id="Rectángulo_64450" data-name="Rectángulo 64450" width="267.936" height="279.45" transform="translate(-85.142 106.76) rotate(-53.143)" fill="url(#linear-gradient)"/>
            </g>
          </g>
          <g id="Grupo_183838" data-name="Grupo 183838">
            <g id="Grupo_183837" data-name="Grupo 183837" clip-path="url(#clip-path)">
              <path id="Trazado_236156" data-name="Trazado 236156" d="M44.5,54.772s6.219-37.786-6.568-34.753S44.5,54.772,44.5,54.772" transform="translate(16.192 9.573)" fill="#beddfa"/>
              <path id="Trazado_236157" data-name="Trazado 236157" d="M49.814,75.6S68.9,49,59.38,44.113,49.814,75.6,49.814,75.6" transform="translate(24.029 21.061)" fill="#beddfa"/>
              <path id="Trazado_236158" data-name="Trazado 236158" d="M60.038,89.316s19.086-26.6,9.566-31.487-9.566,31.487-9.566,31.487" transform="translate(28.961 27.678)" fill="#2356f1"/>
              <path id="Trazado_236159" data-name="Trazado 236159" d="M60.073,69.21S34.324,48.218,31.11,59.478,60.073,69.21,60.073,69.21" transform="translate(14.898 27.09)" fill="#beddfa"/>
              <path id="Trazado_236160" data-name="Trazado 236160" d="M70.186,80.125s-30.749-12.578-30.542-.869,30.542.869,30.542.869" transform="translate(19.123 35.826)" fill="#2356f1"/>
              <path id="Trazado_236161" data-name="Trazado 236161" d="M53.121,55.4S28.271,36.181,25.78,47.056,53.121,55.4,53.121,55.4" transform="translate(12.365 21.091)" fill="#beddfa"/>
              <path id="Trazado_236162" data-name="Trazado 236162" d="M43.942,62.965s18.4-27.079,8.761-31.722-8.761,31.722-8.761,31.722" transform="translate(21.187 14.874)" fill="#beddfa"/>
              <path id="Trazado_236163" data-name="Trazado 236163" d="M34.211,57.809a.6.6,0,0,1,.768-.341l12.529,4.815q-.783-2.166-1.515-4.379a154.278,154.278,0,0,1-6.782-29.917.594.594,0,1,1,1.183-.113A152.98,152.98,0,0,0,47.13,57.562c.5,1.5,1.038,3.07,1.628,4.683l4.837-21.1a.594.594,0,0,1,1.158.265l-5.1,22.24a.588.588,0,0,1-.239.35,138.484,138.484,0,0,0,7.757,16.966l7.382-22.282a.593.593,0,1,1,1.127.374L57.929,82.352a4.056,4.056,0,0,0,.381.66,105.2,105.2,0,0,0,13.714,19.041l.178,0,6.09-20.661a.594.594,0,0,1,1.14.335l-6.1,20.706a.626.626,0,0,1,.037.191.6.6,0,0,1-.317.535,85.125,85.125,0,0,0,6.222,5.946.593.593,0,0,1-.246,1.026.588.588,0,0,1-.529-.127A87.62,87.62,0,0,1,71.5,103.25l-14.978.305a.593.593,0,0,1-.024-1.186l13.939-.286A105.29,105.29,0,0,1,57.88,84.7q-.38-.652-.753-1.315a1.956,1.956,0,0,1-.335-.522L42.629,77.15a.594.594,0,0,1,.443-1.1l12.858,5.169a139.554,139.554,0,0,1-7.879-17.455l-13.5-5.187a.594.594,0,0,1-.341-.766" transform="translate(16.484 13.187)" fill="#6a8ec8"/>
              <path id="Trazado_236164" data-name="Trazado 236164" d="M131.768,149.715H19.509a6.054,6.054,0,0,1-6.057-6.051l0-66.644a6.053,6.053,0,0,1,6.053-6.053H131.768a6.053,6.053,0,0,1,6.053,6.053v66.644a6.053,6.053,0,0,1-6.053,6.053" transform="translate(6.489 34.233)" fill="#68a1e7"/>
            </g>
          </g>
          <g id="Grupo_183840" data-name="Grupo 183840" transform="translate(57.837 105.194)">
            <g id="Grupo_183839" data-name="Grupo 183839" clip-path="url(#clip-path-5)">
              <rect id="Rectángulo_64452" data-name="Rectángulo 64452" width="110.355" height="110.312" transform="matrix(0.803, -0.596, 0.596, 0.803, -37.701, 28.006)" fill="url(#linear-gradient-2)"/>
            </g>
          </g>
          <g id="Grupo_183842" data-name="Grupo 183842" transform="translate(19.937 105.2)">
            <g id="Grupo_183841" data-name="Grupo 183841" clip-path="url(#clip-path-6)">
              <rect id="Rectángulo_64453" data-name="Rectángulo 64453" width="98.189" height="93.215" transform="matrix(0.572, -0.82, 0.82, 0.572, -36.939, 53)" fill="url(#linear-gradient-3)"/>
            </g>
          </g>
          <g id="Grupo_183852" data-name="Grupo 183852">
            <g id="Grupo_183851" data-name="Grupo 183851" clip-path="url(#clip-path)">
              <path id="Trazado_236167" data-name="Trazado 236167" d="M37.227,105.63H25.445a2.964,2.964,0,0,1-2.965-2.965V92.412a2.965,2.965,0,0,1,2.965-2.965H37.227a2.965,2.965,0,0,1,2.965,2.965v10.254a2.964,2.964,0,0,1-2.965,2.965" transform="translate(10.844 43.148)" fill="#ffecc9"/>
              <rect id="Rectángulo_64454" data-name="Rectángulo 64454" width="0.21" height="16.183" transform="translate(38.521 132.595)" fill="#010101"/>
              <path id="Trazado_236168" data-name="Trazado 236168" d="M31.032,104.358h-.21V92.084h5.345v.211H31.032Z" transform="translate(14.868 44.42)" fill="#010101"/>
              <rect id="Rectángulo_64455" data-name="Rectángulo 64455" width="5.304" height="0.212" transform="translate(33.324 136.502)" fill="#010101"/>
              <rect id="Rectángulo_64456" data-name="Rectángulo 64456" width="5.304" height="0.212" transform="translate(33.324 140.324)" fill="#010101"/>
              <rect id="Rectángulo_64457" data-name="Rectángulo 64457" width="5.304" height="0.212" transform="translate(33.324 144.005)" fill="#010101"/>
              <rect id="Rectángulo_64458" data-name="Rectángulo 64458" width="5.24" height="0.212" transform="translate(45.795 140.324)" fill="#010101"/>
              <rect id="Rectángulo_64459" data-name="Rectángulo 64459" width="5.24" height="0.212" transform="translate(45.795 144.005)" fill="#010101"/>
              <path id="Trazado_236169" data-name="Trazado 236169" d="M90.3,92.34a.542.542,0,0,1-.417-.888,2.052,2.052,0,0,0,.341-1.2,2.086,2.086,0,0,0-.336-1.165.541.541,0,1,1,.854-.666,3.108,3.108,0,0,1,.566,1.831,3.059,3.059,0,0,1-.591,1.9.541.541,0,0,1-.417.2" transform="translate(43.296 42.55)" fill="#fff"/>
              <path id="Trazado_236170" data-name="Trazado 236170" d="M91.526,93.317a.549.549,0,0,1-.286-.082.543.543,0,0,1-.173-.746,4.289,4.289,0,0,0,.557-1.957,5.691,5.691,0,0,0-.581-2.083.541.541,0,0,1,.967-.486,6.8,6.8,0,0,1,.7,2.575,5.322,5.322,0,0,1-.723,2.523.54.54,0,0,1-.46.255" transform="translate(43.89 42.289)" fill="#fff"/>
              <path id="Trazado_236171" data-name="Trazado 236171" d="M92.735,94.546a.542.542,0,0,1-.47-.809,6.886,6.886,0,0,0,.821-2.889,9.07,9.07,0,0,0-.839-3.051.54.54,0,1,1,.975-.465,9.973,9.973,0,0,1,.947,3.516,7.868,7.868,0,0,1-.965,3.426.539.539,0,0,1-.47.273" transform="translate(44.473 41.977)" fill="#fff"/>
              <path id="Trazado_236172" data-name="Trazado 236172" d="M94.009,95.8a.543.543,0,0,1-.468-.815,7.98,7.98,0,0,0,.99-3.762,13.893,13.893,0,0,0-1.125-4.161.542.542,0,1,1,.989-.445,14.861,14.861,0,0,1,1.221,4.564,9,9,0,0,1-1.14,4.351.541.541,0,0,1-.467.268" transform="translate(45.034 41.626)" fill="#fff"/>
              <path id="Trazado_236173" data-name="Trazado 236173" d="M82.178,118.519a8.506,8.506,0,1,1,8.506,8.506,8.506,8.506,0,0,1-8.506-8.506" transform="translate(39.641 53.069)" fill="#ffe6b4"/>
              <path id="Trazado_236174" data-name="Trazado 236174" d="M74.219,118.519a8.506,8.506,0,1,1,8.506,8.506,8.506,8.506,0,0,1-8.506-8.506" transform="translate(35.802 53.069)" fill="#ff3700"/>
              <rect id="Rectángulo_64460" data-name="Rectángulo 64460" width="53.498" height="7.646" transform="translate(33.324 116.412)" fill="#fff"/>
              <rect id="Rectángulo_64461" data-name="Rectángulo 64461" width="65.369" height="5.989" transform="translate(33.324 169.42)" fill="#fff"/>
              <g id="Grupo_183845" data-name="Grupo 183845" transform="translate(93.74 8.768)" opacity="0.63">
                <g id="Grupo_183844" data-name="Grupo 183844">
                  <g id="Grupo_183843" data-name="Grupo 183843" clip-path="url(#clip-path-8)">
                    <path id="Trazado_236175" data-name="Trazado 236175" d="M162.053,241.407H72.024a8.792,8.792,0,0,1-8.788-8.791V14.706a8.79,8.79,0,0,1,8.788-8.789h90.03a8.791,8.791,0,0,1,8.788,8.791V232.617a8.791,8.791,0,0,1-8.788,8.789" transform="translate(-63.236 -5.915)" fill="#1060f5"/>
                  </g>
                </g>
              </g>
              <path id="Trazado_236176" data-name="Trazado 236176" d="M162.053,241.407H72.024a8.792,8.792,0,0,1-8.788-8.791V14.706a8.79,8.79,0,0,1,8.788-8.789h90.03a8.791,8.791,0,0,1,8.788,8.791V232.617a8.791,8.791,0,0,1-8.788,8.789" transform="translate(30.504 2.853)" fill="#fff"/>
              <path id="Trazado_236177" data-name="Trazado 236177" d="M162.053,172.855H72.024a8.792,8.792,0,0,1-8.788-8.791V148.024h107.6v16.042a8.791,8.791,0,0,1-8.788,8.789" transform="translate(30.504 71.404)" fill="#e8f2f9"/>
              <path id="Trazado_236178" data-name="Trazado 236178" d="M163.456,167.73H70.844a7.609,7.609,0,0,1-7.609-7.609v-1.472h107.6v1.7a7.384,7.384,0,0,1-7.384,7.384" transform="translate(30.504 76.53)" fill="#dae9ef"/>
              <path id="Trazado_236179" data-name="Trazado 236179" d="M174.085,7.493a12.03,12.03,0,0,0-9.65-4.833H72.409A12.052,12.052,0,0,0,60.357,14.727v220.4a12.052,12.052,0,0,0,12.052,12.052h92.026A12.065,12.065,0,0,0,176.5,235.127V14.727a11.928,11.928,0,0,0-2.416-7.234m-1.857,226.7a8.8,8.8,0,0,1-8.8,8.8l-90.016-.006a8.779,8.779,0,0,1-8.788-8.791V16.276a8.776,8.776,0,0,1,8.788-8.788l90.016,0a8.784,8.784,0,0,1,8.8,8.783Z" transform="translate(29.115 1.283)" fill="#636363"/>
              <path id="Trazado_236180" data-name="Trazado 236180" d="M149.257,114.289l-2.855,2.47-2.634,4.735a12.416,12.416,0,0,0,4.21,3.823,10.028,10.028,0,0,0,5.264.78l.752-5.16Z" transform="translate(69.351 55.131)" fill="#feb3a2"/>
              <path id="Trazado_236181" data-name="Trazado 236181" d="M150.77,114.628s-1.917-4.1-3.727-2.018,4.01,14.261,7.986,14.043,7.741-7.292,8.764-10.535,2.265-6.816-1.273-9.1c-7.252-4.674-11.749,7.606-11.749,7.606" transform="translate(70.767 51.114)" fill="#feb3a2"/>
              <path id="Trazado_236182" data-name="Trazado 236182" d="M146.49,123.81l3.051-2.455s-1.967-5.329.047-5.841,2.882,2.163,2.882,2.163,2.61-6.01,8.186-4.815c5.67,1.216,5.332,3.7,5.332,3.7s10.818.919,4.839-10.522c-2.246-4.294-3.694-.012-5.142-.946s1.932-4.223-2.905-5.308c-4.591-1.03-5.516,3.7-7.815,3.951s-2.685-.919-4.065-.589c-2.9.694-4.342.878-6.975,6.494s2.566,14.167,2.566,14.167" transform="translate(69.068 48.065)" fill="#0b0c2a"/>
              <path id="Trazado_236183" data-name="Trazado 236183" d="M132.966,164.2c3.787,8.119,13.834,8.035,19.095,6.72s37.131-14.378,37.131-14.378,12.774,2.419,19.041,3.172,2.452,2.3,4.533,4.32,3.89-.385,6.167.554,1.457,2.649,3.334,3.334,6.745-.906,6.745-.906l15.111-14.044s-35.313-17.033-40.047-17.569c-6.846-.775-61.12,16.953-61.12,16.953s-14.166,2.889-9.99,11.844" transform="translate(63.769 65.305)" fill="#8d8989"/>
              <path id="Trazado_236184" data-name="Trazado 236184" d="M129.527,167.507c1.665,7.646,15.217,6.185,20.478,4.87S187.136,158,187.136,158s12.772,2.422,19.041,3.174,2.452,2.3,4.533,4.318,3.888-.384,6.167.556,1.456,2.649,3.332,3.334,6.746-.906,6.746-.906l11.895-8.325s-41.393-19.873-48.8-20.482-51.482,12.216-51.482,12.216-10.706,7.977-9.041,15.623" transform="translate(62.397 67.363)" fill="#afafaf"/>
              <path id="Trazado_236185" data-name="Trazado 236185" d="M125.431,148.971c-.8-.528-1.479,6.411.277,10.329s6.62,5.675,6.62,5.675a13.249,13.249,0,0,1,1.216-7.16c1.757-3.378,3.873-7.861,3.873-7.861s-11.182-.455-11.987-.983" transform="translate(60.107 71.848)" fill="#0b67d1"/>
              <path id="Trazado_236186" data-name="Trazado 236186" d="M195.865,160.531l7.947,2.775,5.5-5.279-5.08-3.355Z" transform="translate(94.482 74.612)" fill="#feb3a2"/>
              <path id="Trazado_236187" data-name="Trazado 236187" d="M200.9,165s2.36,1.98,4.687,3.627,3.337,2.112,5.62.775,2.658-4.566,3.647-5.924,5.267-6.783,5.267-6.783.849-3.716-.07-4.251c-1.528-.891-4.011,2.187-5.95,3.833s-8.036,2.41-8.036,2.41Z" transform="translate(96.91 73.462)" fill="#0f1d92"/>
              <path id="Trazado_236188" data-name="Trazado 236188" d="M154.753,152.958l33.864-9.756,6.061-21.763a1.147,1.147,0,0,0-1.37-1.423L182,122.689a2.2,2.2,0,0,0-1.6,1.506l-6.373,20.992-17.924,5.55Z" transform="translate(74.65 57.879)" fill="#11145b"/>
              <path id="Trazado_236189" data-name="Trazado 236189" d="M218.755,161.288a.368.368,0,0,1-.162-.037c-.384-.187-38.333-18.748-42.455-20.632-3.968-1.814-6.048-1.294-6.07-1.291a.365.365,0,0,1-.452-.261.37.37,0,0,1,.255-.455c.095-.027,2.332-.608,6.576,1.333,4.131,1.889,42.089,20.452,42.47,20.639a.371.371,0,0,1-.162.7" transform="translate(81.813 66.815)" fill="#09030f"/>
              <path id="Trazado_236190" data-name="Trazado 236190" d="M161.809,156.074a.371.371,0,0,1-.105-.726,47.335,47.335,0,0,0,6.552-2.425,9.311,9.311,0,0,0,2.578-3.091c.689-1.1,1.187-1.893,1.755-2.034a.552.552,0,0,1,.563.141c.344.354.163,1.063-.215,2.388a13.671,13.671,0,0,0-.363,1.475c.113-.138.239-.311.337-.448.462-.636.937-1.3,1.518-1.124.827.246.866,2.015.838,2.819.336.093.962.242,2.124.457a25.781,25.781,0,0,0,5.762.565.355.355,0,0,1,.4.344.368.368,0,0,1-.342.394,25.737,25.737,0,0,1-5.952-.574c-2.908-.54-3.014-.715-2.988-1.1a.407.407,0,0,1,.264-.354,3.541,3.541,0,0,0-.32-1.85,5.092,5.092,0,0,0-.7.852c-.394.546-.71.981-1.11.977a.559.559,0,0,1-.455-.259c-.268-.4-.079-1.125.28-2.382a12.594,12.594,0,0,0,.362-1.488,9.934,9.934,0,0,0-1.124,1.591,9.754,9.754,0,0,1-2.848,3.344,47.061,47.061,0,0,1-6.7,2.489.376.376,0,0,1-.105.015" transform="translate(77.875 71.284)" fill="#09030f"/>
              <path id="Trazado_236191" data-name="Trazado 236191" d="M109.025,44.582H95.153l1.087-28.294h11.531Z" transform="translate(45.9 7.857)" fill="#8c5be1"/>
              <path id="Trazado_236192" data-name="Trazado 236192" d="M103.214,47.356h-2.252a5.809,5.809,0,0,1-5.809-5.809V35.375h13.871v6.171a5.81,5.81,0,0,1-5.809,5.809" transform="translate(45.9 17.064)" fill="#592ca6"/>
              <path id="Trazado_236193" data-name="Trazado 236193" d="M99.667,44.582H85.8L89.11,16.288h11.643Z" transform="translate(41.386 7.857)" fill="#fff"/>
              <path id="Trazado_236194" data-name="Trazado 236194" d="M93.857,47.356H91.605A5.809,5.809,0,0,1,85.8,41.546V35.375H99.667v6.171a5.809,5.809,0,0,1-5.809,5.809" transform="translate(41.387 17.064)" fill="#e0ecee"/>
              <path id="Trazado_236195" data-name="Trazado 236195" d="M90.259,44.582H76.387L82.21,16.288H93.479Z" transform="translate(36.848 7.857)" fill="#8c5be1"/>
              <path id="Trazado_236196" data-name="Trazado 236196" d="M84.449,47.356H82.2a5.809,5.809,0,0,1-5.809-5.809V35.375H90.259v6.171a5.809,5.809,0,0,1-5.809,5.809" transform="translate(36.848 17.064)" fill="#592ca6"/>
              <path id="Trazado_236197" data-name="Trazado 236197" d="M80.889,44.582H67.017l7.788-28.294H86.729Z" transform="translate(32.328 7.857)" fill="#fff"/>
              <path id="Trazado_236198" data-name="Trazado 236198" d="M75.078,47.356H72.826a5.809,5.809,0,0,1-5.809-5.809V35.375H80.888v6.171a5.809,5.809,0,0,1-5.809,5.809" transform="translate(32.328 17.064)" fill="#e0ecee"/>
              <path id="Trazado_236199" data-name="Trazado 236199" d="M71.55,44.582H57.678l9.95-28.294H79.31Z" transform="translate(27.823 7.857)" fill="#8c5be1"/>
              <path id="Trazado_236200" data-name="Trazado 236200" d="M65.74,47.356H63.488a5.809,5.809,0,0,1-5.809-5.809V35.375H71.55v6.171a5.809,5.809,0,0,1-5.809,5.809" transform="translate(27.823 17.064)" fill="#592ca6"/>
              <path id="Trazado_236201" data-name="Trazado 236201" d="M104.908,44.582H118.78l-3.315-28.294H103.823Z" transform="translate(50.083 7.857)" fill="#fff"/>
              <path id="Trazado_236202" data-name="Trazado 236202" d="M110.364,47.356h2.252a5.809,5.809,0,0,0,5.809-5.809V35.375H104.555v6.171a5.81,5.81,0,0,0,5.809,5.809" transform="translate(50.436 17.064)" fill="#e0ecee"/>
              <path id="Trazado_236203" data-name="Trazado 236203" d="M115.011,44.582h13.872L123.06,16.288H111.791Z" transform="translate(53.926 7.857)" fill="#8c5be1"/>
              <path id="Trazado_236204" data-name="Trazado 236204" d="M119.772,47.356h2.252a5.809,5.809,0,0,0,5.809-5.809V35.375H113.963v6.171a5.809,5.809,0,0,0,5.809,5.809" transform="translate(54.974 17.064)" fill="#592ca6"/>
              <path id="Trazado_236205" data-name="Trazado 236205" d="M125.234,44.582h13.872l-7.788-28.294H119.393Z" transform="translate(57.593 7.857)" fill="#fff"/>
              <path id="Trazado_236206" data-name="Trazado 236206" d="M129.143,47.356H131.4a5.809,5.809,0,0,0,5.809-5.809V35.375H123.334v6.171a5.81,5.81,0,0,0,5.809,5.809" transform="translate(59.494 17.064)" fill="#e0ecee"/>
              <path id="Trazado_236207" data-name="Trazado 236207" d="M135.2,44.582h13.872l-9.95-28.294H127.438Z" transform="translate(61.474 7.857)" fill="#8c5be1"/>
              <path id="Trazado_236208" data-name="Trazado 236208" d="M138.481,47.356h2.252a5.809,5.809,0,0,0,5.809-5.809V35.375H132.672v6.171a5.81,5.81,0,0,0,5.809,5.809" transform="translate(63.999 17.064)" fill="#592ca6"/>
              <rect id="Rectángulo_64463" data-name="Rectángulo 64463" width="36.542" height="7.213" transform="translate(151.105 81.69)" fill="#e8f2f9"/>
              <rect id="Rectángulo_64464" data-name="Rectángulo 64464" width="7.548" height="7.548" transform="translate(179.735 97.053)" fill="#e8f2f9"/>
              <rect id="Rectángulo_64465" data-name="Rectángulo 64465" width="36.542" height="7.213" transform="translate(151.105 153.255)" fill="#e8f2f9"/>
              <path id="Trazado_236209" data-name="Trazado 236209" d="M118.373,147.6H91.65v-5.445h26.723ZM91.86,147.39h26.3v-5.022H91.86Z" transform="translate(44.211 68.574)" fill="#6a8ec8"/>
              <rect id="Rectángulo_64466" data-name="Rectángulo 64466" width="7.548" height="7.548" transform="translate(179.735 168.618)" fill="#e8f2f9"/>
              <rect id="Rectángulo_64467" data-name="Rectángulo 64467" width="38.726" height="0.212" transform="translate(130.65 206.071)" fill="#6a8ec8"/>
              <rect id="Rectángulo_64468" data-name="Rectángulo 64468" width="88.267" height="2.428" transform="translate(102.747 194.398)" fill="#b0daf9"/>
              <rect id="Rectángulo_64469" data-name="Rectángulo 64469" width="88.27" height="2.428" transform="translate(102.949 117.756)" fill="#b0daf9"/>
              <rect id="Rectángulo_64470" data-name="Rectángulo 64470" width="88.267" height="2.428" transform="translate(102.95 122.513)" fill="#b0daf9"/>
              <path id="Trazado_236210" data-name="Trazado 236210" d="M69.365,86.207l26.619-.043v2.43l-26.619.042Z" transform="translate(33.46 41.564)" fill="#b0daf9"/>
              <rect id="Rectángulo_64471" data-name="Rectángulo 64471" width="88.27" height="2.428" transform="translate(102.746 189.643)" fill="#b0daf9"/>
              <path id="Trazado_236211" data-name="Trazado 236211" d="M69.227,134.7l26.619-.043v2.43l-26.619.042Z" transform="translate(33.394 64.956)" fill="#b0daf9"/>
              <path id="Trazado_236212" data-name="Trazado 236212" d="M121.183,55.721v0Z" transform="translate(58.457 26.879)" fill="#fff"/>
              <path id="Trazado_236213" data-name="Trazado 236213" d="M121.3,61.607a.371.371,0,0,1-.371-.371v-5.4a.371.371,0,1,1,.741,0v5.4a.371.371,0,0,1-.371.371" transform="translate(58.336 26.758)" fill="#0041ef"/>
              <path id="Trazado_236214" data-name="Trazado 236214" d="M122.943,56.772l3.258-.01-1.509,2.31Z" transform="translate(59.306 27.381)" fill="#fff"/>
              <path id="Trazado_236215" data-name="Trazado 236215" d="M124.819,59.562a.379.379,0,0,1-.3-.147l-1.748-2.3a.366.366,0,0,1-.039-.387.372.372,0,0,1,.332-.208l3.258-.01a.37.37,0,0,1,.31.574l-1.508,2.308a.377.377,0,0,1-.3.169m-1.01-2.3.98,1.288.845-1.294Z" transform="translate(59.185 27.26)" fill="#0041ef"/>
              <path id="Trazado_236216" data-name="Trazado 236216" d="M122.768,67.875a1.939,1.939,0,0,1,.384-1.336,1.478,1.478,0,0,1,1.093-.491,1.389,1.389,0,0,1,1.082.368,1.983,1.983,0,0,1,.479,1.352l-.42-.016a1.594,1.594,0,0,0-.356-1.039.961.961,0,0,0-.762-.245,1.077,1.077,0,0,0-.8.344,1.534,1.534,0,0,0-.288,1.02Z" transform="translate(59.218 31.86)" fill="#2356f1"/>
              <path id="Trazado_236217" data-name="Trazado 236217" d="M122.474,71.041a.563.563,0,0,1-.565-.56l.451-2.771a.551.551,0,0,1,.559-.526h3.762a.562.562,0,0,1,.562.56l.42,2.652a.566.566,0,0,1-.557.593Zm.445-3.438a.142.142,0,0,0-.142.141l-.449,2.769a.145.145,0,0,0,.144.108l4.631-.052a.142.142,0,0,0,.144-.141l-.42-2.652c0-.11-.067-.173-.145-.173Z" transform="translate(58.807 32.408)" fill="#2356f1"/>
              <rect id="Rectángulo_64472" data-name="Rectángulo 64472" width="39.437" height="44.815" transform="translate(102.062 67.601)" fill="#e8f2f9"/>
              <path id="Trazado_236218" data-name="Trazado 236218" d="M83.089,52.058l1.555-1.65a4.931,4.931,0,0,0,2.547.707,15.872,15.872,0,0,0,2.227-.424l1.093,1.54s3.328.337,5.006,1.678,7.691,17.285,7.691,17.285l-.679,1.773.955,2.413-1.751,1.352L100.141,74.4l-2.016-.663-4.733-11,1.564,15.088H79.644l.335-15.088L76.633,72.917,74.8,74.055,73.7,76.29l-2.315-.679.5-2.235-.918-2.034s3.875-14.3,5.328-15.867,6.8-3.417,6.8-3.417" transform="translate(34.231 24.316)" fill="#ffd875"/>
              <path id="Trazado_236219" data-name="Trazado 236219" d="M89.915,74.081a3.837,3.837,0,1,1,3.838,3.826,3.831,3.831,0,0,1-3.838-3.826" transform="translate(43.374 33.89)" fill="#c4e7ff"/>
              <path id="Trazado_236220" data-name="Trazado 236220" d="M93.339,76.161a.213.213,0,0,1-.122-.037c-.1-.073-2.486-1.773-2.459-3.285a1.477,1.477,0,0,1,.756-1.233,1.177,1.177,0,0,1,.944-.19,1.754,1.754,0,0,1,.9.629,1.827,1.827,0,0,1,.938-.636,1.2,1.2,0,0,1,.949.2,1.393,1.393,0,0,1,.691,1.152c.034,1.5-2.367,3.288-2.47,3.364a.2.2,0,0,1-.125.04M92.2,71.805a.824.824,0,0,0-.454.151,1.069,1.069,0,0,0-.566.889c-.019,1.115,1.683,2.482,2.16,2.843.713-.554,2.2-1.92,2.175-2.925a.975.975,0,0,0-.5-.808.781.781,0,0,0-.623-.139,1.658,1.658,0,0,0-.854.7.215.215,0,0,1-.182.1.21.21,0,0,1-.181-.105,1.588,1.588,0,0,0-.811-.685.66.66,0,0,0-.162-.019" transform="translate(43.78 34.433)" fill="#0041ef"/>
              <path id="Trazado_236221" data-name="Trazado 236221" d="M182.336,50.806a13.187,13.187,0,1,1,13.186,13.15,13.168,13.168,0,0,1-13.186-13.15" transform="translate(87.956 18.165)" fill="#fff"/>
              <path id="Trazado_236222" data-name="Trazado 236222" d="M195.642,64.446A13.52,13.52,0,1,1,209.2,50.927a13.554,13.554,0,0,1-13.556,13.519m0-26.3a12.779,12.779,0,1,0,12.815,12.78,12.812,12.812,0,0,0-12.815-12.78" transform="translate(87.835 18.044)" fill="#0041ef"/>
              <path id="Trazado_236223" data-name="Trazado 236223" d="M194.038,57.693a.518.518,0,0,1-.3-.1c-.345-.243-8.457-6.03-8.368-11.121a4.892,4.892,0,0,1,2.508-4.077,3.825,3.825,0,0,1,3.089-.621,5.988,5.988,0,0,1,3.131,2.284,6.217,6.217,0,0,1,3.27-2.313,3.917,3.917,0,0,1,3.106.651,4.579,4.579,0,0,1,2.283,3.793c.119,5.062-8.055,11.142-8.405,11.4a.52.52,0,0,1-.311.1m-3.924-14.968a3.007,3.007,0,0,0-1.662.55,3.859,3.859,0,0,0-2.035,3.217c-.068,4.023,6.143,8.917,7.616,10.019,1.473-1.147,7.766-6.284,7.67-10.3a3.541,3.541,0,0,0-1.813-2.943,2.858,2.858,0,0,0-2.295-.5,5.87,5.87,0,0,0-3.058,2.482.524.524,0,0,1-.9-.009,5.654,5.654,0,0,0-2.916-2.447,2.642,2.642,0,0,0-.6-.073" transform="translate(89.418 20.095)" fill="#2356f1"/>
              <path id="Trazado_236224" data-name="Trazado 236224" d="M120.516,73.117H105.362a3.427,3.427,0,0,1-3.429-3.427V68.7a3.429,3.429,0,0,1,3.429-3.429h15.154a3.429,3.429,0,0,1,3.429,3.429v.993a3.427,3.427,0,0,1-3.429,3.427" transform="translate(49.171 31.484)" fill="#2356f1"/>
              <path id="Trazado_236225" data-name="Trazado 236225" d="M121.183,104v0Z" transform="translate(58.457 50.167)" fill="#fff"/>
              <path id="Trazado_236226" data-name="Trazado 236226" d="M121.3,109.883a.371.371,0,0,1-.371-.371v-5.394a.371.371,0,0,1,.741,0v5.394a.371.371,0,0,1-.371.371" transform="translate(58.336 50.046)" fill="#0041ef"/>
              <path id="Trazado_236227" data-name="Trazado 236227" d="M122.943,105.048l3.258-.01-1.509,2.31Z" transform="translate(59.306 50.669)" fill="#fff"/>
              <path id="Trazado_236228" data-name="Trazado 236228" d="M124.819,107.839a.379.379,0,0,1-.3-.147l-1.748-2.3a.366.366,0,0,1-.039-.387.372.372,0,0,1,.332-.208l3.258-.01a.37.37,0,0,1,.31.574l-1.508,2.308a.377.377,0,0,1-.3.169m-1.01-2.3.98,1.288.845-1.294Z" transform="translate(59.185 50.548)" fill="#0041ef"/>
              <path id="Trazado_236229" data-name="Trazado 236229" d="M122.768,116.151a1.938,1.938,0,0,1,.384-1.336,1.473,1.473,0,0,1,1.093-.491,1.366,1.366,0,0,1,1.082.368,1.981,1.981,0,0,1,.479,1.352l-.42-.016a1.594,1.594,0,0,0-.356-1.039.966.966,0,0,0-.762-.245,1.072,1.072,0,0,0-.8.344,1.534,1.534,0,0,0-.288,1.02Z" transform="translate(59.218 55.147)" fill="#2356f1"/>
              <path id="Trazado_236230" data-name="Trazado 236230" d="M122.474,119.318a.563.563,0,0,1-.565-.562l.451-2.769a.551.551,0,0,1,.559-.526h3.762a.562.562,0,0,1,.562.56l.42,2.652a.566.566,0,0,1-.557.594Zm.445-3.438a.142.142,0,0,0-.142.141l-.449,2.769a.145.145,0,0,0,.144.108l4.631-.05a.143.143,0,0,0,.144-.142l-.42-2.652c0-.11-.067-.173-.145-.173Z" transform="translate(58.807 55.697)" fill="#2356f1"/>
              <rect id="Rectángulo_64473" data-name="Rectángulo 64473" width="39.437" height="44.815" transform="translate(102.062 139.165)" fill="#e8f2f9"/>
              <path id="Trazado_236231" data-name="Trazado 236231" d="M89.915,122.357a3.837,3.837,0,1,1,3.838,3.826,3.831,3.831,0,0,1-3.838-3.826" transform="translate(43.374 57.177)" fill="#c4e7ff"/>
              <path id="Trazado_236232" data-name="Trazado 236232" d="M93.339,124.438a.21.21,0,0,1-.12-.039c-.1-.073-2.486-1.773-2.461-3.285a1.475,1.475,0,0,1,.757-1.233,1.154,1.154,0,0,1,.943-.188,1.758,1.758,0,0,1,.9.629,1.822,1.822,0,0,1,.938-.637,1.208,1.208,0,0,1,.949.2,1.388,1.388,0,0,1,.689,1.152c.036,1.5-2.367,3.288-2.47,3.364a.2.2,0,0,1-.125.042M92.2,120.083a.813.813,0,0,0-.452.15,1.069,1.069,0,0,0-.566.889c-.019,1.115,1.683,2.482,2.16,2.843.713-.554,2.2-1.92,2.175-2.925a.977.977,0,0,0-.5-.808.785.785,0,0,0-.623-.138,1.609,1.609,0,0,0-.854.7c-.039.064-.111.079-.182.1a.208.208,0,0,1-.179-.105,1.594,1.594,0,0,0-.812-.685.66.66,0,0,0-.162-.019" transform="translate(43.78 57.72)" fill="#0041ef"/>
              <path id="Trazado_236233" data-name="Trazado 236233" d="M120.516,121.394H105.362a3.429,3.429,0,0,1-3.429-3.429v-.993a3.428,3.428,0,0,1,3.429-3.427h15.154a3.428,3.428,0,0,1,3.429,3.427v.993a3.429,3.429,0,0,1-3.429,3.429" transform="translate(49.171 54.772)" fill="#2356f1"/>
              <path id="Trazado_236234" data-name="Trazado 236234" d="M78.757,97.111H90.963l1.834,7.21,3.014,25-5.554.531-5.122-20.991-3.153,20.991-6.011-.989,1.309-24.115Z" transform="translate(36.647 46.845)" fill="#43a99b"/>
              <rect id="Rectángulo_64474" data-name="Rectángulo 64474" width="12.209" height="1.273" transform="translate(115.401 142.682)" fill="#43a99b"/>
              <path id="Trazado_236235" data-name="Trazado 236235" d="M133.021,56.4h44.692c1.005,0,1.822,1.521,1.822,3.395V101.73c0,1.874-.817,3.395-1.822,3.395H133.021c-1.007,0-1.822-1.521-1.822-3.395V59.8c0-1.874.815-3.395,1.822-3.395" transform="translate(63.288 27.207)" fill="#fff"/>
              <path id="Trazado_236236" data-name="Trazado 236236" d="M177.834,105.615H133.141c-1.23,0-2.192-1.653-2.192-3.764V59.916c0-2.111.962-3.764,2.192-3.764h44.692c1.23,0,2.192,1.653,2.192,3.764v41.935c0,2.111-.962,3.764-2.192,3.764M133.141,56.893c-.686,0-1.451,1.242-1.451,3.023v41.935c0,1.78.765,3.023,1.451,3.023h44.692c.686,0,1.451-1.242,1.451-3.023V59.916c0-1.78-.765-3.023-1.451-3.023Z" transform="translate(63.168 27.087)" fill="#0041ef"/>
              <path id="Trazado_236237" data-name="Trazado 236237" d="M187.728,65.161h31.185c.7,0,1.272,1.061,1.272,2.369V96.791c0,1.306-.571,2.367-1.272,2.367H187.728c-.7,0-1.272-1.061-1.272-2.367V67.53c0-1.307.569-2.369,1.272-2.369" transform="translate(89.943 31.433)" fill="#fff"/>
              <path id="Trazado_236238" data-name="Trazado 236238" d="M219.033,99.651H187.848c-.921,0-1.641-1.2-1.641-2.739V67.65c0-1.537.72-2.739,1.641-2.739h31.185c.921,0,1.642,1.2,1.642,2.739V96.911c0,1.536-.722,2.739-1.642,2.739m-31.185-34c-.425,0-.9.854-.9,2V96.911c0,1.143.474,2,.9,2h31.185c.425,0,.9-.855.9-2V67.65c0-1.144-.476-2-.9-2Z" transform="translate(89.823 31.312)" fill="#0041ef"/>
              <path id="Trazado_236239" data-name="Trazado 236239" d="M173.87,95.56h25.2c.568,0,1.027.858,1.027,1.914v23.648c0,1.057-.46,1.914-1.027,1.914h-25.2c-.568,0-1.027-.857-1.027-1.914V97.474c0-1.055.46-1.914,1.027-1.914" transform="translate(83.377 46.097)" fill="#fff"/>
              <path id="Trazado_236240" data-name="Trazado 236240" d="M199.2,123.529h-25.2c-.8,0-1.4-.983-1.4-2.286V97.6c0-1.3.6-2.286,1.4-2.286h25.2c.8,0,1.4.983,1.4,2.286v23.647c0,1.3-.6,2.286-1.4,2.286m-25.2-27.477c-.268,0-.655.6-.655,1.545v23.647c0,.943.387,1.545.655,1.545h25.2c.268,0,.655-.6.655-1.545V97.6c0-.943-.387-1.545-.655-1.545Z" transform="translate(83.257 45.976)" fill="#0041ef"/>
              <path id="Trazado_236241" data-name="Trazado 236241" d="M52.262,131.315H75.612c.525,0,.952.795.952,1.773V155c0,.98-.427,1.774-.952,1.774H52.262c-.526,0-.952-.795-.952-1.774v-21.91c0-.978.425-1.773.952-1.773" transform="translate(24.751 63.344)" fill="#fff"/>
              <path id="Trazado_236242" data-name="Trazado 236242" d="M75.733,157.263H52.382c-.755,0-1.322-.922-1.322-2.144V133.209c0-1.221.568-2.144,1.322-2.144H75.733c.755,0,1.322.922,1.322,2.144V155.12c0,1.221-.568,2.144-1.322,2.144M52.382,131.806c-.231,0-.581.559-.581,1.4V155.12c0,.843.35,1.4.581,1.4H75.733c.231,0,.581-.559.581-1.4V133.209c0-.843-.35-1.4-.581-1.4Z" transform="translate(24.631 63.224)" fill="#0041ef"/>
              <path id="Trazado_236243" data-name="Trazado 236243" d="M162.834,69.606l-24.281-.1a.526.526,0,0,1,0-1.051l24.281.1a.526.526,0,1,1,0,1.051" transform="translate(66.583 33.023)" fill="#0041ef"/>
              <path id="Trazado_236244" data-name="Trazado 236244" d="M154.921,89.25a.387.387,0,0,1-.117-.019H143.415a.526.526,0,0,1,0-1.051H154.8c.1-.077.329-.261.784-.673.547-2.058,5.643-21.226,5.876-21.97a1.735,1.735,0,0,1,1.774-1.088l5.381-.24c.292-.071.537.212.547.5a.521.521,0,0,1-.5.547l-5.43.24c-.055,0-.657-.013-.771.353-.187.6-3.943,14.7-5.9,22.077a.506.506,0,0,1-.154.253c-.781.713-1.176,1.07-1.482,1.07" transform="translate(68.928 30.967)" fill="#0041ef"/>
              <path id="Trazado_236245" data-name="Trazado 236245" d="M158.866,82.693l-16.4-.095a.523.523,0,0,1-.5-.374L138.056,69.2a.526.526,0,0,1,1.008-.3l3.8,12.652,16.008.092a.526.526,0,0,1,0,1.051" transform="translate(66.585 33.055)" fill="#0041ef"/>
              <path id="Trazado_236246" data-name="Trazado 236246" d="M144.382,82.579a.526.526,0,0,1-.51-.4l-3.3-13a.525.525,0,1,1,1.018-.258l3.3,13.006a.527.527,0,0,1-.381.637.56.56,0,0,1-.129.016" transform="translate(67.802 33.055)" fill="#0041ef"/>
              <path id="Trazado_236247" data-name="Trazado 236247" d="M150.417,82.443a.494.494,0,0,1-.092-.009.525.525,0,0,1-.425-.609l2.258-12.585a.525.525,0,1,1,1.033.185L150.934,82.01a.525.525,0,0,1-.517.433" transform="translate(72.305 33.191)" fill="#0041ef"/>
              <path id="Trazado_236248" data-name="Trazado 236248" d="M148.151,82.336a.529.529,0,0,1-.52-.537l.286-12.657a.51.51,0,0,1,.537-.514.527.527,0,0,1,.514.537l-.286,12.657a.528.528,0,0,1-.531.514" transform="translate(71.215 33.104)" fill="#0041ef"/>
              <path id="Trazado_236249" data-name="Trazado 236249" d="M145.928,82.584a.526.526,0,0,1-.522-.461l-1.619-12.906a.523.523,0,0,1,.455-.586.53.53,0,0,1,.587.457l1.62,12.906a.525.525,0,0,1-.457.586.483.483,0,0,1-.065,0" transform="translate(69.359 33.105)" fill="#0041ef"/>
              <path id="Trazado_236250" data-name="Trazado 236250" d="M161.243,72.445l-21.865-.138a.526.526,0,0,1,0-1.051l21.865.138a.526.526,0,0,1,0,1.051" transform="translate(66.981 34.373)" fill="#0041ef"/>
              <path id="Trazado_236251" data-name="Trazado 236251" d="M159.42,75.578l-18.991-.172a.525.525,0,0,1-.522-.531c0-.292.243-.46.529-.52l18.988.172a.526.526,0,0,1,0,1.051" transform="translate(67.489 35.868)" fill="#0041ef"/>
              <path id="Trazado_236252" data-name="Trazado 236252" d="M145.506,84.6a1.923,1.923,0,1,1,1.923-1.923,1.925,1.925,0,0,1-1.923,1.923m0-2.794a.872.872,0,1,0,.872.872.873.873,0,0,0-.872-.872" transform="translate(69.262 38.956)" fill="#0041ef"/>
              <path id="Trazado_236253" data-name="Trazado 236253" d="M150.175,84.6A1.923,1.923,0,1,1,152.1,82.68a1.925,1.925,0,0,1-1.921,1.923m0-2.794a.872.872,0,1,0,.87.872.873.873,0,0,0-.87-.872" transform="translate(71.514 38.956)" fill="#0041ef"/>
              <path id="Trazado_236254" data-name="Trazado 236254" d="M161.5,66.6a1.548,1.548,0,1,1,1.548-1.548A1.551,1.551,0,0,1,161.5,66.6m0-2.046a.5.5,0,1,0,.5.5.5.5,0,0,0-.5-.5" transform="translate(77.159 30.633)" fill="#0041ef"/>
              <rect id="Rectángulo_64475" data-name="Rectángulo 64475" width="16.585" height="16.585" transform="translate(285.842 108.081)" fill="#def2f4"/>
              <rect id="Rectángulo_64476" data-name="Rectángulo 64476" width="2.668" height="16.585" transform="translate(292.514 108.081)" fill="#1060f5"/>
              <path id="Trazado_236255" data-name="Trazado 236255" d="M197.761,74.948A4.675,4.675,0,0,1,194.38,73.9a2.816,2.816,0,0,1-.452-2.876c.323-1.124.878-1.746,1.645-1.85,2.086-.268,4.742,3.878,5.251,4.714l.368.6-.691.156a13.428,13.428,0,0,1-2.739.305M195.8,70.172a.573.573,0,0,0-.089.006c-.414.056-.666.642-.8,1.124a1.868,1.868,0,0,0,.214,1.9c.855.906,3.077.792,4.435.587-1.125-1.687-2.793-3.613-3.756-3.613" transform="translate(93.459 33.361)" fill="#2356f1"/>
              <path id="Trazado_236256" data-name="Trazado 236256" d="M200.861,74.949a13.4,13.4,0,0,1-2.739-.307l-.689-.156.368-.6c.508-.836,3.178-4.981,5.249-4.713.769.1,1.322.725,1.647,1.849a2.818,2.818,0,0,1-.452,2.876,4.677,4.677,0,0,1-3.383,1.054m-1.792-1.165c1.359.2,3.584.317,4.435-.587a1.869,1.869,0,0,0,.215-1.894c-.139-.483-.391-1.069-.8-1.125-.95-.13-2.685,1.868-3.845,3.607" transform="translate(95.238 33.361)" fill="#2356f1"/>
              <path id="Trazado_236257" data-name="Trazado 236257" d="M19.452,145.409A11.668,11.668,0,1,1,31.12,157.077a11.668,11.668,0,0,1-11.668-11.668" transform="translate(9.383 64.515)" fill="#fff"/>
              <path id="Trazado_236258" data-name="Trazado 236258" d="M31.24,157.568a12.038,12.038,0,1,1,12.04-12.038,12.052,12.052,0,0,1-12.04,12.038m0-23.336a11.3,11.3,0,1,0,11.3,11.3,11.31,11.31,0,0,0-11.3-11.3" transform="translate(9.263 64.394)" fill="#0041ef"/>
              <path id="Trazado_236259" data-name="Trazado 236259" d="M35.594,142.964h-5.2v-5.28a.842.842,0,0,0-1.684,0v5.28H23.554a.842.842,0,1,0,0,1.684h5.151v5.34a.842.842,0,0,0,1.684,0v-5.34h5.2a.842.842,0,0,0,0-1.684" transform="translate(10.956 66.01)" fill="#2356f1"/>
              <path id="Trazado_236260" data-name="Trazado 236260" d="M188.173,114.3H176.36v-8.82l4.308-.133,2.65-3.516-.037-2.413a1.345,1.345,0,0,1,2.025-1.183l.261.153a2.761,2.761,0,0,1,1.37,2.32l.08,3.112h4.237a1.939,1.939,0,0,1,1.878,2.413l-2.283,6.2a2.861,2.861,0,0,1-2.676,1.869m-10.762-1.051h10.762a1.809,1.809,0,0,0,1.691-1.181l2.267-6.146a.893.893,0,0,0-.878-1.052h-5.261l-.107-4.136a1.712,1.712,0,0,0-.849-1.441l-.261-.153a.288.288,0,0,0-.3,0,.292.292,0,0,0-.145.259l.043,2.775-3.171,4.206-3.793.119Z" transform="translate(85.073 47.297)" fill="#2356f1"/>
              <path id="Trazado_236261" data-name="Trazado 236261" d="M62.766,133.666l2.79,5.652,6.238.907-4.514,4.4,1.066,6.214-5.58-2.934-5.58,2.934,1.066-6.214-4.514-4.4,6.238-.907Z" transform="translate(25.922 64.478)" fill="#ffd976"/>
              <g id="Grupo_183850" data-name="Grupo 183850" transform="translate(259.743 190.188)" opacity="0.42">
                <g id="Grupo_183849" data-name="Grupo 183849">
                  <g id="Grupo_183848" data-name="Grupo 183848" clip-path="url(#clip-path-9)">
                    <g id="Grupo_183847" data-name="Grupo 183847" transform="translate(0 0)">
                      <g id="Grupo_183846" data-name="Grupo 183846" clip-path="url(#clip-path-10)">
                        <rect id="Rectángulo_64477" data-name="Rectángulo 64477" width="3.185" height="2.639" transform="matrix(0.254, -0.967, 0.967, 0.254, -0.799, 2.489)" fill="url(#linear-gradient-4)"/>
                      </g>
                    </g>
                  </g>
                </g>
              </g>
              <rect id="Rectángulo_64479" data-name="Rectángulo 64479" width="106.186" height="3.153" transform="translate(94.741 22.568)" fill="#0041ef"/>
              <path id="Trazado_236263" data-name="Trazado 236263" d="M205.323,50.714l-.47-.233c-.587-.292-.922-.44-.922-.44l-.482-.215.427-.959.48.212s.345.156.962.461l.47.233Z" transform="translate(98.141 23.573)" fill="#0041ef"/>
              <path id="Trazado_236264" data-name="Trazado 236264" d="M201.768,135.846l-.2-1.032.516-.1c.67-.129,1.349-.274,2.032-.439l.511-.122.243,1.023-.511.122q-1.045.249-2.078.448Zm6.185-1.554-.337-.995.5-.169q.974-.331,1.948-.716l.489-.193.387.977-.488.193c-.666.264-1.334.508-2,.735Zm5.9-2.431-.489-.929.464-.245q.912-.478,1.809-1.012l.451-.271.54.9-.452.268q-.918.551-1.857,1.042Zm5.433-3.361-.645-.83.415-.323q.812-.627,1.6-1.313l.394-.347.692.79-.4.347q-.809.707-1.645,1.355Zm4.741-4.286-.783-.7.348-.393q.683-.76,1.33-1.583l.325-.412.826.652-.326.412q-.669.847-1.37,1.631Zm3.879-5.073-.9-.548.273-.448q.534-.867,1.03-1.8l.249-.463.925.5-.248.461q-.511.954-1.058,1.849Zm2.941-5.658-.975-.4.2-.486q.385-.947.734-1.94l.173-.5.992.348-.175.5q-.358,1.021-.752,1.988Zm2.037-6.033-1.018-.256.128-.51c.166-.66.323-1.334.467-2.025l.108-.514,1.029.216-.108.514q-.222,1.054-.476,2.066Zm1.245-6.23-1.042-.139.07-.522c.092-.677.17-1.367.24-2.066l.05-.525,1.048.1-.053.523c-.068.715-.151,1.416-.243,2.1Zm.578-6.322-1.05-.04s.062-1.9.07-2.61l.006-.526,1.051.012-.006.525q-.011,1.074-.05,2.115Zm-1.021-6.3s-.071-1.659-.105-2.237l-.061-.9,1.048-.073.168,3.163Zm-.559-6.2-.1-.516c-.128-.683-.276-1.358-.443-2.019l-.127-.508,1.018-.256.129.507q.258,1.027.458,2.084l.095.516Zm-1.6-5.992-.185-.491q-.371-.976-.792-1.915l-.213-.479.958-.428.215.479q.431.967.814,1.97l.187.492Zm-2.6-5.64-.265-.454q-.527-.9-1.09-1.768l-.288-.439.881-.574.286.44q.576.885,1.116,1.81l.265.454Zm-3.455-5.181-.328-.411q-.654-.821-1.33-1.6l-.344-.4.793-.688.345.4c.458.531.913,1.076,1.358,1.635l.326.411Zm-4.136-4.671-.374-.368q-.754-.74-1.514-1.432l-.39-.353.709-.778.388.356q.774.7,1.542,1.457l.375.369Zm-4.652-4.17-.414-.326q-.84-.663-1.66-1.266l-.422-.311.623-.845.422.311q.829.609,1.688,1.285l.412.325Zm-5.07-3.675-.442-.283c-.623-.4-1.217-.766-1.774-1.1l-.451-.268.537-.9.452.268c.566.338,1.17.71,1.8,1.118l.442.283Z" transform="translate(97.235 24.369)" fill="#0041ef"/>
              <path id="Trazado_236265" data-name="Trazado 236265" d="M198.129,108.945l-.093-1.045,2.078-.2.113,1.045Z" transform="translate(95.53 51.951)" fill="#0041ef"/>
              <path id="Trazado_236266" data-name="Trazado 236266" d="M167.648,68.9l-.883-.566.282-.442q.587-.918,1.186-1.763l.3-.43.858.606-.3.428q-.583.827-1.156,1.723Zm3.641-5.04-.793-.688.345-.4c.477-.55.953-1.076,1.429-1.573l.365-.378.757.726-.363.379q-.7.727-1.395,1.534Zm4.367-4.412-.669-.811.4-.335c.568-.468,1.134-.9,1.69-1.3l.427-.307.612.854-.425.307q-.809.578-1.635,1.26Zm5.077-3.528-.485-.931.465-.243c.674-.35,1.319-.654,1.933-.918l.485-.206.412.967-.482.206c-.591.252-1.214.544-1.862.884Zm5.713-2.286-.228-1.024.511-.116a13.109,13.109,0,0,1,2.179-.331l.525-.018.036,1.048-.523.021a12.178,12.178,0,0,0-1.986.305Z" transform="translate(80.445 25.152)" fill="#0041ef"/>
              <path id="Trazado_236267" data-name="Trazado 236267" d="M22,164.288l-.422-.31s-.631-.46-1.677-1.345l-.4-.339.677-.8.4.339c1,.846,1.619,1.3,1.619,1.3l.424.31Zm-4.865-4.145-.377-.366q-.716-.7-1.5-1.5L14.9,157.9l.755-.729.366.378q.765.792,1.473,1.479l.377.366Zm-4.376-4.616-.339-.4q-.667-.787-1.345-1.642l-.325-.411.823-.654.326.412q.665.841,1.322,1.614l.339.4Zm-3.9-5.021-.3-.433c-.394-.577-.784-1.165-1.167-1.771l-.28-.445L8,147.3l.282.445q.565.892,1.146,1.74l.3.434Zm-3.346-5.414-.245-.465q-.489-.929-.952-1.9l-.225-.473.947-.454.227.474q.451.947.932,1.86l.245.465ZM2.846,139.31l-.182-.492q-.367-.989-.691-2.012l-.159-.5,1-.316.159.5c.21.664.436,1.321.674,1.963l.181.492ZM1,133.208l-.108-.514C.747,132,.618,131.306.508,130.6l-.082-.519,1.038-.162.082.519q.162,1.032.374,2.04l.107.514Zm-.9-6.313-.028-.523Q.015,125.293,0,124.247l0-.523,1.051-.01,0,.525c.007.68.028,1.373.067,2.075l.028.525Zm1.057-6.284-1.047-.084L.153,120q.087-1.076.221-2.114l.067-.52,1.042.132-.067.522q-.131,1.014-.216,2.065Zm.863-6.161L1,114.219l.116-.513c.16-.706.334-1.39.519-2.062l.139-.5,1.012.279-.139.507q-.273.978-.507,2.012Zm1.736-5.974-.981-.378.188-.489q.391-1.018.811-1.967l.212-.48.962.422-.212.482q-.409.927-.793,1.92Zm2.579-5.666L5.42,102.3l.258-.458c.363-.643.728-1.254,1.088-1.828l.28-.445.889.559-.28.445q-.529.84-1.063,1.785Zm3.38-5.224-.827-.648.325-.414c.5-.637.961-1.186,1.364-1.641l.347-.394.787.7-.347.393c-.391.445-.841.977-1.325,1.6Z" transform="translate(0 45.58)" fill="#0041ef"/>
              <path id="Trazado_236268" data-name="Trazado 236268" d="M170.163,110.322l-.191-.489a18.474,18.474,0,0,1-.63-2.078l-.127-.508,1.02-.255.127.51a18.312,18.312,0,0,0,.589,1.949l.191.489Zm-1.466-6.276-.042-.523c-.042-.566-.068-1.158-.068-1.766l.009-.9,1.051.007-.009.894c0,.581.024,1.144.065,1.687l.04.523Zm1.322-6.189L169,97.61l.123-.511a17.271,17.271,0,0,1,.639-2.069l.187-.491.983.374-.187.491a15.869,15.869,0,0,0-.6,1.942Zm2.353-5.58-.842-.629.314-.421a16.2,16.2,0,0,1,1.41-1.647l.366-.375.752.734-.368.377a15.171,15.171,0,0,0-1.318,1.54Zm4.363-4.289-.621-.846.422-.31q.914-.672,1.757-1.21l.443-.283.566.885-.442.283c-.546.35-1.113.737-1.7,1.171ZM182,84.78l-.4-.971.486-.2a15.5,15.5,0,0,1,2.058-.694l.507-.132.262,1.017-.51.13a15.02,15.02,0,0,0-1.918.649Zm7.5-.781h-1.051v-.175c-.046-.015-.1-.033-.16-.047l-.507-.142.282-1.012.505.141c.632.175.931.328.931.712Z" transform="translate(81.324 39.856)" fill="#0041ef"/>
              <path id="Trazado_236269" data-name="Trazado 236269" d="M152.516,139.333l1.038,6.638a8.5,8.5,0,0,0,3.836-2.722c1.223-1.518,16.558-4.884,16.558-4.884l-4.425-2.559s-5.878-.553-8.365.07a19.481,19.481,0,0,0-5.048,2.305Z" transform="translate(73.571 65.402)" fill="#feb3a2"/>
              <path id="Trazado_236270" data-name="Trazado 236270" d="M155.5,117.832s-8.688,1.757-13.671,4.4c-8,4.246-22.279,32.879-19.8,38.68,6.625,15.482,46.662-5.842,46.662-5.842l-1.075-7.415,3.61-.78,4.684-2.44s-2.342-13.073-4.684-15.807a42.47,42.47,0,0,0-7.032-6.643c-.237-.291.442,2.184-1.528,2.1s-4.69-.388-6.288-2.129c-2.277-2.482-.882-4.131-.882-4.131" transform="translate(58.728 56.84)" fill="#0b67d1"/>
              <path id="Trazado_236271" data-name="Trazado 236271" d="M131.969,153.1a.371.371,0,0,1-.334-.532l1.264-2.6-1.7.276a.38.38,0,0,1-.394-.2.369.369,0,0,1,.086-.436l2.854-2.573a117.146,117.146,0,0,0,6.81-10.15c2.625-4.489,5.384-8.98,5.411-9.025a.37.37,0,0,1,.631.387c-.027.046-2.781,4.532-5.4,9.011a116.89,116.89,0,0,1-6.908,10.276l-1.969,1.78,1.167-.19a.371.371,0,0,1,.393.529l-.766,1.58,2.482-2.189a.383.383,0,0,1,.157-.083l27.074-6.674a.365.365,0,0,1,.3.055.379.379,0,0,1,.157.259l.873,7.035a.369.369,0,0,1-.322.414.361.361,0,0,1-.414-.32l-.823-6.622-26.581,6.552-3.8,3.353a.362.362,0,0,1-.245.092" transform="translate(63.081 61.591)" fill="#09030f"/>
              <path id="Trazado_236272" data-name="Trazado 236272" d="M55.123,167.435a9.068,9.068,0,1,1-9.065-9.072,9.068,9.068,0,0,1,9.065,9.072" transform="translate(17.841 76.392)" fill="#c8e5f9"/>
              <path id="Trazado_236273" data-name="Trazado 236273" d="M28.924,33.084a4.472,4.472,0,1,1-4.471-4.474,4.473,4.473,0,0,1,4.471,4.474" transform="translate(9.638 13.801)" fill="#c8e5f9"/>
              <path id="Trazado_236274" data-name="Trazado 236274" d="M179.625,25.776a4.472,4.472,0,1,1-4.471-4.474,4.473,4.473,0,0,1,4.471,4.474" transform="translate(82.333 10.276)" fill="#c8e5f9"/>
              <path id="Trazado_236275" data-name="Trazado 236275" d="M91.673,183.916a4.473,4.473,0,1,1-4.471-4.474,4.473,4.473,0,0,1,4.471,4.474" transform="translate(39.906 86.56)" fill="#fff"/>
              <path id="Trazado_236276" data-name="Trazado 236276" d="M12.275,67.494a5.214,5.214,0,1,1,5.214-5.211,5.185,5.185,0,0,1-5.214,5.211m0-8.945a3.731,3.731,0,1,0,3.731,3.734,3.711,3.711,0,0,0-3.731-3.734" transform="translate(3.406 27.528)" fill="#9fc6f1"/>
              <path id="Trazado_236277" data-name="Trazado 236277" d="M166.841,59.365a8.178,8.178,0,1,1,8.18-8.174,8.187,8.187,0,0,1-8.18,8.174m0-14.873a6.7,6.7,0,1,0,6.694,6.7,6.706,6.706,0,0,0-6.694-6.7" transform="translate(76.537 20.747)" fill="#fff"/>
              <path id="Trazado_236278" data-name="Trazado 236278" d="M146.36,32.8l-2.267-2.189a12.343,12.343,0,0,0,.034-17.141l2.267-2.189a15.494,15.494,0,0,1-.034,21.52" transform="translate(69.508 5.439)" fill="#649cf1"/>
              <path id="Trazado_236279" data-name="Trazado 236279" d="M152.492,43.453,150.186,41.3a24.309,24.309,0,0,0-.256-33.44L152.2,5.679a27.469,27.469,0,0,1,.288,37.774" transform="translate(72.324 2.739)" fill="#649cf1"/>
              <path id="Trazado_236280" data-name="Trazado 236280" d="M158.71,54.28l-2.318-2.133a36.454,36.454,0,0,0-.553-49.961L158.11,0a39.606,39.606,0,0,1,.6,54.28" transform="translate(75.174)" fill="#649cf1"/>
              <path id="Trazado_236281" data-name="Trazado 236281" d="M152.1,121.606a.373.373,0,0,1-.212-.067c-2.514-1.745-4.257-6.094-4.329-6.279a.37.37,0,1,1,.688-.273c.018.043,1.734,4.327,4.065,5.944a.371.371,0,0,1-.212.674" transform="translate(71.169 55.355)" fill="#09030f"/>
              <path id="Trazado_236282" data-name="Trazado 236282" d="M184.812,139.631l-.525-.039a18.336,18.336,0,0,1-2.154-.265l-.513-.107.211-1.027.514.105a17.415,17.415,0,0,0,2.018.246l.525.039Zm3.242-.05-.108-1.045.522-.055a20.47,20.47,0,0,0,2.025-.31l.514-.105.211,1.027-.513.107c-.688.141-1.405.252-2.127.326Zm6.278-1.487-.439-.955.476-.219a15.344,15.344,0,0,0,1.785-.968l.443-.282.563.888-.445.28a16.439,16.439,0,0,1-1.906,1.036Zm5.338-3.667-.786-.7.35-.391a15.038,15.038,0,0,0,1.241-1.6l.294-.436.872.584-.293.436a15.747,15.747,0,0,1-1.328,1.715Zm3.409-5.5-1-.329.165-.5a16.4,16.4,0,0,0,.517-1.969l.1-.514,1.03.2-.1.516a18.226,18.226,0,0,1-.55,2.093Zm.052-6.34-.006-.526c-.007-.674-.047-1.365-.117-2.052l-.052-.522,1.045-.1.052.522c.073.716.114,1.438.122,2.144l.006.525Zm-.716-6.128-.13-.508c-.191-.755-.394-1.423-.58-1.983l-.166-.5,1-.331.165.5c.194.58.4,1.272.6,2.052l.129.51Z" transform="translate(87.611 54.575)" fill="#0041ef"/>
            </g>
          </g>
          <g id="Grupo_183854" data-name="Grupo 183854" transform="translate(94.011 8.768)">
            <g id="Grupo_183853" data-name="Grupo 183853" clip-path="url(#clip-path-11)">
              <rect id="Rectángulo_64481" data-name="Rectángulo 64481" width="107.061" height="6.775" transform="translate(0 -0.165)" fill="url(#linear-gradient-5)"/>
            </g>
          </g>
          <g id="Grupo_183856" data-name="Grupo 183856">
            <g id="Grupo_183855" data-name="Grupo 183855" clip-path="url(#clip-path)">
              <path id="Trazado_236284" data-name="Trazado 236284" d="M131.653,10.61h-5.841A.815.815,0,0,1,125,9.8V7.7a.815.815,0,0,1,.814-.814h5.841a.815.815,0,0,1,.814.814V9.8a.815.815,0,0,1-.814.812M125.813,7.3a.4.4,0,0,0-.4.4V9.8a.4.4,0,0,0,.4.4h5.841a.4.4,0,0,0,.4-.4V7.7a.4.4,0,0,0-.4-.4Z" transform="translate(60.298 3.323)" fill="#fff"/>
              <path id="Trazado_236285" data-name="Trazado 236285" d="M130.066,9.7H125.9a.481.481,0,0,1-.474-.489V7.843a.481.481,0,0,1,.474-.489h2.683Z" transform="translate(60.504 3.547)" fill="#fff"/>
              <path id="Trazado_236286" data-name="Trazado 236286" d="M130.536,8v.468a.145.145,0,0,1-.145.15H129.9V7.846h.491a.147.147,0,0,1,.145.15" transform="translate(62.662 3.785)" fill="#fff"/>
              <path id="Trazado_236287" data-name="Trazado 236287" d="M73.688,8.08l-.569.6a2.922,2.922,0,0,0-4.056.03l-.58-.594a3.749,3.749,0,0,1,5.2-.037" transform="translate(33.035 3.4)" fill="#fff"/>
              <path id="Trazado_236288" data-name="Trazado 236288" d="M72.556,8.572l-.575.609a1.672,1.672,0,0,0-2.327.018l-.587-.6a2.52,2.52,0,0,1,3.49-.025" transform="translate(33.316 3.803)" fill="#fff"/>
              <path id="Trazado_236289" data-name="Trazado 236289" d="M71.4,9.08l-.863.909-.873-.9A1.252,1.252,0,0,1,71.4,9.08" transform="translate(33.604 4.214)" fill="#fff"/>
              <rect id="Rectángulo_64482" data-name="Rectángulo 64482" width="1.143" height="4.044" transform="translate(113.548 10.159)" fill="#fff"/>
              <rect id="Rectángulo_64483" data-name="Rectángulo 64483" width="1.143" height="3.149" transform="translate(111.849 11.054)" fill="#fff"/>
              <rect id="Rectángulo_64484" data-name="Rectángulo 64484" width="1.143" height="2.391" transform="translate(110.273 11.812)" fill="#fff"/>
              <rect id="Rectángulo_64485" data-name="Rectángulo 64485" width="1.143" height="1.196" transform="translate(108.723 13.006)" fill="#fff"/>
            </g>
          </g>
        </g>
      </g>
    </g>
  </g>
</svg>
