<?xml version="1.0" encoding="utf-8"?>
<!-- Generator: Adobe Illustrator 26.2.1, SVG Export Plug-In . SVG Version: 6.00 Build 0)  -->
<svg version="1.1" id="Layer_1" xmlns="http://www.w3.org/2000/svg" xmlns:xlink="http://www.w3.org/1999/xlink" x="0px" y="0px"
	 viewBox="0 0 849.9 616.7" style="enable-background:new 0 0 849.9 616.7;" xml:space="preserve">
<style type="text/css">
	.st0{fill:#FFFFFF;stroke:#818181;stroke-width:3;stroke-miterlimit:10;}
	.st1{fill:#CCCCCC;}
	.st2{fill:#E6E6E5;}
	.st3{fill:#FFFFFF;stroke:#818181;stroke-width:5;stroke-miterlimit:10;}
	.st4{fill:#B4B4B4;}
</style>
<path class="st0" d="M409.6,545.3H117.2c-9.7,0-17.5-7.8-17.5-17.5V108.3c0-9.7,7.8-17.5,17.5-17.5h292.4c9.7,0,17.5,7.8,17.5,17.5
	v419.5C427.1,537.4,419.3,545.3,409.6,545.3z"/>
<rect x="144.9" y="284.5" class="st1" width="242" height="27.7"/>
<rect x="144.9" y="344.3" class="st2" width="242" height="24.1"/>
<rect x="144.9" y="392.1" class="st2" width="242" height="24.1"/>
<rect x="144.9" y="431.9" class="st2" width="242" height="24.1"/>
<rect x="144.9" y="468.4" class="st2" width="170.2" height="24.1"/>
<g>
	<circle class="st3" cx="261.2" cy="183.9" r="68.5"/>
	<g>
		<g>
			<path class="st4" d="M283.5,164.7l3.4-3.4l3.1,3.1l3.1-3.1l-9.2-9.2l-3.1,3.1l3.1,3.1l-3.7,3.7c-3.7-2.7-7.9-4.5-12.4-5.4v-5.1
				h4.3V147h-21.6v4.3h4.3v5.1c-4.5,0.9-8.7,2.8-12.4,5.4l-3.7-3.7l3.1-3.1l-3.1-3.1l-9.2,9.2l3.1,3.1l3.1-3.1l3.4,3.4
				c-6.4,6-10.1,14.4-10.1,23.5c0,17.9,14.5,32.5,32.4,32.5c17.9,0,32.4-14.6,32.4-32.5C293.6,179.5,290.2,171,283.5,164.7z
				 M259.1,151.3h4.3v4.5c-0.7,0-1.4-0.1-2.2-0.1c-0.7,0-1.4,0-2.2,0.1V151.3z M261.2,216.4c-15.5,0-28.1-12.7-28.1-28.2
				c0-15.5,12.6-28.1,28.1-28.1s28.1,12.6,28.1,28.1C289.3,203.7,276.7,216.4,261.2,216.4z"/>
			<path class="st4" d="M263.4,182.1v-17.6h-4.3v17.6c-2.5,0.9-4.3,3.3-4.3,6.1c0,3.6,2.9,6.5,6.5,6.5s6.5-2.9,6.5-6.5
				C267.7,185.4,265.9,183,263.4,182.1z M261.2,190.3c-1.2,0-2.2-1-2.2-2.2c0-1.2,1-2.2,2.2-2.2s2.2,1,2.2,2.2
				C263.4,189.4,262.4,190.3,261.2,190.3z"/>
			<path class="st4" d="M259.1,207.6h4.3v4.3h-4.3V207.6z"/>
			<path class="st4" d="M237.5,186h4.3v4.3h-4.3V186z"/>
			<path class="st4" d="M280.6,186h4.3v4.3h-4.3V186z"/>
			<path class="st4" d="M245.9,206.5l-3.1-3.1l3.1-3.1l3.1,3.1L245.9,206.5z"/>
			<path class="st4" d="M276.5,176l-3.1-3.1l3.1-3.1l3.1,3.1L276.5,176z"/>
			<path class="st4" d="M276.5,206.5l-3.1-3.1l3.1-3.1l3.1,3.1L276.5,206.5z"/>
			<path class="st4" d="M245.9,176l-3.1-3.1l3.1-3.1l3.1,3.1L245.9,176z"/>
		</g>
	</g>
</g>
<path class="st0" d="M707.6,334.3H466.9c-6.1,0-11.1-5-11.1-11.1V119.7c0-6.1,5-11.1,11.1-11.1h240.7c6.1,0,11.1,5,11.1,11.1v203.6
	C718.6,329.4,713.7,334.3,707.6,334.3z"/>
<rect x="484.3" y="182.8" class="st1" width="205.4" height="17.5"/>
<rect x="483.6" y="220.8" class="st2" width="206.1" height="15.3"/>
<rect x="483.6" y="251.1" class="st2" width="206.1" height="15.3"/>
<rect x="483.6" y="276.3" class="st2" width="130.3" height="15.3"/>
<g>
	<circle class="st3" cx="591.2" cy="108.6" r="43.4"/>
	<g>
		<g>
			<path class="st4" d="M611.7,95.6l-5,2.5l-1.1-2.2l5-2.5L611.7,95.6z"/>
			<path class="st4" d="M610.5,115.5l-5-2.5l1.1-2.2l5,2.5L610.5,115.5z"/>
			<path class="st4" d="M607.4,103.2h5.1v2.5h-5.1V103.2z"/>
			<path class="st4" d="M571.8,93.4l5,2.5l-1.1,2.2l-5-2.5L571.8,93.4z"/>
			<path class="st4" d="M571.8,115.5l-1.1-2.2l5-2.5l1.1,2.2L571.8,115.5z"/>
			<path class="st4" d="M569.9,103.2h5.1v2.5h-5.1V103.2z"/>
			<path class="st4" d="M587.4,130.8h7.5v2.5h-7.5V130.8z"/>
			<path class="st4" d="M604.9,104.5c0-7.6-6.1-13.7-13.7-13.7s-13.7,6.1-13.7,13.7c0,5.2,2.9,9.8,7.5,12.2v4h-2.5v2.5h2.5v5.1h12.5
				v-5.1h2.5v-2.5h-2.5v-4C602,114.3,604.9,109.6,604.9,104.5z M594.9,125.8h-7.5v-2.7h7.5V125.8z M589.9,106.9
				c0-0.7,0.6-1.2,1.2-1.2c0.7,0,1.2,0.6,1.2,1.2c0,0.7-0.6,1.2-1.2,1.2C590.5,108.2,589.9,107.6,589.9,106.9z M592.4,120.6v-10.2
				c1.4-0.5,2.5-1.9,2.5-3.5c0-2.1-1.7-3.7-3.7-3.7s-3.7,1.7-3.7,3.7c0,1.6,1,3,2.5,3.5v10.2h-2.5V115l-0.7-0.3
				c-4.1-1.8-6.7-5.8-6.7-10.3c0-6.2,5-11.2,11.2-11.2c6.2,0,11.2,5,11.2,11.2c0,4.4-2.6,8.5-6.7,10.3l-0.7,0.3v5.6H592.4z"/>
		</g>
	</g>
</g>
<path class="st0" d="M718.6,370v165c0,5.1-4.1,9.2-9.2,9.2H502.2c-5.1,0-9.2-4.1-9.2-9.2V370c0-5.1,4.1-9.2,9.2-9.2h207.2
	C714.5,360.8,718.6,364.9,718.6,370z"/>
<rect x="554.5" y="385.4" class="st1" width="129.9" height="17.5"/>
<rect x="554.1" y="423.3" class="st2" width="130.3" height="15.3"/>
<rect x="554.1" y="453.7" class="st2" width="130.3" height="15.3"/>
<rect x="554.1" y="478.9" class="st2" width="130.3" height="15.3"/>
<g>
	<circle class="st3" cx="492.9" cy="452.5" r="43.4"/>
	<g>
		<g>
			<path class="st4" d="M512.4,436.1l-5,2.5l-1.1-2.2l5-2.5L512.4,436.1z"/>
			<path class="st4" d="M511.3,456.1l-5-2.5l1.1-2.2l5,2.5L511.3,456.1z"/>
			<path class="st4" d="M508.1,443.7h5.1v2.5h-5.1V443.7z"/>
			<path class="st4" d="M472.6,433.9l5,2.5l-1.1,2.2l-5-2.5L472.6,433.9z"/>
			<path class="st4" d="M472.6,456.1l-1.1-2.2l5-2.5l1.1,2.2L472.6,456.1z"/>
			<path class="st4" d="M470.7,443.7h5.1v2.5h-5.1V443.7z"/>
			<path class="st4" d="M488.2,471.3h7.5v2.5h-7.5L488.2,471.3z"/>
			<path class="st4" d="M505.6,445c0-7.6-6.1-13.7-13.7-13.7s-13.7,6.1-13.7,13.7c0,5.2,2.9,9.8,7.5,12.2v4h-2.5v2.5h2.5v5.1h12.5
				v-5.1h2.5v-2.5h-2.5v-4C502.7,454.8,505.6,450.1,505.6,445z M495.7,466.3h-7.5v-2.7h7.5V466.3z M490.7,447.5
				c0-0.7,0.6-1.2,1.2-1.2c0.7,0,1.2,0.6,1.2,1.2c0,0.7-0.6,1.2-1.2,1.2C491.3,448.7,490.7,448.2,490.7,447.5z M493.2,461.2V451
				c1.4-0.5,2.5-1.9,2.5-3.5c0-2.1-1.7-3.7-3.7-3.7s-3.7,1.7-3.7,3.7c0,1.6,1,3,2.5,3.5v10.2h-2.5v-5.6l-0.7-0.3
				c-4.1-1.8-6.7-5.8-6.7-10.3c0-6.2,5-11.2,11.2-11.2c6.2,0,11.2,5,11.2,11.2c0,4.4-2.6,8.5-6.7,10.3l-0.7,0.3v5.6H493.2z"/>
		</g>
	</g>
</g>
</svg>
